/* XPM */
static char *_ca46257af2549e8affed13f153e6ad0OUFcGckG4pZ8DDLF[] = {
/* columns rows colors chars-per-pixel */
"64 64 256 2 ",
"   c gray11",
".  c gray11",
"X  c #1D1D1D",
"o  c #1E1E1E",
"O  c gray12",
"+  c #202020",
"@  c gray13",
"#  c #222222",
"$  c #232323",
"%  c gray14",
"&  c gray14",
"*  c #252525",
"=  c gray15",
"-  c #272727",
";  c #282828",
":  c gray16",
">  c #2A2A2A",
",  c gray17",
"<  c #2C2C2C",
"1  c #2C2C2C",
"2  c #2D2D2D",
"3  c gray18",
"4  c #2F2F2F",
"5  c gray19",
"6  c #313131",
"7  c #323232",
"8  c gray20",
"9  c #343434",
"0  c #343434",
"q  c #353535",
"w  c gray21",
"e  c #373737",
"r  c gray22",
"t  c #393939",
"y  c #3A3A3A",
"u  c gray23",
"i  c #3C3C3C",
"p  c #3C3C3C",
"a  c gray24",
"s  c #3E3E3E",
"d  c #3F3F3F",
"f  c gray25",
"g  c #414141",
"h  c gray26",
"j  c #434343",
"k  c #444444",
"l  c #444444",
"z  c gray27",
"x  c #464646",
"c  c gray28",
"v  c #484848",
"b  c #494949",
"n  c gray29",
"m  c #4B4B4B",
"M  c #4C4C4C",
"N  c #4C4C4C",
"B  c gray30",
"V  c #4E4E4E",
"C  c gray31",
"Z  c #505050",
"A  c #515151",
"S  c gray32",
"D  c #535353",
"F  c gray33",
"G  c gray33",
"H  c #555555",
"J  c #565656",
"K  c gray34",
"L  c #585858",
"P  c gray35",
"I  c #5A5A5A",
"U  c #5B5B5B",
"Y  c gray36",
"T  c gray36",
"R  c #5D5D5D",
"E  c gray37",
"W  c #5F5F5F",
"Q  c #606060",
"!  c gray38",
"~  c #626262",
"^  c gray39",
"/  c #646464",
"(  c #646464",
")  c #656565",
"_  c gray40",
"`  c #676767",
"'  c #686868",
"]  c DimGray",
"[  c #6A6A6A",
"{  c gray42",
"}  c #6C6C6C",
"|  c #6D6D6D",
" . c #6D6D6D",
".. c gray43",
"X. c #6F6F6F",
"o. c gray44",
"O. c #717171",
"+. c #727272",
"@. c gray45",
"#. c #747474",
"$. c gray46",
"%. c gray46",
"&. c #767676",
"*. c #777777",
"=. c gray47",
"-. c #797979",
";. c gray48",
":. c #7B7B7B",
">. c #7C7C7C",
",. c gray49",
"<. c gray49",
"1. c #7E7E7E",
"2. c gray50",
"3. c #808080",
"4. c #818181",
"5. c gray51",
"6. c #838383",
"7. c #848484",
"8. c gray52",
"9. c gray52",
"0. c #868686",
"q. c gray53",
"w. c #888888",
"e. c #898989",
"r. c gray54",
"t. c #8B8B8B",
"y. c gray55",
"u. c #8D8D8D",
"i. c #8D8D8D",
"p. c #8E8E8E",
"a. c gray56",
"s. c #909090",
"d. c gray57",
"f. c #929292",
"g. c #939393",
"h. c gray58",
"j. c #959595",
"k. c #959595",
"l. c gray59",
"z. c #979797",
"x. c #989898",
"c. c gray60",
"v. c #9A9A9A",
"b. c #9B9B9B",
"n. c gray61",
"m. c #9D9D9D",
"M. c #9D9D9D",
"N. c gray62",
"B. c #9F9F9F",
"V. c #A0A0A0",
"C. c gray63",
"Z. c #A2A2A2",
"A. c gray64",
"S. c #A4A4A4",
"D. c #A5A5A5",
"F. c #A5A5A5",
"G. c gray65",
"H. c #A7A7A7",
"J. c gray66",
"K. c #A9A9A9",
"L. c #AAAAAA",
"P. c gray67",
"I. c #ACACAC",
"U. c gray68",
"Y. c gray68",
"T. c #AEAEAE",
"R. c #AFAFAF",
"E. c gray69",
"W. c #B1B1B1",
"Q. c #B2B2B2",
"!. c gray70",
"~. c #B4B4B4",
"^. c gray71",
"/. c #B6B6B6",
"(. c #B6B6B6",
"). c #B7B7B7",
"_. c gray72",
"`. c #B9B9B9",
"'. c gray73",
"]. c #BBBBBB",
"[. c #BCBCBC",
"{. c gray74",
"}. c gray",
"|. c gray",
" X c gray75",
".X c #C0C0C0",
"XX c #C1C1C1",
"oX c gray76",
"OX c #C3C3C3",
"+X c gray77",
"@X c #C5C5C5",
"#X c #C6C6C6",
"$X c #C6C6C6",
"%X c gray78",
"&X c #C8C8C8",
"*X c gray79",
"=X c #CACACA",
"-X c #CBCBCB",
";X c gray80",
":X c #CDCDCD",
">X c #CECECE",
",X c #CECECE",
"<X c gray81",
"1X c #D0D0D0",
"2X c gray82",
"3X c #D2D2D2",
"4X c LightGray",
"5X c gray83",
"6X c #D5D5D5",
"7X c gray84",
"8X c gray84",
"9X c #D7D7D7",
"0X c #D8D8D8",
"qX c gray85",
"wX c #DADADA",
"eX c gray86",
"rX c gainsboro",
"tX c #DDDDDD",
"yX c gray87",
"uX c gray87",
"iX c #DFDFDF",
"pX c gray88",
"aX c #E1E1E1",
"sX c #E2E2E2",
"dX c gray89",
"fX c #E4E4E4",
"gX c gray90",
"hX c #E6E6E6",
"jX c #E6E6E6",
"kX c #E7E7E7",
"lX c gray91",
"zX c #E9E9E9",
"xX c #EAEAEA",
"cX c gray92",
"vX c #ECECEC",
"bX c gray93",
"nX c #EEEEEE",
"mX c #EEEEEE",
"MX c #EFEFEF",
"NX c gray94",
"BX c #F1F1F1",
"VX c gray95",
"CX c #F3F3F3",
"ZX c #F4F4F4",
"AX c gray96",
"SX c #F6F6F6",
"DX c #F6F6F6",
"FX c gray97",
"GX c #F8F8F8",
"HX c #F9F9F9",
"JX c gray98",
"KX c #FBFBFB",
"LX c gray99",
"PX c #FDFDFD",
"IX c #FEFEFE",
"UX c white",
/* pixels */
"i p w q t y w w h g d l z k s a 0 8 1 5 t w 5 4 5 5 4 3 p a 4 2 1 5 4 6 6 9 0 9 f g h j l c i 8 6 1 5 5 5 5 1 7 7 8 w u y w y t ",
"p i 9 q q i 6 p y y u z z k d y 4 4 4 e e w e 8 4 4 2 2 3 2 3 2 w r 4 u y 9 9 a d p i a i 0 6 6 6 6 4 5 6 1 1 7 0 u d u y t 8 0 ",
"p p u w f j y y h h y p d z f 8 5 s e w e t r 6 3 w q 2 2 5 u u w u y t y k p f a i u a 8 5 8 6 e i 6 6 2 7 9 e y u y s t f i a ",
"i p p p h s w a p i s p r k k 0 p a e w u e 5 0 p u w e 7 y p i i y y y h k p j g f g t q 9 5 t w q e w 7 w r y r r r y a p a a ",
"p a e a p p s a a d a f j a s t i i a e e p 9 4 u d y e 0 y r t f p e d d l j g s w r r p i i q 8 9 r t r f f k u u q e h u p p ",
"s k d y a f d a j d k f u i a u 7 i p a u 6 5 5 w p p p i e y p t i i u f d h g w w w p p p t 0 9 8 0 u x k k k g u i q 3 g a j ",
"z d f d s f k k p g c p p t w u w w 5 5 t p e 5 0 p f p y 0 e e 0 j d f i i h h w p u p p p w 0 8 0 y j h p g q 9 6 6 0 e i f s ",
"a p d s a a u y f c c p t t t 9 w q i i k g u y 0 t d s q 0 0 9 0 a u i i i a a h p r k a r y t 0 5 i i 0 0 4 4 4 4 q y i j j t ",
"e y a s s s a u u d v a e q q u p w u i d j d d r q 0 a 0 0 0 q 9 u t a a y j i i p s y 9 0 f p q 9 7 3 8 e e y 6 7 w w j h g g ",
"u i p d s k a a u u t a 2 0 u u w y w w h g a 8 9 q e d p 0 8 8 t e i f g h i i y a y 8 8 q t t 9 0 9 9 0 s u p y 7 w w g h g s ",
"p h l p k k h s a w 8 8 1 , w t r r t u 8 8 h a 7 t d u y y u t e u f f g x y y f i 5 9 0 8 t d e 9 9 9 9 u d a p 6 7 u u g d 8 ",
"s s g g v h k k u y q e 5 7 e r a t 7 0 9 d d a i 9 i y l k k z y g h h x k a a y s t 6 4 4 3 r u u r 2 5 9 p h q e w 9 w w < < ",
"s k z v h v j p u u e 5 7 9 w y i q 0 8 e i u y t 8 q h k k k f c l x x x f a l j u y 8 8 4 e x u r 8 6 5 5 g c 8 8 q 9 y y e , ",
"i l b x x f p y u r 6 5 9 t u u u r q 0 8 9 i w 5 6 5 p a k g d c d w f x v l d s j 9 t e q r u k 7 8 0 6 i l k k q 8 w t t w 5 ",
"y d l z x r p y r 8 8 7 t a u a w y 9 9 6 9 w 7 5 6 5 y a s f f 9 r p j v h i u y u r w e e w r a 0 e 9 0 f g k k t t i f f 9 8 ",
"d l l a i u t y r q q 9 u u u u 7 4 4 9 0 d p 0 r 7 7 7 j a a w 0 0 h p g g i i a t e e 0 w e q 6 q e e 8 6 g x 5 7 i x j a d 8 ",
"l b a c d q q y e e 9 q q t t 3 0 t s d g h h x 9 9 8 6 0 9 8 w e p p x g h j i f f t q e 7 7 5 4 8 q y 8 7 7 6 e w w h p p p 6 ",
"g l x c i w y q 0 i d 7 9 0 7 w 0 i a a a u k c q 0 7 8 8 0 8 8 f f f l u t i d d d p 9 7 8 8 3 3 3 0 0 6 g g 7 9 e w 9 p i 5 e ",
"f u h h a 8 q 9 e p k l u u 9 q e u u r e u r 0 y 9 8 8 8 8 7 q f a g p 9 u g d s i r t r 0 q 2 2 5 5 6 y y d k 5 f k 9 7 0 r i ",
"i h w r p 9 w e p k k k d f i 6 e e a e 8 8 8 6 8 7 6 6 7 8 6 e q s g e i u y r y r r r r u 0 8 3 3 u p u p p y t f f f 0 8 g p ",
"k 6 t r 6 i i t y v d y n n i t e e q 7 6 5 5 8 7 5 5 6 6 6 w r y e r f i u i i i i r r r r y u 3 p h h k i w t y y f f 0 w q j ",
"8 6 3 r s p d i f d s b c C g w e t 8 7 7 5 8 7 7 8 3 5 7 7 p p a p s k t y f l i i i i d u u e e h h h h u r 5 5 w k l z w w t ",
"i 6 5 q a d g l f y u f d p a 3 9 8 8 8 8 6 4 4 4 7 4 < 3 5 e g p p i w a y u l f e e y y y y y t 3 d k 7 4 5 3 5 h j l z z h i ",
"t w 5 6 w s f g t y u u i a 5 3 5 5 9 9 5 1 2 4 6 7 p q 6 8 7 u d i w w w 5 6 p f e e y r u p p 8 5 t p q 8 2 y i q k k l n k y ",
"w w 6 6 i d l d t e u e e r q 4 1 7 5 5 2 2 4 8 a a p f q 7 q w 0 a z t q 9 t f t s u p i 0 e q r e t y p 9 r i i p t z k v h p ",
"y 8 8 w i d l j p k j i q y i r 2 < 2 1 9 8 2 7 r u j d t 9 e t p g d s f r i i d h e w 8 6 w s u r t h s 1 s s s k q q g s n k ",
"0 8 8 r y y j t d b b j u y 0 0 e 2 2 q e 8 r f y y w t 9 9 p x p a g g g g 9 p f q e q 6 q q f a y r i 5 4 0 h c t e i p p j l ",
"t 7 9 r r u e w d j k j j w 0 w f e w t r z k h h 9 9 q w w a x g i f f j p 9 e w e t 9 q 0 q q t w w 2 3 1 7 z c p p f w p p s ",
"r r 5 5 r d i q d f j j 5 r r s r u i k n l m k p 8 7 t t r r t f g g f a q r e t t 0 w e 9 r 9 8 1 3 2 2 2 r h z z j l i 9 s u ",
"t 0 2 6 p i i p e z s a r 8 0 t e e i d b v l c 7 5 0 u i w w i r s f h w w y r e w g u 9 y 0 7 1 4 2 3 3 4 e l n m h l q 7 t t ",
"u 8 2 2 0 4 i a t h h e e y q t d i p 9 9 a u 5 3 9 0 d r e i t p d m M t h v y e f p r r r 8 6 1 8 u 8 e e 5 i h w g r 5 7 5 e ",
"0 r 0 2 2 r w 4 b g t y y y u q 0 e y 4 4 4 p t 5 0 0 u p t y s q z m k p s v j e f r t p w w 5 q 0 y u t e e 4 6 3 > < 4 5 7 w ",
"u 0 w 5 , 2 5 a a a i t y y r w r t t 4 4 a t r r 1 7 8 r t w e s j h s s p s j 9 8 a u q r w 0 q r e i i 0 e 4 t t > 2 5 5 t r ",
"7 0 7 5 2 , w a a h a 4 7 e w e e y 6 2 f s 0 8 0 2 4 4 3 7 8 q z g h h 0 i f 9 7 e u 0 8 0 w w 0 a h 7 u 0 1 t t w i 3 4 6 j d ",
"e 5 7 q 6 , t p h f g 5 6 r e e e 4 6 s s r t q 8 5 5 4 4 4 5 w w x x t q r e 0 t r u a e 0 9 6 y y y t q 5 4 0 y s r 3 5 i y w ",
"y 8 0 9 < 2 t p g h g 6 4 t t w w 5 5 t g w e u 0 e 9 7 4 6 0 t e e i w w y e i t t d i w 0 8 p k g j e y y w 0 a a 7 3 4 w y y ",
"5 0 9 5 , 2 6 r a h 5 5 5 u e q q 4 9 9 t p t e s y r 8 8 7 r w e 0 e t 0 0 s d u g f y u 8 u g s l N m f s r y 0 w 9 5 w y y r ",
"6 7 w 9 8 w 9 7 5 5 7 9 9 y u t q 6 0 q 7 9 6 s p p r r 7 w w w q 0 q y e r i d k h d x k 9 s g l V A V z u e e a a 7 y a y i i ",
"0 3 w 9 e e 0 y e r 9 0 7 q u t 7 i r 0 9 8 9 t y e i i 9 w r e q 9 a w t i p a h j c x s g g l b v v h s a w y a a i y p i f f ",
"8 % 6 e e e t t w y y t u w 9 t u u i y e w q r u r u d t y f 9 8 w j u u u a j p w f p s g g x l h a a 4 4 0 t r e y 7 u p d 8 ",
"3 3 & 0 0 e w t r t u u u y t s a y a y r w e e q u p p v j t e 9 y r u u i j a a t 9 u j e i x j e 5 3 3 4 w 4 q e 8 q 7 y 0 2 ",
"q q 7 , 0 e e w w i r p a e r a d p y u e w i t 9 p f g h d t 0 0 r 0 w i a g v i a q 8 q y p u e 7 5 3 5 w 9 9 5 8 q q i i y 8 ",
"e 7 q 9 , 4 5 y e q q s t q q r d y u w r p t 0 w d g g g p e 7 8 5 w a a i a s w p y y t t u p f 7 4 8 0 0 w 0 8 8 8 q d i y f ",
": 3 4 & = , 4 > 3 3 4 w a w r a a w w q i t r q 9 9 a d d r 0 w w q a f h h a w y e r 6 6 & t t q q w 0 9 9 q 3 3 e e e w 5 4 4 ",
"4 : u 9 < = 5 5 o 5 0 0 8 t p g a a w 7 7 8 8 7 5 7 7 8 9 w 0 w 9 0 a s v h t y f a e w 3 t p y q 9 8 8 e y 3 3 6 8 e e t w 2 2 ",
"i d t e 0 - 9 3 2 = r r 3 i d p d a 6 3 5 8 5 4 5 7 8 7 0 9 q 0 8 9 y s h u y t w i s r 7 e u r 0 8 0 0 w w 6 6 8 6 5 t 5 5 5 y ",
"t s s t w 3 9 9 t i 6 i i e t p p 6 6 6 8 7 5 5 5 5 8 9 r r r t w 9 8 f g a e e u s a q q r w t t w w w w q 6 8 7 8 6 5 3 4 e i ",
"d f c z 9 7 9 w r k p p y 7 r a 7 6 0 u 8 t y w q 8 7 e t i w r u q r t w p y a y a q q e w 7 8 e i 5 5 i q 6 8 9 9 0 5 2 e i a ",
"b p t a y 6 w 0 h j g f 7 7 7 w 5 7 0 9 s f f z h t w i t r u s u w q w s a a t i 9 q w i u 8 9 9 5 5 9 4 5 7 w t 0 5 q u 0 r h ",
"y t r t d u 5 3 d g j f 8 e e 7 7 9 w 0 u u t p u u r r i a s s q 9 0 q i s a a d u 4 t u y y 7 8 7 5 3 6 9 q w u w q t f f y p ",
"7 4 t r a f i 7 e j k y y t e t 9 7 9 t 9 0 8 y x d p p e q e t 0 9 0 0 w d h h g i 6 r r y t 8 8 9 5 5 e 8 8 p i s s t t f x a ",
"5 w t a p u r q j h f f y h d t 5 e p 6 5 7 r j l b b h y 7 0 e t q 9 q i p a a a i 8 0 g g 9 0 0 5 q e 7 7 u u t y a t t t w 8 ",
"q 9 i a y r 2 2 s i p f z l j j e e w r 6 y f a s b b j a 9 r p i r w y y s u u y p 9 0 u r e 0 6 q e e e 5 i p w e a 5 q q 5 4 ",
"9 9 t a t 5 1 1 i a s h l l j t e 8 w r r e 0 u u r b b y r p l s y t i y a p y p y y 0 y a p d 9 r e e e 1 3 q w q t t 5 6 5 w ",
"0 t t d a 5 4 6 t a s s z i i y 3 9 q 4 w e 0 e q q u i y r p j i e w y a s g i y y y r y t u u s i y t q 1 3 3 q q q t 9 8 w w ",
"y y a f 8 p w 6 8 w r d r p i 0 t p 0 6 5 t q 9 q r e e 0 0 a u t t e 0 r s V h t t 0 0 t q q u u t a i 3 < 5 8 5 e y 6 9 9 p y ",
"h t j 9 a a u g 9 w w t t y 8 r d p s s 0 4 r w w 2 t 9 0 r r q e q 0 0 a h p u 9 0 8 6 8 q 0 w e r 8 7 8 6 q 8 8 7 7 8 q r 8 u ",
"t y r e w y g d 9 u y t u y 9 i d s q 9 7 3 2 e w 1 < e t y 8 8 9 9 q q r i i u q 0 8 8 7 7 7 7 q a r 6 w r 5 e p 8 7 9 e 6 6 u ",
"y r r e 2 e g w s p i y u t 9 9 r w w 0 8 5 e e w q , 5 t e 4 0 0 8 7 9 u u t s t e 7 r w 7 5 5 d r y u q 9 7 9 s e 5 6 4 6 6 q ",
"t r e 7 7 9 9 t p y y h u y e 6 r 9 9 w w 6 t t y w 3 a u 8 u 0 0 w 0 w 7 r y u s p 7 6 7 5 7 9 g u p p 0 7 < i u w w 5 6 6 5 t ",
"f d q 8 p k p p w a s s y t u a 0 8 9 7 6 y e a g 6 a a u t y y e r y t 0 1 q p p 8 7 7 9 7 9 u a h t 0 9 1 < y u i w t 9 8 5 w ",
"e w 9 d h k j p p w a i s p i d e q 3 5 4 r i i d 8 p u a p 8 e w e f r e 2 2 8 9 2 3 8 i p t w a i e i q 3 3 6 i u p r y 9 u e ",
"w w w p j c j a a q a a a a i a q q q 2 3 2 u d 9 8 5 i i f a 3 4 4 t i 4 1 & 2 2 4 q x s s s s r e 7 7 5 3 2 5 8 t y r t w t 0 ",
"e r w w l c j f 0 p k k k k a q 0 r 9 5 3 3 4 4 5 8 3 p i i i 4 3 1 2 5 2 4 2 2 4 t p x c f s t 3 1 5 5 4 5 5 8 9 9 e i 8 w t i "
};
