/* XPM */
static char *_20375846d07432ede0bf9ee6d6eeeecOxZYcSQaq2LrbmGm[] = {
/* columns rows colors chars-per-pixel */
"128 128 12 1 ",
"  c None",
". c #000008",
"X c gray20",
"o c #434343",
"O c #535353",
"+ c #777777",
"@ c #5F9B00",
"# c #7FB717",
"$ c #A3D337",
"% c #C7EF63",
"& c gray53",
"* c #979797",
/* pixels */
"+++++++++++++++++++++++++++++++++++++++++++++++++++++++++              +++++++++++++++++++++++++++++++++++++++++++++++++++++++++",
"+++++++++++++++++++++++++++++++++++++++++++++++++++++++++              +++++++++++++++++++++++++++++++++++++++++++++++++++++++++",
"OOOOOOOOOOOOOOOOOOOOOOOOOOOOOOOOOOOOOOOOOOOOOOOOOOOOOOOXX              XXOOOOOOOOOOOOOOOOOOOOOOOOOOOOOOOOOOOOOOOOOOOOOOOOOOOOOOO",
"OOOOOOOOOOOOOOOOOOOOOOOOOOOOOOOOOOOOOOOOOOOOOOOOOOOOOOOXX              XXOOOOOOOOOOOOOOOOOOOOOOOOOOOOOOOOOOOOOOOOOOOOOOOOOOOOOOO",
"OOOOOOOOOOOOOOOOOOOOOOOOOOOOOOOOOOOOOOOOOOOOOOOOOOOOOOOXX              XXOOOOOOOOOOOOOOOOOOOOOOOOOOOOOOOOOOOOOOOOOOOOOOOOOOOOOOO",
"OOOOOOOOOOOOOOOOOOOOOOOOOOOOOOOOOOOOOOOOOOOOOOOOOOOOOOOXX              XXOOOOOOOOOOOOOOOOOOOOOOOOOOOOOOOOOOOOOOOOOOOOOOOOOOOOOOO",
"XXXXXXXXXXXXXXXXXXXXXXXXXXXXXXXXXXXXXXXXXXXXXXXXXXXXXXXXX              XXXXXXXXXXXXXXXXXXXXXXXXXXXXXXXXXXXXXXXXXXXXXXXXXXXXXXXXX",
"XXXXXXXXXXXXXXXXXXXXXXXXXXXXXXXXXXXXXXXXXXXXXXXXXXXXXXXXX              XXXXXXXXXXXXXXXXXXXXXXXXXXXXXXXXXXXXXXXXXXXXXXXXXXXXXXXXX",
"+++++++++++++++++++++++++++++++++++++++++++++++++++++XXXX              XXXX&&+++++++++++++++++++++++++++++++++++++++++++++++++++",
"+++++++++++++++++++++++++++++++++++++++++++++++++++++XXXX              XXXX&&+++++++++++++++++++++++++++++++++++++++++++++++++++",
"OOOOOOOOOOOOOOOOOOOOOOOOOOOOOOOOOOOOOOOOOOOOOOOOOOOOOXXXX              XXXX++OOOOOOOOOOOOOOOOOOOOOOOOOOOOOOOOOOOOOOOOOOOOOOOOOOO",
"OOOOOOOOOOOOOOOOOOOOOOOOOOOOOOOOOOOOOOOOOOOOOOOOOOOOOXXXX              XXXX++OOOOOOOOOOOOOOOOOOOOOOOOOOOOOOOOOOOOOOOOOOOOOOOOOOO",
"O++ooOOOOOOOOOOOOOOOOOOOOOOOOOOOOOOOOOOOOOOOOOO++ooOOXXXX              XXXX++OO++ooOOOOOOOOOOOOOOOOOOOOOOOOOOOOOOOOOOOOOOOOOO++o",
"O++ooOOOOOOOOOOOOOOOOOOOOOOOOOOOOOOOOOOOOOOOOOO++ooOOXXXX              XXXX++OO++ooOOOOOOOOOOOOOOOOOOOOOOOOOOOOOOOOOOOOOOOOOO++o",
"OooXXOOOOOOOOOOOOOOOOOOOOOOOOOOOOOOOOOOOOOOOOOOooXXOOXXXX              XXXX++OOooXXOOOOOOOOOOOOOOOOOOOOOOOOOOOOOOOOOOOOOOOOOOooX",
"OooXXOOOOOOOOOOOOOOOOOOOOOOOOOOOOOOOOOOOOOOOOOOooXXOOXXXX              XXXX++OOooXXOOOOOOOOOOOOOOOOOOOOOOOOOOOOOOOOOOOOOOOOOOooX",
"OOOOOOOOOOOOOOOOOOOOOOOOOOOOOOOOOOOOOOOOOOOOOOOOOOOOOXXXX              XXXX++OOOOOOOOOOOOOOOOOOOOOOOOOOOOOOOOOOOOOOOOOOOOOOOOOOO",
"OOOOOOOOOOOOOOOOOOOOOOOOOOOOOOOOOOOOOOOOOOOOOOOOOOOOOXXXX              XXXX++OOOOOOOOOOOOOOOOOOOOOOOOOOOOOOOOOOOOOOOOOOOOOOOOOOO",
"OOOOOOOOOOOOOOOOOOOOOOOOOOOOOOOOOOOOOOOOOOOOOOOOOOOOOXXXX              XXXX++OOOOOOOOOOOOOOOOOOOOOOOOOOOOOOOOOOOOOOOOOOOOOOOOOOO",
"OOOOOOOOOOOOOOOOOOOOOOOOOOOOOOOOOOOOOOOOOOOOOOOOOOOOOXXXX              XXXX++OOOOOOOOOOOOOOOOOOOOOOOOOOOOOOOOOOOOOOOOOOOOOOOOOOO",
"OOOOOOOOOOOOOOOOOOOOOOOOOOOOOOOOOOOOOOOOOOOOOOOOOOOOOXXXX              XXXX++OOOOOOOOOOOOOOOOOOOOOOOOOOOOOOOOOOOOOOOOOOOOOOOOOOO",
"OOOOOOOOOOOOOOOOOOOOOOOOOOOOOOOOOOOOOOOOOOOOOOOOOOOOOXXXX              XXXX++OOOOOOOOOOOOOOOOOOOOOOOOOOOOOOOOOOOOOOOOOOOOOOOOOOO",
"OOOOOOOOOOOOOOOOOOOOOOOOOOOOOOOOOOOOOOOOOOOOOOOOOOOOOXXXX              XXXX++OOOOOOOOOOOOOOOOOOOOOOOOOOOOOOOOOOOOOOOOOOOOOOOOOOO",
"OOOOOOOOOOOOOOOOOOOOOOOOOOOOOOOOOOOOOOOOOOOOOOOOOOOOOXXXX              XXXX++OOOOOOOOOOOOOOOOOOOOOOOOOOOOOOOOOOOOOOOOOOOOOOOOOOO",
"OOOOOOOOOOOOOOOOOOOOOOOOOOOOOOOOOOOOOOOOOOOOOOOOOOOOOXXXX              XXXX++OOOOOOOOOOOOOOOOOOOOOOOOOOOOOOOOOOOOOOOOOOOOOOOOOOO",
"OOOOOOOOOOOOOOOOOOOOOOOOOOOOOOOOOOOOOOOOOOOOOOOOOOOOOXXXX              XXXX++OOOOOOOOOOOOOOOOOOOOOOOOOOOOOOOOOOOOOOOOOOOOOOOOOOO",
"OOOOOOOOOOOOOOOOOOOOOOOOOOOOOOOOOOOOOOOOOOOOOOOOOOOOOXXXX              XXXX++OOOOOOOOOOOOOOOOOOOOOOOOOOOOOOOOOOOOOOOOOOOOOOOOOOO",
"OOOOOOOOOOOOOOOOOOOOOOOOOOOOOOOOOOOOOOOOOOOOOOOOOOOOOXXXX              XXXX++OOOOOOOOOOOOOOOOOOOOOOOOOOOOOOOOOOOOOOOOOOOOOOOOOOO",
"OOOOOOOOOOOOOOOOOOOOOOOOOOOOOOOOOOOOOOOOOOOOOOOOOOOOOXXXX              XXXX++OOOOOOOOOOOOOOOOOOOOOOOOOOOOOOOOOOOOOOOOOOOOOOOOOOO",
"OOOOOOOOOOOOOOOOOOOOOOOOOOOOOOOOOOOOOOOOOOOOOOOOOOOOOXXXX              XXXX++OOOOOOOOOOOOOOOOOOOOOOOOOOOOOOOOOOOOOOOOOOOOOOOOOOO",
"OOOOOOOOOOOOOOOOOOOOOOOOOOOOOOOOOOOOOOOOOOOOOOOOOOOOOXXXX              XXXX++OOOOOOOOOOOOOOOOOOOOOOOOOOOOOOOOOOOOOOOOOOOOOOOOOOO",
"OOOOOOOOOOOOOOOOOOOOOOOOOOOOOOOOOOOOOOOOOOOOOOOOOOOOOXXXX              XXXX++OOOOOOOOOOOOOOOOOOOOOOOOOOOOOOOOOOOOOOOOOOOOOOOOOOO",
"OOOOOOOOOOOOOOOOOOOOOOOOOOOOOOOOOOOOOOOOOOOOOOOOOOOOOXXXX              XXXX++OOOOOOOOOOOOOOOOOOOOOOOOOOOOOOOOOOOOOOOOOOOOOOOOOOO",
"OOOOOOOOOOOOOOOOOOOOOOOOOOOOOOOOOOOOOOOOOOOOOOOOOOOOOXXXX              XXXX++OOOOOOOOOOOOOOOOOOOOOOOOOOOOOOOOOOOOOOOOOOOOOOOOOOO",
"OOOOOOOOOOOOOOOOOOOOOOOOOOOOOOOOOOOOOOOOOOOOOOOOOOOOOXXXX              XXXX++OOOOOOOOOOOOOOOOOOOOOOOOOOOOOOOOOOOOOOOOOOOOOOOOOOO",
"OOOOOOOOOOOOOOOOOOOOOOOOOOOOOOOOOOOOOOOOOOOOOOOOOOOOOXXXX              XXXX++OOOOOOOOOOOOOOOOOOOOOOOOOOOOOOOOOOOOOOOOOOOOOOOOOOO",
"OOOOOOOOOOOOOOOOOOOOOOOOOOOOOOOOOOOOOOOOOOOOOOOOOOOOOXXXX              XXXX++OOOOOOOOOOOOOOOOOOOOOOOOOOOOOOOOOOOOOOOOOOOOOOOOOOO",
"OOOOOOOOOOOOOOOOOOOOOOOOOOOOOOOOOOOOOOOOOOOOOOOOOOOOOXXXX              XXXX++OOOOOOOOOOOOOOOOOOOOOOOOOOOOOOOOOOOOOOOOOOOOOOOOOOO",
"OOOOOOOOOOOOOOOOOOOOOOOOOOOOOOOOOOOOOOOOOOOOOOOOOOOOOXXXX              XXXX++OOOOOOOOOOOOOOOOOOOOOOOOOOOOOOOOOOOOOOOOOOOOOOOOOOO",
"OOOOOOOOOOOOOOOOOOOOOOOOOOOOOOOOOOOOOOOOOOOOOOOOOOOOOXXXX              XXXX++OOOOOOOOOOOOOOOOOOOOOOOOOOOOOOOOOOOOOOOOOOOOOOOOOOO",
"OOOOOOOOOOOOOOOOOOOOOOOOOOOOOOOOOOOOOOOOOOOOOOOOOOOOOXXXX              XXXX++OOOOOOOOOOOOOOOOOOOOOOOOOOOOOOOOOOOOOOOOOOOOOOOOOOO",
"OOOOOOOOOOOOOOOOOOOOOOOOOOOOOOOOOOOOOOOOOOOOOOOOOOOOOXXXX              XXXX++OOOOOOOOOOOOOOOOOOOOOOOOOOOOOOOOOOOOOOOOOOOOOOOOOOO",
"OOOOOOOOOOOOOOOOOOOOOOOOOOOOOOOOOOOOOOOOOOOOOOOOOOOOOXXXX              XXXX++OOOOOOOOOOOOOOOOOOOO++++++++++++++++++++++OOOOOOOOO",
"OOOOOOOOOOOOOOOOOOOOOOOOOOOOOOOOOOOOOOOOOOOOOOOOOOOOOXXXX              XXXX++OOOOOOOOOOOOOOOOOOOO++++++++++++++++++++++OOOOOOOOO",
"O++ooOOOOOOOOOOOOOOOOOOOOOOOOOOOOOOOOOOOOOOOOOO++ooOOXXXX              XXXX++OO++ooOOOOOOOOOOOO++......................XXOOOO++o",
"O++ooOOOOOOOOOOOOOOOOOOOOOOOOOOOOOOOOOOOOOOOOOO++ooOOXXXX              XXXX++OO++ooOOOOOOOOOOOO++......................XXOOOO++o",
"OooXXOOOOOOOOOOOOOOOOOOOOOOOOOOOOOOOOOOOOOOOOOOooXXOOXXXX              XXXX++OOooXXOOOOOOOOOOOO++..............XX..XX..XXOOOOooX",
"OooXXOOOOOOOOOOOOOOOOOOOOOOOOOOOOOOOOOOOOOOOOOOooXXOOXXXX              XXXX++OOooXXOOOOOOOOOOOO++..............XX..XX..XXOOOOooX",
"OOOOOOOOOOOOOOOOOOOOOOOOOOOOOOOOOOOOOOOOOOOOOOOOOOOOOXXXX              XXXX++OOOOOOOOOOOOOOOOOO++....%%$$$$##..OO..OO..XXOOOOOOO",
"OOOOOOOOOOOOOOOOOOOOOOOOOOOOOOOOOOOOOOOOOOOOOOOOOOOOOXXXX              XXXX++OOOOOOOOOOOOOOOOOO++....%%$$$$##..OO..OO..XXOOOOOOO",
"XXXXXXXXXXXXXXXXXXXXXXXXXXXXXXXXXXXXXXXXXXXXXXXXXXXXXXXXX              XXXXXXXXXXXXXXXXXXXXXXXX++....$$####@@..++..++..XXXXXXXXX",
"XXXXXXXXXXXXXXXXXXXXXXXXXXXXXXXXXXXXXXXXXXXXXXXXXXXXXXXXX              XXXXXXXXXXXXXXXXXXXXXXXX++....$$####@@..++..++..XXXXXXXXX",
"+++++++++++++++++++++++++++++++++++++++++++XX&&++++++XXXX              XX&&++++++XXXX&&++++++++++....$$####@@..++..++..XX+++++++",
"+++++++++++++++++++++++++++++++++++++++++++XX&&++++++XXXX              XX&&++++++XXXX&&++++++++++....$$####@@..++..++..XX+++++++",
"OOOOOOOOOOOOOOOOOOOOOOOOOOOOOOOOOOOOOOOOOOOXX++OOOOOOXXXX              XX++OOOOOOXXXX++OOOOOOOO++....$$####@@..**..++..XXOOOOOOO",
"OOOOOOOOOOOOOOOOOOOOOOOOOOOOOOOOOOOOOOOOOOOXX++OOOOOOXXXX              XX++OOOOOOXXXX++OOOOOOOO++....$$####@@..**..++..XXOOOOOOO",
"O++ooOOOOOOOOOOOOOOOOOOOOOOOOOOOOOOOO++ooOOXX++OOOOOOXXXX              XX++OOOOOOXXXX++OO++ooOO++....##@@@@@@..**..**..XXOOOO++o",
"O++ooOOOOOOOOOOOOOOOOOOOOOOOOOOOOOOOO++ooOOXX++OOOOOOXXXX              XX++OOOOOOXXXX++OO++ooOO++....##@@@@@@..**..**..XXOOOO++o",
"OooXXOOOOOOOOOOOOOOOOOOOOOOOOOOOOOOOOooXXOOXX++OOOOOOXXXX              XX++OOOOOOXXXX++OOooXXOO++..............**..**..XXOOOOooX",
"OooXXOOOOOOOOOOOOOOOOOOOOOOOOOOOOOOOOooXXOOXX++OOOOOOXXXX              XX++OOOOOOXXXX++OOooXXOO++..............**..**..XXOOOOooX",
"OOOOOOOOOOOOOOOOOOOOOOOOOOOOOOOOOOOOOOOOOOOXX++######XXXX              XX++######XXXX++OOOOOOOO++....++++OOoo..++..++..XXOOOOOOO",
"OOOOOOOOOOOOOOOOOOOOOOOOOOOOOOOOOOOOOOOOOOOXX++######XXXX              XX++######XXXX++OOOOOOOO++....++++OOoo..++..++..XXOOOOOOO",
"OOOOOOOOOOOOOOOOOOOOOOOOOOOOOOOOOOOOOOOOOOOXX++######XXXX              XX++######XXXX++OOOOOOOO++....++OOooXX..++..++..XXOOOOOOO",
"OOOOOOOOOOOOOOOOOOOOOOOOOOOOOOOOOOOOOOOOOOOXX++######XXXX              XX++######XXXX++OOOOOOOO++....++OOooXX..++..++..XXOOOOOOO",
"OOOOOOOOOOOOOOOOOOOOOOOOOOOOOOOOOOOOOOOOOOOXX++OOOOOOXXXX              XX++OOOOOOXXXX++OOOOOOOO++..............++..++..XXOOOOOOO",
"OOOOOOOOOOOOOOOOOOOOOOOOOOOOOOOOOOOOOOOOOOOXX++OOOOOOXXXX              XX++OOOOOOXXXX++OOOOOOOO++..............++..++..XXOOOOOOO",
"OOOOOOOOOOOOOOOOOOOOOOOOOOOOOOOOOOOOOOOOOOOXX++OOXXXXXXXX              XX++XXXXOOXXXX++OOOOOOOO++....++++OOoo..OO..++..XXOOOOOOO",
"OOOOOOOOOOOOOOOOOOOOOOOOOOOOOOOOOOOOOOOOOOOXX++OOXXXXXXXX              XX++XXXXOOXXXX++OOOOOOOO++....++++OOoo..OO..++..XXOOOOOOO",
"OOOOOOOOOOOOOOOOOOOOOOOOOOOOOOOOOOOOOOOOOOOXX++OO....XXXX              XX++....OOXXXX++OOOOOOOO++....++OOooXX..OO..OO..XXOOOOOOO",
"OOOOOOOOOOOOOOOOOOOOOOOOOOOOOOOOOOOOOOOOOOOXX++OO....XXXX              XX++....OOXXXX++OOOOOOOO++....++OOooXX..OO..OO..XXOOOOOOO",
"OOOOOOOOOOOOOOOOOOOOOOOOOOOOOOOOOOOOOOOOOOOXX++OO....XXXX              XX++....OOXXXX++OOOOOOOO++..............oo..oo..XXOOOOOOO",
"OOOOOOOOOOOOOOOOOOOOOOOOOOOOOOOOOOOOOOOOOOOXX++OO....XXXX              XX++....OOXXXX++OOOOOOOO++..............oo..oo..XXOOOOOOO",
"OOOOOOOOOOOOOOOOOOOOOOOOOOOOOOOOOOOOOOOOOOOXX++OO....XXXX              XX++....OOXXXX++OOOOOOOO++..............XX..XX..XXOOOOOOO",
"OOOOOOOOOOOOOOOOOOOOOOOOOOOOOOOOOOOOOOOOOOOXX++OO....XXXX              XX++....OOXXXX++OOOOOOOO++..............XX..XX..XXOOOOOOO",
"OOOOOOOOOOOOOOOOOOOOOOOOOOOOOOOOOOOOOOOOOOOXX++OO....XXXX              XX++....OOXXXX++OOOOOOOO++......................XXOOOOOOO",
"OOOOOOOOOOOOOOOOOOOOOOOOOOOOOOOOOOOOOOOOOOOXX++OO....XXXX              XX++....OOXXXX++OOOOOOOO++......................XXOOOOOOO",
"O++ooOOOOOOOOOOOOOOOOOOOOOOOOOOOOOOOO++ooOOXX++OOOOOOXXXX              XX++OOOOOOXXXX++OO++ooOOOOXXXXXXXXXXXXXXXXXXXXXXXXOOOO++o",
"O++ooOOOOOOOOOOOOOOOOOOOOOOOOOOOOOOOO++ooOOXX++OOOOOOXXXX              XX++OOOOOOXXXX++OO++ooOOOOXXXXXXXXXXXXXXXXXXXXXXXXOOOO++o",
"OooXXOOOOOOOOOOOOOOOOOOOOOOOOOOOOOOOOooXXOOXXXXXXXXXXXXXX              XXXXXXXXXXXXXX++OOooXXOOOOOOOOOOOOOOOOOOOOOOOOOOOOOOOOooX",
"OooXXOOOOOOOOOOOOOOOOOOOOOOOOOOOOOOOOooXXOOXXXXXXXXXXXXXX              XXXXXXXXXXXXXX++OOooXXOOOOOOOOOOOOOOOOOOOOOOOOOOOOOOOOooX",
"OOOOOOOOOOOOOOOOOOOOOOOOOOOOOOOOOOOOOOOOOOOXXXXXXXXXXXXXX              XXXXXXXXXXXXXX++OOOOOOOOOOOOOOOOOOOOOOOOOOOOOOOOOOOOOOOOO",
"OOOOOOOOOOOOOOOOOOOOOOOOOOOOOOOOOOOOOOOOOOOXXXXXXXXXXXXXX              XXXXXXXXXXXXXX++OOOOOOOOOOOOOOOOOOOOOOOOOOOOOOOOOOOOOOOOO",
"XXXXXXXXXXXXXXXXXXXXXXXXXXXXXXXXXXXXXXXXXXXXXXXXXXXXXXXXX              XXXXXXXXXXXXXXXXXXXXXXXXXXXXXXXXXXXXXXXXXXXXXXXXXXXXXXXXX",
"XXXXXXXXXXXXXXXXXXXXXXXXXXXXXXXXXXXXXXXXXXXXXXXXXXXXXXXXX              XXXXXXXXXXXXXXXXXXXXXXXXXXXXXXXXXXXXXXXXXXXXXXXXXXXXXXXXX",
"+++++++++++++++++++++++++++++++++++++++++++++++++++++XXXX              XXXX&&+++++++++++++++++++++++++++++++++++++++++++++++++++",
"+++++++++++++++++++++++++++++++++++++++++++++++++++++XXXX              XXXX&&+++++++++++++++++++++++++++++++++++++++++++++++++++",
"OOOOOOOOOOOOOOOOOOOOOOOOOOOOOOOOOOOOOOOOOOOOOOOOOOOOOXXXX              XXXX++OOOOOOOOOOOOOOOOOOOOOOOOOOOOOOOOOOOOOOOOOOOOOOOOOOO",
"OOOOOOOOOOOOOOOOOOOOOOOOOOOOOOOOOOOOOOOOOOOOOOOOOOOOOXXXX              XXXX++OOOOOOOOOOOOOOOOOOOOOOOOOOOOOOOOOOOOOOOOOOOOOOOOOOO",
"O++ooOOOOOOOOOOOOOOOOOOOOOOOOOOOOOOOOOOOOOOOOOO++ooOOXXXX              XXXX++OO++ooOOOOOOOOOOOOOOOOOOOOOOOOOOOOOOOOOOOOOOOOOO++o",
"O++ooOOOOOOOOOOOOOOOOOOOOOOOOOOOOOOOOOOOOOOOOOO++ooOOXXXX              XXXX++OO++ooOOOOOOOOOOOOOOOOOOOOOOOOOOOOOOOOOOOOOOOOOO++o",
"OooXXOOOOOOOOOOOOOOOOOOOOOOOOOOOOOOOOOOOOOOOOOOooXXOOXXXX              XXXX++OOooXXOOOOOOOOOOOOOOOOOOOOOOOOOOOOOOOOOOOOOOOOOOooX",
"OooXXOOOOOOOOOOOOOOOOOOOOOOOOOOOOOOOOOOOOOOOOOOooXXOOXXXX              XXXX++OOooXXOOOOOOOOOOOOOOOOOOOOOOOOOOOOOOOOOOOOOOOOOOooX",
"OOOOOOOOOOOOOOOOOOOOOOOOOOOOOOOOOOOOOOOOOOOOOOOOOOOOOXXXX              XXXX++OOOOOOOOOOOOOOOOOOOOOOOOOOOOOOOOOOOOOOOOOOOOOOOOOOO",
"OOOOOOOOOOOOOOOOOOOOOOOOOOOOOOOOOOOOOOOOOOOOOOOOOOOOOXXXX              XXXX++OOOOOOOOOOOOOOOOOOOOOOOOOOOOOOOOOOOOOOOOOOOOOOOOOOO",
"OOOOOOOOOOOOOOOOOOOOOOOOOOOOOOOOOOOOOOOOOOOOOOOOOOOOOXXXX              XXXX++OOOOOOOOOOOOOOOOOOOOOOOOOOOOOOOOOOOOOOOOOOOOOOOOOOO",
"OOOOOOOOOOOOOOOOOOOOOOOOOOOOOOOOOOOOOOOOOOOOOOOOOOOOOXXXX              XXXX++OOOOOOOOOOOOOOOOOOOOOOOOOOOOOOOOOOOOOOOOOOOOOOOOOOO",
"OOOOOOOOOOOOOOOOOOOOOOOOOOOOOOOOOOOOOOOOOOOOOOOOOOOOOXXXX              XXXX++OOOOOOOOOOOOOOOOOOOOOOOOOOOOOOOOOOOOOOOOOOOOOOOOOOO",
"OOOOOOOOOOOOOOOOOOOOOOOOOOOOOOOOOOOOOOOOOOOOOOOOOOOOOXXXX              XXXX++OOOOOOOOOOOOOOOOOOOOOOOOOOOOOOOOOOOOOOOOOOOOOOOOOOO",
"OOOOOOOOOOOOOOOOOOOOOOOOOOOOOOOOOOOOOOOOOOOOOOOOOOOOOXXXX              XXXX++OOOOOOOOOOOOOOOOOOOOOOOOOOOOOOOOOOOOOOOOOOOOOOOOOOO",
"OOOOOOOOOOOOOOOOOOOOOOOOOOOOOOOOOOOOOOOOOOOOOOOOOOOOOXXXX              XXXX++OOOOOOOOOOOOOOOOOOOOOOOOOOOOOOOOOOOOOOOOOOOOOOOOOOO",
"OOOOOOOOOOOOOOOOOOOOOOOOOOOOOOOOOOOOOOOOOOOOOOOOOOOOOXXXX              XXXX++OOOOOOOOOOOOOOOOOOOOOOOOOOOOOOOOOOOOOOOOOOOOOOOOOOO",
"OOOOOOOOOOOOOOOOOOOOOOOOOOOOOOOOOOOOOOOOOOOOOOOOOOOOOXXXX              XXXX++OOOOOOOOOOOOOOOOOOOOOOOOOOOOOOOOOOOOOOOOOOOOOOOOOOO",
"OOOOOOOOOOOOOOOOOOOOOOOOOOOOOOOOOOOOOOOOOOOOOOOOOOOOOXXXX              XXXX++OOOOOOOOOOOOOOOOOOOOOOOOOOOOOOOOOOOOOOOOOOOOOOOOOOO",
"OOOOOOOOOOOOOOOOOOOOOOOOOOOOOOOOOOOOOOOOOOOOOOOOOOOOOXXXX              XXXX++OOOOOOOOOOOOOOOOOOOOOOOOOOOOOOOOOOOOOOOOOOOOOOOOOOO",
"O++ooOOOOOOOOOOOOOOOOOOOOOOOOOOOOOOOOOOOOOOOOOO++ooOOXXXX              XXXX++OO++ooOOOOOOOOOOOOOOOOOOOOOOOOOOOOOOOOOOOOOOOOOO++o",
"O++ooOOOOOOOOOOOOOOOOOOOOOOOOOOOOOOOOOOOOOOOOOO++ooOOXXXX              XXXX++OO++ooOOOOOOOOOOOOOOOOOOOOOOOOOOOOOOOOOOOOOOOOOO++o",
"OooXXOOOOOOOOOOOOOOOOOOOOOOOOOOOOOOOOOOOOOOOOOOooXXOOXXXX              XXXX++OOooXXOOOOOOOOOOOOOOOOOOOOOOOOOOOOOOOOOOOOOOOOOOooX",
"OooXXOOOOOOOOOOOOOOOOOOOOOOOOOOOOOOOOOOOOOOOOOOooXXOOXXXX              XXXX++OOooXXOOOOOOOOOOOOOOOOOOOOOOOOOOOOOOOOOOOOOOOOOOooX",
"OOOOOOOOOOOOOOOOOOOOOOOOOOOOOOOOOOOOOOOOOOOOOOOOOOOOOXXXX              XXXX++OOOOOOOOOOOOOOOOOOOOOOOOOOOOOOOOOOOOOOOOOOOOOOOOOOO",
"OOOOOOOOOOOOOOOOOOOOOOOOOOOOOOOOOOOOOOOOOOOOOOOOOOOOOXXXX              XXXX++OOOOOOOOOOOOOOOOOOOOOOOOOOOOOOOOOOOOOOOOOOOOOOOOOOO",
"XXXXXXXXXXXXXXXXXXXXXXXXXXXXXXXXXXXXXXXXXXXXXXXXXXXXXXXXX              XXXXXXXXXXXXXXXXXXXXXXXXXXXXXXXXXXXXXXXXXXXXXXXXXXXXXXXXX",
"XXXXXXXXXXXXXXXXXXXXXXXXXXXXXXXXXXXXXXXXXXXXXXXXXXXXXXXXX              XXXXXXXXXXXXXXXXXXXXXXXXXXXXXXXXXXXXXXXXXXXXXXXXXXXXXXXXX",
"+++++++++++++++++++++++++++++++++++++++++++++++++++++XXXX              XXXX+++++++++++++++++++++++++++++++++++++++++++++++++++++",
"+++++++++++++++++++++++++++++++++++++++++++++++++++++XXXX              XXXX+++++++++++++++++++++++++++++++++++++++++++++++++++++",
"OOOOOOOOOOOOOOOOOOOOOOOOOOOOOOOOOOOOOOOOOOOOOOOOOOOOOXXXX              XXXXOOOOOOOOOOOOOOOOOOOOOOOOOOOOOOOOOOOOOOOOOOOOOOOOOOOOO",
"OOOOOOOOOOOOOOOOOOOOOOOOOOOOOOOOOOOOOOOOOOOOOOOOOOOOOXXXX              XXXXOOOOOOOOOOOOOOOOOOOOOOOOOOOOOOOOOOOOOOOOOOOOOOOOOOOOO",
"OOOOOOOOOOOOOOOOOOOOOOOOOOOOOOOOOOOOOOOOOOOOOOOOOOOOOXXXX              XXXXOOOOOOOOOOOOOOOOOOOOOOOOOOOOOOOOOOOOOOOOOOOOOOOOOOOOO",
"OOOOOOOOOOOOOOOOOOOOOOOOOOOOOOOOOOOOOOOOOOOOOOOOOOOOOXXXX              XXXXOOOOOOOOOOOOOOOOOOOOOOOOOOOOOOOOOOOOOOOOOOOOOOOOOOOOO",
"OOOOOOOOOOOOOOOOOOOOOOOOOOOOOOOOOOOOOOOOOOOOOOOOOOOOOXXXX              XXXXOOOOOOOOOOOOOOOOOOOOOOOOOOOOOOOOOOOOOOOOOOOOOOOOOOOOO",
"OOOOOOOOOOOOOOOOOOOOOOOOOOOOOOOOOOOOOOOOOOOOOOOOOOOOOXXXX              XXXXOOOOOOOOOOOOOOOOOOOOOOOOOOOOOOOOOOOOOOOOOOOOOOOOOOOOO",
"OOOOOOOOOOOOOOOOOOOOOOOOOOOOOOOOOOOOOOOOOOOOOOOOOOOOOXXXX              XXXXOOOOOOOOOOOOOOOOOOOOOOOOOOOOOOOOOOOOOOOOOOOOOOOOOOOOO",
"OOOOOOOOOOOOOOOOOOOOOOOOOOOOOOOOOOOOOOOOOOOOOOOOOOOOOXXXX              XXXXOOOOOOOOOOOOOOOOOOOOOOOOOOOOOOOOOOOOOOOOOOOOOOOOOOOOO",
"OOOOOOOOOOOOOOOOOOOOOOOOOOOOOOOOOOOOOOOOOOOOOOOOOOOOOXXXX              XXXXOOOOOOOOOOOOOOOOOOOOOOOOOOOOOOOOOOOOOOOOOOOOOOOOOOOOO",
"OOOOOOOOOOOOOOOOOOOOOOOOOOOOOOOOOOOOOOOOOOOOOOOOOOOOOXXXX              XXXXOOOOOOOOOOOOOOOOOOOOOOOOOOOOOOOOOOOOOOOOOOOOOOOOOOOOO",
"OOOOOOOOOOOOOOOOOOOOOOOOOOOOOOOOOOOOOOOOOOOOOOOOOOOOOXXXX              XXXXOOOOOOOOOOOOOOOOOOOOOOOOOOOOOOOOOOOOOOOOOOOOOOOOOOOOO",
"OOOOOOOOOOOOOOOOOOOOOOOOOOOOOOOOOOOOOOOOOOOOOOOOOOOOOXXXX              XXXXOOOOOOOOOOOOOOOOOOOOOOOOOOOOOOOOOOOOOOOOOOOOOOOOOOOOO",
"XXXXXXXXXXXXXXXXXXXXXXXXXXXXXXXXXXXXXXXXXXXXXXXXXXXXXXXXX              XXXXXXXXXXXXXXXXXXXXXXXXXXXXXXXXXXXXXXXXXXXXXXXXXXXXXXXXX",
"XXXXXXXXXXXXXXXXXXXXXXXXXXXXXXXXXXXXXXXXXXXXXXXXXXXXXXXXX              XXXXXXXXXXXXXXXXXXXXXXXXXXXXXXXXXXXXXXXXXXXXXXXXXXXXXXXXX"
};
