/* XPM */
static char *_06e4554ef654517b98b31963ca13495CfAve4HRemfPPimZ[] = {
/* columns rows colors chars-per-pixel */
"128 128 11 1 ",
"  c #000008",
". c gray20",
"X c #434343",
"o c #535353",
"O c #777777",
"+ c #5F9B00",
"@ c #7FB717",
"# c #A3D337",
"$ c #C7EF63",
"% c gray53",
"& c #979797",
/* pixels */
"OOOOOOOOOOOOOOOOOOOOOOOOOOOOOOOOOOOOOOOOOOOOOOOOOOOOOOOOOOOOOOOOOOOOOOOOOOOOOOOOOOOOOOOOOOOOOOOOOOOOOOOOOOOOOOOOOOOOOOOOOOOOOOOO",
"OOOOOOOOOOOOOOOOOOOOOOOOOOOOOOOOOOOOOOOOOOOOOOOOOOOOOOOOOOOOOOOOOOOOOOOOOOOOOOOOOOOOOOOOOOOOOOOOOOOOOOOOOOOOOOOOOOOOOOOOOOOOOOOO",
"OOoooooooooooooooooooooooooooooooooooooooooooooooooooooooooooo....ooooooooooooooooooooooooooooooooooooooooooooooooooooooooooooOO",
"OOoooooooooooooooooooooooooooooooooooooooooooooooooooooooooooo....ooooooooooooooooooooooooooooooooooooooooooooooooooooooooooooOO",
"OOoooooooooooooooooooooooooooooooooooooooooooooooooooooooooooo....ooooooooooooooooooooooooooooooooooooooooooooooooooooooooooooOO",
"OOoooooooooooooooooooooooooooooooooooooooooooooooooooooooooooo....ooooooooooooooooooooooooooooooooooooooooooooooooooooooooooooOO",
"................................................................................................................................",
"................................................................................................................................",
"....%%OOOOOOOOOOOOOOOOOOOOOOOOOOOOOOOOOOOOOOOOOOOOOOOOOOOOOO........%%OOOOOOOOOOOOOOOOOOOOOOOOOOOOOOOOOOOOOOOOOOOOOOOOOOOOOO....",
"....%%OOOOOOOOOOOOOOOOOOOOOOOOOOOOOOOOOOOOOOOOOOOOOOOOOOOOOO........%%OOOOOOOOOOOOOOOOOOOOOOOOOOOOOOOOOOOOOOOOOOOOOOOOOOOOOO....",
"....OOoooooooooooooooooooooooooooooooooooooooooooooooooooooo........OOoooooooooooooooooooooooooooooooooooooooooooooooooooooo....",
"....OOoooooooooooooooooooooooooooooooooooooooooooooooooooooo........OOoooooooooooooooooooooooooooooooooooooooooooooooooooooo....",
"....OOooOOXXooooooooooooooooooooooooooooooooooooooooooOOXXoo........OOooOOXXooooooooooooooooooooooooooooooooooooooooooOOXXoo....",
"....OOooOOXXooooooooooooooooooooooooooooooooooooooooooOOXXoo........OOooOOXXooooooooooooooooooooooooooooooooooooooooooOOXXoo....",
"....OOooXX..ooooooooooooooooooooooooooooooooooooooooooXX..oo........OOooXX..ooooooooooooooooooooooooooooooooooooooooooXX..oo....",
"....OOooXX..ooooooooooooooooooooooooooooooooooooooooooXX..oo........OOooXX..ooooooooooooooooooooooooooooooooooooooooooXX..oo....",
"....OOoooooooooooooooooooooooooooooooooooooooooooooooooooooo........OOoooooooooooooooooooooooooooooooooooooooooooooooooooooo....",
"....OOoooooooooooooooooooooooooooooooooooooooooooooooooooooo........OOoooooooooooooooooooooooooooooooooooooooooooooooooooooo....",
"....OOoooooooooooooooooooooooooooooooooooooooooooooooooooooo........OOoooooooooooooooooooooooooooooooooooooooooooooooooooooo....",
"....OOoooooooooooooooooooooooooooooooooooooooooooooooooooooo........OOoooooooooooooooooooooooooooooooooooooooooooooooooooooo....",
"....OOoooooooooooooooooooooooooooooooooooooooooooooooooooooo........OOoooooooooooooooooooooooooooooooooooooooooooooooooooooo....",
"....OOoooooooooooooooooooooooooooooooooooooooooooooooooooooo........OOoooooooooooooooooooooooooooooooooooooooooooooooooooooo....",
"....OOoooooooooooooooooooooooooooooooooooooooooooooooooooooo........OOoooooooooooooooooooooooooooooooooooooooooooooooooooooo....",
"....OOoooooooooooooooooooooooooooooooooooooooooooooooooooooo........OOoooooooooooooooooooooooooooooooooooooooooooooooooooooo....",
"....OOoooooooooooooooooooooooooooooooooooooooooooooooooooooo........OOoooooooooooooooooooooooooooooooooooooooooooooooooooooo....",
"....OOoooooooooooooooooooooooooooooooooooooooooooooooooooooo........OOoooooooooooooooooooooooooooooooooooooooooooooooooooooo....",
"....OOoooooooooooooooooooooooooooooooooooooooooooooooooooooo........OOoooooooooooooooooooooooooooooooooooooooooooooooooooooo....",
"....OOoooooooooooooooooooooooooooooooooooooooooooooooooooooo........OOoooooooooooooooooooooooooooooooooooooooooooooooooooooo....",
"....OOoooooooooooooooooooooooooooooooooooooooooooooooooooooo........OOoooooooooooooooooooooooooooooooooooooooooooooooooooooo....",
"....OOoooooooooooooooooooooooooooooooooooooooooooooooooooooo........OOoooooooooooooooooooooooooooooooooooooooooooooooooooooo....",
"....OOoooooooooooooooooooooooooooooooooooooooooooooooooooooo........OOoooooooooooooooooooooooooooooooooooooooooooooooooooooo....",
"....OOoooooooooooooooooooooooooooooooooooooooooooooooooooooo........OOoooooooooooooooooooooooooooooooooooooooooooooooooooooo....",
"....OOoooooooooooooooooooooooooooooooooooooooooooooooooooooo........OOoooooooooooooooooooooooooooooooooooooooooooooooooooooo....",
"....OOoooooooooooooooooooooooooooooooooooooooooooooooooooooo........OOoooooooooooooooooooooooooooooooooooooooooooooooooooooo....",
"....OOoooooooooooooooooooooooooooooooooooooooooooooooooooooo........OOoooooooooooooooooooooooooooooooooooooooooooooooooooooo....",
"....OOoooooooooooooooooooooooooooooooooooooooooooooooooooooo........OOoooooooooooooooooooooooooooooooooooooooooooooooooooooo....",
"....OOoooooooooooooooooooooooooooooooooooooooooooooooooooooo........OOoooooooooooooooooooooooooooooooooooooooooooooooooooooo....",
"....OOoooooooooooooooooooooooooooooooooooooooooooooooooooooo........OOoooooooooooooooooooooooooooooooooooooooooooooooooooooo....",
"....OOoooooooooooooooooooooooooooooooooooooooooooooooooooooo........OOoooooooooooooooooooooooooooooooooooooooooooooooooooooo....",
"....OOoooooooooooooooooooooooooooooooooooooooooooooooooooooo........OOoooooooooooooooooooooooooooooooooooooooooooooooooooooo....",
"....OOoooooooooooooooooooooooooooooooooooooooooooooooooooooo........OOoooooooooooooooooooooooooooooooooooooooooooooooooooooo....",
"....OOoooooooooooooooooooooooooooooooooooooooooooooooooooooo........OOoooooooooooooooooooooooooooooooooooooooooooooooooooooo....",
"....OOoooooooooooooooooooooooooooooooooooooooooooooooooooooo........OOooooooooooooooooooooOOOOOOOOOOOOOOOOOOOOOOoooooooooooo....",
"....OOoooooooooooooooooooooooooooooooooooooooooooooooooooooo........OOooooooooooooooooooooOOOOOOOOOOOOOOOOOOOOOOoooooooooooo....",
"....OOooOOXXooooooooooooooooooooooooooooooooooooooooooOOXXoo........OOooOOXXooooooooooooOO                      ..ooooOOXXoo....",
"....OOooOOXXooooooooooooooooooooooooooooooooooooooooooOOXXoo........OOooOOXXooooooooooooOO                      ..ooooOOXXoo....",
"....OOooXX..ooooooooooooooooooooooooooooooooooooooooooXX..oo........OOooXX..ooooooooooooOO              ..  ..  ..ooooXX..oo....",
"....OOooXX..ooooooooooooooooooooooooooooooooooooooooooXX..oo........OOooXX..ooooooooooooOO              ..  ..  ..ooooXX..oo....",
"....OOoooooooooooooooooooooooooooooooooooooooooooooooooooooo........OOooooooooooooooooooOO    $$####@@  oo  oo  ..oooooooooo....",
"....OOoooooooooooooooooooooooooooooooooooooooooooooooooooooo........OOooooooooooooooooooOO    $$####@@  oo  oo  ..oooooooooo....",
"........................................................................................OO    ##@@@@++  OO  OO  ................",
"........................................................................................OO    ##@@@@++  OO  OO  ................",
"....%%OOOOOOOOOOOOOOOOOOOOOOOOOOOOOOOOOOOOOOOOOOOO..%%OOOOOO......%%OOOOOO....%%OOOOOOOOOO    ##@@@@++  OO  OO  ..OOOOOOOOOO....",
"....%%OOOOOOOOOOOOOOOOOOOOOOOOOOOOOOOOOOOOOOOOOOOO..%%OOOOOO......%%OOOOOO....%%OOOOOOOOOO    ##@@@@++  OO  OO  ..OOOOOOOOOO....",
"....OOoooooooooooooooooooooooooooooooooooooooooooo..OOoooooo......OOoooooo....OOooooooooOO    ##@@@@++  &&  OO  ..oooooooooo....",
"....OOoooooooooooooooooooooooooooooooooooooooooooo..OOoooooo......OOoooooo....OOooooooooOO    ##@@@@++  &&  OO  ..oooooooooo....",
"....OOooOOXXooooooooooooooooooooooooooooooooOOXXoo..OOoooooo......OOoooooo....OOooOOXXooOO    @@++++++  &&  &&  ..ooooOOXXoo....",
"....OOooOOXXooooooooooooooooooooooooooooooooOOXXoo..OOoooooo......OOoooooo....OOooOOXXooOO    @@++++++  &&  &&  ..ooooOOXXoo....",
"....OOooXX..ooooooooooooooooooooooooooooooooXX..oo..OOoooooo......OOoooooo....OOooXX..ooOO              &&  &&  ..ooooXX..oo....",
"....OOooXX..ooooooooooooooooooooooooooooooooXX..oo..OOoooooo......OOoooooo....OOooXX..ooOO              &&  &&  ..ooooXX..oo....",
"....OOoooooooooooooooooooooooooooooooooooooooooooo..OO@@@@@@......OO@@@@@@....OOooooooooOO    OOOOooXX  OO  OO  ..oooooooooo....",
"....OOoooooooooooooooooooooooooooooooooooooooooooo..OO@@@@@@......OO@@@@@@....OOooooooooOO    OOOOooXX  OO  OO  ..oooooooooo....",
"....OOoooooooooooooooooooooooooooooooooooooooooooo..OO@@@@@@......OO@@@@@@....OOooooooooOO    OOooXX..  OO  OO  ..oooooooooo....",
"....OOoooooooooooooooooooooooooooooooooooooooooooo..OO@@@@@@......OO@@@@@@....OOooooooooOO    OOooXX..  OO  OO  ..oooooooooo....",
"....OOoooooooooooooooooooooooooooooooooooooooooooo..OOoooooo......OOoooooo....OOooooooooOO              OO  OO  ..oooooooooo....",
"....OOoooooooooooooooooooooooooooooooooooooooooooo..OOoooooo......OOoooooo....OOooooooooOO              OO  OO  ..oooooooooo....",
"....OOoooooooooooooooooooooooooooooooooooooooooooo..OOoo..........OO....oo....OOooooooooOO    OOOOooXX  oo  OO  ..oooooooooo....",
"....OOoooooooooooooooooooooooooooooooooooooooooooo..OOoo..........OO....oo....OOooooooooOO    OOOOooXX  oo  OO  ..oooooooooo....",
"....OOoooooooooooooooooooooooooooooooooooooooooooo..OOoo    ......OO    oo....OOooooooooOO    OOooXX..  oo  oo  ..oooooooooo....",
"....OOoooooooooooooooooooooooooooooooooooooooooooo..OOoo    ......OO    oo....OOooooooooOO    OOooXX..  oo  oo  ..oooooooooo....",
"....OOoooooooooooooooooooooooooooooooooooooooooooo..OOoo    ......OO    oo....OOooooooooOO              XX  XX  ..oooooooooo....",
"....OOoooooooooooooooooooooooooooooooooooooooooooo..OOoo    ......OO    oo....OOooooooooOO              XX  XX  ..oooooooooo....",
"....OOoooooooooooooooooooooooooooooooooooooooooooo..OOoo    ......OO    oo....OOooooooooOO              ..  ..  ..oooooooooo....",
"....OOoooooooooooooooooooooooooooooooooooooooooooo..OOoo    ......OO    oo....OOooooooooOO              ..  ..  ..oooooooooo....",
"....OOoooooooooooooooooooooooooooooooooooooooooooo..OOoo    ......OO    oo....OOooooooooOO                      ..oooooooooo....",
"....OOoooooooooooooooooooooooooooooooooooooooooooo..OOoo    ......OO    oo....OOooooooooOO                      ..oooooooooo....",
"....OOooOOXXooooooooooooooooooooooooooooooooOOXXoo..OOoooooo......OOoooooo....OOooOOXXoooo........................ooooOOXXoo....",
"....OOooOOXXooooooooooooooooooooooooooooooooOOXXoo..OOoooooo......OOoooooo....OOooOOXXoooo........................ooooOOXXoo....",
"....OOooXX..ooooooooooooooooooooooooooooooooXX..oo............................OOooXX..ooooooooooooooooooooooooooooooooXX..oo....",
"....OOooXX..ooooooooooooooooooooooooooooooooXX..oo............................OOooXX..ooooooooooooooooooooooooooooooooXX..oo....",
"....OOoooooooooooooooooooooooooooooooooooooooooooo............................OOoooooooooooooooooooooooooooooooooooooooooooo....",
"....OOoooooooooooooooooooooooooooooooooooooooooooo............................OOoooooooooooooooooooooooooooooooooooooooooooo....",
"................................................................................................................................",
"................................................................................................................................",
"....%%OOOOOOOOOOOOOOOOOOOOOOOOOOOOOOOOOOOOOOOOOOOOOOOOOOOOOO........%%OOOOOOOOOOOOOOOOOOOOOOOOOOOOOOOOOOOOOOOOOOOOOOOOOOOOOO....",
"....%%OOOOOOOOOOOOOOOOOOOOOOOOOOOOOOOOOOOOOOOOOOOOOOOOOOOOOO........%%OOOOOOOOOOOOOOOOOOOOOOOOOOOOOOOOOOOOOOOOOOOOOOOOOOOOOO....",
"....OOoooooooooooooooooooooooooooooooooooooooooooooooooooooo........OOoooooooooooooooooooooooooooooooooooooooooooooooooooooo....",
"....OOoooooooooooooooooooooooooooooooooooooooooooooooooooooo........OOoooooooooooooooooooooooooooooooooooooooooooooooooooooo....",
"....OOooOOXXooooooooooooooooooooooooooooooooooooooooooOOXXoo........OOooOOXXooooooooooooooooooooooooooooooooooooooooooOOXXoo....",
"....OOooOOXXooooooooooooooooooooooooooooooooooooooooooOOXXoo........OOooOOXXooooooooooooooooooooooooooooooooooooooooooOOXXoo....",
"....OOooXX..ooooooooooooooooooooooooooooooooooooooooooXX..oo........OOooXX..ooooooooooooooooooooooooooooooooooooooooooXX..oo....",
"....OOooXX..ooooooooooooooooooooooooooooooooooooooooooXX..oo........OOooXX..ooooooooooooooooooooooooooooooooooooooooooXX..oo....",
"....OOoooooooooooooooooooooooooooooooooooooooooooooooooooooo........OOoooooooooooooooooooooooooooooooooooooooooooooooooooooo....",
"....OOoooooooooooooooooooooooooooooooooooooooooooooooooooooo........OOoooooooooooooooooooooooooooooooooooooooooooooooooooooo....",
"....OOoooooooooooooooooooooooooooooooooooooooooooooooooooooo........OOoooooooooooooooooooooooooooooooooooooooooooooooooooooo....",
"....OOoooooooooooooooooooooooooooooooooooooooooooooooooooooo........OOoooooooooooooooooooooooooooooooooooooooooooooooooooooo....",
"....OOoooooooooooooooooooooooooooooooooooooooooooooooooooooo........OOoooooooooooooooooooooooooooooooooooooooooooooooooooooo....",
"....OOoooooooooooooooooooooooooooooooooooooooooooooooooooooo........OOoooooooooooooooooooooooooooooooooooooooooooooooooooooo....",
"....OOoooooooooooooooooooooooooooooooooooooooooooooooooooooo........OOoooooooooooooooooooooooooooooooooooooooooooooooooooooo....",
"....OOoooooooooooooooooooooooooooooooooooooooooooooooooooooo........OOoooooooooooooooooooooooooooooooooooooooooooooooooooooo....",
"....OOoooooooooooooooooooooooooooooooooooooooooooooooooooooo........OOoooooooooooooooooooooooooooooooooooooooooooooooooooooo....",
"....OOoooooooooooooooooooooooooooooooooooooooooooooooooooooo........OOoooooooooooooooooooooooooooooooooooooooooooooooooooooo....",
"....OOoooooooooooooooooooooooooooooooooooooooooooooooooooooo........OOoooooooooooooooooooooooooooooooooooooooooooooooooooooo....",
"....OOoooooooooooooooooooooooooooooooooooooooooooooooooooooo........OOoooooooooooooooooooooooooooooooooooooooooooooooooooooo....",
"....OOooOOXXooooooooooooooooooooooooooooooooooooooooooOOXXoo........OOooOOXXooooooooooooooooooooooooooooooooooooooooooOOXXoo....",
"....OOooOOXXooooooooooooooooooooooooooooooooooooooooooOOXXoo........OOooOOXXooooooooooooooooooooooooooooooooooooooooooOOXXoo....",
"....OOooXX..ooooooooooooooooooooooooooooooooooooooooooXX..oo........OOooXX..ooooooooooooooooooooooooooooooooooooooooooXX..oo....",
"....OOooXX..ooooooooooooooooooooooooooooooooooooooooooXX..oo........OOooXX..ooooooooooooooooooooooooooooooooooooooooooXX..oo....",
"....OOoooooooooooooooooooooooooooooooooooooooooooooooooooooo........OOoooooooooooooooooooooooooooooooooooooooooooooooooooooo....",
"....OOoooooooooooooooooooooooooooooooooooooooooooooooooooooo........OOoooooooooooooooooooooooooooooooooooooooooooooooooooooo....",
"................................................................................................................................",
"................................................................................................................................",
"..OOOOOOOOOOOOOOOOOOOOOOOOOOOOOOOOOOOOOOOOOOOOOOOOOOOOOOOOOO........OOOOOOOOOOOOOOOOOOOOOOOOOOOOOOOOOOOOOOOOOOOOOOOOOOOOOOOOOO..",
"..OOOOOOOOOOOOOOOOOOOOOOOOOOOOOOOOOOOOOOOOOOOOOOOOOOOOOOOOOO........OOOOOOOOOOOOOOOOOOOOOOOOOOOOOOOOOOOOOOOOOOOOOOOOOOOOOOOOOO..",
"..oooooooooooooooooooooooooooooooooooooooooooooooooooooooooo........oooooooooooooooooooooooooooooooooooooooooooooooooooooooooo..",
"..oooooooooooooooooooooooooooooooooooooooooooooooooooooooooo........oooooooooooooooooooooooooooooooooooooooooooooooooooooooooo..",
"..oooooooooooooooooooooooooooooooooooooooooooooooooooooooooo........oooooooooooooooooooooooooooooooooooooooooooooooooooooooooo..",
"..oooooooooooooooooooooooooooooooooooooooooooooooooooooooooo........oooooooooooooooooooooooooooooooooooooooooooooooooooooooooo..",
"..oooooooooooooooooooooooooooooooooooooooooooooooooooooooooo........oooooooooooooooooooooooooooooooooooooooooooooooooooooooooo..",
"..oooooooooooooooooooooooooooooooooooooooooooooooooooooooooo........oooooooooooooooooooooooooooooooooooooooooooooooooooooooooo..",
"..oooooooooooooooooooooooooooooooooooooooooooooooooooooooooo........oooooooooooooooooooooooooooooooooooooooooooooooooooooooooo..",
"..oooooooooooooooooooooooooooooooooooooooooooooooooooooooooo........oooooooooooooooooooooooooooooooooooooooooooooooooooooooooo..",
"..oooooooooooooooooooooooooooooooooooooooooooooooooooooooooo........oooooooooooooooooooooooooooooooooooooooooooooooooooooooooo..",
"..oooooooooooooooooooooooooooooooooooooooooooooooooooooooooo........oooooooooooooooooooooooooooooooooooooooooooooooooooooooooo..",
"..oooooooooooooooooooooooooooooooooooooooooooooooooooooooooo........oooooooooooooooooooooooooooooooooooooooooooooooooooooooooo..",
"..oooooooooooooooooooooooooooooooooooooooooooooooooooooooooo........oooooooooooooooooooooooooooooooooooooooooooooooooooooooooo..",
"................................................................................................................................",
"................................................................................................................................"
};
