/* XPM */
static char *_875cfd3d06f4a9f9aa3b7a5cf9e5f2aqrrD59nCXQqgNf4V[] = {
/* columns rows colors chars-per-pixel */
"128 128 11 1 ",
"  c None",
". c #000008",
"X c gray20",
"o c #434343",
"O c #535353",
"+ c #777777",
"@ c #5F9B00",
"# c #7FB717",
"$ c #A3D337",
"% c #C7EF63",
"& c gray53",
/* pixels */
"++++++++++++++++++++++++++++++++++++++                                                    ++++++++++++++++++++++++++++++++++++++",
"++++++++++++++++++++++++++++++++++++++                                                    ++++++++++++++++++++++++++++++++++++++",
"OOOOOOOOOOOOOOOOOOOOOOOOOOOOOOOOOOOOXX                                                    XXOOOOOOOOOOOOOOOOOOOOOOOOOOOOOOOOOOOO",
"OOOOOOOOOOOOOOOOOOOOOOOOOOOOOOOOOOOOXX                                                    XXOOOOOOOOOOOOOOOOOOOOOOOOOOOOOOOOOOOO",
"OOOOOOOOOOOOOOOOOOOOOOOOOOOOOOOOOOOOXX                                                    XXOOOOOOOOOOOOOOOOOOOOOOOOOOOOOOOOOOOO",
"OOOOOOOOOOOOOOOOOOOOOOOOOOOOOOOOOOOOXX                                                    XXOOOOOOOOOOOOOOOOOOOOOOOOOOOOOOOOOOOO",
"XXXXXXXXXXXXXXXXXXXXXXXXXXXXXXXXXXXXXX                                                    XXXXXXXXXXXXXXXXXXXXXXXXXXXXXXXXXXXXXX",
"XXXXXXXXXXXXXXXXXXXXXXXXXXXXXXXXXXXXXX                                                    XXXXXXXXXXXXXXXXXXXXXXXXXXXXXXXXXXXXXX",
"++++++++++++++++++++++++++++++++++XXXX                                                    XXXX&&++++++++++++++++++++++++++++++++",
"++++++++++++++++++++++++++++++++++XXXX                                                    XXXX&&++++++++++++++++++++++++++++++++",
"OOOOOOOOOOOOOOOOOOOOOOOOOOOOOOOOOOXXXX                                                    XXXX++OOOOOOOOOOOOOOOOOOOOOOOOOOOOOOOO",
"OOOOOOOOOOOOOOOOOOOOOOOOOOOOOOOOOOXXXX                                                    XXXX++OOOOOOOOOOOOOOOOOOOOOOOOOOOOOOOO",
"OOOOOOOOOOOOOOOOOOOOOOOOOOOO++ooOOXXXX                                                    XXXX++OO++ooOOOOOOOOOOOOOOOOOOOOOOOOOO",
"OOOOOOOOOOOOOOOOOOOOOOOOOOOO++ooOOXXXX                                                    XXXX++OO++ooOOOOOOOOOOOOOOOOOOOOOOOOOO",
"OOOOOOOOOOOOOOOOOOOOOOOOOOOOooXXOOXXXX                                                    XXXX++OOooXXOOOOOOOOOOOOOOOOOOOOOOOOOO",
"OOOOOOOOOOOOOOOOOOOOOOOOOOOOooXXOOXXXX                                                    XXXX++OOooXXOOOOOOOOOOOOOOOOOOOOOOOOOO",
"OOOOOOOOOOOOOOOOOOOOOOOOOOOOOOOOOOXXXX                                                    XXXX++OOOOOOOOOOOOOOOOOOOOOOOOOOOOOOOO",
"OOOOOOOOOOOOOOOOOOOOOOOOOOOOOOOOOOXXXX                                                    XXXX++OOOOOOOOOOOOOOOOOOOOOOOOOOOOOOOO",
"OOOOOOOOOOOOOOOOOOOOOOOOOOOOOOOOOOXXXX                                                    XXXX++OOOOOOOOOOOOOOOOOOOOOOOOOOOOOOOO",
"OOOOOOOOOOOOOOOOOOOOOOOOOOOOOOOOOOXXXX                                                    XXXX++OOOOOOOOOOOOOOOOOOOOOOOOOOOOOOOO",
"OOOOOOOOOOOOOOOOOOOOOOOOOOOOOOOOOOXXXX                                                    XXXX++OOOOOOOOOOOOOOOOOOOOOOOOOOOOOOOO",
"OOOOOOOOOOOOOOOOOOOOOOOOOOOOOOOOOOXXXX                                                    XXXX++OOOOOOOOOOOOOOOOOOOOOOOOOOOOOOOO",
"OOOOOOOOOOOOOOOOOOOOOOOOOOOOOOOOOOXXXX                                                    XXXX++OOOOOOOOOOOOOOOOOOOOOOOOOOOOOOOO",
"OOOOOOOOOOOOOOOOOOOOOOOOOOOOOOOOOOXXXX                                                    XXXX++OOOOOOOOOOOOOOOOOOOOOOOOOOOOOOOO",
"OOOOOOOOOOOOOOOOOOOOOOOOOOOOOOOOOOXXXX                                                    XXXX++OOOOOOOOOOOOOOOOOOOOOOOOOOOOOOOO",
"OOOOOOOOOOOOOOOOOOOOOOOOOOOOOOOOOOXXXX                                                    XXXX++OOOOOOOOOOOOOOOOOOOOOOOOOOOOOOOO",
"OOOOOOOOOOOOOOOOOOOOOOOOOOOOOOOOOOXXXX                                                    XXXX++OOOOOOOOOOOOOOOOOOOOOOOOOOOOOOOO",
"OOOOOOOOOOOOOOOOOOOOOOOOOOOOOOOOOOXXXX                                                    XXXX++OOOOOOOOOOOOOOOOOOOOOOOOOOOOOOOO",
"OOOOOOOOOOOOOOOOOOOOOOOOOOOOOOOOOOXXXX                                                    XXXX++OOOOOOOOOOOOOOOOOOOOOOOOOOOOOOOO",
"OOOOOOOOOOOOOOOOOOOOOOOOOOOOOOOOOOXXXX                                                    XXXX++OOOOOOOOOOOOOOOOOOOOOOOOOOOOOOOO",
"OOOOOOOOOOOOOOOOOOOOOOOOOOOOOOOOOOXXXX                                                    XXXX++OOOOOOOOOOOOOOOOOOOOOOOOOOOOOOOO",
"OOOOOOOOOOOOOOOOOOOOOOOOOOOOOOOOOOXXXX                                                    XXXX++OOOOOOOOOOOOOOOOOOOOOOOOOOOOOOOO",
"OOOOOOOOOOOOOOOOOOOOOOOOOOOOOOOOOOXXXX                                                    XXXX++OOOOOOOOOOOOOOOOOOOOOOOOOOOOOOOO",
"OOOOOOOOOOOOOOOOOOOOOOOOOOOOOOOOOOXXXX                                                    XXXX++OOOOOOOOOOOOOOOOOOOOOOOOOOOOOOOO",
"OOOOOOOOOOOOOOOOOOOOOOOOOOOOOOOOOOXXXX                                                    XXXX++OOOOOOOOOOOOOOOOOOOOOOOOOOOOOOOO",
"OOOOOOOOOOOOOOOOOOOOOOOOOOOOOOOOOOXXXX                                                    XXXX++OOOOOOOOOOOOOOOOOOOOOOOOOOOOOOOO",
"OOOOOOOOOOOOOOOOOOOOOOOOOOOOOOOOOOXXXX                                                    XXXX++OOOOOOOOOOOOOOOOOOOOOOOOOOOOOOOO",
"OOOOOOOOOOOOOOOOOOOOOOOOOOOOOOOOOOXXXX                                                    XXXX++OOOOOOOOOOOOOOOOOOOOOOOOOOOOOOOO",
"OOOOOOOOOOOOOOOOOOOOOOOOOOOOOOOOOOXXXX                                                    XXXX++OOOOOOOOOOOOOOOOOOOOOOOOOOOOOOOO",
"OOOOOOOOOOOOOOOOOOOOOOOOOOOOOOOOOOXXXX                                                    XXXX++OOOOOOOOOOOOOOOOOOOOOOOOOOOOOOOO",
"OOOOOOOOOOOOOOOOOOOOOOOOOOOOOOOOOOXXXX                                                    XXXX++OOOOOOOOOOOOOOOOOOOOOOOOOOOOOOOO",
"OOOOOOOOOOOOOOOOOOOOOOOOOOOOOOOOOOXXXX                                                    XXXX++OOOOOOOOOOOOOOOOOOOOOOOOOOOOOOOO",
"OOOOOOOOOOOOOOOOOOOOOOOOOOOOOOOOOOXXXX                                                    XXXX++OOOOOOOOOOOOOOOOOOOO++++++++++++",
"OOOOOOOOOOOOOOOOOOOOOOOOOOOOOOOOOOXXXX                                                    XXXX++OOOOOOOOOOOOOOOOOOOO++++++++++++",
"OOOOOOOOOOOOOOOOOOOOOOOOOOOO++ooOOXXXX                                                    XXXX++OO++ooOOOOOOOOOOOO++............",
"OOOOOOOOOOOOOOOOOOOOOOOOOOOO++ooOOXXXX                                                    XXXX++OO++ooOOOOOOOOOOOO++............",
"OOOOOOOOOOOOOOOOOOOOOOOOOOOOooXXOOXXXX                                                    XXXX++OOooXXOOOOOOOOOOOO++............",
"OOOOOOOOOOOOOOOOOOOOOOOOOOOOooXXOOXXXX                                                    XXXX++OOooXXOOOOOOOOOOOO++............",
"OOOOOOOOOOOOOOOOOOOOOOOOOOOOOOOOOOXXXX                                                    XXXX++OOOOOOOOOOOOOOOOOO++....%%$$$$##",
"OOOOOOOOOOOOOOOOOOOOOOOOOOOOOOOOOOXXXX                                                    XXXX++OOOOOOOOOOOOOOOOOO++....%%$$$$##",
"XXXXXXXXXXXXXXXXXXXXXXXXXXXXXXXXXXXXXX                                                    XXXXXXXXXXXXXXXXXXXXXXXX++....$$####@@",
"XXXXXXXXXXXXXXXXXXXXXXXXXXXXXXXXXXXXXX                                                    XXXXXXXXXXXXXXXXXXXXXXXX++....$$####@@",
"++++++++++++++++++++++++XX&&++++++XXXX                                                    XX&&++++++XXXX&&++++++++++....$$####@@",
"++++++++++++++++++++++++XX&&++++++XXXX                                                    XX&&++++++XXXX&&++++++++++....$$####@@",
"OOOOOOOOOOOOOOOOOOOOOOOOXX++OOOOOOXXXX                                                    XX++OOOOOOXXXX++OOOOOOOO++....$$####@@",
"OOOOOOOOOOOOOOOOOOOOOOOOXX++OOOOOOXXXX                                                    XX++OOOOOOXXXX++OOOOOOOO++....$$####@@",
"OOOOOOOOOOOOOOOOOO++ooOOXX++OOOOOOXXXX                                                    XX++OOOOOOXXXX++OO++ooOO++....##@@@@@@",
"OOOOOOOOOOOOOOOOOO++ooOOXX++OOOOOOXXXX                                                    XX++OOOOOOXXXX++OO++ooOO++....##@@@@@@",
"OOOOOOOOOOOOOOOOOOooXXOOXX++OOOOOOXXXX                                                    XX++OOOOOOXXXX++OOooXXOO++............",
"OOOOOOOOOOOOOOOOOOooXXOOXX++OOOOOOXXXX                                                    XX++OOOOOOXXXX++OOooXXOO++............",
"OOOOOOOOOOOOOOOOOOOOOOOOXX++######XXXX                                                    XX++######XXXX++OOOOOOOO++....++++OOoo",
"OOOOOOOOOOOOOOOOOOOOOOOOXX++######XXXX                                                    XX++######XXXX++OOOOOOOO++....++++OOoo",
"OOOOOOOOOOOOOOOOOOOOOOOOXX++######XXXX                                                    XX++######XXXX++OOOOOOOO++....++OOooXX",
"OOOOOOOOOOOOOOOOOOOOOOOOXX++######XXXX                                                    XX++######XXXX++OOOOOOOO++....++OOooXX",
"OOOOOOOOOOOOOOOOOOOOOOOOXX++OOOOOOXXXX                                                    XX++OOOOOOXXXX++OOOOOOOO++............",
"OOOOOOOOOOOOOOOOOOOOOOOOXX++OOOOOOXXXX                                                    XX++OOOOOOXXXX++OOOOOOOO++............",
"OOOOOOOOOOOOOOOOOOOOOOOOXX++OOXXXXXXXX                                                    XX++XXXXOOXXXX++OOOOOOOO++....++++OOoo",
"OOOOOOOOOOOOOOOOOOOOOOOOXX++OOXXXXXXXX                                                    XX++XXXXOOXXXX++OOOOOOOO++....++++OOoo",
"OOOOOOOOOOOOOOOOOOOOOOOOXX++OO....XXXX                                                    XX++....OOXXXX++OOOOOOOO++....++OOooXX",
"OOOOOOOOOOOOOOOOOOOOOOOOXX++OO....XXXX                                                    XX++....OOXXXX++OOOOOOOO++....++OOooXX",
"OOOOOOOOOOOOOOOOOOOOOOOOXX++OO....XXXX                                                    XX++....OOXXXX++OOOOOOOO++............",
"OOOOOOOOOOOOOOOOOOOOOOOOXX++OO....XXXX                                                    XX++....OOXXXX++OOOOOOOO++............",
"OOOOOOOOOOOOOOOOOOOOOOOOXX++OO....XXXX                                                    XX++....OOXXXX++OOOOOOOO++............",
"OOOOOOOOOOOOOOOOOOOOOOOOXX++OO....XXXX                                                    XX++....OOXXXX++OOOOOOOO++............",
"OOOOOOOOOOOOOOOOOOOOOOOOXX++OO....XXXX                                                    XX++....OOXXXX++OOOOOOOO++............",
"OOOOOOOOOOOOOOOOOOOOOOOOXX++OO....XXXX                                                    XX++....OOXXXX++OOOOOOOO++............",
"OOOOOOOOOOOOOOOOOO++ooOOXX++OOOOOOXXXX                                                    XX++OOOOOOXXXX++OO++ooOOOOXXXXXXXXXXXX",
"OOOOOOOOOOOOOOOOOO++ooOOXX++OOOOOOXXXX                                                    XX++OOOOOOXXXX++OO++ooOOOOXXXXXXXXXXXX",
"OOOOOOOOOOOOOOOOOOooXXOOXXXXXXXXXXXXXX                                                    XXXXXXXXXXXXXX++OOooXXOOOOOOOOOOOOOOOO",
"OOOOOOOOOOOOOOOOOOooXXOOXXXXXXXXXXXXXX                                                    XXXXXXXXXXXXXX++OOooXXOOOOOOOOOOOOOOOO",
"OOOOOOOOOOOOOOOOOOOOOOOOXXXXXXXXXXXXXX                                                    XXXXXXXXXXXXXX++OOOOOOOOOOOOOOOOOOOOOO",
"OOOOOOOOOOOOOOOOOOOOOOOOXXXXXXXXXXXXXX                                                    XXXXXXXXXXXXXX++OOOOOOOOOOOOOOOOOOOOOO",
"XXXXXXXXXXXXXXXXXXXXXXXXXXXXXXXXXXXXXX                                                    XXXXXXXXXXXXXXXXXXXXXXXXXXXXXXXXXXXXXX",
"XXXXXXXXXXXXXXXXXXXXXXXXXXXXXXXXXXXXXX                                                    XXXXXXXXXXXXXXXXXXXXXXXXXXXXXXXXXXXXXX",
"++++++++++++++++++++++++++++++++++XXXX                                                    XXXX&&++++++++++++++++++++++++++++++++",
"++++++++++++++++++++++++++++++++++XXXX                                                    XXXX&&++++++++++++++++++++++++++++++++",
"OOOOOOOOOOOOOOOOOOOOOOOOOOOOOOOOOOXXXX                                                    XXXX++OOOOOOOOOOOOOOOOOOOOOOOOOOOOOOOO",
"OOOOOOOOOOOOOOOOOOOOOOOOOOOOOOOOOOXXXX                                                    XXXX++OOOOOOOOOOOOOOOOOOOOOOOOOOOOOOOO",
"OOOOOOOOOOOOOOOOOOOOOOOOOOOO++ooOOXXXX                                                    XXXX++OO++ooOOOOOOOOOOOOOOOOOOOOOOOOOO",
"OOOOOOOOOOOOOOOOOOOOOOOOOOOO++ooOOXXXX                                                    XXXX++OO++ooOOOOOOOOOOOOOOOOOOOOOOOOOO",
"OOOOOOOOOOOOOOOOOOOOOOOOOOOOooXXOOXXXX                                                    XXXX++OOooXXOOOOOOOOOOOOOOOOOOOOOOOOOO",
"OOOOOOOOOOOOOOOOOOOOOOOOOOOOooXXOOXXXX                                                    XXXX++OOooXXOOOOOOOOOOOOOOOOOOOOOOOOOO",
"OOOOOOOOOOOOOOOOOOOOOOOOOOOOOOOOOOXXXX                                                    XXXX++OOOOOOOOOOOOOOOOOOOOOOOOOOOOOOOO",
"OOOOOOOOOOOOOOOOOOOOOOOOOOOOOOOOOOXXXX                                                    XXXX++OOOOOOOOOOOOOOOOOOOOOOOOOOOOOOOO",
"OOOOOOOOOOOOOOOOOOOOOOOOOOOOOOOOOOXXXX                                                    XXXX++OOOOOOOOOOOOOOOOOOOOOOOOOOOOOOOO",
"OOOOOOOOOOOOOOOOOOOOOOOOOOOOOOOOOOXXXX                                                    XXXX++OOOOOOOOOOOOOOOOOOOOOOOOOOOOOOOO",
"OOOOOOOOOOOOOOOOOOOOOOOOOOOOOOOOOOXXXX                                                    XXXX++OOOOOOOOOOOOOOOOOOOOOOOOOOOOOOOO",
"OOOOOOOOOOOOOOOOOOOOOOOOOOOOOOOOOOXXXX                                                    XXXX++OOOOOOOOOOOOOOOOOOOOOOOOOOOOOOOO",
"OOOOOOOOOOOOOOOOOOOOOOOOOOOOOOOOOOXXXX                                                    XXXX++OOOOOOOOOOOOOOOOOOOOOOOOOOOOOOOO",
"OOOOOOOOOOOOOOOOOOOOOOOOOOOOOOOOOOXXXX                                                    XXXX++OOOOOOOOOOOOOOOOOOOOOOOOOOOOOOOO",
"OOOOOOOOOOOOOOOOOOOOOOOOOOOOOOOOOOXXXX                                                    XXXX++OOOOOOOOOOOOOOOOOOOOOOOOOOOOOOOO",
"OOOOOOOOOOOOOOOOOOOOOOOOOOOOOOOOOOXXXX                                                    XXXX++OOOOOOOOOOOOOOOOOOOOOOOOOOOOOOOO",
"OOOOOOOOOOOOOOOOOOOOOOOOOOOOOOOOOOXXXX                                                    XXXX++OOOOOOOOOOOOOOOOOOOOOOOOOOOOOOOO",
"OOOOOOOOOOOOOOOOOOOOOOOOOOOOOOOOOOXXXX                                                    XXXX++OOOOOOOOOOOOOOOOOOOOOOOOOOOOOOOO",
"OOOOOOOOOOOOOOOOOOOOOOOOOOOO++ooOOXXXX                                                    XXXX++OO++ooOOOOOOOOOOOOOOOOOOOOOOOOOO",
"OOOOOOOOOOOOOOOOOOOOOOOOOOOO++ooOOXXXX                                                    XXXX++OO++ooOOOOOOOOOOOOOOOOOOOOOOOOOO",
"OOOOOOOOOOOOOOOOOOOOOOOOOOOOooXXOOXXXX                                                    XXXX++OOooXXOOOOOOOOOOOOOOOOOOOOOOOOOO",
"OOOOOOOOOOOOOOOOOOOOOOOOOOOOooXXOOXXXX                                                    XXXX++OOooXXOOOOOOOOOOOOOOOOOOOOOOOOOO",
"OOOOOOOOOOOOOOOOOOOOOOOOOOOOOOOOOOXXXX                                                    XXXX++OOOOOOOOOOOOOOOOOOOOOOOOOOOOOOOO",
"OOOOOOOOOOOOOOOOOOOOOOOOOOOOOOOOOOXXXX                                                    XXXX++OOOOOOOOOOOOOOOOOOOOOOOOOOOOOOOO",
"XXXXXXXXXXXXXXXXXXXXXXXXXXXXXXXXXXXXXX                                                    XXXXXXXXXXXXXXXXXXXXXXXXXXXXXXXXXXXXXX",
"XXXXXXXXXXXXXXXXXXXXXXXXXXXXXXXXXXXXXX                                                    XXXXXXXXXXXXXXXXXXXXXXXXXXXXXXXXXXXXXX",
"++++++++++++++++++++++++++++++++++XXXX                                                    XXXX++++++++++++++++++++++++++++++++++",
"++++++++++++++++++++++++++++++++++XXXX                                                    XXXX++++++++++++++++++++++++++++++++++",
"OOOOOOOOOOOOOOOOOOOOOOOOOOOOOOOOOOXXXX                                                    XXXXOOOOOOOOOOOOOOOOOOOOOOOOOOOOOOOOOO",
"OOOOOOOOOOOOOOOOOOOOOOOOOOOOOOOOOOXXXX                                                    XXXXOOOOOOOOOOOOOOOOOOOOOOOOOOOOOOOOOO",
"OOOOOOOOOOOOOOOOOOOOOOOOOOOOOOOOOOXXXX                                                    XXXXOOOOOOOOOOOOOOOOOOOOOOOOOOOOOOOOOO",
"OOOOOOOOOOOOOOOOOOOOOOOOOOOOOOOOOOXXXX                                                    XXXXOOOOOOOOOOOOOOOOOOOOOOOOOOOOOOOOOO",
"OOOOOOOOOOOOOOOOOOOOOOOOOOOOOOOOOOXXXX                                                    XXXXOOOOOOOOOOOOOOOOOOOOOOOOOOOOOOOOOO",
"OOOOOOOOOOOOOOOOOOOOOOOOOOOOOOOOOOXXXX                                                    XXXXOOOOOOOOOOOOOOOOOOOOOOOOOOOOOOOOOO",
"OOOOOOOOOOOOOOOOOOOOOOOOOOOOOOOOOOXXXX                                                    XXXXOOOOOOOOOOOOOOOOOOOOOOOOOOOOOOOOOO",
"OOOOOOOOOOOOOOOOOOOOOOOOOOOOOOOOOOXXXX                                                    XXXXOOOOOOOOOOOOOOOOOOOOOOOOOOOOOOOOOO",
"OOOOOOOOOOOOOOOOOOOOOOOOOOOOOOOOOOXXXX                                                    XXXXOOOOOOOOOOOOOOOOOOOOOOOOOOOOOOOOOO",
"OOOOOOOOOOOOOOOOOOOOOOOOOOOOOOOOOOXXXX                                                    XXXXOOOOOOOOOOOOOOOOOOOOOOOOOOOOOOOOOO",
"OOOOOOOOOOOOOOOOOOOOOOOOOOOOOOOOOOXXXX                                                    XXXXOOOOOOOOOOOOOOOOOOOOOOOOOOOOOOOOOO",
"OOOOOOOOOOOOOOOOOOOOOOOOOOOOOOOOOOXXXX                                                    XXXXOOOOOOOOOOOOOOOOOOOOOOOOOOOOOOOOOO",
"XXXXXXXXXXXXXXXXXXXXXXXXXXXXXXXXXXXXXX                                                    XXXXXXXXXXXXXXXXXXXXXXXXXXXXXXXXXXXXXX",
"XXXXXXXXXXXXXXXXXXXXXXXXXXXXXXXXXXXXXX                                                    XXXXXXXXXXXXXXXXXXXXXXXXXXXXXXXXXXXXXX"
};
