/* XPM */
static char *_2449a2ddc3e41d2b40d43561b6c75e8U8xYzUhn5ilsU3oj[] = {
/* columns rows colors chars-per-pixel */
"128 128 3 1 ",
"  c None",
". c gray20",
"X c #777777",
/* pixels */
"XX                                                                                                                            XX",
"XX                                                                                                                            XX",
"..                                                                                                                            ..",
"..                                                                                                                            ..",
"..                                                                                                                            ..",
"..                                                                                                                            ..",
"..                                                                                                                            ..",
"..                                                                                                                            ..",
"..                                                                                                                            ..",
"..                                                                                                                            ..",
"..                                                                                                                            ..",
"..                                                                                                                            ..",
"..                                                                                                                            ..",
"..                                                                                                                            ..",
"..                                                                                                                            ..",
"..                                                                                                                            ..",
"..                                                                                                                            ..",
"..                                                                                                                            ..",
"..                                                                                                                            ..",
"..                                                                                                                            ..",
"..                                                                                                                            ..",
"..                                                                                                                            ..",
"..                                                                                                                            ..",
"..                                                                                                                            ..",
"..                                                                                                                            ..",
"..                                                                                                                            ..",
"..                                                                                                                            ..",
"..                                                                                                                            ..",
"..                                                                                                                            ..",
"..                                                                                                                            ..",
"..                                                                                                                            ..",
"..                                                                                                                            ..",
"..                                                                                                                            ..",
"..                                                                                                                            ..",
"..                                                                                                                            ..",
"..                                                                                                                            ..",
"..                                                                                                                            ..",
"..                                                                                                                            ..",
"..                                                                                                                            ..",
"..                                                                                                                            ..",
"..                                                                                                                            ..",
"..                                                                                                                            ..",
"..                                                                                                                            ..",
"..                                                                                                                            ..",
"..                                                                                                                            ..",
"..                                                                                                                            ..",
"..                                                                                                                            ..",
"..                                                                                                                            ..",
"..                                                                                                                            ..",
"..                                                                                                                            ..",
"..                                                                                                                            ..",
"..                                                                                                                            ..",
"..                                                                                                                            ..",
"..                                                                                                                            ..",
"..                                                                                                                            ..",
"..                                                                                                                            ..",
"..                                                                                                                            ..",
"..                                                                                                                            ..",
"..                                                                                                                            ..",
"..                                                                                                                            ..",
"..                                                                                                                            ..",
"..                                                                                                                            ..",
"..                                                                                                                            ..",
"..                                                                                                                            ..",
"..                                                                                                                            ..",
"..                                                                                                                            ..",
"..                                                                                                                            ..",
"..                                                                                                                            ..",
"..                                                                                                                            ..",
"..                                                                                                                            ..",
"..                                                                                                                            ..",
"..                                                                                                                            ..",
"..                                                                                                                            ..",
"..                                                                                                                            ..",
"..                                                                                                                            ..",
"..                                                                                                                            ..",
"..                                                                                                                            ..",
"..                                                                                                                            ..",
"..                                                                                                                            ..",
"..                                                                                                                            ..",
"..                                                                                                                            ..",
"..                                                                                                                            ..",
"..                                                                                                                            ..",
"..                                                                                                                            ..",
"..                                                                                                                            ..",
"..                                                                                                                            ..",
"..                                                                                                                            ..",
"..                                                                                                                            ..",
"..                                                                                                                            ..",
"..                                                                                                                            ..",
"..                                                                                                                            ..",
"..                                                                                                                            ..",
"..                                                                                                                            ..",
"..                                                                                                                            ..",
"..                                                                                                                            ..",
"..                                                                                                                            ..",
"..                                                                                                                            ..",
"..                                                                                                                            ..",
"..                                                                                                                            ..",
"..                                                                                                                            ..",
"..                                                                                                                            ..",
"..                                                                                                                            ..",
"..                                                                                                                            ..",
"..                                                                                                                            ..",
"..                                                                                                                            ..",
"..                                                                                                                            ..",
"..                                                                                                                            ..",
"..                                                                                                                            ..",
"..                                                                                                                            ..",
"..                                                                                                                            ..",
"..                                                                                                                            ..",
"..                                                                                                                            ..",
"..                                                                                                                            ..",
"..                                                                                                                            ..",
"..                                                                                                                            ..",
"..                                                                                                                            ..",
"..                                                                                                                            ..",
"..                                                                                                                            ..",
"..                                                                                                                            ..",
"..                                                                                                                            ..",
"..                                                                                                                            ..",
"..                                                                                                                            ..",
"..                                                                                                                            ..",
"..                                                                                                                            ..",
"..                                                                                                                            ..",
"..                                                                                                                            ..",
"..                                                                                                                            ..",
"..                                                                                                                            .."
};
