/* XPM */
static char *_03f82ab10824185cdd7501e88fe0f95WX1l2h3WWMuPNylF[] = {
/* columns rows colors chars-per-pixel */
"128 128 8 1 ",
"  c None",
". c #000008",
"X c gray20",
"o c #434343",
"O c #535353",
"+ c #777777",
"@ c #7FB717",
"# c gray53",
/* pixels */
"+++++++++++++                                                                                                      +++++++++++++",
"+++++++++++++                                                                                                      +++++++++++++",
"OOOOOOOOOOOXX                                                                                                      XXOOOOOOOOOOO",
"OOOOOOOOOOOXX                                                                                                      XXOOOOOOOOOOO",
"OOOOOOOOOOOXX                                                                                                      XXOOOOOOOOOOO",
"OOOOOOOOOOOXX                                                                                                      XXOOOOOOOOOOO",
"XXXXXXXXXXXXX                                                                                                      XXXXXXXXXXXXX",
"XXXXXXXXXXXXX                                                                                                      XXXXXXXXXXXXX",
"+++++++++XXXX                                                                                                      XXXX##+++++++",
"+++++++++XXXX                                                                                                      XXXX##+++++++",
"OOOOOOOOOXXXX                                                                                                      XXXX++OOOOOOO",
"OOOOOOOOOXXXX                                                                                                      XXXX++OOOOOOO",
"OOO++ooOOXXXX                                                                                                      XXXX++OO++ooO",
"OOO++ooOOXXXX                                                                                                      XXXX++OO++ooO",
"OOOooXXOOXXXX                                                                                                      XXXX++OOooXXO",
"OOOooXXOOXXXX                                                                                                      XXXX++OOooXXO",
"OOOOOOOOOXXXX                                                                                                      XXXX++OOOOOOO",
"OOOOOOOOOXXXX                                                                                                      XXXX++OOOOOOO",
"OOOOOOOOOXXXX                                                                                                      XXXX++OOOOOOO",
"OOOOOOOOOXXXX                                                                                                      XXXX++OOOOOOO",
"OOOOOOOOOXXXX                                                                                                      XXXX++OOOOOOO",
"OOOOOOOOOXXXX                                                                                                      XXXX++OOOOOOO",
"OOOOOOOOOXXXX                                                                                                      XXXX++OOOOOOO",
"OOOOOOOOOXXXX                                                                                                      XXXX++OOOOOOO",
"OOOOOOOOOXXXX                                                                                                      XXXX++OOOOOOO",
"OOOOOOOOOXXXX                                                                                                      XXXX++OOOOOOO",
"OOOOOOOOOXXXX                                                                                                      XXXX++OOOOOOO",
"OOOOOOOOOXXXX                                                                                                      XXXX++OOOOOOO",
"OOOOOOOOOXXXX                                                                                                      XXXX++OOOOOOO",
"OOOOOOOOOXXXX                                                                                                      XXXX++OOOOOOO",
"OOOOOOOOOXXXX                                                                                                      XXXX++OOOOOOO",
"OOOOOOOOOXXXX                                                                                                      XXXX++OOOOOOO",
"OOOOOOOOOXXXX                                                                                                      XXXX++OOOOOOO",
"OOOOOOOOOXXXX                                                                                                      XXXX++OOOOOOO",
"OOOOOOOOOXXXX                                                                                                      XXXX++OOOOOOO",
"OOOOOOOOOXXXX                                                                                                      XXXX++OOOOOOO",
"OOOOOOOOOXXXX                                                                                                      XXXX++OOOOOOO",
"OOOOOOOOOXXXX                                                                                                      XXXX++OOOOOOO",
"OOOOOOOOOXXXX                                                                                                      XXXX++OOOOOOO",
"OOOOOOOOOXXXX                                                                                                      XXXX++OOOOOOO",
"OOOOOOOOOXXXX                                                                                                      XXXX++OOOOOOO",
"OOOOOOOOOXXXX                                                                                                      XXXX++OOOOOOO",
"OOOOOOOOOXXXX                                                                                                      XXXX++OOOOOOO",
"OOOOOOOOOXXXX                                                                                                      XXXX++OOOOOOO",
"OOO++ooOOXXXX                                                                                                      XXXX++OO++ooO",
"OOO++ooOOXXXX                                                                                                      XXXX++OO++ooO",
"OOOooXXOOXXXX                                                                                                      XXXX++OOooXXO",
"OOOooXXOOXXXX                                                                                                      XXXX++OOooXXO",
"OOOOOOOOOXXXX                                                                                                      XXXX++OOOOOOO",
"OOOOOOOOOXXXX                                                                                                      XXXX++OOOOOOO",
"XXXXXXXXXXXXX                                                                                                      XXXXXXXXXXXXX",
"XXXXXXXXXXXXX                                                                                                      XXXXXXXXXXXXX",
"X##++++++XXXX                                                                                                      XX##++++++XXX",
"X##++++++XXXX                                                                                                      XX##++++++XXX",
"X++OOOOOOXXXX                                                                                                      XX++OOOOOOXXX",
"X++OOOOOOXXXX                                                                                                      XX++OOOOOOXXX",
"X++OOOOOOXXXX                                                                                                      XX++OOOOOOXXX",
"X++OOOOOOXXXX                                                                                                      XX++OOOOOOXXX",
"X++OOOOOOXXXX                                                                                                      XX++OOOOOOXXX",
"X++OOOOOOXXXX                                                                                                      XX++OOOOOOXXX",
"X++@@@@@@XXXX                                                                                                      XX++@@@@@@XXX",
"X++@@@@@@XXXX                                                                                                      XX++@@@@@@XXX",
"X++@@@@@@XXXX                                                                                                      XX++@@@@@@XXX",
"X++@@@@@@XXXX                                                                                                      XX++@@@@@@XXX",
"X++OOOOOOXXXX                                                                                                      XX++OOOOOOXXX",
"X++OOOOOOXXXX                                                                                                      XX++OOOOOOXXX",
"X++OOXXXXXXXX                                                                                                      XX++XXXXOOXXX",
"X++OOXXXXXXXX                                                                                                      XX++XXXXOOXXX",
"X++OO....XXXX                                                                                                      XX++....OOXXX",
"X++OO....XXXX                                                                                                      XX++....OOXXX",
"X++OO....XXXX                                                                                                      XX++....OOXXX",
"X++OO....XXXX                                                                                                      XX++....OOXXX",
"X++OO....XXXX                                                                                                      XX++....OOXXX",
"X++OO....XXXX                                                                                                      XX++....OOXXX",
"X++OO....XXXX                                                                                                      XX++....OOXXX",
"X++OO....XXXX                                                                                                      XX++....OOXXX",
"X++OOOOOOXXXX                                                                                                      XX++OOOOOOXXX",
"X++OOOOOOXXXX                                                                                                      XX++OOOOOOXXX",
"XXXXXXXXXXXXX                                                                                                      XXXXXXXXXXXXX",
"XXXXXXXXXXXXX                                                                                                      XXXXXXXXXXXXX",
"XXXXXXXXXXXXX                                                                                                      XXXXXXXXXXXXX",
"XXXXXXXXXXXXX                                                                                                      XXXXXXXXXXXXX",
"XXXXXXXXXXXXX                                                                                                      XXXXXXXXXXXXX",
"XXXXXXXXXXXXX                                                                                                      XXXXXXXXXXXXX",
"+++++++++XXXX                                                                                                      XXXX##+++++++",
"+++++++++XXXX                                                                                                      XXXX##+++++++",
"OOOOOOOOOXXXX                                                                                                      XXXX++OOOOOOO",
"OOOOOOOOOXXXX                                                                                                      XXXX++OOOOOOO",
"OOO++ooOOXXXX                                                                                                      XXXX++OO++ooO",
"OOO++ooOOXXXX                                                                                                      XXXX++OO++ooO",
"OOOooXXOOXXXX                                                                                                      XXXX++OOooXXO",
"OOOooXXOOXXXX                                                                                                      XXXX++OOooXXO",
"OOOOOOOOOXXXX                                                                                                      XXXX++OOOOOOO",
"OOOOOOOOOXXXX                                                                                                      XXXX++OOOOOOO",
"OOOOOOOOOXXXX                                                                                                      XXXX++OOOOOOO",
"OOOOOOOOOXXXX                                                                                                      XXXX++OOOOOOO",
"OOOOOOOOOXXXX                                                                                                      XXXX++OOOOOOO",
"OOOOOOOOOXXXX                                                                                                      XXXX++OOOOOOO",
"OOOOOOOOOXXXX                                                                                                      XXXX++OOOOOOO",
"OOOOOOOOOXXXX                                                                                                      XXXX++OOOOOOO",
"OOOOOOOOOXXXX                                                                                                      XXXX++OOOOOOO",
"OOOOOOOOOXXXX                                                                                                      XXXX++OOOOOOO",
"OOOOOOOOOXXXX                                                                                                      XXXX++OOOOOOO",
"OOOOOOOOOXXXX                                                                                                      XXXX++OOOOOOO",
"OOO++ooOOXXXX                                                                                                      XXXX++OO++ooO",
"OOO++ooOOXXXX                                                                                                      XXXX++OO++ooO",
"OOOooXXOOXXXX                                                                                                      XXXX++OOooXXO",
"OOOooXXOOXXXX                                                                                                      XXXX++OOooXXO",
"OOOOOOOOOXXXX                                                                                                      XXXX++OOOOOOO",
"OOOOOOOOOXXXX                                                                                                      XXXX++OOOOOOO",
"XXXXXXXXXXXXX                                                                                                      XXXXXXXXXXXXX",
"XXXXXXXXXXXXX                                                                                                      XXXXXXXXXXXXX",
"+++++++++XXXX                                                                                                      XXXX+++++++++",
"+++++++++XXXX                                                                                                      XXXX+++++++++",
"OOOOOOOOOXXXX                                                                                                      XXXXOOOOOOOOO",
"OOOOOOOOOXXXX                                                                                                      XXXXOOOOOOOOO",
"OOOOOOOOOXXXX                                                                                                      XXXXOOOOOOOOO",
"OOOOOOOOOXXXX                                                                                                      XXXXOOOOOOOOO",
"OOOOOOOOOXXXX                                                                                                      XXXXOOOOOOOOO",
"OOOOOOOOOXXXX                                                                                                      XXXXOOOOOOOOO",
"OOOOOOOOOXXXX                                                                                                      XXXXOOOOOOOOO",
"OOOOOOOOOXXXX                                                                                                      XXXXOOOOOOOOO",
"OOOOOOOOOXXXX                                                                                                      XXXXOOOOOOOOO",
"OOOOOOOOOXXXX                                                                                                      XXXXOOOOOOOOO",
"OOOOOOOOOXXXX                                                                                                      XXXXOOOOOOOOO",
"OOOOOOOOOXXXX                                                                                                      XXXXOOOOOOOOO",
"XXXXXXXXXXXXX                                                                                                      XXXXXXXXXXXXX",
"XXXXXXXXXXXXX                                                                                                      XXXXXXXXXXXXX"
};
