/* XPM */
static char *_08eb4d4291141d28ae5433a12621f5fHudMGPLivQBYjjrO[] = {
/* columns rows colors chars-per-pixel */
"128 128 8 1 ",
"  c None",
". c #000008",
"X c gray20",
"o c #434343",
"O c #535353",
"+ c #777777",
"@ c #7FB717",
"# c gray53",
/* pixels */
"+++++++++                                                                                                              +++++++++",
"+++++++++                                                                                                              +++++++++",
"OOOOOOOXX                                                                                                              XXOOOOOOO",
"OOOOOOOXX                                                                                                              XXOOOOOOO",
"OOOOOOOXX                                                                                                              XXOOOOOOO",
"OOOOOOOXX                                                                                                              XXOOOOOOO",
"XXXXXXXXX                                                                                                              XXXXXXXXX",
"XXXXXXXXX                                                                                                              XXXXXXXXX",
"+++++XXXX                                                                                                              XXXX##+++",
"+++++XXXX                                                                                                              XXXX##+++",
"OOOOOXXXX                                                                                                              XXXX++OOO",
"OOOOOXXXX                                                                                                              XXXX++OOO",
"+ooOOXXXX                                                                                                              XXXX++OO+",
"+ooOOXXXX                                                                                                              XXXX++OO+",
"oXXOOXXXX                                                                                                              XXXX++OOo",
"oXXOOXXXX                                                                                                              XXXX++OOo",
"OOOOOXXXX                                                                                                              XXXX++OOO",
"OOOOOXXXX                                                                                                              XXXX++OOO",
"OOOOOXXXX                                                                                                              XXXX++OOO",
"OOOOOXXXX                                                                                                              XXXX++OOO",
"OOOOOXXXX                                                                                                              XXXX++OOO",
"OOOOOXXXX                                                                                                              XXXX++OOO",
"OOOOOXXXX                                                                                                              XXXX++OOO",
"OOOOOXXXX                                                                                                              XXXX++OOO",
"OOOOOXXXX                                                                                                              XXXX++OOO",
"OOOOOXXXX                                                                                                              XXXX++OOO",
"OOOOOXXXX                                                                                                              XXXX++OOO",
"OOOOOXXXX                                                                                                              XXXX++OOO",
"OOOOOXXXX                                                                                                              XXXX++OOO",
"OOOOOXXXX                                                                                                              XXXX++OOO",
"OOOOOXXXX                                                                                                              XXXX++OOO",
"OOOOOXXXX                                                                                                              XXXX++OOO",
"OOOOOXXXX                                                                                                              XXXX++OOO",
"OOOOOXXXX                                                                                                              XXXX++OOO",
"OOOOOXXXX                                                                                                              XXXX++OOO",
"OOOOOXXXX                                                                                                              XXXX++OOO",
"OOOOOXXXX                                                                                                              XXXX++OOO",
"OOOOOXXXX                                                                                                              XXXX++OOO",
"OOOOOXXXX                                                                                                              XXXX++OOO",
"OOOOOXXXX                                                                                                              XXXX++OOO",
"OOOOOXXXX                                                                                                              XXXX++OOO",
"OOOOOXXXX                                                                                                              XXXX++OOO",
"OOOOOXXXX                                                                                                              XXXX++OOO",
"OOOOOXXXX                                                                                                              XXXX++OOO",
"+ooOOXXXX                                                                                                              XXXX++OO+",
"+ooOOXXXX                                                                                                              XXXX++OO+",
"oXXOOXXXX                                                                                                              XXXX++OOo",
"oXXOOXXXX                                                                                                              XXXX++OOo",
"OOOOOXXXX                                                                                                              XXXX++OOO",
"OOOOOXXXX                                                                                                              XXXX++OOO",
"XXXXXXXXX                                                                                                              XXXXXXXXX",
"XXXXXXXXX                                                                                                              XXXXXXXXX",
"+++++XXXX                                                                                                              XX##+++++",
"+++++XXXX                                                                                                              XX##+++++",
"OOOOOXXXX                                                                                                              XX++OOOOO",
"OOOOOXXXX                                                                                                              XX++OOOOO",
"OOOOOXXXX                                                                                                              XX++OOOOO",
"OOOOOXXXX                                                                                                              XX++OOOOO",
"OOOOOXXXX                                                                                                              XX++OOOOO",
"OOOOOXXXX                                                                                                              XX++OOOOO",
"@@@@@XXXX                                                                                                              XX++@@@@@",
"@@@@@XXXX                                                                                                              XX++@@@@@",
"@@@@@XXXX                                                                                                              XX++@@@@@",
"@@@@@XXXX                                                                                                              XX++@@@@@",
"OOOOOXXXX                                                                                                              XX++OOOOO",
"OOOOOXXXX                                                                                                              XX++OOOOO",
"OXXXXXXXX                                                                                                              XX++XXXXO",
"OXXXXXXXX                                                                                                              XX++XXXXO",
"O....XXXX                                                                                                              XX++....O",
"O....XXXX                                                                                                              XX++....O",
"O....XXXX                                                                                                              XX++....O",
"O....XXXX                                                                                                              XX++....O",
"O....XXXX                                                                                                              XX++....O",
"O....XXXX                                                                                                              XX++....O",
"O....XXXX                                                                                                              XX++....O",
"O....XXXX                                                                                                              XX++....O",
"OOOOOXXXX                                                                                                              XX++OOOOO",
"OOOOOXXXX                                                                                                              XX++OOOOO",
"XXXXXXXXX                                                                                                              XXXXXXXXX",
"XXXXXXXXX                                                                                                              XXXXXXXXX",
"XXXXXXXXX                                                                                                              XXXXXXXXX",
"XXXXXXXXX                                                                                                              XXXXXXXXX",
"XXXXXXXXX                                                                                                              XXXXXXXXX",
"XXXXXXXXX                                                                                                              XXXXXXXXX",
"+++++XXXX                                                                                                              XXXX##+++",
"+++++XXXX                                                                                                              XXXX##+++",
"OOOOOXXXX                                                                                                              XXXX++OOO",
"OOOOOXXXX                                                                                                              XXXX++OOO",
"+ooOOXXXX                                                                                                              XXXX++OO+",
"+ooOOXXXX                                                                                                              XXXX++OO+",
"oXXOOXXXX                                                                                                              XXXX++OOo",
"oXXOOXXXX                                                                                                              XXXX++OOo",
"OOOOOXXXX                                                                                                              XXXX++OOO",
"OOOOOXXXX                                                                                                              XXXX++OOO",
"OOOOOXXXX                                                                                                              XXXX++OOO",
"OOOOOXXXX                                                                                                              XXXX++OOO",
"OOOOOXXXX                                                                                                              XXXX++OOO",
"OOOOOXXXX                                                                                                              XXXX++OOO",
"OOOOOXXXX                                                                                                              XXXX++OOO",
"OOOOOXXXX                                                                                                              XXXX++OOO",
"OOOOOXXXX                                                                                                              XXXX++OOO",
"OOOOOXXXX                                                                                                              XXXX++OOO",
"OOOOOXXXX                                                                                                              XXXX++OOO",
"OOOOOXXXX                                                                                                              XXXX++OOO",
"+ooOOXXXX                                                                                                              XXXX++OO+",
"+ooOOXXXX                                                                                                              XXXX++OO+",
"oXXOOXXXX                                                                                                              XXXX++OOo",
"oXXOOXXXX                                                                                                              XXXX++OOo",
"OOOOOXXXX                                                                                                              XXXX++OOO",
"OOOOOXXXX                                                                                                              XXXX++OOO",
"XXXXXXXXX                                                                                                              XXXXXXXXX",
"XXXXXXXXX                                                                                                              XXXXXXXXX",
"+++++XXXX                                                                                                              XXXX+++++",
"+++++XXXX                                                                                                              XXXX+++++",
"OOOOOXXXX                                                                                                              XXXXOOOOO",
"OOOOOXXXX                                                                                                              XXXXOOOOO",
"OOOOOXXXX                                                                                                              XXXXOOOOO",
"OOOOOXXXX                                                                                                              XXXXOOOOO",
"OOOOOXXXX                                                                                                              XXXXOOOOO",
"OOOOOXXXX                                                                                                              XXXXOOOOO",
"OOOOOXXXX                                                                                                              XXXXOOOOO",
"OOOOOXXXX                                                                                                              XXXXOOOOO",
"OOOOOXXXX                                                                                                              XXXXOOOOO",
"OOOOOXXXX                                                                                                              XXXXOOOOO",
"OOOOOXXXX                                                                                                              XXXXOOOOO",
"OOOOOXXXX                                                                                                              XXXXOOOOO",
"XXXXXXXXX                                                                                                              XXXXXXXXX",
"XXXXXXXXX                                                                                                              XXXXXXXXX"
};
