/* XPM */
static char *f62328caed804e76bcc8b81fd4eb19a8gfij4dj87BQAeJsB[] = {
/* columns rows colors chars-per-pixel */
"128 128 8 1 ",
"  c None",
". c #000008",
"X c gray20",
"o c #434343",
"O c #535353",
"+ c #777777",
"@ c #7FB717",
"# c gray53",
/* pixels */
"+++++++++++++++++                                                                                              +++++++++++++++++",
"+++++++++++++++++                                                                                              +++++++++++++++++",
"OOOOOOOOOOOOOOOXX                                                                                              XXOOOOOOOOOOOOOOO",
"OOOOOOOOOOOOOOOXX                                                                                              XXOOOOOOOOOOOOOOO",
"OOOOOOOOOOOOOOOXX                                                                                              XXOOOOOOOOOOOOOOO",
"OOOOOOOOOOOOOOOXX                                                                                              XXOOOOOOOOOOOOOOO",
"XXXXXXXXXXXXXXXXX                                                                                              XXXXXXXXXXXXXXXXX",
"XXXXXXXXXXXXXXXXX                                                                                              XXXXXXXXXXXXXXXXX",
"+++++++++++++XXXX                                                                                              XXXX##+++++++++++",
"+++++++++++++XXXX                                                                                              XXXX##+++++++++++",
"OOOOOOOOOOOOOXXXX                                                                                              XXXX++OOOOOOOOOOO",
"OOOOOOOOOOOOOXXXX                                                                                              XXXX++OOOOOOOOOOO",
"OOOOOOO++ooOOXXXX                                                                                              XXXX++OO++ooOOOOO",
"OOOOOOO++ooOOXXXX                                                                                              XXXX++OO++ooOOOOO",
"OOOOOOOooXXOOXXXX                                                                                              XXXX++OOooXXOOOOO",
"OOOOOOOooXXOOXXXX                                                                                              XXXX++OOooXXOOOOO",
"OOOOOOOOOOOOOXXXX                                                                                              XXXX++OOOOOOOOOOO",
"OOOOOOOOOOOOOXXXX                                                                                              XXXX++OOOOOOOOOOO",
"OOOOOOOOOOOOOXXXX                                                                                              XXXX++OOOOOOOOOOO",
"OOOOOOOOOOOOOXXXX                                                                                              XXXX++OOOOOOOOOOO",
"OOOOOOOOOOOOOXXXX                                                                                              XXXX++OOOOOOOOOOO",
"OOOOOOOOOOOOOXXXX                                                                                              XXXX++OOOOOOOOOOO",
"OOOOOOOOOOOOOXXXX                                                                                              XXXX++OOOOOOOOOOO",
"OOOOOOOOOOOOOXXXX                                                                                              XXXX++OOOOOOOOOOO",
"OOOOOOOOOOOOOXXXX                                                                                              XXXX++OOOOOOOOOOO",
"OOOOOOOOOOOOOXXXX                                                                                              XXXX++OOOOOOOOOOO",
"OOOOOOOOOOOOOXXXX                                                                                              XXXX++OOOOOOOOOOO",
"OOOOOOOOOOOOOXXXX                                                                                              XXXX++OOOOOOOOOOO",
"OOOOOOOOOOOOOXXXX                                                                                              XXXX++OOOOOOOOOOO",
"OOOOOOOOOOOOOXXXX                                                                                              XXXX++OOOOOOOOOOO",
"OOOOOOOOOOOOOXXXX                                                                                              XXXX++OOOOOOOOOOO",
"OOOOOOOOOOOOOXXXX                                                                                              XXXX++OOOOOOOOOOO",
"OOOOOOOOOOOOOXXXX                                                                                              XXXX++OOOOOOOOOOO",
"OOOOOOOOOOOOOXXXX                                                                                              XXXX++OOOOOOOOOOO",
"OOOOOOOOOOOOOXXXX                                                                                              XXXX++OOOOOOOOOOO",
"OOOOOOOOOOOOOXXXX                                                                                              XXXX++OOOOOOOOOOO",
"OOOOOOOOOOOOOXXXX                                                                                              XXXX++OOOOOOOOOOO",
"OOOOOOOOOOOOOXXXX                                                                                              XXXX++OOOOOOOOOOO",
"OOOOOOOOOOOOOXXXX                                                                                              XXXX++OOOOOOOOOOO",
"OOOOOOOOOOOOOXXXX                                                                                              XXXX++OOOOOOOOOOO",
"OOOOOOOOOOOOOXXXX                                                                                              XXXX++OOOOOOOOOOO",
"OOOOOOOOOOOOOXXXX                                                                                              XXXX++OOOOOOOOOOO",
"OOOOOOOOOOOOOXXXX                                                                                              XXXX++OOOOOOOOOOO",
"OOOOOOOOOOOOOXXXX                                                                                              XXXX++OOOOOOOOOOO",
"OOOOOOO++ooOOXXXX                                                                                              XXXX++OO++ooOOOOO",
"OOOOOOO++ooOOXXXX                                                                                              XXXX++OO++ooOOOOO",
"OOOOOOOooXXOOXXXX                                                                                              XXXX++OOooXXOOOOO",
"OOOOOOOooXXOOXXXX                                                                                              XXXX++OOooXXOOOOO",
"OOOOOOOOOOOOOXXXX                                                                                              XXXX++OOOOOOOOOOO",
"OOOOOOOOOOOOOXXXX                                                                                              XXXX++OOOOOOOOOOO",
"XXXXXXXXXXXXXXXXX                                                                                              XXXXXXXXXXXXXXXXX",
"XXXXXXXXXXXXXXXXX                                                                                              XXXXXXXXXXXXXXXXX",
"+++XX##++++++XXXX                                                                                              XX##++++++XXXX##+",
"+++XX##++++++XXXX                                                                                              XX##++++++XXXX##+",
"OOOXX++OOOOOOXXXX                                                                                              XX++OOOOOOXXXX++O",
"OOOXX++OOOOOOXXXX                                                                                              XX++OOOOOOXXXX++O",
"oOOXX++OOOOOOXXXX                                                                                              XX++OOOOOOXXXX++O",
"oOOXX++OOOOOOXXXX                                                                                              XX++OOOOOOXXXX++O",
"XOOXX++OOOOOOXXXX                                                                                              XX++OOOOOOXXXX++O",
"XOOXX++OOOOOOXXXX                                                                                              XX++OOOOOOXXXX++O",
"OOOXX++@@@@@@XXXX                                                                                              XX++@@@@@@XXXX++O",
"OOOXX++@@@@@@XXXX                                                                                              XX++@@@@@@XXXX++O",
"OOOXX++@@@@@@XXXX                                                                                              XX++@@@@@@XXXX++O",
"OOOXX++@@@@@@XXXX                                                                                              XX++@@@@@@XXXX++O",
"OOOXX++OOOOOOXXXX                                                                                              XX++OOOOOOXXXX++O",
"OOOXX++OOOOOOXXXX                                                                                              XX++OOOOOOXXXX++O",
"OOOXX++OOXXXXXXXX                                                                                              XX++XXXXOOXXXX++O",
"OOOXX++OOXXXXXXXX                                                                                              XX++XXXXOOXXXX++O",
"OOOXX++OO....XXXX                                                                                              XX++....OOXXXX++O",
"OOOXX++OO....XXXX                                                                                              XX++....OOXXXX++O",
"OOOXX++OO....XXXX                                                                                              XX++....OOXXXX++O",
"OOOXX++OO....XXXX                                                                                              XX++....OOXXXX++O",
"OOOXX++OO....XXXX                                                                                              XX++....OOXXXX++O",
"OOOXX++OO....XXXX                                                                                              XX++....OOXXXX++O",
"OOOXX++OO....XXXX                                                                                              XX++....OOXXXX++O",
"OOOXX++OO....XXXX                                                                                              XX++....OOXXXX++O",
"oOOXX++OOOOOOXXXX                                                                                              XX++OOOOOOXXXX++O",
"oOOXX++OOOOOOXXXX                                                                                              XX++OOOOOOXXXX++O",
"XOOXXXXXXXXXXXXXX                                                                                              XXXXXXXXXXXXXX++O",
"XOOXXXXXXXXXXXXXX                                                                                              XXXXXXXXXXXXXX++O",
"OOOXXXXXXXXXXXXXX                                                                                              XXXXXXXXXXXXXX++O",
"OOOXXXXXXXXXXXXXX                                                                                              XXXXXXXXXXXXXX++O",
"XXXXXXXXXXXXXXXXX                                                                                              XXXXXXXXXXXXXXXXX",
"XXXXXXXXXXXXXXXXX                                                                                              XXXXXXXXXXXXXXXXX",
"+++++++++++++XXXX                                                                                              XXXX##+++++++++++",
"+++++++++++++XXXX                                                                                              XXXX##+++++++++++",
"OOOOOOOOOOOOOXXXX                                                                                              XXXX++OOOOOOOOOOO",
"OOOOOOOOOOOOOXXXX                                                                                              XXXX++OOOOOOOOOOO",
"OOOOOOO++ooOOXXXX                                                                                              XXXX++OO++ooOOOOO",
"OOOOOOO++ooOOXXXX                                                                                              XXXX++OO++ooOOOOO",
"OOOOOOOooXXOOXXXX                                                                                              XXXX++OOooXXOOOOO",
"OOOOOOOooXXOOXXXX                                                                                              XXXX++OOooXXOOOOO",
"OOOOOOOOOOOOOXXXX                                                                                              XXXX++OOOOOOOOOOO",
"OOOOOOOOOOOOOXXXX                                                                                              XXXX++OOOOOOOOOOO",
"OOOOOOOOOOOOOXXXX                                                                                              XXXX++OOOOOOOOOOO",
"OOOOOOOOOOOOOXXXX                                                                                              XXXX++OOOOOOOOOOO",
"OOOOOOOOOOOOOXXXX                                                                                              XXXX++OOOOOOOOOOO",
"OOOOOOOOOOOOOXXXX                                                                                              XXXX++OOOOOOOOOOO",
"OOOOOOOOOOOOOXXXX                                                                                              XXXX++OOOOOOOOOOO",
"OOOOOOOOOOOOOXXXX                                                                                              XXXX++OOOOOOOOOOO",
"OOOOOOOOOOOOOXXXX                                                                                              XXXX++OOOOOOOOOOO",
"OOOOOOOOOOOOOXXXX                                                                                              XXXX++OOOOOOOOOOO",
"OOOOOOOOOOOOOXXXX                                                                                              XXXX++OOOOOOOOOOO",
"OOOOOOOOOOOOOXXXX                                                                                              XXXX++OOOOOOOOOOO",
"OOOOOOO++ooOOXXXX                                                                                              XXXX++OO++ooOOOOO",
"OOOOOOO++ooOOXXXX                                                                                              XXXX++OO++ooOOOOO",
"OOOOOOOooXXOOXXXX                                                                                              XXXX++OOooXXOOOOO",
"OOOOOOOooXXOOXXXX                                                                                              XXXX++OOooXXOOOOO",
"OOOOOOOOOOOOOXXXX                                                                                              XXXX++OOOOOOOOOOO",
"OOOOOOOOOOOOOXXXX                                                                                              XXXX++OOOOOOOOOOO",
"XXXXXXXXXXXXXXXXX                                                                                              XXXXXXXXXXXXXXXXX",
"XXXXXXXXXXXXXXXXX                                                                                              XXXXXXXXXXXXXXXXX",
"+++++++++++++XXXX                                                                                              XXXX+++++++++++++",
"+++++++++++++XXXX                                                                                              XXXX+++++++++++++",
"OOOOOOOOOOOOOXXXX                                                                                              XXXXOOOOOOOOOOOOO",
"OOOOOOOOOOOOOXXXX                                                                                              XXXXOOOOOOOOOOOOO",
"OOOOOOOOOOOOOXXXX                                                                                              XXXXOOOOOOOOOOOOO",
"OOOOOOOOOOOOOXXXX                                                                                              XXXXOOOOOOOOOOOOO",
"OOOOOOOOOOOOOXXXX                                                                                              XXXXOOOOOOOOOOOOO",
"OOOOOOOOOOOOOXXXX                                                                                              XXXXOOOOOOOOOOOOO",
"OOOOOOOOOOOOOXXXX                                                                                              XXXXOOOOOOOOOOOOO",
"OOOOOOOOOOOOOXXXX                                                                                              XXXXOOOOOOOOOOOOO",
"OOOOOOOOOOOOOXXXX                                                                                              XXXXOOOOOOOOOOOOO",
"OOOOOOOOOOOOOXXXX                                                                                              XXXXOOOOOOOOOOOOO",
"OOOOOOOOOOOOOXXXX                                                                                              XXXXOOOOOOOOOOOOO",
"OOOOOOOOOOOOOXXXX                                                                                              XXXXOOOOOOOOOOOOO",
"XXXXXXXXXXXXXXXXX                                                                                              XXXXXXXXXXXXXXXXX",
"XXXXXXXXXXXXXXXXX                                                                                              XXXXXXXXXXXXXXXXX"
};
