/* XPM */
static char *_ba6115052214a36f767d265d25764afktRXoh6eOZugidB7[] = {
/* columns rows colors chars-per-pixel */
"128 128 8 1 ",
"  c None",
". c #000008",
"X c gray20",
"o c #434343",
"O c #535353",
"+ c #777777",
"@ c #7FB717",
"# c gray53",
/* pixels */
"++++++++++++++                                                                                                    ++++++++++++++",
"++++++++++++++                                                                                                    ++++++++++++++",
"OOOOOOOOOOOOXX                                                                                                    XXOOOOOOOOOOOO",
"OOOOOOOOOOOOXX                                                                                                    XXOOOOOOOOOOOO",
"OOOOOOOOOOOOXX                                                                                                    XXOOOOOOOOOOOO",
"OOOOOOOOOOOOXX                                                                                                    XXOOOOOOOOOOOO",
"XXXXXXXXXXXXXX                                                                                                    XXXXXXXXXXXXXX",
"XXXXXXXXXXXXXX                                                                                                    XXXXXXXXXXXXXX",
"++++++++++XXXX                                                                                                    XXXX##++++++++",
"++++++++++XXXX                                                                                                    XXXX##++++++++",
"OOOOOOOOOOXXXX                                                                                                    XXXX++OOOOOOOO",
"OOOOOOOOOOXXXX                                                                                                    XXXX++OOOOOOOO",
"OOOO++ooOOXXXX                                                                                                    XXXX++OO++ooOO",
"OOOO++ooOOXXXX                                                                                                    XXXX++OO++ooOO",
"OOOOooXXOOXXXX                                                                                                    XXXX++OOooXXOO",
"OOOOooXXOOXXXX                                                                                                    XXXX++OOooXXOO",
"OOOOOOOOOOXXXX                                                                                                    XXXX++OOOOOOOO",
"OOOOOOOOOOXXXX                                                                                                    XXXX++OOOOOOOO",
"OOOOOOOOOOXXXX                                                                                                    XXXX++OOOOOOOO",
"OOOOOOOOOOXXXX                                                                                                    XXXX++OOOOOOOO",
"OOOOOOOOOOXXXX                                                                                                    XXXX++OOOOOOOO",
"OOOOOOOOOOXXXX                                                                                                    XXXX++OOOOOOOO",
"OOOOOOOOOOXXXX                                                                                                    XXXX++OOOOOOOO",
"OOOOOOOOOOXXXX                                                                                                    XXXX++OOOOOOOO",
"OOOOOOOOOOXXXX                                                                                                    XXXX++OOOOOOOO",
"OOOOOOOOOOXXXX                                                                                                    XXXX++OOOOOOOO",
"OOOOOOOOOOXXXX                                                                                                    XXXX++OOOOOOOO",
"OOOOOOOOOOXXXX                                                                                                    XXXX++OOOOOOOO",
"OOOOOOOOOOXXXX                                                                                                    XXXX++OOOOOOOO",
"OOOOOOOOOOXXXX                                                                                                    XXXX++OOOOOOOO",
"OOOOOOOOOOXXXX                                                                                                    XXXX++OOOOOOOO",
"OOOOOOOOOOXXXX                                                                                                    XXXX++OOOOOOOO",
"OOOOOOOOOOXXXX                                                                                                    XXXX++OOOOOOOO",
"OOOOOOOOOOXXXX                                                                                                    XXXX++OOOOOOOO",
"OOOOOOOOOOXXXX                                                                                                    XXXX++OOOOOOOO",
"OOOOOOOOOOXXXX                                                                                                    XXXX++OOOOOOOO",
"OOOOOOOOOOXXXX                                                                                                    XXXX++OOOOOOOO",
"OOOOOOOOOOXXXX                                                                                                    XXXX++OOOOOOOO",
"OOOOOOOOOOXXXX                                                                                                    XXXX++OOOOOOOO",
"OOOOOOOOOOXXXX                                                                                                    XXXX++OOOOOOOO",
"OOOOOOOOOOXXXX                                                                                                    XXXX++OOOOOOOO",
"OOOOOOOOOOXXXX                                                                                                    XXXX++OOOOOOOO",
"OOOOOOOOOOXXXX                                                                                                    XXXX++OOOOOOOO",
"OOOOOOOOOOXXXX                                                                                                    XXXX++OOOOOOOO",
"OOOO++ooOOXXXX                                                                                                    XXXX++OO++ooOO",
"OOOO++ooOOXXXX                                                                                                    XXXX++OO++ooOO",
"OOOOooXXOOXXXX                                                                                                    XXXX++OOooXXOO",
"OOOOooXXOOXXXX                                                                                                    XXXX++OOooXXOO",
"OOOOOOOOOOXXXX                                                                                                    XXXX++OOOOOOOO",
"OOOOOOOOOOXXXX                                                                                                    XXXX++OOOOOOOO",
"XXXXXXXXXXXXXX                                                                                                    XXXXXXXXXXXXXX",
"XXXXXXXXXXXXXX                                                                                                    XXXXXXXXXXXXXX",
"XX##++++++XXXX                                                                                                    XX##++++++XXXX",
"XX##++++++XXXX                                                                                                    XX##++++++XXXX",
"XX++OOOOOOXXXX                                                                                                    XX++OOOOOOXXXX",
"XX++OOOOOOXXXX                                                                                                    XX++OOOOOOXXXX",
"XX++OOOOOOXXXX                                                                                                    XX++OOOOOOXXXX",
"XX++OOOOOOXXXX                                                                                                    XX++OOOOOOXXXX",
"XX++OOOOOOXXXX                                                                                                    XX++OOOOOOXXXX",
"XX++OOOOOOXXXX                                                                                                    XX++OOOOOOXXXX",
"XX++@@@@@@XXXX                                                                                                    XX++@@@@@@XXXX",
"XX++@@@@@@XXXX                                                                                                    XX++@@@@@@XXXX",
"XX++@@@@@@XXXX                                                                                                    XX++@@@@@@XXXX",
"XX++@@@@@@XXXX                                                                                                    XX++@@@@@@XXXX",
"XX++OOOOOOXXXX                                                                                                    XX++OOOOOOXXXX",
"XX++OOOOOOXXXX                                                                                                    XX++OOOOOOXXXX",
"XX++OOXXXXXXXX                                                                                                    XX++XXXXOOXXXX",
"XX++OOXXXXXXXX                                                                                                    XX++XXXXOOXXXX",
"XX++OO....XXXX                                                                                                    XX++....OOXXXX",
"XX++OO....XXXX                                                                                                    XX++....OOXXXX",
"XX++OO....XXXX                                                                                                    XX++....OOXXXX",
"XX++OO....XXXX                                                                                                    XX++....OOXXXX",
"XX++OO....XXXX                                                                                                    XX++....OOXXXX",
"XX++OO....XXXX                                                                                                    XX++....OOXXXX",
"XX++OO....XXXX                                                                                                    XX++....OOXXXX",
"XX++OO....XXXX                                                                                                    XX++....OOXXXX",
"XX++OOOOOOXXXX                                                                                                    XX++OOOOOOXXXX",
"XX++OOOOOOXXXX                                                                                                    XX++OOOOOOXXXX",
"XXXXXXXXXXXXXX                                                                                                    XXXXXXXXXXXXXX",
"XXXXXXXXXXXXXX                                                                                                    XXXXXXXXXXXXXX",
"XXXXXXXXXXXXXX                                                                                                    XXXXXXXXXXXXXX",
"XXXXXXXXXXXXXX                                                                                                    XXXXXXXXXXXXXX",
"XXXXXXXXXXXXXX                                                                                                    XXXXXXXXXXXXXX",
"XXXXXXXXXXXXXX                                                                                                    XXXXXXXXXXXXXX",
"++++++++++XXXX                                                                                                    XXXX##++++++++",
"++++++++++XXXX                                                                                                    XXXX##++++++++",
"OOOOOOOOOOXXXX                                                                                                    XXXX++OOOOOOOO",
"OOOOOOOOOOXXXX                                                                                                    XXXX++OOOOOOOO",
"OOOO++ooOOXXXX                                                                                                    XXXX++OO++ooOO",
"OOOO++ooOOXXXX                                                                                                    XXXX++OO++ooOO",
"OOOOooXXOOXXXX                                                                                                    XXXX++OOooXXOO",
"OOOOooXXOOXXXX                                                                                                    XXXX++OOooXXOO",
"OOOOOOOOOOXXXX                                                                                                    XXXX++OOOOOOOO",
"OOOOOOOOOOXXXX                                                                                                    XXXX++OOOOOOOO",
"OOOOOOOOOOXXXX                                                                                                    XXXX++OOOOOOOO",
"OOOOOOOOOOXXXX                                                                                                    XXXX++OOOOOOOO",
"OOOOOOOOOOXXXX                                                                                                    XXXX++OOOOOOOO",
"OOOOOOOOOOXXXX                                                                                                    XXXX++OOOOOOOO",
"OOOOOOOOOOXXXX                                                                                                    XXXX++OOOOOOOO",
"OOOOOOOOOOXXXX                                                                                                    XXXX++OOOOOOOO",
"OOOOOOOOOOXXXX                                                                                                    XXXX++OOOOOOOO",
"OOOOOOOOOOXXXX                                                                                                    XXXX++OOOOOOOO",
"OOOOOOOOOOXXXX                                                                                                    XXXX++OOOOOOOO",
"OOOOOOOOOOXXXX                                                                                                    XXXX++OOOOOOOO",
"OOOO++ooOOXXXX                                                                                                    XXXX++OO++ooOO",
"OOOO++ooOOXXXX                                                                                                    XXXX++OO++ooOO",
"OOOOooXXOOXXXX                                                                                                    XXXX++OOooXXOO",
"OOOOooXXOOXXXX                                                                                                    XXXX++OOooXXOO",
"OOOOOOOOOOXXXX                                                                                                    XXXX++OOOOOOOO",
"OOOOOOOOOOXXXX                                                                                                    XXXX++OOOOOOOO",
"XXXXXXXXXXXXXX                                                                                                    XXXXXXXXXXXXXX",
"XXXXXXXXXXXXXX                                                                                                    XXXXXXXXXXXXXX",
"++++++++++XXXX                                                                                                    XXXX++++++++++",
"++++++++++XXXX                                                                                                    XXXX++++++++++",
"OOOOOOOOOOXXXX                                                                                                    XXXXOOOOOOOOOO",
"OOOOOOOOOOXXXX                                                                                                    XXXXOOOOOOOOOO",
"OOOOOOOOOOXXXX                                                                                                    XXXXOOOOOOOOOO",
"OOOOOOOOOOXXXX                                                                                                    XXXXOOOOOOOOOO",
"OOOOOOOOOOXXXX                                                                                                    XXXXOOOOOOOOOO",
"OOOOOOOOOOXXXX                                                                                                    XXXXOOOOOOOOOO",
"OOOOOOOOOOXXXX                                                                                                    XXXXOOOOOOOOOO",
"OOOOOOOOOOXXXX                                                                                                    XXXXOOOOOOOOOO",
"OOOOOOOOOOXXXX                                                                                                    XXXXOOOOOOOOOO",
"OOOOOOOOOOXXXX                                                                                                    XXXXOOOOOOOOOO",
"OOOOOOOOOOXXXX                                                                                                    XXXXOOOOOOOOOO",
"OOOOOOOOOOXXXX                                                                                                    XXXXOOOOOOOOOO",
"XXXXXXXXXXXXXX                                                                                                    XXXXXXXXXXXXXX",
"XXXXXXXXXXXXXX                                                                                                    XXXXXXXXXXXXXX"
};
