/* XPM */
static char *_eacf00dfca44179c4b1a728bc1a7789veC5yjAUg3vDtxSp[] = {
/* columns rows colors chars-per-pixel */
"128 128 11 1 ",
"  c None",
". c #000008",
"X c gray20",
"o c #434343",
"O c #535353",
"+ c #777777",
"@ c #5F9B00",
"# c #7FB717",
"$ c #A3D337",
"% c #C7EF63",
"& c gray53",
/* pixels */
"+++++++++++++++++++++++++++++++++++++                                                      +++++++++++++++++++++++++++++++++++++",
"+++++++++++++++++++++++++++++++++++++                                                      +++++++++++++++++++++++++++++++++++++",
"OOOOOOOOOOOOOOOOOOOOOOOOOOOOOOOOOOOXX                                                      XXOOOOOOOOOOOOOOOOOOOOOOOOOOOOOOOOOOO",
"OOOOOOOOOOOOOOOOOOOOOOOOOOOOOOOOOOOXX                                                      XXOOOOOOOOOOOOOOOOOOOOOOOOOOOOOOOOOOO",
"OOOOOOOOOOOOOOOOOOOOOOOOOOOOOOOOOOOXX                                                      XXOOOOOOOOOOOOOOOOOOOOOOOOOOOOOOOOOOO",
"OOOOOOOOOOOOOOOOOOOOOOOOOOOOOOOOOOOXX                                                      XXOOOOOOOOOOOOOOOOOOOOOOOOOOOOOOOOOOO",
"XXXXXXXXXXXXXXXXXXXXXXXXXXXXXXXXXXXXX                                                      XXXXXXXXXXXXXXXXXXXXXXXXXXXXXXXXXXXXX",
"XXXXXXXXXXXXXXXXXXXXXXXXXXXXXXXXXXXXX                                                      XXXXXXXXXXXXXXXXXXXXXXXXXXXXXXXXXXXXX",
"+++++++++++++++++++++++++++++++++XXXX                                                      XXXX&&+++++++++++++++++++++++++++++++",
"+++++++++++++++++++++++++++++++++XXXX                                                      XXXX&&+++++++++++++++++++++++++++++++",
"OOOOOOOOOOOOOOOOOOOOOOOOOOOOOOOOOXXXX                                                      XXXX++OOOOOOOOOOOOOOOOOOOOOOOOOOOOOOO",
"OOOOOOOOOOOOOOOOOOOOOOOOOOOOOOOOOXXXX                                                      XXXX++OOOOOOOOOOOOOOOOOOOOOOOOOOOOOOO",
"OOOOOOOOOOOOOOOOOOOOOOOOOOO++ooOOXXXX                                                      XXXX++OO++ooOOOOOOOOOOOOOOOOOOOOOOOOO",
"OOOOOOOOOOOOOOOOOOOOOOOOOOO++ooOOXXXX                                                      XXXX++OO++ooOOOOOOOOOOOOOOOOOOOOOOOOO",
"OOOOOOOOOOOOOOOOOOOOOOOOOOOooXXOOXXXX                                                      XXXX++OOooXXOOOOOOOOOOOOOOOOOOOOOOOOO",
"OOOOOOOOOOOOOOOOOOOOOOOOOOOooXXOOXXXX                                                      XXXX++OOooXXOOOOOOOOOOOOOOOOOOOOOOOOO",
"OOOOOOOOOOOOOOOOOOOOOOOOOOOOOOOOOXXXX                                                      XXXX++OOOOOOOOOOOOOOOOOOOOOOOOOOOOOOO",
"OOOOOOOOOOOOOOOOOOOOOOOOOOOOOOOOOXXXX                                                      XXXX++OOOOOOOOOOOOOOOOOOOOOOOOOOOOOOO",
"OOOOOOOOOOOOOOOOOOOOOOOOOOOOOOOOOXXXX                                                      XXXX++OOOOOOOOOOOOOOOOOOOOOOOOOOOOOOO",
"OOOOOOOOOOOOOOOOOOOOOOOOOOOOOOOOOXXXX                                                      XXXX++OOOOOOOOOOOOOOOOOOOOOOOOOOOOOOO",
"OOOOOOOOOOOOOOOOOOOOOOOOOOOOOOOOOXXXX                                                      XXXX++OOOOOOOOOOOOOOOOOOOOOOOOOOOOOOO",
"OOOOOOOOOOOOOOOOOOOOOOOOOOOOOOOOOXXXX                                                      XXXX++OOOOOOOOOOOOOOOOOOOOOOOOOOOOOOO",
"OOOOOOOOOOOOOOOOOOOOOOOOOOOOOOOOOXXXX                                                      XXXX++OOOOOOOOOOOOOOOOOOOOOOOOOOOOOOO",
"OOOOOOOOOOOOOOOOOOOOOOOOOOOOOOOOOXXXX                                                      XXXX++OOOOOOOOOOOOOOOOOOOOOOOOOOOOOOO",
"OOOOOOOOOOOOOOOOOOOOOOOOOOOOOOOOOXXXX                                                      XXXX++OOOOOOOOOOOOOOOOOOOOOOOOOOOOOOO",
"OOOOOOOOOOOOOOOOOOOOOOOOOOOOOOOOOXXXX                                                      XXXX++OOOOOOOOOOOOOOOOOOOOOOOOOOOOOOO",
"OOOOOOOOOOOOOOOOOOOOOOOOOOOOOOOOOXXXX                                                      XXXX++OOOOOOOOOOOOOOOOOOOOOOOOOOOOOOO",
"OOOOOOOOOOOOOOOOOOOOOOOOOOOOOOOOOXXXX                                                      XXXX++OOOOOOOOOOOOOOOOOOOOOOOOOOOOOOO",
"OOOOOOOOOOOOOOOOOOOOOOOOOOOOOOOOOXXXX                                                      XXXX++OOOOOOOOOOOOOOOOOOOOOOOOOOOOOOO",
"OOOOOOOOOOOOOOOOOOOOOOOOOOOOOOOOOXXXX                                                      XXXX++OOOOOOOOOOOOOOOOOOOOOOOOOOOOOOO",
"OOOOOOOOOOOOOOOOOOOOOOOOOOOOOOOOOXXXX                                                      XXXX++OOOOOOOOOOOOOOOOOOOOOOOOOOOOOOO",
"OOOOOOOOOOOOOOOOOOOOOOOOOOOOOOOOOXXXX                                                      XXXX++OOOOOOOOOOOOOOOOOOOOOOOOOOOOOOO",
"OOOOOOOOOOOOOOOOOOOOOOOOOOOOOOOOOXXXX                                                      XXXX++OOOOOOOOOOOOOOOOOOOOOOOOOOOOOOO",
"OOOOOOOOOOOOOOOOOOOOOOOOOOOOOOOOOXXXX                                                      XXXX++OOOOOOOOOOOOOOOOOOOOOOOOOOOOOOO",
"OOOOOOOOOOOOOOOOOOOOOOOOOOOOOOOOOXXXX                                                      XXXX++OOOOOOOOOOOOOOOOOOOOOOOOOOOOOOO",
"OOOOOOOOOOOOOOOOOOOOOOOOOOOOOOOOOXXXX                                                      XXXX++OOOOOOOOOOOOOOOOOOOOOOOOOOOOOOO",
"OOOOOOOOOOOOOOOOOOOOOOOOOOOOOOOOOXXXX                                                      XXXX++OOOOOOOOOOOOOOOOOOOOOOOOOOOOOOO",
"OOOOOOOOOOOOOOOOOOOOOOOOOOOOOOOOOXXXX                                                      XXXX++OOOOOOOOOOOOOOOOOOOOOOOOOOOOOOO",
"OOOOOOOOOOOOOOOOOOOOOOOOOOOOOOOOOXXXX                                                      XXXX++OOOOOOOOOOOOOOOOOOOOOOOOOOOOOOO",
"OOOOOOOOOOOOOOOOOOOOOOOOOOOOOOOOOXXXX                                                      XXXX++OOOOOOOOOOOOOOOOOOOOOOOOOOOOOOO",
"OOOOOOOOOOOOOOOOOOOOOOOOOOOOOOOOOXXXX                                                      XXXX++OOOOOOOOOOOOOOOOOOOOOOOOOOOOOOO",
"OOOOOOOOOOOOOOOOOOOOOOOOOOOOOOOOOXXXX                                                      XXXX++OOOOOOOOOOOOOOOOOOOOOOOOOOOOOOO",
"OOOOOOOOOOOOOOOOOOOOOOOOOOOOOOOOOXXXX                                                      XXXX++OOOOOOOOOOOOOOOOOOOO+++++++++++",
"OOOOOOOOOOOOOOOOOOOOOOOOOOOOOOOOOXXXX                                                      XXXX++OOOOOOOOOOOOOOOOOOOO+++++++++++",
"OOOOOOOOOOOOOOOOOOOOOOOOOOO++ooOOXXXX                                                      XXXX++OO++ooOOOOOOOOOOOO++...........",
"OOOOOOOOOOOOOOOOOOOOOOOOOOO++ooOOXXXX                                                      XXXX++OO++ooOOOOOOOOOOOO++...........",
"OOOOOOOOOOOOOOOOOOOOOOOOOOOooXXOOXXXX                                                      XXXX++OOooXXOOOOOOOOOOOO++...........",
"OOOOOOOOOOOOOOOOOOOOOOOOOOOooXXOOXXXX                                                      XXXX++OOooXXOOOOOOOOOOOO++...........",
"OOOOOOOOOOOOOOOOOOOOOOOOOOOOOOOOOXXXX                                                      XXXX++OOOOOOOOOOOOOOOOOO++....%%$$$$#",
"OOOOOOOOOOOOOOOOOOOOOOOOOOOOOOOOOXXXX                                                      XXXX++OOOOOOOOOOOOOOOOOO++....%%$$$$#",
"XXXXXXXXXXXXXXXXXXXXXXXXXXXXXXXXXXXXX                                                      XXXXXXXXXXXXXXXXXXXXXXXX++....$$####@",
"XXXXXXXXXXXXXXXXXXXXXXXXXXXXXXXXXXXXX                                                      XXXXXXXXXXXXXXXXXXXXXXXX++....$$####@",
"+++++++++++++++++++++++XX&&++++++XXXX                                                      XX&&++++++XXXX&&++++++++++....$$####@",
"+++++++++++++++++++++++XX&&++++++XXXX                                                      XX&&++++++XXXX&&++++++++++....$$####@",
"OOOOOOOOOOOOOOOOOOOOOOOXX++OOOOOOXXXX                                                      XX++OOOOOOXXXX++OOOOOOOO++....$$####@",
"OOOOOOOOOOOOOOOOOOOOOOOXX++OOOOOOXXXX                                                      XX++OOOOOOXXXX++OOOOOOOO++....$$####@",
"OOOOOOOOOOOOOOOOO++ooOOXX++OOOOOOXXXX                                                      XX++OOOOOOXXXX++OO++ooOO++....##@@@@@",
"OOOOOOOOOOOOOOOOO++ooOOXX++OOOOOOXXXX                                                      XX++OOOOOOXXXX++OO++ooOO++....##@@@@@",
"OOOOOOOOOOOOOOOOOooXXOOXX++OOOOOOXXXX                                                      XX++OOOOOOXXXX++OOooXXOO++...........",
"OOOOOOOOOOOOOOOOOooXXOOXX++OOOOOOXXXX                                                      XX++OOOOOOXXXX++OOooXXOO++...........",
"OOOOOOOOOOOOOOOOOOOOOOOXX++######XXXX                                                      XX++######XXXX++OOOOOOOO++....++++OOo",
"OOOOOOOOOOOOOOOOOOOOOOOXX++######XXXX                                                      XX++######XXXX++OOOOOOOO++....++++OOo",
"OOOOOOOOOOOOOOOOOOOOOOOXX++######XXXX                                                      XX++######XXXX++OOOOOOOO++....++OOooX",
"OOOOOOOOOOOOOOOOOOOOOOOXX++######XXXX                                                      XX++######XXXX++OOOOOOOO++....++OOooX",
"OOOOOOOOOOOOOOOOOOOOOOOXX++OOOOOOXXXX                                                      XX++OOOOOOXXXX++OOOOOOOO++...........",
"OOOOOOOOOOOOOOOOOOOOOOOXX++OOOOOOXXXX                                                      XX++OOOOOOXXXX++OOOOOOOO++...........",
"OOOOOOOOOOOOOOOOOOOOOOOXX++OOXXXXXXXX                                                      XX++XXXXOOXXXX++OOOOOOOO++....++++OOo",
"OOOOOOOOOOOOOOOOOOOOOOOXX++OOXXXXXXXX                                                      XX++XXXXOOXXXX++OOOOOOOO++....++++OOo",
"OOOOOOOOOOOOOOOOOOOOOOOXX++OO....XXXX                                                      XX++....OOXXXX++OOOOOOOO++....++OOooX",
"OOOOOOOOOOOOOOOOOOOOOOOXX++OO....XXXX                                                      XX++....OOXXXX++OOOOOOOO++....++OOooX",
"OOOOOOOOOOOOOOOOOOOOOOOXX++OO....XXXX                                                      XX++....OOXXXX++OOOOOOOO++...........",
"OOOOOOOOOOOOOOOOOOOOOOOXX++OO....XXXX                                                      XX++....OOXXXX++OOOOOOOO++...........",
"OOOOOOOOOOOOOOOOOOOOOOOXX++OO....XXXX                                                      XX++....OOXXXX++OOOOOOOO++...........",
"OOOOOOOOOOOOOOOOOOOOOOOXX++OO....XXXX                                                      XX++....OOXXXX++OOOOOOOO++...........",
"OOOOOOOOOOOOOOOOOOOOOOOXX++OO....XXXX                                                      XX++....OOXXXX++OOOOOOOO++...........",
"OOOOOOOOOOOOOOOOOOOOOOOXX++OO....XXXX                                                      XX++....OOXXXX++OOOOOOOO++...........",
"OOOOOOOOOOOOOOOOO++ooOOXX++OOOOOOXXXX                                                      XX++OOOOOOXXXX++OO++ooOOOOXXXXXXXXXXX",
"OOOOOOOOOOOOOOOOO++ooOOXX++OOOOOOXXXX                                                      XX++OOOOOOXXXX++OO++ooOOOOXXXXXXXXXXX",
"OOOOOOOOOOOOOOOOOooXXOOXXXXXXXXXXXXXX                                                      XXXXXXXXXXXXXX++OOooXXOOOOOOOOOOOOOOO",
"OOOOOOOOOOOOOOOOOooXXOOXXXXXXXXXXXXXX                                                      XXXXXXXXXXXXXX++OOooXXOOOOOOOOOOOOOOO",
"OOOOOOOOOOOOOOOOOOOOOOOXXXXXXXXXXXXXX                                                      XXXXXXXXXXXXXX++OOOOOOOOOOOOOOOOOOOOO",
"OOOOOOOOOOOOOOOOOOOOOOOXXXXXXXXXXXXXX                                                      XXXXXXXXXXXXXX++OOOOOOOOOOOOOOOOOOOOO",
"XXXXXXXXXXXXXXXXXXXXXXXXXXXXXXXXXXXXX                                                      XXXXXXXXXXXXXXXXXXXXXXXXXXXXXXXXXXXXX",
"XXXXXXXXXXXXXXXXXXXXXXXXXXXXXXXXXXXXX                                                      XXXXXXXXXXXXXXXXXXXXXXXXXXXXXXXXXXXXX",
"+++++++++++++++++++++++++++++++++XXXX                                                      XXXX&&+++++++++++++++++++++++++++++++",
"+++++++++++++++++++++++++++++++++XXXX                                                      XXXX&&+++++++++++++++++++++++++++++++",
"OOOOOOOOOOOOOOOOOOOOOOOOOOOOOOOOOXXXX                                                      XXXX++OOOOOOOOOOOOOOOOOOOOOOOOOOOOOOO",
"OOOOOOOOOOOOOOOOOOOOOOOOOOOOOOOOOXXXX                                                      XXXX++OOOOOOOOOOOOOOOOOOOOOOOOOOOOOOO",
"OOOOOOOOOOOOOOOOOOOOOOOOOOO++ooOOXXXX                                                      XXXX++OO++ooOOOOOOOOOOOOOOOOOOOOOOOOO",
"OOOOOOOOOOOOOOOOOOOOOOOOOOO++ooOOXXXX                                                      XXXX++OO++ooOOOOOOOOOOOOOOOOOOOOOOOOO",
"OOOOOOOOOOOOOOOOOOOOOOOOOOOooXXOOXXXX                                                      XXXX++OOooXXOOOOOOOOOOOOOOOOOOOOOOOOO",
"OOOOOOOOOOOOOOOOOOOOOOOOOOOooXXOOXXXX                                                      XXXX++OOooXXOOOOOOOOOOOOOOOOOOOOOOOOO",
"OOOOOOOOOOOOOOOOOOOOOOOOOOOOOOOOOXXXX                                                      XXXX++OOOOOOOOOOOOOOOOOOOOOOOOOOOOOOO",
"OOOOOOOOOOOOOOOOOOOOOOOOOOOOOOOOOXXXX                                                      XXXX++OOOOOOOOOOOOOOOOOOOOOOOOOOOOOOO",
"OOOOOOOOOOOOOOOOOOOOOOOOOOOOOOOOOXXXX                                                      XXXX++OOOOOOOOOOOOOOOOOOOOOOOOOOOOOOO",
"OOOOOOOOOOOOOOOOOOOOOOOOOOOOOOOOOXXXX                                                      XXXX++OOOOOOOOOOOOOOOOOOOOOOOOOOOOOOO",
"OOOOOOOOOOOOOOOOOOOOOOOOOOOOOOOOOXXXX                                                      XXXX++OOOOOOOOOOOOOOOOOOOOOOOOOOOOOOO",
"OOOOOOOOOOOOOOOOOOOOOOOOOOOOOOOOOXXXX                                                      XXXX++OOOOOOOOOOOOOOOOOOOOOOOOOOOOOOO",
"OOOOOOOOOOOOOOOOOOOOOOOOOOOOOOOOOXXXX                                                      XXXX++OOOOOOOOOOOOOOOOOOOOOOOOOOOOOOO",
"OOOOOOOOOOOOOOOOOOOOOOOOOOOOOOOOOXXXX                                                      XXXX++OOOOOOOOOOOOOOOOOOOOOOOOOOOOOOO",
"OOOOOOOOOOOOOOOOOOOOOOOOOOOOOOOOOXXXX                                                      XXXX++OOOOOOOOOOOOOOOOOOOOOOOOOOOOOOO",
"OOOOOOOOOOOOOOOOOOOOOOOOOOOOOOOOOXXXX                                                      XXXX++OOOOOOOOOOOOOOOOOOOOOOOOOOOOOOO",
"OOOOOOOOOOOOOOOOOOOOOOOOOOOOOOOOOXXXX                                                      XXXX++OOOOOOOOOOOOOOOOOOOOOOOOOOOOOOO",
"OOOOOOOOOOOOOOOOOOOOOOOOOOOOOOOOOXXXX                                                      XXXX++OOOOOOOOOOOOOOOOOOOOOOOOOOOOOOO",
"OOOOOOOOOOOOOOOOOOOOOOOOOOO++ooOOXXXX                                                      XXXX++OO++ooOOOOOOOOOOOOOOOOOOOOOOOOO",
"OOOOOOOOOOOOOOOOOOOOOOOOOOO++ooOOXXXX                                                      XXXX++OO++ooOOOOOOOOOOOOOOOOOOOOOOOOO",
"OOOOOOOOOOOOOOOOOOOOOOOOOOOooXXOOXXXX                                                      XXXX++OOooXXOOOOOOOOOOOOOOOOOOOOOOOOO",
"OOOOOOOOOOOOOOOOOOOOOOOOOOOooXXOOXXXX                                                      XXXX++OOooXXOOOOOOOOOOOOOOOOOOOOOOOOO",
"OOOOOOOOOOOOOOOOOOOOOOOOOOOOOOOOOXXXX                                                      XXXX++OOOOOOOOOOOOOOOOOOOOOOOOOOOOOOO",
"OOOOOOOOOOOOOOOOOOOOOOOOOOOOOOOOOXXXX                                                      XXXX++OOOOOOOOOOOOOOOOOOOOOOOOOOOOOOO",
"XXXXXXXXXXXXXXXXXXXXXXXXXXXXXXXXXXXXX                                                      XXXXXXXXXXXXXXXXXXXXXXXXXXXXXXXXXXXXX",
"XXXXXXXXXXXXXXXXXXXXXXXXXXXXXXXXXXXXX                                                      XXXXXXXXXXXXXXXXXXXXXXXXXXXXXXXXXXXXX",
"+++++++++++++++++++++++++++++++++XXXX                                                      XXXX+++++++++++++++++++++++++++++++++",
"+++++++++++++++++++++++++++++++++XXXX                                                      XXXX+++++++++++++++++++++++++++++++++",
"OOOOOOOOOOOOOOOOOOOOOOOOOOOOOOOOOXXXX                                                      XXXXOOOOOOOOOOOOOOOOOOOOOOOOOOOOOOOOO",
"OOOOOOOOOOOOOOOOOOOOOOOOOOOOOOOOOXXXX                                                      XXXXOOOOOOOOOOOOOOOOOOOOOOOOOOOOOOOOO",
"OOOOOOOOOOOOOOOOOOOOOOOOOOOOOOOOOXXXX                                                      XXXXOOOOOOOOOOOOOOOOOOOOOOOOOOOOOOOOO",
"OOOOOOOOOOOOOOOOOOOOOOOOOOOOOOOOOXXXX                                                      XXXXOOOOOOOOOOOOOOOOOOOOOOOOOOOOOOOOO",
"OOOOOOOOOOOOOOOOOOOOOOOOOOOOOOOOOXXXX                                                      XXXXOOOOOOOOOOOOOOOOOOOOOOOOOOOOOOOOO",
"OOOOOOOOOOOOOOOOOOOOOOOOOOOOOOOOOXXXX                                                      XXXXOOOOOOOOOOOOOOOOOOOOOOOOOOOOOOOOO",
"OOOOOOOOOOOOOOOOOOOOOOOOOOOOOOOOOXXXX                                                      XXXXOOOOOOOOOOOOOOOOOOOOOOOOOOOOOOOOO",
"OOOOOOOOOOOOOOOOOOOOOOOOOOOOOOOOOXXXX                                                      XXXXOOOOOOOOOOOOOOOOOOOOOOOOOOOOOOOOO",
"OOOOOOOOOOOOOOOOOOOOOOOOOOOOOOOOOXXXX                                                      XXXXOOOOOOOOOOOOOOOOOOOOOOOOOOOOOOOOO",
"OOOOOOOOOOOOOOOOOOOOOOOOOOOOOOOOOXXXX                                                      XXXXOOOOOOOOOOOOOOOOOOOOOOOOOOOOOOOOO",
"OOOOOOOOOOOOOOOOOOOOOOOOOOOOOOOOOXXXX                                                      XXXXOOOOOOOOOOOOOOOOOOOOOOOOOOOOOOOOO",
"OOOOOOOOOOOOOOOOOOOOOOOOOOOOOOOOOXXXX                                                      XXXXOOOOOOOOOOOOOOOOOOOOOOOOOOOOOOOOO",
"XXXXXXXXXXXXXXXXXXXXXXXXXXXXXXXXXXXXX                                                      XXXXXXXXXXXXXXXXXXXXXXXXXXXXXXXXXXXXX",
"XXXXXXXXXXXXXXXXXXXXXXXXXXXXXXXXXXXXX                                                      XXXXXXXXXXXXXXXXXXXXXXXXXXXXXXXXXXXXX"
};
