/* XPM */
static char *_336d9ec756b4cf2a1098184009f2c0a5oH861u40FiUWJ6X[] = {
/* columns rows colors chars-per-pixel */
"128 128 7 1 ",
"  c None",
". c #000008",
"X c gray20",
"o c #535353",
"O c #777777",
"+ c #7FB717",
"@ c gray53",
/* pixels */
"OOOOO                                                                                                                      OOOOO",
"OOOOO                                                                                                                      OOOOO",
"oooXX                                                                                                                      XXooo",
"oooXX                                                                                                                      XXooo",
"oooXX                                                                                                                      XXooo",
"oooXX                                                                                                                      XXooo",
"XXXXX                                                                                                                      XXXXX",
"XXXXX                                                                                                                      XXXXX",
"OXXXX                                                                                                                      XXXX@",
"OXXXX                                                                                                                      XXXX@",
"oXXXX                                                                                                                      XXXXO",
"oXXXX                                                                                                                      XXXXO",
"oXXXX                                                                                                                      XXXXO",
"oXXXX                                                                                                                      XXXXO",
"oXXXX                                                                                                                      XXXXO",
"oXXXX                                                                                                                      XXXXO",
"oXXXX                                                                                                                      XXXXO",
"oXXXX                                                                                                                      XXXXO",
"oXXXX                                                                                                                      XXXXO",
"oXXXX                                                                                                                      XXXXO",
"oXXXX                                                                                                                      XXXXO",
"oXXXX                                                                                                                      XXXXO",
"oXXXX                                                                                                                      XXXXO",
"oXXXX                                                                                                                      XXXXO",
"oXXXX                                                                                                                      XXXXO",
"oXXXX                                                                                                                      XXXXO",
"oXXXX                                                                                                                      XXXXO",
"oXXXX                                                                                                                      XXXXO",
"oXXXX                                                                                                                      XXXXO",
"oXXXX                                                                                                                      XXXXO",
"oXXXX                                                                                                                      XXXXO",
"oXXXX                                                                                                                      XXXXO",
"oXXXX                                                                                                                      XXXXO",
"oXXXX                                                                                                                      XXXXO",
"oXXXX                                                                                                                      XXXXO",
"oXXXX                                                                                                                      XXXXO",
"oXXXX                                                                                                                      XXXXO",
"oXXXX                                                                                                                      XXXXO",
"oXXXX                                                                                                                      XXXXO",
"oXXXX                                                                                                                      XXXXO",
"oXXXX                                                                                                                      XXXXO",
"oXXXX                                                                                                                      XXXXO",
"oXXXX                                                                                                                      XXXXO",
"oXXXX                                                                                                                      XXXXO",
"oXXXX                                                                                                                      XXXXO",
"oXXXX                                                                                                                      XXXXO",
"oXXXX                                                                                                                      XXXXO",
"oXXXX                                                                                                                      XXXXO",
"oXXXX                                                                                                                      XXXXO",
"oXXXX                                                                                                                      XXXXO",
"XXXXX                                                                                                                      XXXXX",
"XXXXX                                                                                                                      XXXXX",
"OXXXX                                                                                                                      XX@@O",
"OXXXX                                                                                                                      XX@@O",
"oXXXX                                                                                                                      XXOOo",
"oXXXX                                                                                                                      XXOOo",
"oXXXX                                                                                                                      XXOOo",
"oXXXX                                                                                                                      XXOOo",
"oXXXX                                                                                                                      XXOOo",
"oXXXX                                                                                                                      XXOOo",
"+XXXX                                                                                                                      XXOO+",
"+XXXX                                                                                                                      XXOO+",
"+XXXX                                                                                                                      XXOO+",
"+XXXX                                                                                                                      XXOO+",
"oXXXX                                                                                                                      XXOOo",
"oXXXX                                                                                                                      XXOOo",
"XXXXX                                                                                                                      XXOOX",
"XXXXX                                                                                                                      XXOOX",
".XXXX                                                                                                                      XXOO.",
".XXXX                                                                                                                      XXOO.",
".XXXX                                                                                                                      XXOO.",
".XXXX                                                                                                                      XXOO.",
".XXXX                                                                                                                      XXOO.",
".XXXX                                                                                                                      XXOO.",
".XXXX                                                                                                                      XXOO.",
".XXXX                                                                                                                      XXOO.",
"oXXXX                                                                                                                      XXOOo",
"oXXXX                                                                                                                      XXOOo",
"XXXXX                                                                                                                      XXXXX",
"XXXXX                                                                                                                      XXXXX",
"XXXXX                                                                                                                      XXXXX",
"XXXXX                                                                                                                      XXXXX",
"XXXXX                                                                                                                      XXXXX",
"XXXXX                                                                                                                      XXXXX",
"OXXXX                                                                                                                      XXXX@",
"OXXXX                                                                                                                      XXXX@",
"oXXXX                                                                                                                      XXXXO",
"oXXXX                                                                                                                      XXXXO",
"oXXXX                                                                                                                      XXXXO",
"oXXXX                                                                                                                      XXXXO",
"oXXXX                                                                                                                      XXXXO",
"oXXXX                                                                                                                      XXXXO",
"oXXXX                                                                                                                      XXXXO",
"oXXXX                                                                                                                      XXXXO",
"oXXXX                                                                                                                      XXXXO",
"oXXXX                                                                                                                      XXXXO",
"oXXXX                                                                                                                      XXXXO",
"oXXXX                                                                                                                      XXXXO",
"oXXXX                                                                                                                      XXXXO",
"oXXXX                                                                                                                      XXXXO",
"oXXXX                                                                                                                      XXXXO",
"oXXXX                                                                                                                      XXXXO",
"oXXXX                                                                                                                      XXXXO",
"oXXXX                                                                                                                      XXXXO",
"oXXXX                                                                                                                      XXXXO",
"oXXXX                                                                                                                      XXXXO",
"oXXXX                                                                                                                      XXXXO",
"oXXXX                                                                                                                      XXXXO",
"oXXXX                                                                                                                      XXXXO",
"oXXXX                                                                                                                      XXXXO",
"XXXXX                                                                                                                      XXXXX",
"XXXXX                                                                                                                      XXXXX",
"OXXXX                                                                                                                      XXXXO",
"OXXXX                                                                                                                      XXXXO",
"oXXXX                                                                                                                      XXXXo",
"oXXXX                                                                                                                      XXXXo",
"oXXXX                                                                                                                      XXXXo",
"oXXXX                                                                                                                      XXXXo",
"oXXXX                                                                                                                      XXXXo",
"oXXXX                                                                                                                      XXXXo",
"oXXXX                                                                                                                      XXXXo",
"oXXXX                                                                                                                      XXXXo",
"oXXXX                                                                                                                      XXXXo",
"oXXXX                                                                                                                      XXXXo",
"oXXXX                                                                                                                      XXXXo",
"oXXXX                                                                                                                      XXXXo",
"XXXXX                                                                                                                      XXXXX",
"XXXXX                                                                                                                      XXXXX"
};
