/* XPM */
static char *_880ed96b9054d73b94db31454c8ac79kcclFTROooM06X7O[] = {
/* columns rows colors chars-per-pixel */
"128 128 11 1 ",
"  c None",
". c #000008",
"X c gray20",
"o c #434343",
"O c #535353",
"+ c #777777",
"@ c #5F9B00",
"# c #7FB717",
"$ c #A3D337",
"% c #C7EF63",
"& c gray53",
/* pixels */
"+++++++++++++++++++++++++++++++++                                                              +++++++++++++++++++++++++++++++++",
"+++++++++++++++++++++++++++++++++                                                              +++++++++++++++++++++++++++++++++",
"OOOOOOOOOOOOOOOOOOOOOOOOOOOOOOOXX                                                              XXOOOOOOOOOOOOOOOOOOOOOOOOOOOOOOO",
"OOOOOOOOOOOOOOOOOOOOOOOOOOOOOOOXX                                                              XXOOOOOOOOOOOOOOOOOOOOOOOOOOOOOOO",
"OOOOOOOOOOOOOOOOOOOOOOOOOOOOOOOXX                                                              XXOOOOOOOOOOOOOOOOOOOOOOOOOOOOOOO",
"OOOOOOOOOOOOOOOOOOOOOOOOOOOOOOOXX                                                              XXOOOOOOOOOOOOOOOOOOOOOOOOOOOOOOO",
"XXXXXXXXXXXXXXXXXXXXXXXXXXXXXXXXX                                                              XXXXXXXXXXXXXXXXXXXXXXXXXXXXXXXXX",
"XXXXXXXXXXXXXXXXXXXXXXXXXXXXXXXXX                                                              XXXXXXXXXXXXXXXXXXXXXXXXXXXXXXXXX",
"+++++++++++++++++++++++++++++XXXX                                                              XXXX&&+++++++++++++++++++++++++++",
"+++++++++++++++++++++++++++++XXXX                                                              XXXX&&+++++++++++++++++++++++++++",
"OOOOOOOOOOOOOOOOOOOOOOOOOOOOOXXXX                                                              XXXX++OOOOOOOOOOOOOOOOOOOOOOOOOOO",
"OOOOOOOOOOOOOOOOOOOOOOOOOOOOOXXXX                                                              XXXX++OOOOOOOOOOOOOOOOOOOOOOOOOOO",
"OOOOOOOOOOOOOOOOOOOOOOO++ooOOXXXX                                                              XXXX++OO++ooOOOOOOOOOOOOOOOOOOOOO",
"OOOOOOOOOOOOOOOOOOOOOOO++ooOOXXXX                                                              XXXX++OO++ooOOOOOOOOOOOOOOOOOOOOO",
"OOOOOOOOOOOOOOOOOOOOOOOooXXOOXXXX                                                              XXXX++OOooXXOOOOOOOOOOOOOOOOOOOOO",
"OOOOOOOOOOOOOOOOOOOOOOOooXXOOXXXX                                                              XXXX++OOooXXOOOOOOOOOOOOOOOOOOOOO",
"OOOOOOOOOOOOOOOOOOOOOOOOOOOOOXXXX                                                              XXXX++OOOOOOOOOOOOOOOOOOOOOOOOOOO",
"OOOOOOOOOOOOOOOOOOOOOOOOOOOOOXXXX                                                              XXXX++OOOOOOOOOOOOOOOOOOOOOOOOOOO",
"OOOOOOOOOOOOOOOOOOOOOOOOOOOOOXXXX                                                              XXXX++OOOOOOOOOOOOOOOOOOOOOOOOOOO",
"OOOOOOOOOOOOOOOOOOOOOOOOOOOOOXXXX                                                              XXXX++OOOOOOOOOOOOOOOOOOOOOOOOOOO",
"OOOOOOOOOOOOOOOOOOOOOOOOOOOOOXXXX                                                              XXXX++OOOOOOOOOOOOOOOOOOOOOOOOOOO",
"OOOOOOOOOOOOOOOOOOOOOOOOOOOOOXXXX                                                              XXXX++OOOOOOOOOOOOOOOOOOOOOOOOOOO",
"OOOOOOOOOOOOOOOOOOOOOOOOOOOOOXXXX                                                              XXXX++OOOOOOOOOOOOOOOOOOOOOOOOOOO",
"OOOOOOOOOOOOOOOOOOOOOOOOOOOOOXXXX                                                              XXXX++OOOOOOOOOOOOOOOOOOOOOOOOOOO",
"OOOOOOOOOOOOOOOOOOOOOOOOOOOOOXXXX                                                              XXXX++OOOOOOOOOOOOOOOOOOOOOOOOOOO",
"OOOOOOOOOOOOOOOOOOOOOOOOOOOOOXXXX                                                              XXXX++OOOOOOOOOOOOOOOOOOOOOOOOOOO",
"OOOOOOOOOOOOOOOOOOOOOOOOOOOOOXXXX                                                              XXXX++OOOOOOOOOOOOOOOOOOOOOOOOOOO",
"OOOOOOOOOOOOOOOOOOOOOOOOOOOOOXXXX                                                              XXXX++OOOOOOOOOOOOOOOOOOOOOOOOOOO",
"OOOOOOOOOOOOOOOOOOOOOOOOOOOOOXXXX                                                              XXXX++OOOOOOOOOOOOOOOOOOOOOOOOOOO",
"OOOOOOOOOOOOOOOOOOOOOOOOOOOOOXXXX                                                              XXXX++OOOOOOOOOOOOOOOOOOOOOOOOOOO",
"OOOOOOOOOOOOOOOOOOOOOOOOOOOOOXXXX                                                              XXXX++OOOOOOOOOOOOOOOOOOOOOOOOOOO",
"OOOOOOOOOOOOOOOOOOOOOOOOOOOOOXXXX                                                              XXXX++OOOOOOOOOOOOOOOOOOOOOOOOOOO",
"OOOOOOOOOOOOOOOOOOOOOOOOOOOOOXXXX                                                              XXXX++OOOOOOOOOOOOOOOOOOOOOOOOOOO",
"OOOOOOOOOOOOOOOOOOOOOOOOOOOOOXXXX                                                              XXXX++OOOOOOOOOOOOOOOOOOOOOOOOOOO",
"OOOOOOOOOOOOOOOOOOOOOOOOOOOOOXXXX                                                              XXXX++OOOOOOOOOOOOOOOOOOOOOOOOOOO",
"OOOOOOOOOOOOOOOOOOOOOOOOOOOOOXXXX                                                              XXXX++OOOOOOOOOOOOOOOOOOOOOOOOOOO",
"OOOOOOOOOOOOOOOOOOOOOOOOOOOOOXXXX                                                              XXXX++OOOOOOOOOOOOOOOOOOOOOOOOOOO",
"OOOOOOOOOOOOOOOOOOOOOOOOOOOOOXXXX                                                              XXXX++OOOOOOOOOOOOOOOOOOOOOOOOOOO",
"OOOOOOOOOOOOOOOOOOOOOOOOOOOOOXXXX                                                              XXXX++OOOOOOOOOOOOOOOOOOOOOOOOOOO",
"OOOOOOOOOOOOOOOOOOOOOOOOOOOOOXXXX                                                              XXXX++OOOOOOOOOOOOOOOOOOOOOOOOOOO",
"OOOOOOOOOOOOOOOOOOOOOOOOOOOOOXXXX                                                              XXXX++OOOOOOOOOOOOOOOOOOOOOOOOOOO",
"OOOOOOOOOOOOOOOOOOOOOOOOOOOOOXXXX                                                              XXXX++OOOOOOOOOOOOOOOOOOOOOOOOOOO",
"OOOOOOOOOOOOOOOOOOOOOOOOOOOOOXXXX                                                              XXXX++OOOOOOOOOOOOOOOOOOOO+++++++",
"OOOOOOOOOOOOOOOOOOOOOOOOOOOOOXXXX                                                              XXXX++OOOOOOOOOOOOOOOOOOOO+++++++",
"OOOOOOOOOOOOOOOOOOOOOOO++ooOOXXXX                                                              XXXX++OO++ooOOOOOOOOOOOO++.......",
"OOOOOOOOOOOOOOOOOOOOOOO++ooOOXXXX                                                              XXXX++OO++ooOOOOOOOOOOOO++.......",
"OOOOOOOOOOOOOOOOOOOOOOOooXXOOXXXX                                                              XXXX++OOooXXOOOOOOOOOOOO++.......",
"OOOOOOOOOOOOOOOOOOOOOOOooXXOOXXXX                                                              XXXX++OOooXXOOOOOOOOOOOO++.......",
"OOOOOOOOOOOOOOOOOOOOOOOOOOOOOXXXX                                                              XXXX++OOOOOOOOOOOOOOOOOO++....%%$",
"OOOOOOOOOOOOOOOOOOOOOOOOOOOOOXXXX                                                              XXXX++OOOOOOOOOOOOOOOOOO++....%%$",
"XXXXXXXXXXXXXXXXXXXXXXXXXXXXXXXXX                                                              XXXXXXXXXXXXXXXXXXXXXXXX++....$$#",
"XXXXXXXXXXXXXXXXXXXXXXXXXXXXXXXXX                                                              XXXXXXXXXXXXXXXXXXXXXXXX++....$$#",
"+++++++++++++++++++XX&&++++++XXXX                                                              XX&&++++++XXXX&&++++++++++....$$#",
"+++++++++++++++++++XX&&++++++XXXX                                                              XX&&++++++XXXX&&++++++++++....$$#",
"OOOOOOOOOOOOOOOOOOOXX++OOOOOOXXXX                                                              XX++OOOOOOXXXX++OOOOOOOO++....$$#",
"OOOOOOOOOOOOOOOOOOOXX++OOOOOOXXXX                                                              XX++OOOOOOXXXX++OOOOOOOO++....$$#",
"OOOOOOOOOOOOO++ooOOXX++OOOOOOXXXX                                                              XX++OOOOOOXXXX++OO++ooOO++....##@",
"OOOOOOOOOOOOO++ooOOXX++OOOOOOXXXX                                                              XX++OOOOOOXXXX++OO++ooOO++....##@",
"OOOOOOOOOOOOOooXXOOXX++OOOOOOXXXX                                                              XX++OOOOOOXXXX++OOooXXOO++.......",
"OOOOOOOOOOOOOooXXOOXX++OOOOOOXXXX                                                              XX++OOOOOOXXXX++OOooXXOO++.......",
"OOOOOOOOOOOOOOOOOOOXX++######XXXX                                                              XX++######XXXX++OOOOOOOO++....+++",
"OOOOOOOOOOOOOOOOOOOXX++######XXXX                                                              XX++######XXXX++OOOOOOOO++....+++",
"OOOOOOOOOOOOOOOOOOOXX++######XXXX                                                              XX++######XXXX++OOOOOOOO++....++O",
"OOOOOOOOOOOOOOOOOOOXX++######XXXX                                                              XX++######XXXX++OOOOOOOO++....++O",
"OOOOOOOOOOOOOOOOOOOXX++OOOOOOXXXX                                                              XX++OOOOOOXXXX++OOOOOOOO++.......",
"OOOOOOOOOOOOOOOOOOOXX++OOOOOOXXXX                                                              XX++OOOOOOXXXX++OOOOOOOO++.......",
"OOOOOOOOOOOOOOOOOOOXX++OOXXXXXXXX                                                              XX++XXXXOOXXXX++OOOOOOOO++....+++",
"OOOOOOOOOOOOOOOOOOOXX++OOXXXXXXXX                                                              XX++XXXXOOXXXX++OOOOOOOO++....+++",
"OOOOOOOOOOOOOOOOOOOXX++OO....XXXX                                                              XX++....OOXXXX++OOOOOOOO++....++O",
"OOOOOOOOOOOOOOOOOOOXX++OO....XXXX                                                              XX++....OOXXXX++OOOOOOOO++....++O",
"OOOOOOOOOOOOOOOOOOOXX++OO....XXXX                                                              XX++....OOXXXX++OOOOOOOO++.......",
"OOOOOOOOOOOOOOOOOOOXX++OO....XXXX                                                              XX++....OOXXXX++OOOOOOOO++.......",
"OOOOOOOOOOOOOOOOOOOXX++OO....XXXX                                                              XX++....OOXXXX++OOOOOOOO++.......",
"OOOOOOOOOOOOOOOOOOOXX++OO....XXXX                                                              XX++....OOXXXX++OOOOOOOO++.......",
"OOOOOOOOOOOOOOOOOOOXX++OO....XXXX                                                              XX++....OOXXXX++OOOOOOOO++.......",
"OOOOOOOOOOOOOOOOOOOXX++OO....XXXX                                                              XX++....OOXXXX++OOOOOOOO++.......",
"OOOOOOOOOOOOO++ooOOXX++OOOOOOXXXX                                                              XX++OOOOOOXXXX++OO++ooOOOOXXXXXXX",
"OOOOOOOOOOOOO++ooOOXX++OOOOOOXXXX                                                              XX++OOOOOOXXXX++OO++ooOOOOXXXXXXX",
"OOOOOOOOOOOOOooXXOOXXXXXXXXXXXXXX                                                              XXXXXXXXXXXXXX++OOooXXOOOOOOOOOOO",
"OOOOOOOOOOOOOooXXOOXXXXXXXXXXXXXX                                                              XXXXXXXXXXXXXX++OOooXXOOOOOOOOOOO",
"OOOOOOOOOOOOOOOOOOOXXXXXXXXXXXXXX                                                              XXXXXXXXXXXXXX++OOOOOOOOOOOOOOOOO",
"OOOOOOOOOOOOOOOOOOOXXXXXXXXXXXXXX                                                              XXXXXXXXXXXXXX++OOOOOOOOOOOOOOOOO",
"XXXXXXXXXXXXXXXXXXXXXXXXXXXXXXXXX                                                              XXXXXXXXXXXXXXXXXXXXXXXXXXXXXXXXX",
"XXXXXXXXXXXXXXXXXXXXXXXXXXXXXXXXX                                                              XXXXXXXXXXXXXXXXXXXXXXXXXXXXXXXXX",
"+++++++++++++++++++++++++++++XXXX                                                              XXXX&&+++++++++++++++++++++++++++",
"+++++++++++++++++++++++++++++XXXX                                                              XXXX&&+++++++++++++++++++++++++++",
"OOOOOOOOOOOOOOOOOOOOOOOOOOOOOXXXX                                                              XXXX++OOOOOOOOOOOOOOOOOOOOOOOOOOO",
"OOOOOOOOOOOOOOOOOOOOOOOOOOOOOXXXX                                                              XXXX++OOOOOOOOOOOOOOOOOOOOOOOOOOO",
"OOOOOOOOOOOOOOOOOOOOOOO++ooOOXXXX                                                              XXXX++OO++ooOOOOOOOOOOOOOOOOOOOOO",
"OOOOOOOOOOOOOOOOOOOOOOO++ooOOXXXX                                                              XXXX++OO++ooOOOOOOOOOOOOOOOOOOOOO",
"OOOOOOOOOOOOOOOOOOOOOOOooXXOOXXXX                                                              XXXX++OOooXXOOOOOOOOOOOOOOOOOOOOO",
"OOOOOOOOOOOOOOOOOOOOOOOooXXOOXXXX                                                              XXXX++OOooXXOOOOOOOOOOOOOOOOOOOOO",
"OOOOOOOOOOOOOOOOOOOOOOOOOOOOOXXXX                                                              XXXX++OOOOOOOOOOOOOOOOOOOOOOOOOOO",
"OOOOOOOOOOOOOOOOOOOOOOOOOOOOOXXXX                                                              XXXX++OOOOOOOOOOOOOOOOOOOOOOOOOOO",
"OOOOOOOOOOOOOOOOOOOOOOOOOOOOOXXXX                                                              XXXX++OOOOOOOOOOOOOOOOOOOOOOOOOOO",
"OOOOOOOOOOOOOOOOOOOOOOOOOOOOOXXXX                                                              XXXX++OOOOOOOOOOOOOOOOOOOOOOOOOOO",
"OOOOOOOOOOOOOOOOOOOOOOOOOOOOOXXXX                                                              XXXX++OOOOOOOOOOOOOOOOOOOOOOOOOOO",
"OOOOOOOOOOOOOOOOOOOOOOOOOOOOOXXXX                                                              XXXX++OOOOOOOOOOOOOOOOOOOOOOOOOOO",
"OOOOOOOOOOOOOOOOOOOOOOOOOOOOOXXXX                                                              XXXX++OOOOOOOOOOOOOOOOOOOOOOOOOOO",
"OOOOOOOOOOOOOOOOOOOOOOOOOOOOOXXXX                                                              XXXX++OOOOOOOOOOOOOOOOOOOOOOOOOOO",
"OOOOOOOOOOOOOOOOOOOOOOOOOOOOOXXXX                                                              XXXX++OOOOOOOOOOOOOOOOOOOOOOOOOOO",
"OOOOOOOOOOOOOOOOOOOOOOOOOOOOOXXXX                                                              XXXX++OOOOOOOOOOOOOOOOOOOOOOOOOOO",
"OOOOOOOOOOOOOOOOOOOOOOOOOOOOOXXXX                                                              XXXX++OOOOOOOOOOOOOOOOOOOOOOOOOOO",
"OOOOOOOOOOOOOOOOOOOOOOOOOOOOOXXXX                                                              XXXX++OOOOOOOOOOOOOOOOOOOOOOOOOOO",
"OOOOOOOOOOOOOOOOOOOOOOO++ooOOXXXX                                                              XXXX++OO++ooOOOOOOOOOOOOOOOOOOOOO",
"OOOOOOOOOOOOOOOOOOOOOOO++ooOOXXXX                                                              XXXX++OO++ooOOOOOOOOOOOOOOOOOOOOO",
"OOOOOOOOOOOOOOOOOOOOOOOooXXOOXXXX                                                              XXXX++OOooXXOOOOOOOOOOOOOOOOOOOOO",
"OOOOOOOOOOOOOOOOOOOOOOOooXXOOXXXX                                                              XXXX++OOooXXOOOOOOOOOOOOOOOOOOOOO",
"OOOOOOOOOOOOOOOOOOOOOOOOOOOOOXXXX                                                              XXXX++OOOOOOOOOOOOOOOOOOOOOOOOOOO",
"OOOOOOOOOOOOOOOOOOOOOOOOOOOOOXXXX                                                              XXXX++OOOOOOOOOOOOOOOOOOOOOOOOOOO",
"XXXXXXXXXXXXXXXXXXXXXXXXXXXXXXXXX                                                              XXXXXXXXXXXXXXXXXXXXXXXXXXXXXXXXX",
"XXXXXXXXXXXXXXXXXXXXXXXXXXXXXXXXX                                                              XXXXXXXXXXXXXXXXXXXXXXXXXXXXXXXXX",
"+++++++++++++++++++++++++++++XXXX                                                              XXXX+++++++++++++++++++++++++++++",
"+++++++++++++++++++++++++++++XXXX                                                              XXXX+++++++++++++++++++++++++++++",
"OOOOOOOOOOOOOOOOOOOOOOOOOOOOOXXXX                                                              XXXXOOOOOOOOOOOOOOOOOOOOOOOOOOOOO",
"OOOOOOOOOOOOOOOOOOOOOOOOOOOOOXXXX                                                              XXXXOOOOOOOOOOOOOOOOOOOOOOOOOOOOO",
"OOOOOOOOOOOOOOOOOOOOOOOOOOOOOXXXX                                                              XXXXOOOOOOOOOOOOOOOOOOOOOOOOOOOOO",
"OOOOOOOOOOOOOOOOOOOOOOOOOOOOOXXXX                                                              XXXXOOOOOOOOOOOOOOOOOOOOOOOOOOOOO",
"OOOOOOOOOOOOOOOOOOOOOOOOOOOOOXXXX                                                              XXXXOOOOOOOOOOOOOOOOOOOOOOOOOOOOO",
"OOOOOOOOOOOOOOOOOOOOOOOOOOOOOXXXX                                                              XXXXOOOOOOOOOOOOOOOOOOOOOOOOOOOOO",
"OOOOOOOOOOOOOOOOOOOOOOOOOOOOOXXXX                                                              XXXXOOOOOOOOOOOOOOOOOOOOOOOOOOOOO",
"OOOOOOOOOOOOOOOOOOOOOOOOOOOOOXXXX                                                              XXXXOOOOOOOOOOOOOOOOOOOOOOOOOOOOO",
"OOOOOOOOOOOOOOOOOOOOOOOOOOOOOXXXX                                                              XXXXOOOOOOOOOOOOOOOOOOOOOOOOOOOOO",
"OOOOOOOOOOOOOOOOOOOOOOOOOOOOOXXXX                                                              XXXXOOOOOOOOOOOOOOOOOOOOOOOOOOOOO",
"OOOOOOOOOOOOOOOOOOOOOOOOOOOOOXXXX                                                              XXXXOOOOOOOOOOOOOOOOOOOOOOOOOOOOO",
"OOOOOOOOOOOOOOOOOOOOOOOOOOOOOXXXX                                                              XXXXOOOOOOOOOOOOOOOOOOOOOOOOOOOOO",
"XXXXXXXXXXXXXXXXXXXXXXXXXXXXXXXXX                                                              XXXXXXXXXXXXXXXXXXXXXXXXXXXXXXXXX",
"XXXXXXXXXXXXXXXXXXXXXXXXXXXXXXXXX                                                              XXXXXXXXXXXXXXXXXXXXXXXXXXXXXXXXX"
};
