/* XPM */
static char *_bf8ce7253664654e9519874e43c6e2eSUibTqDM7Py5MxMD[] = {
/* columns rows colors chars-per-pixel */
"128 128 12 1 ",
"  c None",
". c #000008",
"X c gray20",
"o c #434343",
"O c #535353",
"+ c #777777",
"@ c #5F9B00",
"# c #7FB717",
"$ c #A3D337",
"% c #C7EF63",
"& c gray53",
"* c #979797",
/* pixels */
"++++++++++++++++++++++++++++++++++++++++++++++++++++++++++++++    ++++++++++++++++++++++++++++++++++++++++++++++++++++++++++++++",
"++++++++++++++++++++++++++++++++++++++++++++++++++++++++++++++    ++++++++++++++++++++++++++++++++++++++++++++++++++++++++++++++",
"OOOOOOOOOOOOOOOOOOOOOOOOOOOOOOOOOOOOOOOOOOOOOOOOOOOOOOOOOOOOXX    XXOOOOOOOOOOOOOOOOOOOOOOOOOOOOOOOOOOOOOOOOOOOOOOOOOOOOOOOOOOOO",
"OOOOOOOOOOOOOOOOOOOOOOOOOOOOOOOOOOOOOOOOOOOOOOOOOOOOOOOOOOOOXX    XXOOOOOOOOOOOOOOOOOOOOOOOOOOOOOOOOOOOOOOOOOOOOOOOOOOOOOOOOOOOO",
"OOOOOOOOOOOOOOOOOOOOOOOOOOOOOOOOOOOOOOOOOOOOOOOOOOOOOOOOOOOOXX    XXOOOOOOOOOOOOOOOOOOOOOOOOOOOOOOOOOOOOOOOOOOOOOOOOOOOOOOOOOOOO",
"OOOOOOOOOOOOOOOOOOOOOOOOOOOOOOOOOOOOOOOOOOOOOOOOOOOOOOOOOOOOXX    XXOOOOOOOOOOOOOOOOOOOOOOOOOOOOOOOOOOOOOOOOOOOOOOOOOOOOOOOOOOOO",
"XXXXXXXXXXXXXXXXXXXXXXXXXXXXXXXXXXXXXXXXXXXXXXXXXXXXXXXXXXXXXX    XXXXXXXXXXXXXXXXXXXXXXXXXXXXXXXXXXXXXXXXXXXXXXXXXXXXXXXXXXXXXX",
"XXXXXXXXXXXXXXXXXXXXXXXXXXXXXXXXXXXXXXXXXXXXXXXXXXXXXXXXXXXXXX    XXXXXXXXXXXXXXXXXXXXXXXXXXXXXXXXXXXXXXXXXXXXXXXXXXXXXXXXXXXXXX",
"XX&&++++++++++++++++++++++++++++++++++++++++++++++++++++++XXXX    XXXX&&++++++++++++++++++++++++++++++++++++++++++++++++++++++XX",
"XX&&++++++++++++++++++++++++++++++++++++++++++++++++++++++XXXX    XXXX&&++++++++++++++++++++++++++++++++++++++++++++++++++++++XX",
"XX++OOOOOOOOOOOOOOOOOOOOOOOOOOOOOOOOOOOOOOOOOOOOOOOOOOOOOOXXXX    XXXX++OOOOOOOOOOOOOOOOOOOOOOOOOOOOOOOOOOOOOOOOOOOOOOOOOOOOOOXX",
"XX++OOOOOOOOOOOOOOOOOOOOOOOOOOOOOOOOOOOOOOOOOOOOOOOOOOOOOOXXXX    XXXX++OOOOOOOOOOOOOOOOOOOOOOOOOOOOOOOOOOOOOOOOOOOOOOOOOOOOOOXX",
"XX++OO++ooOOOOOOOOOOOOOOOOOOOOOOOOOOOOOOOOOOOOOOOOOO++ooOOXXXX    XXXX++OO++ooOOOOOOOOOOOOOOOOOOOOOOOOOOOOOOOOOOOOOOOOOO++ooOOXX",
"XX++OO++ooOOOOOOOOOOOOOOOOOOOOOOOOOOOOOOOOOOOOOOOOOO++ooOOXXXX    XXXX++OO++ooOOOOOOOOOOOOOOOOOOOOOOOOOOOOOOOOOOOOOOOOOO++ooOOXX",
"XX++OOooXXOOOOOOOOOOOOOOOOOOOOOOOOOOOOOOOOOOOOOOOOOOooXXOOXXXX    XXXX++OOooXXOOOOOOOOOOOOOOOOOOOOOOOOOOOOOOOOOOOOOOOOOOooXXOOXX",
"XX++OOooXXOOOOOOOOOOOOOOOOOOOOOOOOOOOOOOOOOOOOOOOOOOooXXOOXXXX    XXXX++OOooXXOOOOOOOOOOOOOOOOOOOOOOOOOOOOOOOOOOOOOOOOOOooXXOOXX",
"XX++OOOOOOOOOOOOOOOOOOOOOOOOOOOOOOOOOOOOOOOOOOOOOOOOOOOOOOXXXX    XXXX++OOOOOOOOOOOOOOOOOOOOOOOOOOOOOOOOOOOOOOOOOOOOOOOOOOOOOOXX",
"XX++OOOOOOOOOOOOOOOOOOOOOOOOOOOOOOOOOOOOOOOOOOOOOOOOOOOOOOXXXX    XXXX++OOOOOOOOOOOOOOOOOOOOOOOOOOOOOOOOOOOOOOOOOOOOOOOOOOOOOOXX",
"XX++OOOOOOOOOOOOOOOOOOOOOOOOOOOOOOOOOOOOOOOOOOOOOOOOOOOOOOXXXX    XXXX++OOOOOOOOOOOOOOOOOOOOOOOOOOOOOOOOOOOOOOOOOOOOOOOOOOOOOOXX",
"XX++OOOOOOOOOOOOOOOOOOOOOOOOOOOOOOOOOOOOOOOOOOOOOOOOOOOOOOXXXX    XXXX++OOOOOOOOOOOOOOOOOOOOOOOOOOOOOOOOOOOOOOOOOOOOOOOOOOOOOOXX",
"XX++OOOOOOOOOOOOOOOOOOOOOOOOOOOOOOOOOOOOOOOOOOOOOOOOOOOOOOXXXX    XXXX++OOOOOOOOOOOOOOOOOOOOOOOOOOOOOOOOOOOOOOOOOOOOOOOOOOOOOOXX",
"XX++OOOOOOOOOOOOOOOOOOOOOOOOOOOOOOOOOOOOOOOOOOOOOOOOOOOOOOXXXX    XXXX++OOOOOOOOOOOOOOOOOOOOOOOOOOOOOOOOOOOOOOOOOOOOOOOOOOOOOOXX",
"XX++OOOOOOOOOOOOOOOOOOOOOOOOOOOOOOOOOOOOOOOOOOOOOOOOOOOOOOXXXX    XXXX++OOOOOOOOOOOOOOOOOOOOOOOOOOOOOOOOOOOOOOOOOOOOOOOOOOOOOOXX",
"XX++OOOOOOOOOOOOOOOOOOOOOOOOOOOOOOOOOOOOOOOOOOOOOOOOOOOOOOXXXX    XXXX++OOOOOOOOOOOOOOOOOOOOOOOOOOOOOOOOOOOOOOOOOOOOOOOOOOOOOOXX",
"XX++OOOOOOOOOOOOOOOOOOOOOOOOOOOOOOOOOOOOOOOOOOOOOOOOOOOOOOXXXX    XXXX++OOOOOOOOOOOOOOOOOOOOOOOOOOOOOOOOOOOOOOOOOOOOOOOOOOOOOOXX",
"XX++OOOOOOOOOOOOOOOOOOOOOOOOOOOOOOOOOOOOOOOOOOOOOOOOOOOOOOXXXX    XXXX++OOOOOOOOOOOOOOOOOOOOOOOOOOOOOOOOOOOOOOOOOOOOOOOOOOOOOOXX",
"XX++OOOOOOOOOOOOOOOOOOOOOOOOOOOOOOOOOOOOOOOOOOOOOOOOOOOOOOXXXX    XXXX++OOOOOOOOOOOOOOOOOOOOOOOOOOOOOOOOOOOOOOOOOOOOOOOOOOOOOOXX",
"XX++OOOOOOOOOOOOOOOOOOOOOOOOOOOOOOOOOOOOOOOOOOOOOOOOOOOOOOXXXX    XXXX++OOOOOOOOOOOOOOOOOOOOOOOOOOOOOOOOOOOOOOOOOOOOOOOOOOOOOOXX",
"XX++OOOOOOOOOOOOOOOOOOOOOOOOOOOOOOOOOOOOOOOOOOOOOOOOOOOOOOXXXX    XXXX++OOOOOOOOOOOOOOOOOOOOOOOOOOOOOOOOOOOOOOOOOOOOOOOOOOOOOOXX",
"XX++OOOOOOOOOOOOOOOOOOOOOOOOOOOOOOOOOOOOOOOOOOOOOOOOOOOOOOXXXX    XXXX++OOOOOOOOOOOOOOOOOOOOOOOOOOOOOOOOOOOOOOOOOOOOOOOOOOOOOOXX",
"XX++OOOOOOOOOOOOOOOOOOOOOOOOOOOOOOOOOOOOOOOOOOOOOOOOOOOOOOXXXX    XXXX++OOOOOOOOOOOOOOOOOOOOOOOOOOOOOOOOOOOOOOOOOOOOOOOOOOOOOOXX",
"XX++OOOOOOOOOOOOOOOOOOOOOOOOOOOOOOOOOOOOOOOOOOOOOOOOOOOOOOXXXX    XXXX++OOOOOOOOOOOOOOOOOOOOOOOOOOOOOOOOOOOOOOOOOOOOOOOOOOOOOOXX",
"XX++OOOOOOOOOOOOOOOOOOOOOOOOOOOOOOOOOOOOOOOOOOOOOOOOOOOOOOXXXX    XXXX++OOOOOOOOOOOOOOOOOOOOOOOOOOOOOOOOOOOOOOOOOOOOOOOOOOOOOOXX",
"XX++OOOOOOOOOOOOOOOOOOOOOOOOOOOOOOOOOOOOOOOOOOOOOOOOOOOOOOXXXX    XXXX++OOOOOOOOOOOOOOOOOOOOOOOOOOOOOOOOOOOOOOOOOOOOOOOOOOOOOOXX",
"XX++OOOOOOOOOOOOOOOOOOOOOOOOOOOOOOOOOOOOOOOOOOOOOOOOOOOOOOXXXX    XXXX++OOOOOOOOOOOOOOOOOOOOOOOOOOOOOOOOOOOOOOOOOOOOOOOOOOOOOOXX",
"XX++OOOOOOOOOOOOOOOOOOOOOOOOOOOOOOOOOOOOOOOOOOOOOOOOOOOOOOXXXX    XXXX++OOOOOOOOOOOOOOOOOOOOOOOOOOOOOOOOOOOOOOOOOOOOOOOOOOOOOOXX",
"XX++OOOOOOOOOOOOOOOOOOOOOOOOOOOOOOOOOOOOOOOOOOOOOOOOOOOOOOXXXX    XXXX++OOOOOOOOOOOOOOOOOOOOOOOOOOOOOOOOOOOOOOOOOOOOOOOOOOOOOOXX",
"XX++OOOOOOOOOOOOOOOOOOOOOOOOOOOOOOOOOOOOOOOOOOOOOOOOOOOOOOXXXX    XXXX++OOOOOOOOOOOOOOOOOOOOOOOOOOOOOOOOOOOOOOOOOOOOOOOOOOOOOOXX",
"XX++OOOOOOOOOOOOOOOOOOOOOOOOOOOOOOOOOOOOOOOOOOOOOOOOOOOOOOXXXX    XXXX++OOOOOOOOOOOOOOOOOOOOOOOOOOOOOOOOOOOOOOOOOOOOOOOOOOOOOOXX",
"XX++OOOOOOOOOOOOOOOOOOOOOOOOOOOOOOOOOOOOOOOOOOOOOOOOOOOOOOXXXX    XXXX++OOOOOOOOOOOOOOOOOOOOOOOOOOOOOOOOOOOOOOOOOOOOOOOOOOOOOOXX",
"XX++OOOOOOOOOOOOOOOOOOOOOOOOOOOOOOOOOOOOOOOOOOOOOOOOOOOOOOXXXX    XXXX++OOOOOOOOOOOOOOOOOOOOOOOOOOOOOOOOOOOOOOOOOOOOOOOOOOOOOOXX",
"XX++OOOOOOOOOOOOOOOOOOOOOOOOOOOOOOOOOOOOOOOOOOOOOOOOOOOOOOXXXX    XXXX++OOOOOOOOOOOOOOOOOOOOOOOOOOOOOOOOOOOOOOOOOOOOOOOOOOOOOOXX",
"XX++OOOOOOOOOOOOOOOOOOOOOOOOOOOOOOOOOOOOOOOOOOOOOOOOOOOOOOXXXX    XXXX++OOOOOOOOOOOOOOOOOOOO++++++++++++++++++++++OOOOOOOOOOOOXX",
"XX++OOOOOOOOOOOOOOOOOOOOOOOOOOOOOOOOOOOOOOOOOOOOOOOOOOOOOOXXXX    XXXX++OOOOOOOOOOOOOOOOOOOO++++++++++++++++++++++OOOOOOOOOOOOXX",
"XX++OO++ooOOOOOOOOOOOOOOOOOOOOOOOOOOOOOOOOOOOOOOOOOO++ooOOXXXX    XXXX++OO++ooOOOOOOOOOOOO++......................XXOOOO++ooOOXX",
"XX++OO++ooOOOOOOOOOOOOOOOOOOOOOOOOOOOOOOOOOOOOOOOOOO++ooOOXXXX    XXXX++OO++ooOOOOOOOOOOOO++......................XXOOOO++ooOOXX",
"XX++OOooXXOOOOOOOOOOOOOOOOOOOOOOOOOOOOOOOOOOOOOOOOOOooXXOOXXXX    XXXX++OOooXXOOOOOOOOOOOO++..............XX..XX..XXOOOOooXXOOXX",
"XX++OOooXXOOOOOOOOOOOOOOOOOOOOOOOOOOOOOOOOOOOOOOOOOOooXXOOXXXX    XXXX++OOooXXOOOOOOOOOOOO++..............XX..XX..XXOOOOooXXOOXX",
"XX++OOOOOOOOOOOOOOOOOOOOOOOOOOOOOOOOOOOOOOOOOOOOOOOOOOOOOOXXXX    XXXX++OOOOOOOOOOOOOOOOOO++....%%$$$$##..OO..OO..XXOOOOOOOOOOXX",
"XX++OOOOOOOOOOOOOOOOOOOOOOOOOOOOOOOOOOOOOOOOOOOOOOOOOOOOOOXXXX    XXXX++OOOOOOOOOOOOOOOOOO++....%%$$$$##..OO..OO..XXOOOOOOOOOOXX",
"XXXXXXXXXXXXXXXXXXXXXXXXXXXXXXXXXXXXXXXXXXXXXXXXXXXXXXXXXXXXXX    XXXXXXXXXXXXXXXXXXXXXXXX++....$$####@@..++..++..XXXXXXXXXXXXXX",
"XXXXXXXXXXXXXXXXXXXXXXXXXXXXXXXXXXXXXXXXXXXXXXXXXXXXXXXXXXXXXX    XXXXXXXXXXXXXXXXXXXXXXXX++....$$####@@..++..++..XXXXXXXXXXXXXX",
"XX&&++++++++++++++++++++++++++++++++++++++++++++XX&&++++++XXXX    XX&&++++++XXXX&&++++++++++....$$####@@..++..++..XX++++++++++XX",
"XX&&++++++++++++++++++++++++++++++++++++++++++++XX&&++++++XXXX    XX&&++++++XXXX&&++++++++++....$$####@@..++..++..XX++++++++++XX",
"XX++OOOOOOOOOOOOOOOOOOOOOOOOOOOOOOOOOOOOOOOOOOOOXX++OOOOOOXXXX    XX++OOOOOOXXXX++OOOOOOOO++....$$####@@..**..++..XXOOOOOOOOOOXX",
"XX++OOOOOOOOOOOOOOOOOOOOOOOOOOOOOOOOOOOOOOOOOOOOXX++OOOOOOXXXX    XX++OOOOOOXXXX++OOOOOOOO++....$$####@@..**..++..XXOOOOOOOOOOXX",
"XX++OO++ooOOOOOOOOOOOOOOOOOOOOOOOOOOOOOOOO++ooOOXX++OOOOOOXXXX    XX++OOOOOOXXXX++OO++ooOO++....##@@@@@@..**..**..XXOOOO++ooOOXX",
"XX++OO++ooOOOOOOOOOOOOOOOOOOOOOOOOOOOOOOOO++ooOOXX++OOOOOOXXXX    XX++OOOOOOXXXX++OO++ooOO++....##@@@@@@..**..**..XXOOOO++ooOOXX",
"XX++OOooXXOOOOOOOOOOOOOOOOOOOOOOOOOOOOOOOOooXXOOXX++OOOOOOXXXX    XX++OOOOOOXXXX++OOooXXOO++..............**..**..XXOOOOooXXOOXX",
"XX++OOooXXOOOOOOOOOOOOOOOOOOOOOOOOOOOOOOOOooXXOOXX++OOOOOOXXXX    XX++OOOOOOXXXX++OOooXXOO++..............**..**..XXOOOOooXXOOXX",
"XX++OOOOOOOOOOOOOOOOOOOOOOOOOOOOOOOOOOOOOOOOOOOOXX++######XXXX    XX++######XXXX++OOOOOOOO++....++++OOoo..++..++..XXOOOOOOOOOOXX",
"XX++OOOOOOOOOOOOOOOOOOOOOOOOOOOOOOOOOOOOOOOOOOOOXX++######XXXX    XX++######XXXX++OOOOOOOO++....++++OOoo..++..++..XXOOOOOOOOOOXX",
"XX++OOOOOOOOOOOOOOOOOOOOOOOOOOOOOOOOOOOOOOOOOOOOXX++######XXXX    XX++######XXXX++OOOOOOOO++....++OOooXX..++..++..XXOOOOOOOOOOXX",
"XX++OOOOOOOOOOOOOOOOOOOOOOOOOOOOOOOOOOOOOOOOOOOOXX++######XXXX    XX++######XXXX++OOOOOOOO++....++OOooXX..++..++..XXOOOOOOOOOOXX",
"XX++OOOOOOOOOOOOOOOOOOOOOOOOOOOOOOOOOOOOOOOOOOOOXX++OOOOOOXXXX    XX++OOOOOOXXXX++OOOOOOOO++..............++..++..XXOOOOOOOOOOXX",
"XX++OOOOOOOOOOOOOOOOOOOOOOOOOOOOOOOOOOOOOOOOOOOOXX++OOOOOOXXXX    XX++OOOOOOXXXX++OOOOOOOO++..............++..++..XXOOOOOOOOOOXX",
"XX++OOOOOOOOOOOOOOOOOOOOOOOOOOOOOOOOOOOOOOOOOOOOXX++OOXXXXXXXX    XX++XXXXOOXXXX++OOOOOOOO++....++++OOoo..OO..++..XXOOOOOOOOOOXX",
"XX++OOOOOOOOOOOOOOOOOOOOOOOOOOOOOOOOOOOOOOOOOOOOXX++OOXXXXXXXX    XX++XXXXOOXXXX++OOOOOOOO++....++++OOoo..OO..++..XXOOOOOOOOOOXX",
"XX++OOOOOOOOOOOOOOOOOOOOOOOOOOOOOOOOOOOOOOOOOOOOXX++OO....XXXX    XX++....OOXXXX++OOOOOOOO++....++OOooXX..OO..OO..XXOOOOOOOOOOXX",
"XX++OOOOOOOOOOOOOOOOOOOOOOOOOOOOOOOOOOOOOOOOOOOOXX++OO....XXXX    XX++....OOXXXX++OOOOOOOO++....++OOooXX..OO..OO..XXOOOOOOOOOOXX",
"XX++OOOOOOOOOOOOOOOOOOOOOOOOOOOOOOOOOOOOOOOOOOOOXX++OO....XXXX    XX++....OOXXXX++OOOOOOOO++..............oo..oo..XXOOOOOOOOOOXX",
"XX++OOOOOOOOOOOOOOOOOOOOOOOOOOOOOOOOOOOOOOOOOOOOXX++OO....XXXX    XX++....OOXXXX++OOOOOOOO++..............oo..oo..XXOOOOOOOOOOXX",
"XX++OOOOOOOOOOOOOOOOOOOOOOOOOOOOOOOOOOOOOOOOOOOOXX++OO....XXXX    XX++....OOXXXX++OOOOOOOO++..............XX..XX..XXOOOOOOOOOOXX",
"XX++OOOOOOOOOOOOOOOOOOOOOOOOOOOOOOOOOOOOOOOOOOOOXX++OO....XXXX    XX++....OOXXXX++OOOOOOOO++..............XX..XX..XXOOOOOOOOOOXX",
"XX++OOOOOOOOOOOOOOOOOOOOOOOOOOOOOOOOOOOOOOOOOOOOXX++OO....XXXX    XX++....OOXXXX++OOOOOOOO++......................XXOOOOOOOOOOXX",
"XX++OOOOOOOOOOOOOOOOOOOOOOOOOOOOOOOOOOOOOOOOOOOOXX++OO....XXXX    XX++....OOXXXX++OOOOOOOO++......................XXOOOOOOOOOOXX",
"XX++OO++ooOOOOOOOOOOOOOOOOOOOOOOOOOOOOOOOO++ooOOXX++OOOOOOXXXX    XX++OOOOOOXXXX++OO++ooOOOOXXXXXXXXXXXXXXXXXXXXXXXXOOOO++ooOOXX",
"XX++OO++ooOOOOOOOOOOOOOOOOOOOOOOOOOOOOOOOO++ooOOXX++OOOOOOXXXX    XX++OOOOOOXXXX++OO++ooOOOOXXXXXXXXXXXXXXXXXXXXXXXXOOOO++ooOOXX",
"XX++OOooXXOOOOOOOOOOOOOOOOOOOOOOOOOOOOOOOOooXXOOXXXXXXXXXXXXXX    XXXXXXXXXXXXXX++OOooXXOOOOOOOOOOOOOOOOOOOOOOOOOOOOOOOOooXXOOXX",
"XX++OOooXXOOOOOOOOOOOOOOOOOOOOOOOOOOOOOOOOooXXOOXXXXXXXXXXXXXX    XXXXXXXXXXXXXX++OOooXXOOOOOOOOOOOOOOOOOOOOOOOOOOOOOOOOooXXOOXX",
"XX++OOOOOOOOOOOOOOOOOOOOOOOOOOOOOOOOOOOOOOOOOOOOXXXXXXXXXXXXXX    XXXXXXXXXXXXXX++OOOOOOOOOOOOOOOOOOOOOOOOOOOOOOOOOOOOOOOOOOOOXX",
"XX++OOOOOOOOOOOOOOOOOOOOOOOOOOOOOOOOOOOOOOOOOOOOXXXXXXXXXXXXXX    XXXXXXXXXXXXXX++OOOOOOOOOOOOOOOOOOOOOOOOOOOOOOOOOOOOOOOOOOOOXX",
"XXXXXXXXXXXXXXXXXXXXXXXXXXXXXXXXXXXXXXXXXXXXXXXXXXXXXXXXXXXXXX    XXXXXXXXXXXXXXXXXXXXXXXXXXXXXXXXXXXXXXXXXXXXXXXXXXXXXXXXXXXXXX",
"XXXXXXXXXXXXXXXXXXXXXXXXXXXXXXXXXXXXXXXXXXXXXXXXXXXXXXXXXXXXXX    XXXXXXXXXXXXXXXXXXXXXXXXXXXXXXXXXXXXXXXXXXXXXXXXXXXXXXXXXXXXXX",
"XX&&++++++++++++++++++++++++++++++++++++++++++++++++++++++XXXX    XXXX&&++++++++++++++++++++++++++++++++++++++++++++++++++++++XX",
"XX&&++++++++++++++++++++++++++++++++++++++++++++++++++++++XXXX    XXXX&&++++++++++++++++++++++++++++++++++++++++++++++++++++++XX",
"XX++OOOOOOOOOOOOOOOOOOOOOOOOOOOOOOOOOOOOOOOOOOOOOOOOOOOOOOXXXX    XXXX++OOOOOOOOOOOOOOOOOOOOOOOOOOOOOOOOOOOOOOOOOOOOOOOOOOOOOOXX",
"XX++OOOOOOOOOOOOOOOOOOOOOOOOOOOOOOOOOOOOOOOOOOOOOOOOOOOOOOXXXX    XXXX++OOOOOOOOOOOOOOOOOOOOOOOOOOOOOOOOOOOOOOOOOOOOOOOOOOOOOOXX",
"XX++OO++ooOOOOOOOOOOOOOOOOOOOOOOOOOOOOOOOOOOOOOOOOOO++ooOOXXXX    XXXX++OO++ooOOOOOOOOOOOOOOOOOOOOOOOOOOOOOOOOOOOOOOOOOO++ooOOXX",
"XX++OO++ooOOOOOOOOOOOOOOOOOOOOOOOOOOOOOOOOOOOOOOOOOO++ooOOXXXX    XXXX++OO++ooOOOOOOOOOOOOOOOOOOOOOOOOOOOOOOOOOOOOOOOOOO++ooOOXX",
"XX++OOooXXOOOOOOOOOOOOOOOOOOOOOOOOOOOOOOOOOOOOOOOOOOooXXOOXXXX    XXXX++OOooXXOOOOOOOOOOOOOOOOOOOOOOOOOOOOOOOOOOOOOOOOOOooXXOOXX",
"XX++OOooXXOOOOOOOOOOOOOOOOOOOOOOOOOOOOOOOOOOOOOOOOOOooXXOOXXXX    XXXX++OOooXXOOOOOOOOOOOOOOOOOOOOOOOOOOOOOOOOOOOOOOOOOOooXXOOXX",
"XX++OOOOOOOOOOOOOOOOOOOOOOOOOOOOOOOOOOOOOOOOOOOOOOOOOOOOOOXXXX    XXXX++OOOOOOOOOOOOOOOOOOOOOOOOOOOOOOOOOOOOOOOOOOOOOOOOOOOOOOXX",
"XX++OOOOOOOOOOOOOOOOOOOOOOOOOOOOOOOOOOOOOOOOOOOOOOOOOOOOOOXXXX    XXXX++OOOOOOOOOOOOOOOOOOOOOOOOOOOOOOOOOOOOOOOOOOOOOOOOOOOOOOXX",
"XX++OOOOOOOOOOOOOOOOOOOOOOOOOOOOOOOOOOOOOOOOOOOOOOOOOOOOOOXXXX    XXXX++OOOOOOOOOOOOOOOOOOOOOOOOOOOOOOOOOOOOOOOOOOOOOOOOOOOOOOXX",
"XX++OOOOOOOOOOOOOOOOOOOOOOOOOOOOOOOOOOOOOOOOOOOOOOOOOOOOOOXXXX    XXXX++OOOOOOOOOOOOOOOOOOOOOOOOOOOOOOOOOOOOOOOOOOOOOOOOOOOOOOXX",
"XX++OOOOOOOOOOOOOOOOOOOOOOOOOOOOOOOOOOOOOOOOOOOOOOOOOOOOOOXXXX    XXXX++OOOOOOOOOOOOOOOOOOOOOOOOOOOOOOOOOOOOOOOOOOOOOOOOOOOOOOXX",
"XX++OOOOOOOOOOOOOOOOOOOOOOOOOOOOOOOOOOOOOOOOOOOOOOOOOOOOOOXXXX    XXXX++OOOOOOOOOOOOOOOOOOOOOOOOOOOOOOOOOOOOOOOOOOOOOOOOOOOOOOXX",
"XX++OOOOOOOOOOOOOOOOOOOOOOOOOOOOOOOOOOOOOOOOOOOOOOOOOOOOOOXXXX    XXXX++OOOOOOOOOOOOOOOOOOOOOOOOOOOOOOOOOOOOOOOOOOOOOOOOOOOOOOXX",
"XX++OOOOOOOOOOOOOOOOOOOOOOOOOOOOOOOOOOOOOOOOOOOOOOOOOOOOOOXXXX    XXXX++OOOOOOOOOOOOOOOOOOOOOOOOOOOOOOOOOOOOOOOOOOOOOOOOOOOOOOXX",
"XX++OOOOOOOOOOOOOOOOOOOOOOOOOOOOOOOOOOOOOOOOOOOOOOOOOOOOOOXXXX    XXXX++OOOOOOOOOOOOOOOOOOOOOOOOOOOOOOOOOOOOOOOOOOOOOOOOOOOOOOXX",
"XX++OOOOOOOOOOOOOOOOOOOOOOOOOOOOOOOOOOOOOOOOOOOOOOOOOOOOOOXXXX    XXXX++OOOOOOOOOOOOOOOOOOOOOOOOOOOOOOOOOOOOOOOOOOOOOOOOOOOOOOXX",
"XX++OOOOOOOOOOOOOOOOOOOOOOOOOOOOOOOOOOOOOOOOOOOOOOOOOOOOOOXXXX    XXXX++OOOOOOOOOOOOOOOOOOOOOOOOOOOOOOOOOOOOOOOOOOOOOOOOOOOOOOXX",
"XX++OOOOOOOOOOOOOOOOOOOOOOOOOOOOOOOOOOOOOOOOOOOOOOOOOOOOOOXXXX    XXXX++OOOOOOOOOOOOOOOOOOOOOOOOOOOOOOOOOOOOOOOOOOOOOOOOOOOOOOXX",
"XX++OO++ooOOOOOOOOOOOOOOOOOOOOOOOOOOOOOOOOOOOOOOOOOO++ooOOXXXX    XXXX++OO++ooOOOOOOOOOOOOOOOOOOOOOOOOOOOOOOOOOOOOOOOOOO++ooOOXX",
"XX++OO++ooOOOOOOOOOOOOOOOOOOOOOOOOOOOOOOOOOOOOOOOOOO++ooOOXXXX    XXXX++OO++ooOOOOOOOOOOOOOOOOOOOOOOOOOOOOOOOOOOOOOOOOOO++ooOOXX",
"XX++OOooXXOOOOOOOOOOOOOOOOOOOOOOOOOOOOOOOOOOOOOOOOOOooXXOOXXXX    XXXX++OOooXXOOOOOOOOOOOOOOOOOOOOOOOOOOOOOOOOOOOOOOOOOOooXXOOXX",
"XX++OOooXXOOOOOOOOOOOOOOOOOOOOOOOOOOOOOOOOOOOOOOOOOOooXXOOXXXX    XXXX++OOooXXOOOOOOOOOOOOOOOOOOOOOOOOOOOOOOOOOOOOOOOOOOooXXOOXX",
"XX++OOOOOOOOOOOOOOOOOOOOOOOOOOOOOOOOOOOOOOOOOOOOOOOOOOOOOOXXXX    XXXX++OOOOOOOOOOOOOOOOOOOOOOOOOOOOOOOOOOOOOOOOOOOOOOOOOOOOOOXX",
"XX++OOOOOOOOOOOOOOOOOOOOOOOOOOOOOOOOOOOOOOOOOOOOOOOOOOOOOOXXXX    XXXX++OOOOOOOOOOOOOOOOOOOOOOOOOOOOOOOOOOOOOOOOOOOOOOOOOOOOOOXX",
"XXXXXXXXXXXXXXXXXXXXXXXXXXXXXXXXXXXXXXXXXXXXXXXXXXXXXXXXXXXXXX    XXXXXXXXXXXXXXXXXXXXXXXXXXXXXXXXXXXXXXXXXXXXXXXXXXXXXXXXXXXXXX",
"XXXXXXXXXXXXXXXXXXXXXXXXXXXXXXXXXXXXXXXXXXXXXXXXXXXXXXXXXXXXXX    XXXXXXXXXXXXXXXXXXXXXXXXXXXXXXXXXXXXXXXXXXXXXXXXXXXXXXXXXXXXXX",
"++++++++++++++++++++++++++++++++++++++++++++++++++++++++++XXXX    XXXX++++++++++++++++++++++++++++++++++++++++++++++++++++++++++",
"++++++++++++++++++++++++++++++++++++++++++++++++++++++++++XXXX    XXXX++++++++++++++++++++++++++++++++++++++++++++++++++++++++++",
"OOOOOOOOOOOOOOOOOOOOOOOOOOOOOOOOOOOOOOOOOOOOOOOOOOOOOOOOOOXXXX    XXXXOOOOOOOOOOOOOOOOOOOOOOOOOOOOOOOOOOOOOOOOOOOOOOOOOOOOOOOOOO",
"OOOOOOOOOOOOOOOOOOOOOOOOOOOOOOOOOOOOOOOOOOOOOOOOOOOOOOOOOOXXXX    XXXXOOOOOOOOOOOOOOOOOOOOOOOOOOOOOOOOOOOOOOOOOOOOOOOOOOOOOOOOOO",
"OOOOOOOOOOOOOOOOOOOOOOOOOOOOOOOOOOOOOOOOOOOOOOOOOOOOOOOOOOXXXX    XXXXOOOOOOOOOOOOOOOOOOOOOOOOOOOOOOOOOOOOOOOOOOOOOOOOOOOOOOOOOO",
"OOOOOOOOOOOOOOOOOOOOOOOOOOOOOOOOOOOOOOOOOOOOOOOOOOOOOOOOOOXXXX    XXXXOOOOOOOOOOOOOOOOOOOOOOOOOOOOOOOOOOOOOOOOOOOOOOOOOOOOOOOOOO",
"OOOOOOOOOOOOOOOOOOOOOOOOOOOOOOOOOOOOOOOOOOOOOOOOOOOOOOOOOOXXXX    XXXXOOOOOOOOOOOOOOOOOOOOOOOOOOOOOOOOOOOOOOOOOOOOOOOOOOOOOOOOOO",
"OOOOOOOOOOOOOOOOOOOOOOOOOOOOOOOOOOOOOOOOOOOOOOOOOOOOOOOOOOXXXX    XXXXOOOOOOOOOOOOOOOOOOOOOOOOOOOOOOOOOOOOOOOOOOOOOOOOOOOOOOOOOO",
"OOOOOOOOOOOOOOOOOOOOOOOOOOOOOOOOOOOOOOOOOOOOOOOOOOOOOOOOOOXXXX    XXXXOOOOOOOOOOOOOOOOOOOOOOOOOOOOOOOOOOOOOOOOOOOOOOOOOOOOOOOOOO",
"OOOOOOOOOOOOOOOOOOOOOOOOOOOOOOOOOOOOOOOOOOOOOOOOOOOOOOOOOOXXXX    XXXXOOOOOOOOOOOOOOOOOOOOOOOOOOOOOOOOOOOOOOOOOOOOOOOOOOOOOOOOOO",
"OOOOOOOOOOOOOOOOOOOOOOOOOOOOOOOOOOOOOOOOOOOOOOOOOOOOOOOOOOXXXX    XXXXOOOOOOOOOOOOOOOOOOOOOOOOOOOOOOOOOOOOOOOOOOOOOOOOOOOOOOOOOO",
"OOOOOOOOOOOOOOOOOOOOOOOOOOOOOOOOOOOOOOOOOOOOOOOOOOOOOOOOOOXXXX    XXXXOOOOOOOOOOOOOOOOOOOOOOOOOOOOOOOOOOOOOOOOOOOOOOOOOOOOOOOOOO",
"OOOOOOOOOOOOOOOOOOOOOOOOOOOOOOOOOOOOOOOOOOOOOOOOOOOOOOOOOOXXXX    XXXXOOOOOOOOOOOOOOOOOOOOOOOOOOOOOOOOOOOOOOOOOOOOOOOOOOOOOOOOOO",
"OOOOOOOOOOOOOOOOOOOOOOOOOOOOOOOOOOOOOOOOOOOOOOOOOOOOOOOOOOXXXX    XXXXOOOOOOOOOOOOOOOOOOOOOOOOOOOOOOOOOOOOOOOOOOOOOOOOOOOOOOOOOO",
"XXXXXXXXXXXXXXXXXXXXXXXXXXXXXXXXXXXXXXXXXXXXXXXXXXXXXXXXXXXXXX    XXXXXXXXXXXXXXXXXXXXXXXXXXXXXXXXXXXXXXXXXXXXXXXXXXXXXXXXXXXXXX",
"XXXXXXXXXXXXXXXXXXXXXXXXXXXXXXXXXXXXXXXXXXXXXXXXXXXXXXXXXXXXXX    XXXXXXXXXXXXXXXXXXXXXXXXXXXXXXXXXXXXXXXXXXXXXXXXXXXXXXXXXXXXXX"
};
