/* XPM */
static char *_4cdfc8885b043c0af08e58ae76279281uvRtYDjpX0r0lpi[] = {
/* columns rows colors chars-per-pixel */
"128 128 11 1 ",
"  c None",
". c #000008",
"X c gray20",
"o c #434343",
"O c #535353",
"+ c #777777",
"@ c #5F9B00",
"# c #7FB717",
"$ c #A3D337",
"% c #C7EF63",
"& c gray53",
/* pixels */
"++++++++++++++++++++++++++++++++++++++++                                                ++++++++++++++++++++++++++++++++++++++++",
"++++++++++++++++++++++++++++++++++++++++                                                ++++++++++++++++++++++++++++++++++++++++",
"OOOOOOOOOOOOOOOOOOOOOOOOOOOOOOOOOOOOOOXX                                                XXOOOOOOOOOOOOOOOOOOOOOOOOOOOOOOOOOOOOOO",
"OOOOOOOOOOOOOOOOOOOOOOOOOOOOOOOOOOOOOOXX                                                XXOOOOOOOOOOOOOOOOOOOOOOOOOOOOOOOOOOOOOO",
"OOOOOOOOOOOOOOOOOOOOOOOOOOOOOOOOOOOOOOXX                                                XXOOOOOOOOOOOOOOOOOOOOOOOOOOOOOOOOOOOOOO",
"OOOOOOOOOOOOOOOOOOOOOOOOOOOOOOOOOOOOOOXX                                                XXOOOOOOOOOOOOOOOOOOOOOOOOOOOOOOOOOOOOOO",
"XXXXXXXXXXXXXXXXXXXXXXXXXXXXXXXXXXXXXXXX                                                XXXXXXXXXXXXXXXXXXXXXXXXXXXXXXXXXXXXXXXX",
"XXXXXXXXXXXXXXXXXXXXXXXXXXXXXXXXXXXXXXXX                                                XXXXXXXXXXXXXXXXXXXXXXXXXXXXXXXXXXXXXXXX",
"++++++++++++++++++++++++++++++++++++XXXX                                                XXXX&&++++++++++++++++++++++++++++++++++",
"++++++++++++++++++++++++++++++++++++XXXX                                                XXXX&&++++++++++++++++++++++++++++++++++",
"OOOOOOOOOOOOOOOOOOOOOOOOOOOOOOOOOOOOXXXX                                                XXXX++OOOOOOOOOOOOOOOOOOOOOOOOOOOOOOOOOO",
"OOOOOOOOOOOOOOOOOOOOOOOOOOOOOOOOOOOOXXXX                                                XXXX++OOOOOOOOOOOOOOOOOOOOOOOOOOOOOOOOOO",
"OOOOOOOOOOOOOOOOOOOOOOOOOOOOOO++ooOOXXXX                                                XXXX++OO++ooOOOOOOOOOOOOOOOOOOOOOOOOOOOO",
"OOOOOOOOOOOOOOOOOOOOOOOOOOOOOO++ooOOXXXX                                                XXXX++OO++ooOOOOOOOOOOOOOOOOOOOOOOOOOOOO",
"OOOOOOOOOOOOOOOOOOOOOOOOOOOOOOooXXOOXXXX                                                XXXX++OOooXXOOOOOOOOOOOOOOOOOOOOOOOOOOOO",
"OOOOOOOOOOOOOOOOOOOOOOOOOOOOOOooXXOOXXXX                                                XXXX++OOooXXOOOOOOOOOOOOOOOOOOOOOOOOOOOO",
"OOOOOOOOOOOOOOOOOOOOOOOOOOOOOOOOOOOOXXXX                                                XXXX++OOOOOOOOOOOOOOOOOOOOOOOOOOOOOOOOOO",
"OOOOOOOOOOOOOOOOOOOOOOOOOOOOOOOOOOOOXXXX                                                XXXX++OOOOOOOOOOOOOOOOOOOOOOOOOOOOOOOOOO",
"OOOOOOOOOOOOOOOOOOOOOOOOOOOOOOOOOOOOXXXX                                                XXXX++OOOOOOOOOOOOOOOOOOOOOOOOOOOOOOOOOO",
"OOOOOOOOOOOOOOOOOOOOOOOOOOOOOOOOOOOOXXXX                                                XXXX++OOOOOOOOOOOOOOOOOOOOOOOOOOOOOOOOOO",
"OOOOOOOOOOOOOOOOOOOOOOOOOOOOOOOOOOOOXXXX                                                XXXX++OOOOOOOOOOOOOOOOOOOOOOOOOOOOOOOOOO",
"OOOOOOOOOOOOOOOOOOOOOOOOOOOOOOOOOOOOXXXX                                                XXXX++OOOOOOOOOOOOOOOOOOOOOOOOOOOOOOOOOO",
"OOOOOOOOOOOOOOOOOOOOOOOOOOOOOOOOOOOOXXXX                                                XXXX++OOOOOOOOOOOOOOOOOOOOOOOOOOOOOOOOOO",
"OOOOOOOOOOOOOOOOOOOOOOOOOOOOOOOOOOOOXXXX                                                XXXX++OOOOOOOOOOOOOOOOOOOOOOOOOOOOOOOOOO",
"OOOOOOOOOOOOOOOOOOOOOOOOOOOOOOOOOOOOXXXX                                                XXXX++OOOOOOOOOOOOOOOOOOOOOOOOOOOOOOOOOO",
"OOOOOOOOOOOOOOOOOOOOOOOOOOOOOOOOOOOOXXXX                                                XXXX++OOOOOOOOOOOOOOOOOOOOOOOOOOOOOOOOOO",
"OOOOOOOOOOOOOOOOOOOOOOOOOOOOOOOOOOOOXXXX                                                XXXX++OOOOOOOOOOOOOOOOOOOOOOOOOOOOOOOOOO",
"OOOOOOOOOOOOOOOOOOOOOOOOOOOOOOOOOOOOXXXX                                                XXXX++OOOOOOOOOOOOOOOOOOOOOOOOOOOOOOOOOO",
"OOOOOOOOOOOOOOOOOOOOOOOOOOOOOOOOOOOOXXXX                                                XXXX++OOOOOOOOOOOOOOOOOOOOOOOOOOOOOOOOOO",
"OOOOOOOOOOOOOOOOOOOOOOOOOOOOOOOOOOOOXXXX                                                XXXX++OOOOOOOOOOOOOOOOOOOOOOOOOOOOOOOOOO",
"OOOOOOOOOOOOOOOOOOOOOOOOOOOOOOOOOOOOXXXX                                                XXXX++OOOOOOOOOOOOOOOOOOOOOOOOOOOOOOOOOO",
"OOOOOOOOOOOOOOOOOOOOOOOOOOOOOOOOOOOOXXXX                                                XXXX++OOOOOOOOOOOOOOOOOOOOOOOOOOOOOOOOOO",
"OOOOOOOOOOOOOOOOOOOOOOOOOOOOOOOOOOOOXXXX                                                XXXX++OOOOOOOOOOOOOOOOOOOOOOOOOOOOOOOOOO",
"OOOOOOOOOOOOOOOOOOOOOOOOOOOOOOOOOOOOXXXX                                                XXXX++OOOOOOOOOOOOOOOOOOOOOOOOOOOOOOOOOO",
"OOOOOOOOOOOOOOOOOOOOOOOOOOOOOOOOOOOOXXXX                                                XXXX++OOOOOOOOOOOOOOOOOOOOOOOOOOOOOOOOOO",
"OOOOOOOOOOOOOOOOOOOOOOOOOOOOOOOOOOOOXXXX                                                XXXX++OOOOOOOOOOOOOOOOOOOOOOOOOOOOOOOOOO",
"OOOOOOOOOOOOOOOOOOOOOOOOOOOOOOOOOOOOXXXX                                                XXXX++OOOOOOOOOOOOOOOOOOOOOOOOOOOOOOOOOO",
"OOOOOOOOOOOOOOOOOOOOOOOOOOOOOOOOOOOOXXXX                                                XXXX++OOOOOOOOOOOOOOOOOOOOOOOOOOOOOOOOOO",
"OOOOOOOOOOOOOOOOOOOOOOOOOOOOOOOOOOOOXXXX                                                XXXX++OOOOOOOOOOOOOOOOOOOOOOOOOOOOOOOOOO",
"OOOOOOOOOOOOOOOOOOOOOOOOOOOOOOOOOOOOXXXX                                                XXXX++OOOOOOOOOOOOOOOOOOOOOOOOOOOOOOOOOO",
"OOOOOOOOOOOOOOOOOOOOOOOOOOOOOOOOOOOOXXXX                                                XXXX++OOOOOOOOOOOOOOOOOOOOOOOOOOOOOOOOOO",
"OOOOOOOOOOOOOOOOOOOOOOOOOOOOOOOOOOOOXXXX                                                XXXX++OOOOOOOOOOOOOOOOOOOOOOOOOOOOOOOOOO",
"OOOOOOOOOOOOOOOOOOOOOOOOOOOOOOOOOOOOXXXX                                                XXXX++OOOOOOOOOOOOOOOOOOOO++++++++++++++",
"OOOOOOOOOOOOOOOOOOOOOOOOOOOOOOOOOOOOXXXX                                                XXXX++OOOOOOOOOOOOOOOOOOOO++++++++++++++",
"OOOOOOOOOOOOOOOOOOOOOOOOOOOOOO++ooOOXXXX                                                XXXX++OO++ooOOOOOOOOOOOO++..............",
"OOOOOOOOOOOOOOOOOOOOOOOOOOOOOO++ooOOXXXX                                                XXXX++OO++ooOOOOOOOOOOOO++..............",
"OOOOOOOOOOOOOOOOOOOOOOOOOOOOOOooXXOOXXXX                                                XXXX++OOooXXOOOOOOOOOOOO++..............",
"OOOOOOOOOOOOOOOOOOOOOOOOOOOOOOooXXOOXXXX                                                XXXX++OOooXXOOOOOOOOOOOO++..............",
"OOOOOOOOOOOOOOOOOOOOOOOOOOOOOOOOOOOOXXXX                                                XXXX++OOOOOOOOOOOOOOOOOO++....%%$$$$##..",
"OOOOOOOOOOOOOOOOOOOOOOOOOOOOOOOOOOOOXXXX                                                XXXX++OOOOOOOOOOOOOOOOOO++....%%$$$$##..",
"XXXXXXXXXXXXXXXXXXXXXXXXXXXXXXXXXXXXXXXX                                                XXXXXXXXXXXXXXXXXXXXXXXX++....$$####@@..",
"XXXXXXXXXXXXXXXXXXXXXXXXXXXXXXXXXXXXXXXX                                                XXXXXXXXXXXXXXXXXXXXXXXX++....$$####@@..",
"++++++++++++++++++++++++++XX&&++++++XXXX                                                XX&&++++++XXXX&&++++++++++....$$####@@..",
"++++++++++++++++++++++++++XX&&++++++XXXX                                                XX&&++++++XXXX&&++++++++++....$$####@@..",
"OOOOOOOOOOOOOOOOOOOOOOOOOOXX++OOOOOOXXXX                                                XX++OOOOOOXXXX++OOOOOOOO++....$$####@@..",
"OOOOOOOOOOOOOOOOOOOOOOOOOOXX++OOOOOOXXXX                                                XX++OOOOOOXXXX++OOOOOOOO++....$$####@@..",
"OOOOOOOOOOOOOOOOOOOO++ooOOXX++OOOOOOXXXX                                                XX++OOOOOOXXXX++OO++ooOO++....##@@@@@@..",
"OOOOOOOOOOOOOOOOOOOO++ooOOXX++OOOOOOXXXX                                                XX++OOOOOOXXXX++OO++ooOO++....##@@@@@@..",
"OOOOOOOOOOOOOOOOOOOOooXXOOXX++OOOOOOXXXX                                                XX++OOOOOOXXXX++OOooXXOO++..............",
"OOOOOOOOOOOOOOOOOOOOooXXOOXX++OOOOOOXXXX                                                XX++OOOOOOXXXX++OOooXXOO++..............",
"OOOOOOOOOOOOOOOOOOOOOOOOOOXX++######XXXX                                                XX++######XXXX++OOOOOOOO++....++++OOoo..",
"OOOOOOOOOOOOOOOOOOOOOOOOOOXX++######XXXX                                                XX++######XXXX++OOOOOOOO++....++++OOoo..",
"OOOOOOOOOOOOOOOOOOOOOOOOOOXX++######XXXX                                                XX++######XXXX++OOOOOOOO++....++OOooXX..",
"OOOOOOOOOOOOOOOOOOOOOOOOOOXX++######XXXX                                                XX++######XXXX++OOOOOOOO++....++OOooXX..",
"OOOOOOOOOOOOOOOOOOOOOOOOOOXX++OOOOOOXXXX                                                XX++OOOOOOXXXX++OOOOOOOO++..............",
"OOOOOOOOOOOOOOOOOOOOOOOOOOXX++OOOOOOXXXX                                                XX++OOOOOOXXXX++OOOOOOOO++..............",
"OOOOOOOOOOOOOOOOOOOOOOOOOOXX++OOXXXXXXXX                                                XX++XXXXOOXXXX++OOOOOOOO++....++++OOoo..",
"OOOOOOOOOOOOOOOOOOOOOOOOOOXX++OOXXXXXXXX                                                XX++XXXXOOXXXX++OOOOOOOO++....++++OOoo..",
"OOOOOOOOOOOOOOOOOOOOOOOOOOXX++OO....XXXX                                                XX++....OOXXXX++OOOOOOOO++....++OOooXX..",
"OOOOOOOOOOOOOOOOOOOOOOOOOOXX++OO....XXXX                                                XX++....OOXXXX++OOOOOOOO++....++OOooXX..",
"OOOOOOOOOOOOOOOOOOOOOOOOOOXX++OO....XXXX                                                XX++....OOXXXX++OOOOOOOO++..............",
"OOOOOOOOOOOOOOOOOOOOOOOOOOXX++OO....XXXX                                                XX++....OOXXXX++OOOOOOOO++..............",
"OOOOOOOOOOOOOOOOOOOOOOOOOOXX++OO....XXXX                                                XX++....OOXXXX++OOOOOOOO++..............",
"OOOOOOOOOOOOOOOOOOOOOOOOOOXX++OO....XXXX                                                XX++....OOXXXX++OOOOOOOO++..............",
"OOOOOOOOOOOOOOOOOOOOOOOOOOXX++OO....XXXX                                                XX++....OOXXXX++OOOOOOOO++..............",
"OOOOOOOOOOOOOOOOOOOOOOOOOOXX++OO....XXXX                                                XX++....OOXXXX++OOOOOOOO++..............",
"OOOOOOOOOOOOOOOOOOOO++ooOOXX++OOOOOOXXXX                                                XX++OOOOOOXXXX++OO++ooOOOOXXXXXXXXXXXXXX",
"OOOOOOOOOOOOOOOOOOOO++ooOOXX++OOOOOOXXXX                                                XX++OOOOOOXXXX++OO++ooOOOOXXXXXXXXXXXXXX",
"OOOOOOOOOOOOOOOOOOOOooXXOOXXXXXXXXXXXXXX                                                XXXXXXXXXXXXXX++OOooXXOOOOOOOOOOOOOOOOOO",
"OOOOOOOOOOOOOOOOOOOOooXXOOXXXXXXXXXXXXXX                                                XXXXXXXXXXXXXX++OOooXXOOOOOOOOOOOOOOOOOO",
"OOOOOOOOOOOOOOOOOOOOOOOOOOXXXXXXXXXXXXXX                                                XXXXXXXXXXXXXX++OOOOOOOOOOOOOOOOOOOOOOOO",
"OOOOOOOOOOOOOOOOOOOOOOOOOOXXXXXXXXXXXXXX                                                XXXXXXXXXXXXXX++OOOOOOOOOOOOOOOOOOOOOOOO",
"XXXXXXXXXXXXXXXXXXXXXXXXXXXXXXXXXXXXXXXX                                                XXXXXXXXXXXXXXXXXXXXXXXXXXXXXXXXXXXXXXXX",
"XXXXXXXXXXXXXXXXXXXXXXXXXXXXXXXXXXXXXXXX                                                XXXXXXXXXXXXXXXXXXXXXXXXXXXXXXXXXXXXXXXX",
"++++++++++++++++++++++++++++++++++++XXXX                                                XXXX&&++++++++++++++++++++++++++++++++++",
"++++++++++++++++++++++++++++++++++++XXXX                                                XXXX&&++++++++++++++++++++++++++++++++++",
"OOOOOOOOOOOOOOOOOOOOOOOOOOOOOOOOOOOOXXXX                                                XXXX++OOOOOOOOOOOOOOOOOOOOOOOOOOOOOOOOOO",
"OOOOOOOOOOOOOOOOOOOOOOOOOOOOOOOOOOOOXXXX                                                XXXX++OOOOOOOOOOOOOOOOOOOOOOOOOOOOOOOOOO",
"OOOOOOOOOOOOOOOOOOOOOOOOOOOOOO++ooOOXXXX                                                XXXX++OO++ooOOOOOOOOOOOOOOOOOOOOOOOOOOOO",
"OOOOOOOOOOOOOOOOOOOOOOOOOOOOOO++ooOOXXXX                                                XXXX++OO++ooOOOOOOOOOOOOOOOOOOOOOOOOOOOO",
"OOOOOOOOOOOOOOOOOOOOOOOOOOOOOOooXXOOXXXX                                                XXXX++OOooXXOOOOOOOOOOOOOOOOOOOOOOOOOOOO",
"OOOOOOOOOOOOOOOOOOOOOOOOOOOOOOooXXOOXXXX                                                XXXX++OOooXXOOOOOOOOOOOOOOOOOOOOOOOOOOOO",
"OOOOOOOOOOOOOOOOOOOOOOOOOOOOOOOOOOOOXXXX                                                XXXX++OOOOOOOOOOOOOOOOOOOOOOOOOOOOOOOOOO",
"OOOOOOOOOOOOOOOOOOOOOOOOOOOOOOOOOOOOXXXX                                                XXXX++OOOOOOOOOOOOOOOOOOOOOOOOOOOOOOOOOO",
"OOOOOOOOOOOOOOOOOOOOOOOOOOOOOOOOOOOOXXXX                                                XXXX++OOOOOOOOOOOOOOOOOOOOOOOOOOOOOOOOOO",
"OOOOOOOOOOOOOOOOOOOOOOOOOOOOOOOOOOOOXXXX                                                XXXX++OOOOOOOOOOOOOOOOOOOOOOOOOOOOOOOOOO",
"OOOOOOOOOOOOOOOOOOOOOOOOOOOOOOOOOOOOXXXX                                                XXXX++OOOOOOOOOOOOOOOOOOOOOOOOOOOOOOOOOO",
"OOOOOOOOOOOOOOOOOOOOOOOOOOOOOOOOOOOOXXXX                                                XXXX++OOOOOOOOOOOOOOOOOOOOOOOOOOOOOOOOOO",
"OOOOOOOOOOOOOOOOOOOOOOOOOOOOOOOOOOOOXXXX                                                XXXX++OOOOOOOOOOOOOOOOOOOOOOOOOOOOOOOOOO",
"OOOOOOOOOOOOOOOOOOOOOOOOOOOOOOOOOOOOXXXX                                                XXXX++OOOOOOOOOOOOOOOOOOOOOOOOOOOOOOOOOO",
"OOOOOOOOOOOOOOOOOOOOOOOOOOOOOOOOOOOOXXXX                                                XXXX++OOOOOOOOOOOOOOOOOOOOOOOOOOOOOOOOOO",
"OOOOOOOOOOOOOOOOOOOOOOOOOOOOOOOOOOOOXXXX                                                XXXX++OOOOOOOOOOOOOOOOOOOOOOOOOOOOOOOOOO",
"OOOOOOOOOOOOOOOOOOOOOOOOOOOOOOOOOOOOXXXX                                                XXXX++OOOOOOOOOOOOOOOOOOOOOOOOOOOOOOOOOO",
"OOOOOOOOOOOOOOOOOOOOOOOOOOOOOOOOOOOOXXXX                                                XXXX++OOOOOOOOOOOOOOOOOOOOOOOOOOOOOOOOOO",
"OOOOOOOOOOOOOOOOOOOOOOOOOOOOOO++ooOOXXXX                                                XXXX++OO++ooOOOOOOOOOOOOOOOOOOOOOOOOOOOO",
"OOOOOOOOOOOOOOOOOOOOOOOOOOOOOO++ooOOXXXX                                                XXXX++OO++ooOOOOOOOOOOOOOOOOOOOOOOOOOOOO",
"OOOOOOOOOOOOOOOOOOOOOOOOOOOOOOooXXOOXXXX                                                XXXX++OOooXXOOOOOOOOOOOOOOOOOOOOOOOOOOOO",
"OOOOOOOOOOOOOOOOOOOOOOOOOOOOOOooXXOOXXXX                                                XXXX++OOooXXOOOOOOOOOOOOOOOOOOOOOOOOOOOO",
"OOOOOOOOOOOOOOOOOOOOOOOOOOOOOOOOOOOOXXXX                                                XXXX++OOOOOOOOOOOOOOOOOOOOOOOOOOOOOOOOOO",
"OOOOOOOOOOOOOOOOOOOOOOOOOOOOOOOOOOOOXXXX                                                XXXX++OOOOOOOOOOOOOOOOOOOOOOOOOOOOOOOOOO",
"XXXXXXXXXXXXXXXXXXXXXXXXXXXXXXXXXXXXXXXX                                                XXXXXXXXXXXXXXXXXXXXXXXXXXXXXXXXXXXXXXXX",
"XXXXXXXXXXXXXXXXXXXXXXXXXXXXXXXXXXXXXXXX                                                XXXXXXXXXXXXXXXXXXXXXXXXXXXXXXXXXXXXXXXX",
"++++++++++++++++++++++++++++++++++++XXXX                                                XXXX++++++++++++++++++++++++++++++++++++",
"++++++++++++++++++++++++++++++++++++XXXX                                                XXXX++++++++++++++++++++++++++++++++++++",
"OOOOOOOOOOOOOOOOOOOOOOOOOOOOOOOOOOOOXXXX                                                XXXXOOOOOOOOOOOOOOOOOOOOOOOOOOOOOOOOOOOO",
"OOOOOOOOOOOOOOOOOOOOOOOOOOOOOOOOOOOOXXXX                                                XXXXOOOOOOOOOOOOOOOOOOOOOOOOOOOOOOOOOOOO",
"OOOOOOOOOOOOOOOOOOOOOOOOOOOOOOOOOOOOXXXX                                                XXXXOOOOOOOOOOOOOOOOOOOOOOOOOOOOOOOOOOOO",
"OOOOOOOOOOOOOOOOOOOOOOOOOOOOOOOOOOOOXXXX                                                XXXXOOOOOOOOOOOOOOOOOOOOOOOOOOOOOOOOOOOO",
"OOOOOOOOOOOOOOOOOOOOOOOOOOOOOOOOOOOOXXXX                                                XXXXOOOOOOOOOOOOOOOOOOOOOOOOOOOOOOOOOOOO",
"OOOOOOOOOOOOOOOOOOOOOOOOOOOOOOOOOOOOXXXX                                                XXXXOOOOOOOOOOOOOOOOOOOOOOOOOOOOOOOOOOOO",
"OOOOOOOOOOOOOOOOOOOOOOOOOOOOOOOOOOOOXXXX                                                XXXXOOOOOOOOOOOOOOOOOOOOOOOOOOOOOOOOOOOO",
"OOOOOOOOOOOOOOOOOOOOOOOOOOOOOOOOOOOOXXXX                                                XXXXOOOOOOOOOOOOOOOOOOOOOOOOOOOOOOOOOOOO",
"OOOOOOOOOOOOOOOOOOOOOOOOOOOOOOOOOOOOXXXX                                                XXXXOOOOOOOOOOOOOOOOOOOOOOOOOOOOOOOOOOOO",
"OOOOOOOOOOOOOOOOOOOOOOOOOOOOOOOOOOOOXXXX                                                XXXXOOOOOOOOOOOOOOOOOOOOOOOOOOOOOOOOOOOO",
"OOOOOOOOOOOOOOOOOOOOOOOOOOOOOOOOOOOOXXXX                                                XXXXOOOOOOOOOOOOOOOOOOOOOOOOOOOOOOOOOOOO",
"OOOOOOOOOOOOOOOOOOOOOOOOOOOOOOOOOOOOXXXX                                                XXXXOOOOOOOOOOOOOOOOOOOOOOOOOOOOOOOOOOOO",
"XXXXXXXXXXXXXXXXXXXXXXXXXXXXXXXXXXXXXXXX                                                XXXXXXXXXXXXXXXXXXXXXXXXXXXXXXXXXXXXXXXX",
"XXXXXXXXXXXXXXXXXXXXXXXXXXXXXXXXXXXXXXXX                                                XXXXXXXXXXXXXXXXXXXXXXXXXXXXXXXXXXXXXXXX"
};
