/* XPM */
static char *_5395d2ab3b0485ac02f0d7104920b38hxW9dSjCeOTOfXB0[] = {
/* columns rows colors chars-per-pixel */
"128 128 8 1 ",
"  c None",
". c #000008",
"X c gray20",
"o c #434343",
"O c #535353",
"+ c #777777",
"@ c #7FB717",
"# c gray53",
/* pixels */
"++++++++++++                                                                                                        ++++++++++++",
"++++++++++++                                                                                                        ++++++++++++",
"OOOOOOOOOOXX                                                                                                        XXOOOOOOOOOO",
"OOOOOOOOOOXX                                                                                                        XXOOOOOOOOOO",
"OOOOOOOOOOXX                                                                                                        XXOOOOOOOOOO",
"OOOOOOOOOOXX                                                                                                        XXOOOOOOOOOO",
"XXXXXXXXXXXX                                                                                                        XXXXXXXXXXXX",
"XXXXXXXXXXXX                                                                                                        XXXXXXXXXXXX",
"++++++++XXXX                                                                                                        XXXX##++++++",
"++++++++XXXX                                                                                                        XXXX##++++++",
"OOOOOOOOXXXX                                                                                                        XXXX++OOOOOO",
"OOOOOOOOXXXX                                                                                                        XXXX++OOOOOO",
"OO++ooOOXXXX                                                                                                        XXXX++OO++oo",
"OO++ooOOXXXX                                                                                                        XXXX++OO++oo",
"OOooXXOOXXXX                                                                                                        XXXX++OOooXX",
"OOooXXOOXXXX                                                                                                        XXXX++OOooXX",
"OOOOOOOOXXXX                                                                                                        XXXX++OOOOOO",
"OOOOOOOOXXXX                                                                                                        XXXX++OOOOOO",
"OOOOOOOOXXXX                                                                                                        XXXX++OOOOOO",
"OOOOOOOOXXXX                                                                                                        XXXX++OOOOOO",
"OOOOOOOOXXXX                                                                                                        XXXX++OOOOOO",
"OOOOOOOOXXXX                                                                                                        XXXX++OOOOOO",
"OOOOOOOOXXXX                                                                                                        XXXX++OOOOOO",
"OOOOOOOOXXXX                                                                                                        XXXX++OOOOOO",
"OOOOOOOOXXXX                                                                                                        XXXX++OOOOOO",
"OOOOOOOOXXXX                                                                                                        XXXX++OOOOOO",
"OOOOOOOOXXXX                                                                                                        XXXX++OOOOOO",
"OOOOOOOOXXXX                                                                                                        XXXX++OOOOOO",
"OOOOOOOOXXXX                                                                                                        XXXX++OOOOOO",
"OOOOOOOOXXXX                                                                                                        XXXX++OOOOOO",
"OOOOOOOOXXXX                                                                                                        XXXX++OOOOOO",
"OOOOOOOOXXXX                                                                                                        XXXX++OOOOOO",
"OOOOOOOOXXXX                                                                                                        XXXX++OOOOOO",
"OOOOOOOOXXXX                                                                                                        XXXX++OOOOOO",
"OOOOOOOOXXXX                                                                                                        XXXX++OOOOOO",
"OOOOOOOOXXXX                                                                                                        XXXX++OOOOOO",
"OOOOOOOOXXXX                                                                                                        XXXX++OOOOOO",
"OOOOOOOOXXXX                                                                                                        XXXX++OOOOOO",
"OOOOOOOOXXXX                                                                                                        XXXX++OOOOOO",
"OOOOOOOOXXXX                                                                                                        XXXX++OOOOOO",
"OOOOOOOOXXXX                                                                                                        XXXX++OOOOOO",
"OOOOOOOOXXXX                                                                                                        XXXX++OOOOOO",
"OOOOOOOOXXXX                                                                                                        XXXX++OOOOOO",
"OOOOOOOOXXXX                                                                                                        XXXX++OOOOOO",
"OO++ooOOXXXX                                                                                                        XXXX++OO++oo",
"OO++ooOOXXXX                                                                                                        XXXX++OO++oo",
"OOooXXOOXXXX                                                                                                        XXXX++OOooXX",
"OOooXXOOXXXX                                                                                                        XXXX++OOooXX",
"OOOOOOOOXXXX                                                                                                        XXXX++OOOOOO",
"OOOOOOOOXXXX                                                                                                        XXXX++OOOOOO",
"XXXXXXXXXXXX                                                                                                        XXXXXXXXXXXX",
"XXXXXXXXXXXX                                                                                                        XXXXXXXXXXXX",
"##++++++XXXX                                                                                                        XX##++++++XX",
"##++++++XXXX                                                                                                        XX##++++++XX",
"++OOOOOOXXXX                                                                                                        XX++OOOOOOXX",
"++OOOOOOXXXX                                                                                                        XX++OOOOOOXX",
"++OOOOOOXXXX                                                                                                        XX++OOOOOOXX",
"++OOOOOOXXXX                                                                                                        XX++OOOOOOXX",
"++OOOOOOXXXX                                                                                                        XX++OOOOOOXX",
"++OOOOOOXXXX                                                                                                        XX++OOOOOOXX",
"++@@@@@@XXXX                                                                                                        XX++@@@@@@XX",
"++@@@@@@XXXX                                                                                                        XX++@@@@@@XX",
"++@@@@@@XXXX                                                                                                        XX++@@@@@@XX",
"++@@@@@@XXXX                                                                                                        XX++@@@@@@XX",
"++OOOOOOXXXX                                                                                                        XX++OOOOOOXX",
"++OOOOOOXXXX                                                                                                        XX++OOOOOOXX",
"++OOXXXXXXXX                                                                                                        XX++XXXXOOXX",
"++OOXXXXXXXX                                                                                                        XX++XXXXOOXX",
"++OO....XXXX                                                                                                        XX++....OOXX",
"++OO....XXXX                                                                                                        XX++....OOXX",
"++OO....XXXX                                                                                                        XX++....OOXX",
"++OO....XXXX                                                                                                        XX++....OOXX",
"++OO....XXXX                                                                                                        XX++....OOXX",
"++OO....XXXX                                                                                                        XX++....OOXX",
"++OO....XXXX                                                                                                        XX++....OOXX",
"++OO....XXXX                                                                                                        XX++....OOXX",
"++OOOOOOXXXX                                                                                                        XX++OOOOOOXX",
"++OOOOOOXXXX                                                                                                        XX++OOOOOOXX",
"XXXXXXXXXXXX                                                                                                        XXXXXXXXXXXX",
"XXXXXXXXXXXX                                                                                                        XXXXXXXXXXXX",
"XXXXXXXXXXXX                                                                                                        XXXXXXXXXXXX",
"XXXXXXXXXXXX                                                                                                        XXXXXXXXXXXX",
"XXXXXXXXXXXX                                                                                                        XXXXXXXXXXXX",
"XXXXXXXXXXXX                                                                                                        XXXXXXXXXXXX",
"++++++++XXXX                                                                                                        XXXX##++++++",
"++++++++XXXX                                                                                                        XXXX##++++++",
"OOOOOOOOXXXX                                                                                                        XXXX++OOOOOO",
"OOOOOOOOXXXX                                                                                                        XXXX++OOOOOO",
"OO++ooOOXXXX                                                                                                        XXXX++OO++oo",
"OO++ooOOXXXX                                                                                                        XXXX++OO++oo",
"OOooXXOOXXXX                                                                                                        XXXX++OOooXX",
"OOooXXOOXXXX                                                                                                        XXXX++OOooXX",
"OOOOOOOOXXXX                                                                                                        XXXX++OOOOOO",
"OOOOOOOOXXXX                                                                                                        XXXX++OOOOOO",
"OOOOOOOOXXXX                                                                                                        XXXX++OOOOOO",
"OOOOOOOOXXXX                                                                                                        XXXX++OOOOOO",
"OOOOOOOOXXXX                                                                                                        XXXX++OOOOOO",
"OOOOOOOOXXXX                                                                                                        XXXX++OOOOOO",
"OOOOOOOOXXXX                                                                                                        XXXX++OOOOOO",
"OOOOOOOOXXXX                                                                                                        XXXX++OOOOOO",
"OOOOOOOOXXXX                                                                                                        XXXX++OOOOOO",
"OOOOOOOOXXXX                                                                                                        XXXX++OOOOOO",
"OOOOOOOOXXXX                                                                                                        XXXX++OOOOOO",
"OOOOOOOOXXXX                                                                                                        XXXX++OOOOOO",
"OO++ooOOXXXX                                                                                                        XXXX++OO++oo",
"OO++ooOOXXXX                                                                                                        XXXX++OO++oo",
"OOooXXOOXXXX                                                                                                        XXXX++OOooXX",
"OOooXXOOXXXX                                                                                                        XXXX++OOooXX",
"OOOOOOOOXXXX                                                                                                        XXXX++OOOOOO",
"OOOOOOOOXXXX                                                                                                        XXXX++OOOOOO",
"XXXXXXXXXXXX                                                                                                        XXXXXXXXXXXX",
"XXXXXXXXXXXX                                                                                                        XXXXXXXXXXXX",
"++++++++XXXX                                                                                                        XXXX++++++++",
"++++++++XXXX                                                                                                        XXXX++++++++",
"OOOOOOOOXXXX                                                                                                        XXXXOOOOOOOO",
"OOOOOOOOXXXX                                                                                                        XXXXOOOOOOOO",
"OOOOOOOOXXXX                                                                                                        XXXXOOOOOOOO",
"OOOOOOOOXXXX                                                                                                        XXXXOOOOOOOO",
"OOOOOOOOXXXX                                                                                                        XXXXOOOOOOOO",
"OOOOOOOOXXXX                                                                                                        XXXXOOOOOOOO",
"OOOOOOOOXXXX                                                                                                        XXXXOOOOOOOO",
"OOOOOOOOXXXX                                                                                                        XXXXOOOOOOOO",
"OOOOOOOOXXXX                                                                                                        XXXXOOOOOOOO",
"OOOOOOOOXXXX                                                                                                        XXXXOOOOOOOO",
"OOOOOOOOXXXX                                                                                                        XXXXOOOOOOOO",
"OOOOOOOOXXXX                                                                                                        XXXXOOOOOOOO",
"XXXXXXXXXXXX                                                                                                        XXXXXXXXXXXX",
"XXXXXXXXXXXX                                                                                                        XXXXXXXXXXXX"
};
