/* XPM */
static char *a4338a18e5714a8ace74da3908df4190wPKF1952TYCurUqf[] = {
/* columns rows colors chars-per-pixel */
"128 128 8 1 ",
"  c None",
". c #000008",
"X c gray20",
"o c #434343",
"O c #535353",
"+ c #777777",
"@ c #7FB717",
"# c gray53",
/* pixels */
"+++++++++++++++++++++                                                                                      +++++++++++++++++++++",
"+++++++++++++++++++++                                                                                      +++++++++++++++++++++",
"OOOOOOOOOOOOOOOOOOOXX                                                                                      XXOOOOOOOOOOOOOOOOOOO",
"OOOOOOOOOOOOOOOOOOOXX                                                                                      XXOOOOOOOOOOOOOOOOOOO",
"OOOOOOOOOOOOOOOOOOOXX                                                                                      XXOOOOOOOOOOOOOOOOOOO",
"OOOOOOOOOOOOOOOOOOOXX                                                                                      XXOOOOOOOOOOOOOOOOOOO",
"XXXXXXXXXXXXXXXXXXXXX                                                                                      XXXXXXXXXXXXXXXXXXXXX",
"XXXXXXXXXXXXXXXXXXXXX                                                                                      XXXXXXXXXXXXXXXXXXXXX",
"+++++++++++++++++XXXX                                                                                      XXXX##+++++++++++++++",
"+++++++++++++++++XXXX                                                                                      XXXX##+++++++++++++++",
"OOOOOOOOOOOOOOOOOXXXX                                                                                      XXXX++OOOOOOOOOOOOOOO",
"OOOOOOOOOOOOOOOOOXXXX                                                                                      XXXX++OOOOOOOOOOOOOOO",
"OOOOOOOOOOO++ooOOXXXX                                                                                      XXXX++OO++ooOOOOOOOOO",
"OOOOOOOOOOO++ooOOXXXX                                                                                      XXXX++OO++ooOOOOOOOOO",
"OOOOOOOOOOOooXXOOXXXX                                                                                      XXXX++OOooXXOOOOOOOOO",
"OOOOOOOOOOOooXXOOXXXX                                                                                      XXXX++OOooXXOOOOOOOOO",
"OOOOOOOOOOOOOOOOOXXXX                                                                                      XXXX++OOOOOOOOOOOOOOO",
"OOOOOOOOOOOOOOOOOXXXX                                                                                      XXXX++OOOOOOOOOOOOOOO",
"OOOOOOOOOOOOOOOOOXXXX                                                                                      XXXX++OOOOOOOOOOOOOOO",
"OOOOOOOOOOOOOOOOOXXXX                                                                                      XXXX++OOOOOOOOOOOOOOO",
"OOOOOOOOOOOOOOOOOXXXX                                                                                      XXXX++OOOOOOOOOOOOOOO",
"OOOOOOOOOOOOOOOOOXXXX                                                                                      XXXX++OOOOOOOOOOOOOOO",
"OOOOOOOOOOOOOOOOOXXXX                                                                                      XXXX++OOOOOOOOOOOOOOO",
"OOOOOOOOOOOOOOOOOXXXX                                                                                      XXXX++OOOOOOOOOOOOOOO",
"OOOOOOOOOOOOOOOOOXXXX                                                                                      XXXX++OOOOOOOOOOOOOOO",
"OOOOOOOOOOOOOOOOOXXXX                                                                                      XXXX++OOOOOOOOOOOOOOO",
"OOOOOOOOOOOOOOOOOXXXX                                                                                      XXXX++OOOOOOOOOOOOOOO",
"OOOOOOOOOOOOOOOOOXXXX                                                                                      XXXX++OOOOOOOOOOOOOOO",
"OOOOOOOOOOOOOOOOOXXXX                                                                                      XXXX++OOOOOOOOOOOOOOO",
"OOOOOOOOOOOOOOOOOXXXX                                                                                      XXXX++OOOOOOOOOOOOOOO",
"OOOOOOOOOOOOOOOOOXXXX                                                                                      XXXX++OOOOOOOOOOOOOOO",
"OOOOOOOOOOOOOOOOOXXXX                                                                                      XXXX++OOOOOOOOOOOOOOO",
"OOOOOOOOOOOOOOOOOXXXX                                                                                      XXXX++OOOOOOOOOOOOOOO",
"OOOOOOOOOOOOOOOOOXXXX                                                                                      XXXX++OOOOOOOOOOOOOOO",
"OOOOOOOOOOOOOOOOOXXXX                                                                                      XXXX++OOOOOOOOOOOOOOO",
"OOOOOOOOOOOOOOOOOXXXX                                                                                      XXXX++OOOOOOOOOOOOOOO",
"OOOOOOOOOOOOOOOOOXXXX                                                                                      XXXX++OOOOOOOOOOOOOOO",
"OOOOOOOOOOOOOOOOOXXXX                                                                                      XXXX++OOOOOOOOOOOOOOO",
"OOOOOOOOOOOOOOOOOXXXX                                                                                      XXXX++OOOOOOOOOOOOOOO",
"OOOOOOOOOOOOOOOOOXXXX                                                                                      XXXX++OOOOOOOOOOOOOOO",
"OOOOOOOOOOOOOOOOOXXXX                                                                                      XXXX++OOOOOOOOOOOOOOO",
"OOOOOOOOOOOOOOOOOXXXX                                                                                      XXXX++OOOOOOOOOOOOOOO",
"OOOOOOOOOOOOOOOOOXXXX                                                                                      XXXX++OOOOOOOOOOOOOOO",
"OOOOOOOOOOOOOOOOOXXXX                                                                                      XXXX++OOOOOOOOOOOOOOO",
"OOOOOOOOOOO++ooOOXXXX                                                                                      XXXX++OO++ooOOOOOOOOO",
"OOOOOOOOOOO++ooOOXXXX                                                                                      XXXX++OO++ooOOOOOOOOO",
"OOOOOOOOOOOooXXOOXXXX                                                                                      XXXX++OOooXXOOOOOOOOO",
"OOOOOOOOOOOooXXOOXXXX                                                                                      XXXX++OOooXXOOOOOOOOO",
"OOOOOOOOOOOOOOOOOXXXX                                                                                      XXXX++OOOOOOOOOOOOOOO",
"OOOOOOOOOOOOOOOOOXXXX                                                                                      XXXX++OOOOOOOOOOOOOOO",
"XXXXXXXXXXXXXXXXXXXXX                                                                                      XXXXXXXXXXXXXXXXXXXXX",
"XXXXXXXXXXXXXXXXXXXXX                                                                                      XXXXXXXXXXXXXXXXXXXXX",
"+++++++XX##++++++XXXX                                                                                      XX##++++++XXXX##+++++",
"+++++++XX##++++++XXXX                                                                                      XX##++++++XXXX##+++++",
"OOOOOOOXX++OOOOOOXXXX                                                                                      XX++OOOOOOXXXX++OOOOO",
"OOOOOOOXX++OOOOOOXXXX                                                                                      XX++OOOOOOXXXX++OOOOO",
"O++ooOOXX++OOOOOOXXXX                                                                                      XX++OOOOOOXXXX++OO++o",
"O++ooOOXX++OOOOOOXXXX                                                                                      XX++OOOOOOXXXX++OO++o",
"OooXXOOXX++OOOOOOXXXX                                                                                      XX++OOOOOOXXXX++OOooX",
"OooXXOOXX++OOOOOOXXXX                                                                                      XX++OOOOOOXXXX++OOooX",
"OOOOOOOXX++@@@@@@XXXX                                                                                      XX++@@@@@@XXXX++OOOOO",
"OOOOOOOXX++@@@@@@XXXX                                                                                      XX++@@@@@@XXXX++OOOOO",
"OOOOOOOXX++@@@@@@XXXX                                                                                      XX++@@@@@@XXXX++OOOOO",
"OOOOOOOXX++@@@@@@XXXX                                                                                      XX++@@@@@@XXXX++OOOOO",
"OOOOOOOXX++OOOOOOXXXX                                                                                      XX++OOOOOOXXXX++OOOOO",
"OOOOOOOXX++OOOOOOXXXX                                                                                      XX++OOOOOOXXXX++OOOOO",
"OOOOOOOXX++OOXXXXXXXX                                                                                      XX++XXXXOOXXXX++OOOOO",
"OOOOOOOXX++OOXXXXXXXX                                                                                      XX++XXXXOOXXXX++OOOOO",
"OOOOOOOXX++OO....XXXX                                                                                      XX++....OOXXXX++OOOOO",
"OOOOOOOXX++OO....XXXX                                                                                      XX++....OOXXXX++OOOOO",
"OOOOOOOXX++OO....XXXX                                                                                      XX++....OOXXXX++OOOOO",
"OOOOOOOXX++OO....XXXX                                                                                      XX++....OOXXXX++OOOOO",
"OOOOOOOXX++OO....XXXX                                                                                      XX++....OOXXXX++OOOOO",
"OOOOOOOXX++OO....XXXX                                                                                      XX++....OOXXXX++OOOOO",
"OOOOOOOXX++OO....XXXX                                                                                      XX++....OOXXXX++OOOOO",
"OOOOOOOXX++OO....XXXX                                                                                      XX++....OOXXXX++OOOOO",
"O++ooOOXX++OOOOOOXXXX                                                                                      XX++OOOOOOXXXX++OO++o",
"O++ooOOXX++OOOOOOXXXX                                                                                      XX++OOOOOOXXXX++OO++o",
"OooXXOOXXXXXXXXXXXXXX                                                                                      XXXXXXXXXXXXXX++OOooX",
"OooXXOOXXXXXXXXXXXXXX                                                                                      XXXXXXXXXXXXXX++OOooX",
"OOOOOOOXXXXXXXXXXXXXX                                                                                      XXXXXXXXXXXXXX++OOOOO",
"OOOOOOOXXXXXXXXXXXXXX                                                                                      XXXXXXXXXXXXXX++OOOOO",
"XXXXXXXXXXXXXXXXXXXXX                                                                                      XXXXXXXXXXXXXXXXXXXXX",
"XXXXXXXXXXXXXXXXXXXXX                                                                                      XXXXXXXXXXXXXXXXXXXXX",
"+++++++++++++++++XXXX                                                                                      XXXX##+++++++++++++++",
"+++++++++++++++++XXXX                                                                                      XXXX##+++++++++++++++",
"OOOOOOOOOOOOOOOOOXXXX                                                                                      XXXX++OOOOOOOOOOOOOOO",
"OOOOOOOOOOOOOOOOOXXXX                                                                                      XXXX++OOOOOOOOOOOOOOO",
"OOOOOOOOOOO++ooOOXXXX                                                                                      XXXX++OO++ooOOOOOOOOO",
"OOOOOOOOOOO++ooOOXXXX                                                                                      XXXX++OO++ooOOOOOOOOO",
"OOOOOOOOOOOooXXOOXXXX                                                                                      XXXX++OOooXXOOOOOOOOO",
"OOOOOOOOOOOooXXOOXXXX                                                                                      XXXX++OOooXXOOOOOOOOO",
"OOOOOOOOOOOOOOOOOXXXX                                                                                      XXXX++OOOOOOOOOOOOOOO",
"OOOOOOOOOOOOOOOOOXXXX                                                                                      XXXX++OOOOOOOOOOOOOOO",
"OOOOOOOOOOOOOOOOOXXXX                                                                                      XXXX++OOOOOOOOOOOOOOO",
"OOOOOOOOOOOOOOOOOXXXX                                                                                      XXXX++OOOOOOOOOOOOOOO",
"OOOOOOOOOOOOOOOOOXXXX                                                                                      XXXX++OOOOOOOOOOOOOOO",
"OOOOOOOOOOOOOOOOOXXXX                                                                                      XXXX++OOOOOOOOOOOOOOO",
"OOOOOOOOOOOOOOOOOXXXX                                                                                      XXXX++OOOOOOOOOOOOOOO",
"OOOOOOOOOOOOOOOOOXXXX                                                                                      XXXX++OOOOOOOOOOOOOOO",
"OOOOOOOOOOOOOOOOOXXXX                                                                                      XXXX++OOOOOOOOOOOOOOO",
"OOOOOOOOOOOOOOOOOXXXX                                                                                      XXXX++OOOOOOOOOOOOOOO",
"OOOOOOOOOOOOOOOOOXXXX                                                                                      XXXX++OOOOOOOOOOOOOOO",
"OOOOOOOOOOOOOOOOOXXXX                                                                                      XXXX++OOOOOOOOOOOOOOO",
"OOOOOOOOOOO++ooOOXXXX                                                                                      XXXX++OO++ooOOOOOOOOO",
"OOOOOOOOOOO++ooOOXXXX                                                                                      XXXX++OO++ooOOOOOOOOO",
"OOOOOOOOOOOooXXOOXXXX                                                                                      XXXX++OOooXXOOOOOOOOO",
"OOOOOOOOOOOooXXOOXXXX                                                                                      XXXX++OOooXXOOOOOOOOO",
"OOOOOOOOOOOOOOOOOXXXX                                                                                      XXXX++OOOOOOOOOOOOOOO",
"OOOOOOOOOOOOOOOOOXXXX                                                                                      XXXX++OOOOOOOOOOOOOOO",
"XXXXXXXXXXXXXXXXXXXXX                                                                                      XXXXXXXXXXXXXXXXXXXXX",
"XXXXXXXXXXXXXXXXXXXXX                                                                                      XXXXXXXXXXXXXXXXXXXXX",
"+++++++++++++++++XXXX                                                                                      XXXX+++++++++++++++++",
"+++++++++++++++++XXXX                                                                                      XXXX+++++++++++++++++",
"OOOOOOOOOOOOOOOOOXXXX                                                                                      XXXXOOOOOOOOOOOOOOOOO",
"OOOOOOOOOOOOOOOOOXXXX                                                                                      XXXXOOOOOOOOOOOOOOOOO",
"OOOOOOOOOOOOOOOOOXXXX                                                                                      XXXXOOOOOOOOOOOOOOOOO",
"OOOOOOOOOOOOOOOOOXXXX                                                                                      XXXXOOOOOOOOOOOOOOOOO",
"OOOOOOOOOOOOOOOOOXXXX                                                                                      XXXXOOOOOOOOOOOOOOOOO",
"OOOOOOOOOOOOOOOOOXXXX                                                                                      XXXXOOOOOOOOOOOOOOOOO",
"OOOOOOOOOOOOOOOOOXXXX                                                                                      XXXXOOOOOOOOOOOOOOOOO",
"OOOOOOOOOOOOOOOOOXXXX                                                                                      XXXXOOOOOOOOOOOOOOOOO",
"OOOOOOOOOOOOOOOOOXXXX                                                                                      XXXXOOOOOOOOOOOOOOOOO",
"OOOOOOOOOOOOOOOOOXXXX                                                                                      XXXXOOOOOOOOOOOOOOOOO",
"OOOOOOOOOOOOOOOOOXXXX                                                                                      XXXXOOOOOOOOOOOOOOOOO",
"OOOOOOOOOOOOOOOOOXXXX                                                                                      XXXXOOOOOOOOOOOOOOOOO",
"XXXXXXXXXXXXXXXXXXXXX                                                                                      XXXXXXXXXXXXXXXXXXXXX",
"XXXXXXXXXXXXXXXXXXXXX                                                                                      XXXXXXXXXXXXXXXXXXXXX"
};
