/* XPM */
static char *bc5302b2989d4a4da462c676d4ed3819VWXIIh83G6TSpPQH[] = {
/* columns rows colors chars-per-pixel */
"128 128 10 1 ",
"  c None",
". c #000008",
"X c gray20",
"o c #434343",
"O c #535353",
"+ c #777777",
"@ c #7FB717",
"# c #A3D337",
"$ c #C7EF63",
"% c gray53",
/* pixels */
"+++++++++++++++++++++++++++++++                                                                  +++++++++++++++++++++++++++++++",
"+++++++++++++++++++++++++++++++                                                                  +++++++++++++++++++++++++++++++",
"OOOOOOOOOOOOOOOOOOOOOOOOOOOOOXX                                                                  XXOOOOOOOOOOOOOOOOOOOOOOOOOOOOO",
"OOOOOOOOOOOOOOOOOOOOOOOOOOOOOXX                                                                  XXOOOOOOOOOOOOOOOOOOOOOOOOOOOOO",
"OOOOOOOOOOOOOOOOOOOOOOOOOOOOOXX                                                                  XXOOOOOOOOOOOOOOOOOOOOOOOOOOOOO",
"OOOOOOOOOOOOOOOOOOOOOOOOOOOOOXX                                                                  XXOOOOOOOOOOOOOOOOOOOOOOOOOOOOO",
"XXXXXXXXXXXXXXXXXXXXXXXXXXXXXXX                                                                  XXXXXXXXXXXXXXXXXXXXXXXXXXXXXXX",
"XXXXXXXXXXXXXXXXXXXXXXXXXXXXXXX                                                                  XXXXXXXXXXXXXXXXXXXXXXXXXXXXXXX",
"+++++++++++++++++++++++++++XXXX                                                                  XXXX%%+++++++++++++++++++++++++",
"+++++++++++++++++++++++++++XXXX                                                                  XXXX%%+++++++++++++++++++++++++",
"OOOOOOOOOOOOOOOOOOOOOOOOOOOXXXX                                                                  XXXX++OOOOOOOOOOOOOOOOOOOOOOOOO",
"OOOOOOOOOOOOOOOOOOOOOOOOOOOXXXX                                                                  XXXX++OOOOOOOOOOOOOOOOOOOOOOOOO",
"OOOOOOOOOOOOOOOOOOOOO++ooOOXXXX                                                                  XXXX++OO++ooOOOOOOOOOOOOOOOOOOO",
"OOOOOOOOOOOOOOOOOOOOO++ooOOXXXX                                                                  XXXX++OO++ooOOOOOOOOOOOOOOOOOOO",
"OOOOOOOOOOOOOOOOOOOOOooXXOOXXXX                                                                  XXXX++OOooXXOOOOOOOOOOOOOOOOOOO",
"OOOOOOOOOOOOOOOOOOOOOooXXOOXXXX                                                                  XXXX++OOooXXOOOOOOOOOOOOOOOOOOO",
"OOOOOOOOOOOOOOOOOOOOOOOOOOOXXXX                                                                  XXXX++OOOOOOOOOOOOOOOOOOOOOOOOO",
"OOOOOOOOOOOOOOOOOOOOOOOOOOOXXXX                                                                  XXXX++OOOOOOOOOOOOOOOOOOOOOOOOO",
"OOOOOOOOOOOOOOOOOOOOOOOOOOOXXXX                                                                  XXXX++OOOOOOOOOOOOOOOOOOOOOOOOO",
"OOOOOOOOOOOOOOOOOOOOOOOOOOOXXXX                                                                  XXXX++OOOOOOOOOOOOOOOOOOOOOOOOO",
"OOOOOOOOOOOOOOOOOOOOOOOOOOOXXXX                                                                  XXXX++OOOOOOOOOOOOOOOOOOOOOOOOO",
"OOOOOOOOOOOOOOOOOOOOOOOOOOOXXXX                                                                  XXXX++OOOOOOOOOOOOOOOOOOOOOOOOO",
"OOOOOOOOOOOOOOOOOOOOOOOOOOOXXXX                                                                  XXXX++OOOOOOOOOOOOOOOOOOOOOOOOO",
"OOOOOOOOOOOOOOOOOOOOOOOOOOOXXXX                                                                  XXXX++OOOOOOOOOOOOOOOOOOOOOOOOO",
"OOOOOOOOOOOOOOOOOOOOOOOOOOOXXXX                                                                  XXXX++OOOOOOOOOOOOOOOOOOOOOOOOO",
"OOOOOOOOOOOOOOOOOOOOOOOOOOOXXXX                                                                  XXXX++OOOOOOOOOOOOOOOOOOOOOOOOO",
"OOOOOOOOOOOOOOOOOOOOOOOOOOOXXXX                                                                  XXXX++OOOOOOOOOOOOOOOOOOOOOOOOO",
"OOOOOOOOOOOOOOOOOOOOOOOOOOOXXXX                                                                  XXXX++OOOOOOOOOOOOOOOOOOOOOOOOO",
"OOOOOOOOOOOOOOOOOOOOOOOOOOOXXXX                                                                  XXXX++OOOOOOOOOOOOOOOOOOOOOOOOO",
"OOOOOOOOOOOOOOOOOOOOOOOOOOOXXXX                                                                  XXXX++OOOOOOOOOOOOOOOOOOOOOOOOO",
"OOOOOOOOOOOOOOOOOOOOOOOOOOOXXXX                                                                  XXXX++OOOOOOOOOOOOOOOOOOOOOOOOO",
"OOOOOOOOOOOOOOOOOOOOOOOOOOOXXXX                                                                  XXXX++OOOOOOOOOOOOOOOOOOOOOOOOO",
"OOOOOOOOOOOOOOOOOOOOOOOOOOOXXXX                                                                  XXXX++OOOOOOOOOOOOOOOOOOOOOOOOO",
"OOOOOOOOOOOOOOOOOOOOOOOOOOOXXXX                                                                  XXXX++OOOOOOOOOOOOOOOOOOOOOOOOO",
"OOOOOOOOOOOOOOOOOOOOOOOOOOOXXXX                                                                  XXXX++OOOOOOOOOOOOOOOOOOOOOOOOO",
"OOOOOOOOOOOOOOOOOOOOOOOOOOOXXXX                                                                  XXXX++OOOOOOOOOOOOOOOOOOOOOOOOO",
"OOOOOOOOOOOOOOOOOOOOOOOOOOOXXXX                                                                  XXXX++OOOOOOOOOOOOOOOOOOOOOOOOO",
"OOOOOOOOOOOOOOOOOOOOOOOOOOOXXXX                                                                  XXXX++OOOOOOOOOOOOOOOOOOOOOOOOO",
"OOOOOOOOOOOOOOOOOOOOOOOOOOOXXXX                                                                  XXXX++OOOOOOOOOOOOOOOOOOOOOOOOO",
"OOOOOOOOOOOOOOOOOOOOOOOOOOOXXXX                                                                  XXXX++OOOOOOOOOOOOOOOOOOOOOOOOO",
"OOOOOOOOOOOOOOOOOOOOOOOOOOOXXXX                                                                  XXXX++OOOOOOOOOOOOOOOOOOOOOOOOO",
"OOOOOOOOOOOOOOOOOOOOOOOOOOOXXXX                                                                  XXXX++OOOOOOOOOOOOOOOOOOOOOOOOO",
"OOOOOOOOOOOOOOOOOOOOOOOOOOOXXXX                                                                  XXXX++OOOOOOOOOOOOOOOOOOOO+++++",
"OOOOOOOOOOOOOOOOOOOOOOOOOOOXXXX                                                                  XXXX++OOOOOOOOOOOOOOOOOOOO+++++",
"OOOOOOOOOOOOOOOOOOOOO++ooOOXXXX                                                                  XXXX++OO++ooOOOOOOOOOOOO++.....",
"OOOOOOOOOOOOOOOOOOOOO++ooOOXXXX                                                                  XXXX++OO++ooOOOOOOOOOOOO++.....",
"OOOOOOOOOOOOOOOOOOOOOooXXOOXXXX                                                                  XXXX++OOooXXOOOOOOOOOOOO++.....",
"OOOOOOOOOOOOOOOOOOOOOooXXOOXXXX                                                                  XXXX++OOooXXOOOOOOOOOOOO++.....",
"OOOOOOOOOOOOOOOOOOOOOOOOOOOXXXX                                                                  XXXX++OOOOOOOOOOOOOOOOOO++....$",
"OOOOOOOOOOOOOOOOOOOOOOOOOOOXXXX                                                                  XXXX++OOOOOOOOOOOOOOOOOO++....$",
"XXXXXXXXXXXXXXXXXXXXXXXXXXXXXXX                                                                  XXXXXXXXXXXXXXXXXXXXXXXX++....#",
"XXXXXXXXXXXXXXXXXXXXXXXXXXXXXXX                                                                  XXXXXXXXXXXXXXXXXXXXXXXX++....#",
"+++++++++++++++++XX%%++++++XXXX                                                                  XX%%++++++XXXX%%++++++++++....#",
"+++++++++++++++++XX%%++++++XXXX                                                                  XX%%++++++XXXX%%++++++++++....#",
"OOOOOOOOOOOOOOOOOXX++OOOOOOXXXX                                                                  XX++OOOOOOXXXX++OOOOOOOO++....#",
"OOOOOOOOOOOOOOOOOXX++OOOOOOXXXX                                                                  XX++OOOOOOXXXX++OOOOOOOO++....#",
"OOOOOOOOOOO++ooOOXX++OOOOOOXXXX                                                                  XX++OOOOOOXXXX++OO++ooOO++....@",
"OOOOOOOOOOO++ooOOXX++OOOOOOXXXX                                                                  XX++OOOOOOXXXX++OO++ooOO++....@",
"OOOOOOOOOOOooXXOOXX++OOOOOOXXXX                                                                  XX++OOOOOOXXXX++OOooXXOO++.....",
"OOOOOOOOOOOooXXOOXX++OOOOOOXXXX                                                                  XX++OOOOOOXXXX++OOooXXOO++.....",
"OOOOOOOOOOOOOOOOOXX++@@@@@@XXXX                                                                  XX++@@@@@@XXXX++OOOOOOOO++....+",
"OOOOOOOOOOOOOOOOOXX++@@@@@@XXXX                                                                  XX++@@@@@@XXXX++OOOOOOOO++....+",
"OOOOOOOOOOOOOOOOOXX++@@@@@@XXXX                                                                  XX++@@@@@@XXXX++OOOOOOOO++....+",
"OOOOOOOOOOOOOOOOOXX++@@@@@@XXXX                                                                  XX++@@@@@@XXXX++OOOOOOOO++....+",
"OOOOOOOOOOOOOOOOOXX++OOOOOOXXXX                                                                  XX++OOOOOOXXXX++OOOOOOOO++.....",
"OOOOOOOOOOOOOOOOOXX++OOOOOOXXXX                                                                  XX++OOOOOOXXXX++OOOOOOOO++.....",
"OOOOOOOOOOOOOOOOOXX++OOXXXXXXXX                                                                  XX++XXXXOOXXXX++OOOOOOOO++....+",
"OOOOOOOOOOOOOOOOOXX++OOXXXXXXXX                                                                  XX++XXXXOOXXXX++OOOOOOOO++....+",
"OOOOOOOOOOOOOOOOOXX++OO....XXXX                                                                  XX++....OOXXXX++OOOOOOOO++....+",
"OOOOOOOOOOOOOOOOOXX++OO....XXXX                                                                  XX++....OOXXXX++OOOOOOOO++....+",
"OOOOOOOOOOOOOOOOOXX++OO....XXXX                                                                  XX++....OOXXXX++OOOOOOOO++.....",
"OOOOOOOOOOOOOOOOOXX++OO....XXXX                                                                  XX++....OOXXXX++OOOOOOOO++.....",
"OOOOOOOOOOOOOOOOOXX++OO....XXXX                                                                  XX++....OOXXXX++OOOOOOOO++.....",
"OOOOOOOOOOOOOOOOOXX++OO....XXXX                                                                  XX++....OOXXXX++OOOOOOOO++.....",
"OOOOOOOOOOOOOOOOOXX++OO....XXXX                                                                  XX++....OOXXXX++OOOOOOOO++.....",
"OOOOOOOOOOOOOOOOOXX++OO....XXXX                                                                  XX++....OOXXXX++OOOOOOOO++.....",
"OOOOOOOOOOO++ooOOXX++OOOOOOXXXX                                                                  XX++OOOOOOXXXX++OO++ooOOOOXXXXX",
"OOOOOOOOOOO++ooOOXX++OOOOOOXXXX                                                                  XX++OOOOOOXXXX++OO++ooOOOOXXXXX",
"OOOOOOOOOOOooXXOOXXXXXXXXXXXXXX                                                                  XXXXXXXXXXXXXX++OOooXXOOOOOOOOO",
"OOOOOOOOOOOooXXOOXXXXXXXXXXXXXX                                                                  XXXXXXXXXXXXXX++OOooXXOOOOOOOOO",
"OOOOOOOOOOOOOOOOOXXXXXXXXXXXXXX                                                                  XXXXXXXXXXXXXX++OOOOOOOOOOOOOOO",
"OOOOOOOOOOOOOOOOOXXXXXXXXXXXXXX                                                                  XXXXXXXXXXXXXX++OOOOOOOOOOOOOOO",
"XXXXXXXXXXXXXXXXXXXXXXXXXXXXXXX                                                                  XXXXXXXXXXXXXXXXXXXXXXXXXXXXXXX",
"XXXXXXXXXXXXXXXXXXXXXXXXXXXXXXX                                                                  XXXXXXXXXXXXXXXXXXXXXXXXXXXXXXX",
"+++++++++++++++++++++++++++XXXX                                                                  XXXX%%+++++++++++++++++++++++++",
"+++++++++++++++++++++++++++XXXX                                                                  XXXX%%+++++++++++++++++++++++++",
"OOOOOOOOOOOOOOOOOOOOOOOOOOOXXXX                                                                  XXXX++OOOOOOOOOOOOOOOOOOOOOOOOO",
"OOOOOOOOOOOOOOOOOOOOOOOOOOOXXXX                                                                  XXXX++OOOOOOOOOOOOOOOOOOOOOOOOO",
"OOOOOOOOOOOOOOOOOOOOO++ooOOXXXX                                                                  XXXX++OO++ooOOOOOOOOOOOOOOOOOOO",
"OOOOOOOOOOOOOOOOOOOOO++ooOOXXXX                                                                  XXXX++OO++ooOOOOOOOOOOOOOOOOOOO",
"OOOOOOOOOOOOOOOOOOOOOooXXOOXXXX                                                                  XXXX++OOooXXOOOOOOOOOOOOOOOOOOO",
"OOOOOOOOOOOOOOOOOOOOOooXXOOXXXX                                                                  XXXX++OOooXXOOOOOOOOOOOOOOOOOOO",
"OOOOOOOOOOOOOOOOOOOOOOOOOOOXXXX                                                                  XXXX++OOOOOOOOOOOOOOOOOOOOOOOOO",
"OOOOOOOOOOOOOOOOOOOOOOOOOOOXXXX                                                                  XXXX++OOOOOOOOOOOOOOOOOOOOOOOOO",
"OOOOOOOOOOOOOOOOOOOOOOOOOOOXXXX                                                                  XXXX++OOOOOOOOOOOOOOOOOOOOOOOOO",
"OOOOOOOOOOOOOOOOOOOOOOOOOOOXXXX                                                                  XXXX++OOOOOOOOOOOOOOOOOOOOOOOOO",
"OOOOOOOOOOOOOOOOOOOOOOOOOOOXXXX                                                                  XXXX++OOOOOOOOOOOOOOOOOOOOOOOOO",
"OOOOOOOOOOOOOOOOOOOOOOOOOOOXXXX                                                                  XXXX++OOOOOOOOOOOOOOOOOOOOOOOOO",
"OOOOOOOOOOOOOOOOOOOOOOOOOOOXXXX                                                                  XXXX++OOOOOOOOOOOOOOOOOOOOOOOOO",
"OOOOOOOOOOOOOOOOOOOOOOOOOOOXXXX                                                                  XXXX++OOOOOOOOOOOOOOOOOOOOOOOOO",
"OOOOOOOOOOOOOOOOOOOOOOOOOOOXXXX                                                                  XXXX++OOOOOOOOOOOOOOOOOOOOOOOOO",
"OOOOOOOOOOOOOOOOOOOOOOOOOOOXXXX                                                                  XXXX++OOOOOOOOOOOOOOOOOOOOOOOOO",
"OOOOOOOOOOOOOOOOOOOOOOOOOOOXXXX                                                                  XXXX++OOOOOOOOOOOOOOOOOOOOOOOOO",
"OOOOOOOOOOOOOOOOOOOOOOOOOOOXXXX                                                                  XXXX++OOOOOOOOOOOOOOOOOOOOOOOOO",
"OOOOOOOOOOOOOOOOOOOOO++ooOOXXXX                                                                  XXXX++OO++ooOOOOOOOOOOOOOOOOOOO",
"OOOOOOOOOOOOOOOOOOOOO++ooOOXXXX                                                                  XXXX++OO++ooOOOOOOOOOOOOOOOOOOO",
"OOOOOOOOOOOOOOOOOOOOOooXXOOXXXX                                                                  XXXX++OOooXXOOOOOOOOOOOOOOOOOOO",
"OOOOOOOOOOOOOOOOOOOOOooXXOOXXXX                                                                  XXXX++OOooXXOOOOOOOOOOOOOOOOOOO",
"OOOOOOOOOOOOOOOOOOOOOOOOOOOXXXX                                                                  XXXX++OOOOOOOOOOOOOOOOOOOOOOOOO",
"OOOOOOOOOOOOOOOOOOOOOOOOOOOXXXX                                                                  XXXX++OOOOOOOOOOOOOOOOOOOOOOOOO",
"XXXXXXXXXXXXXXXXXXXXXXXXXXXXXXX                                                                  XXXXXXXXXXXXXXXXXXXXXXXXXXXXXXX",
"XXXXXXXXXXXXXXXXXXXXXXXXXXXXXXX                                                                  XXXXXXXXXXXXXXXXXXXXXXXXXXXXXXX",
"+++++++++++++++++++++++++++XXXX                                                                  XXXX+++++++++++++++++++++++++++",
"+++++++++++++++++++++++++++XXXX                                                                  XXXX+++++++++++++++++++++++++++",
"OOOOOOOOOOOOOOOOOOOOOOOOOOOXXXX                                                                  XXXXOOOOOOOOOOOOOOOOOOOOOOOOOOO",
"OOOOOOOOOOOOOOOOOOOOOOOOOOOXXXX                                                                  XXXXOOOOOOOOOOOOOOOOOOOOOOOOOOO",
"OOOOOOOOOOOOOOOOOOOOOOOOOOOXXXX                                                                  XXXXOOOOOOOOOOOOOOOOOOOOOOOOOOO",
"OOOOOOOOOOOOOOOOOOOOOOOOOOOXXXX                                                                  XXXXOOOOOOOOOOOOOOOOOOOOOOOOOOO",
"OOOOOOOOOOOOOOOOOOOOOOOOOOOXXXX                                                                  XXXXOOOOOOOOOOOOOOOOOOOOOOOOOOO",
"OOOOOOOOOOOOOOOOOOOOOOOOOOOXXXX                                                                  XXXXOOOOOOOOOOOOOOOOOOOOOOOOOOO",
"OOOOOOOOOOOOOOOOOOOOOOOOOOOXXXX                                                                  XXXXOOOOOOOOOOOOOOOOOOOOOOOOOOO",
"OOOOOOOOOOOOOOOOOOOOOOOOOOOXXXX                                                                  XXXXOOOOOOOOOOOOOOOOOOOOOOOOOOO",
"OOOOOOOOOOOOOOOOOOOOOOOOOOOXXXX                                                                  XXXXOOOOOOOOOOOOOOOOOOOOOOOOOOO",
"OOOOOOOOOOOOOOOOOOOOOOOOOOOXXXX                                                                  XXXXOOOOOOOOOOOOOOOOOOOOOOOOOOO",
"OOOOOOOOOOOOOOOOOOOOOOOOOOOXXXX                                                                  XXXXOOOOOOOOOOOOOOOOOOOOOOOOOOO",
"OOOOOOOOOOOOOOOOOOOOOOOOOOOXXXX                                                                  XXXXOOOOOOOOOOOOOOOOOOOOOOOOOOO",
"XXXXXXXXXXXXXXXXXXXXXXXXXXXXXXX                                                                  XXXXXXXXXXXXXXXXXXXXXXXXXXXXXXX",
"XXXXXXXXXXXXXXXXXXXXXXXXXXXXXXX                                                                  XXXXXXXXXXXXXXXXXXXXXXXXXXXXXXX"
};
