/* XPM */
static char *df3fe6b56b6a49b8c990f60dac16b0bdcmUQTOxCjrsfIZwT[] = {
/* columns rows colors chars-per-pixel */
"128 128 8 1 ",
"  c None",
". c #000008",
"X c gray20",
"o c #434343",
"O c #535353",
"+ c #777777",
"@ c #7FB717",
"# c gray53",
/* pixels */
"+++++++++++++++++++++++                                                                                  +++++++++++++++++++++++",
"+++++++++++++++++++++++                                                                                  +++++++++++++++++++++++",
"OOOOOOOOOOOOOOOOOOOOOXX                                                                                  XXOOOOOOOOOOOOOOOOOOOOO",
"OOOOOOOOOOOOOOOOOOOOOXX                                                                                  XXOOOOOOOOOOOOOOOOOOOOO",
"OOOOOOOOOOOOOOOOOOOOOXX                                                                                  XXOOOOOOOOOOOOOOOOOOOOO",
"OOOOOOOOOOOOOOOOOOOOOXX                                                                                  XXOOOOOOOOOOOOOOOOOOOOO",
"XXXXXXXXXXXXXXXXXXXXXXX                                                                                  XXXXXXXXXXXXXXXXXXXXXXX",
"XXXXXXXXXXXXXXXXXXXXXXX                                                                                  XXXXXXXXXXXXXXXXXXXXXXX",
"+++++++++++++++++++XXXX                                                                                  XXXX##+++++++++++++++++",
"+++++++++++++++++++XXXX                                                                                  XXXX##+++++++++++++++++",
"OOOOOOOOOOOOOOOOOOOXXXX                                                                                  XXXX++OOOOOOOOOOOOOOOOO",
"OOOOOOOOOOOOOOOOOOOXXXX                                                                                  XXXX++OOOOOOOOOOOOOOOOO",
"OOOOOOOOOOOOO++ooOOXXXX                                                                                  XXXX++OO++ooOOOOOOOOOOO",
"OOOOOOOOOOOOO++ooOOXXXX                                                                                  XXXX++OO++ooOOOOOOOOOOO",
"OOOOOOOOOOOOOooXXOOXXXX                                                                                  XXXX++OOooXXOOOOOOOOOOO",
"OOOOOOOOOOOOOooXXOOXXXX                                                                                  XXXX++OOooXXOOOOOOOOOOO",
"OOOOOOOOOOOOOOOOOOOXXXX                                                                                  XXXX++OOOOOOOOOOOOOOOOO",
"OOOOOOOOOOOOOOOOOOOXXXX                                                                                  XXXX++OOOOOOOOOOOOOOOOO",
"OOOOOOOOOOOOOOOOOOOXXXX                                                                                  XXXX++OOOOOOOOOOOOOOOOO",
"OOOOOOOOOOOOOOOOOOOXXXX                                                                                  XXXX++OOOOOOOOOOOOOOOOO",
"OOOOOOOOOOOOOOOOOOOXXXX                                                                                  XXXX++OOOOOOOOOOOOOOOOO",
"OOOOOOOOOOOOOOOOOOOXXXX                                                                                  XXXX++OOOOOOOOOOOOOOOOO",
"OOOOOOOOOOOOOOOOOOOXXXX                                                                                  XXXX++OOOOOOOOOOOOOOOOO",
"OOOOOOOOOOOOOOOOOOOXXXX                                                                                  XXXX++OOOOOOOOOOOOOOOOO",
"OOOOOOOOOOOOOOOOOOOXXXX                                                                                  XXXX++OOOOOOOOOOOOOOOOO",
"OOOOOOOOOOOOOOOOOOOXXXX                                                                                  XXXX++OOOOOOOOOOOOOOOOO",
"OOOOOOOOOOOOOOOOOOOXXXX                                                                                  XXXX++OOOOOOOOOOOOOOOOO",
"OOOOOOOOOOOOOOOOOOOXXXX                                                                                  XXXX++OOOOOOOOOOOOOOOOO",
"OOOOOOOOOOOOOOOOOOOXXXX                                                                                  XXXX++OOOOOOOOOOOOOOOOO",
"OOOOOOOOOOOOOOOOOOOXXXX                                                                                  XXXX++OOOOOOOOOOOOOOOOO",
"OOOOOOOOOOOOOOOOOOOXXXX                                                                                  XXXX++OOOOOOOOOOOOOOOOO",
"OOOOOOOOOOOOOOOOOOOXXXX                                                                                  XXXX++OOOOOOOOOOOOOOOOO",
"OOOOOOOOOOOOOOOOOOOXXXX                                                                                  XXXX++OOOOOOOOOOOOOOOOO",
"OOOOOOOOOOOOOOOOOOOXXXX                                                                                  XXXX++OOOOOOOOOOOOOOOOO",
"OOOOOOOOOOOOOOOOOOOXXXX                                                                                  XXXX++OOOOOOOOOOOOOOOOO",
"OOOOOOOOOOOOOOOOOOOXXXX                                                                                  XXXX++OOOOOOOOOOOOOOOOO",
"OOOOOOOOOOOOOOOOOOOXXXX                                                                                  XXXX++OOOOOOOOOOOOOOOOO",
"OOOOOOOOOOOOOOOOOOOXXXX                                                                                  XXXX++OOOOOOOOOOOOOOOOO",
"OOOOOOOOOOOOOOOOOOOXXXX                                                                                  XXXX++OOOOOOOOOOOOOOOOO",
"OOOOOOOOOOOOOOOOOOOXXXX                                                                                  XXXX++OOOOOOOOOOOOOOOOO",
"OOOOOOOOOOOOOOOOOOOXXXX                                                                                  XXXX++OOOOOOOOOOOOOOOOO",
"OOOOOOOOOOOOOOOOOOOXXXX                                                                                  XXXX++OOOOOOOOOOOOOOOOO",
"OOOOOOOOOOOOOOOOOOOXXXX                                                                                  XXXX++OOOOOOOOOOOOOOOOO",
"OOOOOOOOOOOOOOOOOOOXXXX                                                                                  XXXX++OOOOOOOOOOOOOOOOO",
"OOOOOOOOOOOOO++ooOOXXXX                                                                                  XXXX++OO++ooOOOOOOOOOOO",
"OOOOOOOOOOOOO++ooOOXXXX                                                                                  XXXX++OO++ooOOOOOOOOOOO",
"OOOOOOOOOOOOOooXXOOXXXX                                                                                  XXXX++OOooXXOOOOOOOOOOO",
"OOOOOOOOOOOOOooXXOOXXXX                                                                                  XXXX++OOooXXOOOOOOOOOOO",
"OOOOOOOOOOOOOOOOOOOXXXX                                                                                  XXXX++OOOOOOOOOOOOOOOOO",
"OOOOOOOOOOOOOOOOOOOXXXX                                                                                  XXXX++OOOOOOOOOOOOOOOOO",
"XXXXXXXXXXXXXXXXXXXXXXX                                                                                  XXXXXXXXXXXXXXXXXXXXXXX",
"XXXXXXXXXXXXXXXXXXXXXXX                                                                                  XXXXXXXXXXXXXXXXXXXXXXX",
"+++++++++XX##++++++XXXX                                                                                  XX##++++++XXXX##+++++++",
"+++++++++XX##++++++XXXX                                                                                  XX##++++++XXXX##+++++++",
"OOOOOOOOOXX++OOOOOOXXXX                                                                                  XX++OOOOOOXXXX++OOOOOOO",
"OOOOOOOOOXX++OOOOOOXXXX                                                                                  XX++OOOOOOXXXX++OOOOOOO",
"OOO++ooOOXX++OOOOOOXXXX                                                                                  XX++OOOOOOXXXX++OO++ooO",
"OOO++ooOOXX++OOOOOOXXXX                                                                                  XX++OOOOOOXXXX++OO++ooO",
"OOOooXXOOXX++OOOOOOXXXX                                                                                  XX++OOOOOOXXXX++OOooXXO",
"OOOooXXOOXX++OOOOOOXXXX                                                                                  XX++OOOOOOXXXX++OOooXXO",
"OOOOOOOOOXX++@@@@@@XXXX                                                                                  XX++@@@@@@XXXX++OOOOOOO",
"OOOOOOOOOXX++@@@@@@XXXX                                                                                  XX++@@@@@@XXXX++OOOOOOO",
"OOOOOOOOOXX++@@@@@@XXXX                                                                                  XX++@@@@@@XXXX++OOOOOOO",
"OOOOOOOOOXX++@@@@@@XXXX                                                                                  XX++@@@@@@XXXX++OOOOOOO",
"OOOOOOOOOXX++OOOOOOXXXX                                                                                  XX++OOOOOOXXXX++OOOOOOO",
"OOOOOOOOOXX++OOOOOOXXXX                                                                                  XX++OOOOOOXXXX++OOOOOOO",
"OOOOOOOOOXX++OOXXXXXXXX                                                                                  XX++XXXXOOXXXX++OOOOOOO",
"OOOOOOOOOXX++OOXXXXXXXX                                                                                  XX++XXXXOOXXXX++OOOOOOO",
"OOOOOOOOOXX++OO....XXXX                                                                                  XX++....OOXXXX++OOOOOOO",
"OOOOOOOOOXX++OO....XXXX                                                                                  XX++....OOXXXX++OOOOOOO",
"OOOOOOOOOXX++OO....XXXX                                                                                  XX++....OOXXXX++OOOOOOO",
"OOOOOOOOOXX++OO....XXXX                                                                                  XX++....OOXXXX++OOOOOOO",
"OOOOOOOOOXX++OO....XXXX                                                                                  XX++....OOXXXX++OOOOOOO",
"OOOOOOOOOXX++OO....XXXX                                                                                  XX++....OOXXXX++OOOOOOO",
"OOOOOOOOOXX++OO....XXXX                                                                                  XX++....OOXXXX++OOOOOOO",
"OOOOOOOOOXX++OO....XXXX                                                                                  XX++....OOXXXX++OOOOOOO",
"OOO++ooOOXX++OOOOOOXXXX                                                                                  XX++OOOOOOXXXX++OO++ooO",
"OOO++ooOOXX++OOOOOOXXXX                                                                                  XX++OOOOOOXXXX++OO++ooO",
"OOOooXXOOXXXXXXXXXXXXXX                                                                                  XXXXXXXXXXXXXX++OOooXXO",
"OOOooXXOOXXXXXXXXXXXXXX                                                                                  XXXXXXXXXXXXXX++OOooXXO",
"OOOOOOOOOXXXXXXXXXXXXXX                                                                                  XXXXXXXXXXXXXX++OOOOOOO",
"OOOOOOOOOXXXXXXXXXXXXXX                                                                                  XXXXXXXXXXXXXX++OOOOOOO",
"XXXXXXXXXXXXXXXXXXXXXXX                                                                                  XXXXXXXXXXXXXXXXXXXXXXX",
"XXXXXXXXXXXXXXXXXXXXXXX                                                                                  XXXXXXXXXXXXXXXXXXXXXXX",
"+++++++++++++++++++XXXX                                                                                  XXXX##+++++++++++++++++",
"+++++++++++++++++++XXXX                                                                                  XXXX##+++++++++++++++++",
"OOOOOOOOOOOOOOOOOOOXXXX                                                                                  XXXX++OOOOOOOOOOOOOOOOO",
"OOOOOOOOOOOOOOOOOOOXXXX                                                                                  XXXX++OOOOOOOOOOOOOOOOO",
"OOOOOOOOOOOOO++ooOOXXXX                                                                                  XXXX++OO++ooOOOOOOOOOOO",
"OOOOOOOOOOOOO++ooOOXXXX                                                                                  XXXX++OO++ooOOOOOOOOOOO",
"OOOOOOOOOOOOOooXXOOXXXX                                                                                  XXXX++OOooXXOOOOOOOOOOO",
"OOOOOOOOOOOOOooXXOOXXXX                                                                                  XXXX++OOooXXOOOOOOOOOOO",
"OOOOOOOOOOOOOOOOOOOXXXX                                                                                  XXXX++OOOOOOOOOOOOOOOOO",
"OOOOOOOOOOOOOOOOOOOXXXX                                                                                  XXXX++OOOOOOOOOOOOOOOOO",
"OOOOOOOOOOOOOOOOOOOXXXX                                                                                  XXXX++OOOOOOOOOOOOOOOOO",
"OOOOOOOOOOOOOOOOOOOXXXX                                                                                  XXXX++OOOOOOOOOOOOOOOOO",
"OOOOOOOOOOOOOOOOOOOXXXX                                                                                  XXXX++OOOOOOOOOOOOOOOOO",
"OOOOOOOOOOOOOOOOOOOXXXX                                                                                  XXXX++OOOOOOOOOOOOOOOOO",
"OOOOOOOOOOOOOOOOOOOXXXX                                                                                  XXXX++OOOOOOOOOOOOOOOOO",
"OOOOOOOOOOOOOOOOOOOXXXX                                                                                  XXXX++OOOOOOOOOOOOOOOOO",
"OOOOOOOOOOOOOOOOOOOXXXX                                                                                  XXXX++OOOOOOOOOOOOOOOOO",
"OOOOOOOOOOOOOOOOOOOXXXX                                                                                  XXXX++OOOOOOOOOOOOOOOOO",
"OOOOOOOOOOOOOOOOOOOXXXX                                                                                  XXXX++OOOOOOOOOOOOOOOOO",
"OOOOOOOOOOOOOOOOOOOXXXX                                                                                  XXXX++OOOOOOOOOOOOOOOOO",
"OOOOOOOOOOOOO++ooOOXXXX                                                                                  XXXX++OO++ooOOOOOOOOOOO",
"OOOOOOOOOOOOO++ooOOXXXX                                                                                  XXXX++OO++ooOOOOOOOOOOO",
"OOOOOOOOOOOOOooXXOOXXXX                                                                                  XXXX++OOooXXOOOOOOOOOOO",
"OOOOOOOOOOOOOooXXOOXXXX                                                                                  XXXX++OOooXXOOOOOOOOOOO",
"OOOOOOOOOOOOOOOOOOOXXXX                                                                                  XXXX++OOOOOOOOOOOOOOOOO",
"OOOOOOOOOOOOOOOOOOOXXXX                                                                                  XXXX++OOOOOOOOOOOOOOOOO",
"XXXXXXXXXXXXXXXXXXXXXXX                                                                                  XXXXXXXXXXXXXXXXXXXXXXX",
"XXXXXXXXXXXXXXXXXXXXXXX                                                                                  XXXXXXXXXXXXXXXXXXXXXXX",
"+++++++++++++++++++XXXX                                                                                  XXXX+++++++++++++++++++",
"+++++++++++++++++++XXXX                                                                                  XXXX+++++++++++++++++++",
"OOOOOOOOOOOOOOOOOOOXXXX                                                                                  XXXXOOOOOOOOOOOOOOOOOOO",
"OOOOOOOOOOOOOOOOOOOXXXX                                                                                  XXXXOOOOOOOOOOOOOOOOOOO",
"OOOOOOOOOOOOOOOOOOOXXXX                                                                                  XXXXOOOOOOOOOOOOOOOOOOO",
"OOOOOOOOOOOOOOOOOOOXXXX                                                                                  XXXXOOOOOOOOOOOOOOOOOOO",
"OOOOOOOOOOOOOOOOOOOXXXX                                                                                  XXXXOOOOOOOOOOOOOOOOOOO",
"OOOOOOOOOOOOOOOOOOOXXXX                                                                                  XXXXOOOOOOOOOOOOOOOOOOO",
"OOOOOOOOOOOOOOOOOOOXXXX                                                                                  XXXXOOOOOOOOOOOOOOOOOOO",
"OOOOOOOOOOOOOOOOOOOXXXX                                                                                  XXXXOOOOOOOOOOOOOOOOOOO",
"OOOOOOOOOOOOOOOOOOOXXXX                                                                                  XXXXOOOOOOOOOOOOOOOOOOO",
"OOOOOOOOOOOOOOOOOOOXXXX                                                                                  XXXXOOOOOOOOOOOOOOOOOOO",
"OOOOOOOOOOOOOOOOOOOXXXX                                                                                  XXXXOOOOOOOOOOOOOOOOOOO",
"OOOOOOOOOOOOOOOOOOOXXXX                                                                                  XXXXOOOOOOOOOOOOOOOOOOO",
"XXXXXXXXXXXXXXXXXXXXXXX                                                                                  XXXXXXXXXXXXXXXXXXXXXXX",
"XXXXXXXXXXXXXXXXXXXXXXX                                                                                  XXXXXXXXXXXXXXXXXXXXXXX"
};
