/* XPM */
static char *_4381f399cb34251dcc3067700f89adagSQmV6ZlNRkX1qhV[] = {
/* columns rows colors chars-per-pixel */
"128 128 11 1 ",
"  c None",
". c #000008",
"X c gray20",
"o c #434343",
"O c #535353",
"+ c #777777",
"@ c #5F9B00",
"# c #7FB717",
"$ c #A3D337",
"% c #C7EF63",
"& c gray53",
/* pixels */
"++++++++++++++++++++++++++++++++++                                                            ++++++++++++++++++++++++++++++++++",
"++++++++++++++++++++++++++++++++++                                                            ++++++++++++++++++++++++++++++++++",
"OOOOOOOOOOOOOOOOOOOOOOOOOOOOOOOOXX                                                            XXOOOOOOOOOOOOOOOOOOOOOOOOOOOOOOOO",
"OOOOOOOOOOOOOOOOOOOOOOOOOOOOOOOOXX                                                            XXOOOOOOOOOOOOOOOOOOOOOOOOOOOOOOOO",
"OOOOOOOOOOOOOOOOOOOOOOOOOOOOOOOOXX                                                            XXOOOOOOOOOOOOOOOOOOOOOOOOOOOOOOOO",
"OOOOOOOOOOOOOOOOOOOOOOOOOOOOOOOOXX                                                            XXOOOOOOOOOOOOOOOOOOOOOOOOOOOOOOOO",
"XXXXXXXXXXXXXXXXXXXXXXXXXXXXXXXXXX                                                            XXXXXXXXXXXXXXXXXXXXXXXXXXXXXXXXXX",
"XXXXXXXXXXXXXXXXXXXXXXXXXXXXXXXXXX                                                            XXXXXXXXXXXXXXXXXXXXXXXXXXXXXXXXXX",
"++++++++++++++++++++++++++++++XXXX                                                            XXXX&&++++++++++++++++++++++++++++",
"++++++++++++++++++++++++++++++XXXX                                                            XXXX&&++++++++++++++++++++++++++++",
"OOOOOOOOOOOOOOOOOOOOOOOOOOOOOOXXXX                                                            XXXX++OOOOOOOOOOOOOOOOOOOOOOOOOOOO",
"OOOOOOOOOOOOOOOOOOOOOOOOOOOOOOXXXX                                                            XXXX++OOOOOOOOOOOOOOOOOOOOOOOOOOOO",
"OOOOOOOOOOOOOOOOOOOOOOOO++ooOOXXXX                                                            XXXX++OO++ooOOOOOOOOOOOOOOOOOOOOOO",
"OOOOOOOOOOOOOOOOOOOOOOOO++ooOOXXXX                                                            XXXX++OO++ooOOOOOOOOOOOOOOOOOOOOOO",
"OOOOOOOOOOOOOOOOOOOOOOOOooXXOOXXXX                                                            XXXX++OOooXXOOOOOOOOOOOOOOOOOOOOOO",
"OOOOOOOOOOOOOOOOOOOOOOOOooXXOOXXXX                                                            XXXX++OOooXXOOOOOOOOOOOOOOOOOOOOOO",
"OOOOOOOOOOOOOOOOOOOOOOOOOOOOOOXXXX                                                            XXXX++OOOOOOOOOOOOOOOOOOOOOOOOOOOO",
"OOOOOOOOOOOOOOOOOOOOOOOOOOOOOOXXXX                                                            XXXX++OOOOOOOOOOOOOOOOOOOOOOOOOOOO",
"OOOOOOOOOOOOOOOOOOOOOOOOOOOOOOXXXX                                                            XXXX++OOOOOOOOOOOOOOOOOOOOOOOOOOOO",
"OOOOOOOOOOOOOOOOOOOOOOOOOOOOOOXXXX                                                            XXXX++OOOOOOOOOOOOOOOOOOOOOOOOOOOO",
"OOOOOOOOOOOOOOOOOOOOOOOOOOOOOOXXXX                                                            XXXX++OOOOOOOOOOOOOOOOOOOOOOOOOOOO",
"OOOOOOOOOOOOOOOOOOOOOOOOOOOOOOXXXX                                                            XXXX++OOOOOOOOOOOOOOOOOOOOOOOOOOOO",
"OOOOOOOOOOOOOOOOOOOOOOOOOOOOOOXXXX                                                            XXXX++OOOOOOOOOOOOOOOOOOOOOOOOOOOO",
"OOOOOOOOOOOOOOOOOOOOOOOOOOOOOOXXXX                                                            XXXX++OOOOOOOOOOOOOOOOOOOOOOOOOOOO",
"OOOOOOOOOOOOOOOOOOOOOOOOOOOOOOXXXX                                                            XXXX++OOOOOOOOOOOOOOOOOOOOOOOOOOOO",
"OOOOOOOOOOOOOOOOOOOOOOOOOOOOOOXXXX                                                            XXXX++OOOOOOOOOOOOOOOOOOOOOOOOOOOO",
"OOOOOOOOOOOOOOOOOOOOOOOOOOOOOOXXXX                                                            XXXX++OOOOOOOOOOOOOOOOOOOOOOOOOOOO",
"OOOOOOOOOOOOOOOOOOOOOOOOOOOOOOXXXX                                                            XXXX++OOOOOOOOOOOOOOOOOOOOOOOOOOOO",
"OOOOOOOOOOOOOOOOOOOOOOOOOOOOOOXXXX                                                            XXXX++OOOOOOOOOOOOOOOOOOOOOOOOOOOO",
"OOOOOOOOOOOOOOOOOOOOOOOOOOOOOOXXXX                                                            XXXX++OOOOOOOOOOOOOOOOOOOOOOOOOOOO",
"OOOOOOOOOOOOOOOOOOOOOOOOOOOOOOXXXX                                                            XXXX++OOOOOOOOOOOOOOOOOOOOOOOOOOOO",
"OOOOOOOOOOOOOOOOOOOOOOOOOOOOOOXXXX                                                            XXXX++OOOOOOOOOOOOOOOOOOOOOOOOOOOO",
"OOOOOOOOOOOOOOOOOOOOOOOOOOOOOOXXXX                                                            XXXX++OOOOOOOOOOOOOOOOOOOOOOOOOOOO",
"OOOOOOOOOOOOOOOOOOOOOOOOOOOOOOXXXX                                                            XXXX++OOOOOOOOOOOOOOOOOOOOOOOOOOOO",
"OOOOOOOOOOOOOOOOOOOOOOOOOOOOOOXXXX                                                            XXXX++OOOOOOOOOOOOOOOOOOOOOOOOOOOO",
"OOOOOOOOOOOOOOOOOOOOOOOOOOOOOOXXXX                                                            XXXX++OOOOOOOOOOOOOOOOOOOOOOOOOOOO",
"OOOOOOOOOOOOOOOOOOOOOOOOOOOOOOXXXX                                                            XXXX++OOOOOOOOOOOOOOOOOOOOOOOOOOOO",
"OOOOOOOOOOOOOOOOOOOOOOOOOOOOOOXXXX                                                            XXXX++OOOOOOOOOOOOOOOOOOOOOOOOOOOO",
"OOOOOOOOOOOOOOOOOOOOOOOOOOOOOOXXXX                                                            XXXX++OOOOOOOOOOOOOOOOOOOOOOOOOOOO",
"OOOOOOOOOOOOOOOOOOOOOOOOOOOOOOXXXX                                                            XXXX++OOOOOOOOOOOOOOOOOOOOOOOOOOOO",
"OOOOOOOOOOOOOOOOOOOOOOOOOOOOOOXXXX                                                            XXXX++OOOOOOOOOOOOOOOOOOOOOOOOOOOO",
"OOOOOOOOOOOOOOOOOOOOOOOOOOOOOOXXXX                                                            XXXX++OOOOOOOOOOOOOOOOOOOOOOOOOOOO",
"OOOOOOOOOOOOOOOOOOOOOOOOOOOOOOXXXX                                                            XXXX++OOOOOOOOOOOOOOOOOOOO++++++++",
"OOOOOOOOOOOOOOOOOOOOOOOOOOOOOOXXXX                                                            XXXX++OOOOOOOOOOOOOOOOOOOO++++++++",
"OOOOOOOOOOOOOOOOOOOOOOOO++ooOOXXXX                                                            XXXX++OO++ooOOOOOOOOOOOO++........",
"OOOOOOOOOOOOOOOOOOOOOOOO++ooOOXXXX                                                            XXXX++OO++ooOOOOOOOOOOOO++........",
"OOOOOOOOOOOOOOOOOOOOOOOOooXXOOXXXX                                                            XXXX++OOooXXOOOOOOOOOOOO++........",
"OOOOOOOOOOOOOOOOOOOOOOOOooXXOOXXXX                                                            XXXX++OOooXXOOOOOOOOOOOO++........",
"OOOOOOOOOOOOOOOOOOOOOOOOOOOOOOXXXX                                                            XXXX++OOOOOOOOOOOOOOOOOO++....%%$$",
"OOOOOOOOOOOOOOOOOOOOOOOOOOOOOOXXXX                                                            XXXX++OOOOOOOOOOOOOOOOOO++....%%$$",
"XXXXXXXXXXXXXXXXXXXXXXXXXXXXXXXXXX                                                            XXXXXXXXXXXXXXXXXXXXXXXX++....$$##",
"XXXXXXXXXXXXXXXXXXXXXXXXXXXXXXXXXX                                                            XXXXXXXXXXXXXXXXXXXXXXXX++....$$##",
"++++++++++++++++++++XX&&++++++XXXX                                                            XX&&++++++XXXX&&++++++++++....$$##",
"++++++++++++++++++++XX&&++++++XXXX                                                            XX&&++++++XXXX&&++++++++++....$$##",
"OOOOOOOOOOOOOOOOOOOOXX++OOOOOOXXXX                                                            XX++OOOOOOXXXX++OOOOOOOO++....$$##",
"OOOOOOOOOOOOOOOOOOOOXX++OOOOOOXXXX                                                            XX++OOOOOOXXXX++OOOOOOOO++....$$##",
"OOOOOOOOOOOOOO++ooOOXX++OOOOOOXXXX                                                            XX++OOOOOOXXXX++OO++ooOO++....##@@",
"OOOOOOOOOOOOOO++ooOOXX++OOOOOOXXXX                                                            XX++OOOOOOXXXX++OO++ooOO++....##@@",
"OOOOOOOOOOOOOOooXXOOXX++OOOOOOXXXX                                                            XX++OOOOOOXXXX++OOooXXOO++........",
"OOOOOOOOOOOOOOooXXOOXX++OOOOOOXXXX                                                            XX++OOOOOOXXXX++OOooXXOO++........",
"OOOOOOOOOOOOOOOOOOOOXX++######XXXX                                                            XX++######XXXX++OOOOOOOO++....++++",
"OOOOOOOOOOOOOOOOOOOOXX++######XXXX                                                            XX++######XXXX++OOOOOOOO++....++++",
"OOOOOOOOOOOOOOOOOOOOXX++######XXXX                                                            XX++######XXXX++OOOOOOOO++....++OO",
"OOOOOOOOOOOOOOOOOOOOXX++######XXXX                                                            XX++######XXXX++OOOOOOOO++....++OO",
"OOOOOOOOOOOOOOOOOOOOXX++OOOOOOXXXX                                                            XX++OOOOOOXXXX++OOOOOOOO++........",
"OOOOOOOOOOOOOOOOOOOOXX++OOOOOOXXXX                                                            XX++OOOOOOXXXX++OOOOOOOO++........",
"OOOOOOOOOOOOOOOOOOOOXX++OOXXXXXXXX                                                            XX++XXXXOOXXXX++OOOOOOOO++....++++",
"OOOOOOOOOOOOOOOOOOOOXX++OOXXXXXXXX                                                            XX++XXXXOOXXXX++OOOOOOOO++....++++",
"OOOOOOOOOOOOOOOOOOOOXX++OO....XXXX                                                            XX++....OOXXXX++OOOOOOOO++....++OO",
"OOOOOOOOOOOOOOOOOOOOXX++OO....XXXX                                                            XX++....OOXXXX++OOOOOOOO++....++OO",
"OOOOOOOOOOOOOOOOOOOOXX++OO....XXXX                                                            XX++....OOXXXX++OOOOOOOO++........",
"OOOOOOOOOOOOOOOOOOOOXX++OO....XXXX                                                            XX++....OOXXXX++OOOOOOOO++........",
"OOOOOOOOOOOOOOOOOOOOXX++OO....XXXX                                                            XX++....OOXXXX++OOOOOOOO++........",
"OOOOOOOOOOOOOOOOOOOOXX++OO....XXXX                                                            XX++....OOXXXX++OOOOOOOO++........",
"OOOOOOOOOOOOOOOOOOOOXX++OO....XXXX                                                            XX++....OOXXXX++OOOOOOOO++........",
"OOOOOOOOOOOOOOOOOOOOXX++OO....XXXX                                                            XX++....OOXXXX++OOOOOOOO++........",
"OOOOOOOOOOOOOO++ooOOXX++OOOOOOXXXX                                                            XX++OOOOOOXXXX++OO++ooOOOOXXXXXXXX",
"OOOOOOOOOOOOOO++ooOOXX++OOOOOOXXXX                                                            XX++OOOOOOXXXX++OO++ooOOOOXXXXXXXX",
"OOOOOOOOOOOOOOooXXOOXXXXXXXXXXXXXX                                                            XXXXXXXXXXXXXX++OOooXXOOOOOOOOOOOO",
"OOOOOOOOOOOOOOooXXOOXXXXXXXXXXXXXX                                                            XXXXXXXXXXXXXX++OOooXXOOOOOOOOOOOO",
"OOOOOOOOOOOOOOOOOOOOXXXXXXXXXXXXXX                                                            XXXXXXXXXXXXXX++OOOOOOOOOOOOOOOOOO",
"OOOOOOOOOOOOOOOOOOOOXXXXXXXXXXXXXX                                                            XXXXXXXXXXXXXX++OOOOOOOOOOOOOOOOOO",
"XXXXXXXXXXXXXXXXXXXXXXXXXXXXXXXXXX                                                            XXXXXXXXXXXXXXXXXXXXXXXXXXXXXXXXXX",
"XXXXXXXXXXXXXXXXXXXXXXXXXXXXXXXXXX                                                            XXXXXXXXXXXXXXXXXXXXXXXXXXXXXXXXXX",
"++++++++++++++++++++++++++++++XXXX                                                            XXXX&&++++++++++++++++++++++++++++",
"++++++++++++++++++++++++++++++XXXX                                                            XXXX&&++++++++++++++++++++++++++++",
"OOOOOOOOOOOOOOOOOOOOOOOOOOOOOOXXXX                                                            XXXX++OOOOOOOOOOOOOOOOOOOOOOOOOOOO",
"OOOOOOOOOOOOOOOOOOOOOOOOOOOOOOXXXX                                                            XXXX++OOOOOOOOOOOOOOOOOOOOOOOOOOOO",
"OOOOOOOOOOOOOOOOOOOOOOOO++ooOOXXXX                                                            XXXX++OO++ooOOOOOOOOOOOOOOOOOOOOOO",
"OOOOOOOOOOOOOOOOOOOOOOOO++ooOOXXXX                                                            XXXX++OO++ooOOOOOOOOOOOOOOOOOOOOOO",
"OOOOOOOOOOOOOOOOOOOOOOOOooXXOOXXXX                                                            XXXX++OOooXXOOOOOOOOOOOOOOOOOOOOOO",
"OOOOOOOOOOOOOOOOOOOOOOOOooXXOOXXXX                                                            XXXX++OOooXXOOOOOOOOOOOOOOOOOOOOOO",
"OOOOOOOOOOOOOOOOOOOOOOOOOOOOOOXXXX                                                            XXXX++OOOOOOOOOOOOOOOOOOOOOOOOOOOO",
"OOOOOOOOOOOOOOOOOOOOOOOOOOOOOOXXXX                                                            XXXX++OOOOOOOOOOOOOOOOOOOOOOOOOOOO",
"OOOOOOOOOOOOOOOOOOOOOOOOOOOOOOXXXX                                                            XXXX++OOOOOOOOOOOOOOOOOOOOOOOOOOOO",
"OOOOOOOOOOOOOOOOOOOOOOOOOOOOOOXXXX                                                            XXXX++OOOOOOOOOOOOOOOOOOOOOOOOOOOO",
"OOOOOOOOOOOOOOOOOOOOOOOOOOOOOOXXXX                                                            XXXX++OOOOOOOOOOOOOOOOOOOOOOOOOOOO",
"OOOOOOOOOOOOOOOOOOOOOOOOOOOOOOXXXX                                                            XXXX++OOOOOOOOOOOOOOOOOOOOOOOOOOOO",
"OOOOOOOOOOOOOOOOOOOOOOOOOOOOOOXXXX                                                            XXXX++OOOOOOOOOOOOOOOOOOOOOOOOOOOO",
"OOOOOOOOOOOOOOOOOOOOOOOOOOOOOOXXXX                                                            XXXX++OOOOOOOOOOOOOOOOOOOOOOOOOOOO",
"OOOOOOOOOOOOOOOOOOOOOOOOOOOOOOXXXX                                                            XXXX++OOOOOOOOOOOOOOOOOOOOOOOOOOOO",
"OOOOOOOOOOOOOOOOOOOOOOOOOOOOOOXXXX                                                            XXXX++OOOOOOOOOOOOOOOOOOOOOOOOOOOO",
"OOOOOOOOOOOOOOOOOOOOOOOOOOOOOOXXXX                                                            XXXX++OOOOOOOOOOOOOOOOOOOOOOOOOOOO",
"OOOOOOOOOOOOOOOOOOOOOOOOOOOOOOXXXX                                                            XXXX++OOOOOOOOOOOOOOOOOOOOOOOOOOOO",
"OOOOOOOOOOOOOOOOOOOOOOOO++ooOOXXXX                                                            XXXX++OO++ooOOOOOOOOOOOOOOOOOOOOOO",
"OOOOOOOOOOOOOOOOOOOOOOOO++ooOOXXXX                                                            XXXX++OO++ooOOOOOOOOOOOOOOOOOOOOOO",
"OOOOOOOOOOOOOOOOOOOOOOOOooXXOOXXXX                                                            XXXX++OOooXXOOOOOOOOOOOOOOOOOOOOOO",
"OOOOOOOOOOOOOOOOOOOOOOOOooXXOOXXXX                                                            XXXX++OOooXXOOOOOOOOOOOOOOOOOOOOOO",
"OOOOOOOOOOOOOOOOOOOOOOOOOOOOOOXXXX                                                            XXXX++OOOOOOOOOOOOOOOOOOOOOOOOOOOO",
"OOOOOOOOOOOOOOOOOOOOOOOOOOOOOOXXXX                                                            XXXX++OOOOOOOOOOOOOOOOOOOOOOOOOOOO",
"XXXXXXXXXXXXXXXXXXXXXXXXXXXXXXXXXX                                                            XXXXXXXXXXXXXXXXXXXXXXXXXXXXXXXXXX",
"XXXXXXXXXXXXXXXXXXXXXXXXXXXXXXXXXX                                                            XXXXXXXXXXXXXXXXXXXXXXXXXXXXXXXXXX",
"++++++++++++++++++++++++++++++XXXX                                                            XXXX++++++++++++++++++++++++++++++",
"++++++++++++++++++++++++++++++XXXX                                                            XXXX++++++++++++++++++++++++++++++",
"OOOOOOOOOOOOOOOOOOOOOOOOOOOOOOXXXX                                                            XXXXOOOOOOOOOOOOOOOOOOOOOOOOOOOOOO",
"OOOOOOOOOOOOOOOOOOOOOOOOOOOOOOXXXX                                                            XXXXOOOOOOOOOOOOOOOOOOOOOOOOOOOOOO",
"OOOOOOOOOOOOOOOOOOOOOOOOOOOOOOXXXX                                                            XXXXOOOOOOOOOOOOOOOOOOOOOOOOOOOOOO",
"OOOOOOOOOOOOOOOOOOOOOOOOOOOOOOXXXX                                                            XXXXOOOOOOOOOOOOOOOOOOOOOOOOOOOOOO",
"OOOOOOOOOOOOOOOOOOOOOOOOOOOOOOXXXX                                                            XXXXOOOOOOOOOOOOOOOOOOOOOOOOOOOOOO",
"OOOOOOOOOOOOOOOOOOOOOOOOOOOOOOXXXX                                                            XXXXOOOOOOOOOOOOOOOOOOOOOOOOOOOOOO",
"OOOOOOOOOOOOOOOOOOOOOOOOOOOOOOXXXX                                                            XXXXOOOOOOOOOOOOOOOOOOOOOOOOOOOOOO",
"OOOOOOOOOOOOOOOOOOOOOOOOOOOOOOXXXX                                                            XXXXOOOOOOOOOOOOOOOOOOOOOOOOOOOOOO",
"OOOOOOOOOOOOOOOOOOOOOOOOOOOOOOXXXX                                                            XXXXOOOOOOOOOOOOOOOOOOOOOOOOOOOOOO",
"OOOOOOOOOOOOOOOOOOOOOOOOOOOOOOXXXX                                                            XXXXOOOOOOOOOOOOOOOOOOOOOOOOOOOOOO",
"OOOOOOOOOOOOOOOOOOOOOOOOOOOOOOXXXX                                                            XXXXOOOOOOOOOOOOOOOOOOOOOOOOOOOOOO",
"OOOOOOOOOOOOOOOOOOOOOOOOOOOOOOXXXX                                                            XXXXOOOOOOOOOOOOOOOOOOOOOOOOOOOOOO",
"XXXXXXXXXXXXXXXXXXXXXXXXXXXXXXXXXX                                                            XXXXXXXXXXXXXXXXXXXXXXXXXXXXXXXXXX",
"XXXXXXXXXXXXXXXXXXXXXXXXXXXXXXXXXX                                                            XXXXXXXXXXXXXXXXXXXXXXXXXXXXXXXXXX"
};
