/* XPM */
static char *_c0279653efa489af82eca707055c86adaipf2jLbqYuzAUv[] = {
/* columns rows colors chars-per-pixel */
"128 128 8 1 ",
"  c None",
". c #000008",
"X c gray20",
"o c #434343",
"O c #535353",
"+ c #777777",
"@ c #7FB717",
"# c gray53",
/* pixels */
"++++++++++++++++++++++++++                                                                            ++++++++++++++++++++++++++",
"++++++++++++++++++++++++++                                                                            ++++++++++++++++++++++++++",
"OOOOOOOOOOOOOOOOOOOOOOOOXX                                                                            XXOOOOOOOOOOOOOOOOOOOOOOOO",
"OOOOOOOOOOOOOOOOOOOOOOOOXX                                                                            XXOOOOOOOOOOOOOOOOOOOOOOOO",
"OOOOOOOOOOOOOOOOOOOOOOOOXX                                                                            XXOOOOOOOOOOOOOOOOOOOOOOOO",
"OOOOOOOOOOOOOOOOOOOOOOOOXX                                                                            XXOOOOOOOOOOOOOOOOOOOOOOOO",
"XXXXXXXXXXXXXXXXXXXXXXXXXX                                                                            XXXXXXXXXXXXXXXXXXXXXXXXXX",
"XXXXXXXXXXXXXXXXXXXXXXXXXX                                                                            XXXXXXXXXXXXXXXXXXXXXXXXXX",
"++++++++++++++++++++++XXXX                                                                            XXXX##++++++++++++++++++++",
"++++++++++++++++++++++XXXX                                                                            XXXX##++++++++++++++++++++",
"OOOOOOOOOOOOOOOOOOOOOOXXXX                                                                            XXXX++OOOOOOOOOOOOOOOOOOOO",
"OOOOOOOOOOOOOOOOOOOOOOXXXX                                                                            XXXX++OOOOOOOOOOOOOOOOOOOO",
"OOOOOOOOOOOOOOOO++ooOOXXXX                                                                            XXXX++OO++ooOOOOOOOOOOOOOO",
"OOOOOOOOOOOOOOOO++ooOOXXXX                                                                            XXXX++OO++ooOOOOOOOOOOOOOO",
"OOOOOOOOOOOOOOOOooXXOOXXXX                                                                            XXXX++OOooXXOOOOOOOOOOOOOO",
"OOOOOOOOOOOOOOOOooXXOOXXXX                                                                            XXXX++OOooXXOOOOOOOOOOOOOO",
"OOOOOOOOOOOOOOOOOOOOOOXXXX                                                                            XXXX++OOOOOOOOOOOOOOOOOOOO",
"OOOOOOOOOOOOOOOOOOOOOOXXXX                                                                            XXXX++OOOOOOOOOOOOOOOOOOOO",
"OOOOOOOOOOOOOOOOOOOOOOXXXX                                                                            XXXX++OOOOOOOOOOOOOOOOOOOO",
"OOOOOOOOOOOOOOOOOOOOOOXXXX                                                                            XXXX++OOOOOOOOOOOOOOOOOOOO",
"OOOOOOOOOOOOOOOOOOOOOOXXXX                                                                            XXXX++OOOOOOOOOOOOOOOOOOOO",
"OOOOOOOOOOOOOOOOOOOOOOXXXX                                                                            XXXX++OOOOOOOOOOOOOOOOOOOO",
"OOOOOOOOOOOOOOOOOOOOOOXXXX                                                                            XXXX++OOOOOOOOOOOOOOOOOOOO",
"OOOOOOOOOOOOOOOOOOOOOOXXXX                                                                            XXXX++OOOOOOOOOOOOOOOOOOOO",
"OOOOOOOOOOOOOOOOOOOOOOXXXX                                                                            XXXX++OOOOOOOOOOOOOOOOOOOO",
"OOOOOOOOOOOOOOOOOOOOOOXXXX                                                                            XXXX++OOOOOOOOOOOOOOOOOOOO",
"OOOOOOOOOOOOOOOOOOOOOOXXXX                                                                            XXXX++OOOOOOOOOOOOOOOOOOOO",
"OOOOOOOOOOOOOOOOOOOOOOXXXX                                                                            XXXX++OOOOOOOOOOOOOOOOOOOO",
"OOOOOOOOOOOOOOOOOOOOOOXXXX                                                                            XXXX++OOOOOOOOOOOOOOOOOOOO",
"OOOOOOOOOOOOOOOOOOOOOOXXXX                                                                            XXXX++OOOOOOOOOOOOOOOOOOOO",
"OOOOOOOOOOOOOOOOOOOOOOXXXX                                                                            XXXX++OOOOOOOOOOOOOOOOOOOO",
"OOOOOOOOOOOOOOOOOOOOOOXXXX                                                                            XXXX++OOOOOOOOOOOOOOOOOOOO",
"OOOOOOOOOOOOOOOOOOOOOOXXXX                                                                            XXXX++OOOOOOOOOOOOOOOOOOOO",
"OOOOOOOOOOOOOOOOOOOOOOXXXX                                                                            XXXX++OOOOOOOOOOOOOOOOOOOO",
"OOOOOOOOOOOOOOOOOOOOOOXXXX                                                                            XXXX++OOOOOOOOOOOOOOOOOOOO",
"OOOOOOOOOOOOOOOOOOOOOOXXXX                                                                            XXXX++OOOOOOOOOOOOOOOOOOOO",
"OOOOOOOOOOOOOOOOOOOOOOXXXX                                                                            XXXX++OOOOOOOOOOOOOOOOOOOO",
"OOOOOOOOOOOOOOOOOOOOOOXXXX                                                                            XXXX++OOOOOOOOOOOOOOOOOOOO",
"OOOOOOOOOOOOOOOOOOOOOOXXXX                                                                            XXXX++OOOOOOOOOOOOOOOOOOOO",
"OOOOOOOOOOOOOOOOOOOOOOXXXX                                                                            XXXX++OOOOOOOOOOOOOOOOOOOO",
"OOOOOOOOOOOOOOOOOOOOOOXXXX                                                                            XXXX++OOOOOOOOOOOOOOOOOOOO",
"OOOOOOOOOOOOOOOOOOOOOOXXXX                                                                            XXXX++OOOOOOOOOOOOOOOOOOOO",
"OOOOOOOOOOOOOOOOOOOOOOXXXX                                                                            XXXX++OOOOOOOOOOOOOOOOOOOO",
"OOOOOOOOOOOOOOOOOOOOOOXXXX                                                                            XXXX++OOOOOOOOOOOOOOOOOOOO",
"OOOOOOOOOOOOOOOO++ooOOXXXX                                                                            XXXX++OO++ooOOOOOOOOOOOO++",
"OOOOOOOOOOOOOOOO++ooOOXXXX                                                                            XXXX++OO++ooOOOOOOOOOOOO++",
"OOOOOOOOOOOOOOOOooXXOOXXXX                                                                            XXXX++OOooXXOOOOOOOOOOOO++",
"OOOOOOOOOOOOOOOOooXXOOXXXX                                                                            XXXX++OOooXXOOOOOOOOOOOO++",
"OOOOOOOOOOOOOOOOOOOOOOXXXX                                                                            XXXX++OOOOOOOOOOOOOOOOOO++",
"OOOOOOOOOOOOOOOOOOOOOOXXXX                                                                            XXXX++OOOOOOOOOOOOOOOOOO++",
"XXXXXXXXXXXXXXXXXXXXXXXXXX                                                                            XXXXXXXXXXXXXXXXXXXXXXXX++",
"XXXXXXXXXXXXXXXXXXXXXXXXXX                                                                            XXXXXXXXXXXXXXXXXXXXXXXX++",
"++++++++++++XX##++++++XXXX                                                                            XX##++++++XXXX##++++++++++",
"++++++++++++XX##++++++XXXX                                                                            XX##++++++XXXX##++++++++++",
"OOOOOOOOOOOOXX++OOOOOOXXXX                                                                            XX++OOOOOOXXXX++OOOOOOOO++",
"OOOOOOOOOOOOXX++OOOOOOXXXX                                                                            XX++OOOOOOXXXX++OOOOOOOO++",
"OOOOOO++ooOOXX++OOOOOOXXXX                                                                            XX++OOOOOOXXXX++OO++ooOO++",
"OOOOOO++ooOOXX++OOOOOOXXXX                                                                            XX++OOOOOOXXXX++OO++ooOO++",
"OOOOOOooXXOOXX++OOOOOOXXXX                                                                            XX++OOOOOOXXXX++OOooXXOO++",
"OOOOOOooXXOOXX++OOOOOOXXXX                                                                            XX++OOOOOOXXXX++OOooXXOO++",
"OOOOOOOOOOOOXX++@@@@@@XXXX                                                                            XX++@@@@@@XXXX++OOOOOOOO++",
"OOOOOOOOOOOOXX++@@@@@@XXXX                                                                            XX++@@@@@@XXXX++OOOOOOOO++",
"OOOOOOOOOOOOXX++@@@@@@XXXX                                                                            XX++@@@@@@XXXX++OOOOOOOO++",
"OOOOOOOOOOOOXX++@@@@@@XXXX                                                                            XX++@@@@@@XXXX++OOOOOOOO++",
"OOOOOOOOOOOOXX++OOOOOOXXXX                                                                            XX++OOOOOOXXXX++OOOOOOOO++",
"OOOOOOOOOOOOXX++OOOOOOXXXX                                                                            XX++OOOOOOXXXX++OOOOOOOO++",
"OOOOOOOOOOOOXX++OOXXXXXXXX                                                                            XX++XXXXOOXXXX++OOOOOOOO++",
"OOOOOOOOOOOOXX++OOXXXXXXXX                                                                            XX++XXXXOOXXXX++OOOOOOOO++",
"OOOOOOOOOOOOXX++OO....XXXX                                                                            XX++....OOXXXX++OOOOOOOO++",
"OOOOOOOOOOOOXX++OO....XXXX                                                                            XX++....OOXXXX++OOOOOOOO++",
"OOOOOOOOOOOOXX++OO....XXXX                                                                            XX++....OOXXXX++OOOOOOOO++",
"OOOOOOOOOOOOXX++OO....XXXX                                                                            XX++....OOXXXX++OOOOOOOO++",
"OOOOOOOOOOOOXX++OO....XXXX                                                                            XX++....OOXXXX++OOOOOOOO++",
"OOOOOOOOOOOOXX++OO....XXXX                                                                            XX++....OOXXXX++OOOOOOOO++",
"OOOOOOOOOOOOXX++OO....XXXX                                                                            XX++....OOXXXX++OOOOOOOO++",
"OOOOOOOOOOOOXX++OO....XXXX                                                                            XX++....OOXXXX++OOOOOOOO++",
"OOOOOO++ooOOXX++OOOOOOXXXX                                                                            XX++OOOOOOXXXX++OO++ooOOOO",
"OOOOOO++ooOOXX++OOOOOOXXXX                                                                            XX++OOOOOOXXXX++OO++ooOOOO",
"OOOOOOooXXOOXXXXXXXXXXXXXX                                                                            XXXXXXXXXXXXXX++OOooXXOOOO",
"OOOOOOooXXOOXXXXXXXXXXXXXX                                                                            XXXXXXXXXXXXXX++OOooXXOOOO",
"OOOOOOOOOOOOXXXXXXXXXXXXXX                                                                            XXXXXXXXXXXXXX++OOOOOOOOOO",
"OOOOOOOOOOOOXXXXXXXXXXXXXX                                                                            XXXXXXXXXXXXXX++OOOOOOOOOO",
"XXXXXXXXXXXXXXXXXXXXXXXXXX                                                                            XXXXXXXXXXXXXXXXXXXXXXXXXX",
"XXXXXXXXXXXXXXXXXXXXXXXXXX                                                                            XXXXXXXXXXXXXXXXXXXXXXXXXX",
"++++++++++++++++++++++XXXX                                                                            XXXX##++++++++++++++++++++",
"++++++++++++++++++++++XXXX                                                                            XXXX##++++++++++++++++++++",
"OOOOOOOOOOOOOOOOOOOOOOXXXX                                                                            XXXX++OOOOOOOOOOOOOOOOOOOO",
"OOOOOOOOOOOOOOOOOOOOOOXXXX                                                                            XXXX++OOOOOOOOOOOOOOOOOOOO",
"OOOOOOOOOOOOOOOO++ooOOXXXX                                                                            XXXX++OO++ooOOOOOOOOOOOOOO",
"OOOOOOOOOOOOOOOO++ooOOXXXX                                                                            XXXX++OO++ooOOOOOOOOOOOOOO",
"OOOOOOOOOOOOOOOOooXXOOXXXX                                                                            XXXX++OOooXXOOOOOOOOOOOOOO",
"OOOOOOOOOOOOOOOOooXXOOXXXX                                                                            XXXX++OOooXXOOOOOOOOOOOOOO",
"OOOOOOOOOOOOOOOOOOOOOOXXXX                                                                            XXXX++OOOOOOOOOOOOOOOOOOOO",
"OOOOOOOOOOOOOOOOOOOOOOXXXX                                                                            XXXX++OOOOOOOOOOOOOOOOOOOO",
"OOOOOOOOOOOOOOOOOOOOOOXXXX                                                                            XXXX++OOOOOOOOOOOOOOOOOOOO",
"OOOOOOOOOOOOOOOOOOOOOOXXXX                                                                            XXXX++OOOOOOOOOOOOOOOOOOOO",
"OOOOOOOOOOOOOOOOOOOOOOXXXX                                                                            XXXX++OOOOOOOOOOOOOOOOOOOO",
"OOOOOOOOOOOOOOOOOOOOOOXXXX                                                                            XXXX++OOOOOOOOOOOOOOOOOOOO",
"OOOOOOOOOOOOOOOOOOOOOOXXXX                                                                            XXXX++OOOOOOOOOOOOOOOOOOOO",
"OOOOOOOOOOOOOOOOOOOOOOXXXX                                                                            XXXX++OOOOOOOOOOOOOOOOOOOO",
"OOOOOOOOOOOOOOOOOOOOOOXXXX                                                                            XXXX++OOOOOOOOOOOOOOOOOOOO",
"OOOOOOOOOOOOOOOOOOOOOOXXXX                                                                            XXXX++OOOOOOOOOOOOOOOOOOOO",
"OOOOOOOOOOOOOOOOOOOOOOXXXX                                                                            XXXX++OOOOOOOOOOOOOOOOOOOO",
"OOOOOOOOOOOOOOOOOOOOOOXXXX                                                                            XXXX++OOOOOOOOOOOOOOOOOOOO",
"OOOOOOOOOOOOOOOO++ooOOXXXX                                                                            XXXX++OO++ooOOOOOOOOOOOOOO",
"OOOOOOOOOOOOOOOO++ooOOXXXX                                                                            XXXX++OO++ooOOOOOOOOOOOOOO",
"OOOOOOOOOOOOOOOOooXXOOXXXX                                                                            XXXX++OOooXXOOOOOOOOOOOOOO",
"OOOOOOOOOOOOOOOOooXXOOXXXX                                                                            XXXX++OOooXXOOOOOOOOOOOOOO",
"OOOOOOOOOOOOOOOOOOOOOOXXXX                                                                            XXXX++OOOOOOOOOOOOOOOOOOOO",
"OOOOOOOOOOOOOOOOOOOOOOXXXX                                                                            XXXX++OOOOOOOOOOOOOOOOOOOO",
"XXXXXXXXXXXXXXXXXXXXXXXXXX                                                                            XXXXXXXXXXXXXXXXXXXXXXXXXX",
"XXXXXXXXXXXXXXXXXXXXXXXXXX                                                                            XXXXXXXXXXXXXXXXXXXXXXXXXX",
"++++++++++++++++++++++XXXX                                                                            XXXX++++++++++++++++++++++",
"++++++++++++++++++++++XXXX                                                                            XXXX++++++++++++++++++++++",
"OOOOOOOOOOOOOOOOOOOOOOXXXX                                                                            XXXXOOOOOOOOOOOOOOOOOOOOOO",
"OOOOOOOOOOOOOOOOOOOOOOXXXX                                                                            XXXXOOOOOOOOOOOOOOOOOOOOOO",
"OOOOOOOOOOOOOOOOOOOOOOXXXX                                                                            XXXXOOOOOOOOOOOOOOOOOOOOOO",
"OOOOOOOOOOOOOOOOOOOOOOXXXX                                                                            XXXXOOOOOOOOOOOOOOOOOOOOOO",
"OOOOOOOOOOOOOOOOOOOOOOXXXX                                                                            XXXXOOOOOOOOOOOOOOOOOOOOOO",
"OOOOOOOOOOOOOOOOOOOOOOXXXX                                                                            XXXXOOOOOOOOOOOOOOOOOOOOOO",
"OOOOOOOOOOOOOOOOOOOOOOXXXX                                                                            XXXXOOOOOOOOOOOOOOOOOOOOOO",
"OOOOOOOOOOOOOOOOOOOOOOXXXX                                                                            XXXXOOOOOOOOOOOOOOOOOOOOOO",
"OOOOOOOOOOOOOOOOOOOOOOXXXX                                                                            XXXXOOOOOOOOOOOOOOOOOOOOOO",
"OOOOOOOOOOOOOOOOOOOOOOXXXX                                                                            XXXXOOOOOOOOOOOOOOOOOOOOOO",
"OOOOOOOOOOOOOOOOOOOOOOXXXX                                                                            XXXXOOOOOOOOOOOOOOOOOOOOOO",
"OOOOOOOOOOOOOOOOOOOOOOXXXX                                                                            XXXXOOOOOOOOOOOOOOOOOOOOOO",
"XXXXXXXXXXXXXXXXXXXXXXXXXX                                                                            XXXXXXXXXXXXXXXXXXXXXXXXXX",
"XXXXXXXXXXXXXXXXXXXXXXXXXX                                                                            XXXXXXXXXXXXXXXXXXXXXXXXXX"
};
