/* XPM */
static char *_2e64fe8202a4a29e74270b07b96ad67BKLF7xQfFFxk650d[] = {
/* columns rows colors chars-per-pixel */
"128 128 12 1 ",
"  c None",
". c #000008",
"X c gray20",
"o c #434343",
"O c #535353",
"+ c #777777",
"@ c #5F9B00",
"# c #7FB717",
"$ c #A3D337",
"% c #C7EF63",
"& c gray53",
"* c #979797",
/* pixels */
"+++++++++++++++++++++++++++++++++++++++++                                              +++++++++++++++++++++++++++++++++++++++++",
"+++++++++++++++++++++++++++++++++++++++++                                              +++++++++++++++++++++++++++++++++++++++++",
"OOOOOOOOOOOOOOOOOOOOOOOOOOOOOOOOOOOOOOOXX                                              XXOOOOOOOOOOOOOOOOOOOOOOOOOOOOOOOOOOOOOOO",
"OOOOOOOOOOOOOOOOOOOOOOOOOOOOOOOOOOOOOOOXX                                              XXOOOOOOOOOOOOOOOOOOOOOOOOOOOOOOOOOOOOOOO",
"OOOOOOOOOOOOOOOOOOOOOOOOOOOOOOOOOOOOOOOXX                                              XXOOOOOOOOOOOOOOOOOOOOOOOOOOOOOOOOOOOOOOO",
"OOOOOOOOOOOOOOOOOOOOOOOOOOOOOOOOOOOOOOOXX                                              XXOOOOOOOOOOOOOOOOOOOOOOOOOOOOOOOOOOOOOOO",
"XXXXXXXXXXXXXXXXXXXXXXXXXXXXXXXXXXXXXXXXX                                              XXXXXXXXXXXXXXXXXXXXXXXXXXXXXXXXXXXXXXXXX",
"XXXXXXXXXXXXXXXXXXXXXXXXXXXXXXXXXXXXXXXXX                                              XXXXXXXXXXXXXXXXXXXXXXXXXXXXXXXXXXXXXXXXX",
"+++++++++++++++++++++++++++++++++++++XXXX                                              XXXX&&+++++++++++++++++++++++++++++++++++",
"+++++++++++++++++++++++++++++++++++++XXXX                                              XXXX&&+++++++++++++++++++++++++++++++++++",
"OOOOOOOOOOOOOOOOOOOOOOOOOOOOOOOOOOOOOXXXX                                              XXXX++OOOOOOOOOOOOOOOOOOOOOOOOOOOOOOOOOOO",
"OOOOOOOOOOOOOOOOOOOOOOOOOOOOOOOOOOOOOXXXX                                              XXXX++OOOOOOOOOOOOOOOOOOOOOOOOOOOOOOOOOOO",
"OOOOOOOOOOOOOOOOOOOOOOOOOOOOOOO++ooOOXXXX                                              XXXX++OO++ooOOOOOOOOOOOOOOOOOOOOOOOOOOOOO",
"OOOOOOOOOOOOOOOOOOOOOOOOOOOOOOO++ooOOXXXX                                              XXXX++OO++ooOOOOOOOOOOOOOOOOOOOOOOOOOOOOO",
"OOOOOOOOOOOOOOOOOOOOOOOOOOOOOOOooXXOOXXXX                                              XXXX++OOooXXOOOOOOOOOOOOOOOOOOOOOOOOOOOOO",
"OOOOOOOOOOOOOOOOOOOOOOOOOOOOOOOooXXOOXXXX                                              XXXX++OOooXXOOOOOOOOOOOOOOOOOOOOOOOOOOOOO",
"OOOOOOOOOOOOOOOOOOOOOOOOOOOOOOOOOOOOOXXXX                                              XXXX++OOOOOOOOOOOOOOOOOOOOOOOOOOOOOOOOOOO",
"OOOOOOOOOOOOOOOOOOOOOOOOOOOOOOOOOOOOOXXXX                                              XXXX++OOOOOOOOOOOOOOOOOOOOOOOOOOOOOOOOOOO",
"OOOOOOOOOOOOOOOOOOOOOOOOOOOOOOOOOOOOOXXXX                                              XXXX++OOOOOOOOOOOOOOOOOOOOOOOOOOOOOOOOOOO",
"OOOOOOOOOOOOOOOOOOOOOOOOOOOOOOOOOOOOOXXXX                                              XXXX++OOOOOOOOOOOOOOOOOOOOOOOOOOOOOOOOOOO",
"OOOOOOOOOOOOOOOOOOOOOOOOOOOOOOOOOOOOOXXXX                                              XXXX++OOOOOOOOOOOOOOOOOOOOOOOOOOOOOOOOOOO",
"OOOOOOOOOOOOOOOOOOOOOOOOOOOOOOOOOOOOOXXXX                                              XXXX++OOOOOOOOOOOOOOOOOOOOOOOOOOOOOOOOOOO",
"OOOOOOOOOOOOOOOOOOOOOOOOOOOOOOOOOOOOOXXXX                                              XXXX++OOOOOOOOOOOOOOOOOOOOOOOOOOOOOOOOOOO",
"OOOOOOOOOOOOOOOOOOOOOOOOOOOOOOOOOOOOOXXXX                                              XXXX++OOOOOOOOOOOOOOOOOOOOOOOOOOOOOOOOOOO",
"OOOOOOOOOOOOOOOOOOOOOOOOOOOOOOOOOOOOOXXXX                                              XXXX++OOOOOOOOOOOOOOOOOOOOOOOOOOOOOOOOOOO",
"OOOOOOOOOOOOOOOOOOOOOOOOOOOOOOOOOOOOOXXXX                                              XXXX++OOOOOOOOOOOOOOOOOOOOOOOOOOOOOOOOOOO",
"OOOOOOOOOOOOOOOOOOOOOOOOOOOOOOOOOOOOOXXXX                                              XXXX++OOOOOOOOOOOOOOOOOOOOOOOOOOOOOOOOOOO",
"OOOOOOOOOOOOOOOOOOOOOOOOOOOOOOOOOOOOOXXXX                                              XXXX++OOOOOOOOOOOOOOOOOOOOOOOOOOOOOOOOOOO",
"OOOOOOOOOOOOOOOOOOOOOOOOOOOOOOOOOOOOOXXXX                                              XXXX++OOOOOOOOOOOOOOOOOOOOOOOOOOOOOOOOOOO",
"OOOOOOOOOOOOOOOOOOOOOOOOOOOOOOOOOOOOOXXXX                                              XXXX++OOOOOOOOOOOOOOOOOOOOOOOOOOOOOOOOOOO",
"OOOOOOOOOOOOOOOOOOOOOOOOOOOOOOOOOOOOOXXXX                                              XXXX++OOOOOOOOOOOOOOOOOOOOOOOOOOOOOOOOOOO",
"OOOOOOOOOOOOOOOOOOOOOOOOOOOOOOOOOOOOOXXXX                                              XXXX++OOOOOOOOOOOOOOOOOOOOOOOOOOOOOOOOOOO",
"OOOOOOOOOOOOOOOOOOOOOOOOOOOOOOOOOOOOOXXXX                                              XXXX++OOOOOOOOOOOOOOOOOOOOOOOOOOOOOOOOOOO",
"OOOOOOOOOOOOOOOOOOOOOOOOOOOOOOOOOOOOOXXXX                                              XXXX++OOOOOOOOOOOOOOOOOOOOOOOOOOOOOOOOOOO",
"OOOOOOOOOOOOOOOOOOOOOOOOOOOOOOOOOOOOOXXXX                                              XXXX++OOOOOOOOOOOOOOOOOOOOOOOOOOOOOOOOOOO",
"OOOOOOOOOOOOOOOOOOOOOOOOOOOOOOOOOOOOOXXXX                                              XXXX++OOOOOOOOOOOOOOOOOOOOOOOOOOOOOOOOOOO",
"OOOOOOOOOOOOOOOOOOOOOOOOOOOOOOOOOOOOOXXXX                                              XXXX++OOOOOOOOOOOOOOOOOOOOOOOOOOOOOOOOOOO",
"OOOOOOOOOOOOOOOOOOOOOOOOOOOOOOOOOOOOOXXXX                                              XXXX++OOOOOOOOOOOOOOOOOOOOOOOOOOOOOOOOOOO",
"OOOOOOOOOOOOOOOOOOOOOOOOOOOOOOOOOOOOOXXXX                                              XXXX++OOOOOOOOOOOOOOOOOOOOOOOOOOOOOOOOOOO",
"OOOOOOOOOOOOOOOOOOOOOOOOOOOOOOOOOOOOOXXXX                                              XXXX++OOOOOOOOOOOOOOOOOOOOOOOOOOOOOOOOOOO",
"OOOOOOOOOOOOOOOOOOOOOOOOOOOOOOOOOOOOOXXXX                                              XXXX++OOOOOOOOOOOOOOOOOOOOOOOOOOOOOOOOOOO",
"OOOOOOOOOOOOOOOOOOOOOOOOOOOOOOOOOOOOOXXXX                                              XXXX++OOOOOOOOOOOOOOOOOOOOOOOOOOOOOOOOOOO",
"OOOOOOOOOOOOOOOOOOOOOOOOOOOOOOOOOOOOOXXXX                                              XXXX++OOOOOOOOOOOOOOOOOOOO+++++++++++++++",
"OOOOOOOOOOOOOOOOOOOOOOOOOOOOOOOOOOOOOXXXX                                              XXXX++OOOOOOOOOOOOOOOOOOOO+++++++++++++++",
"OOOOOOOOOOOOOOOOOOOOOOOOOOOOOOO++ooOOXXXX                                              XXXX++OO++ooOOOOOOOOOOOO++...............",
"OOOOOOOOOOOOOOOOOOOOOOOOOOOOOOO++ooOOXXXX                                              XXXX++OO++ooOOOOOOOOOOOO++...............",
"OOOOOOOOOOOOOOOOOOOOOOOOOOOOOOOooXXOOXXXX                                              XXXX++OOooXXOOOOOOOOOOOO++..............X",
"OOOOOOOOOOOOOOOOOOOOOOOOOOOOOOOooXXOOXXXX                                              XXXX++OOooXXOOOOOOOOOOOO++..............X",
"OOOOOOOOOOOOOOOOOOOOOOOOOOOOOOOOOOOOOXXXX                                              XXXX++OOOOOOOOOOOOOOOOOO++....%%$$$$##..O",
"OOOOOOOOOOOOOOOOOOOOOOOOOOOOOOOOOOOOOXXXX                                              XXXX++OOOOOOOOOOOOOOOOOO++....%%$$$$##..O",
"XXXXXXXXXXXXXXXXXXXXXXXXXXXXXXXXXXXXXXXXX                                              XXXXXXXXXXXXXXXXXXXXXXXX++....$$####@@..+",
"XXXXXXXXXXXXXXXXXXXXXXXXXXXXXXXXXXXXXXXXX                                              XXXXXXXXXXXXXXXXXXXXXXXX++....$$####@@..+",
"+++++++++++++++++++++++++++XX&&++++++XXXX                                              XX&&++++++XXXX&&++++++++++....$$####@@..+",
"+++++++++++++++++++++++++++XX&&++++++XXXX                                              XX&&++++++XXXX&&++++++++++....$$####@@..+",
"OOOOOOOOOOOOOOOOOOOOOOOOOOOXX++OOOOOOXXXX                                              XX++OOOOOOXXXX++OOOOOOOO++....$$####@@..*",
"OOOOOOOOOOOOOOOOOOOOOOOOOOOXX++OOOOOOXXXX                                              XX++OOOOOOXXXX++OOOOOOOO++....$$####@@..*",
"OOOOOOOOOOOOOOOOOOOOO++ooOOXX++OOOOOOXXXX                                              XX++OOOOOOXXXX++OO++ooOO++....##@@@@@@..*",
"OOOOOOOOOOOOOOOOOOOOO++ooOOXX++OOOOOOXXXX                                              XX++OOOOOOXXXX++OO++ooOO++....##@@@@@@..*",
"OOOOOOOOOOOOOOOOOOOOOooXXOOXX++OOOOOOXXXX                                              XX++OOOOOOXXXX++OOooXXOO++..............*",
"OOOOOOOOOOOOOOOOOOOOOooXXOOXX++OOOOOOXXXX                                              XX++OOOOOOXXXX++OOooXXOO++..............*",
"OOOOOOOOOOOOOOOOOOOOOOOOOOOXX++######XXXX                                              XX++######XXXX++OOOOOOOO++....++++OOoo..+",
"OOOOOOOOOOOOOOOOOOOOOOOOOOOXX++######XXXX                                              XX++######XXXX++OOOOOOOO++....++++OOoo..+",
"OOOOOOOOOOOOOOOOOOOOOOOOOOOXX++######XXXX                                              XX++######XXXX++OOOOOOOO++....++OOooXX..+",
"OOOOOOOOOOOOOOOOOOOOOOOOOOOXX++######XXXX                                              XX++######XXXX++OOOOOOOO++....++OOooXX..+",
"OOOOOOOOOOOOOOOOOOOOOOOOOOOXX++OOOOOOXXXX                                              XX++OOOOOOXXXX++OOOOOOOO++..............+",
"OOOOOOOOOOOOOOOOOOOOOOOOOOOXX++OOOOOOXXXX                                              XX++OOOOOOXXXX++OOOOOOOO++..............+",
"OOOOOOOOOOOOOOOOOOOOOOOOOOOXX++OOXXXXXXXX                                              XX++XXXXOOXXXX++OOOOOOOO++....++++OOoo..O",
"OOOOOOOOOOOOOOOOOOOOOOOOOOOXX++OOXXXXXXXX                                              XX++XXXXOOXXXX++OOOOOOOO++....++++OOoo..O",
"OOOOOOOOOOOOOOOOOOOOOOOOOOOXX++OO....XXXX                                              XX++....OOXXXX++OOOOOOOO++....++OOooXX..O",
"OOOOOOOOOOOOOOOOOOOOOOOOOOOXX++OO....XXXX                                              XX++....OOXXXX++OOOOOOOO++....++OOooXX..O",
"OOOOOOOOOOOOOOOOOOOOOOOOOOOXX++OO....XXXX                                              XX++....OOXXXX++OOOOOOOO++..............o",
"OOOOOOOOOOOOOOOOOOOOOOOOOOOXX++OO....XXXX                                              XX++....OOXXXX++OOOOOOOO++..............o",
"OOOOOOOOOOOOOOOOOOOOOOOOOOOXX++OO....XXXX                                              XX++....OOXXXX++OOOOOOOO++..............X",
"OOOOOOOOOOOOOOOOOOOOOOOOOOOXX++OO....XXXX                                              XX++....OOXXXX++OOOOOOOO++..............X",
"OOOOOOOOOOOOOOOOOOOOOOOOOOOXX++OO....XXXX                                              XX++....OOXXXX++OOOOOOOO++...............",
"OOOOOOOOOOOOOOOOOOOOOOOOOOOXX++OO....XXXX                                              XX++....OOXXXX++OOOOOOOO++...............",
"OOOOOOOOOOOOOOOOOOOOO++ooOOXX++OOOOOOXXXX                                              XX++OOOOOOXXXX++OO++ooOOOOXXXXXXXXXXXXXXX",
"OOOOOOOOOOOOOOOOOOOOO++ooOOXX++OOOOOOXXXX                                              XX++OOOOOOXXXX++OO++ooOOOOXXXXXXXXXXXXXXX",
"OOOOOOOOOOOOOOOOOOOOOooXXOOXXXXXXXXXXXXXX                                              XXXXXXXXXXXXXX++OOooXXOOOOOOOOOOOOOOOOOOO",
"OOOOOOOOOOOOOOOOOOOOOooXXOOXXXXXXXXXXXXXX                                              XXXXXXXXXXXXXX++OOooXXOOOOOOOOOOOOOOOOOOO",
"OOOOOOOOOOOOOOOOOOOOOOOOOOOXXXXXXXXXXXXXX                                              XXXXXXXXXXXXXX++OOOOOOOOOOOOOOOOOOOOOOOOO",
"OOOOOOOOOOOOOOOOOOOOOOOOOOOXXXXXXXXXXXXXX                                              XXXXXXXXXXXXXX++OOOOOOOOOOOOOOOOOOOOOOOOO",
"XXXXXXXXXXXXXXXXXXXXXXXXXXXXXXXXXXXXXXXXX                                              XXXXXXXXXXXXXXXXXXXXXXXXXXXXXXXXXXXXXXXXX",
"XXXXXXXXXXXXXXXXXXXXXXXXXXXXXXXXXXXXXXXXX                                              XXXXXXXXXXXXXXXXXXXXXXXXXXXXXXXXXXXXXXXXX",
"+++++++++++++++++++++++++++++++++++++XXXX                                              XXXX&&+++++++++++++++++++++++++++++++++++",
"+++++++++++++++++++++++++++++++++++++XXXX                                              XXXX&&+++++++++++++++++++++++++++++++++++",
"OOOOOOOOOOOOOOOOOOOOOOOOOOOOOOOOOOOOOXXXX                                              XXXX++OOOOOOOOOOOOOOOOOOOOOOOOOOOOOOOOOOO",
"OOOOOOOOOOOOOOOOOOOOOOOOOOOOOOOOOOOOOXXXX                                              XXXX++OOOOOOOOOOOOOOOOOOOOOOOOOOOOOOOOOOO",
"OOOOOOOOOOOOOOOOOOOOOOOOOOOOOOO++ooOOXXXX                                              XXXX++OO++ooOOOOOOOOOOOOOOOOOOOOOOOOOOOOO",
"OOOOOOOOOOOOOOOOOOOOOOOOOOOOOOO++ooOOXXXX                                              XXXX++OO++ooOOOOOOOOOOOOOOOOOOOOOOOOOOOOO",
"OOOOOOOOOOOOOOOOOOOOOOOOOOOOOOOooXXOOXXXX                                              XXXX++OOooXXOOOOOOOOOOOOOOOOOOOOOOOOOOOOO",
"OOOOOOOOOOOOOOOOOOOOOOOOOOOOOOOooXXOOXXXX                                              XXXX++OOooXXOOOOOOOOOOOOOOOOOOOOOOOOOOOOO",
"OOOOOOOOOOOOOOOOOOOOOOOOOOOOOOOOOOOOOXXXX                                              XXXX++OOOOOOOOOOOOOOOOOOOOOOOOOOOOOOOOOOO",
"OOOOOOOOOOOOOOOOOOOOOOOOOOOOOOOOOOOOOXXXX                                              XXXX++OOOOOOOOOOOOOOOOOOOOOOOOOOOOOOOOOOO",
"OOOOOOOOOOOOOOOOOOOOOOOOOOOOOOOOOOOOOXXXX                                              XXXX++OOOOOOOOOOOOOOOOOOOOOOOOOOOOOOOOOOO",
"OOOOOOOOOOOOOOOOOOOOOOOOOOOOOOOOOOOOOXXXX                                              XXXX++OOOOOOOOOOOOOOOOOOOOOOOOOOOOOOOOOOO",
"OOOOOOOOOOOOOOOOOOOOOOOOOOOOOOOOOOOOOXXXX                                              XXXX++OOOOOOOOOOOOOOOOOOOOOOOOOOOOOOOOOOO",
"OOOOOOOOOOOOOOOOOOOOOOOOOOOOOOOOOOOOOXXXX                                              XXXX++OOOOOOOOOOOOOOOOOOOOOOOOOOOOOOOOOOO",
"OOOOOOOOOOOOOOOOOOOOOOOOOOOOOOOOOOOOOXXXX                                              XXXX++OOOOOOOOOOOOOOOOOOOOOOOOOOOOOOOOOOO",
"OOOOOOOOOOOOOOOOOOOOOOOOOOOOOOOOOOOOOXXXX                                              XXXX++OOOOOOOOOOOOOOOOOOOOOOOOOOOOOOOOOOO",
"OOOOOOOOOOOOOOOOOOOOOOOOOOOOOOOOOOOOOXXXX                                              XXXX++OOOOOOOOOOOOOOOOOOOOOOOOOOOOOOOOOOO",
"OOOOOOOOOOOOOOOOOOOOOOOOOOOOOOOOOOOOOXXXX                                              XXXX++OOOOOOOOOOOOOOOOOOOOOOOOOOOOOOOOOOO",
"OOOOOOOOOOOOOOOOOOOOOOOOOOOOOOOOOOOOOXXXX                                              XXXX++OOOOOOOOOOOOOOOOOOOOOOOOOOOOOOOOOOO",
"OOOOOOOOOOOOOOOOOOOOOOOOOOOOOOOOOOOOOXXXX                                              XXXX++OOOOOOOOOOOOOOOOOOOOOOOOOOOOOOOOOOO",
"OOOOOOOOOOOOOOOOOOOOOOOOOOOOOOO++ooOOXXXX                                              XXXX++OO++ooOOOOOOOOOOOOOOOOOOOOOOOOOOOOO",
"OOOOOOOOOOOOOOOOOOOOOOOOOOOOOOO++ooOOXXXX                                              XXXX++OO++ooOOOOOOOOOOOOOOOOOOOOOOOOOOOOO",
"OOOOOOOOOOOOOOOOOOOOOOOOOOOOOOOooXXOOXXXX                                              XXXX++OOooXXOOOOOOOOOOOOOOOOOOOOOOOOOOOOO",
"OOOOOOOOOOOOOOOOOOOOOOOOOOOOOOOooXXOOXXXX                                              XXXX++OOooXXOOOOOOOOOOOOOOOOOOOOOOOOOOOOO",
"OOOOOOOOOOOOOOOOOOOOOOOOOOOOOOOOOOOOOXXXX                                              XXXX++OOOOOOOOOOOOOOOOOOOOOOOOOOOOOOOOOOO",
"OOOOOOOOOOOOOOOOOOOOOOOOOOOOOOOOOOOOOXXXX                                              XXXX++OOOOOOOOOOOOOOOOOOOOOOOOOOOOOOOOOOO",
"XXXXXXXXXXXXXXXXXXXXXXXXXXXXXXXXXXXXXXXXX                                              XXXXXXXXXXXXXXXXXXXXXXXXXXXXXXXXXXXXXXXXX",
"XXXXXXXXXXXXXXXXXXXXXXXXXXXXXXXXXXXXXXXXX                                              XXXXXXXXXXXXXXXXXXXXXXXXXXXXXXXXXXXXXXXXX",
"+++++++++++++++++++++++++++++++++++++XXXX                                              XXXX+++++++++++++++++++++++++++++++++++++",
"+++++++++++++++++++++++++++++++++++++XXXX                                              XXXX+++++++++++++++++++++++++++++++++++++",
"OOOOOOOOOOOOOOOOOOOOOOOOOOOOOOOOOOOOOXXXX                                              XXXXOOOOOOOOOOOOOOOOOOOOOOOOOOOOOOOOOOOOO",
"OOOOOOOOOOOOOOOOOOOOOOOOOOOOOOOOOOOOOXXXX                                              XXXXOOOOOOOOOOOOOOOOOOOOOOOOOOOOOOOOOOOOO",
"OOOOOOOOOOOOOOOOOOOOOOOOOOOOOOOOOOOOOXXXX                                              XXXXOOOOOOOOOOOOOOOOOOOOOOOOOOOOOOOOOOOOO",
"OOOOOOOOOOOOOOOOOOOOOOOOOOOOOOOOOOOOOXXXX                                              XXXXOOOOOOOOOOOOOOOOOOOOOOOOOOOOOOOOOOOOO",
"OOOOOOOOOOOOOOOOOOOOOOOOOOOOOOOOOOOOOXXXX                                              XXXXOOOOOOOOOOOOOOOOOOOOOOOOOOOOOOOOOOOOO",
"OOOOOOOOOOOOOOOOOOOOOOOOOOOOOOOOOOOOOXXXX                                              XXXXOOOOOOOOOOOOOOOOOOOOOOOOOOOOOOOOOOOOO",
"OOOOOOOOOOOOOOOOOOOOOOOOOOOOOOOOOOOOOXXXX                                              XXXXOOOOOOOOOOOOOOOOOOOOOOOOOOOOOOOOOOOOO",
"OOOOOOOOOOOOOOOOOOOOOOOOOOOOOOOOOOOOOXXXX                                              XXXXOOOOOOOOOOOOOOOOOOOOOOOOOOOOOOOOOOOOO",
"OOOOOOOOOOOOOOOOOOOOOOOOOOOOOOOOOOOOOXXXX                                              XXXXOOOOOOOOOOOOOOOOOOOOOOOOOOOOOOOOOOOOO",
"OOOOOOOOOOOOOOOOOOOOOOOOOOOOOOOOOOOOOXXXX                                              XXXXOOOOOOOOOOOOOOOOOOOOOOOOOOOOOOOOOOOOO",
"OOOOOOOOOOOOOOOOOOOOOOOOOOOOOOOOOOOOOXXXX                                              XXXXOOOOOOOOOOOOOOOOOOOOOOOOOOOOOOOOOOOOO",
"OOOOOOOOOOOOOOOOOOOOOOOOOOOOOOOOOOOOOXXXX                                              XXXXOOOOOOOOOOOOOOOOOOOOOOOOOOOOOOOOOOOOO",
"XXXXXXXXXXXXXXXXXXXXXXXXXXXXXXXXXXXXXXXXX                                              XXXXXXXXXXXXXXXXXXXXXXXXXXXXXXXXXXXXXXXXX",
"XXXXXXXXXXXXXXXXXXXXXXXXXXXXXXXXXXXXXXXXX                                              XXXXXXXXXXXXXXXXXXXXXXXXXXXXXXXXXXXXXXXXX"
};
