/* XPM */
static char *_ff07058e0524373f075738dd90f9912ZnJ5ueknV9P0Ymcx[] = {
/* columns rows colors chars-per-pixel */
"128 128 12 1 ",
"  c None",
". c #000008",
"X c gray20",
"o c #434343",
"O c #535353",
"+ c #777777",
"@ c #5F9B00",
"# c #7FB717",
"$ c #A3D337",
"% c #C7EF63",
"& c gray53",
"* c #979797",
/* pixels */
"++++++++++++++++++++++++++++++++++++++++++                                            ++++++++++++++++++++++++++++++++++++++++++",
"++++++++++++++++++++++++++++++++++++++++++                                            ++++++++++++++++++++++++++++++++++++++++++",
"OOOOOOOOOOOOOOOOOOOOOOOOOOOOOOOOOOOOOOOOXX                                            XXOOOOOOOOOOOOOOOOOOOOOOOOOOOOOOOOOOOOOOOO",
"OOOOOOOOOOOOOOOOOOOOOOOOOOOOOOOOOOOOOOOOXX                                            XXOOOOOOOOOOOOOOOOOOOOOOOOOOOOOOOOOOOOOOOO",
"OOOOOOOOOOOOOOOOOOOOOOOOOOOOOOOOOOOOOOOOXX                                            XXOOOOOOOOOOOOOOOOOOOOOOOOOOOOOOOOOOOOOOOO",
"OOOOOOOOOOOOOOOOOOOOOOOOOOOOOOOOOOOOOOOOXX                                            XXOOOOOOOOOOOOOOOOOOOOOOOOOOOOOOOOOOOOOOOO",
"XXXXXXXXXXXXXXXXXXXXXXXXXXXXXXXXXXXXXXXXXX                                            XXXXXXXXXXXXXXXXXXXXXXXXXXXXXXXXXXXXXXXXXX",
"XXXXXXXXXXXXXXXXXXXXXXXXXXXXXXXXXXXXXXXXXX                                            XXXXXXXXXXXXXXXXXXXXXXXXXXXXXXXXXXXXXXXXXX",
"++++++++++++++++++++++++++++++++++++++XXXX                                            XXXX&&++++++++++++++++++++++++++++++++++++",
"++++++++++++++++++++++++++++++++++++++XXXX                                            XXXX&&++++++++++++++++++++++++++++++++++++",
"OOOOOOOOOOOOOOOOOOOOOOOOOOOOOOOOOOOOOOXXXX                                            XXXX++OOOOOOOOOOOOOOOOOOOOOOOOOOOOOOOOOOOO",
"OOOOOOOOOOOOOOOOOOOOOOOOOOOOOOOOOOOOOOXXXX                                            XXXX++OOOOOOOOOOOOOOOOOOOOOOOOOOOOOOOOOOOO",
"OOOOOOOOOOOOOOOOOOOOOOOOOOOOOOOO++ooOOXXXX                                            XXXX++OO++ooOOOOOOOOOOOOOOOOOOOOOOOOOOOOOO",
"OOOOOOOOOOOOOOOOOOOOOOOOOOOOOOOO++ooOOXXXX                                            XXXX++OO++ooOOOOOOOOOOOOOOOOOOOOOOOOOOOOOO",
"OOOOOOOOOOOOOOOOOOOOOOOOOOOOOOOOooXXOOXXXX                                            XXXX++OOooXXOOOOOOOOOOOOOOOOOOOOOOOOOOOOOO",
"OOOOOOOOOOOOOOOOOOOOOOOOOOOOOOOOooXXOOXXXX                                            XXXX++OOooXXOOOOOOOOOOOOOOOOOOOOOOOOOOOOOO",
"OOOOOOOOOOOOOOOOOOOOOOOOOOOOOOOOOOOOOOXXXX                                            XXXX++OOOOOOOOOOOOOOOOOOOOOOOOOOOOOOOOOOOO",
"OOOOOOOOOOOOOOOOOOOOOOOOOOOOOOOOOOOOOOXXXX                                            XXXX++OOOOOOOOOOOOOOOOOOOOOOOOOOOOOOOOOOOO",
"OOOOOOOOOOOOOOOOOOOOOOOOOOOOOOOOOOOOOOXXXX                                            XXXX++OOOOOOOOOOOOOOOOOOOOOOOOOOOOOOOOOOOO",
"OOOOOOOOOOOOOOOOOOOOOOOOOOOOOOOOOOOOOOXXXX                                            XXXX++OOOOOOOOOOOOOOOOOOOOOOOOOOOOOOOOOOOO",
"OOOOOOOOOOOOOOOOOOOOOOOOOOOOOOOOOOOOOOXXXX                                            XXXX++OOOOOOOOOOOOOOOOOOOOOOOOOOOOOOOOOOOO",
"OOOOOOOOOOOOOOOOOOOOOOOOOOOOOOOOOOOOOOXXXX                                            XXXX++OOOOOOOOOOOOOOOOOOOOOOOOOOOOOOOOOOOO",
"OOOOOOOOOOOOOOOOOOOOOOOOOOOOOOOOOOOOOOXXXX                                            XXXX++OOOOOOOOOOOOOOOOOOOOOOOOOOOOOOOOOOOO",
"OOOOOOOOOOOOOOOOOOOOOOOOOOOOOOOOOOOOOOXXXX                                            XXXX++OOOOOOOOOOOOOOOOOOOOOOOOOOOOOOOOOOOO",
"OOOOOOOOOOOOOOOOOOOOOOOOOOOOOOOOOOOOOOXXXX                                            XXXX++OOOOOOOOOOOOOOOOOOOOOOOOOOOOOOOOOOOO",
"OOOOOOOOOOOOOOOOOOOOOOOOOOOOOOOOOOOOOOXXXX                                            XXXX++OOOOOOOOOOOOOOOOOOOOOOOOOOOOOOOOOOOO",
"OOOOOOOOOOOOOOOOOOOOOOOOOOOOOOOOOOOOOOXXXX                                            XXXX++OOOOOOOOOOOOOOOOOOOOOOOOOOOOOOOOOOOO",
"OOOOOOOOOOOOOOOOOOOOOOOOOOOOOOOOOOOOOOXXXX                                            XXXX++OOOOOOOOOOOOOOOOOOOOOOOOOOOOOOOOOOOO",
"OOOOOOOOOOOOOOOOOOOOOOOOOOOOOOOOOOOOOOXXXX                                            XXXX++OOOOOOOOOOOOOOOOOOOOOOOOOOOOOOOOOOOO",
"OOOOOOOOOOOOOOOOOOOOOOOOOOOOOOOOOOOOOOXXXX                                            XXXX++OOOOOOOOOOOOOOOOOOOOOOOOOOOOOOOOOOOO",
"OOOOOOOOOOOOOOOOOOOOOOOOOOOOOOOOOOOOOOXXXX                                            XXXX++OOOOOOOOOOOOOOOOOOOOOOOOOOOOOOOOOOOO",
"OOOOOOOOOOOOOOOOOOOOOOOOOOOOOOOOOOOOOOXXXX                                            XXXX++OOOOOOOOOOOOOOOOOOOOOOOOOOOOOOOOOOOO",
"OOOOOOOOOOOOOOOOOOOOOOOOOOOOOOOOOOOOOOXXXX                                            XXXX++OOOOOOOOOOOOOOOOOOOOOOOOOOOOOOOOOOOO",
"OOOOOOOOOOOOOOOOOOOOOOOOOOOOOOOOOOOOOOXXXX                                            XXXX++OOOOOOOOOOOOOOOOOOOOOOOOOOOOOOOOOOOO",
"OOOOOOOOOOOOOOOOOOOOOOOOOOOOOOOOOOOOOOXXXX                                            XXXX++OOOOOOOOOOOOOOOOOOOOOOOOOOOOOOOOOOOO",
"OOOOOOOOOOOOOOOOOOOOOOOOOOOOOOOOOOOOOOXXXX                                            XXXX++OOOOOOOOOOOOOOOOOOOOOOOOOOOOOOOOOOOO",
"OOOOOOOOOOOOOOOOOOOOOOOOOOOOOOOOOOOOOOXXXX                                            XXXX++OOOOOOOOOOOOOOOOOOOOOOOOOOOOOOOOOOOO",
"OOOOOOOOOOOOOOOOOOOOOOOOOOOOOOOOOOOOOOXXXX                                            XXXX++OOOOOOOOOOOOOOOOOOOOOOOOOOOOOOOOOOOO",
"OOOOOOOOOOOOOOOOOOOOOOOOOOOOOOOOOOOOOOXXXX                                            XXXX++OOOOOOOOOOOOOOOOOOOOOOOOOOOOOOOOOOOO",
"OOOOOOOOOOOOOOOOOOOOOOOOOOOOOOOOOOOOOOXXXX                                            XXXX++OOOOOOOOOOOOOOOOOOOOOOOOOOOOOOOOOOOO",
"OOOOOOOOOOOOOOOOOOOOOOOOOOOOOOOOOOOOOOXXXX                                            XXXX++OOOOOOOOOOOOOOOOOOOOOOOOOOOOOOOOOOOO",
"OOOOOOOOOOOOOOOOOOOOOOOOOOOOOOOOOOOOOOXXXX                                            XXXX++OOOOOOOOOOOOOOOOOOOOOOOOOOOOOOOOOOOO",
"OOOOOOOOOOOOOOOOOOOOOOOOOOOOOOOOOOOOOOXXXX                                            XXXX++OOOOOOOOOOOOOOOOOOOO++++++++++++++++",
"OOOOOOOOOOOOOOOOOOOOOOOOOOOOOOOOOOOOOOXXXX                                            XXXX++OOOOOOOOOOOOOOOOOOOO++++++++++++++++",
"OOOOOOOOOOOOOOOOOOOOOOOOOOOOOOOO++ooOOXXXX                                            XXXX++OO++ooOOOOOOOOOOOO++................",
"OOOOOOOOOOOOOOOOOOOOOOOOOOOOOOOO++ooOOXXXX                                            XXXX++OO++ooOOOOOOOOOOOO++................",
"OOOOOOOOOOOOOOOOOOOOOOOOOOOOOOOOooXXOOXXXX                                            XXXX++OOooXXOOOOOOOOOOOO++..............XX",
"OOOOOOOOOOOOOOOOOOOOOOOOOOOOOOOOooXXOOXXXX                                            XXXX++OOooXXOOOOOOOOOOOO++..............XX",
"OOOOOOOOOOOOOOOOOOOOOOOOOOOOOOOOOOOOOOXXXX                                            XXXX++OOOOOOOOOOOOOOOOOO++....%%$$$$##..OO",
"OOOOOOOOOOOOOOOOOOOOOOOOOOOOOOOOOOOOOOXXXX                                            XXXX++OOOOOOOOOOOOOOOOOO++....%%$$$$##..OO",
"XXXXXXXXXXXXXXXXXXXXXXXXXXXXXXXXXXXXXXXXXX                                            XXXXXXXXXXXXXXXXXXXXXXXX++....$$####@@..++",
"XXXXXXXXXXXXXXXXXXXXXXXXXXXXXXXXXXXXXXXXXX                                            XXXXXXXXXXXXXXXXXXXXXXXX++....$$####@@..++",
"++++++++++++++++++++++++++++XX&&++++++XXXX                                            XX&&++++++XXXX&&++++++++++....$$####@@..++",
"++++++++++++++++++++++++++++XX&&++++++XXXX                                            XX&&++++++XXXX&&++++++++++....$$####@@..++",
"OOOOOOOOOOOOOOOOOOOOOOOOOOOOXX++OOOOOOXXXX                                            XX++OOOOOOXXXX++OOOOOOOO++....$$####@@..**",
"OOOOOOOOOOOOOOOOOOOOOOOOOOOOXX++OOOOOOXXXX                                            XX++OOOOOOXXXX++OOOOOOOO++....$$####@@..**",
"OOOOOOOOOOOOOOOOOOOOOO++ooOOXX++OOOOOOXXXX                                            XX++OOOOOOXXXX++OO++ooOO++....##@@@@@@..**",
"OOOOOOOOOOOOOOOOOOOOOO++ooOOXX++OOOOOOXXXX                                            XX++OOOOOOXXXX++OO++ooOO++....##@@@@@@..**",
"OOOOOOOOOOOOOOOOOOOOOOooXXOOXX++OOOOOOXXXX                                            XX++OOOOOOXXXX++OOooXXOO++..............**",
"OOOOOOOOOOOOOOOOOOOOOOooXXOOXX++OOOOOOXXXX                                            XX++OOOOOOXXXX++OOooXXOO++..............**",
"OOOOOOOOOOOOOOOOOOOOOOOOOOOOXX++######XXXX                                            XX++######XXXX++OOOOOOOO++....++++OOoo..++",
"OOOOOOOOOOOOOOOOOOOOOOOOOOOOXX++######XXXX                                            XX++######XXXX++OOOOOOOO++....++++OOoo..++",
"OOOOOOOOOOOOOOOOOOOOOOOOOOOOXX++######XXXX                                            XX++######XXXX++OOOOOOOO++....++OOooXX..++",
"OOOOOOOOOOOOOOOOOOOOOOOOOOOOXX++######XXXX                                            XX++######XXXX++OOOOOOOO++....++OOooXX..++",
"OOOOOOOOOOOOOOOOOOOOOOOOOOOOXX++OOOOOOXXXX                                            XX++OOOOOOXXXX++OOOOOOOO++..............++",
"OOOOOOOOOOOOOOOOOOOOOOOOOOOOXX++OOOOOOXXXX                                            XX++OOOOOOXXXX++OOOOOOOO++..............++",
"OOOOOOOOOOOOOOOOOOOOOOOOOOOOXX++OOXXXXXXXX                                            XX++XXXXOOXXXX++OOOOOOOO++....++++OOoo..OO",
"OOOOOOOOOOOOOOOOOOOOOOOOOOOOXX++OOXXXXXXXX                                            XX++XXXXOOXXXX++OOOOOOOO++....++++OOoo..OO",
"OOOOOOOOOOOOOOOOOOOOOOOOOOOOXX++OO....XXXX                                            XX++....OOXXXX++OOOOOOOO++....++OOooXX..OO",
"OOOOOOOOOOOOOOOOOOOOOOOOOOOOXX++OO....XXXX                                            XX++....OOXXXX++OOOOOOOO++....++OOooXX..OO",
"OOOOOOOOOOOOOOOOOOOOOOOOOOOOXX++OO....XXXX                                            XX++....OOXXXX++OOOOOOOO++..............oo",
"OOOOOOOOOOOOOOOOOOOOOOOOOOOOXX++OO....XXXX                                            XX++....OOXXXX++OOOOOOOO++..............oo",
"OOOOOOOOOOOOOOOOOOOOOOOOOOOOXX++OO....XXXX                                            XX++....OOXXXX++OOOOOOOO++..............XX",
"OOOOOOOOOOOOOOOOOOOOOOOOOOOOXX++OO....XXXX                                            XX++....OOXXXX++OOOOOOOO++..............XX",
"OOOOOOOOOOOOOOOOOOOOOOOOOOOOXX++OO....XXXX                                            XX++....OOXXXX++OOOOOOOO++................",
"OOOOOOOOOOOOOOOOOOOOOOOOOOOOXX++OO....XXXX                                            XX++....OOXXXX++OOOOOOOO++................",
"OOOOOOOOOOOOOOOOOOOOOO++ooOOXX++OOOOOOXXXX                                            XX++OOOOOOXXXX++OO++ooOOOOXXXXXXXXXXXXXXXX",
"OOOOOOOOOOOOOOOOOOOOOO++ooOOXX++OOOOOOXXXX                                            XX++OOOOOOXXXX++OO++ooOOOOXXXXXXXXXXXXXXXX",
"OOOOOOOOOOOOOOOOOOOOOOooXXOOXXXXXXXXXXXXXX                                            XXXXXXXXXXXXXX++OOooXXOOOOOOOOOOOOOOOOOOOO",
"OOOOOOOOOOOOOOOOOOOOOOooXXOOXXXXXXXXXXXXXX                                            XXXXXXXXXXXXXX++OOooXXOOOOOOOOOOOOOOOOOOOO",
"OOOOOOOOOOOOOOOOOOOOOOOOOOOOXXXXXXXXXXXXXX                                            XXXXXXXXXXXXXX++OOOOOOOOOOOOOOOOOOOOOOOOOO",
"OOOOOOOOOOOOOOOOOOOOOOOOOOOOXXXXXXXXXXXXXX                                            XXXXXXXXXXXXXX++OOOOOOOOOOOOOOOOOOOOOOOOOO",
"XXXXXXXXXXXXXXXXXXXXXXXXXXXXXXXXXXXXXXXXXX                                            XXXXXXXXXXXXXXXXXXXXXXXXXXXXXXXXXXXXXXXXXX",
"XXXXXXXXXXXXXXXXXXXXXXXXXXXXXXXXXXXXXXXXXX                                            XXXXXXXXXXXXXXXXXXXXXXXXXXXXXXXXXXXXXXXXXX",
"++++++++++++++++++++++++++++++++++++++XXXX                                            XXXX&&++++++++++++++++++++++++++++++++++++",
"++++++++++++++++++++++++++++++++++++++XXXX                                            XXXX&&++++++++++++++++++++++++++++++++++++",
"OOOOOOOOOOOOOOOOOOOOOOOOOOOOOOOOOOOOOOXXXX                                            XXXX++OOOOOOOOOOOOOOOOOOOOOOOOOOOOOOOOOOOO",
"OOOOOOOOOOOOOOOOOOOOOOOOOOOOOOOOOOOOOOXXXX                                            XXXX++OOOOOOOOOOOOOOOOOOOOOOOOOOOOOOOOOOOO",
"OOOOOOOOOOOOOOOOOOOOOOOOOOOOOOOO++ooOOXXXX                                            XXXX++OO++ooOOOOOOOOOOOOOOOOOOOOOOOOOOOOOO",
"OOOOOOOOOOOOOOOOOOOOOOOOOOOOOOOO++ooOOXXXX                                            XXXX++OO++ooOOOOOOOOOOOOOOOOOOOOOOOOOOOOOO",
"OOOOOOOOOOOOOOOOOOOOOOOOOOOOOOOOooXXOOXXXX                                            XXXX++OOooXXOOOOOOOOOOOOOOOOOOOOOOOOOOOOOO",
"OOOOOOOOOOOOOOOOOOOOOOOOOOOOOOOOooXXOOXXXX                                            XXXX++OOooXXOOOOOOOOOOOOOOOOOOOOOOOOOOOOOO",
"OOOOOOOOOOOOOOOOOOOOOOOOOOOOOOOOOOOOOOXXXX                                            XXXX++OOOOOOOOOOOOOOOOOOOOOOOOOOOOOOOOOOOO",
"OOOOOOOOOOOOOOOOOOOOOOOOOOOOOOOOOOOOOOXXXX                                            XXXX++OOOOOOOOOOOOOOOOOOOOOOOOOOOOOOOOOOOO",
"OOOOOOOOOOOOOOOOOOOOOOOOOOOOOOOOOOOOOOXXXX                                            XXXX++OOOOOOOOOOOOOOOOOOOOOOOOOOOOOOOOOOOO",
"OOOOOOOOOOOOOOOOOOOOOOOOOOOOOOOOOOOOOOXXXX                                            XXXX++OOOOOOOOOOOOOOOOOOOOOOOOOOOOOOOOOOOO",
"OOOOOOOOOOOOOOOOOOOOOOOOOOOOOOOOOOOOOOXXXX                                            XXXX++OOOOOOOOOOOOOOOOOOOOOOOOOOOOOOOOOOOO",
"OOOOOOOOOOOOOOOOOOOOOOOOOOOOOOOOOOOOOOXXXX                                            XXXX++OOOOOOOOOOOOOOOOOOOOOOOOOOOOOOOOOOOO",
"OOOOOOOOOOOOOOOOOOOOOOOOOOOOOOOOOOOOOOXXXX                                            XXXX++OOOOOOOOOOOOOOOOOOOOOOOOOOOOOOOOOOOO",
"OOOOOOOOOOOOOOOOOOOOOOOOOOOOOOOOOOOOOOXXXX                                            XXXX++OOOOOOOOOOOOOOOOOOOOOOOOOOOOOOOOOOOO",
"OOOOOOOOOOOOOOOOOOOOOOOOOOOOOOOOOOOOOOXXXX                                            XXXX++OOOOOOOOOOOOOOOOOOOOOOOOOOOOOOOOOOOO",
"OOOOOOOOOOOOOOOOOOOOOOOOOOOOOOOOOOOOOOXXXX                                            XXXX++OOOOOOOOOOOOOOOOOOOOOOOOOOOOOOOOOOOO",
"OOOOOOOOOOOOOOOOOOOOOOOOOOOOOOOOOOOOOOXXXX                                            XXXX++OOOOOOOOOOOOOOOOOOOOOOOOOOOOOOOOOOOO",
"OOOOOOOOOOOOOOOOOOOOOOOOOOOOOOOOOOOOOOXXXX                                            XXXX++OOOOOOOOOOOOOOOOOOOOOOOOOOOOOOOOOOOO",
"OOOOOOOOOOOOOOOOOOOOOOOOOOOOOOOO++ooOOXXXX                                            XXXX++OO++ooOOOOOOOOOOOOOOOOOOOOOOOOOOOOOO",
"OOOOOOOOOOOOOOOOOOOOOOOOOOOOOOOO++ooOOXXXX                                            XXXX++OO++ooOOOOOOOOOOOOOOOOOOOOOOOOOOOOOO",
"OOOOOOOOOOOOOOOOOOOOOOOOOOOOOOOOooXXOOXXXX                                            XXXX++OOooXXOOOOOOOOOOOOOOOOOOOOOOOOOOOOOO",
"OOOOOOOOOOOOOOOOOOOOOOOOOOOOOOOOooXXOOXXXX                                            XXXX++OOooXXOOOOOOOOOOOOOOOOOOOOOOOOOOOOOO",
"OOOOOOOOOOOOOOOOOOOOOOOOOOOOOOOOOOOOOOXXXX                                            XXXX++OOOOOOOOOOOOOOOOOOOOOOOOOOOOOOOOOOOO",
"OOOOOOOOOOOOOOOOOOOOOOOOOOOOOOOOOOOOOOXXXX                                            XXXX++OOOOOOOOOOOOOOOOOOOOOOOOOOOOOOOOOOOO",
"XXXXXXXXXXXXXXXXXXXXXXXXXXXXXXXXXXXXXXXXXX                                            XXXXXXXXXXXXXXXXXXXXXXXXXXXXXXXXXXXXXXXXXX",
"XXXXXXXXXXXXXXXXXXXXXXXXXXXXXXXXXXXXXXXXXX                                            XXXXXXXXXXXXXXXXXXXXXXXXXXXXXXXXXXXXXXXXXX",
"++++++++++++++++++++++++++++++++++++++XXXX                                            XXXX++++++++++++++++++++++++++++++++++++++",
"++++++++++++++++++++++++++++++++++++++XXXX                                            XXXX++++++++++++++++++++++++++++++++++++++",
"OOOOOOOOOOOOOOOOOOOOOOOOOOOOOOOOOOOOOOXXXX                                            XXXXOOOOOOOOOOOOOOOOOOOOOOOOOOOOOOOOOOOOOO",
"OOOOOOOOOOOOOOOOOOOOOOOOOOOOOOOOOOOOOOXXXX                                            XXXXOOOOOOOOOOOOOOOOOOOOOOOOOOOOOOOOOOOOOO",
"OOOOOOOOOOOOOOOOOOOOOOOOOOOOOOOOOOOOOOXXXX                                            XXXXOOOOOOOOOOOOOOOOOOOOOOOOOOOOOOOOOOOOOO",
"OOOOOOOOOOOOOOOOOOOOOOOOOOOOOOOOOOOOOOXXXX                                            XXXXOOOOOOOOOOOOOOOOOOOOOOOOOOOOOOOOOOOOOO",
"OOOOOOOOOOOOOOOOOOOOOOOOOOOOOOOOOOOOOOXXXX                                            XXXXOOOOOOOOOOOOOOOOOOOOOOOOOOOOOOOOOOOOOO",
"OOOOOOOOOOOOOOOOOOOOOOOOOOOOOOOOOOOOOOXXXX                                            XXXXOOOOOOOOOOOOOOOOOOOOOOOOOOOOOOOOOOOOOO",
"OOOOOOOOOOOOOOOOOOOOOOOOOOOOOOOOOOOOOOXXXX                                            XXXXOOOOOOOOOOOOOOOOOOOOOOOOOOOOOOOOOOOOOO",
"OOOOOOOOOOOOOOOOOOOOOOOOOOOOOOOOOOOOOOXXXX                                            XXXXOOOOOOOOOOOOOOOOOOOOOOOOOOOOOOOOOOOOOO",
"OOOOOOOOOOOOOOOOOOOOOOOOOOOOOOOOOOOOOOXXXX                                            XXXXOOOOOOOOOOOOOOOOOOOOOOOOOOOOOOOOOOOOOO",
"OOOOOOOOOOOOOOOOOOOOOOOOOOOOOOOOOOOOOOXXXX                                            XXXXOOOOOOOOOOOOOOOOOOOOOOOOOOOOOOOOOOOOOO",
"OOOOOOOOOOOOOOOOOOOOOOOOOOOOOOOOOOOOOOXXXX                                            XXXXOOOOOOOOOOOOOOOOOOOOOOOOOOOOOOOOOOOOOO",
"OOOOOOOOOOOOOOOOOOOOOOOOOOOOOOOOOOOOOOXXXX                                            XXXXOOOOOOOOOOOOOOOOOOOOOOOOOOOOOOOOOOOOOO",
"XXXXXXXXXXXXXXXXXXXXXXXXXXXXXXXXXXXXXXXXXX                                            XXXXXXXXXXXXXXXXXXXXXXXXXXXXXXXXXXXXXXXXXX",
"XXXXXXXXXXXXXXXXXXXXXXXXXXXXXXXXXXXXXXXXXX                                            XXXXXXXXXXXXXXXXXXXXXXXXXXXXXXXXXXXXXXXXXX"
};
