/* XPM */
static char *_6978b29d8ed455fcce817170e2a7943k8eHA9zIeQM0gIpi[] = {
/* columns rows colors chars-per-pixel */
"128 128 8 1 ",
"  c None",
". c #000008",
"X c gray20",
"o c #434343",
"O c #535353",
"+ c #777777",
"@ c #7FB717",
"# c gray53",
/* pixels */
"++++++++++++++++++++++++++++                                                                        ++++++++++++++++++++++++++++",
"++++++++++++++++++++++++++++                                                                        ++++++++++++++++++++++++++++",
"OOOOOOOOOOOOOOOOOOOOOOOOOOXX                                                                        XXOOOOOOOOOOOOOOOOOOOOOOOOOO",
"OOOOOOOOOOOOOOOOOOOOOOOOOOXX                                                                        XXOOOOOOOOOOOOOOOOOOOOOOOOOO",
"OOOOOOOOOOOOOOOOOOOOOOOOOOXX                                                                        XXOOOOOOOOOOOOOOOOOOOOOOOOOO",
"OOOOOOOOOOOOOOOOOOOOOOOOOOXX                                                                        XXOOOOOOOOOOOOOOOOOOOOOOOOOO",
"XXXXXXXXXXXXXXXXXXXXXXXXXXXX                                                                        XXXXXXXXXXXXXXXXXXXXXXXXXXXX",
"XXXXXXXXXXXXXXXXXXXXXXXXXXXX                                                                        XXXXXXXXXXXXXXXXXXXXXXXXXXXX",
"++++++++++++++++++++++++XXXX                                                                        XXXX##++++++++++++++++++++++",
"++++++++++++++++++++++++XXXX                                                                        XXXX##++++++++++++++++++++++",
"OOOOOOOOOOOOOOOOOOOOOOOOXXXX                                                                        XXXX++OOOOOOOOOOOOOOOOOOOOOO",
"OOOOOOOOOOOOOOOOOOOOOOOOXXXX                                                                        XXXX++OOOOOOOOOOOOOOOOOOOOOO",
"OOOOOOOOOOOOOOOOOO++ooOOXXXX                                                                        XXXX++OO++ooOOOOOOOOOOOOOOOO",
"OOOOOOOOOOOOOOOOOO++ooOOXXXX                                                                        XXXX++OO++ooOOOOOOOOOOOOOOOO",
"OOOOOOOOOOOOOOOOOOooXXOOXXXX                                                                        XXXX++OOooXXOOOOOOOOOOOOOOOO",
"OOOOOOOOOOOOOOOOOOooXXOOXXXX                                                                        XXXX++OOooXXOOOOOOOOOOOOOOOO",
"OOOOOOOOOOOOOOOOOOOOOOOOXXXX                                                                        XXXX++OOOOOOOOOOOOOOOOOOOOOO",
"OOOOOOOOOOOOOOOOOOOOOOOOXXXX                                                                        XXXX++OOOOOOOOOOOOOOOOOOOOOO",
"OOOOOOOOOOOOOOOOOOOOOOOOXXXX                                                                        XXXX++OOOOOOOOOOOOOOOOOOOOOO",
"OOOOOOOOOOOOOOOOOOOOOOOOXXXX                                                                        XXXX++OOOOOOOOOOOOOOOOOOOOOO",
"OOOOOOOOOOOOOOOOOOOOOOOOXXXX                                                                        XXXX++OOOOOOOOOOOOOOOOOOOOOO",
"OOOOOOOOOOOOOOOOOOOOOOOOXXXX                                                                        XXXX++OOOOOOOOOOOOOOOOOOOOOO",
"OOOOOOOOOOOOOOOOOOOOOOOOXXXX                                                                        XXXX++OOOOOOOOOOOOOOOOOOOOOO",
"OOOOOOOOOOOOOOOOOOOOOOOOXXXX                                                                        XXXX++OOOOOOOOOOOOOOOOOOOOOO",
"OOOOOOOOOOOOOOOOOOOOOOOOXXXX                                                                        XXXX++OOOOOOOOOOOOOOOOOOOOOO",
"OOOOOOOOOOOOOOOOOOOOOOOOXXXX                                                                        XXXX++OOOOOOOOOOOOOOOOOOOOOO",
"OOOOOOOOOOOOOOOOOOOOOOOOXXXX                                                                        XXXX++OOOOOOOOOOOOOOOOOOOOOO",
"OOOOOOOOOOOOOOOOOOOOOOOOXXXX                                                                        XXXX++OOOOOOOOOOOOOOOOOOOOOO",
"OOOOOOOOOOOOOOOOOOOOOOOOXXXX                                                                        XXXX++OOOOOOOOOOOOOOOOOOOOOO",
"OOOOOOOOOOOOOOOOOOOOOOOOXXXX                                                                        XXXX++OOOOOOOOOOOOOOOOOOOOOO",
"OOOOOOOOOOOOOOOOOOOOOOOOXXXX                                                                        XXXX++OOOOOOOOOOOOOOOOOOOOOO",
"OOOOOOOOOOOOOOOOOOOOOOOOXXXX                                                                        XXXX++OOOOOOOOOOOOOOOOOOOOOO",
"OOOOOOOOOOOOOOOOOOOOOOOOXXXX                                                                        XXXX++OOOOOOOOOOOOOOOOOOOOOO",
"OOOOOOOOOOOOOOOOOOOOOOOOXXXX                                                                        XXXX++OOOOOOOOOOOOOOOOOOOOOO",
"OOOOOOOOOOOOOOOOOOOOOOOOXXXX                                                                        XXXX++OOOOOOOOOOOOOOOOOOOOOO",
"OOOOOOOOOOOOOOOOOOOOOOOOXXXX                                                                        XXXX++OOOOOOOOOOOOOOOOOOOOOO",
"OOOOOOOOOOOOOOOOOOOOOOOOXXXX                                                                        XXXX++OOOOOOOOOOOOOOOOOOOOOO",
"OOOOOOOOOOOOOOOOOOOOOOOOXXXX                                                                        XXXX++OOOOOOOOOOOOOOOOOOOOOO",
"OOOOOOOOOOOOOOOOOOOOOOOOXXXX                                                                        XXXX++OOOOOOOOOOOOOOOOOOOOOO",
"OOOOOOOOOOOOOOOOOOOOOOOOXXXX                                                                        XXXX++OOOOOOOOOOOOOOOOOOOOOO",
"OOOOOOOOOOOOOOOOOOOOOOOOXXXX                                                                        XXXX++OOOOOOOOOOOOOOOOOOOOOO",
"OOOOOOOOOOOOOOOOOOOOOOOOXXXX                                                                        XXXX++OOOOOOOOOOOOOOOOOOOOOO",
"OOOOOOOOOOOOOOOOOOOOOOOOXXXX                                                                        XXXX++OOOOOOOOOOOOOOOOOOOO++",
"OOOOOOOOOOOOOOOOOOOOOOOOXXXX                                                                        XXXX++OOOOOOOOOOOOOOOOOOOO++",
"OOOOOOOOOOOOOOOOOO++ooOOXXXX                                                                        XXXX++OO++ooOOOOOOOOOOOO++..",
"OOOOOOOOOOOOOOOOOO++ooOOXXXX                                                                        XXXX++OO++ooOOOOOOOOOOOO++..",
"OOOOOOOOOOOOOOOOOOooXXOOXXXX                                                                        XXXX++OOooXXOOOOOOOOOOOO++..",
"OOOOOOOOOOOOOOOOOOooXXOOXXXX                                                                        XXXX++OOooXXOOOOOOOOOOOO++..",
"OOOOOOOOOOOOOOOOOOOOOOOOXXXX                                                                        XXXX++OOOOOOOOOOOOOOOOOO++..",
"OOOOOOOOOOOOOOOOOOOOOOOOXXXX                                                                        XXXX++OOOOOOOOOOOOOOOOOO++..",
"XXXXXXXXXXXXXXXXXXXXXXXXXXXX                                                                        XXXXXXXXXXXXXXXXXXXXXXXX++..",
"XXXXXXXXXXXXXXXXXXXXXXXXXXXX                                                                        XXXXXXXXXXXXXXXXXXXXXXXX++..",
"++++++++++++++XX##++++++XXXX                                                                        XX##++++++XXXX##++++++++++..",
"++++++++++++++XX##++++++XXXX                                                                        XX##++++++XXXX##++++++++++..",
"OOOOOOOOOOOOOOXX++OOOOOOXXXX                                                                        XX++OOOOOOXXXX++OOOOOOOO++..",
"OOOOOOOOOOOOOOXX++OOOOOOXXXX                                                                        XX++OOOOOOXXXX++OOOOOOOO++..",
"OOOOOOOO++ooOOXX++OOOOOOXXXX                                                                        XX++OOOOOOXXXX++OO++ooOO++..",
"OOOOOOOO++ooOOXX++OOOOOOXXXX                                                                        XX++OOOOOOXXXX++OO++ooOO++..",
"OOOOOOOOooXXOOXX++OOOOOOXXXX                                                                        XX++OOOOOOXXXX++OOooXXOO++..",
"OOOOOOOOooXXOOXX++OOOOOOXXXX                                                                        XX++OOOOOOXXXX++OOooXXOO++..",
"OOOOOOOOOOOOOOXX++@@@@@@XXXX                                                                        XX++@@@@@@XXXX++OOOOOOOO++..",
"OOOOOOOOOOOOOOXX++@@@@@@XXXX                                                                        XX++@@@@@@XXXX++OOOOOOOO++..",
"OOOOOOOOOOOOOOXX++@@@@@@XXXX                                                                        XX++@@@@@@XXXX++OOOOOOOO++..",
"OOOOOOOOOOOOOOXX++@@@@@@XXXX                                                                        XX++@@@@@@XXXX++OOOOOOOO++..",
"OOOOOOOOOOOOOOXX++OOOOOOXXXX                                                                        XX++OOOOOOXXXX++OOOOOOOO++..",
"OOOOOOOOOOOOOOXX++OOOOOOXXXX                                                                        XX++OOOOOOXXXX++OOOOOOOO++..",
"OOOOOOOOOOOOOOXX++OOXXXXXXXX                                                                        XX++XXXXOOXXXX++OOOOOOOO++..",
"OOOOOOOOOOOOOOXX++OOXXXXXXXX                                                                        XX++XXXXOOXXXX++OOOOOOOO++..",
"OOOOOOOOOOOOOOXX++OO....XXXX                                                                        XX++....OOXXXX++OOOOOOOO++..",
"OOOOOOOOOOOOOOXX++OO....XXXX                                                                        XX++....OOXXXX++OOOOOOOO++..",
"OOOOOOOOOOOOOOXX++OO....XXXX                                                                        XX++....OOXXXX++OOOOOOOO++..",
"OOOOOOOOOOOOOOXX++OO....XXXX                                                                        XX++....OOXXXX++OOOOOOOO++..",
"OOOOOOOOOOOOOOXX++OO....XXXX                                                                        XX++....OOXXXX++OOOOOOOO++..",
"OOOOOOOOOOOOOOXX++OO....XXXX                                                                        XX++....OOXXXX++OOOOOOOO++..",
"OOOOOOOOOOOOOOXX++OO....XXXX                                                                        XX++....OOXXXX++OOOOOOOO++..",
"OOOOOOOOOOOOOOXX++OO....XXXX                                                                        XX++....OOXXXX++OOOOOOOO++..",
"OOOOOOOO++ooOOXX++OOOOOOXXXX                                                                        XX++OOOOOOXXXX++OO++ooOOOOXX",
"OOOOOOOO++ooOOXX++OOOOOOXXXX                                                                        XX++OOOOOOXXXX++OO++ooOOOOXX",
"OOOOOOOOooXXOOXXXXXXXXXXXXXX                                                                        XXXXXXXXXXXXXX++OOooXXOOOOOO",
"OOOOOOOOooXXOOXXXXXXXXXXXXXX                                                                        XXXXXXXXXXXXXX++OOooXXOOOOOO",
"OOOOOOOOOOOOOOXXXXXXXXXXXXXX                                                                        XXXXXXXXXXXXXX++OOOOOOOOOOOO",
"OOOOOOOOOOOOOOXXXXXXXXXXXXXX                                                                        XXXXXXXXXXXXXX++OOOOOOOOOOOO",
"XXXXXXXXXXXXXXXXXXXXXXXXXXXX                                                                        XXXXXXXXXXXXXXXXXXXXXXXXXXXX",
"XXXXXXXXXXXXXXXXXXXXXXXXXXXX                                                                        XXXXXXXXXXXXXXXXXXXXXXXXXXXX",
"++++++++++++++++++++++++XXXX                                                                        XXXX##++++++++++++++++++++++",
"++++++++++++++++++++++++XXXX                                                                        XXXX##++++++++++++++++++++++",
"OOOOOOOOOOOOOOOOOOOOOOOOXXXX                                                                        XXXX++OOOOOOOOOOOOOOOOOOOOOO",
"OOOOOOOOOOOOOOOOOOOOOOOOXXXX                                                                        XXXX++OOOOOOOOOOOOOOOOOOOOOO",
"OOOOOOOOOOOOOOOOOO++ooOOXXXX                                                                        XXXX++OO++ooOOOOOOOOOOOOOOOO",
"OOOOOOOOOOOOOOOOOO++ooOOXXXX                                                                        XXXX++OO++ooOOOOOOOOOOOOOOOO",
"OOOOOOOOOOOOOOOOOOooXXOOXXXX                                                                        XXXX++OOooXXOOOOOOOOOOOOOOOO",
"OOOOOOOOOOOOOOOOOOooXXOOXXXX                                                                        XXXX++OOooXXOOOOOOOOOOOOOOOO",
"OOOOOOOOOOOOOOOOOOOOOOOOXXXX                                                                        XXXX++OOOOOOOOOOOOOOOOOOOOOO",
"OOOOOOOOOOOOOOOOOOOOOOOOXXXX                                                                        XXXX++OOOOOOOOOOOOOOOOOOOOOO",
"OOOOOOOOOOOOOOOOOOOOOOOOXXXX                                                                        XXXX++OOOOOOOOOOOOOOOOOOOOOO",
"OOOOOOOOOOOOOOOOOOOOOOOOXXXX                                                                        XXXX++OOOOOOOOOOOOOOOOOOOOOO",
"OOOOOOOOOOOOOOOOOOOOOOOOXXXX                                                                        XXXX++OOOOOOOOOOOOOOOOOOOOOO",
"OOOOOOOOOOOOOOOOOOOOOOOOXXXX                                                                        XXXX++OOOOOOOOOOOOOOOOOOOOOO",
"OOOOOOOOOOOOOOOOOOOOOOOOXXXX                                                                        XXXX++OOOOOOOOOOOOOOOOOOOOOO",
"OOOOOOOOOOOOOOOOOOOOOOOOXXXX                                                                        XXXX++OOOOOOOOOOOOOOOOOOOOOO",
"OOOOOOOOOOOOOOOOOOOOOOOOXXXX                                                                        XXXX++OOOOOOOOOOOOOOOOOOOOOO",
"OOOOOOOOOOOOOOOOOOOOOOOOXXXX                                                                        XXXX++OOOOOOOOOOOOOOOOOOOOOO",
"OOOOOOOOOOOOOOOOOOOOOOOOXXXX                                                                        XXXX++OOOOOOOOOOOOOOOOOOOOOO",
"OOOOOOOOOOOOOOOOOOOOOOOOXXXX                                                                        XXXX++OOOOOOOOOOOOOOOOOOOOOO",
"OOOOOOOOOOOOOOOOOO++ooOOXXXX                                                                        XXXX++OO++ooOOOOOOOOOOOOOOOO",
"OOOOOOOOOOOOOOOOOO++ooOOXXXX                                                                        XXXX++OO++ooOOOOOOOOOOOOOOOO",
"OOOOOOOOOOOOOOOOOOooXXOOXXXX                                                                        XXXX++OOooXXOOOOOOOOOOOOOOOO",
"OOOOOOOOOOOOOOOOOOooXXOOXXXX                                                                        XXXX++OOooXXOOOOOOOOOOOOOOOO",
"OOOOOOOOOOOOOOOOOOOOOOOOXXXX                                                                        XXXX++OOOOOOOOOOOOOOOOOOOOOO",
"OOOOOOOOOOOOOOOOOOOOOOOOXXXX                                                                        XXXX++OOOOOOOOOOOOOOOOOOOOOO",
"XXXXXXXXXXXXXXXXXXXXXXXXXXXX                                                                        XXXXXXXXXXXXXXXXXXXXXXXXXXXX",
"XXXXXXXXXXXXXXXXXXXXXXXXXXXX                                                                        XXXXXXXXXXXXXXXXXXXXXXXXXXXX",
"++++++++++++++++++++++++XXXX                                                                        XXXX++++++++++++++++++++++++",
"++++++++++++++++++++++++XXXX                                                                        XXXX++++++++++++++++++++++++",
"OOOOOOOOOOOOOOOOOOOOOOOOXXXX                                                                        XXXXOOOOOOOOOOOOOOOOOOOOOOOO",
"OOOOOOOOOOOOOOOOOOOOOOOOXXXX                                                                        XXXXOOOOOOOOOOOOOOOOOOOOOOOO",
"OOOOOOOOOOOOOOOOOOOOOOOOXXXX                                                                        XXXXOOOOOOOOOOOOOOOOOOOOOOOO",
"OOOOOOOOOOOOOOOOOOOOOOOOXXXX                                                                        XXXXOOOOOOOOOOOOOOOOOOOOOOOO",
"OOOOOOOOOOOOOOOOOOOOOOOOXXXX                                                                        XXXXOOOOOOOOOOOOOOOOOOOOOOOO",
"OOOOOOOOOOOOOOOOOOOOOOOOXXXX                                                                        XXXXOOOOOOOOOOOOOOOOOOOOOOOO",
"OOOOOOOOOOOOOOOOOOOOOOOOXXXX                                                                        XXXXOOOOOOOOOOOOOOOOOOOOOOOO",
"OOOOOOOOOOOOOOOOOOOOOOOOXXXX                                                                        XXXXOOOOOOOOOOOOOOOOOOOOOOOO",
"OOOOOOOOOOOOOOOOOOOOOOOOXXXX                                                                        XXXXOOOOOOOOOOOOOOOOOOOOOOOO",
"OOOOOOOOOOOOOOOOOOOOOOOOXXXX                                                                        XXXXOOOOOOOOOOOOOOOOOOOOOOOO",
"OOOOOOOOOOOOOOOOOOOOOOOOXXXX                                                                        XXXXOOOOOOOOOOOOOOOOOOOOOOOO",
"OOOOOOOOOOOOOOOOOOOOOOOOXXXX                                                                        XXXXOOOOOOOOOOOOOOOOOOOOOOOO",
"XXXXXXXXXXXXXXXXXXXXXXXXXXXX                                                                        XXXXXXXXXXXXXXXXXXXXXXXXXXXX",
"XXXXXXXXXXXXXXXXXXXXXXXXXXXX                                                                        XXXXXXXXXXXXXXXXXXXXXXXXXXXX"
};
