/* XPM */
static char *ce5dcdd71c24452edb16a2bd5a665cdbjUcVbHiVEVuJM6Bf[] = {
/* columns rows colors chars-per-pixel */
"128 128 8 1 ",
"  c None",
". c #000008",
"X c gray20",
"o c #434343",
"O c #535353",
"+ c #777777",
"@ c #7FB717",
"# c gray53",
/* pixels */
"++++++++++                                                                                                            ++++++++++",
"++++++++++                                                                                                            ++++++++++",
"OOOOOOOOXX                                                                                                            XXOOOOOOOO",
"OOOOOOOOXX                                                                                                            XXOOOOOOOO",
"OOOOOOOOXX                                                                                                            XXOOOOOOOO",
"OOOOOOOOXX                                                                                                            XXOOOOOOOO",
"XXXXXXXXXX                                                                                                            XXXXXXXXXX",
"XXXXXXXXXX                                                                                                            XXXXXXXXXX",
"++++++XXXX                                                                                                            XXXX##++++",
"++++++XXXX                                                                                                            XXXX##++++",
"OOOOOOXXXX                                                                                                            XXXX++OOOO",
"OOOOOOXXXX                                                                                                            XXXX++OOOO",
"++ooOOXXXX                                                                                                            XXXX++OO++",
"++ooOOXXXX                                                                                                            XXXX++OO++",
"ooXXOOXXXX                                                                                                            XXXX++OOoo",
"ooXXOOXXXX                                                                                                            XXXX++OOoo",
"OOOOOOXXXX                                                                                                            XXXX++OOOO",
"OOOOOOXXXX                                                                                                            XXXX++OOOO",
"OOOOOOXXXX                                                                                                            XXXX++OOOO",
"OOOOOOXXXX                                                                                                            XXXX++OOOO",
"OOOOOOXXXX                                                                                                            XXXX++OOOO",
"OOOOOOXXXX                                                                                                            XXXX++OOOO",
"OOOOOOXXXX                                                                                                            XXXX++OOOO",
"OOOOOOXXXX                                                                                                            XXXX++OOOO",
"OOOOOOXXXX                                                                                                            XXXX++OOOO",
"OOOOOOXXXX                                                                                                            XXXX++OOOO",
"OOOOOOXXXX                                                                                                            XXXX++OOOO",
"OOOOOOXXXX                                                                                                            XXXX++OOOO",
"OOOOOOXXXX                                                                                                            XXXX++OOOO",
"OOOOOOXXXX                                                                                                            XXXX++OOOO",
"OOOOOOXXXX                                                                                                            XXXX++OOOO",
"OOOOOOXXXX                                                                                                            XXXX++OOOO",
"OOOOOOXXXX                                                                                                            XXXX++OOOO",
"OOOOOOXXXX                                                                                                            XXXX++OOOO",
"OOOOOOXXXX                                                                                                            XXXX++OOOO",
"OOOOOOXXXX                                                                                                            XXXX++OOOO",
"OOOOOOXXXX                                                                                                            XXXX++OOOO",
"OOOOOOXXXX                                                                                                            XXXX++OOOO",
"OOOOOOXXXX                                                                                                            XXXX++OOOO",
"OOOOOOXXXX                                                                                                            XXXX++OOOO",
"OOOOOOXXXX                                                                                                            XXXX++OOOO",
"OOOOOOXXXX                                                                                                            XXXX++OOOO",
"OOOOOOXXXX                                                                                                            XXXX++OOOO",
"OOOOOOXXXX                                                                                                            XXXX++OOOO",
"++ooOOXXXX                                                                                                            XXXX++OO++",
"++ooOOXXXX                                                                                                            XXXX++OO++",
"ooXXOOXXXX                                                                                                            XXXX++OOoo",
"ooXXOOXXXX                                                                                                            XXXX++OOoo",
"OOOOOOXXXX                                                                                                            XXXX++OOOO",
"OOOOOOXXXX                                                                                                            XXXX++OOOO",
"XXXXXXXXXX                                                                                                            XXXXXXXXXX",
"XXXXXXXXXX                                                                                                            XXXXXXXXXX",
"++++++XXXX                                                                                                            XX##++++++",
"++++++XXXX                                                                                                            XX##++++++",
"OOOOOOXXXX                                                                                                            XX++OOOOOO",
"OOOOOOXXXX                                                                                                            XX++OOOOOO",
"OOOOOOXXXX                                                                                                            XX++OOOOOO",
"OOOOOOXXXX                                                                                                            XX++OOOOOO",
"OOOOOOXXXX                                                                                                            XX++OOOOOO",
"OOOOOOXXXX                                                                                                            XX++OOOOOO",
"@@@@@@XXXX                                                                                                            XX++@@@@@@",
"@@@@@@XXXX                                                                                                            XX++@@@@@@",
"@@@@@@XXXX                                                                                                            XX++@@@@@@",
"@@@@@@XXXX                                                                                                            XX++@@@@@@",
"OOOOOOXXXX                                                                                                            XX++OOOOOO",
"OOOOOOXXXX                                                                                                            XX++OOOOOO",
"OOXXXXXXXX                                                                                                            XX++XXXXOO",
"OOXXXXXXXX                                                                                                            XX++XXXXOO",
"OO....XXXX                                                                                                            XX++....OO",
"OO....XXXX                                                                                                            XX++....OO",
"OO....XXXX                                                                                                            XX++....OO",
"OO....XXXX                                                                                                            XX++....OO",
"OO....XXXX                                                                                                            XX++....OO",
"OO....XXXX                                                                                                            XX++....OO",
"OO....XXXX                                                                                                            XX++....OO",
"OO....XXXX                                                                                                            XX++....OO",
"OOOOOOXXXX                                                                                                            XX++OOOOOO",
"OOOOOOXXXX                                                                                                            XX++OOOOOO",
"XXXXXXXXXX                                                                                                            XXXXXXXXXX",
"XXXXXXXXXX                                                                                                            XXXXXXXXXX",
"XXXXXXXXXX                                                                                                            XXXXXXXXXX",
"XXXXXXXXXX                                                                                                            XXXXXXXXXX",
"XXXXXXXXXX                                                                                                            XXXXXXXXXX",
"XXXXXXXXXX                                                                                                            XXXXXXXXXX",
"++++++XXXX                                                                                                            XXXX##++++",
"++++++XXXX                                                                                                            XXXX##++++",
"OOOOOOXXXX                                                                                                            XXXX++OOOO",
"OOOOOOXXXX                                                                                                            XXXX++OOOO",
"++ooOOXXXX                                                                                                            XXXX++OO++",
"++ooOOXXXX                                                                                                            XXXX++OO++",
"ooXXOOXXXX                                                                                                            XXXX++OOoo",
"ooXXOOXXXX                                                                                                            XXXX++OOoo",
"OOOOOOXXXX                                                                                                            XXXX++OOOO",
"OOOOOOXXXX                                                                                                            XXXX++OOOO",
"OOOOOOXXXX                                                                                                            XXXX++OOOO",
"OOOOOOXXXX                                                                                                            XXXX++OOOO",
"OOOOOOXXXX                                                                                                            XXXX++OOOO",
"OOOOOOXXXX                                                                                                            XXXX++OOOO",
"OOOOOOXXXX                                                                                                            XXXX++OOOO",
"OOOOOOXXXX                                                                                                            XXXX++OOOO",
"OOOOOOXXXX                                                                                                            XXXX++OOOO",
"OOOOOOXXXX                                                                                                            XXXX++OOOO",
"OOOOOOXXXX                                                                                                            XXXX++OOOO",
"OOOOOOXXXX                                                                                                            XXXX++OOOO",
"++ooOOXXXX                                                                                                            XXXX++OO++",
"++ooOOXXXX                                                                                                            XXXX++OO++",
"ooXXOOXXXX                                                                                                            XXXX++OOoo",
"ooXXOOXXXX                                                                                                            XXXX++OOoo",
"OOOOOOXXXX                                                                                                            XXXX++OOOO",
"OOOOOOXXXX                                                                                                            XXXX++OOOO",
"XXXXXXXXXX                                                                                                            XXXXXXXXXX",
"XXXXXXXXXX                                                                                                            XXXXXXXXXX",
"++++++XXXX                                                                                                            XXXX++++++",
"++++++XXXX                                                                                                            XXXX++++++",
"OOOOOOXXXX                                                                                                            XXXXOOOOOO",
"OOOOOOXXXX                                                                                                            XXXXOOOOOO",
"OOOOOOXXXX                                                                                                            XXXXOOOOOO",
"OOOOOOXXXX                                                                                                            XXXXOOOOOO",
"OOOOOOXXXX                                                                                                            XXXXOOOOOO",
"OOOOOOXXXX                                                                                                            XXXXOOOOOO",
"OOOOOOXXXX                                                                                                            XXXXOOOOOO",
"OOOOOOXXXX                                                                                                            XXXXOOOOOO",
"OOOOOOXXXX                                                                                                            XXXXOOOOOO",
"OOOOOOXXXX                                                                                                            XXXXOOOOOO",
"OOOOOOXXXX                                                                                                            XXXXOOOOOO",
"OOOOOOXXXX                                                                                                            XXXXOOOOOO",
"XXXXXXXXXX                                                                                                            XXXXXXXXXX",
"XXXXXXXXXX                                                                                                            XXXXXXXXXX"
};
