/* XPM */
static char *_ee5bcbd553444a5dcc60c03e3be19b3s5NU0fqy3Dbyn5Xn[] = {
/* columns rows colors chars-per-pixel */
"128 128 8 1 ",
"  c None",
". c #000008",
"X c gray20",
"o c #434343",
"O c #535353",
"+ c #777777",
"@ c #7FB717",
"# c gray53",
/* pixels */
"++++++++++++++++++++++                                                                                    ++++++++++++++++++++++",
"++++++++++++++++++++++                                                                                    ++++++++++++++++++++++",
"OOOOOOOOOOOOOOOOOOOOXX                                                                                    XXOOOOOOOOOOOOOOOOOOOO",
"OOOOOOOOOOOOOOOOOOOOXX                                                                                    XXOOOOOOOOOOOOOOOOOOOO",
"OOOOOOOOOOOOOOOOOOOOXX                                                                                    XXOOOOOOOOOOOOOOOOOOOO",
"OOOOOOOOOOOOOOOOOOOOXX                                                                                    XXOOOOOOOOOOOOOOOOOOOO",
"XXXXXXXXXXXXXXXXXXXXXX                                                                                    XXXXXXXXXXXXXXXXXXXXXX",
"XXXXXXXXXXXXXXXXXXXXXX                                                                                    XXXXXXXXXXXXXXXXXXXXXX",
"++++++++++++++++++XXXX                                                                                    XXXX##++++++++++++++++",
"++++++++++++++++++XXXX                                                                                    XXXX##++++++++++++++++",
"OOOOOOOOOOOOOOOOOOXXXX                                                                                    XXXX++OOOOOOOOOOOOOOOO",
"OOOOOOOOOOOOOOOOOOXXXX                                                                                    XXXX++OOOOOOOOOOOOOOOO",
"OOOOOOOOOOOO++ooOOXXXX                                                                                    XXXX++OO++ooOOOOOOOOOO",
"OOOOOOOOOOOO++ooOOXXXX                                                                                    XXXX++OO++ooOOOOOOOOOO",
"OOOOOOOOOOOOooXXOOXXXX                                                                                    XXXX++OOooXXOOOOOOOOOO",
"OOOOOOOOOOOOooXXOOXXXX                                                                                    XXXX++OOooXXOOOOOOOOOO",
"OOOOOOOOOOOOOOOOOOXXXX                                                                                    XXXX++OOOOOOOOOOOOOOOO",
"OOOOOOOOOOOOOOOOOOXXXX                                                                                    XXXX++OOOOOOOOOOOOOOOO",
"OOOOOOOOOOOOOOOOOOXXXX                                                                                    XXXX++OOOOOOOOOOOOOOOO",
"OOOOOOOOOOOOOOOOOOXXXX                                                                                    XXXX++OOOOOOOOOOOOOOOO",
"OOOOOOOOOOOOOOOOOOXXXX                                                                                    XXXX++OOOOOOOOOOOOOOOO",
"OOOOOOOOOOOOOOOOOOXXXX                                                                                    XXXX++OOOOOOOOOOOOOOOO",
"OOOOOOOOOOOOOOOOOOXXXX                                                                                    XXXX++OOOOOOOOOOOOOOOO",
"OOOOOOOOOOOOOOOOOOXXXX                                                                                    XXXX++OOOOOOOOOOOOOOOO",
"OOOOOOOOOOOOOOOOOOXXXX                                                                                    XXXX++OOOOOOOOOOOOOOOO",
"OOOOOOOOOOOOOOOOOOXXXX                                                                                    XXXX++OOOOOOOOOOOOOOOO",
"OOOOOOOOOOOOOOOOOOXXXX                                                                                    XXXX++OOOOOOOOOOOOOOOO",
"OOOOOOOOOOOOOOOOOOXXXX                                                                                    XXXX++OOOOOOOOOOOOOOOO",
"OOOOOOOOOOOOOOOOOOXXXX                                                                                    XXXX++OOOOOOOOOOOOOOOO",
"OOOOOOOOOOOOOOOOOOXXXX                                                                                    XXXX++OOOOOOOOOOOOOOOO",
"OOOOOOOOOOOOOOOOOOXXXX                                                                                    XXXX++OOOOOOOOOOOOOOOO",
"OOOOOOOOOOOOOOOOOOXXXX                                                                                    XXXX++OOOOOOOOOOOOOOOO",
"OOOOOOOOOOOOOOOOOOXXXX                                                                                    XXXX++OOOOOOOOOOOOOOOO",
"OOOOOOOOOOOOOOOOOOXXXX                                                                                    XXXX++OOOOOOOOOOOOOOOO",
"OOOOOOOOOOOOOOOOOOXXXX                                                                                    XXXX++OOOOOOOOOOOOOOOO",
"OOOOOOOOOOOOOOOOOOXXXX                                                                                    XXXX++OOOOOOOOOOOOOOOO",
"OOOOOOOOOOOOOOOOOOXXXX                                                                                    XXXX++OOOOOOOOOOOOOOOO",
"OOOOOOOOOOOOOOOOOOXXXX                                                                                    XXXX++OOOOOOOOOOOOOOOO",
"OOOOOOOOOOOOOOOOOOXXXX                                                                                    XXXX++OOOOOOOOOOOOOOOO",
"OOOOOOOOOOOOOOOOOOXXXX                                                                                    XXXX++OOOOOOOOOOOOOOOO",
"OOOOOOOOOOOOOOOOOOXXXX                                                                                    XXXX++OOOOOOOOOOOOOOOO",
"OOOOOOOOOOOOOOOOOOXXXX                                                                                    XXXX++OOOOOOOOOOOOOOOO",
"OOOOOOOOOOOOOOOOOOXXXX                                                                                    XXXX++OOOOOOOOOOOOOOOO",
"OOOOOOOOOOOOOOOOOOXXXX                                                                                    XXXX++OOOOOOOOOOOOOOOO",
"OOOOOOOOOOOO++ooOOXXXX                                                                                    XXXX++OO++ooOOOOOOOOOO",
"OOOOOOOOOOOO++ooOOXXXX                                                                                    XXXX++OO++ooOOOOOOOOOO",
"OOOOOOOOOOOOooXXOOXXXX                                                                                    XXXX++OOooXXOOOOOOOOOO",
"OOOOOOOOOOOOooXXOOXXXX                                                                                    XXXX++OOooXXOOOOOOOOOO",
"OOOOOOOOOOOOOOOOOOXXXX                                                                                    XXXX++OOOOOOOOOOOOOOOO",
"OOOOOOOOOOOOOOOOOOXXXX                                                                                    XXXX++OOOOOOOOOOOOOOOO",
"XXXXXXXXXXXXXXXXXXXXXX                                                                                    XXXXXXXXXXXXXXXXXXXXXX",
"XXXXXXXXXXXXXXXXXXXXXX                                                                                    XXXXXXXXXXXXXXXXXXXXXX",
"++++++++XX##++++++XXXX                                                                                    XX##++++++XXXX##++++++",
"++++++++XX##++++++XXXX                                                                                    XX##++++++XXXX##++++++",
"OOOOOOOOXX++OOOOOOXXXX                                                                                    XX++OOOOOOXXXX++OOOOOO",
"OOOOOOOOXX++OOOOOOXXXX                                                                                    XX++OOOOOOXXXX++OOOOOO",
"OO++ooOOXX++OOOOOOXXXX                                                                                    XX++OOOOOOXXXX++OO++oo",
"OO++ooOOXX++OOOOOOXXXX                                                                                    XX++OOOOOOXXXX++OO++oo",
"OOooXXOOXX++OOOOOOXXXX                                                                                    XX++OOOOOOXXXX++OOooXX",
"OOooXXOOXX++OOOOOOXXXX                                                                                    XX++OOOOOOXXXX++OOooXX",
"OOOOOOOOXX++@@@@@@XXXX                                                                                    XX++@@@@@@XXXX++OOOOOO",
"OOOOOOOOXX++@@@@@@XXXX                                                                                    XX++@@@@@@XXXX++OOOOOO",
"OOOOOOOOXX++@@@@@@XXXX                                                                                    XX++@@@@@@XXXX++OOOOOO",
"OOOOOOOOXX++@@@@@@XXXX                                                                                    XX++@@@@@@XXXX++OOOOOO",
"OOOOOOOOXX++OOOOOOXXXX                                                                                    XX++OOOOOOXXXX++OOOOOO",
"OOOOOOOOXX++OOOOOOXXXX                                                                                    XX++OOOOOOXXXX++OOOOOO",
"OOOOOOOOXX++OOXXXXXXXX                                                                                    XX++XXXXOOXXXX++OOOOOO",
"OOOOOOOOXX++OOXXXXXXXX                                                                                    XX++XXXXOOXXXX++OOOOOO",
"OOOOOOOOXX++OO....XXXX                                                                                    XX++....OOXXXX++OOOOOO",
"OOOOOOOOXX++OO....XXXX                                                                                    XX++....OOXXXX++OOOOOO",
"OOOOOOOOXX++OO....XXXX                                                                                    XX++....OOXXXX++OOOOOO",
"OOOOOOOOXX++OO....XXXX                                                                                    XX++....OOXXXX++OOOOOO",
"OOOOOOOOXX++OO....XXXX                                                                                    XX++....OOXXXX++OOOOOO",
"OOOOOOOOXX++OO....XXXX                                                                                    XX++....OOXXXX++OOOOOO",
"OOOOOOOOXX++OO....XXXX                                                                                    XX++....OOXXXX++OOOOOO",
"OOOOOOOOXX++OO....XXXX                                                                                    XX++....OOXXXX++OOOOOO",
"OO++ooOOXX++OOOOOOXXXX                                                                                    XX++OOOOOOXXXX++OO++oo",
"OO++ooOOXX++OOOOOOXXXX                                                                                    XX++OOOOOOXXXX++OO++oo",
"OOooXXOOXXXXXXXXXXXXXX                                                                                    XXXXXXXXXXXXXX++OOooXX",
"OOooXXOOXXXXXXXXXXXXXX                                                                                    XXXXXXXXXXXXXX++OOooXX",
"OOOOOOOOXXXXXXXXXXXXXX                                                                                    XXXXXXXXXXXXXX++OOOOOO",
"OOOOOOOOXXXXXXXXXXXXXX                                                                                    XXXXXXXXXXXXXX++OOOOOO",
"XXXXXXXXXXXXXXXXXXXXXX                                                                                    XXXXXXXXXXXXXXXXXXXXXX",
"XXXXXXXXXXXXXXXXXXXXXX                                                                                    XXXXXXXXXXXXXXXXXXXXXX",
"++++++++++++++++++XXXX                                                                                    XXXX##++++++++++++++++",
"++++++++++++++++++XXXX                                                                                    XXXX##++++++++++++++++",
"OOOOOOOOOOOOOOOOOOXXXX                                                                                    XXXX++OOOOOOOOOOOOOOOO",
"OOOOOOOOOOOOOOOOOOXXXX                                                                                    XXXX++OOOOOOOOOOOOOOOO",
"OOOOOOOOOOOO++ooOOXXXX                                                                                    XXXX++OO++ooOOOOOOOOOO",
"OOOOOOOOOOOO++ooOOXXXX                                                                                    XXXX++OO++ooOOOOOOOOOO",
"OOOOOOOOOOOOooXXOOXXXX                                                                                    XXXX++OOooXXOOOOOOOOOO",
"OOOOOOOOOOOOooXXOOXXXX                                                                                    XXXX++OOooXXOOOOOOOOOO",
"OOOOOOOOOOOOOOOOOOXXXX                                                                                    XXXX++OOOOOOOOOOOOOOOO",
"OOOOOOOOOOOOOOOOOOXXXX                                                                                    XXXX++OOOOOOOOOOOOOOOO",
"OOOOOOOOOOOOOOOOOOXXXX                                                                                    XXXX++OOOOOOOOOOOOOOOO",
"OOOOOOOOOOOOOOOOOOXXXX                                                                                    XXXX++OOOOOOOOOOOOOOOO",
"OOOOOOOOOOOOOOOOOOXXXX                                                                                    XXXX++OOOOOOOOOOOOOOOO",
"OOOOOOOOOOOOOOOOOOXXXX                                                                                    XXXX++OOOOOOOOOOOOOOOO",
"OOOOOOOOOOOOOOOOOOXXXX                                                                                    XXXX++OOOOOOOOOOOOOOOO",
"OOOOOOOOOOOOOOOOOOXXXX                                                                                    XXXX++OOOOOOOOOOOOOOOO",
"OOOOOOOOOOOOOOOOOOXXXX                                                                                    XXXX++OOOOOOOOOOOOOOOO",
"OOOOOOOOOOOOOOOOOOXXXX                                                                                    XXXX++OOOOOOOOOOOOOOOO",
"OOOOOOOOOOOOOOOOOOXXXX                                                                                    XXXX++OOOOOOOOOOOOOOOO",
"OOOOOOOOOOOOOOOOOOXXXX                                                                                    XXXX++OOOOOOOOOOOOOOOO",
"OOOOOOOOOOOO++ooOOXXXX                                                                                    XXXX++OO++ooOOOOOOOOOO",
"OOOOOOOOOOOO++ooOOXXXX                                                                                    XXXX++OO++ooOOOOOOOOOO",
"OOOOOOOOOOOOooXXOOXXXX                                                                                    XXXX++OOooXXOOOOOOOOOO",
"OOOOOOOOOOOOooXXOOXXXX                                                                                    XXXX++OOooXXOOOOOOOOOO",
"OOOOOOOOOOOOOOOOOOXXXX                                                                                    XXXX++OOOOOOOOOOOOOOOO",
"OOOOOOOOOOOOOOOOOOXXXX                                                                                    XXXX++OOOOOOOOOOOOOOOO",
"XXXXXXXXXXXXXXXXXXXXXX                                                                                    XXXXXXXXXXXXXXXXXXXXXX",
"XXXXXXXXXXXXXXXXXXXXXX                                                                                    XXXXXXXXXXXXXXXXXXXXXX",
"++++++++++++++++++XXXX                                                                                    XXXX++++++++++++++++++",
"++++++++++++++++++XXXX                                                                                    XXXX++++++++++++++++++",
"OOOOOOOOOOOOOOOOOOXXXX                                                                                    XXXXOOOOOOOOOOOOOOOOOO",
"OOOOOOOOOOOOOOOOOOXXXX                                                                                    XXXXOOOOOOOOOOOOOOOOOO",
"OOOOOOOOOOOOOOOOOOXXXX                                                                                    XXXXOOOOOOOOOOOOOOOOOO",
"OOOOOOOOOOOOOOOOOOXXXX                                                                                    XXXXOOOOOOOOOOOOOOOOOO",
"OOOOOOOOOOOOOOOOOOXXXX                                                                                    XXXXOOOOOOOOOOOOOOOOOO",
"OOOOOOOOOOOOOOOOOOXXXX                                                                                    XXXXOOOOOOOOOOOOOOOOOO",
"OOOOOOOOOOOOOOOOOOXXXX                                                                                    XXXXOOOOOOOOOOOOOOOOOO",
"OOOOOOOOOOOOOOOOOOXXXX                                                                                    XXXXOOOOOOOOOOOOOOOOOO",
"OOOOOOOOOOOOOOOOOOXXXX                                                                                    XXXXOOOOOOOOOOOOOOOOOO",
"OOOOOOOOOOOOOOOOOOXXXX                                                                                    XXXXOOOOOOOOOOOOOOOOOO",
"OOOOOOOOOOOOOOOOOOXXXX                                                                                    XXXXOOOOOOOOOOOOOOOOOO",
"OOOOOOOOOOOOOOOOOOXXXX                                                                                    XXXXOOOOOOOOOOOOOOOOOO",
"XXXXXXXXXXXXXXXXXXXXXX                                                                                    XXXXXXXXXXXXXXXXXXXXXX",
"XXXXXXXXXXXXXXXXXXXXXX                                                                                    XXXXXXXXXXXXXXXXXXXXXX"
};
