/* XPM */
static char *_6d7221c0a7c4f428561cd7e47053a4ewcgnLOhBpsfKN5sm[] = {
/* columns rows colors chars-per-pixel */
"128 128 12 1 ",
"  c None",
". c #000008",
"X c gray20",
"o c #434343",
"O c #535353",
"+ c #777777",
"@ c #5F9B00",
"# c #7FB717",
"$ c #A3D337",
"% c #C7EF63",
"& c gray53",
"* c #979797",
/* pixels */
"++++++++++++++++++++++++++++++++++++++++++++                                        ++++++++++++++++++++++++++++++++++++++++++++",
"++++++++++++++++++++++++++++++++++++++++++++                                        ++++++++++++++++++++++++++++++++++++++++++++",
"OOOOOOOOOOOOOOOOOOOOOOOOOOOOOOOOOOOOOOOOOOXX                                        XXOOOOOOOOOOOOOOOOOOOOOOOOOOOOOOOOOOOOOOOOOO",
"OOOOOOOOOOOOOOOOOOOOOOOOOOOOOOOOOOOOOOOOOOXX                                        XXOOOOOOOOOOOOOOOOOOOOOOOOOOOOOOOOOOOOOOOOOO",
"OOOOOOOOOOOOOOOOOOOOOOOOOOOOOOOOOOOOOOOOOOXX                                        XXOOOOOOOOOOOOOOOOOOOOOOOOOOOOOOOOOOOOOOOOOO",
"OOOOOOOOOOOOOOOOOOOOOOOOOOOOOOOOOOOOOOOOOOXX                                        XXOOOOOOOOOOOOOOOOOOOOOOOOOOOOOOOOOOOOOOOOOO",
"XXXXXXXXXXXXXXXXXXXXXXXXXXXXXXXXXXXXXXXXXXXX                                        XXXXXXXXXXXXXXXXXXXXXXXXXXXXXXXXXXXXXXXXXXXX",
"XXXXXXXXXXXXXXXXXXXXXXXXXXXXXXXXXXXXXXXXXXXX                                        XXXXXXXXXXXXXXXXXXXXXXXXXXXXXXXXXXXXXXXXXXXX",
"++++++++++++++++++++++++++++++++++++++++XXXX                                        XXXX&&++++++++++++++++++++++++++++++++++++++",
"++++++++++++++++++++++++++++++++++++++++XXXX                                        XXXX&&++++++++++++++++++++++++++++++++++++++",
"OOOOOOOOOOOOOOOOOOOOOOOOOOOOOOOOOOOOOOOOXXXX                                        XXXX++OOOOOOOOOOOOOOOOOOOOOOOOOOOOOOOOOOOOOO",
"OOOOOOOOOOOOOOOOOOOOOOOOOOOOOOOOOOOOOOOOXXXX                                        XXXX++OOOOOOOOOOOOOOOOOOOOOOOOOOOOOOOOOOOOOO",
"OOOOOOOOOOOOOOOOOOOOOOOOOOOOOOOOOO++ooOOXXXX                                        XXXX++OO++ooOOOOOOOOOOOOOOOOOOOOOOOOOOOOOOOO",
"OOOOOOOOOOOOOOOOOOOOOOOOOOOOOOOOOO++ooOOXXXX                                        XXXX++OO++ooOOOOOOOOOOOOOOOOOOOOOOOOOOOOOOOO",
"OOOOOOOOOOOOOOOOOOOOOOOOOOOOOOOOOOooXXOOXXXX                                        XXXX++OOooXXOOOOOOOOOOOOOOOOOOOOOOOOOOOOOOOO",
"OOOOOOOOOOOOOOOOOOOOOOOOOOOOOOOOOOooXXOOXXXX                                        XXXX++OOooXXOOOOOOOOOOOOOOOOOOOOOOOOOOOOOOOO",
"OOOOOOOOOOOOOOOOOOOOOOOOOOOOOOOOOOOOOOOOXXXX                                        XXXX++OOOOOOOOOOOOOOOOOOOOOOOOOOOOOOOOOOOOOO",
"OOOOOOOOOOOOOOOOOOOOOOOOOOOOOOOOOOOOOOOOXXXX                                        XXXX++OOOOOOOOOOOOOOOOOOOOOOOOOOOOOOOOOOOOOO",
"OOOOOOOOOOOOOOOOOOOOOOOOOOOOOOOOOOOOOOOOXXXX                                        XXXX++OOOOOOOOOOOOOOOOOOOOOOOOOOOOOOOOOOOOOO",
"OOOOOOOOOOOOOOOOOOOOOOOOOOOOOOOOOOOOOOOOXXXX                                        XXXX++OOOOOOOOOOOOOOOOOOOOOOOOOOOOOOOOOOOOOO",
"OOOOOOOOOOOOOOOOOOOOOOOOOOOOOOOOOOOOOOOOXXXX                                        XXXX++OOOOOOOOOOOOOOOOOOOOOOOOOOOOOOOOOOOOOO",
"OOOOOOOOOOOOOOOOOOOOOOOOOOOOOOOOOOOOOOOOXXXX                                        XXXX++OOOOOOOOOOOOOOOOOOOOOOOOOOOOOOOOOOOOOO",
"OOOOOOOOOOOOOOOOOOOOOOOOOOOOOOOOOOOOOOOOXXXX                                        XXXX++OOOOOOOOOOOOOOOOOOOOOOOOOOOOOOOOOOOOOO",
"OOOOOOOOOOOOOOOOOOOOOOOOOOOOOOOOOOOOOOOOXXXX                                        XXXX++OOOOOOOOOOOOOOOOOOOOOOOOOOOOOOOOOOOOOO",
"OOOOOOOOOOOOOOOOOOOOOOOOOOOOOOOOOOOOOOOOXXXX                                        XXXX++OOOOOOOOOOOOOOOOOOOOOOOOOOOOOOOOOOOOOO",
"OOOOOOOOOOOOOOOOOOOOOOOOOOOOOOOOOOOOOOOOXXXX                                        XXXX++OOOOOOOOOOOOOOOOOOOOOOOOOOOOOOOOOOOOOO",
"OOOOOOOOOOOOOOOOOOOOOOOOOOOOOOOOOOOOOOOOXXXX                                        XXXX++OOOOOOOOOOOOOOOOOOOOOOOOOOOOOOOOOOOOOO",
"OOOOOOOOOOOOOOOOOOOOOOOOOOOOOOOOOOOOOOOOXXXX                                        XXXX++OOOOOOOOOOOOOOOOOOOOOOOOOOOOOOOOOOOOOO",
"OOOOOOOOOOOOOOOOOOOOOOOOOOOOOOOOOOOOOOOOXXXX                                        XXXX++OOOOOOOOOOOOOOOOOOOOOOOOOOOOOOOOOOOOOO",
"OOOOOOOOOOOOOOOOOOOOOOOOOOOOOOOOOOOOOOOOXXXX                                        XXXX++OOOOOOOOOOOOOOOOOOOOOOOOOOOOOOOOOOOOOO",
"OOOOOOOOOOOOOOOOOOOOOOOOOOOOOOOOOOOOOOOOXXXX                                        XXXX++OOOOOOOOOOOOOOOOOOOOOOOOOOOOOOOOOOOOOO",
"OOOOOOOOOOOOOOOOOOOOOOOOOOOOOOOOOOOOOOOOXXXX                                        XXXX++OOOOOOOOOOOOOOOOOOOOOOOOOOOOOOOOOOOOOO",
"OOOOOOOOOOOOOOOOOOOOOOOOOOOOOOOOOOOOOOOOXXXX                                        XXXX++OOOOOOOOOOOOOOOOOOOOOOOOOOOOOOOOOOOOOO",
"OOOOOOOOOOOOOOOOOOOOOOOOOOOOOOOOOOOOOOOOXXXX                                        XXXX++OOOOOOOOOOOOOOOOOOOOOOOOOOOOOOOOOOOOOO",
"OOOOOOOOOOOOOOOOOOOOOOOOOOOOOOOOOOOOOOOOXXXX                                        XXXX++OOOOOOOOOOOOOOOOOOOOOOOOOOOOOOOOOOOOOO",
"OOOOOOOOOOOOOOOOOOOOOOOOOOOOOOOOOOOOOOOOXXXX                                        XXXX++OOOOOOOOOOOOOOOOOOOOOOOOOOOOOOOOOOOOOO",
"OOOOOOOOOOOOOOOOOOOOOOOOOOOOOOOOOOOOOOOOXXXX                                        XXXX++OOOOOOOOOOOOOOOOOOOOOOOOOOOOOOOOOOOOOO",
"OOOOOOOOOOOOOOOOOOOOOOOOOOOOOOOOOOOOOOOOXXXX                                        XXXX++OOOOOOOOOOOOOOOOOOOOOOOOOOOOOOOOOOOOOO",
"OOOOOOOOOOOOOOOOOOOOOOOOOOOOOOOOOOOOOOOOXXXX                                        XXXX++OOOOOOOOOOOOOOOOOOOOOOOOOOOOOOOOOOOOOO",
"OOOOOOOOOOOOOOOOOOOOOOOOOOOOOOOOOOOOOOOOXXXX                                        XXXX++OOOOOOOOOOOOOOOOOOOOOOOOOOOOOOOOOOOOOO",
"OOOOOOOOOOOOOOOOOOOOOOOOOOOOOOOOOOOOOOOOXXXX                                        XXXX++OOOOOOOOOOOOOOOOOOOOOOOOOOOOOOOOOOOOOO",
"OOOOOOOOOOOOOOOOOOOOOOOOOOOOOOOOOOOOOOOOXXXX                                        XXXX++OOOOOOOOOOOOOOOOOOOOOOOOOOOOOOOOOOOOOO",
"OOOOOOOOOOOOOOOOOOOOOOOOOOOOOOOOOOOOOOOOXXXX                                        XXXX++OOOOOOOOOOOOOOOOOOOO++++++++++++++++++",
"OOOOOOOOOOOOOOOOOOOOOOOOOOOOOOOOOOOOOOOOXXXX                                        XXXX++OOOOOOOOOOOOOOOOOOOO++++++++++++++++++",
"OOOOOOOOOOOOOOOOOOOOOOOOOOOOOOOOOO++ooOOXXXX                                        XXXX++OO++ooOOOOOOOOOOOO++..................",
"OOOOOOOOOOOOOOOOOOOOOOOOOOOOOOOOOO++ooOOXXXX                                        XXXX++OO++ooOOOOOOOOOOOO++..................",
"OOOOOOOOOOOOOOOOOOOOOOOOOOOOOOOOOOooXXOOXXXX                                        XXXX++OOooXXOOOOOOOOOOOO++..............XX..",
"OOOOOOOOOOOOOOOOOOOOOOOOOOOOOOOOOOooXXOOXXXX                                        XXXX++OOooXXOOOOOOOOOOOO++..............XX..",
"OOOOOOOOOOOOOOOOOOOOOOOOOOOOOOOOOOOOOOOOXXXX                                        XXXX++OOOOOOOOOOOOOOOOOO++....%%$$$$##..OO..",
"OOOOOOOOOOOOOOOOOOOOOOOOOOOOOOOOOOOOOOOOXXXX                                        XXXX++OOOOOOOOOOOOOOOOOO++....%%$$$$##..OO..",
"XXXXXXXXXXXXXXXXXXXXXXXXXXXXXXXXXXXXXXXXXXXX                                        XXXXXXXXXXXXXXXXXXXXXXXX++....$$####@@..++..",
"XXXXXXXXXXXXXXXXXXXXXXXXXXXXXXXXXXXXXXXXXXXX                                        XXXXXXXXXXXXXXXXXXXXXXXX++....$$####@@..++..",
"++++++++++++++++++++++++++++++XX&&++++++XXXX                                        XX&&++++++XXXX&&++++++++++....$$####@@..++..",
"++++++++++++++++++++++++++++++XX&&++++++XXXX                                        XX&&++++++XXXX&&++++++++++....$$####@@..++..",
"OOOOOOOOOOOOOOOOOOOOOOOOOOOOOOXX++OOOOOOXXXX                                        XX++OOOOOOXXXX++OOOOOOOO++....$$####@@..**..",
"OOOOOOOOOOOOOOOOOOOOOOOOOOOOOOXX++OOOOOOXXXX                                        XX++OOOOOOXXXX++OOOOOOOO++....$$####@@..**..",
"OOOOOOOOOOOOOOOOOOOOOOOO++ooOOXX++OOOOOOXXXX                                        XX++OOOOOOXXXX++OO++ooOO++....##@@@@@@..**..",
"OOOOOOOOOOOOOOOOOOOOOOOO++ooOOXX++OOOOOOXXXX                                        XX++OOOOOOXXXX++OO++ooOO++....##@@@@@@..**..",
"OOOOOOOOOOOOOOOOOOOOOOOOooXXOOXX++OOOOOOXXXX                                        XX++OOOOOOXXXX++OOooXXOO++..............**..",
"OOOOOOOOOOOOOOOOOOOOOOOOooXXOOXX++OOOOOOXXXX                                        XX++OOOOOOXXXX++OOooXXOO++..............**..",
"OOOOOOOOOOOOOOOOOOOOOOOOOOOOOOXX++######XXXX                                        XX++######XXXX++OOOOOOOO++....++++OOoo..++..",
"OOOOOOOOOOOOOOOOOOOOOOOOOOOOOOXX++######XXXX                                        XX++######XXXX++OOOOOOOO++....++++OOoo..++..",
"OOOOOOOOOOOOOOOOOOOOOOOOOOOOOOXX++######XXXX                                        XX++######XXXX++OOOOOOOO++....++OOooXX..++..",
"OOOOOOOOOOOOOOOOOOOOOOOOOOOOOOXX++######XXXX                                        XX++######XXXX++OOOOOOOO++....++OOooXX..++..",
"OOOOOOOOOOOOOOOOOOOOOOOOOOOOOOXX++OOOOOOXXXX                                        XX++OOOOOOXXXX++OOOOOOOO++..............++..",
"OOOOOOOOOOOOOOOOOOOOOOOOOOOOOOXX++OOOOOOXXXX                                        XX++OOOOOOXXXX++OOOOOOOO++..............++..",
"OOOOOOOOOOOOOOOOOOOOOOOOOOOOOOXX++OOXXXXXXXX                                        XX++XXXXOOXXXX++OOOOOOOO++....++++OOoo..OO..",
"OOOOOOOOOOOOOOOOOOOOOOOOOOOOOOXX++OOXXXXXXXX                                        XX++XXXXOOXXXX++OOOOOOOO++....++++OOoo..OO..",
"OOOOOOOOOOOOOOOOOOOOOOOOOOOOOOXX++OO....XXXX                                        XX++....OOXXXX++OOOOOOOO++....++OOooXX..OO..",
"OOOOOOOOOOOOOOOOOOOOOOOOOOOOOOXX++OO....XXXX                                        XX++....OOXXXX++OOOOOOOO++....++OOooXX..OO..",
"OOOOOOOOOOOOOOOOOOOOOOOOOOOOOOXX++OO....XXXX                                        XX++....OOXXXX++OOOOOOOO++..............oo..",
"OOOOOOOOOOOOOOOOOOOOOOOOOOOOOOXX++OO....XXXX                                        XX++....OOXXXX++OOOOOOOO++..............oo..",
"OOOOOOOOOOOOOOOOOOOOOOOOOOOOOOXX++OO....XXXX                                        XX++....OOXXXX++OOOOOOOO++..............XX..",
"OOOOOOOOOOOOOOOOOOOOOOOOOOOOOOXX++OO....XXXX                                        XX++....OOXXXX++OOOOOOOO++..............XX..",
"OOOOOOOOOOOOOOOOOOOOOOOOOOOOOOXX++OO....XXXX                                        XX++....OOXXXX++OOOOOOOO++..................",
"OOOOOOOOOOOOOOOOOOOOOOOOOOOOOOXX++OO....XXXX                                        XX++....OOXXXX++OOOOOOOO++..................",
"OOOOOOOOOOOOOOOOOOOOOOOO++ooOOXX++OOOOOOXXXX                                        XX++OOOOOOXXXX++OO++ooOOOOXXXXXXXXXXXXXXXXXX",
"OOOOOOOOOOOOOOOOOOOOOOOO++ooOOXX++OOOOOOXXXX                                        XX++OOOOOOXXXX++OO++ooOOOOXXXXXXXXXXXXXXXXXX",
"OOOOOOOOOOOOOOOOOOOOOOOOooXXOOXXXXXXXXXXXXXX                                        XXXXXXXXXXXXXX++OOooXXOOOOOOOOOOOOOOOOOOOOOO",
"OOOOOOOOOOOOOOOOOOOOOOOOooXXOOXXXXXXXXXXXXXX                                        XXXXXXXXXXXXXX++OOooXXOOOOOOOOOOOOOOOOOOOOOO",
"OOOOOOOOOOOOOOOOOOOOOOOOOOOOOOXXXXXXXXXXXXXX                                        XXXXXXXXXXXXXX++OOOOOOOOOOOOOOOOOOOOOOOOOOOO",
"OOOOOOOOOOOOOOOOOOOOOOOOOOOOOOXXXXXXXXXXXXXX                                        XXXXXXXXXXXXXX++OOOOOOOOOOOOOOOOOOOOOOOOOOOO",
"XXXXXXXXXXXXXXXXXXXXXXXXXXXXXXXXXXXXXXXXXXXX                                        XXXXXXXXXXXXXXXXXXXXXXXXXXXXXXXXXXXXXXXXXXXX",
"XXXXXXXXXXXXXXXXXXXXXXXXXXXXXXXXXXXXXXXXXXXX                                        XXXXXXXXXXXXXXXXXXXXXXXXXXXXXXXXXXXXXXXXXXXX",
"++++++++++++++++++++++++++++++++++++++++XXXX                                        XXXX&&++++++++++++++++++++++++++++++++++++++",
"++++++++++++++++++++++++++++++++++++++++XXXX                                        XXXX&&++++++++++++++++++++++++++++++++++++++",
"OOOOOOOOOOOOOOOOOOOOOOOOOOOOOOOOOOOOOOOOXXXX                                        XXXX++OOOOOOOOOOOOOOOOOOOOOOOOOOOOOOOOOOOOOO",
"OOOOOOOOOOOOOOOOOOOOOOOOOOOOOOOOOOOOOOOOXXXX                                        XXXX++OOOOOOOOOOOOOOOOOOOOOOOOOOOOOOOOOOOOOO",
"OOOOOOOOOOOOOOOOOOOOOOOOOOOOOOOOOO++ooOOXXXX                                        XXXX++OO++ooOOOOOOOOOOOOOOOOOOOOOOOOOOOOOOOO",
"OOOOOOOOOOOOOOOOOOOOOOOOOOOOOOOOOO++ooOOXXXX                                        XXXX++OO++ooOOOOOOOOOOOOOOOOOOOOOOOOOOOOOOOO",
"OOOOOOOOOOOOOOOOOOOOOOOOOOOOOOOOOOooXXOOXXXX                                        XXXX++OOooXXOOOOOOOOOOOOOOOOOOOOOOOOOOOOOOOO",
"OOOOOOOOOOOOOOOOOOOOOOOOOOOOOOOOOOooXXOOXXXX                                        XXXX++OOooXXOOOOOOOOOOOOOOOOOOOOOOOOOOOOOOOO",
"OOOOOOOOOOOOOOOOOOOOOOOOOOOOOOOOOOOOOOOOXXXX                                        XXXX++OOOOOOOOOOOOOOOOOOOOOOOOOOOOOOOOOOOOOO",
"OOOOOOOOOOOOOOOOOOOOOOOOOOOOOOOOOOOOOOOOXXXX                                        XXXX++OOOOOOOOOOOOOOOOOOOOOOOOOOOOOOOOOOOOOO",
"OOOOOOOOOOOOOOOOOOOOOOOOOOOOOOOOOOOOOOOOXXXX                                        XXXX++OOOOOOOOOOOOOOOOOOOOOOOOOOOOOOOOOOOOOO",
"OOOOOOOOOOOOOOOOOOOOOOOOOOOOOOOOOOOOOOOOXXXX                                        XXXX++OOOOOOOOOOOOOOOOOOOOOOOOOOOOOOOOOOOOOO",
"OOOOOOOOOOOOOOOOOOOOOOOOOOOOOOOOOOOOOOOOXXXX                                        XXXX++OOOOOOOOOOOOOOOOOOOOOOOOOOOOOOOOOOOOOO",
"OOOOOOOOOOOOOOOOOOOOOOOOOOOOOOOOOOOOOOOOXXXX                                        XXXX++OOOOOOOOOOOOOOOOOOOOOOOOOOOOOOOOOOOOOO",
"OOOOOOOOOOOOOOOOOOOOOOOOOOOOOOOOOOOOOOOOXXXX                                        XXXX++OOOOOOOOOOOOOOOOOOOOOOOOOOOOOOOOOOOOOO",
"OOOOOOOOOOOOOOOOOOOOOOOOOOOOOOOOOOOOOOOOXXXX                                        XXXX++OOOOOOOOOOOOOOOOOOOOOOOOOOOOOOOOOOOOOO",
"OOOOOOOOOOOOOOOOOOOOOOOOOOOOOOOOOOOOOOOOXXXX                                        XXXX++OOOOOOOOOOOOOOOOOOOOOOOOOOOOOOOOOOOOOO",
"OOOOOOOOOOOOOOOOOOOOOOOOOOOOOOOOOOOOOOOOXXXX                                        XXXX++OOOOOOOOOOOOOOOOOOOOOOOOOOOOOOOOOOOOOO",
"OOOOOOOOOOOOOOOOOOOOOOOOOOOOOOOOOOOOOOOOXXXX                                        XXXX++OOOOOOOOOOOOOOOOOOOOOOOOOOOOOOOOOOOOOO",
"OOOOOOOOOOOOOOOOOOOOOOOOOOOOOOOOOOOOOOOOXXXX                                        XXXX++OOOOOOOOOOOOOOOOOOOOOOOOOOOOOOOOOOOOOO",
"OOOOOOOOOOOOOOOOOOOOOOOOOOOOOOOOOO++ooOOXXXX                                        XXXX++OO++ooOOOOOOOOOOOOOOOOOOOOOOOOOOOOOOOO",
"OOOOOOOOOOOOOOOOOOOOOOOOOOOOOOOOOO++ooOOXXXX                                        XXXX++OO++ooOOOOOOOOOOOOOOOOOOOOOOOOOOOOOOOO",
"OOOOOOOOOOOOOOOOOOOOOOOOOOOOOOOOOOooXXOOXXXX                                        XXXX++OOooXXOOOOOOOOOOOOOOOOOOOOOOOOOOOOOOOO",
"OOOOOOOOOOOOOOOOOOOOOOOOOOOOOOOOOOooXXOOXXXX                                        XXXX++OOooXXOOOOOOOOOOOOOOOOOOOOOOOOOOOOOOOO",
"OOOOOOOOOOOOOOOOOOOOOOOOOOOOOOOOOOOOOOOOXXXX                                        XXXX++OOOOOOOOOOOOOOOOOOOOOOOOOOOOOOOOOOOOOO",
"OOOOOOOOOOOOOOOOOOOOOOOOOOOOOOOOOOOOOOOOXXXX                                        XXXX++OOOOOOOOOOOOOOOOOOOOOOOOOOOOOOOOOOOOOO",
"XXXXXXXXXXXXXXXXXXXXXXXXXXXXXXXXXXXXXXXXXXXX                                        XXXXXXXXXXXXXXXXXXXXXXXXXXXXXXXXXXXXXXXXXXXX",
"XXXXXXXXXXXXXXXXXXXXXXXXXXXXXXXXXXXXXXXXXXXX                                        XXXXXXXXXXXXXXXXXXXXXXXXXXXXXXXXXXXXXXXXXXXX",
"++++++++++++++++++++++++++++++++++++++++XXXX                                        XXXX++++++++++++++++++++++++++++++++++++++++",
"++++++++++++++++++++++++++++++++++++++++XXXX                                        XXXX++++++++++++++++++++++++++++++++++++++++",
"OOOOOOOOOOOOOOOOOOOOOOOOOOOOOOOOOOOOOOOOXXXX                                        XXXXOOOOOOOOOOOOOOOOOOOOOOOOOOOOOOOOOOOOOOOO",
"OOOOOOOOOOOOOOOOOOOOOOOOOOOOOOOOOOOOOOOOXXXX                                        XXXXOOOOOOOOOOOOOOOOOOOOOOOOOOOOOOOOOOOOOOOO",
"OOOOOOOOOOOOOOOOOOOOOOOOOOOOOOOOOOOOOOOOXXXX                                        XXXXOOOOOOOOOOOOOOOOOOOOOOOOOOOOOOOOOOOOOOOO",
"OOOOOOOOOOOOOOOOOOOOOOOOOOOOOOOOOOOOOOOOXXXX                                        XXXXOOOOOOOOOOOOOOOOOOOOOOOOOOOOOOOOOOOOOOOO",
"OOOOOOOOOOOOOOOOOOOOOOOOOOOOOOOOOOOOOOOOXXXX                                        XXXXOOOOOOOOOOOOOOOOOOOOOOOOOOOOOOOOOOOOOOOO",
"OOOOOOOOOOOOOOOOOOOOOOOOOOOOOOOOOOOOOOOOXXXX                                        XXXXOOOOOOOOOOOOOOOOOOOOOOOOOOOOOOOOOOOOOOOO",
"OOOOOOOOOOOOOOOOOOOOOOOOOOOOOOOOOOOOOOOOXXXX                                        XXXXOOOOOOOOOOOOOOOOOOOOOOOOOOOOOOOOOOOOOOOO",
"OOOOOOOOOOOOOOOOOOOOOOOOOOOOOOOOOOOOOOOOXXXX                                        XXXXOOOOOOOOOOOOOOOOOOOOOOOOOOOOOOOOOOOOOOOO",
"OOOOOOOOOOOOOOOOOOOOOOOOOOOOOOOOOOOOOOOOXXXX                                        XXXXOOOOOOOOOOOOOOOOOOOOOOOOOOOOOOOOOOOOOOOO",
"OOOOOOOOOOOOOOOOOOOOOOOOOOOOOOOOOOOOOOOOXXXX                                        XXXXOOOOOOOOOOOOOOOOOOOOOOOOOOOOOOOOOOOOOOOO",
"OOOOOOOOOOOOOOOOOOOOOOOOOOOOOOOOOOOOOOOOXXXX                                        XXXXOOOOOOOOOOOOOOOOOOOOOOOOOOOOOOOOOOOOOOOO",
"OOOOOOOOOOOOOOOOOOOOOOOOOOOOOOOOOOOOOOOOXXXX                                        XXXXOOOOOOOOOOOOOOOOOOOOOOOOOOOOOOOOOOOOOOOO",
"XXXXXXXXXXXXXXXXXXXXXXXXXXXXXXXXXXXXXXXXXXXX                                        XXXXXXXXXXXXXXXXXXXXXXXXXXXXXXXXXXXXXXXXXXXX",
"XXXXXXXXXXXXXXXXXXXXXXXXXXXXXXXXXXXXXXXXXXXX                                        XXXXXXXXXXXXXXXXXXXXXXXXXXXXXXXXXXXXXXXXXXXX"
};
