/* XPM */
static char *_8edba5b91904370d23e32893eb55f10IxcqoqsnNuNiq4U1[] = {
/* columns rows colors chars-per-pixel */
"128 128 12 1 ",
"  c None",
". c #000008",
"X c gray20",
"o c #434343",
"O c #535353",
"+ c #777777",
"@ c #5F9B00",
"# c #7FB717",
"$ c #A3D337",
"% c #C7EF63",
"& c gray53",
"* c #979797",
/* pixels */
"+++++++++++++++++++++++++++++++++++++++++++++                                      +++++++++++++++++++++++++++++++++++++++++++++",
"+++++++++++++++++++++++++++++++++++++++++++++                                      +++++++++++++++++++++++++++++++++++++++++++++",
"OOOOOOOOOOOOOOOOOOOOOOOOOOOOOOOOOOOOOOOOOOOXX                                      XXOOOOOOOOOOOOOOOOOOOOOOOOOOOOOOOOOOOOOOOOOOO",
"OOOOOOOOOOOOOOOOOOOOOOOOOOOOOOOOOOOOOOOOOOOXX                                      XXOOOOOOOOOOOOOOOOOOOOOOOOOOOOOOOOOOOOOOOOOOO",
"OOOOOOOOOOOOOOOOOOOOOOOOOOOOOOOOOOOOOOOOOOOXX                                      XXOOOOOOOOOOOOOOOOOOOOOOOOOOOOOOOOOOOOOOOOOOO",
"OOOOOOOOOOOOOOOOOOOOOOOOOOOOOOOOOOOOOOOOOOOXX                                      XXOOOOOOOOOOOOOOOOOOOOOOOOOOOOOOOOOOOOOOOOOOO",
"XXXXXXXXXXXXXXXXXXXXXXXXXXXXXXXXXXXXXXXXXXXXX                                      XXXXXXXXXXXXXXXXXXXXXXXXXXXXXXXXXXXXXXXXXXXXX",
"XXXXXXXXXXXXXXXXXXXXXXXXXXXXXXXXXXXXXXXXXXXXX                                      XXXXXXXXXXXXXXXXXXXXXXXXXXXXXXXXXXXXXXXXXXXXX",
"+++++++++++++++++++++++++++++++++++++++++XXXX                                      XXXX&&+++++++++++++++++++++++++++++++++++++++",
"+++++++++++++++++++++++++++++++++++++++++XXXX                                      XXXX&&+++++++++++++++++++++++++++++++++++++++",
"OOOOOOOOOOOOOOOOOOOOOOOOOOOOOOOOOOOOOOOOOXXXX                                      XXXX++OOOOOOOOOOOOOOOOOOOOOOOOOOOOOOOOOOOOOOO",
"OOOOOOOOOOOOOOOOOOOOOOOOOOOOOOOOOOOOOOOOOXXXX                                      XXXX++OOOOOOOOOOOOOOOOOOOOOOOOOOOOOOOOOOOOOOO",
"OOOOOOOOOOOOOOOOOOOOOOOOOOOOOOOOOOO++ooOOXXXX                                      XXXX++OO++ooOOOOOOOOOOOOOOOOOOOOOOOOOOOOOOOOO",
"OOOOOOOOOOOOOOOOOOOOOOOOOOOOOOOOOOO++ooOOXXXX                                      XXXX++OO++ooOOOOOOOOOOOOOOOOOOOOOOOOOOOOOOOOO",
"OOOOOOOOOOOOOOOOOOOOOOOOOOOOOOOOOOOooXXOOXXXX                                      XXXX++OOooXXOOOOOOOOOOOOOOOOOOOOOOOOOOOOOOOOO",
"OOOOOOOOOOOOOOOOOOOOOOOOOOOOOOOOOOOooXXOOXXXX                                      XXXX++OOooXXOOOOOOOOOOOOOOOOOOOOOOOOOOOOOOOOO",
"OOOOOOOOOOOOOOOOOOOOOOOOOOOOOOOOOOOOOOOOOXXXX                                      XXXX++OOOOOOOOOOOOOOOOOOOOOOOOOOOOOOOOOOOOOOO",
"OOOOOOOOOOOOOOOOOOOOOOOOOOOOOOOOOOOOOOOOOXXXX                                      XXXX++OOOOOOOOOOOOOOOOOOOOOOOOOOOOOOOOOOOOOOO",
"OOOOOOOOOOOOOOOOOOOOOOOOOOOOOOOOOOOOOOOOOXXXX                                      XXXX++OOOOOOOOOOOOOOOOOOOOOOOOOOOOOOOOOOOOOOO",
"OOOOOOOOOOOOOOOOOOOOOOOOOOOOOOOOOOOOOOOOOXXXX                                      XXXX++OOOOOOOOOOOOOOOOOOOOOOOOOOOOOOOOOOOOOOO",
"OOOOOOOOOOOOOOOOOOOOOOOOOOOOOOOOOOOOOOOOOXXXX                                      XXXX++OOOOOOOOOOOOOOOOOOOOOOOOOOOOOOOOOOOOOOO",
"OOOOOOOOOOOOOOOOOOOOOOOOOOOOOOOOOOOOOOOOOXXXX                                      XXXX++OOOOOOOOOOOOOOOOOOOOOOOOOOOOOOOOOOOOOOO",
"OOOOOOOOOOOOOOOOOOOOOOOOOOOOOOOOOOOOOOOOOXXXX                                      XXXX++OOOOOOOOOOOOOOOOOOOOOOOOOOOOOOOOOOOOOOO",
"OOOOOOOOOOOOOOOOOOOOOOOOOOOOOOOOOOOOOOOOOXXXX                                      XXXX++OOOOOOOOOOOOOOOOOOOOOOOOOOOOOOOOOOOOOOO",
"OOOOOOOOOOOOOOOOOOOOOOOOOOOOOOOOOOOOOOOOOXXXX                                      XXXX++OOOOOOOOOOOOOOOOOOOOOOOOOOOOOOOOOOOOOOO",
"OOOOOOOOOOOOOOOOOOOOOOOOOOOOOOOOOOOOOOOOOXXXX                                      XXXX++OOOOOOOOOOOOOOOOOOOOOOOOOOOOOOOOOOOOOOO",
"OOOOOOOOOOOOOOOOOOOOOOOOOOOOOOOOOOOOOOOOOXXXX                                      XXXX++OOOOOOOOOOOOOOOOOOOOOOOOOOOOOOOOOOOOOOO",
"OOOOOOOOOOOOOOOOOOOOOOOOOOOOOOOOOOOOOOOOOXXXX                                      XXXX++OOOOOOOOOOOOOOOOOOOOOOOOOOOOOOOOOOOOOOO",
"OOOOOOOOOOOOOOOOOOOOOOOOOOOOOOOOOOOOOOOOOXXXX                                      XXXX++OOOOOOOOOOOOOOOOOOOOOOOOOOOOOOOOOOOOOOO",
"OOOOOOOOOOOOOOOOOOOOOOOOOOOOOOOOOOOOOOOOOXXXX                                      XXXX++OOOOOOOOOOOOOOOOOOOOOOOOOOOOOOOOOOOOOOO",
"OOOOOOOOOOOOOOOOOOOOOOOOOOOOOOOOOOOOOOOOOXXXX                                      XXXX++OOOOOOOOOOOOOOOOOOOOOOOOOOOOOOOOOOOOOOO",
"OOOOOOOOOOOOOOOOOOOOOOOOOOOOOOOOOOOOOOOOOXXXX                                      XXXX++OOOOOOOOOOOOOOOOOOOOOOOOOOOOOOOOOOOOOOO",
"OOOOOOOOOOOOOOOOOOOOOOOOOOOOOOOOOOOOOOOOOXXXX                                      XXXX++OOOOOOOOOOOOOOOOOOOOOOOOOOOOOOOOOOOOOOO",
"OOOOOOOOOOOOOOOOOOOOOOOOOOOOOOOOOOOOOOOOOXXXX                                      XXXX++OOOOOOOOOOOOOOOOOOOOOOOOOOOOOOOOOOOOOOO",
"OOOOOOOOOOOOOOOOOOOOOOOOOOOOOOOOOOOOOOOOOXXXX                                      XXXX++OOOOOOOOOOOOOOOOOOOOOOOOOOOOOOOOOOOOOOO",
"OOOOOOOOOOOOOOOOOOOOOOOOOOOOOOOOOOOOOOOOOXXXX                                      XXXX++OOOOOOOOOOOOOOOOOOOOOOOOOOOOOOOOOOOOOOO",
"OOOOOOOOOOOOOOOOOOOOOOOOOOOOOOOOOOOOOOOOOXXXX                                      XXXX++OOOOOOOOOOOOOOOOOOOOOOOOOOOOOOOOOOOOOOO",
"OOOOOOOOOOOOOOOOOOOOOOOOOOOOOOOOOOOOOOOOOXXXX                                      XXXX++OOOOOOOOOOOOOOOOOOOOOOOOOOOOOOOOOOOOOOO",
"OOOOOOOOOOOOOOOOOOOOOOOOOOOOOOOOOOOOOOOOOXXXX                                      XXXX++OOOOOOOOOOOOOOOOOOOOOOOOOOOOOOOOOOOOOOO",
"OOOOOOOOOOOOOOOOOOOOOOOOOOOOOOOOOOOOOOOOOXXXX                                      XXXX++OOOOOOOOOOOOOOOOOOOOOOOOOOOOOOOOOOOOOOO",
"OOOOOOOOOOOOOOOOOOOOOOOOOOOOOOOOOOOOOOOOOXXXX                                      XXXX++OOOOOOOOOOOOOOOOOOOOOOOOOOOOOOOOOOOOOOO",
"OOOOOOOOOOOOOOOOOOOOOOOOOOOOOOOOOOOOOOOOOXXXX                                      XXXX++OOOOOOOOOOOOOOOOOOOOOOOOOOOOOOOOOOOOOOO",
"OOOOOOOOOOOOOOOOOOOOOOOOOOOOOOOOOOOOOOOOOXXXX                                      XXXX++OOOOOOOOOOOOOOOOOOOO+++++++++++++++++++",
"OOOOOOOOOOOOOOOOOOOOOOOOOOOOOOOOOOOOOOOOOXXXX                                      XXXX++OOOOOOOOOOOOOOOOOOOO+++++++++++++++++++",
"OOOOOOOOOOOOOOOOOOOOOOOOOOOOOOOOOOO++ooOOXXXX                                      XXXX++OO++ooOOOOOOOOOOOO++...................",
"OOOOOOOOOOOOOOOOOOOOOOOOOOOOOOOOOOO++ooOOXXXX                                      XXXX++OO++ooOOOOOOOOOOOO++...................",
"OOOOOOOOOOOOOOOOOOOOOOOOOOOOOOOOOOOooXXOOXXXX                                      XXXX++OOooXXOOOOOOOOOOOO++..............XX..X",
"OOOOOOOOOOOOOOOOOOOOOOOOOOOOOOOOOOOooXXOOXXXX                                      XXXX++OOooXXOOOOOOOOOOOO++..............XX..X",
"OOOOOOOOOOOOOOOOOOOOOOOOOOOOOOOOOOOOOOOOOXXXX                                      XXXX++OOOOOOOOOOOOOOOOOO++....%%$$$$##..OO..O",
"OOOOOOOOOOOOOOOOOOOOOOOOOOOOOOOOOOOOOOOOOXXXX                                      XXXX++OOOOOOOOOOOOOOOOOO++....%%$$$$##..OO..O",
"XXXXXXXXXXXXXXXXXXXXXXXXXXXXXXXXXXXXXXXXXXXXX                                      XXXXXXXXXXXXXXXXXXXXXXXX++....$$####@@..++..+",
"XXXXXXXXXXXXXXXXXXXXXXXXXXXXXXXXXXXXXXXXXXXXX                                      XXXXXXXXXXXXXXXXXXXXXXXX++....$$####@@..++..+",
"+++++++++++++++++++++++++++++++XX&&++++++XXXX                                      XX&&++++++XXXX&&++++++++++....$$####@@..++..+",
"+++++++++++++++++++++++++++++++XX&&++++++XXXX                                      XX&&++++++XXXX&&++++++++++....$$####@@..++..+",
"OOOOOOOOOOOOOOOOOOOOOOOOOOOOOOOXX++OOOOOOXXXX                                      XX++OOOOOOXXXX++OOOOOOOO++....$$####@@..**..+",
"OOOOOOOOOOOOOOOOOOOOOOOOOOOOOOOXX++OOOOOOXXXX                                      XX++OOOOOOXXXX++OOOOOOOO++....$$####@@..**..+",
"OOOOOOOOOOOOOOOOOOOOOOOOO++ooOOXX++OOOOOOXXXX                                      XX++OOOOOOXXXX++OO++ooOO++....##@@@@@@..**..*",
"OOOOOOOOOOOOOOOOOOOOOOOOO++ooOOXX++OOOOOOXXXX                                      XX++OOOOOOXXXX++OO++ooOO++....##@@@@@@..**..*",
"OOOOOOOOOOOOOOOOOOOOOOOOOooXXOOXX++OOOOOOXXXX                                      XX++OOOOOOXXXX++OOooXXOO++..............**..*",
"OOOOOOOOOOOOOOOOOOOOOOOOOooXXOOXX++OOOOOOXXXX                                      XX++OOOOOOXXXX++OOooXXOO++..............**..*",
"OOOOOOOOOOOOOOOOOOOOOOOOOOOOOOOXX++######XXXX                                      XX++######XXXX++OOOOOOOO++....++++OOoo..++..+",
"OOOOOOOOOOOOOOOOOOOOOOOOOOOOOOOXX++######XXXX                                      XX++######XXXX++OOOOOOOO++....++++OOoo..++..+",
"OOOOOOOOOOOOOOOOOOOOOOOOOOOOOOOXX++######XXXX                                      XX++######XXXX++OOOOOOOO++....++OOooXX..++..+",
"OOOOOOOOOOOOOOOOOOOOOOOOOOOOOOOXX++######XXXX                                      XX++######XXXX++OOOOOOOO++....++OOooXX..++..+",
"OOOOOOOOOOOOOOOOOOOOOOOOOOOOOOOXX++OOOOOOXXXX                                      XX++OOOOOOXXXX++OOOOOOOO++..............++..+",
"OOOOOOOOOOOOOOOOOOOOOOOOOOOOOOOXX++OOOOOOXXXX                                      XX++OOOOOOXXXX++OOOOOOOO++..............++..+",
"OOOOOOOOOOOOOOOOOOOOOOOOOOOOOOOXX++OOXXXXXXXX                                      XX++XXXXOOXXXX++OOOOOOOO++....++++OOoo..OO..+",
"OOOOOOOOOOOOOOOOOOOOOOOOOOOOOOOXX++OOXXXXXXXX                                      XX++XXXXOOXXXX++OOOOOOOO++....++++OOoo..OO..+",
"OOOOOOOOOOOOOOOOOOOOOOOOOOOOOOOXX++OO....XXXX                                      XX++....OOXXXX++OOOOOOOO++....++OOooXX..OO..O",
"OOOOOOOOOOOOOOOOOOOOOOOOOOOOOOOXX++OO....XXXX                                      XX++....OOXXXX++OOOOOOOO++....++OOooXX..OO..O",
"OOOOOOOOOOOOOOOOOOOOOOOOOOOOOOOXX++OO....XXXX                                      XX++....OOXXXX++OOOOOOOO++..............oo..o",
"OOOOOOOOOOOOOOOOOOOOOOOOOOOOOOOXX++OO....XXXX                                      XX++....OOXXXX++OOOOOOOO++..............oo..o",
"OOOOOOOOOOOOOOOOOOOOOOOOOOOOOOOXX++OO....XXXX                                      XX++....OOXXXX++OOOOOOOO++..............XX..X",
"OOOOOOOOOOOOOOOOOOOOOOOOOOOOOOOXX++OO....XXXX                                      XX++....OOXXXX++OOOOOOOO++..............XX..X",
"OOOOOOOOOOOOOOOOOOOOOOOOOOOOOOOXX++OO....XXXX                                      XX++....OOXXXX++OOOOOOOO++...................",
"OOOOOOOOOOOOOOOOOOOOOOOOOOOOOOOXX++OO....XXXX                                      XX++....OOXXXX++OOOOOOOO++...................",
"OOOOOOOOOOOOOOOOOOOOOOOOO++ooOOXX++OOOOOOXXXX                                      XX++OOOOOOXXXX++OO++ooOOOOXXXXXXXXXXXXXXXXXXX",
"OOOOOOOOOOOOOOOOOOOOOOOOO++ooOOXX++OOOOOOXXXX                                      XX++OOOOOOXXXX++OO++ooOOOOXXXXXXXXXXXXXXXXXXX",
"OOOOOOOOOOOOOOOOOOOOOOOOOooXXOOXXXXXXXXXXXXXX                                      XXXXXXXXXXXXXX++OOooXXOOOOOOOOOOOOOOOOOOOOOOO",
"OOOOOOOOOOOOOOOOOOOOOOOOOooXXOOXXXXXXXXXXXXXX                                      XXXXXXXXXXXXXX++OOooXXOOOOOOOOOOOOOOOOOOOOOOO",
"OOOOOOOOOOOOOOOOOOOOOOOOOOOOOOOXXXXXXXXXXXXXX                                      XXXXXXXXXXXXXX++OOOOOOOOOOOOOOOOOOOOOOOOOOOOO",
"OOOOOOOOOOOOOOOOOOOOOOOOOOOOOOOXXXXXXXXXXXXXX                                      XXXXXXXXXXXXXX++OOOOOOOOOOOOOOOOOOOOOOOOOOOOO",
"XXXXXXXXXXXXXXXXXXXXXXXXXXXXXXXXXXXXXXXXXXXXX                                      XXXXXXXXXXXXXXXXXXXXXXXXXXXXXXXXXXXXXXXXXXXXX",
"XXXXXXXXXXXXXXXXXXXXXXXXXXXXXXXXXXXXXXXXXXXXX                                      XXXXXXXXXXXXXXXXXXXXXXXXXXXXXXXXXXXXXXXXXXXXX",
"+++++++++++++++++++++++++++++++++++++++++XXXX                                      XXXX&&+++++++++++++++++++++++++++++++++++++++",
"+++++++++++++++++++++++++++++++++++++++++XXXX                                      XXXX&&+++++++++++++++++++++++++++++++++++++++",
"OOOOOOOOOOOOOOOOOOOOOOOOOOOOOOOOOOOOOOOOOXXXX                                      XXXX++OOOOOOOOOOOOOOOOOOOOOOOOOOOOOOOOOOOOOOO",
"OOOOOOOOOOOOOOOOOOOOOOOOOOOOOOOOOOOOOOOOOXXXX                                      XXXX++OOOOOOOOOOOOOOOOOOOOOOOOOOOOOOOOOOOOOOO",
"OOOOOOOOOOOOOOOOOOOOOOOOOOOOOOOOOOO++ooOOXXXX                                      XXXX++OO++ooOOOOOOOOOOOOOOOOOOOOOOOOOOOOOOOOO",
"OOOOOOOOOOOOOOOOOOOOOOOOOOOOOOOOOOO++ooOOXXXX                                      XXXX++OO++ooOOOOOOOOOOOOOOOOOOOOOOOOOOOOOOOOO",
"OOOOOOOOOOOOOOOOOOOOOOOOOOOOOOOOOOOooXXOOXXXX                                      XXXX++OOooXXOOOOOOOOOOOOOOOOOOOOOOOOOOOOOOOOO",
"OOOOOOOOOOOOOOOOOOOOOOOOOOOOOOOOOOOooXXOOXXXX                                      XXXX++OOooXXOOOOOOOOOOOOOOOOOOOOOOOOOOOOOOOOO",
"OOOOOOOOOOOOOOOOOOOOOOOOOOOOOOOOOOOOOOOOOXXXX                                      XXXX++OOOOOOOOOOOOOOOOOOOOOOOOOOOOOOOOOOOOOOO",
"OOOOOOOOOOOOOOOOOOOOOOOOOOOOOOOOOOOOOOOOOXXXX                                      XXXX++OOOOOOOOOOOOOOOOOOOOOOOOOOOOOOOOOOOOOOO",
"OOOOOOOOOOOOOOOOOOOOOOOOOOOOOOOOOOOOOOOOOXXXX                                      XXXX++OOOOOOOOOOOOOOOOOOOOOOOOOOOOOOOOOOOOOOO",
"OOOOOOOOOOOOOOOOOOOOOOOOOOOOOOOOOOOOOOOOOXXXX                                      XXXX++OOOOOOOOOOOOOOOOOOOOOOOOOOOOOOOOOOOOOOO",
"OOOOOOOOOOOOOOOOOOOOOOOOOOOOOOOOOOOOOOOOOXXXX                                      XXXX++OOOOOOOOOOOOOOOOOOOOOOOOOOOOOOOOOOOOOOO",
"OOOOOOOOOOOOOOOOOOOOOOOOOOOOOOOOOOOOOOOOOXXXX                                      XXXX++OOOOOOOOOOOOOOOOOOOOOOOOOOOOOOOOOOOOOOO",
"OOOOOOOOOOOOOOOOOOOOOOOOOOOOOOOOOOOOOOOOOXXXX                                      XXXX++OOOOOOOOOOOOOOOOOOOOOOOOOOOOOOOOOOOOOOO",
"OOOOOOOOOOOOOOOOOOOOOOOOOOOOOOOOOOOOOOOOOXXXX                                      XXXX++OOOOOOOOOOOOOOOOOOOOOOOOOOOOOOOOOOOOOOO",
"OOOOOOOOOOOOOOOOOOOOOOOOOOOOOOOOOOOOOOOOOXXXX                                      XXXX++OOOOOOOOOOOOOOOOOOOOOOOOOOOOOOOOOOOOOOO",
"OOOOOOOOOOOOOOOOOOOOOOOOOOOOOOOOOOOOOOOOOXXXX                                      XXXX++OOOOOOOOOOOOOOOOOOOOOOOOOOOOOOOOOOOOOOO",
"OOOOOOOOOOOOOOOOOOOOOOOOOOOOOOOOOOOOOOOOOXXXX                                      XXXX++OOOOOOOOOOOOOOOOOOOOOOOOOOOOOOOOOOOOOOO",
"OOOOOOOOOOOOOOOOOOOOOOOOOOOOOOOOOOOOOOOOOXXXX                                      XXXX++OOOOOOOOOOOOOOOOOOOOOOOOOOOOOOOOOOOOOOO",
"OOOOOOOOOOOOOOOOOOOOOOOOOOOOOOOOOOO++ooOOXXXX                                      XXXX++OO++ooOOOOOOOOOOOOOOOOOOOOOOOOOOOOOOOOO",
"OOOOOOOOOOOOOOOOOOOOOOOOOOOOOOOOOOO++ooOOXXXX                                      XXXX++OO++ooOOOOOOOOOOOOOOOOOOOOOOOOOOOOOOOOO",
"OOOOOOOOOOOOOOOOOOOOOOOOOOOOOOOOOOOooXXOOXXXX                                      XXXX++OOooXXOOOOOOOOOOOOOOOOOOOOOOOOOOOOOOOOO",
"OOOOOOOOOOOOOOOOOOOOOOOOOOOOOOOOOOOooXXOOXXXX                                      XXXX++OOooXXOOOOOOOOOOOOOOOOOOOOOOOOOOOOOOOOO",
"OOOOOOOOOOOOOOOOOOOOOOOOOOOOOOOOOOOOOOOOOXXXX                                      XXXX++OOOOOOOOOOOOOOOOOOOOOOOOOOOOOOOOOOOOOOO",
"OOOOOOOOOOOOOOOOOOOOOOOOOOOOOOOOOOOOOOOOOXXXX                                      XXXX++OOOOOOOOOOOOOOOOOOOOOOOOOOOOOOOOOOOOOOO",
"XXXXXXXXXXXXXXXXXXXXXXXXXXXXXXXXXXXXXXXXXXXXX                                      XXXXXXXXXXXXXXXXXXXXXXXXXXXXXXXXXXXXXXXXXXXXX",
"XXXXXXXXXXXXXXXXXXXXXXXXXXXXXXXXXXXXXXXXXXXXX                                      XXXXXXXXXXXXXXXXXXXXXXXXXXXXXXXXXXXXXXXXXXXXX",
"+++++++++++++++++++++++++++++++++++++++++XXXX                                      XXXX+++++++++++++++++++++++++++++++++++++++++",
"+++++++++++++++++++++++++++++++++++++++++XXXX                                      XXXX+++++++++++++++++++++++++++++++++++++++++",
"OOOOOOOOOOOOOOOOOOOOOOOOOOOOOOOOOOOOOOOOOXXXX                                      XXXXOOOOOOOOOOOOOOOOOOOOOOOOOOOOOOOOOOOOOOOOO",
"OOOOOOOOOOOOOOOOOOOOOOOOOOOOOOOOOOOOOOOOOXXXX                                      XXXXOOOOOOOOOOOOOOOOOOOOOOOOOOOOOOOOOOOOOOOOO",
"OOOOOOOOOOOOOOOOOOOOOOOOOOOOOOOOOOOOOOOOOXXXX                                      XXXXOOOOOOOOOOOOOOOOOOOOOOOOOOOOOOOOOOOOOOOOO",
"OOOOOOOOOOOOOOOOOOOOOOOOOOOOOOOOOOOOOOOOOXXXX                                      XXXXOOOOOOOOOOOOOOOOOOOOOOOOOOOOOOOOOOOOOOOOO",
"OOOOOOOOOOOOOOOOOOOOOOOOOOOOOOOOOOOOOOOOOXXXX                                      XXXXOOOOOOOOOOOOOOOOOOOOOOOOOOOOOOOOOOOOOOOOO",
"OOOOOOOOOOOOOOOOOOOOOOOOOOOOOOOOOOOOOOOOOXXXX                                      XXXXOOOOOOOOOOOOOOOOOOOOOOOOOOOOOOOOOOOOOOOOO",
"OOOOOOOOOOOOOOOOOOOOOOOOOOOOOOOOOOOOOOOOOXXXX                                      XXXXOOOOOOOOOOOOOOOOOOOOOOOOOOOOOOOOOOOOOOOOO",
"OOOOOOOOOOOOOOOOOOOOOOOOOOOOOOOOOOOOOOOOOXXXX                                      XXXXOOOOOOOOOOOOOOOOOOOOOOOOOOOOOOOOOOOOOOOOO",
"OOOOOOOOOOOOOOOOOOOOOOOOOOOOOOOOOOOOOOOOOXXXX                                      XXXXOOOOOOOOOOOOOOOOOOOOOOOOOOOOOOOOOOOOOOOOO",
"OOOOOOOOOOOOOOOOOOOOOOOOOOOOOOOOOOOOOOOOOXXXX                                      XXXXOOOOOOOOOOOOOOOOOOOOOOOOOOOOOOOOOOOOOOOOO",
"OOOOOOOOOOOOOOOOOOOOOOOOOOOOOOOOOOOOOOOOOXXXX                                      XXXXOOOOOOOOOOOOOOOOOOOOOOOOOOOOOOOOOOOOOOOOO",
"OOOOOOOOOOOOOOOOOOOOOOOOOOOOOOOOOOOOOOOOOXXXX                                      XXXXOOOOOOOOOOOOOOOOOOOOOOOOOOOOOOOOOOOOOOOOO",
"XXXXXXXXXXXXXXXXXXXXXXXXXXXXXXXXXXXXXXXXXXXXX                                      XXXXXXXXXXXXXXXXXXXXXXXXXXXXXXXXXXXXXXXXXXXXX",
"XXXXXXXXXXXXXXXXXXXXXXXXXXXXXXXXXXXXXXXXXXXXX                                      XXXXXXXXXXXXXXXXXXXXXXXXXXXXXXXXXXXXXXXXXXXXX"
};
