/* XPM */
static char *_63ce5b1e78549afe2fdb838572b6e4bC2YDXxf9bNyZ81Bj[] = {
/* columns rows colors chars-per-pixel */
"128 128 8 1 ",
"  c None",
". c #000008",
"X c gray20",
"o c #434343",
"O c #535353",
"+ c #777777",
"@ c #7FB717",
"# c gray53",
/* pixels */
"+++++++++++++++++++                                                                                          +++++++++++++++++++",
"+++++++++++++++++++                                                                                          +++++++++++++++++++",
"OOOOOOOOOOOOOOOOOXX                                                                                          XXOOOOOOOOOOOOOOOOO",
"OOOOOOOOOOOOOOOOOXX                                                                                          XXOOOOOOOOOOOOOOOOO",
"OOOOOOOOOOOOOOOOOXX                                                                                          XXOOOOOOOOOOOOOOOOO",
"OOOOOOOOOOOOOOOOOXX                                                                                          XXOOOOOOOOOOOOOOOOO",
"XXXXXXXXXXXXXXXXXXX                                                                                          XXXXXXXXXXXXXXXXXXX",
"XXXXXXXXXXXXXXXXXXX                                                                                          XXXXXXXXXXXXXXXXXXX",
"+++++++++++++++XXXX                                                                                          XXXX##+++++++++++++",
"+++++++++++++++XXXX                                                                                          XXXX##+++++++++++++",
"OOOOOOOOOOOOOOOXXXX                                                                                          XXXX++OOOOOOOOOOOOO",
"OOOOOOOOOOOOOOOXXXX                                                                                          XXXX++OOOOOOOOOOOOO",
"OOOOOOOOO++ooOOXXXX                                                                                          XXXX++OO++ooOOOOOOO",
"OOOOOOOOO++ooOOXXXX                                                                                          XXXX++OO++ooOOOOOOO",
"OOOOOOOOOooXXOOXXXX                                                                                          XXXX++OOooXXOOOOOOO",
"OOOOOOOOOooXXOOXXXX                                                                                          XXXX++OOooXXOOOOOOO",
"OOOOOOOOOOOOOOOXXXX                                                                                          XXXX++OOOOOOOOOOOOO",
"OOOOOOOOOOOOOOOXXXX                                                                                          XXXX++OOOOOOOOOOOOO",
"OOOOOOOOOOOOOOOXXXX                                                                                          XXXX++OOOOOOOOOOOOO",
"OOOOOOOOOOOOOOOXXXX                                                                                          XXXX++OOOOOOOOOOOOO",
"OOOOOOOOOOOOOOOXXXX                                                                                          XXXX++OOOOOOOOOOOOO",
"OOOOOOOOOOOOOOOXXXX                                                                                          XXXX++OOOOOOOOOOOOO",
"OOOOOOOOOOOOOOOXXXX                                                                                          XXXX++OOOOOOOOOOOOO",
"OOOOOOOOOOOOOOOXXXX                                                                                          XXXX++OOOOOOOOOOOOO",
"OOOOOOOOOOOOOOOXXXX                                                                                          XXXX++OOOOOOOOOOOOO",
"OOOOOOOOOOOOOOOXXXX                                                                                          XXXX++OOOOOOOOOOOOO",
"OOOOOOOOOOOOOOOXXXX                                                                                          XXXX++OOOOOOOOOOOOO",
"OOOOOOOOOOOOOOOXXXX                                                                                          XXXX++OOOOOOOOOOOOO",
"OOOOOOOOOOOOOOOXXXX                                                                                          XXXX++OOOOOOOOOOOOO",
"OOOOOOOOOOOOOOOXXXX                                                                                          XXXX++OOOOOOOOOOOOO",
"OOOOOOOOOOOOOOOXXXX                                                                                          XXXX++OOOOOOOOOOOOO",
"OOOOOOOOOOOOOOOXXXX                                                                                          XXXX++OOOOOOOOOOOOO",
"OOOOOOOOOOOOOOOXXXX                                                                                          XXXX++OOOOOOOOOOOOO",
"OOOOOOOOOOOOOOOXXXX                                                                                          XXXX++OOOOOOOOOOOOO",
"OOOOOOOOOOOOOOOXXXX                                                                                          XXXX++OOOOOOOOOOOOO",
"OOOOOOOOOOOOOOOXXXX                                                                                          XXXX++OOOOOOOOOOOOO",
"OOOOOOOOOOOOOOOXXXX                                                                                          XXXX++OOOOOOOOOOOOO",
"OOOOOOOOOOOOOOOXXXX                                                                                          XXXX++OOOOOOOOOOOOO",
"OOOOOOOOOOOOOOOXXXX                                                                                          XXXX++OOOOOOOOOOOOO",
"OOOOOOOOOOOOOOOXXXX                                                                                          XXXX++OOOOOOOOOOOOO",
"OOOOOOOOOOOOOOOXXXX                                                                                          XXXX++OOOOOOOOOOOOO",
"OOOOOOOOOOOOOOOXXXX                                                                                          XXXX++OOOOOOOOOOOOO",
"OOOOOOOOOOOOOOOXXXX                                                                                          XXXX++OOOOOOOOOOOOO",
"OOOOOOOOOOOOOOOXXXX                                                                                          XXXX++OOOOOOOOOOOOO",
"OOOOOOOOO++ooOOXXXX                                                                                          XXXX++OO++ooOOOOOOO",
"OOOOOOOOO++ooOOXXXX                                                                                          XXXX++OO++ooOOOOOOO",
"OOOOOOOOOooXXOOXXXX                                                                                          XXXX++OOooXXOOOOOOO",
"OOOOOOOOOooXXOOXXXX                                                                                          XXXX++OOooXXOOOOOOO",
"OOOOOOOOOOOOOOOXXXX                                                                                          XXXX++OOOOOOOOOOOOO",
"OOOOOOOOOOOOOOOXXXX                                                                                          XXXX++OOOOOOOOOOOOO",
"XXXXXXXXXXXXXXXXXXX                                                                                          XXXXXXXXXXXXXXXXXXX",
"XXXXXXXXXXXXXXXXXXX                                                                                          XXXXXXXXXXXXXXXXXXX",
"+++++XX##++++++XXXX                                                                                          XX##++++++XXXX##+++",
"+++++XX##++++++XXXX                                                                                          XX##++++++XXXX##+++",
"OOOOOXX++OOOOOOXXXX                                                                                          XX++OOOOOOXXXX++OOO",
"OOOOOXX++OOOOOOXXXX                                                                                          XX++OOOOOOXXXX++OOO",
"+ooOOXX++OOOOOOXXXX                                                                                          XX++OOOOOOXXXX++OO+",
"+ooOOXX++OOOOOOXXXX                                                                                          XX++OOOOOOXXXX++OO+",
"oXXOOXX++OOOOOOXXXX                                                                                          XX++OOOOOOXXXX++OOo",
"oXXOOXX++OOOOOOXXXX                                                                                          XX++OOOOOOXXXX++OOo",
"OOOOOXX++@@@@@@XXXX                                                                                          XX++@@@@@@XXXX++OOO",
"OOOOOXX++@@@@@@XXXX                                                                                          XX++@@@@@@XXXX++OOO",
"OOOOOXX++@@@@@@XXXX                                                                                          XX++@@@@@@XXXX++OOO",
"OOOOOXX++@@@@@@XXXX                                                                                          XX++@@@@@@XXXX++OOO",
"OOOOOXX++OOOOOOXXXX                                                                                          XX++OOOOOOXXXX++OOO",
"OOOOOXX++OOOOOOXXXX                                                                                          XX++OOOOOOXXXX++OOO",
"OOOOOXX++OOXXXXXXXX                                                                                          XX++XXXXOOXXXX++OOO",
"OOOOOXX++OOXXXXXXXX                                                                                          XX++XXXXOOXXXX++OOO",
"OOOOOXX++OO....XXXX                                                                                          XX++....OOXXXX++OOO",
"OOOOOXX++OO....XXXX                                                                                          XX++....OOXXXX++OOO",
"OOOOOXX++OO....XXXX                                                                                          XX++....OOXXXX++OOO",
"OOOOOXX++OO....XXXX                                                                                          XX++....OOXXXX++OOO",
"OOOOOXX++OO....XXXX                                                                                          XX++....OOXXXX++OOO",
"OOOOOXX++OO....XXXX                                                                                          XX++....OOXXXX++OOO",
"OOOOOXX++OO....XXXX                                                                                          XX++....OOXXXX++OOO",
"OOOOOXX++OO....XXXX                                                                                          XX++....OOXXXX++OOO",
"+ooOOXX++OOOOOOXXXX                                                                                          XX++OOOOOOXXXX++OO+",
"+ooOOXX++OOOOOOXXXX                                                                                          XX++OOOOOOXXXX++OO+",
"oXXOOXXXXXXXXXXXXXX                                                                                          XXXXXXXXXXXXXX++OOo",
"oXXOOXXXXXXXXXXXXXX                                                                                          XXXXXXXXXXXXXX++OOo",
"OOOOOXXXXXXXXXXXXXX                                                                                          XXXXXXXXXXXXXX++OOO",
"OOOOOXXXXXXXXXXXXXX                                                                                          XXXXXXXXXXXXXX++OOO",
"XXXXXXXXXXXXXXXXXXX                                                                                          XXXXXXXXXXXXXXXXXXX",
"XXXXXXXXXXXXXXXXXXX                                                                                          XXXXXXXXXXXXXXXXXXX",
"+++++++++++++++XXXX                                                                                          XXXX##+++++++++++++",
"+++++++++++++++XXXX                                                                                          XXXX##+++++++++++++",
"OOOOOOOOOOOOOOOXXXX                                                                                          XXXX++OOOOOOOOOOOOO",
"OOOOOOOOOOOOOOOXXXX                                                                                          XXXX++OOOOOOOOOOOOO",
"OOOOOOOOO++ooOOXXXX                                                                                          XXXX++OO++ooOOOOOOO",
"OOOOOOOOO++ooOOXXXX                                                                                          XXXX++OO++ooOOOOOOO",
"OOOOOOOOOooXXOOXXXX                                                                                          XXXX++OOooXXOOOOOOO",
"OOOOOOOOOooXXOOXXXX                                                                                          XXXX++OOooXXOOOOOOO",
"OOOOOOOOOOOOOOOXXXX                                                                                          XXXX++OOOOOOOOOOOOO",
"OOOOOOOOOOOOOOOXXXX                                                                                          XXXX++OOOOOOOOOOOOO",
"OOOOOOOOOOOOOOOXXXX                                                                                          XXXX++OOOOOOOOOOOOO",
"OOOOOOOOOOOOOOOXXXX                                                                                          XXXX++OOOOOOOOOOOOO",
"OOOOOOOOOOOOOOOXXXX                                                                                          XXXX++OOOOOOOOOOOOO",
"OOOOOOOOOOOOOOOXXXX                                                                                          XXXX++OOOOOOOOOOOOO",
"OOOOOOOOOOOOOOOXXXX                                                                                          XXXX++OOOOOOOOOOOOO",
"OOOOOOOOOOOOOOOXXXX                                                                                          XXXX++OOOOOOOOOOOOO",
"OOOOOOOOOOOOOOOXXXX                                                                                          XXXX++OOOOOOOOOOOOO",
"OOOOOOOOOOOOOOOXXXX                                                                                          XXXX++OOOOOOOOOOOOO",
"OOOOOOOOOOOOOOOXXXX                                                                                          XXXX++OOOOOOOOOOOOO",
"OOOOOOOOOOOOOOOXXXX                                                                                          XXXX++OOOOOOOOOOOOO",
"OOOOOOOOO++ooOOXXXX                                                                                          XXXX++OO++ooOOOOOOO",
"OOOOOOOOO++ooOOXXXX                                                                                          XXXX++OO++ooOOOOOOO",
"OOOOOOOOOooXXOOXXXX                                                                                          XXXX++OOooXXOOOOOOO",
"OOOOOOOOOooXXOOXXXX                                                                                          XXXX++OOooXXOOOOOOO",
"OOOOOOOOOOOOOOOXXXX                                                                                          XXXX++OOOOOOOOOOOOO",
"OOOOOOOOOOOOOOOXXXX                                                                                          XXXX++OOOOOOOOOOOOO",
"XXXXXXXXXXXXXXXXXXX                                                                                          XXXXXXXXXXXXXXXXXXX",
"XXXXXXXXXXXXXXXXXXX                                                                                          XXXXXXXXXXXXXXXXXXX",
"+++++++++++++++XXXX                                                                                          XXXX+++++++++++++++",
"+++++++++++++++XXXX                                                                                          XXXX+++++++++++++++",
"OOOOOOOOOOOOOOOXXXX                                                                                          XXXXOOOOOOOOOOOOOOO",
"OOOOOOOOOOOOOOOXXXX                                                                                          XXXXOOOOOOOOOOOOOOO",
"OOOOOOOOOOOOOOOXXXX                                                                                          XXXXOOOOOOOOOOOOOOO",
"OOOOOOOOOOOOOOOXXXX                                                                                          XXXXOOOOOOOOOOOOOOO",
"OOOOOOOOOOOOOOOXXXX                                                                                          XXXXOOOOOOOOOOOOOOO",
"OOOOOOOOOOOOOOOXXXX                                                                                          XXXXOOOOOOOOOOOOOOO",
"OOOOOOOOOOOOOOOXXXX                                                                                          XXXXOOOOOOOOOOOOOOO",
"OOOOOOOOOOOOOOOXXXX                                                                                          XXXXOOOOOOOOOOOOOOO",
"OOOOOOOOOOOOOOOXXXX                                                                                          XXXXOOOOOOOOOOOOOOO",
"OOOOOOOOOOOOOOOXXXX                                                                                          XXXXOOOOOOOOOOOOOOO",
"OOOOOOOOOOOOOOOXXXX                                                                                          XXXXOOOOOOOOOOOOOOO",
"OOOOOOOOOOOOOOOXXXX                                                                                          XXXXOOOOOOOOOOOOOOO",
"XXXXXXXXXXXXXXXXXXX                                                                                          XXXXXXXXXXXXXXXXXXX",
"XXXXXXXXXXXXXXXXXXX                                                                                          XXXXXXXXXXXXXXXXXXX"
};
