/* XPM */
static char *_d92d3cd2e484c7096f4d8b775dba271NvbFeUvASZgrQJQL[] = {
/* columns rows colors chars-per-pixel */
"128 128 11 1 ",
"  c None",
". c #000008",
"X c gray20",
"o c #434343",
"O c #535353",
"+ c #777777",
"@ c #5F9B00",
"# c #7FB717",
"$ c #A3D337",
"% c #C7EF63",
"& c gray53",
/* pixels */
"+++++++++++++++++++++++++++++++++++                                                          +++++++++++++++++++++++++++++++++++",
"+++++++++++++++++++++++++++++++++++                                                          +++++++++++++++++++++++++++++++++++",
"OOOOOOOOOOOOOOOOOOOOOOOOOOOOOOOOOXX                                                          XXOOOOOOOOOOOOOOOOOOOOOOOOOOOOOOOOO",
"OOOOOOOOOOOOOOOOOOOOOOOOOOOOOOOOOXX                                                          XXOOOOOOOOOOOOOOOOOOOOOOOOOOOOOOOOO",
"OOOOOOOOOOOOOOOOOOOOOOOOOOOOOOOOOXX                                                          XXOOOOOOOOOOOOOOOOOOOOOOOOOOOOOOOOO",
"OOOOOOOOOOOOOOOOOOOOOOOOOOOOOOOOOXX                                                          XXOOOOOOOOOOOOOOOOOOOOOOOOOOOOOOOOO",
"XXXXXXXXXXXXXXXXXXXXXXXXXXXXXXXXXXX                                                          XXXXXXXXXXXXXXXXXXXXXXXXXXXXXXXXXXX",
"XXXXXXXXXXXXXXXXXXXXXXXXXXXXXXXXXXX                                                          XXXXXXXXXXXXXXXXXXXXXXXXXXXXXXXXXXX",
"+++++++++++++++++++++++++++++++XXXX                                                          XXXX&&+++++++++++++++++++++++++++++",
"+++++++++++++++++++++++++++++++XXXX                                                          XXXX&&+++++++++++++++++++++++++++++",
"OOOOOOOOOOOOOOOOOOOOOOOOOOOOOOOXXXX                                                          XXXX++OOOOOOOOOOOOOOOOOOOOOOOOOOOOO",
"OOOOOOOOOOOOOOOOOOOOOOOOOOOOOOOXXXX                                                          XXXX++OOOOOOOOOOOOOOOOOOOOOOOOOOOOO",
"OOOOOOOOOOOOOOOOOOOOOOOOO++ooOOXXXX                                                          XXXX++OO++ooOOOOOOOOOOOOOOOOOOOOOOO",
"OOOOOOOOOOOOOOOOOOOOOOOOO++ooOOXXXX                                                          XXXX++OO++ooOOOOOOOOOOOOOOOOOOOOOOO",
"OOOOOOOOOOOOOOOOOOOOOOOOOooXXOOXXXX                                                          XXXX++OOooXXOOOOOOOOOOOOOOOOOOOOOOO",
"OOOOOOOOOOOOOOOOOOOOOOOOOooXXOOXXXX                                                          XXXX++OOooXXOOOOOOOOOOOOOOOOOOOOOOO",
"OOOOOOOOOOOOOOOOOOOOOOOOOOOOOOOXXXX                                                          XXXX++OOOOOOOOOOOOOOOOOOOOOOOOOOOOO",
"OOOOOOOOOOOOOOOOOOOOOOOOOOOOOOOXXXX                                                          XXXX++OOOOOOOOOOOOOOOOOOOOOOOOOOOOO",
"OOOOOOOOOOOOOOOOOOOOOOOOOOOOOOOXXXX                                                          XXXX++OOOOOOOOOOOOOOOOOOOOOOOOOOOOO",
"OOOOOOOOOOOOOOOOOOOOOOOOOOOOOOOXXXX                                                          XXXX++OOOOOOOOOOOOOOOOOOOOOOOOOOOOO",
"OOOOOOOOOOOOOOOOOOOOOOOOOOOOOOOXXXX                                                          XXXX++OOOOOOOOOOOOOOOOOOOOOOOOOOOOO",
"OOOOOOOOOOOOOOOOOOOOOOOOOOOOOOOXXXX                                                          XXXX++OOOOOOOOOOOOOOOOOOOOOOOOOOOOO",
"OOOOOOOOOOOOOOOOOOOOOOOOOOOOOOOXXXX                                                          XXXX++OOOOOOOOOOOOOOOOOOOOOOOOOOOOO",
"OOOOOOOOOOOOOOOOOOOOOOOOOOOOOOOXXXX                                                          XXXX++OOOOOOOOOOOOOOOOOOOOOOOOOOOOO",
"OOOOOOOOOOOOOOOOOOOOOOOOOOOOOOOXXXX                                                          XXXX++OOOOOOOOOOOOOOOOOOOOOOOOOOOOO",
"OOOOOOOOOOOOOOOOOOOOOOOOOOOOOOOXXXX                                                          XXXX++OOOOOOOOOOOOOOOOOOOOOOOOOOOOO",
"OOOOOOOOOOOOOOOOOOOOOOOOOOOOOOOXXXX                                                          XXXX++OOOOOOOOOOOOOOOOOOOOOOOOOOOOO",
"OOOOOOOOOOOOOOOOOOOOOOOOOOOOOOOXXXX                                                          XXXX++OOOOOOOOOOOOOOOOOOOOOOOOOOOOO",
"OOOOOOOOOOOOOOOOOOOOOOOOOOOOOOOXXXX                                                          XXXX++OOOOOOOOOOOOOOOOOOOOOOOOOOOOO",
"OOOOOOOOOOOOOOOOOOOOOOOOOOOOOOOXXXX                                                          XXXX++OOOOOOOOOOOOOOOOOOOOOOOOOOOOO",
"OOOOOOOOOOOOOOOOOOOOOOOOOOOOOOOXXXX                                                          XXXX++OOOOOOOOOOOOOOOOOOOOOOOOOOOOO",
"OOOOOOOOOOOOOOOOOOOOOOOOOOOOOOOXXXX                                                          XXXX++OOOOOOOOOOOOOOOOOOOOOOOOOOOOO",
"OOOOOOOOOOOOOOOOOOOOOOOOOOOOOOOXXXX                                                          XXXX++OOOOOOOOOOOOOOOOOOOOOOOOOOOOO",
"OOOOOOOOOOOOOOOOOOOOOOOOOOOOOOOXXXX                                                          XXXX++OOOOOOOOOOOOOOOOOOOOOOOOOOOOO",
"OOOOOOOOOOOOOOOOOOOOOOOOOOOOOOOXXXX                                                          XXXX++OOOOOOOOOOOOOOOOOOOOOOOOOOOOO",
"OOOOOOOOOOOOOOOOOOOOOOOOOOOOOOOXXXX                                                          XXXX++OOOOOOOOOOOOOOOOOOOOOOOOOOOOO",
"OOOOOOOOOOOOOOOOOOOOOOOOOOOOOOOXXXX                                                          XXXX++OOOOOOOOOOOOOOOOOOOOOOOOOOOOO",
"OOOOOOOOOOOOOOOOOOOOOOOOOOOOOOOXXXX                                                          XXXX++OOOOOOOOOOOOOOOOOOOOOOOOOOOOO",
"OOOOOOOOOOOOOOOOOOOOOOOOOOOOOOOXXXX                                                          XXXX++OOOOOOOOOOOOOOOOOOOOOOOOOOOOO",
"OOOOOOOOOOOOOOOOOOOOOOOOOOOOOOOXXXX                                                          XXXX++OOOOOOOOOOOOOOOOOOOOOOOOOOOOO",
"OOOOOOOOOOOOOOOOOOOOOOOOOOOOOOOXXXX                                                          XXXX++OOOOOOOOOOOOOOOOOOOOOOOOOOOOO",
"OOOOOOOOOOOOOOOOOOOOOOOOOOOOOOOXXXX                                                          XXXX++OOOOOOOOOOOOOOOOOOOOOOOOOOOOO",
"OOOOOOOOOOOOOOOOOOOOOOOOOOOOOOOXXXX                                                          XXXX++OOOOOOOOOOOOOOOOOOOO+++++++++",
"OOOOOOOOOOOOOOOOOOOOOOOOOOOOOOOXXXX                                                          XXXX++OOOOOOOOOOOOOOOOOOOO+++++++++",
"OOOOOOOOOOOOOOOOOOOOOOOOO++ooOOXXXX                                                          XXXX++OO++ooOOOOOOOOOOOO++.........",
"OOOOOOOOOOOOOOOOOOOOOOOOO++ooOOXXXX                                                          XXXX++OO++ooOOOOOOOOOOOO++.........",
"OOOOOOOOOOOOOOOOOOOOOOOOOooXXOOXXXX                                                          XXXX++OOooXXOOOOOOOOOOOO++.........",
"OOOOOOOOOOOOOOOOOOOOOOOOOooXXOOXXXX                                                          XXXX++OOooXXOOOOOOOOOOOO++.........",
"OOOOOOOOOOOOOOOOOOOOOOOOOOOOOOOXXXX                                                          XXXX++OOOOOOOOOOOOOOOOOO++....%%$$$",
"OOOOOOOOOOOOOOOOOOOOOOOOOOOOOOOXXXX                                                          XXXX++OOOOOOOOOOOOOOOOOO++....%%$$$",
"XXXXXXXXXXXXXXXXXXXXXXXXXXXXXXXXXXX                                                          XXXXXXXXXXXXXXXXXXXXXXXX++....$$###",
"XXXXXXXXXXXXXXXXXXXXXXXXXXXXXXXXXXX                                                          XXXXXXXXXXXXXXXXXXXXXXXX++....$$###",
"+++++++++++++++++++++XX&&++++++XXXX                                                          XX&&++++++XXXX&&++++++++++....$$###",
"+++++++++++++++++++++XX&&++++++XXXX                                                          XX&&++++++XXXX&&++++++++++....$$###",
"OOOOOOOOOOOOOOOOOOOOOXX++OOOOOOXXXX                                                          XX++OOOOOOXXXX++OOOOOOOO++....$$###",
"OOOOOOOOOOOOOOOOOOOOOXX++OOOOOOXXXX                                                          XX++OOOOOOXXXX++OOOOOOOO++....$$###",
"OOOOOOOOOOOOOOO++ooOOXX++OOOOOOXXXX                                                          XX++OOOOOOXXXX++OO++ooOO++....##@@@",
"OOOOOOOOOOOOOOO++ooOOXX++OOOOOOXXXX                                                          XX++OOOOOOXXXX++OO++ooOO++....##@@@",
"OOOOOOOOOOOOOOOooXXOOXX++OOOOOOXXXX                                                          XX++OOOOOOXXXX++OOooXXOO++.........",
"OOOOOOOOOOOOOOOooXXOOXX++OOOOOOXXXX                                                          XX++OOOOOOXXXX++OOooXXOO++.........",
"OOOOOOOOOOOOOOOOOOOOOXX++######XXXX                                                          XX++######XXXX++OOOOOOOO++....++++O",
"OOOOOOOOOOOOOOOOOOOOOXX++######XXXX                                                          XX++######XXXX++OOOOOOOO++....++++O",
"OOOOOOOOOOOOOOOOOOOOOXX++######XXXX                                                          XX++######XXXX++OOOOOOOO++....++OOo",
"OOOOOOOOOOOOOOOOOOOOOXX++######XXXX                                                          XX++######XXXX++OOOOOOOO++....++OOo",
"OOOOOOOOOOOOOOOOOOOOOXX++OOOOOOXXXX                                                          XX++OOOOOOXXXX++OOOOOOOO++.........",
"OOOOOOOOOOOOOOOOOOOOOXX++OOOOOOXXXX                                                          XX++OOOOOOXXXX++OOOOOOOO++.........",
"OOOOOOOOOOOOOOOOOOOOOXX++OOXXXXXXXX                                                          XX++XXXXOOXXXX++OOOOOOOO++....++++O",
"OOOOOOOOOOOOOOOOOOOOOXX++OOXXXXXXXX                                                          XX++XXXXOOXXXX++OOOOOOOO++....++++O",
"OOOOOOOOOOOOOOOOOOOOOXX++OO....XXXX                                                          XX++....OOXXXX++OOOOOOOO++....++OOo",
"OOOOOOOOOOOOOOOOOOOOOXX++OO....XXXX                                                          XX++....OOXXXX++OOOOOOOO++....++OOo",
"OOOOOOOOOOOOOOOOOOOOOXX++OO....XXXX                                                          XX++....OOXXXX++OOOOOOOO++.........",
"OOOOOOOOOOOOOOOOOOOOOXX++OO....XXXX                                                          XX++....OOXXXX++OOOOOOOO++.........",
"OOOOOOOOOOOOOOOOOOOOOXX++OO....XXXX                                                          XX++....OOXXXX++OOOOOOOO++.........",
"OOOOOOOOOOOOOOOOOOOOOXX++OO....XXXX                                                          XX++....OOXXXX++OOOOOOOO++.........",
"OOOOOOOOOOOOOOOOOOOOOXX++OO....XXXX                                                          XX++....OOXXXX++OOOOOOOO++.........",
"OOOOOOOOOOOOOOOOOOOOOXX++OO....XXXX                                                          XX++....OOXXXX++OOOOOOOO++.........",
"OOOOOOOOOOOOOOO++ooOOXX++OOOOOOXXXX                                                          XX++OOOOOOXXXX++OO++ooOOOOXXXXXXXXX",
"OOOOOOOOOOOOOOO++ooOOXX++OOOOOOXXXX                                                          XX++OOOOOOXXXX++OO++ooOOOOXXXXXXXXX",
"OOOOOOOOOOOOOOOooXXOOXXXXXXXXXXXXXX                                                          XXXXXXXXXXXXXX++OOooXXOOOOOOOOOOOOO",
"OOOOOOOOOOOOOOOooXXOOXXXXXXXXXXXXXX                                                          XXXXXXXXXXXXXX++OOooXXOOOOOOOOOOOOO",
"OOOOOOOOOOOOOOOOOOOOOXXXXXXXXXXXXXX                                                          XXXXXXXXXXXXXX++OOOOOOOOOOOOOOOOOOO",
"OOOOOOOOOOOOOOOOOOOOOXXXXXXXXXXXXXX                                                          XXXXXXXXXXXXXX++OOOOOOOOOOOOOOOOOOO",
"XXXXXXXXXXXXXXXXXXXXXXXXXXXXXXXXXXX                                                          XXXXXXXXXXXXXXXXXXXXXXXXXXXXXXXXXXX",
"XXXXXXXXXXXXXXXXXXXXXXXXXXXXXXXXXXX                                                          XXXXXXXXXXXXXXXXXXXXXXXXXXXXXXXXXXX",
"+++++++++++++++++++++++++++++++XXXX                                                          XXXX&&+++++++++++++++++++++++++++++",
"+++++++++++++++++++++++++++++++XXXX                                                          XXXX&&+++++++++++++++++++++++++++++",
"OOOOOOOOOOOOOOOOOOOOOOOOOOOOOOOXXXX                                                          XXXX++OOOOOOOOOOOOOOOOOOOOOOOOOOOOO",
"OOOOOOOOOOOOOOOOOOOOOOOOOOOOOOOXXXX                                                          XXXX++OOOOOOOOOOOOOOOOOOOOOOOOOOOOO",
"OOOOOOOOOOOOOOOOOOOOOOOOO++ooOOXXXX                                                          XXXX++OO++ooOOOOOOOOOOOOOOOOOOOOOOO",
"OOOOOOOOOOOOOOOOOOOOOOOOO++ooOOXXXX                                                          XXXX++OO++ooOOOOOOOOOOOOOOOOOOOOOOO",
"OOOOOOOOOOOOOOOOOOOOOOOOOooXXOOXXXX                                                          XXXX++OOooXXOOOOOOOOOOOOOOOOOOOOOOO",
"OOOOOOOOOOOOOOOOOOOOOOOOOooXXOOXXXX                                                          XXXX++OOooXXOOOOOOOOOOOOOOOOOOOOOOO",
"OOOOOOOOOOOOOOOOOOOOOOOOOOOOOOOXXXX                                                          XXXX++OOOOOOOOOOOOOOOOOOOOOOOOOOOOO",
"OOOOOOOOOOOOOOOOOOOOOOOOOOOOOOOXXXX                                                          XXXX++OOOOOOOOOOOOOOOOOOOOOOOOOOOOO",
"OOOOOOOOOOOOOOOOOOOOOOOOOOOOOOOXXXX                                                          XXXX++OOOOOOOOOOOOOOOOOOOOOOOOOOOOO",
"OOOOOOOOOOOOOOOOOOOOOOOOOOOOOOOXXXX                                                          XXXX++OOOOOOOOOOOOOOOOOOOOOOOOOOOOO",
"OOOOOOOOOOOOOOOOOOOOOOOOOOOOOOOXXXX                                                          XXXX++OOOOOOOOOOOOOOOOOOOOOOOOOOOOO",
"OOOOOOOOOOOOOOOOOOOOOOOOOOOOOOOXXXX                                                          XXXX++OOOOOOOOOOOOOOOOOOOOOOOOOOOOO",
"OOOOOOOOOOOOOOOOOOOOOOOOOOOOOOOXXXX                                                          XXXX++OOOOOOOOOOOOOOOOOOOOOOOOOOOOO",
"OOOOOOOOOOOOOOOOOOOOOOOOOOOOOOOXXXX                                                          XXXX++OOOOOOOOOOOOOOOOOOOOOOOOOOOOO",
"OOOOOOOOOOOOOOOOOOOOOOOOOOOOOOOXXXX                                                          XXXX++OOOOOOOOOOOOOOOOOOOOOOOOOOOOO",
"OOOOOOOOOOOOOOOOOOOOOOOOOOOOOOOXXXX                                                          XXXX++OOOOOOOOOOOOOOOOOOOOOOOOOOOOO",
"OOOOOOOOOOOOOOOOOOOOOOOOOOOOOOOXXXX                                                          XXXX++OOOOOOOOOOOOOOOOOOOOOOOOOOOOO",
"OOOOOOOOOOOOOOOOOOOOOOOOOOOOOOOXXXX                                                          XXXX++OOOOOOOOOOOOOOOOOOOOOOOOOOOOO",
"OOOOOOOOOOOOOOOOOOOOOOOOO++ooOOXXXX                                                          XXXX++OO++ooOOOOOOOOOOOOOOOOOOOOOOO",
"OOOOOOOOOOOOOOOOOOOOOOOOO++ooOOXXXX                                                          XXXX++OO++ooOOOOOOOOOOOOOOOOOOOOOOO",
"OOOOOOOOOOOOOOOOOOOOOOOOOooXXOOXXXX                                                          XXXX++OOooXXOOOOOOOOOOOOOOOOOOOOOOO",
"OOOOOOOOOOOOOOOOOOOOOOOOOooXXOOXXXX                                                          XXXX++OOooXXOOOOOOOOOOOOOOOOOOOOOOO",
"OOOOOOOOOOOOOOOOOOOOOOOOOOOOOOOXXXX                                                          XXXX++OOOOOOOOOOOOOOOOOOOOOOOOOOOOO",
"OOOOOOOOOOOOOOOOOOOOOOOOOOOOOOOXXXX                                                          XXXX++OOOOOOOOOOOOOOOOOOOOOOOOOOOOO",
"XXXXXXXXXXXXXXXXXXXXXXXXXXXXXXXXXXX                                                          XXXXXXXXXXXXXXXXXXXXXXXXXXXXXXXXXXX",
"XXXXXXXXXXXXXXXXXXXXXXXXXXXXXXXXXXX                                                          XXXXXXXXXXXXXXXXXXXXXXXXXXXXXXXXXXX",
"+++++++++++++++++++++++++++++++XXXX                                                          XXXX+++++++++++++++++++++++++++++++",
"+++++++++++++++++++++++++++++++XXXX                                                          XXXX+++++++++++++++++++++++++++++++",
"OOOOOOOOOOOOOOOOOOOOOOOOOOOOOOOXXXX                                                          XXXXOOOOOOOOOOOOOOOOOOOOOOOOOOOOOOO",
"OOOOOOOOOOOOOOOOOOOOOOOOOOOOOOOXXXX                                                          XXXXOOOOOOOOOOOOOOOOOOOOOOOOOOOOOOO",
"OOOOOOOOOOOOOOOOOOOOOOOOOOOOOOOXXXX                                                          XXXXOOOOOOOOOOOOOOOOOOOOOOOOOOOOOOO",
"OOOOOOOOOOOOOOOOOOOOOOOOOOOOOOOXXXX                                                          XXXXOOOOOOOOOOOOOOOOOOOOOOOOOOOOOOO",
"OOOOOOOOOOOOOOOOOOOOOOOOOOOOOOOXXXX                                                          XXXXOOOOOOOOOOOOOOOOOOOOOOOOOOOOOOO",
"OOOOOOOOOOOOOOOOOOOOOOOOOOOOOOOXXXX                                                          XXXXOOOOOOOOOOOOOOOOOOOOOOOOOOOOOOO",
"OOOOOOOOOOOOOOOOOOOOOOOOOOOOOOOXXXX                                                          XXXXOOOOOOOOOOOOOOOOOOOOOOOOOOOOOOO",
"OOOOOOOOOOOOOOOOOOOOOOOOOOOOOOOXXXX                                                          XXXXOOOOOOOOOOOOOOOOOOOOOOOOOOOOOOO",
"OOOOOOOOOOOOOOOOOOOOOOOOOOOOOOOXXXX                                                          XXXXOOOOOOOOOOOOOOOOOOOOOOOOOOOOOOO",
"OOOOOOOOOOOOOOOOOOOOOOOOOOOOOOOXXXX                                                          XXXXOOOOOOOOOOOOOOOOOOOOOOOOOOOOOOO",
"OOOOOOOOOOOOOOOOOOOOOOOOOOOOOOOXXXX                                                          XXXXOOOOOOOOOOOOOOOOOOOOOOOOOOOOOOO",
"OOOOOOOOOOOOOOOOOOOOOOOOOOOOOOOXXXX                                                          XXXXOOOOOOOOOOOOOOOOOOOOOOOOOOOOOOO",
"XXXXXXXXXXXXXXXXXXXXXXXXXXXXXXXXXXX                                                          XXXXXXXXXXXXXXXXXXXXXXXXXXXXXXXXXXX",
"XXXXXXXXXXXXXXXXXXXXXXXXXXXXXXXXXXX                                                          XXXXXXXXXXXXXXXXXXXXXXXXXXXXXXXXXXX"
};
