/* XPM */
static char *_7eaeca2f404428e99cd6e55f57bdaf3liI6jnqqij3jD3or[] = {
/* columns rows colors chars-per-pixel */
"128 128 8 1 ",
"  c None",
". c #000008",
"X c gray20",
"o c #434343",
"O c #535353",
"+ c #777777",
"@ c #7FB717",
"# c gray53",
/* pixels */
"++++++++++++++++++                                                                                            ++++++++++++++++++",
"++++++++++++++++++                                                                                            ++++++++++++++++++",
"OOOOOOOOOOOOOOOOXX                                                                                            XXOOOOOOOOOOOOOOOO",
"OOOOOOOOOOOOOOOOXX                                                                                            XXOOOOOOOOOOOOOOOO",
"OOOOOOOOOOOOOOOOXX                                                                                            XXOOOOOOOOOOOOOOOO",
"OOOOOOOOOOOOOOOOXX                                                                                            XXOOOOOOOOOOOOOOOO",
"XXXXXXXXXXXXXXXXXX                                                                                            XXXXXXXXXXXXXXXXXX",
"XXXXXXXXXXXXXXXXXX                                                                                            XXXXXXXXXXXXXXXXXX",
"++++++++++++++XXXX                                                                                            XXXX##++++++++++++",
"++++++++++++++XXXX                                                                                            XXXX##++++++++++++",
"OOOOOOOOOOOOOOXXXX                                                                                            XXXX++OOOOOOOOOOOO",
"OOOOOOOOOOOOOOXXXX                                                                                            XXXX++OOOOOOOOOOOO",
"OOOOOOOO++ooOOXXXX                                                                                            XXXX++OO++ooOOOOOO",
"OOOOOOOO++ooOOXXXX                                                                                            XXXX++OO++ooOOOOOO",
"OOOOOOOOooXXOOXXXX                                                                                            XXXX++OOooXXOOOOOO",
"OOOOOOOOooXXOOXXXX                                                                                            XXXX++OOooXXOOOOOO",
"OOOOOOOOOOOOOOXXXX                                                                                            XXXX++OOOOOOOOOOOO",
"OOOOOOOOOOOOOOXXXX                                                                                            XXXX++OOOOOOOOOOOO",
"OOOOOOOOOOOOOOXXXX                                                                                            XXXX++OOOOOOOOOOOO",
"OOOOOOOOOOOOOOXXXX                                                                                            XXXX++OOOOOOOOOOOO",
"OOOOOOOOOOOOOOXXXX                                                                                            XXXX++OOOOOOOOOOOO",
"OOOOOOOOOOOOOOXXXX                                                                                            XXXX++OOOOOOOOOOOO",
"OOOOOOOOOOOOOOXXXX                                                                                            XXXX++OOOOOOOOOOOO",
"OOOOOOOOOOOOOOXXXX                                                                                            XXXX++OOOOOOOOOOOO",
"OOOOOOOOOOOOOOXXXX                                                                                            XXXX++OOOOOOOOOOOO",
"OOOOOOOOOOOOOOXXXX                                                                                            XXXX++OOOOOOOOOOOO",
"OOOOOOOOOOOOOOXXXX                                                                                            XXXX++OOOOOOOOOOOO",
"OOOOOOOOOOOOOOXXXX                                                                                            XXXX++OOOOOOOOOOOO",
"OOOOOOOOOOOOOOXXXX                                                                                            XXXX++OOOOOOOOOOOO",
"OOOOOOOOOOOOOOXXXX                                                                                            XXXX++OOOOOOOOOOOO",
"OOOOOOOOOOOOOOXXXX                                                                                            XXXX++OOOOOOOOOOOO",
"OOOOOOOOOOOOOOXXXX                                                                                            XXXX++OOOOOOOOOOOO",
"OOOOOOOOOOOOOOXXXX                                                                                            XXXX++OOOOOOOOOOOO",
"OOOOOOOOOOOOOOXXXX                                                                                            XXXX++OOOOOOOOOOOO",
"OOOOOOOOOOOOOOXXXX                                                                                            XXXX++OOOOOOOOOOOO",
"OOOOOOOOOOOOOOXXXX                                                                                            XXXX++OOOOOOOOOOOO",
"OOOOOOOOOOOOOOXXXX                                                                                            XXXX++OOOOOOOOOOOO",
"OOOOOOOOOOOOOOXXXX                                                                                            XXXX++OOOOOOOOOOOO",
"OOOOOOOOOOOOOOXXXX                                                                                            XXXX++OOOOOOOOOOOO",
"OOOOOOOOOOOOOOXXXX                                                                                            XXXX++OOOOOOOOOOOO",
"OOOOOOOOOOOOOOXXXX                                                                                            XXXX++OOOOOOOOOOOO",
"OOOOOOOOOOOOOOXXXX                                                                                            XXXX++OOOOOOOOOOOO",
"OOOOOOOOOOOOOOXXXX                                                                                            XXXX++OOOOOOOOOOOO",
"OOOOOOOOOOOOOOXXXX                                                                                            XXXX++OOOOOOOOOOOO",
"OOOOOOOO++ooOOXXXX                                                                                            XXXX++OO++ooOOOOOO",
"OOOOOOOO++ooOOXXXX                                                                                            XXXX++OO++ooOOOOOO",
"OOOOOOOOooXXOOXXXX                                                                                            XXXX++OOooXXOOOOOO",
"OOOOOOOOooXXOOXXXX                                                                                            XXXX++OOooXXOOOOOO",
"OOOOOOOOOOOOOOXXXX                                                                                            XXXX++OOOOOOOOOOOO",
"OOOOOOOOOOOOOOXXXX                                                                                            XXXX++OOOOOOOOOOOO",
"XXXXXXXXXXXXXXXXXX                                                                                            XXXXXXXXXXXXXXXXXX",
"XXXXXXXXXXXXXXXXXX                                                                                            XXXXXXXXXXXXXXXXXX",
"++++XX##++++++XXXX                                                                                            XX##++++++XXXX##++",
"++++XX##++++++XXXX                                                                                            XX##++++++XXXX##++",
"OOOOXX++OOOOOOXXXX                                                                                            XX++OOOOOOXXXX++OO",
"OOOOXX++OOOOOOXXXX                                                                                            XX++OOOOOOXXXX++OO",
"ooOOXX++OOOOOOXXXX                                                                                            XX++OOOOOOXXXX++OO",
"ooOOXX++OOOOOOXXXX                                                                                            XX++OOOOOOXXXX++OO",
"XXOOXX++OOOOOOXXXX                                                                                            XX++OOOOOOXXXX++OO",
"XXOOXX++OOOOOOXXXX                                                                                            XX++OOOOOOXXXX++OO",
"OOOOXX++@@@@@@XXXX                                                                                            XX++@@@@@@XXXX++OO",
"OOOOXX++@@@@@@XXXX                                                                                            XX++@@@@@@XXXX++OO",
"OOOOXX++@@@@@@XXXX                                                                                            XX++@@@@@@XXXX++OO",
"OOOOXX++@@@@@@XXXX                                                                                            XX++@@@@@@XXXX++OO",
"OOOOXX++OOOOOOXXXX                                                                                            XX++OOOOOOXXXX++OO",
"OOOOXX++OOOOOOXXXX                                                                                            XX++OOOOOOXXXX++OO",
"OOOOXX++OOXXXXXXXX                                                                                            XX++XXXXOOXXXX++OO",
"OOOOXX++OOXXXXXXXX                                                                                            XX++XXXXOOXXXX++OO",
"OOOOXX++OO....XXXX                                                                                            XX++....OOXXXX++OO",
"OOOOXX++OO....XXXX                                                                                            XX++....OOXXXX++OO",
"OOOOXX++OO....XXXX                                                                                            XX++....OOXXXX++OO",
"OOOOXX++OO....XXXX                                                                                            XX++....OOXXXX++OO",
"OOOOXX++OO....XXXX                                                                                            XX++....OOXXXX++OO",
"OOOOXX++OO....XXXX                                                                                            XX++....OOXXXX++OO",
"OOOOXX++OO....XXXX                                                                                            XX++....OOXXXX++OO",
"OOOOXX++OO....XXXX                                                                                            XX++....OOXXXX++OO",
"ooOOXX++OOOOOOXXXX                                                                                            XX++OOOOOOXXXX++OO",
"ooOOXX++OOOOOOXXXX                                                                                            XX++OOOOOOXXXX++OO",
"XXOOXXXXXXXXXXXXXX                                                                                            XXXXXXXXXXXXXX++OO",
"XXOOXXXXXXXXXXXXXX                                                                                            XXXXXXXXXXXXXX++OO",
"OOOOXXXXXXXXXXXXXX                                                                                            XXXXXXXXXXXXXX++OO",
"OOOOXXXXXXXXXXXXXX                                                                                            XXXXXXXXXXXXXX++OO",
"XXXXXXXXXXXXXXXXXX                                                                                            XXXXXXXXXXXXXXXXXX",
"XXXXXXXXXXXXXXXXXX                                                                                            XXXXXXXXXXXXXXXXXX",
"++++++++++++++XXXX                                                                                            XXXX##++++++++++++",
"++++++++++++++XXXX                                                                                            XXXX##++++++++++++",
"OOOOOOOOOOOOOOXXXX                                                                                            XXXX++OOOOOOOOOOOO",
"OOOOOOOOOOOOOOXXXX                                                                                            XXXX++OOOOOOOOOOOO",
"OOOOOOOO++ooOOXXXX                                                                                            XXXX++OO++ooOOOOOO",
"OOOOOOOO++ooOOXXXX                                                                                            XXXX++OO++ooOOOOOO",
"OOOOOOOOooXXOOXXXX                                                                                            XXXX++OOooXXOOOOOO",
"OOOOOOOOooXXOOXXXX                                                                                            XXXX++OOooXXOOOOOO",
"OOOOOOOOOOOOOOXXXX                                                                                            XXXX++OOOOOOOOOOOO",
"OOOOOOOOOOOOOOXXXX                                                                                            XXXX++OOOOOOOOOOOO",
"OOOOOOOOOOOOOOXXXX                                                                                            XXXX++OOOOOOOOOOOO",
"OOOOOOOOOOOOOOXXXX                                                                                            XXXX++OOOOOOOOOOOO",
"OOOOOOOOOOOOOOXXXX                                                                                            XXXX++OOOOOOOOOOOO",
"OOOOOOOOOOOOOOXXXX                                                                                            XXXX++OOOOOOOOOOOO",
"OOOOOOOOOOOOOOXXXX                                                                                            XXXX++OOOOOOOOOOOO",
"OOOOOOOOOOOOOOXXXX                                                                                            XXXX++OOOOOOOOOOOO",
"OOOOOOOOOOOOOOXXXX                                                                                            XXXX++OOOOOOOOOOOO",
"OOOOOOOOOOOOOOXXXX                                                                                            XXXX++OOOOOOOOOOOO",
"OOOOOOOOOOOOOOXXXX                                                                                            XXXX++OOOOOOOOOOOO",
"OOOOOOOOOOOOOOXXXX                                                                                            XXXX++OOOOOOOOOOOO",
"OOOOOOOO++ooOOXXXX                                                                                            XXXX++OO++ooOOOOOO",
"OOOOOOOO++ooOOXXXX                                                                                            XXXX++OO++ooOOOOOO",
"OOOOOOOOooXXOOXXXX                                                                                            XXXX++OOooXXOOOOOO",
"OOOOOOOOooXXOOXXXX                                                                                            XXXX++OOooXXOOOOOO",
"OOOOOOOOOOOOOOXXXX                                                                                            XXXX++OOOOOOOOOOOO",
"OOOOOOOOOOOOOOXXXX                                                                                            XXXX++OOOOOOOOOOOO",
"XXXXXXXXXXXXXXXXXX                                                                                            XXXXXXXXXXXXXXXXXX",
"XXXXXXXXXXXXXXXXXX                                                                                            XXXXXXXXXXXXXXXXXX",
"++++++++++++++XXXX                                                                                            XXXX++++++++++++++",
"++++++++++++++XXXX                                                                                            XXXX++++++++++++++",
"OOOOOOOOOOOOOOXXXX                                                                                            XXXXOOOOOOOOOOOOOO",
"OOOOOOOOOOOOOOXXXX                                                                                            XXXXOOOOOOOOOOOOOO",
"OOOOOOOOOOOOOOXXXX                                                                                            XXXXOOOOOOOOOOOOOO",
"OOOOOOOOOOOOOOXXXX                                                                                            XXXXOOOOOOOOOOOOOO",
"OOOOOOOOOOOOOOXXXX                                                                                            XXXXOOOOOOOOOOOOOO",
"OOOOOOOOOOOOOOXXXX                                                                                            XXXXOOOOOOOOOOOOOO",
"OOOOOOOOOOOOOOXXXX                                                                                            XXXXOOOOOOOOOOOOOO",
"OOOOOOOOOOOOOOXXXX                                                                                            XXXXOOOOOOOOOOOOOO",
"OOOOOOOOOOOOOOXXXX                                                                                            XXXXOOOOOOOOOOOOOO",
"OOOOOOOOOOOOOOXXXX                                                                                            XXXXOOOOOOOOOOOOOO",
"OOOOOOOOOOOOOOXXXX                                                                                            XXXXOOOOOOOOOOOOOO",
"OOOOOOOOOOOOOOXXXX                                                                                            XXXXOOOOOOOOOOOOOO",
"XXXXXXXXXXXXXXXXXX                                                                                            XXXXXXXXXXXXXXXXXX",
"XXXXXXXXXXXXXXXXXX                                                                                            XXXXXXXXXXXXXXXXXX"
};
