/* XPM */
static char *_ec531feaae242f4b93506de9a131cc0SDx4kZGpzk7AAsXy[] = {
/* columns rows colors chars-per-pixel */
"128 128 11 1 ",
"  c None",
". c #000008",
"X c gray20",
"o c #434343",
"O c #535353",
"+ c #777777",
"@ c #5F9B00",
"# c #7FB717",
"$ c #A3D337",
"% c #C7EF63",
"& c gray53",
/* pixels */
"+++++++++++++++++++++++++++++++++++++++                                                  +++++++++++++++++++++++++++++++++++++++",
"+++++++++++++++++++++++++++++++++++++++                                                  +++++++++++++++++++++++++++++++++++++++",
"OOOOOOOOOOOOOOOOOOOOOOOOOOOOOOOOOOOOOXX                                                  XXOOOOOOOOOOOOOOOOOOOOOOOOOOOOOOOOOOOOO",
"OOOOOOOOOOOOOOOOOOOOOOOOOOOOOOOOOOOOOXX                                                  XXOOOOOOOOOOOOOOOOOOOOOOOOOOOOOOOOOOOOO",
"OOOOOOOOOOOOOOOOOOOOOOOOOOOOOOOOOOOOOXX                                                  XXOOOOOOOOOOOOOOOOOOOOOOOOOOOOOOOOOOOOO",
"OOOOOOOOOOOOOOOOOOOOOOOOOOOOOOOOOOOOOXX                                                  XXOOOOOOOOOOOOOOOOOOOOOOOOOOOOOOOOOOOOO",
"XXXXXXXXXXXXXXXXXXXXXXXXXXXXXXXXXXXXXXX                                                  XXXXXXXXXXXXXXXXXXXXXXXXXXXXXXXXXXXXXXX",
"XXXXXXXXXXXXXXXXXXXXXXXXXXXXXXXXXXXXXXX                                                  XXXXXXXXXXXXXXXXXXXXXXXXXXXXXXXXXXXXXXX",
"+++++++++++++++++++++++++++++++++++XXXX                                                  XXXX&&+++++++++++++++++++++++++++++++++",
"+++++++++++++++++++++++++++++++++++XXXX                                                  XXXX&&+++++++++++++++++++++++++++++++++",
"OOOOOOOOOOOOOOOOOOOOOOOOOOOOOOOOOOOXXXX                                                  XXXX++OOOOOOOOOOOOOOOOOOOOOOOOOOOOOOOOO",
"OOOOOOOOOOOOOOOOOOOOOOOOOOOOOOOOOOOXXXX                                                  XXXX++OOOOOOOOOOOOOOOOOOOOOOOOOOOOOOOOO",
"OOOOOOOOOOOOOOOOOOOOOOOOOOOOO++ooOOXXXX                                                  XXXX++OO++ooOOOOOOOOOOOOOOOOOOOOOOOOOOO",
"OOOOOOOOOOOOOOOOOOOOOOOOOOOOO++ooOOXXXX                                                  XXXX++OO++ooOOOOOOOOOOOOOOOOOOOOOOOOOOO",
"OOOOOOOOOOOOOOOOOOOOOOOOOOOOOooXXOOXXXX                                                  XXXX++OOooXXOOOOOOOOOOOOOOOOOOOOOOOOOOO",
"OOOOOOOOOOOOOOOOOOOOOOOOOOOOOooXXOOXXXX                                                  XXXX++OOooXXOOOOOOOOOOOOOOOOOOOOOOOOOOO",
"OOOOOOOOOOOOOOOOOOOOOOOOOOOOOOOOOOOXXXX                                                  XXXX++OOOOOOOOOOOOOOOOOOOOOOOOOOOOOOOOO",
"OOOOOOOOOOOOOOOOOOOOOOOOOOOOOOOOOOOXXXX                                                  XXXX++OOOOOOOOOOOOOOOOOOOOOOOOOOOOOOOOO",
"OOOOOOOOOOOOOOOOOOOOOOOOOOOOOOOOOOOXXXX                                                  XXXX++OOOOOOOOOOOOOOOOOOOOOOOOOOOOOOOOO",
"OOOOOOOOOOOOOOOOOOOOOOOOOOOOOOOOOOOXXXX                                                  XXXX++OOOOOOOOOOOOOOOOOOOOOOOOOOOOOOOOO",
"OOOOOOOOOOOOOOOOOOOOOOOOOOOOOOOOOOOXXXX                                                  XXXX++OOOOOOOOOOOOOOOOOOOOOOOOOOOOOOOOO",
"OOOOOOOOOOOOOOOOOOOOOOOOOOOOOOOOOOOXXXX                                                  XXXX++OOOOOOOOOOOOOOOOOOOOOOOOOOOOOOOOO",
"OOOOOOOOOOOOOOOOOOOOOOOOOOOOOOOOOOOXXXX                                                  XXXX++OOOOOOOOOOOOOOOOOOOOOOOOOOOOOOOOO",
"OOOOOOOOOOOOOOOOOOOOOOOOOOOOOOOOOOOXXXX                                                  XXXX++OOOOOOOOOOOOOOOOOOOOOOOOOOOOOOOOO",
"OOOOOOOOOOOOOOOOOOOOOOOOOOOOOOOOOOOXXXX                                                  XXXX++OOOOOOOOOOOOOOOOOOOOOOOOOOOOOOOOO",
"OOOOOOOOOOOOOOOOOOOOOOOOOOOOOOOOOOOXXXX                                                  XXXX++OOOOOOOOOOOOOOOOOOOOOOOOOOOOOOOOO",
"OOOOOOOOOOOOOOOOOOOOOOOOOOOOOOOOOOOXXXX                                                  XXXX++OOOOOOOOOOOOOOOOOOOOOOOOOOOOOOOOO",
"OOOOOOOOOOOOOOOOOOOOOOOOOOOOOOOOOOOXXXX                                                  XXXX++OOOOOOOOOOOOOOOOOOOOOOOOOOOOOOOOO",
"OOOOOOOOOOOOOOOOOOOOOOOOOOOOOOOOOOOXXXX                                                  XXXX++OOOOOOOOOOOOOOOOOOOOOOOOOOOOOOOOO",
"OOOOOOOOOOOOOOOOOOOOOOOOOOOOOOOOOOOXXXX                                                  XXXX++OOOOOOOOOOOOOOOOOOOOOOOOOOOOOOOOO",
"OOOOOOOOOOOOOOOOOOOOOOOOOOOOOOOOOOOXXXX                                                  XXXX++OOOOOOOOOOOOOOOOOOOOOOOOOOOOOOOOO",
"OOOOOOOOOOOOOOOOOOOOOOOOOOOOOOOOOOOXXXX                                                  XXXX++OOOOOOOOOOOOOOOOOOOOOOOOOOOOOOOOO",
"OOOOOOOOOOOOOOOOOOOOOOOOOOOOOOOOOOOXXXX                                                  XXXX++OOOOOOOOOOOOOOOOOOOOOOOOOOOOOOOOO",
"OOOOOOOOOOOOOOOOOOOOOOOOOOOOOOOOOOOXXXX                                                  XXXX++OOOOOOOOOOOOOOOOOOOOOOOOOOOOOOOOO",
"OOOOOOOOOOOOOOOOOOOOOOOOOOOOOOOOOOOXXXX                                                  XXXX++OOOOOOOOOOOOOOOOOOOOOOOOOOOOOOOOO",
"OOOOOOOOOOOOOOOOOOOOOOOOOOOOOOOOOOOXXXX                                                  XXXX++OOOOOOOOOOOOOOOOOOOOOOOOOOOOOOOOO",
"OOOOOOOOOOOOOOOOOOOOOOOOOOOOOOOOOOOXXXX                                                  XXXX++OOOOOOOOOOOOOOOOOOOOOOOOOOOOOOOOO",
"OOOOOOOOOOOOOOOOOOOOOOOOOOOOOOOOOOOXXXX                                                  XXXX++OOOOOOOOOOOOOOOOOOOOOOOOOOOOOOOOO",
"OOOOOOOOOOOOOOOOOOOOOOOOOOOOOOOOOOOXXXX                                                  XXXX++OOOOOOOOOOOOOOOOOOOOOOOOOOOOOOOOO",
"OOOOOOOOOOOOOOOOOOOOOOOOOOOOOOOOOOOXXXX                                                  XXXX++OOOOOOOOOOOOOOOOOOOOOOOOOOOOOOOOO",
"OOOOOOOOOOOOOOOOOOOOOOOOOOOOOOOOOOOXXXX                                                  XXXX++OOOOOOOOOOOOOOOOOOOOOOOOOOOOOOOOO",
"OOOOOOOOOOOOOOOOOOOOOOOOOOOOOOOOOOOXXXX                                                  XXXX++OOOOOOOOOOOOOOOOOOOOOOOOOOOOOOOOO",
"OOOOOOOOOOOOOOOOOOOOOOOOOOOOOOOOOOOXXXX                                                  XXXX++OOOOOOOOOOOOOOOOOOOO+++++++++++++",
"OOOOOOOOOOOOOOOOOOOOOOOOOOOOOOOOOOOXXXX                                                  XXXX++OOOOOOOOOOOOOOOOOOOO+++++++++++++",
"OOOOOOOOOOOOOOOOOOOOOOOOOOOOO++ooOOXXXX                                                  XXXX++OO++ooOOOOOOOOOOOO++.............",
"OOOOOOOOOOOOOOOOOOOOOOOOOOOOO++ooOOXXXX                                                  XXXX++OO++ooOOOOOOOOOOOO++.............",
"OOOOOOOOOOOOOOOOOOOOOOOOOOOOOooXXOOXXXX                                                  XXXX++OOooXXOOOOOOOOOOOO++.............",
"OOOOOOOOOOOOOOOOOOOOOOOOOOOOOooXXOOXXXX                                                  XXXX++OOooXXOOOOOOOOOOOO++.............",
"OOOOOOOOOOOOOOOOOOOOOOOOOOOOOOOOOOOXXXX                                                  XXXX++OOOOOOOOOOOOOOOOOO++....%%$$$$##.",
"OOOOOOOOOOOOOOOOOOOOOOOOOOOOOOOOOOOXXXX                                                  XXXX++OOOOOOOOOOOOOOOOOO++....%%$$$$##.",
"XXXXXXXXXXXXXXXXXXXXXXXXXXXXXXXXXXXXXXX                                                  XXXXXXXXXXXXXXXXXXXXXXXX++....$$####@@.",
"XXXXXXXXXXXXXXXXXXXXXXXXXXXXXXXXXXXXXXX                                                  XXXXXXXXXXXXXXXXXXXXXXXX++....$$####@@.",
"+++++++++++++++++++++++++XX&&++++++XXXX                                                  XX&&++++++XXXX&&++++++++++....$$####@@.",
"+++++++++++++++++++++++++XX&&++++++XXXX                                                  XX&&++++++XXXX&&++++++++++....$$####@@.",
"OOOOOOOOOOOOOOOOOOOOOOOOOXX++OOOOOOXXXX                                                  XX++OOOOOOXXXX++OOOOOOOO++....$$####@@.",
"OOOOOOOOOOOOOOOOOOOOOOOOOXX++OOOOOOXXXX                                                  XX++OOOOOOXXXX++OOOOOOOO++....$$####@@.",
"OOOOOOOOOOOOOOOOOOO++ooOOXX++OOOOOOXXXX                                                  XX++OOOOOOXXXX++OO++ooOO++....##@@@@@@.",
"OOOOOOOOOOOOOOOOOOO++ooOOXX++OOOOOOXXXX                                                  XX++OOOOOOXXXX++OO++ooOO++....##@@@@@@.",
"OOOOOOOOOOOOOOOOOOOooXXOOXX++OOOOOOXXXX                                                  XX++OOOOOOXXXX++OOooXXOO++.............",
"OOOOOOOOOOOOOOOOOOOooXXOOXX++OOOOOOXXXX                                                  XX++OOOOOOXXXX++OOooXXOO++.............",
"OOOOOOOOOOOOOOOOOOOOOOOOOXX++######XXXX                                                  XX++######XXXX++OOOOOOOO++....++++OOoo.",
"OOOOOOOOOOOOOOOOOOOOOOOOOXX++######XXXX                                                  XX++######XXXX++OOOOOOOO++....++++OOoo.",
"OOOOOOOOOOOOOOOOOOOOOOOOOXX++######XXXX                                                  XX++######XXXX++OOOOOOOO++....++OOooXX.",
"OOOOOOOOOOOOOOOOOOOOOOOOOXX++######XXXX                                                  XX++######XXXX++OOOOOOOO++....++OOooXX.",
"OOOOOOOOOOOOOOOOOOOOOOOOOXX++OOOOOOXXXX                                                  XX++OOOOOOXXXX++OOOOOOOO++.............",
"OOOOOOOOOOOOOOOOOOOOOOOOOXX++OOOOOOXXXX                                                  XX++OOOOOOXXXX++OOOOOOOO++.............",
"OOOOOOOOOOOOOOOOOOOOOOOOOXX++OOXXXXXXXX                                                  XX++XXXXOOXXXX++OOOOOOOO++....++++OOoo.",
"OOOOOOOOOOOOOOOOOOOOOOOOOXX++OOXXXXXXXX                                                  XX++XXXXOOXXXX++OOOOOOOO++....++++OOoo.",
"OOOOOOOOOOOOOOOOOOOOOOOOOXX++OO....XXXX                                                  XX++....OOXXXX++OOOOOOOO++....++OOooXX.",
"OOOOOOOOOOOOOOOOOOOOOOOOOXX++OO....XXXX                                                  XX++....OOXXXX++OOOOOOOO++....++OOooXX.",
"OOOOOOOOOOOOOOOOOOOOOOOOOXX++OO....XXXX                                                  XX++....OOXXXX++OOOOOOOO++.............",
"OOOOOOOOOOOOOOOOOOOOOOOOOXX++OO....XXXX                                                  XX++....OOXXXX++OOOOOOOO++.............",
"OOOOOOOOOOOOOOOOOOOOOOOOOXX++OO....XXXX                                                  XX++....OOXXXX++OOOOOOOO++.............",
"OOOOOOOOOOOOOOOOOOOOOOOOOXX++OO....XXXX                                                  XX++....OOXXXX++OOOOOOOO++.............",
"OOOOOOOOOOOOOOOOOOOOOOOOOXX++OO....XXXX                                                  XX++....OOXXXX++OOOOOOOO++.............",
"OOOOOOOOOOOOOOOOOOOOOOOOOXX++OO....XXXX                                                  XX++....OOXXXX++OOOOOOOO++.............",
"OOOOOOOOOOOOOOOOOOO++ooOOXX++OOOOOOXXXX                                                  XX++OOOOOOXXXX++OO++ooOOOOXXXXXXXXXXXXX",
"OOOOOOOOOOOOOOOOOOO++ooOOXX++OOOOOOXXXX                                                  XX++OOOOOOXXXX++OO++ooOOOOXXXXXXXXXXXXX",
"OOOOOOOOOOOOOOOOOOOooXXOOXXXXXXXXXXXXXX                                                  XXXXXXXXXXXXXX++OOooXXOOOOOOOOOOOOOOOOO",
"OOOOOOOOOOOOOOOOOOOooXXOOXXXXXXXXXXXXXX                                                  XXXXXXXXXXXXXX++OOooXXOOOOOOOOOOOOOOOOO",
"OOOOOOOOOOOOOOOOOOOOOOOOOXXXXXXXXXXXXXX                                                  XXXXXXXXXXXXXX++OOOOOOOOOOOOOOOOOOOOOOO",
"OOOOOOOOOOOOOOOOOOOOOOOOOXXXXXXXXXXXXXX                                                  XXXXXXXXXXXXXX++OOOOOOOOOOOOOOOOOOOOOOO",
"XXXXXXXXXXXXXXXXXXXXXXXXXXXXXXXXXXXXXXX                                                  XXXXXXXXXXXXXXXXXXXXXXXXXXXXXXXXXXXXXXX",
"XXXXXXXXXXXXXXXXXXXXXXXXXXXXXXXXXXXXXXX                                                  XXXXXXXXXXXXXXXXXXXXXXXXXXXXXXXXXXXXXXX",
"+++++++++++++++++++++++++++++++++++XXXX                                                  XXXX&&+++++++++++++++++++++++++++++++++",
"+++++++++++++++++++++++++++++++++++XXXX                                                  XXXX&&+++++++++++++++++++++++++++++++++",
"OOOOOOOOOOOOOOOOOOOOOOOOOOOOOOOOOOOXXXX                                                  XXXX++OOOOOOOOOOOOOOOOOOOOOOOOOOOOOOOOO",
"OOOOOOOOOOOOOOOOOOOOOOOOOOOOOOOOOOOXXXX                                                  XXXX++OOOOOOOOOOOOOOOOOOOOOOOOOOOOOOOOO",
"OOOOOOOOOOOOOOOOOOOOOOOOOOOOO++ooOOXXXX                                                  XXXX++OO++ooOOOOOOOOOOOOOOOOOOOOOOOOOOO",
"OOOOOOOOOOOOOOOOOOOOOOOOOOOOO++ooOOXXXX                                                  XXXX++OO++ooOOOOOOOOOOOOOOOOOOOOOOOOOOO",
"OOOOOOOOOOOOOOOOOOOOOOOOOOOOOooXXOOXXXX                                                  XXXX++OOooXXOOOOOOOOOOOOOOOOOOOOOOOOOOO",
"OOOOOOOOOOOOOOOOOOOOOOOOOOOOOooXXOOXXXX                                                  XXXX++OOooXXOOOOOOOOOOOOOOOOOOOOOOOOOOO",
"OOOOOOOOOOOOOOOOOOOOOOOOOOOOOOOOOOOXXXX                                                  XXXX++OOOOOOOOOOOOOOOOOOOOOOOOOOOOOOOOO",
"OOOOOOOOOOOOOOOOOOOOOOOOOOOOOOOOOOOXXXX                                                  XXXX++OOOOOOOOOOOOOOOOOOOOOOOOOOOOOOOOO",
"OOOOOOOOOOOOOOOOOOOOOOOOOOOOOOOOOOOXXXX                                                  XXXX++OOOOOOOOOOOOOOOOOOOOOOOOOOOOOOOOO",
"OOOOOOOOOOOOOOOOOOOOOOOOOOOOOOOOOOOXXXX                                                  XXXX++OOOOOOOOOOOOOOOOOOOOOOOOOOOOOOOOO",
"OOOOOOOOOOOOOOOOOOOOOOOOOOOOOOOOOOOXXXX                                                  XXXX++OOOOOOOOOOOOOOOOOOOOOOOOOOOOOOOOO",
"OOOOOOOOOOOOOOOOOOOOOOOOOOOOOOOOOOOXXXX                                                  XXXX++OOOOOOOOOOOOOOOOOOOOOOOOOOOOOOOOO",
"OOOOOOOOOOOOOOOOOOOOOOOOOOOOOOOOOOOXXXX                                                  XXXX++OOOOOOOOOOOOOOOOOOOOOOOOOOOOOOOOO",
"OOOOOOOOOOOOOOOOOOOOOOOOOOOOOOOOOOOXXXX                                                  XXXX++OOOOOOOOOOOOOOOOOOOOOOOOOOOOOOOOO",
"OOOOOOOOOOOOOOOOOOOOOOOOOOOOOOOOOOOXXXX                                                  XXXX++OOOOOOOOOOOOOOOOOOOOOOOOOOOOOOOOO",
"OOOOOOOOOOOOOOOOOOOOOOOOOOOOOOOOOOOXXXX                                                  XXXX++OOOOOOOOOOOOOOOOOOOOOOOOOOOOOOOOO",
"OOOOOOOOOOOOOOOOOOOOOOOOOOOOOOOOOOOXXXX                                                  XXXX++OOOOOOOOOOOOOOOOOOOOOOOOOOOOOOOOO",
"OOOOOOOOOOOOOOOOOOOOOOOOOOOOOOOOOOOXXXX                                                  XXXX++OOOOOOOOOOOOOOOOOOOOOOOOOOOOOOOOO",
"OOOOOOOOOOOOOOOOOOOOOOOOOOOOO++ooOOXXXX                                                  XXXX++OO++ooOOOOOOOOOOOOOOOOOOOOOOOOOOO",
"OOOOOOOOOOOOOOOOOOOOOOOOOOOOO++ooOOXXXX                                                  XXXX++OO++ooOOOOOOOOOOOOOOOOOOOOOOOOOOO",
"OOOOOOOOOOOOOOOOOOOOOOOOOOOOOooXXOOXXXX                                                  XXXX++OOooXXOOOOOOOOOOOOOOOOOOOOOOOOOOO",
"OOOOOOOOOOOOOOOOOOOOOOOOOOOOOooXXOOXXXX                                                  XXXX++OOooXXOOOOOOOOOOOOOOOOOOOOOOOOOOO",
"OOOOOOOOOOOOOOOOOOOOOOOOOOOOOOOOOOOXXXX                                                  XXXX++OOOOOOOOOOOOOOOOOOOOOOOOOOOOOOOOO",
"OOOOOOOOOOOOOOOOOOOOOOOOOOOOOOOOOOOXXXX                                                  XXXX++OOOOOOOOOOOOOOOOOOOOOOOOOOOOOOOOO",
"XXXXXXXXXXXXXXXXXXXXXXXXXXXXXXXXXXXXXXX                                                  XXXXXXXXXXXXXXXXXXXXXXXXXXXXXXXXXXXXXXX",
"XXXXXXXXXXXXXXXXXXXXXXXXXXXXXXXXXXXXXXX                                                  XXXXXXXXXXXXXXXXXXXXXXXXXXXXXXXXXXXXXXX",
"+++++++++++++++++++++++++++++++++++XXXX                                                  XXXX+++++++++++++++++++++++++++++++++++",
"+++++++++++++++++++++++++++++++++++XXXX                                                  XXXX+++++++++++++++++++++++++++++++++++",
"OOOOOOOOOOOOOOOOOOOOOOOOOOOOOOOOOOOXXXX                                                  XXXXOOOOOOOOOOOOOOOOOOOOOOOOOOOOOOOOOOO",
"OOOOOOOOOOOOOOOOOOOOOOOOOOOOOOOOOOOXXXX                                                  XXXXOOOOOOOOOOOOOOOOOOOOOOOOOOOOOOOOOOO",
"OOOOOOOOOOOOOOOOOOOOOOOOOOOOOOOOOOOXXXX                                                  XXXXOOOOOOOOOOOOOOOOOOOOOOOOOOOOOOOOOOO",
"OOOOOOOOOOOOOOOOOOOOOOOOOOOOOOOOOOOXXXX                                                  XXXXOOOOOOOOOOOOOOOOOOOOOOOOOOOOOOOOOOO",
"OOOOOOOOOOOOOOOOOOOOOOOOOOOOOOOOOOOXXXX                                                  XXXXOOOOOOOOOOOOOOOOOOOOOOOOOOOOOOOOOOO",
"OOOOOOOOOOOOOOOOOOOOOOOOOOOOOOOOOOOXXXX                                                  XXXXOOOOOOOOOOOOOOOOOOOOOOOOOOOOOOOOOOO",
"OOOOOOOOOOOOOOOOOOOOOOOOOOOOOOOOOOOXXXX                                                  XXXXOOOOOOOOOOOOOOOOOOOOOOOOOOOOOOOOOOO",
"OOOOOOOOOOOOOOOOOOOOOOOOOOOOOOOOOOOXXXX                                                  XXXXOOOOOOOOOOOOOOOOOOOOOOOOOOOOOOOOOOO",
"OOOOOOOOOOOOOOOOOOOOOOOOOOOOOOOOOOOXXXX                                                  XXXXOOOOOOOOOOOOOOOOOOOOOOOOOOOOOOOOOOO",
"OOOOOOOOOOOOOOOOOOOOOOOOOOOOOOOOOOOXXXX                                                  XXXXOOOOOOOOOOOOOOOOOOOOOOOOOOOOOOOOOOO",
"OOOOOOOOOOOOOOOOOOOOOOOOOOOOOOOOOOOXXXX                                                  XXXXOOOOOOOOOOOOOOOOOOOOOOOOOOOOOOOOOOO",
"OOOOOOOOOOOOOOOOOOOOOOOOOOOOOOOOOOOXXXX                                                  XXXXOOOOOOOOOOOOOOOOOOOOOOOOOOOOOOOOOOO",
"XXXXXXXXXXXXXXXXXXXXXXXXXXXXXXXXXXXXXXX                                                  XXXXXXXXXXXXXXXXXXXXXXXXXXXXXXXXXXXXXXX",
"XXXXXXXXXXXXXXXXXXXXXXXXXXXXXXXXXXXXXXX                                                  XXXXXXXXXXXXXXXXXXXXXXXXXXXXXXXXXXXXXXX"
};
