/* XPM */
static char *ef0c05145e694179aea1376e04b2baadNao0OAzV1eN0iND6[] = {
/* columns rows colors chars-per-pixel */
"128 128 8 1 ",
"  c None",
". c #000008",
"X c gray20",
"o c #434343",
"O c #535353",
"+ c #777777",
"@ c #7FB717",
"# c gray53",
/* pixels */
"+++++++++++                                                                                                          +++++++++++",
"+++++++++++                                                                                                          +++++++++++",
"OOOOOOOOOXX                                                                                                          XXOOOOOOOOO",
"OOOOOOOOOXX                                                                                                          XXOOOOOOOOO",
"OOOOOOOOOXX                                                                                                          XXOOOOOOOOO",
"OOOOOOOOOXX                                                                                                          XXOOOOOOOOO",
"XXXXXXXXXXX                                                                                                          XXXXXXXXXXX",
"XXXXXXXXXXX                                                                                                          XXXXXXXXXXX",
"+++++++XXXX                                                                                                          XXXX##+++++",
"+++++++XXXX                                                                                                          XXXX##+++++",
"OOOOOOOXXXX                                                                                                          XXXX++OOOOO",
"OOOOOOOXXXX                                                                                                          XXXX++OOOOO",
"O++ooOOXXXX                                                                                                          XXXX++OO++o",
"O++ooOOXXXX                                                                                                          XXXX++OO++o",
"OooXXOOXXXX                                                                                                          XXXX++OOooX",
"OooXXOOXXXX                                                                                                          XXXX++OOooX",
"OOOOOOOXXXX                                                                                                          XXXX++OOOOO",
"OOOOOOOXXXX                                                                                                          XXXX++OOOOO",
"OOOOOOOXXXX                                                                                                          XXXX++OOOOO",
"OOOOOOOXXXX                                                                                                          XXXX++OOOOO",
"OOOOOOOXXXX                                                                                                          XXXX++OOOOO",
"OOOOOOOXXXX                                                                                                          XXXX++OOOOO",
"OOOOOOOXXXX                                                                                                          XXXX++OOOOO",
"OOOOOOOXXXX                                                                                                          XXXX++OOOOO",
"OOOOOOOXXXX                                                                                                          XXXX++OOOOO",
"OOOOOOOXXXX                                                                                                          XXXX++OOOOO",
"OOOOOOOXXXX                                                                                                          XXXX++OOOOO",
"OOOOOOOXXXX                                                                                                          XXXX++OOOOO",
"OOOOOOOXXXX                                                                                                          XXXX++OOOOO",
"OOOOOOOXXXX                                                                                                          XXXX++OOOOO",
"OOOOOOOXXXX                                                                                                          XXXX++OOOOO",
"OOOOOOOXXXX                                                                                                          XXXX++OOOOO",
"OOOOOOOXXXX                                                                                                          XXXX++OOOOO",
"OOOOOOOXXXX                                                                                                          XXXX++OOOOO",
"OOOOOOOXXXX                                                                                                          XXXX++OOOOO",
"OOOOOOOXXXX                                                                                                          XXXX++OOOOO",
"OOOOOOOXXXX                                                                                                          XXXX++OOOOO",
"OOOOOOOXXXX                                                                                                          XXXX++OOOOO",
"OOOOOOOXXXX                                                                                                          XXXX++OOOOO",
"OOOOOOOXXXX                                                                                                          XXXX++OOOOO",
"OOOOOOOXXXX                                                                                                          XXXX++OOOOO",
"OOOOOOOXXXX                                                                                                          XXXX++OOOOO",
"OOOOOOOXXXX                                                                                                          XXXX++OOOOO",
"OOOOOOOXXXX                                                                                                          XXXX++OOOOO",
"O++ooOOXXXX                                                                                                          XXXX++OO++o",
"O++ooOOXXXX                                                                                                          XXXX++OO++o",
"OooXXOOXXXX                                                                                                          XXXX++OOooX",
"OooXXOOXXXX                                                                                                          XXXX++OOooX",
"OOOOOOOXXXX                                                                                                          XXXX++OOOOO",
"OOOOOOOXXXX                                                                                                          XXXX++OOOOO",
"XXXXXXXXXXX                                                                                                          XXXXXXXXXXX",
"XXXXXXXXXXX                                                                                                          XXXXXXXXXXX",
"#++++++XXXX                                                                                                          XX##++++++X",
"#++++++XXXX                                                                                                          XX##++++++X",
"+OOOOOOXXXX                                                                                                          XX++OOOOOOX",
"+OOOOOOXXXX                                                                                                          XX++OOOOOOX",
"+OOOOOOXXXX                                                                                                          XX++OOOOOOX",
"+OOOOOOXXXX                                                                                                          XX++OOOOOOX",
"+OOOOOOXXXX                                                                                                          XX++OOOOOOX",
"+OOOOOOXXXX                                                                                                          XX++OOOOOOX",
"+@@@@@@XXXX                                                                                                          XX++@@@@@@X",
"+@@@@@@XXXX                                                                                                          XX++@@@@@@X",
"+@@@@@@XXXX                                                                                                          XX++@@@@@@X",
"+@@@@@@XXXX                                                                                                          XX++@@@@@@X",
"+OOOOOOXXXX                                                                                                          XX++OOOOOOX",
"+OOOOOOXXXX                                                                                                          XX++OOOOOOX",
"+OOXXXXXXXX                                                                                                          XX++XXXXOOX",
"+OOXXXXXXXX                                                                                                          XX++XXXXOOX",
"+OO....XXXX                                                                                                          XX++....OOX",
"+OO....XXXX                                                                                                          XX++....OOX",
"+OO....XXXX                                                                                                          XX++....OOX",
"+OO....XXXX                                                                                                          XX++....OOX",
"+OO....XXXX                                                                                                          XX++....OOX",
"+OO....XXXX                                                                                                          XX++....OOX",
"+OO....XXXX                                                                                                          XX++....OOX",
"+OO....XXXX                                                                                                          XX++....OOX",
"+OOOOOOXXXX                                                                                                          XX++OOOOOOX",
"+OOOOOOXXXX                                                                                                          XX++OOOOOOX",
"XXXXXXXXXXX                                                                                                          XXXXXXXXXXX",
"XXXXXXXXXXX                                                                                                          XXXXXXXXXXX",
"XXXXXXXXXXX                                                                                                          XXXXXXXXXXX",
"XXXXXXXXXXX                                                                                                          XXXXXXXXXXX",
"XXXXXXXXXXX                                                                                                          XXXXXXXXXXX",
"XXXXXXXXXXX                                                                                                          XXXXXXXXXXX",
"+++++++XXXX                                                                                                          XXXX##+++++",
"+++++++XXXX                                                                                                          XXXX##+++++",
"OOOOOOOXXXX                                                                                                          XXXX++OOOOO",
"OOOOOOOXXXX                                                                                                          XXXX++OOOOO",
"O++ooOOXXXX                                                                                                          XXXX++OO++o",
"O++ooOOXXXX                                                                                                          XXXX++OO++o",
"OooXXOOXXXX                                                                                                          XXXX++OOooX",
"OooXXOOXXXX                                                                                                          XXXX++OOooX",
"OOOOOOOXXXX                                                                                                          XXXX++OOOOO",
"OOOOOOOXXXX                                                                                                          XXXX++OOOOO",
"OOOOOOOXXXX                                                                                                          XXXX++OOOOO",
"OOOOOOOXXXX                                                                                                          XXXX++OOOOO",
"OOOOOOOXXXX                                                                                                          XXXX++OOOOO",
"OOOOOOOXXXX                                                                                                          XXXX++OOOOO",
"OOOOOOOXXXX                                                                                                          XXXX++OOOOO",
"OOOOOOOXXXX                                                                                                          XXXX++OOOOO",
"OOOOOOOXXXX                                                                                                          XXXX++OOOOO",
"OOOOOOOXXXX                                                                                                          XXXX++OOOOO",
"OOOOOOOXXXX                                                                                                          XXXX++OOOOO",
"OOOOOOOXXXX                                                                                                          XXXX++OOOOO",
"O++ooOOXXXX                                                                                                          XXXX++OO++o",
"O++ooOOXXXX                                                                                                          XXXX++OO++o",
"OooXXOOXXXX                                                                                                          XXXX++OOooX",
"OooXXOOXXXX                                                                                                          XXXX++OOooX",
"OOOOOOOXXXX                                                                                                          XXXX++OOOOO",
"OOOOOOOXXXX                                                                                                          XXXX++OOOOO",
"XXXXXXXXXXX                                                                                                          XXXXXXXXXXX",
"XXXXXXXXXXX                                                                                                          XXXXXXXXXXX",
"+++++++XXXX                                                                                                          XXXX+++++++",
"+++++++XXXX                                                                                                          XXXX+++++++",
"OOOOOOOXXXX                                                                                                          XXXXOOOOOOO",
"OOOOOOOXXXX                                                                                                          XXXXOOOOOOO",
"OOOOOOOXXXX                                                                                                          XXXXOOOOOOO",
"OOOOOOOXXXX                                                                                                          XXXXOOOOOOO",
"OOOOOOOXXXX                                                                                                          XXXXOOOOOOO",
"OOOOOOOXXXX                                                                                                          XXXXOOOOOOO",
"OOOOOOOXXXX                                                                                                          XXXXOOOOOOO",
"OOOOOOOXXXX                                                                                                          XXXXOOOOOOO",
"OOOOOOOXXXX                                                                                                          XXXXOOOOOOO",
"OOOOOOOXXXX                                                                                                          XXXXOOOOOOO",
"OOOOOOOXXXX                                                                                                          XXXXOOOOOOO",
"OOOOOOOXXXX                                                                                                          XXXXOOOOOOO",
"XXXXXXXXXXX                                                                                                          XXXXXXXXXXX",
"XXXXXXXXXXX                                                                                                          XXXXXXXXXXX"
};
