/* XPM */
static char *_49137a83fbb4662f6b77fe721f47100q0nzAM28XRN6rmen[] = {
/* columns rows colors chars-per-pixel */
"128 128 8 1 ",
"  c None",
". c #000008",
"X c gray20",
"o c #434343",
"O c #535353",
"+ c #777777",
"@ c #7FB717",
"# c gray53",
/* pixels */
"+++++++++++++++++++++++++++++                                                                      +++++++++++++++++++++++++++++",
"+++++++++++++++++++++++++++++                                                                      +++++++++++++++++++++++++++++",
"OOOOOOOOOOOOOOOOOOOOOOOOOOOXX                                                                      XXOOOOOOOOOOOOOOOOOOOOOOOOOOO",
"OOOOOOOOOOOOOOOOOOOOOOOOOOOXX                                                                      XXOOOOOOOOOOOOOOOOOOOOOOOOOOO",
"OOOOOOOOOOOOOOOOOOOOOOOOOOOXX                                                                      XXOOOOOOOOOOOOOOOOOOOOOOOOOOO",
"OOOOOOOOOOOOOOOOOOOOOOOOOOOXX                                                                      XXOOOOOOOOOOOOOOOOOOOOOOOOOOO",
"XXXXXXXXXXXXXXXXXXXXXXXXXXXXX                                                                      XXXXXXXXXXXXXXXXXXXXXXXXXXXXX",
"XXXXXXXXXXXXXXXXXXXXXXXXXXXXX                                                                      XXXXXXXXXXXXXXXXXXXXXXXXXXXXX",
"+++++++++++++++++++++++++XXXX                                                                      XXXX##+++++++++++++++++++++++",
"+++++++++++++++++++++++++XXXX                                                                      XXXX##+++++++++++++++++++++++",
"OOOOOOOOOOOOOOOOOOOOOOOOOXXXX                                                                      XXXX++OOOOOOOOOOOOOOOOOOOOOOO",
"OOOOOOOOOOOOOOOOOOOOOOOOOXXXX                                                                      XXXX++OOOOOOOOOOOOOOOOOOOOOOO",
"OOOOOOOOOOOOOOOOOOO++ooOOXXXX                                                                      XXXX++OO++ooOOOOOOOOOOOOOOOOO",
"OOOOOOOOOOOOOOOOOOO++ooOOXXXX                                                                      XXXX++OO++ooOOOOOOOOOOOOOOOOO",
"OOOOOOOOOOOOOOOOOOOooXXOOXXXX                                                                      XXXX++OOooXXOOOOOOOOOOOOOOOOO",
"OOOOOOOOOOOOOOOOOOOooXXOOXXXX                                                                      XXXX++OOooXXOOOOOOOOOOOOOOOOO",
"OOOOOOOOOOOOOOOOOOOOOOOOOXXXX                                                                      XXXX++OOOOOOOOOOOOOOOOOOOOOOO",
"OOOOOOOOOOOOOOOOOOOOOOOOOXXXX                                                                      XXXX++OOOOOOOOOOOOOOOOOOOOOOO",
"OOOOOOOOOOOOOOOOOOOOOOOOOXXXX                                                                      XXXX++OOOOOOOOOOOOOOOOOOOOOOO",
"OOOOOOOOOOOOOOOOOOOOOOOOOXXXX                                                                      XXXX++OOOOOOOOOOOOOOOOOOOOOOO",
"OOOOOOOOOOOOOOOOOOOOOOOOOXXXX                                                                      XXXX++OOOOOOOOOOOOOOOOOOOOOOO",
"OOOOOOOOOOOOOOOOOOOOOOOOOXXXX                                                                      XXXX++OOOOOOOOOOOOOOOOOOOOOOO",
"OOOOOOOOOOOOOOOOOOOOOOOOOXXXX                                                                      XXXX++OOOOOOOOOOOOOOOOOOOOOOO",
"OOOOOOOOOOOOOOOOOOOOOOOOOXXXX                                                                      XXXX++OOOOOOOOOOOOOOOOOOOOOOO",
"OOOOOOOOOOOOOOOOOOOOOOOOOXXXX                                                                      XXXX++OOOOOOOOOOOOOOOOOOOOOOO",
"OOOOOOOOOOOOOOOOOOOOOOOOOXXXX                                                                      XXXX++OOOOOOOOOOOOOOOOOOOOOOO",
"OOOOOOOOOOOOOOOOOOOOOOOOOXXXX                                                                      XXXX++OOOOOOOOOOOOOOOOOOOOOOO",
"OOOOOOOOOOOOOOOOOOOOOOOOOXXXX                                                                      XXXX++OOOOOOOOOOOOOOOOOOOOOOO",
"OOOOOOOOOOOOOOOOOOOOOOOOOXXXX                                                                      XXXX++OOOOOOOOOOOOOOOOOOOOOOO",
"OOOOOOOOOOOOOOOOOOOOOOOOOXXXX                                                                      XXXX++OOOOOOOOOOOOOOOOOOOOOOO",
"OOOOOOOOOOOOOOOOOOOOOOOOOXXXX                                                                      XXXX++OOOOOOOOOOOOOOOOOOOOOOO",
"OOOOOOOOOOOOOOOOOOOOOOOOOXXXX                                                                      XXXX++OOOOOOOOOOOOOOOOOOOOOOO",
"OOOOOOOOOOOOOOOOOOOOOOOOOXXXX                                                                      XXXX++OOOOOOOOOOOOOOOOOOOOOOO",
"OOOOOOOOOOOOOOOOOOOOOOOOOXXXX                                                                      XXXX++OOOOOOOOOOOOOOOOOOOOOOO",
"OOOOOOOOOOOOOOOOOOOOOOOOOXXXX                                                                      XXXX++OOOOOOOOOOOOOOOOOOOOOOO",
"OOOOOOOOOOOOOOOOOOOOOOOOOXXXX                                                                      XXXX++OOOOOOOOOOOOOOOOOOOOOOO",
"OOOOOOOOOOOOOOOOOOOOOOOOOXXXX                                                                      XXXX++OOOOOOOOOOOOOOOOOOOOOOO",
"OOOOOOOOOOOOOOOOOOOOOOOOOXXXX                                                                      XXXX++OOOOOOOOOOOOOOOOOOOOOOO",
"OOOOOOOOOOOOOOOOOOOOOOOOOXXXX                                                                      XXXX++OOOOOOOOOOOOOOOOOOOOOOO",
"OOOOOOOOOOOOOOOOOOOOOOOOOXXXX                                                                      XXXX++OOOOOOOOOOOOOOOOOOOOOOO",
"OOOOOOOOOOOOOOOOOOOOOOOOOXXXX                                                                      XXXX++OOOOOOOOOOOOOOOOOOOOOOO",
"OOOOOOOOOOOOOOOOOOOOOOOOOXXXX                                                                      XXXX++OOOOOOOOOOOOOOOOOOOOOOO",
"OOOOOOOOOOOOOOOOOOOOOOOOOXXXX                                                                      XXXX++OOOOOOOOOOOOOOOOOOOO+++",
"OOOOOOOOOOOOOOOOOOOOOOOOOXXXX                                                                      XXXX++OOOOOOOOOOOOOOOOOOOO+++",
"OOOOOOOOOOOOOOOOOOO++ooOOXXXX                                                                      XXXX++OO++ooOOOOOOOOOOOO++...",
"OOOOOOOOOOOOOOOOOOO++ooOOXXXX                                                                      XXXX++OO++ooOOOOOOOOOOOO++...",
"OOOOOOOOOOOOOOOOOOOooXXOOXXXX                                                                      XXXX++OOooXXOOOOOOOOOOOO++...",
"OOOOOOOOOOOOOOOOOOOooXXOOXXXX                                                                      XXXX++OOooXXOOOOOOOOOOOO++...",
"OOOOOOOOOOOOOOOOOOOOOOOOOXXXX                                                                      XXXX++OOOOOOOOOOOOOOOOOO++...",
"OOOOOOOOOOOOOOOOOOOOOOOOOXXXX                                                                      XXXX++OOOOOOOOOOOOOOOOOO++...",
"XXXXXXXXXXXXXXXXXXXXXXXXXXXXX                                                                      XXXXXXXXXXXXXXXXXXXXXXXX++...",
"XXXXXXXXXXXXXXXXXXXXXXXXXXXXX                                                                      XXXXXXXXXXXXXXXXXXXXXXXX++...",
"+++++++++++++++XX##++++++XXXX                                                                      XX##++++++XXXX##++++++++++...",
"+++++++++++++++XX##++++++XXXX                                                                      XX##++++++XXXX##++++++++++...",
"OOOOOOOOOOOOOOOXX++OOOOOOXXXX                                                                      XX++OOOOOOXXXX++OOOOOOOO++...",
"OOOOOOOOOOOOOOOXX++OOOOOOXXXX                                                                      XX++OOOOOOXXXX++OOOOOOOO++...",
"OOOOOOOOO++ooOOXX++OOOOOOXXXX                                                                      XX++OOOOOOXXXX++OO++ooOO++...",
"OOOOOOOOO++ooOOXX++OOOOOOXXXX                                                                      XX++OOOOOOXXXX++OO++ooOO++...",
"OOOOOOOOOooXXOOXX++OOOOOOXXXX                                                                      XX++OOOOOOXXXX++OOooXXOO++...",
"OOOOOOOOOooXXOOXX++OOOOOOXXXX                                                                      XX++OOOOOOXXXX++OOooXXOO++...",
"OOOOOOOOOOOOOOOXX++@@@@@@XXXX                                                                      XX++@@@@@@XXXX++OOOOOOOO++...",
"OOOOOOOOOOOOOOOXX++@@@@@@XXXX                                                                      XX++@@@@@@XXXX++OOOOOOOO++...",
"OOOOOOOOOOOOOOOXX++@@@@@@XXXX                                                                      XX++@@@@@@XXXX++OOOOOOOO++...",
"OOOOOOOOOOOOOOOXX++@@@@@@XXXX                                                                      XX++@@@@@@XXXX++OOOOOOOO++...",
"OOOOOOOOOOOOOOOXX++OOOOOOXXXX                                                                      XX++OOOOOOXXXX++OOOOOOOO++...",
"OOOOOOOOOOOOOOOXX++OOOOOOXXXX                                                                      XX++OOOOOOXXXX++OOOOOOOO++...",
"OOOOOOOOOOOOOOOXX++OOXXXXXXXX                                                                      XX++XXXXOOXXXX++OOOOOOOO++...",
"OOOOOOOOOOOOOOOXX++OOXXXXXXXX                                                                      XX++XXXXOOXXXX++OOOOOOOO++...",
"OOOOOOOOOOOOOOOXX++OO....XXXX                                                                      XX++....OOXXXX++OOOOOOOO++...",
"OOOOOOOOOOOOOOOXX++OO....XXXX                                                                      XX++....OOXXXX++OOOOOOOO++...",
"OOOOOOOOOOOOOOOXX++OO....XXXX                                                                      XX++....OOXXXX++OOOOOOOO++...",
"OOOOOOOOOOOOOOOXX++OO....XXXX                                                                      XX++....OOXXXX++OOOOOOOO++...",
"OOOOOOOOOOOOOOOXX++OO....XXXX                                                                      XX++....OOXXXX++OOOOOOOO++...",
"OOOOOOOOOOOOOOOXX++OO....XXXX                                                                      XX++....OOXXXX++OOOOOOOO++...",
"OOOOOOOOOOOOOOOXX++OO....XXXX                                                                      XX++....OOXXXX++OOOOOOOO++...",
"OOOOOOOOOOOOOOOXX++OO....XXXX                                                                      XX++....OOXXXX++OOOOOOOO++...",
"OOOOOOOOO++ooOOXX++OOOOOOXXXX                                                                      XX++OOOOOOXXXX++OO++ooOOOOXXX",
"OOOOOOOOO++ooOOXX++OOOOOOXXXX                                                                      XX++OOOOOOXXXX++OO++ooOOOOXXX",
"OOOOOOOOOooXXOOXXXXXXXXXXXXXX                                                                      XXXXXXXXXXXXXX++OOooXXOOOOOOO",
"OOOOOOOOOooXXOOXXXXXXXXXXXXXX                                                                      XXXXXXXXXXXXXX++OOooXXOOOOOOO",
"OOOOOOOOOOOOOOOXXXXXXXXXXXXXX                                                                      XXXXXXXXXXXXXX++OOOOOOOOOOOOO",
"OOOOOOOOOOOOOOOXXXXXXXXXXXXXX                                                                      XXXXXXXXXXXXXX++OOOOOOOOOOOOO",
"XXXXXXXXXXXXXXXXXXXXXXXXXXXXX                                                                      XXXXXXXXXXXXXXXXXXXXXXXXXXXXX",
"XXXXXXXXXXXXXXXXXXXXXXXXXXXXX                                                                      XXXXXXXXXXXXXXXXXXXXXXXXXXXXX",
"+++++++++++++++++++++++++XXXX                                                                      XXXX##+++++++++++++++++++++++",
"+++++++++++++++++++++++++XXXX                                                                      XXXX##+++++++++++++++++++++++",
"OOOOOOOOOOOOOOOOOOOOOOOOOXXXX                                                                      XXXX++OOOOOOOOOOOOOOOOOOOOOOO",
"OOOOOOOOOOOOOOOOOOOOOOOOOXXXX                                                                      XXXX++OOOOOOOOOOOOOOOOOOOOOOO",
"OOOOOOOOOOOOOOOOOOO++ooOOXXXX                                                                      XXXX++OO++ooOOOOOOOOOOOOOOOOO",
"OOOOOOOOOOOOOOOOOOO++ooOOXXXX                                                                      XXXX++OO++ooOOOOOOOOOOOOOOOOO",
"OOOOOOOOOOOOOOOOOOOooXXOOXXXX                                                                      XXXX++OOooXXOOOOOOOOOOOOOOOOO",
"OOOOOOOOOOOOOOOOOOOooXXOOXXXX                                                                      XXXX++OOooXXOOOOOOOOOOOOOOOOO",
"OOOOOOOOOOOOOOOOOOOOOOOOOXXXX                                                                      XXXX++OOOOOOOOOOOOOOOOOOOOOOO",
"OOOOOOOOOOOOOOOOOOOOOOOOOXXXX                                                                      XXXX++OOOOOOOOOOOOOOOOOOOOOOO",
"OOOOOOOOOOOOOOOOOOOOOOOOOXXXX                                                                      XXXX++OOOOOOOOOOOOOOOOOOOOOOO",
"OOOOOOOOOOOOOOOOOOOOOOOOOXXXX                                                                      XXXX++OOOOOOOOOOOOOOOOOOOOOOO",
"OOOOOOOOOOOOOOOOOOOOOOOOOXXXX                                                                      XXXX++OOOOOOOOOOOOOOOOOOOOOOO",
"OOOOOOOOOOOOOOOOOOOOOOOOOXXXX                                                                      XXXX++OOOOOOOOOOOOOOOOOOOOOOO",
"OOOOOOOOOOOOOOOOOOOOOOOOOXXXX                                                                      XXXX++OOOOOOOOOOOOOOOOOOOOOOO",
"OOOOOOOOOOOOOOOOOOOOOOOOOXXXX                                                                      XXXX++OOOOOOOOOOOOOOOOOOOOOOO",
"OOOOOOOOOOOOOOOOOOOOOOOOOXXXX                                                                      XXXX++OOOOOOOOOOOOOOOOOOOOOOO",
"OOOOOOOOOOOOOOOOOOOOOOOOOXXXX                                                                      XXXX++OOOOOOOOOOOOOOOOOOOOOOO",
"OOOOOOOOOOOOOOOOOOOOOOOOOXXXX                                                                      XXXX++OOOOOOOOOOOOOOOOOOOOOOO",
"OOOOOOOOOOOOOOOOOOOOOOOOOXXXX                                                                      XXXX++OOOOOOOOOOOOOOOOOOOOOOO",
"OOOOOOOOOOOOOOOOOOO++ooOOXXXX                                                                      XXXX++OO++ooOOOOOOOOOOOOOOOOO",
"OOOOOOOOOOOOOOOOOOO++ooOOXXXX                                                                      XXXX++OO++ooOOOOOOOOOOOOOOOOO",
"OOOOOOOOOOOOOOOOOOOooXXOOXXXX                                                                      XXXX++OOooXXOOOOOOOOOOOOOOOOO",
"OOOOOOOOOOOOOOOOOOOooXXOOXXXX                                                                      XXXX++OOooXXOOOOOOOOOOOOOOOOO",
"OOOOOOOOOOOOOOOOOOOOOOOOOXXXX                                                                      XXXX++OOOOOOOOOOOOOOOOOOOOOOO",
"OOOOOOOOOOOOOOOOOOOOOOOOOXXXX                                                                      XXXX++OOOOOOOOOOOOOOOOOOOOOOO",
"XXXXXXXXXXXXXXXXXXXXXXXXXXXXX                                                                      XXXXXXXXXXXXXXXXXXXXXXXXXXXXX",
"XXXXXXXXXXXXXXXXXXXXXXXXXXXXX                                                                      XXXXXXXXXXXXXXXXXXXXXXXXXXXXX",
"+++++++++++++++++++++++++XXXX                                                                      XXXX+++++++++++++++++++++++++",
"+++++++++++++++++++++++++XXXX                                                                      XXXX+++++++++++++++++++++++++",
"OOOOOOOOOOOOOOOOOOOOOOOOOXXXX                                                                      XXXXOOOOOOOOOOOOOOOOOOOOOOOOO",
"OOOOOOOOOOOOOOOOOOOOOOOOOXXXX                                                                      XXXXOOOOOOOOOOOOOOOOOOOOOOOOO",
"OOOOOOOOOOOOOOOOOOOOOOOOOXXXX                                                                      XXXXOOOOOOOOOOOOOOOOOOOOOOOOO",
"OOOOOOOOOOOOOOOOOOOOOOOOOXXXX                                                                      XXXXOOOOOOOOOOOOOOOOOOOOOOOOO",
"OOOOOOOOOOOOOOOOOOOOOOOOOXXXX                                                                      XXXXOOOOOOOOOOOOOOOOOOOOOOOOO",
"OOOOOOOOOOOOOOOOOOOOOOOOOXXXX                                                                      XXXXOOOOOOOOOOOOOOOOOOOOOOOOO",
"OOOOOOOOOOOOOOOOOOOOOOOOOXXXX                                                                      XXXXOOOOOOOOOOOOOOOOOOOOOOOOO",
"OOOOOOOOOOOOOOOOOOOOOOOOOXXXX                                                                      XXXXOOOOOOOOOOOOOOOOOOOOOOOOO",
"OOOOOOOOOOOOOOOOOOOOOOOOOXXXX                                                                      XXXXOOOOOOOOOOOOOOOOOOOOOOOOO",
"OOOOOOOOOOOOOOOOOOOOOOOOOXXXX                                                                      XXXXOOOOOOOOOOOOOOOOOOOOOOOOO",
"OOOOOOOOOOOOOOOOOOOOOOOOOXXXX                                                                      XXXXOOOOOOOOOOOOOOOOOOOOOOOOO",
"OOOOOOOOOOOOOOOOOOOOOOOOOXXXX                                                                      XXXXOOOOOOOOOOOOOOOOOOOOOOOOO",
"XXXXXXXXXXXXXXXXXXXXXXXXXXXXX                                                                      XXXXXXXXXXXXXXXXXXXXXXXXXXXXX",
"XXXXXXXXXXXXXXXXXXXXXXXXXXXXX                                                                      XXXXXXXXXXXXXXXXXXXXXXXXXXXXX"
};
