/* XPM */
static char *_022039a56e2460bba9e84ef5eaf2a71Q3mhKiLiWRwVCFmJ[] = {
/* columns rows colors chars-per-pixel */
"128 128 8 1 ",
"  c None",
". c #000008",
"X c gray20",
"o c #434343",
"O c #535353",
"+ c #777777",
"@ c #7FB717",
"# c gray53",
/* pixels */
"+++++++++++++++                                                                                                  +++++++++++++++",
"+++++++++++++++                                                                                                  +++++++++++++++",
"OOOOOOOOOOOOOXX                                                                                                  XXOOOOOOOOOOOOO",
"OOOOOOOOOOOOOXX                                                                                                  XXOOOOOOOOOOOOO",
"OOOOOOOOOOOOOXX                                                                                                  XXOOOOOOOOOOOOO",
"OOOOOOOOOOOOOXX                                                                                                  XXOOOOOOOOOOOOO",
"XXXXXXXXXXXXXXX                                                                                                  XXXXXXXXXXXXXXX",
"XXXXXXXXXXXXXXX                                                                                                  XXXXXXXXXXXXXXX",
"+++++++++++XXXX                                                                                                  XXXX##+++++++++",
"+++++++++++XXXX                                                                                                  XXXX##+++++++++",
"OOOOOOOOOOOXXXX                                                                                                  XXXX++OOOOOOOOO",
"OOOOOOOOOOOXXXX                                                                                                  XXXX++OOOOOOOOO",
"OOOOO++ooOOXXXX                                                                                                  XXXX++OO++ooOOO",
"OOOOO++ooOOXXXX                                                                                                  XXXX++OO++ooOOO",
"OOOOOooXXOOXXXX                                                                                                  XXXX++OOooXXOOO",
"OOOOOooXXOOXXXX                                                                                                  XXXX++OOooXXOOO",
"OOOOOOOOOOOXXXX                                                                                                  XXXX++OOOOOOOOO",
"OOOOOOOOOOOXXXX                                                                                                  XXXX++OOOOOOOOO",
"OOOOOOOOOOOXXXX                                                                                                  XXXX++OOOOOOOOO",
"OOOOOOOOOOOXXXX                                                                                                  XXXX++OOOOOOOOO",
"OOOOOOOOOOOXXXX                                                                                                  XXXX++OOOOOOOOO",
"OOOOOOOOOOOXXXX                                                                                                  XXXX++OOOOOOOOO",
"OOOOOOOOOOOXXXX                                                                                                  XXXX++OOOOOOOOO",
"OOOOOOOOOOOXXXX                                                                                                  XXXX++OOOOOOOOO",
"OOOOOOOOOOOXXXX                                                                                                  XXXX++OOOOOOOOO",
"OOOOOOOOOOOXXXX                                                                                                  XXXX++OOOOOOOOO",
"OOOOOOOOOOOXXXX                                                                                                  XXXX++OOOOOOOOO",
"OOOOOOOOOOOXXXX                                                                                                  XXXX++OOOOOOOOO",
"OOOOOOOOOOOXXXX                                                                                                  XXXX++OOOOOOOOO",
"OOOOOOOOOOOXXXX                                                                                                  XXXX++OOOOOOOOO",
"OOOOOOOOOOOXXXX                                                                                                  XXXX++OOOOOOOOO",
"OOOOOOOOOOOXXXX                                                                                                  XXXX++OOOOOOOOO",
"OOOOOOOOOOOXXXX                                                                                                  XXXX++OOOOOOOOO",
"OOOOOOOOOOOXXXX                                                                                                  XXXX++OOOOOOOOO",
"OOOOOOOOOOOXXXX                                                                                                  XXXX++OOOOOOOOO",
"OOOOOOOOOOOXXXX                                                                                                  XXXX++OOOOOOOOO",
"OOOOOOOOOOOXXXX                                                                                                  XXXX++OOOOOOOOO",
"OOOOOOOOOOOXXXX                                                                                                  XXXX++OOOOOOOOO",
"OOOOOOOOOOOXXXX                                                                                                  XXXX++OOOOOOOOO",
"OOOOOOOOOOOXXXX                                                                                                  XXXX++OOOOOOOOO",
"OOOOOOOOOOOXXXX                                                                                                  XXXX++OOOOOOOOO",
"OOOOOOOOOOOXXXX                                                                                                  XXXX++OOOOOOOOO",
"OOOOOOOOOOOXXXX                                                                                                  XXXX++OOOOOOOOO",
"OOOOOOOOOOOXXXX                                                                                                  XXXX++OOOOOOOOO",
"OOOOO++ooOOXXXX                                                                                                  XXXX++OO++ooOOO",
"OOOOO++ooOOXXXX                                                                                                  XXXX++OO++ooOOO",
"OOOOOooXXOOXXXX                                                                                                  XXXX++OOooXXOOO",
"OOOOOooXXOOXXXX                                                                                                  XXXX++OOooXXOOO",
"OOOOOOOOOOOXXXX                                                                                                  XXXX++OOOOOOOOO",
"OOOOOOOOOOOXXXX                                                                                                  XXXX++OOOOOOOOO",
"XXXXXXXXXXXXXXX                                                                                                  XXXXXXXXXXXXXXX",
"XXXXXXXXXXXXXXX                                                                                                  XXXXXXXXXXXXXXX",
"+XX##++++++XXXX                                                                                                  XX##++++++XXXX#",
"+XX##++++++XXXX                                                                                                  XX##++++++XXXX#",
"OXX++OOOOOOXXXX                                                                                                  XX++OOOOOOXXXX+",
"OXX++OOOOOOXXXX                                                                                                  XX++OOOOOOXXXX+",
"OXX++OOOOOOXXXX                                                                                                  XX++OOOOOOXXXX+",
"OXX++OOOOOOXXXX                                                                                                  XX++OOOOOOXXXX+",
"OXX++OOOOOOXXXX                                                                                                  XX++OOOOOOXXXX+",
"OXX++OOOOOOXXXX                                                                                                  XX++OOOOOOXXXX+",
"OXX++@@@@@@XXXX                                                                                                  XX++@@@@@@XXXX+",
"OXX++@@@@@@XXXX                                                                                                  XX++@@@@@@XXXX+",
"OXX++@@@@@@XXXX                                                                                                  XX++@@@@@@XXXX+",
"OXX++@@@@@@XXXX                                                                                                  XX++@@@@@@XXXX+",
"OXX++OOOOOOXXXX                                                                                                  XX++OOOOOOXXXX+",
"OXX++OOOOOOXXXX                                                                                                  XX++OOOOOOXXXX+",
"OXX++OOXXXXXXXX                                                                                                  XX++XXXXOOXXXX+",
"OXX++OOXXXXXXXX                                                                                                  XX++XXXXOOXXXX+",
"OXX++OO....XXXX                                                                                                  XX++....OOXXXX+",
"OXX++OO....XXXX                                                                                                  XX++....OOXXXX+",
"OXX++OO....XXXX                                                                                                  XX++....OOXXXX+",
"OXX++OO....XXXX                                                                                                  XX++....OOXXXX+",
"OXX++OO....XXXX                                                                                                  XX++....OOXXXX+",
"OXX++OO....XXXX                                                                                                  XX++....OOXXXX+",
"OXX++OO....XXXX                                                                                                  XX++....OOXXXX+",
"OXX++OO....XXXX                                                                                                  XX++....OOXXXX+",
"OXX++OOOOOOXXXX                                                                                                  XX++OOOOOOXXXX+",
"OXX++OOOOOOXXXX                                                                                                  XX++OOOOOOXXXX+",
"OXXXXXXXXXXXXXX                                                                                                  XXXXXXXXXXXXXX+",
"OXXXXXXXXXXXXXX                                                                                                  XXXXXXXXXXXXXX+",
"OXXXXXXXXXXXXXX                                                                                                  XXXXXXXXXXXXXX+",
"OXXXXXXXXXXXXXX                                                                                                  XXXXXXXXXXXXXX+",
"XXXXXXXXXXXXXXX                                                                                                  XXXXXXXXXXXXXXX",
"XXXXXXXXXXXXXXX                                                                                                  XXXXXXXXXXXXXXX",
"+++++++++++XXXX                                                                                                  XXXX##+++++++++",
"+++++++++++XXXX                                                                                                  XXXX##+++++++++",
"OOOOOOOOOOOXXXX                                                                                                  XXXX++OOOOOOOOO",
"OOOOOOOOOOOXXXX                                                                                                  XXXX++OOOOOOOOO",
"OOOOO++ooOOXXXX                                                                                                  XXXX++OO++ooOOO",
"OOOOO++ooOOXXXX                                                                                                  XXXX++OO++ooOOO",
"OOOOOooXXOOXXXX                                                                                                  XXXX++OOooXXOOO",
"OOOOOooXXOOXXXX                                                                                                  XXXX++OOooXXOOO",
"OOOOOOOOOOOXXXX                                                                                                  XXXX++OOOOOOOOO",
"OOOOOOOOOOOXXXX                                                                                                  XXXX++OOOOOOOOO",
"OOOOOOOOOOOXXXX                                                                                                  XXXX++OOOOOOOOO",
"OOOOOOOOOOOXXXX                                                                                                  XXXX++OOOOOOOOO",
"OOOOOOOOOOOXXXX                                                                                                  XXXX++OOOOOOOOO",
"OOOOOOOOOOOXXXX                                                                                                  XXXX++OOOOOOOOO",
"OOOOOOOOOOOXXXX                                                                                                  XXXX++OOOOOOOOO",
"OOOOOOOOOOOXXXX                                                                                                  XXXX++OOOOOOOOO",
"OOOOOOOOOOOXXXX                                                                                                  XXXX++OOOOOOOOO",
"OOOOOOOOOOOXXXX                                                                                                  XXXX++OOOOOOOOO",
"OOOOOOOOOOOXXXX                                                                                                  XXXX++OOOOOOOOO",
"OOOOOOOOOOOXXXX                                                                                                  XXXX++OOOOOOOOO",
"OOOOO++ooOOXXXX                                                                                                  XXXX++OO++ooOOO",
"OOOOO++ooOOXXXX                                                                                                  XXXX++OO++ooOOO",
"OOOOOooXXOOXXXX                                                                                                  XXXX++OOooXXOOO",
"OOOOOooXXOOXXXX                                                                                                  XXXX++OOooXXOOO",
"OOOOOOOOOOOXXXX                                                                                                  XXXX++OOOOOOOOO",
"OOOOOOOOOOOXXXX                                                                                                  XXXX++OOOOOOOOO",
"XXXXXXXXXXXXXXX                                                                                                  XXXXXXXXXXXXXXX",
"XXXXXXXXXXXXXXX                                                                                                  XXXXXXXXXXXXXXX",
"+++++++++++XXXX                                                                                                  XXXX+++++++++++",
"+++++++++++XXXX                                                                                                  XXXX+++++++++++",
"OOOOOOOOOOOXXXX                                                                                                  XXXXOOOOOOOOOOO",
"OOOOOOOOOOOXXXX                                                                                                  XXXXOOOOOOOOOOO",
"OOOOOOOOOOOXXXX                                                                                                  XXXXOOOOOOOOOOO",
"OOOOOOOOOOOXXXX                                                                                                  XXXXOOOOOOOOOOO",
"OOOOOOOOOOOXXXX                                                                                                  XXXXOOOOOOOOOOO",
"OOOOOOOOOOOXXXX                                                                                                  XXXXOOOOOOOOOOO",
"OOOOOOOOOOOXXXX                                                                                                  XXXXOOOOOOOOOOO",
"OOOOOOOOOOOXXXX                                                                                                  XXXXOOOOOOOOOOO",
"OOOOOOOOOOOXXXX                                                                                                  XXXXOOOOOOOOOOO",
"OOOOOOOOOOOXXXX                                                                                                  XXXXOOOOOOOOOOO",
"OOOOOOOOOOOXXXX                                                                                                  XXXXOOOOOOOOOOO",
"OOOOOOOOOOOXXXX                                                                                                  XXXXOOOOOOOOOOO",
"XXXXXXXXXXXXXXX                                                                                                  XXXXXXXXXXXXXXX",
"XXXXXXXXXXXXXXX                                                                                                  XXXXXXXXXXXXXXX"
};
