/* XPM */
static char *dbee2b18a23e405be458a1e3388c7156gsRjrmXfBGDKy9PJ[] = {
/* columns rows colors chars-per-pixel */
"128 128 10 1 ",
"  c None",
". c #000008",
"X c gray20",
"o c #434343",
"O c #535353",
"+ c #777777",
"@ c #7FB717",
"# c #A3D337",
"$ c #C7EF63",
"% c gray53",
/* pixels */
"++++++++++++++++++++++++++++++++                                                                ++++++++++++++++++++++++++++++++",
"++++++++++++++++++++++++++++++++                                                                ++++++++++++++++++++++++++++++++",
"OOOOOOOOOOOOOOOOOOOOOOOOOOOOOOXX                                                                XXOOOOOOOOOOOOOOOOOOOOOOOOOOOOOO",
"OOOOOOOOOOOOOOOOOOOOOOOOOOOOOOXX                                                                XXOOOOOOOOOOOOOOOOOOOOOOOOOOOOOO",
"OOOOOOOOOOOOOOOOOOOOOOOOOOOOOOXX                                                                XXOOOOOOOOOOOOOOOOOOOOOOOOOOOOOO",
"OOOOOOOOOOOOOOOOOOOOOOOOOOOOOOXX                                                                XXOOOOOOOOOOOOOOOOOOOOOOOOOOOOOO",
"XXXXXXXXXXXXXXXXXXXXXXXXXXXXXXXX                                                                XXXXXXXXXXXXXXXXXXXXXXXXXXXXXXXX",
"XXXXXXXXXXXXXXXXXXXXXXXXXXXXXXXX                                                                XXXXXXXXXXXXXXXXXXXXXXXXXXXXXXXX",
"++++++++++++++++++++++++++++XXXX                                                                XXXX%%++++++++++++++++++++++++++",
"++++++++++++++++++++++++++++XXXX                                                                XXXX%%++++++++++++++++++++++++++",
"OOOOOOOOOOOOOOOOOOOOOOOOOOOOXXXX                                                                XXXX++OOOOOOOOOOOOOOOOOOOOOOOOOO",
"OOOOOOOOOOOOOOOOOOOOOOOOOOOOXXXX                                                                XXXX++OOOOOOOOOOOOOOOOOOOOOOOOOO",
"OOOOOOOOOOOOOOOOOOOOOO++ooOOXXXX                                                                XXXX++OO++ooOOOOOOOOOOOOOOOOOOOO",
"OOOOOOOOOOOOOOOOOOOOOO++ooOOXXXX                                                                XXXX++OO++ooOOOOOOOOOOOOOOOOOOOO",
"OOOOOOOOOOOOOOOOOOOOOOooXXOOXXXX                                                                XXXX++OOooXXOOOOOOOOOOOOOOOOOOOO",
"OOOOOOOOOOOOOOOOOOOOOOooXXOOXXXX                                                                XXXX++OOooXXOOOOOOOOOOOOOOOOOOOO",
"OOOOOOOOOOOOOOOOOOOOOOOOOOOOXXXX                                                                XXXX++OOOOOOOOOOOOOOOOOOOOOOOOOO",
"OOOOOOOOOOOOOOOOOOOOOOOOOOOOXXXX                                                                XXXX++OOOOOOOOOOOOOOOOOOOOOOOOOO",
"OOOOOOOOOOOOOOOOOOOOOOOOOOOOXXXX                                                                XXXX++OOOOOOOOOOOOOOOOOOOOOOOOOO",
"OOOOOOOOOOOOOOOOOOOOOOOOOOOOXXXX                                                                XXXX++OOOOOOOOOOOOOOOOOOOOOOOOOO",
"OOOOOOOOOOOOOOOOOOOOOOOOOOOOXXXX                                                                XXXX++OOOOOOOOOOOOOOOOOOOOOOOOOO",
"OOOOOOOOOOOOOOOOOOOOOOOOOOOOXXXX                                                                XXXX++OOOOOOOOOOOOOOOOOOOOOOOOOO",
"OOOOOOOOOOOOOOOOOOOOOOOOOOOOXXXX                                                                XXXX++OOOOOOOOOOOOOOOOOOOOOOOOOO",
"OOOOOOOOOOOOOOOOOOOOOOOOOOOOXXXX                                                                XXXX++OOOOOOOOOOOOOOOOOOOOOOOOOO",
"OOOOOOOOOOOOOOOOOOOOOOOOOOOOXXXX                                                                XXXX++OOOOOOOOOOOOOOOOOOOOOOOOOO",
"OOOOOOOOOOOOOOOOOOOOOOOOOOOOXXXX                                                                XXXX++OOOOOOOOOOOOOOOOOOOOOOOOOO",
"OOOOOOOOOOOOOOOOOOOOOOOOOOOOXXXX                                                                XXXX++OOOOOOOOOOOOOOOOOOOOOOOOOO",
"OOOOOOOOOOOOOOOOOOOOOOOOOOOOXXXX                                                                XXXX++OOOOOOOOOOOOOOOOOOOOOOOOOO",
"OOOOOOOOOOOOOOOOOOOOOOOOOOOOXXXX                                                                XXXX++OOOOOOOOOOOOOOOOOOOOOOOOOO",
"OOOOOOOOOOOOOOOOOOOOOOOOOOOOXXXX                                                                XXXX++OOOOOOOOOOOOOOOOOOOOOOOOOO",
"OOOOOOOOOOOOOOOOOOOOOOOOOOOOXXXX                                                                XXXX++OOOOOOOOOOOOOOOOOOOOOOOOOO",
"OOOOOOOOOOOOOOOOOOOOOOOOOOOOXXXX                                                                XXXX++OOOOOOOOOOOOOOOOOOOOOOOOOO",
"OOOOOOOOOOOOOOOOOOOOOOOOOOOOXXXX                                                                XXXX++OOOOOOOOOOOOOOOOOOOOOOOOOO",
"OOOOOOOOOOOOOOOOOOOOOOOOOOOOXXXX                                                                XXXX++OOOOOOOOOOOOOOOOOOOOOOOOOO",
"OOOOOOOOOOOOOOOOOOOOOOOOOOOOXXXX                                                                XXXX++OOOOOOOOOOOOOOOOOOOOOOOOOO",
"OOOOOOOOOOOOOOOOOOOOOOOOOOOOXXXX                                                                XXXX++OOOOOOOOOOOOOOOOOOOOOOOOOO",
"OOOOOOOOOOOOOOOOOOOOOOOOOOOOXXXX                                                                XXXX++OOOOOOOOOOOOOOOOOOOOOOOOOO",
"OOOOOOOOOOOOOOOOOOOOOOOOOOOOXXXX                                                                XXXX++OOOOOOOOOOOOOOOOOOOOOOOOOO",
"OOOOOOOOOOOOOOOOOOOOOOOOOOOOXXXX                                                                XXXX++OOOOOOOOOOOOOOOOOOOOOOOOOO",
"OOOOOOOOOOOOOOOOOOOOOOOOOOOOXXXX                                                                XXXX++OOOOOOOOOOOOOOOOOOOOOOOOOO",
"OOOOOOOOOOOOOOOOOOOOOOOOOOOOXXXX                                                                XXXX++OOOOOOOOOOOOOOOOOOOOOOOOOO",
"OOOOOOOOOOOOOOOOOOOOOOOOOOOOXXXX                                                                XXXX++OOOOOOOOOOOOOOOOOOOOOOOOOO",
"OOOOOOOOOOOOOOOOOOOOOOOOOOOOXXXX                                                                XXXX++OOOOOOOOOOOOOOOOOOOO++++++",
"OOOOOOOOOOOOOOOOOOOOOOOOOOOOXXXX                                                                XXXX++OOOOOOOOOOOOOOOOOOOO++++++",
"OOOOOOOOOOOOOOOOOOOOOO++ooOOXXXX                                                                XXXX++OO++ooOOOOOOOOOOOO++......",
"OOOOOOOOOOOOOOOOOOOOOO++ooOOXXXX                                                                XXXX++OO++ooOOOOOOOOOOOO++......",
"OOOOOOOOOOOOOOOOOOOOOOooXXOOXXXX                                                                XXXX++OOooXXOOOOOOOOOOOO++......",
"OOOOOOOOOOOOOOOOOOOOOOooXXOOXXXX                                                                XXXX++OOooXXOOOOOOOOOOOO++......",
"OOOOOOOOOOOOOOOOOOOOOOOOOOOOXXXX                                                                XXXX++OOOOOOOOOOOOOOOOOO++....$$",
"OOOOOOOOOOOOOOOOOOOOOOOOOOOOXXXX                                                                XXXX++OOOOOOOOOOOOOOOOOO++....$$",
"XXXXXXXXXXXXXXXXXXXXXXXXXXXXXXXX                                                                XXXXXXXXXXXXXXXXXXXXXXXX++....##",
"XXXXXXXXXXXXXXXXXXXXXXXXXXXXXXXX                                                                XXXXXXXXXXXXXXXXXXXXXXXX++....##",
"++++++++++++++++++XX%%++++++XXXX                                                                XX%%++++++XXXX%%++++++++++....##",
"++++++++++++++++++XX%%++++++XXXX                                                                XX%%++++++XXXX%%++++++++++....##",
"OOOOOOOOOOOOOOOOOOXX++OOOOOOXXXX                                                                XX++OOOOOOXXXX++OOOOOOOO++....##",
"OOOOOOOOOOOOOOOOOOXX++OOOOOOXXXX                                                                XX++OOOOOOXXXX++OOOOOOOO++....##",
"OOOOOOOOOOOO++ooOOXX++OOOOOOXXXX                                                                XX++OOOOOOXXXX++OO++ooOO++....@@",
"OOOOOOOOOOOO++ooOOXX++OOOOOOXXXX                                                                XX++OOOOOOXXXX++OO++ooOO++....@@",
"OOOOOOOOOOOOooXXOOXX++OOOOOOXXXX                                                                XX++OOOOOOXXXX++OOooXXOO++......",
"OOOOOOOOOOOOooXXOOXX++OOOOOOXXXX                                                                XX++OOOOOOXXXX++OOooXXOO++......",
"OOOOOOOOOOOOOOOOOOXX++@@@@@@XXXX                                                                XX++@@@@@@XXXX++OOOOOOOO++....++",
"OOOOOOOOOOOOOOOOOOXX++@@@@@@XXXX                                                                XX++@@@@@@XXXX++OOOOOOOO++....++",
"OOOOOOOOOOOOOOOOOOXX++@@@@@@XXXX                                                                XX++@@@@@@XXXX++OOOOOOOO++....++",
"OOOOOOOOOOOOOOOOOOXX++@@@@@@XXXX                                                                XX++@@@@@@XXXX++OOOOOOOO++....++",
"OOOOOOOOOOOOOOOOOOXX++OOOOOOXXXX                                                                XX++OOOOOOXXXX++OOOOOOOO++......",
"OOOOOOOOOOOOOOOOOOXX++OOOOOOXXXX                                                                XX++OOOOOOXXXX++OOOOOOOO++......",
"OOOOOOOOOOOOOOOOOOXX++OOXXXXXXXX                                                                XX++XXXXOOXXXX++OOOOOOOO++....++",
"OOOOOOOOOOOOOOOOOOXX++OOXXXXXXXX                                                                XX++XXXXOOXXXX++OOOOOOOO++....++",
"OOOOOOOOOOOOOOOOOOXX++OO....XXXX                                                                XX++....OOXXXX++OOOOOOOO++....++",
"OOOOOOOOOOOOOOOOOOXX++OO....XXXX                                                                XX++....OOXXXX++OOOOOOOO++....++",
"OOOOOOOOOOOOOOOOOOXX++OO....XXXX                                                                XX++....OOXXXX++OOOOOOOO++......",
"OOOOOOOOOOOOOOOOOOXX++OO....XXXX                                                                XX++....OOXXXX++OOOOOOOO++......",
"OOOOOOOOOOOOOOOOOOXX++OO....XXXX                                                                XX++....OOXXXX++OOOOOOOO++......",
"OOOOOOOOOOOOOOOOOOXX++OO....XXXX                                                                XX++....OOXXXX++OOOOOOOO++......",
"OOOOOOOOOOOOOOOOOOXX++OO....XXXX                                                                XX++....OOXXXX++OOOOOOOO++......",
"OOOOOOOOOOOOOOOOOOXX++OO....XXXX                                                                XX++....OOXXXX++OOOOOOOO++......",
"OOOOOOOOOOOO++ooOOXX++OOOOOOXXXX                                                                XX++OOOOOOXXXX++OO++ooOOOOXXXXXX",
"OOOOOOOOOOOO++ooOOXX++OOOOOOXXXX                                                                XX++OOOOOOXXXX++OO++ooOOOOXXXXXX",
"OOOOOOOOOOOOooXXOOXXXXXXXXXXXXXX                                                                XXXXXXXXXXXXXX++OOooXXOOOOOOOOOO",
"OOOOOOOOOOOOooXXOOXXXXXXXXXXXXXX                                                                XXXXXXXXXXXXXX++OOooXXOOOOOOOOOO",
"OOOOOOOOOOOOOOOOOOXXXXXXXXXXXXXX                                                                XXXXXXXXXXXXXX++OOOOOOOOOOOOOOOO",
"OOOOOOOOOOOOOOOOOOXXXXXXXXXXXXXX                                                                XXXXXXXXXXXXXX++OOOOOOOOOOOOOOOO",
"XXXXXXXXXXXXXXXXXXXXXXXXXXXXXXXX                                                                XXXXXXXXXXXXXXXXXXXXXXXXXXXXXXXX",
"XXXXXXXXXXXXXXXXXXXXXXXXXXXXXXXX                                                                XXXXXXXXXXXXXXXXXXXXXXXXXXXXXXXX",
"++++++++++++++++++++++++++++XXXX                                                                XXXX%%++++++++++++++++++++++++++",
"++++++++++++++++++++++++++++XXXX                                                                XXXX%%++++++++++++++++++++++++++",
"OOOOOOOOOOOOOOOOOOOOOOOOOOOOXXXX                                                                XXXX++OOOOOOOOOOOOOOOOOOOOOOOOOO",
"OOOOOOOOOOOOOOOOOOOOOOOOOOOOXXXX                                                                XXXX++OOOOOOOOOOOOOOOOOOOOOOOOOO",
"OOOOOOOOOOOOOOOOOOOOOO++ooOOXXXX                                                                XXXX++OO++ooOOOOOOOOOOOOOOOOOOOO",
"OOOOOOOOOOOOOOOOOOOOOO++ooOOXXXX                                                                XXXX++OO++ooOOOOOOOOOOOOOOOOOOOO",
"OOOOOOOOOOOOOOOOOOOOOOooXXOOXXXX                                                                XXXX++OOooXXOOOOOOOOOOOOOOOOOOOO",
"OOOOOOOOOOOOOOOOOOOOOOooXXOOXXXX                                                                XXXX++OOooXXOOOOOOOOOOOOOOOOOOOO",
"OOOOOOOOOOOOOOOOOOOOOOOOOOOOXXXX                                                                XXXX++OOOOOOOOOOOOOOOOOOOOOOOOOO",
"OOOOOOOOOOOOOOOOOOOOOOOOOOOOXXXX                                                                XXXX++OOOOOOOOOOOOOOOOOOOOOOOOOO",
"OOOOOOOOOOOOOOOOOOOOOOOOOOOOXXXX                                                                XXXX++OOOOOOOOOOOOOOOOOOOOOOOOOO",
"OOOOOOOOOOOOOOOOOOOOOOOOOOOOXXXX                                                                XXXX++OOOOOOOOOOOOOOOOOOOOOOOOOO",
"OOOOOOOOOOOOOOOOOOOOOOOOOOOOXXXX                                                                XXXX++OOOOOOOOOOOOOOOOOOOOOOOOOO",
"OOOOOOOOOOOOOOOOOOOOOOOOOOOOXXXX                                                                XXXX++OOOOOOOOOOOOOOOOOOOOOOOOOO",
"OOOOOOOOOOOOOOOOOOOOOOOOOOOOXXXX                                                                XXXX++OOOOOOOOOOOOOOOOOOOOOOOOOO",
"OOOOOOOOOOOOOOOOOOOOOOOOOOOOXXXX                                                                XXXX++OOOOOOOOOOOOOOOOOOOOOOOOOO",
"OOOOOOOOOOOOOOOOOOOOOOOOOOOOXXXX                                                                XXXX++OOOOOOOOOOOOOOOOOOOOOOOOOO",
"OOOOOOOOOOOOOOOOOOOOOOOOOOOOXXXX                                                                XXXX++OOOOOOOOOOOOOOOOOOOOOOOOOO",
"OOOOOOOOOOOOOOOOOOOOOOOOOOOOXXXX                                                                XXXX++OOOOOOOOOOOOOOOOOOOOOOOOOO",
"OOOOOOOOOOOOOOOOOOOOOOOOOOOOXXXX                                                                XXXX++OOOOOOOOOOOOOOOOOOOOOOOOOO",
"OOOOOOOOOOOOOOOOOOOOOO++ooOOXXXX                                                                XXXX++OO++ooOOOOOOOOOOOOOOOOOOOO",
"OOOOOOOOOOOOOOOOOOOOOO++ooOOXXXX                                                                XXXX++OO++ooOOOOOOOOOOOOOOOOOOOO",
"OOOOOOOOOOOOOOOOOOOOOOooXXOOXXXX                                                                XXXX++OOooXXOOOOOOOOOOOOOOOOOOOO",
"OOOOOOOOOOOOOOOOOOOOOOooXXOOXXXX                                                                XXXX++OOooXXOOOOOOOOOOOOOOOOOOOO",
"OOOOOOOOOOOOOOOOOOOOOOOOOOOOXXXX                                                                XXXX++OOOOOOOOOOOOOOOOOOOOOOOOOO",
"OOOOOOOOOOOOOOOOOOOOOOOOOOOOXXXX                                                                XXXX++OOOOOOOOOOOOOOOOOOOOOOOOOO",
"XXXXXXXXXXXXXXXXXXXXXXXXXXXXXXXX                                                                XXXXXXXXXXXXXXXXXXXXXXXXXXXXXXXX",
"XXXXXXXXXXXXXXXXXXXXXXXXXXXXXXXX                                                                XXXXXXXXXXXXXXXXXXXXXXXXXXXXXXXX",
"++++++++++++++++++++++++++++XXXX                                                                XXXX++++++++++++++++++++++++++++",
"++++++++++++++++++++++++++++XXXX                                                                XXXX++++++++++++++++++++++++++++",
"OOOOOOOOOOOOOOOOOOOOOOOOOOOOXXXX                                                                XXXXOOOOOOOOOOOOOOOOOOOOOOOOOOOO",
"OOOOOOOOOOOOOOOOOOOOOOOOOOOOXXXX                                                                XXXXOOOOOOOOOOOOOOOOOOOOOOOOOOOO",
"OOOOOOOOOOOOOOOOOOOOOOOOOOOOXXXX                                                                XXXXOOOOOOOOOOOOOOOOOOOOOOOOOOOO",
"OOOOOOOOOOOOOOOOOOOOOOOOOOOOXXXX                                                                XXXXOOOOOOOOOOOOOOOOOOOOOOOOOOOO",
"OOOOOOOOOOOOOOOOOOOOOOOOOOOOXXXX                                                                XXXXOOOOOOOOOOOOOOOOOOOOOOOOOOOO",
"OOOOOOOOOOOOOOOOOOOOOOOOOOOOXXXX                                                                XXXXOOOOOOOOOOOOOOOOOOOOOOOOOOOO",
"OOOOOOOOOOOOOOOOOOOOOOOOOOOOXXXX                                                                XXXXOOOOOOOOOOOOOOOOOOOOOOOOOOOO",
"OOOOOOOOOOOOOOOOOOOOOOOOOOOOXXXX                                                                XXXXOOOOOOOOOOOOOOOOOOOOOOOOOOOO",
"OOOOOOOOOOOOOOOOOOOOOOOOOOOOXXXX                                                                XXXXOOOOOOOOOOOOOOOOOOOOOOOOOOOO",
"OOOOOOOOOOOOOOOOOOOOOOOOOOOOXXXX                                                                XXXXOOOOOOOOOOOOOOOOOOOOOOOOOOOO",
"OOOOOOOOOOOOOOOOOOOOOOOOOOOOXXXX                                                                XXXXOOOOOOOOOOOOOOOOOOOOOOOOOOOO",
"OOOOOOOOOOOOOOOOOOOOOOOOOOOOXXXX                                                                XXXXOOOOOOOOOOOOOOOOOOOOOOOOOOOO",
"XXXXXXXXXXXXXXXXXXXXXXXXXXXXXXXX                                                                XXXXXXXXXXXXXXXXXXXXXXXXXXXXXXXX",
"XXXXXXXXXXXXXXXXXXXXXXXXXXXXXXXX                                                                XXXXXXXXXXXXXXXXXXXXXXXXXXXXXXXX"
};
