/* XPM */
static char *_e2b3d19a26b47038240246e540286adJzPXP5DMDkazGkgZ[] = {
/* columns rows colors chars-per-pixel */
"128 128 8 1 ",
"  c None",
". c #000008",
"X c gray20",
"o c #434343",
"O c #535353",
"+ c #777777",
"@ c #7FB717",
"# c gray53",
/* pixels */
"++++++++++++++++++++                                                                                        ++++++++++++++++++++",
"++++++++++++++++++++                                                                                        ++++++++++++++++++++",
"OOOOOOOOOOOOOOOOOOXX                                                                                        XXOOOOOOOOOOOOOOOOOO",
"OOOOOOOOOOOOOOOOOOXX                                                                                        XXOOOOOOOOOOOOOOOOOO",
"OOOOOOOOOOOOOOOOOOXX                                                                                        XXOOOOOOOOOOOOOOOOOO",
"OOOOOOOOOOOOOOOOOOXX                                                                                        XXOOOOOOOOOOOOOOOOOO",
"XXXXXXXXXXXXXXXXXXXX                                                                                        XXXXXXXXXXXXXXXXXXXX",
"XXXXXXXXXXXXXXXXXXXX                                                                                        XXXXXXXXXXXXXXXXXXXX",
"++++++++++++++++XXXX                                                                                        XXXX##++++++++++++++",
"++++++++++++++++XXXX                                                                                        XXXX##++++++++++++++",
"OOOOOOOOOOOOOOOOXXXX                                                                                        XXXX++OOOOOOOOOOOOOO",
"OOOOOOOOOOOOOOOOXXXX                                                                                        XXXX++OOOOOOOOOOOOOO",
"OOOOOOOOOO++ooOOXXXX                                                                                        XXXX++OO++ooOOOOOOOO",
"OOOOOOOOOO++ooOOXXXX                                                                                        XXXX++OO++ooOOOOOOOO",
"OOOOOOOOOOooXXOOXXXX                                                                                        XXXX++OOooXXOOOOOOOO",
"OOOOOOOOOOooXXOOXXXX                                                                                        XXXX++OOooXXOOOOOOOO",
"OOOOOOOOOOOOOOOOXXXX                                                                                        XXXX++OOOOOOOOOOOOOO",
"OOOOOOOOOOOOOOOOXXXX                                                                                        XXXX++OOOOOOOOOOOOOO",
"OOOOOOOOOOOOOOOOXXXX                                                                                        XXXX++OOOOOOOOOOOOOO",
"OOOOOOOOOOOOOOOOXXXX                                                                                        XXXX++OOOOOOOOOOOOOO",
"OOOOOOOOOOOOOOOOXXXX                                                                                        XXXX++OOOOOOOOOOOOOO",
"OOOOOOOOOOOOOOOOXXXX                                                                                        XXXX++OOOOOOOOOOOOOO",
"OOOOOOOOOOOOOOOOXXXX                                                                                        XXXX++OOOOOOOOOOOOOO",
"OOOOOOOOOOOOOOOOXXXX                                                                                        XXXX++OOOOOOOOOOOOOO",
"OOOOOOOOOOOOOOOOXXXX                                                                                        XXXX++OOOOOOOOOOOOOO",
"OOOOOOOOOOOOOOOOXXXX                                                                                        XXXX++OOOOOOOOOOOOOO",
"OOOOOOOOOOOOOOOOXXXX                                                                                        XXXX++OOOOOOOOOOOOOO",
"OOOOOOOOOOOOOOOOXXXX                                                                                        XXXX++OOOOOOOOOOOOOO",
"OOOOOOOOOOOOOOOOXXXX                                                                                        XXXX++OOOOOOOOOOOOOO",
"OOOOOOOOOOOOOOOOXXXX                                                                                        XXXX++OOOOOOOOOOOOOO",
"OOOOOOOOOOOOOOOOXXXX                                                                                        XXXX++OOOOOOOOOOOOOO",
"OOOOOOOOOOOOOOOOXXXX                                                                                        XXXX++OOOOOOOOOOOOOO",
"OOOOOOOOOOOOOOOOXXXX                                                                                        XXXX++OOOOOOOOOOOOOO",
"OOOOOOOOOOOOOOOOXXXX                                                                                        XXXX++OOOOOOOOOOOOOO",
"OOOOOOOOOOOOOOOOXXXX                                                                                        XXXX++OOOOOOOOOOOOOO",
"OOOOOOOOOOOOOOOOXXXX                                                                                        XXXX++OOOOOOOOOOOOOO",
"OOOOOOOOOOOOOOOOXXXX                                                                                        XXXX++OOOOOOOOOOOOOO",
"OOOOOOOOOOOOOOOOXXXX                                                                                        XXXX++OOOOOOOOOOOOOO",
"OOOOOOOOOOOOOOOOXXXX                                                                                        XXXX++OOOOOOOOOOOOOO",
"OOOOOOOOOOOOOOOOXXXX                                                                                        XXXX++OOOOOOOOOOOOOO",
"OOOOOOOOOOOOOOOOXXXX                                                                                        XXXX++OOOOOOOOOOOOOO",
"OOOOOOOOOOOOOOOOXXXX                                                                                        XXXX++OOOOOOOOOOOOOO",
"OOOOOOOOOOOOOOOOXXXX                                                                                        XXXX++OOOOOOOOOOOOOO",
"OOOOOOOOOOOOOOOOXXXX                                                                                        XXXX++OOOOOOOOOOOOOO",
"OOOOOOOOOO++ooOOXXXX                                                                                        XXXX++OO++ooOOOOOOOO",
"OOOOOOOOOO++ooOOXXXX                                                                                        XXXX++OO++ooOOOOOOOO",
"OOOOOOOOOOooXXOOXXXX                                                                                        XXXX++OOooXXOOOOOOOO",
"OOOOOOOOOOooXXOOXXXX                                                                                        XXXX++OOooXXOOOOOOOO",
"OOOOOOOOOOOOOOOOXXXX                                                                                        XXXX++OOOOOOOOOOOOOO",
"OOOOOOOOOOOOOOOOXXXX                                                                                        XXXX++OOOOOOOOOOOOOO",
"XXXXXXXXXXXXXXXXXXXX                                                                                        XXXXXXXXXXXXXXXXXXXX",
"XXXXXXXXXXXXXXXXXXXX                                                                                        XXXXXXXXXXXXXXXXXXXX",
"++++++XX##++++++XXXX                                                                                        XX##++++++XXXX##++++",
"++++++XX##++++++XXXX                                                                                        XX##++++++XXXX##++++",
"OOOOOOXX++OOOOOOXXXX                                                                                        XX++OOOOOOXXXX++OOOO",
"OOOOOOXX++OOOOOOXXXX                                                                                        XX++OOOOOOXXXX++OOOO",
"++ooOOXX++OOOOOOXXXX                                                                                        XX++OOOOOOXXXX++OO++",
"++ooOOXX++OOOOOOXXXX                                                                                        XX++OOOOOOXXXX++OO++",
"ooXXOOXX++OOOOOOXXXX                                                                                        XX++OOOOOOXXXX++OOoo",
"ooXXOOXX++OOOOOOXXXX                                                                                        XX++OOOOOOXXXX++OOoo",
"OOOOOOXX++@@@@@@XXXX                                                                                        XX++@@@@@@XXXX++OOOO",
"OOOOOOXX++@@@@@@XXXX                                                                                        XX++@@@@@@XXXX++OOOO",
"OOOOOOXX++@@@@@@XXXX                                                                                        XX++@@@@@@XXXX++OOOO",
"OOOOOOXX++@@@@@@XXXX                                                                                        XX++@@@@@@XXXX++OOOO",
"OOOOOOXX++OOOOOOXXXX                                                                                        XX++OOOOOOXXXX++OOOO",
"OOOOOOXX++OOOOOOXXXX                                                                                        XX++OOOOOOXXXX++OOOO",
"OOOOOOXX++OOXXXXXXXX                                                                                        XX++XXXXOOXXXX++OOOO",
"OOOOOOXX++OOXXXXXXXX                                                                                        XX++XXXXOOXXXX++OOOO",
"OOOOOOXX++OO....XXXX                                                                                        XX++....OOXXXX++OOOO",
"OOOOOOXX++OO....XXXX                                                                                        XX++....OOXXXX++OOOO",
"OOOOOOXX++OO....XXXX                                                                                        XX++....OOXXXX++OOOO",
"OOOOOOXX++OO....XXXX                                                                                        XX++....OOXXXX++OOOO",
"OOOOOOXX++OO....XXXX                                                                                        XX++....OOXXXX++OOOO",
"OOOOOOXX++OO....XXXX                                                                                        XX++....OOXXXX++OOOO",
"OOOOOOXX++OO....XXXX                                                                                        XX++....OOXXXX++OOOO",
"OOOOOOXX++OO....XXXX                                                                                        XX++....OOXXXX++OOOO",
"++ooOOXX++OOOOOOXXXX                                                                                        XX++OOOOOOXXXX++OO++",
"++ooOOXX++OOOOOOXXXX                                                                                        XX++OOOOOOXXXX++OO++",
"ooXXOOXXXXXXXXXXXXXX                                                                                        XXXXXXXXXXXXXX++OOoo",
"ooXXOOXXXXXXXXXXXXXX                                                                                        XXXXXXXXXXXXXX++OOoo",
"OOOOOOXXXXXXXXXXXXXX                                                                                        XXXXXXXXXXXXXX++OOOO",
"OOOOOOXXXXXXXXXXXXXX                                                                                        XXXXXXXXXXXXXX++OOOO",
"XXXXXXXXXXXXXXXXXXXX                                                                                        XXXXXXXXXXXXXXXXXXXX",
"XXXXXXXXXXXXXXXXXXXX                                                                                        XXXXXXXXXXXXXXXXXXXX",
"++++++++++++++++XXXX                                                                                        XXXX##++++++++++++++",
"++++++++++++++++XXXX                                                                                        XXXX##++++++++++++++",
"OOOOOOOOOOOOOOOOXXXX                                                                                        XXXX++OOOOOOOOOOOOOO",
"OOOOOOOOOOOOOOOOXXXX                                                                                        XXXX++OOOOOOOOOOOOOO",
"OOOOOOOOOO++ooOOXXXX                                                                                        XXXX++OO++ooOOOOOOOO",
"OOOOOOOOOO++ooOOXXXX                                                                                        XXXX++OO++ooOOOOOOOO",
"OOOOOOOOOOooXXOOXXXX                                                                                        XXXX++OOooXXOOOOOOOO",
"OOOOOOOOOOooXXOOXXXX                                                                                        XXXX++OOooXXOOOOOOOO",
"OOOOOOOOOOOOOOOOXXXX                                                                                        XXXX++OOOOOOOOOOOOOO",
"OOOOOOOOOOOOOOOOXXXX                                                                                        XXXX++OOOOOOOOOOOOOO",
"OOOOOOOOOOOOOOOOXXXX                                                                                        XXXX++OOOOOOOOOOOOOO",
"OOOOOOOOOOOOOOOOXXXX                                                                                        XXXX++OOOOOOOOOOOOOO",
"OOOOOOOOOOOOOOOOXXXX                                                                                        XXXX++OOOOOOOOOOOOOO",
"OOOOOOOOOOOOOOOOXXXX                                                                                        XXXX++OOOOOOOOOOOOOO",
"OOOOOOOOOOOOOOOOXXXX                                                                                        XXXX++OOOOOOOOOOOOOO",
"OOOOOOOOOOOOOOOOXXXX                                                                                        XXXX++OOOOOOOOOOOOOO",
"OOOOOOOOOOOOOOOOXXXX                                                                                        XXXX++OOOOOOOOOOOOOO",
"OOOOOOOOOOOOOOOOXXXX                                                                                        XXXX++OOOOOOOOOOOOOO",
"OOOOOOOOOOOOOOOOXXXX                                                                                        XXXX++OOOOOOOOOOOOOO",
"OOOOOOOOOOOOOOOOXXXX                                                                                        XXXX++OOOOOOOOOOOOOO",
"OOOOOOOOOO++ooOOXXXX                                                                                        XXXX++OO++ooOOOOOOOO",
"OOOOOOOOOO++ooOOXXXX                                                                                        XXXX++OO++ooOOOOOOOO",
"OOOOOOOOOOooXXOOXXXX                                                                                        XXXX++OOooXXOOOOOOOO",
"OOOOOOOOOOooXXOOXXXX                                                                                        XXXX++OOooXXOOOOOOOO",
"OOOOOOOOOOOOOOOOXXXX                                                                                        XXXX++OOOOOOOOOOOOOO",
"OOOOOOOOOOOOOOOOXXXX                                                                                        XXXX++OOOOOOOOOOOOOO",
"XXXXXXXXXXXXXXXXXXXX                                                                                        XXXXXXXXXXXXXXXXXXXX",
"XXXXXXXXXXXXXXXXXXXX                                                                                        XXXXXXXXXXXXXXXXXXXX",
"++++++++++++++++XXXX                                                                                        XXXX++++++++++++++++",
"++++++++++++++++XXXX                                                                                        XXXX++++++++++++++++",
"OOOOOOOOOOOOOOOOXXXX                                                                                        XXXXOOOOOOOOOOOOOOOO",
"OOOOOOOOOOOOOOOOXXXX                                                                                        XXXXOOOOOOOOOOOOOOOO",
"OOOOOOOOOOOOOOOOXXXX                                                                                        XXXXOOOOOOOOOOOOOOOO",
"OOOOOOOOOOOOOOOOXXXX                                                                                        XXXXOOOOOOOOOOOOOOOO",
"OOOOOOOOOOOOOOOOXXXX                                                                                        XXXXOOOOOOOOOOOOOOOO",
"OOOOOOOOOOOOOOOOXXXX                                                                                        XXXXOOOOOOOOOOOOOOOO",
"OOOOOOOOOOOOOOOOXXXX                                                                                        XXXXOOOOOOOOOOOOOOOO",
"OOOOOOOOOOOOOOOOXXXX                                                                                        XXXXOOOOOOOOOOOOOOOO",
"OOOOOOOOOOOOOOOOXXXX                                                                                        XXXXOOOOOOOOOOOOOOOO",
"OOOOOOOOOOOOOOOOXXXX                                                                                        XXXXOOOOOOOOOOOOOOOO",
"OOOOOOOOOOOOOOOOXXXX                                                                                        XXXXOOOOOOOOOOOOOOOO",
"OOOOOOOOOOOOOOOOXXXX                                                                                        XXXXOOOOOOOOOOOOOOOO",
"XXXXXXXXXXXXXXXXXXXX                                                                                        XXXXXXXXXXXXXXXXXXXX",
"XXXXXXXXXXXXXXXXXXXX                                                                                        XXXXXXXXXXXXXXXXXXXX"
};
