/* XPM */
static char *_66f0a26cd134fa3c9601b0522100d6dUWEtUtzDEGQgOWXy[] = {
/* columns rows colors chars-per-pixel */
"128 128 8 1 ",
"  c None",
". c #000008",
"X c gray20",
"o c #434343",
"O c #535353",
"+ c #777777",
"@ c #7FB717",
"# c gray53",
/* pixels */
"++++++++++++++++++++++++                                                                                ++++++++++++++++++++++++",
"++++++++++++++++++++++++                                                                                ++++++++++++++++++++++++",
"OOOOOOOOOOOOOOOOOOOOOOXX                                                                                XXOOOOOOOOOOOOOOOOOOOOOO",
"OOOOOOOOOOOOOOOOOOOOOOXX                                                                                XXOOOOOOOOOOOOOOOOOOOOOO",
"OOOOOOOOOOOOOOOOOOOOOOXX                                                                                XXOOOOOOOOOOOOOOOOOOOOOO",
"OOOOOOOOOOOOOOOOOOOOOOXX                                                                                XXOOOOOOOOOOOOOOOOOOOOOO",
"XXXXXXXXXXXXXXXXXXXXXXXX                                                                                XXXXXXXXXXXXXXXXXXXXXXXX",
"XXXXXXXXXXXXXXXXXXXXXXXX                                                                                XXXXXXXXXXXXXXXXXXXXXXXX",
"++++++++++++++++++++XXXX                                                                                XXXX##++++++++++++++++++",
"++++++++++++++++++++XXXX                                                                                XXXX##++++++++++++++++++",
"OOOOOOOOOOOOOOOOOOOOXXXX                                                                                XXXX++OOOOOOOOOOOOOOOOOO",
"OOOOOOOOOOOOOOOOOOOOXXXX                                                                                XXXX++OOOOOOOOOOOOOOOOOO",
"OOOOOOOOOOOOOO++ooOOXXXX                                                                                XXXX++OO++ooOOOOOOOOOOOO",
"OOOOOOOOOOOOOO++ooOOXXXX                                                                                XXXX++OO++ooOOOOOOOOOOOO",
"OOOOOOOOOOOOOOooXXOOXXXX                                                                                XXXX++OOooXXOOOOOOOOOOOO",
"OOOOOOOOOOOOOOooXXOOXXXX                                                                                XXXX++OOooXXOOOOOOOOOOOO",
"OOOOOOOOOOOOOOOOOOOOXXXX                                                                                XXXX++OOOOOOOOOOOOOOOOOO",
"OOOOOOOOOOOOOOOOOOOOXXXX                                                                                XXXX++OOOOOOOOOOOOOOOOOO",
"OOOOOOOOOOOOOOOOOOOOXXXX                                                                                XXXX++OOOOOOOOOOOOOOOOOO",
"OOOOOOOOOOOOOOOOOOOOXXXX                                                                                XXXX++OOOOOOOOOOOOOOOOOO",
"OOOOOOOOOOOOOOOOOOOOXXXX                                                                                XXXX++OOOOOOOOOOOOOOOOOO",
"OOOOOOOOOOOOOOOOOOOOXXXX                                                                                XXXX++OOOOOOOOOOOOOOOOOO",
"OOOOOOOOOOOOOOOOOOOOXXXX                                                                                XXXX++OOOOOOOOOOOOOOOOOO",
"OOOOOOOOOOOOOOOOOOOOXXXX                                                                                XXXX++OOOOOOOOOOOOOOOOOO",
"OOOOOOOOOOOOOOOOOOOOXXXX                                                                                XXXX++OOOOOOOOOOOOOOOOOO",
"OOOOOOOOOOOOOOOOOOOOXXXX                                                                                XXXX++OOOOOOOOOOOOOOOOOO",
"OOOOOOOOOOOOOOOOOOOOXXXX                                                                                XXXX++OOOOOOOOOOOOOOOOOO",
"OOOOOOOOOOOOOOOOOOOOXXXX                                                                                XXXX++OOOOOOOOOOOOOOOOOO",
"OOOOOOOOOOOOOOOOOOOOXXXX                                                                                XXXX++OOOOOOOOOOOOOOOOOO",
"OOOOOOOOOOOOOOOOOOOOXXXX                                                                                XXXX++OOOOOOOOOOOOOOOOOO",
"OOOOOOOOOOOOOOOOOOOOXXXX                                                                                XXXX++OOOOOOOOOOOOOOOOOO",
"OOOOOOOOOOOOOOOOOOOOXXXX                                                                                XXXX++OOOOOOOOOOOOOOOOOO",
"OOOOOOOOOOOOOOOOOOOOXXXX                                                                                XXXX++OOOOOOOOOOOOOOOOOO",
"OOOOOOOOOOOOOOOOOOOOXXXX                                                                                XXXX++OOOOOOOOOOOOOOOOOO",
"OOOOOOOOOOOOOOOOOOOOXXXX                                                                                XXXX++OOOOOOOOOOOOOOOOOO",
"OOOOOOOOOOOOOOOOOOOOXXXX                                                                                XXXX++OOOOOOOOOOOOOOOOOO",
"OOOOOOOOOOOOOOOOOOOOXXXX                                                                                XXXX++OOOOOOOOOOOOOOOOOO",
"OOOOOOOOOOOOOOOOOOOOXXXX                                                                                XXXX++OOOOOOOOOOOOOOOOOO",
"OOOOOOOOOOOOOOOOOOOOXXXX                                                                                XXXX++OOOOOOOOOOOOOOOOOO",
"OOOOOOOOOOOOOOOOOOOOXXXX                                                                                XXXX++OOOOOOOOOOOOOOOOOO",
"OOOOOOOOOOOOOOOOOOOOXXXX                                                                                XXXX++OOOOOOOOOOOOOOOOOO",
"OOOOOOOOOOOOOOOOOOOOXXXX                                                                                XXXX++OOOOOOOOOOOOOOOOOO",
"OOOOOOOOOOOOOOOOOOOOXXXX                                                                                XXXX++OOOOOOOOOOOOOOOOOO",
"OOOOOOOOOOOOOOOOOOOOXXXX                                                                                XXXX++OOOOOOOOOOOOOOOOOO",
"OOOOOOOOOOOOOO++ooOOXXXX                                                                                XXXX++OO++ooOOOOOOOOOOOO",
"OOOOOOOOOOOOOO++ooOOXXXX                                                                                XXXX++OO++ooOOOOOOOOOOOO",
"OOOOOOOOOOOOOOooXXOOXXXX                                                                                XXXX++OOooXXOOOOOOOOOOOO",
"OOOOOOOOOOOOOOooXXOOXXXX                                                                                XXXX++OOooXXOOOOOOOOOOOO",
"OOOOOOOOOOOOOOOOOOOOXXXX                                                                                XXXX++OOOOOOOOOOOOOOOOOO",
"OOOOOOOOOOOOOOOOOOOOXXXX                                                                                XXXX++OOOOOOOOOOOOOOOOOO",
"XXXXXXXXXXXXXXXXXXXXXXXX                                                                                XXXXXXXXXXXXXXXXXXXXXXXX",
"XXXXXXXXXXXXXXXXXXXXXXXX                                                                                XXXXXXXXXXXXXXXXXXXXXXXX",
"++++++++++XX##++++++XXXX                                                                                XX##++++++XXXX##++++++++",
"++++++++++XX##++++++XXXX                                                                                XX##++++++XXXX##++++++++",
"OOOOOOOOOOXX++OOOOOOXXXX                                                                                XX++OOOOOOXXXX++OOOOOOOO",
"OOOOOOOOOOXX++OOOOOOXXXX                                                                                XX++OOOOOOXXXX++OOOOOOOO",
"OOOO++ooOOXX++OOOOOOXXXX                                                                                XX++OOOOOOXXXX++OO++ooOO",
"OOOO++ooOOXX++OOOOOOXXXX                                                                                XX++OOOOOOXXXX++OO++ooOO",
"OOOOooXXOOXX++OOOOOOXXXX                                                                                XX++OOOOOOXXXX++OOooXXOO",
"OOOOooXXOOXX++OOOOOOXXXX                                                                                XX++OOOOOOXXXX++OOooXXOO",
"OOOOOOOOOOXX++@@@@@@XXXX                                                                                XX++@@@@@@XXXX++OOOOOOOO",
"OOOOOOOOOOXX++@@@@@@XXXX                                                                                XX++@@@@@@XXXX++OOOOOOOO",
"OOOOOOOOOOXX++@@@@@@XXXX                                                                                XX++@@@@@@XXXX++OOOOOOOO",
"OOOOOOOOOOXX++@@@@@@XXXX                                                                                XX++@@@@@@XXXX++OOOOOOOO",
"OOOOOOOOOOXX++OOOOOOXXXX                                                                                XX++OOOOOOXXXX++OOOOOOOO",
"OOOOOOOOOOXX++OOOOOOXXXX                                                                                XX++OOOOOOXXXX++OOOOOOOO",
"OOOOOOOOOOXX++OOXXXXXXXX                                                                                XX++XXXXOOXXXX++OOOOOOOO",
"OOOOOOOOOOXX++OOXXXXXXXX                                                                                XX++XXXXOOXXXX++OOOOOOOO",
"OOOOOOOOOOXX++OO....XXXX                                                                                XX++....OOXXXX++OOOOOOOO",
"OOOOOOOOOOXX++OO....XXXX                                                                                XX++....OOXXXX++OOOOOOOO",
"OOOOOOOOOOXX++OO....XXXX                                                                                XX++....OOXXXX++OOOOOOOO",
"OOOOOOOOOOXX++OO....XXXX                                                                                XX++....OOXXXX++OOOOOOOO",
"OOOOOOOOOOXX++OO....XXXX                                                                                XX++....OOXXXX++OOOOOOOO",
"OOOOOOOOOOXX++OO....XXXX                                                                                XX++....OOXXXX++OOOOOOOO",
"OOOOOOOOOOXX++OO....XXXX                                                                                XX++....OOXXXX++OOOOOOOO",
"OOOOOOOOOOXX++OO....XXXX                                                                                XX++....OOXXXX++OOOOOOOO",
"OOOO++ooOOXX++OOOOOOXXXX                                                                                XX++OOOOOOXXXX++OO++ooOO",
"OOOO++ooOOXX++OOOOOOXXXX                                                                                XX++OOOOOOXXXX++OO++ooOO",
"OOOOooXXOOXXXXXXXXXXXXXX                                                                                XXXXXXXXXXXXXX++OOooXXOO",
"OOOOooXXOOXXXXXXXXXXXXXX                                                                                XXXXXXXXXXXXXX++OOooXXOO",
"OOOOOOOOOOXXXXXXXXXXXXXX                                                                                XXXXXXXXXXXXXX++OOOOOOOO",
"OOOOOOOOOOXXXXXXXXXXXXXX                                                                                XXXXXXXXXXXXXX++OOOOOOOO",
"XXXXXXXXXXXXXXXXXXXXXXXX                                                                                XXXXXXXXXXXXXXXXXXXXXXXX",
"XXXXXXXXXXXXXXXXXXXXXXXX                                                                                XXXXXXXXXXXXXXXXXXXXXXXX",
"++++++++++++++++++++XXXX                                                                                XXXX##++++++++++++++++++",
"++++++++++++++++++++XXXX                                                                                XXXX##++++++++++++++++++",
"OOOOOOOOOOOOOOOOOOOOXXXX                                                                                XXXX++OOOOOOOOOOOOOOOOOO",
"OOOOOOOOOOOOOOOOOOOOXXXX                                                                                XXXX++OOOOOOOOOOOOOOOOOO",
"OOOOOOOOOOOOOO++ooOOXXXX                                                                                XXXX++OO++ooOOOOOOOOOOOO",
"OOOOOOOOOOOOOO++ooOOXXXX                                                                                XXXX++OO++ooOOOOOOOOOOOO",
"OOOOOOOOOOOOOOooXXOOXXXX                                                                                XXXX++OOooXXOOOOOOOOOOOO",
"OOOOOOOOOOOOOOooXXOOXXXX                                                                                XXXX++OOooXXOOOOOOOOOOOO",
"OOOOOOOOOOOOOOOOOOOOXXXX                                                                                XXXX++OOOOOOOOOOOOOOOOOO",
"OOOOOOOOOOOOOOOOOOOOXXXX                                                                                XXXX++OOOOOOOOOOOOOOOOOO",
"OOOOOOOOOOOOOOOOOOOOXXXX                                                                                XXXX++OOOOOOOOOOOOOOOOOO",
"OOOOOOOOOOOOOOOOOOOOXXXX                                                                                XXXX++OOOOOOOOOOOOOOOOOO",
"OOOOOOOOOOOOOOOOOOOOXXXX                                                                                XXXX++OOOOOOOOOOOOOOOOOO",
"OOOOOOOOOOOOOOOOOOOOXXXX                                                                                XXXX++OOOOOOOOOOOOOOOOOO",
"OOOOOOOOOOOOOOOOOOOOXXXX                                                                                XXXX++OOOOOOOOOOOOOOOOOO",
"OOOOOOOOOOOOOOOOOOOOXXXX                                                                                XXXX++OOOOOOOOOOOOOOOOOO",
"OOOOOOOOOOOOOOOOOOOOXXXX                                                                                XXXX++OOOOOOOOOOOOOOOOOO",
"OOOOOOOOOOOOOOOOOOOOXXXX                                                                                XXXX++OOOOOOOOOOOOOOOOOO",
"OOOOOOOOOOOOOOOOOOOOXXXX                                                                                XXXX++OOOOOOOOOOOOOOOOOO",
"OOOOOOOOOOOOOOOOOOOOXXXX                                                                                XXXX++OOOOOOOOOOOOOOOOOO",
"OOOOOOOOOOOOOO++ooOOXXXX                                                                                XXXX++OO++ooOOOOOOOOOOOO",
"OOOOOOOOOOOOOO++ooOOXXXX                                                                                XXXX++OO++ooOOOOOOOOOOOO",
"OOOOOOOOOOOOOOooXXOOXXXX                                                                                XXXX++OOooXXOOOOOOOOOOOO",
"OOOOOOOOOOOOOOooXXOOXXXX                                                                                XXXX++OOooXXOOOOOOOOOOOO",
"OOOOOOOOOOOOOOOOOOOOXXXX                                                                                XXXX++OOOOOOOOOOOOOOOOOO",
"OOOOOOOOOOOOOOOOOOOOXXXX                                                                                XXXX++OOOOOOOOOOOOOOOOOO",
"XXXXXXXXXXXXXXXXXXXXXXXX                                                                                XXXXXXXXXXXXXXXXXXXXXXXX",
"XXXXXXXXXXXXXXXXXXXXXXXX                                                                                XXXXXXXXXXXXXXXXXXXXXXXX",
"++++++++++++++++++++XXXX                                                                                XXXX++++++++++++++++++++",
"++++++++++++++++++++XXXX                                                                                XXXX++++++++++++++++++++",
"OOOOOOOOOOOOOOOOOOOOXXXX                                                                                XXXXOOOOOOOOOOOOOOOOOOOO",
"OOOOOOOOOOOOOOOOOOOOXXXX                                                                                XXXXOOOOOOOOOOOOOOOOOOOO",
"OOOOOOOOOOOOOOOOOOOOXXXX                                                                                XXXXOOOOOOOOOOOOOOOOOOOO",
"OOOOOOOOOOOOOOOOOOOOXXXX                                                                                XXXXOOOOOOOOOOOOOOOOOOOO",
"OOOOOOOOOOOOOOOOOOOOXXXX                                                                                XXXXOOOOOOOOOOOOOOOOOOOO",
"OOOOOOOOOOOOOOOOOOOOXXXX                                                                                XXXXOOOOOOOOOOOOOOOOOOOO",
"OOOOOOOOOOOOOOOOOOOOXXXX                                                                                XXXXOOOOOOOOOOOOOOOOOOOO",
"OOOOOOOOOOOOOOOOOOOOXXXX                                                                                XXXXOOOOOOOOOOOOOOOOOOOO",
"OOOOOOOOOOOOOOOOOOOOXXXX                                                                                XXXXOOOOOOOOOOOOOOOOOOOO",
"OOOOOOOOOOOOOOOOOOOOXXXX                                                                                XXXXOOOOOOOOOOOOOOOOOOOO",
"OOOOOOOOOOOOOOOOOOOOXXXX                                                                                XXXXOOOOOOOOOOOOOOOOOOOO",
"OOOOOOOOOOOOOOOOOOOOXXXX                                                                                XXXXOOOOOOOOOOOOOOOOOOOO",
"XXXXXXXXXXXXXXXXXXXXXXXX                                                                                XXXXXXXXXXXXXXXXXXXXXXXX",
"XXXXXXXXXXXXXXXXXXXXXXXX                                                                                XXXXXXXXXXXXXXXXXXXXXXXX"
};
