/* XPM */
static char *eb1067150e2a4f7590c867e857838be8fdOyyQfohmJjnL13[] = {
/* columns rows colors chars-per-pixel */
"128 128 8 1 ",
"  c None",
". c #000008",
"X c gray20",
"o c #434343",
"O c #535353",
"+ c #777777",
"@ c #7FB717",
"# c gray53",
/* pixels */
"+++++++++++++++++++++++++++                                                                          +++++++++++++++++++++++++++",
"+++++++++++++++++++++++++++                                                                          +++++++++++++++++++++++++++",
"OOOOOOOOOOOOOOOOOOOOOOOOOXX                                                                          XXOOOOOOOOOOOOOOOOOOOOOOOOO",
"OOOOOOOOOOOOOOOOOOOOOOOOOXX                                                                          XXOOOOOOOOOOOOOOOOOOOOOOOOO",
"OOOOOOOOOOOOOOOOOOOOOOOOOXX                                                                          XXOOOOOOOOOOOOOOOOOOOOOOOOO",
"OOOOOOOOOOOOOOOOOOOOOOOOOXX                                                                          XXOOOOOOOOOOOOOOOOOOOOOOOOO",
"XXXXXXXXXXXXXXXXXXXXXXXXXXX                                                                          XXXXXXXXXXXXXXXXXXXXXXXXXXX",
"XXXXXXXXXXXXXXXXXXXXXXXXXXX                                                                          XXXXXXXXXXXXXXXXXXXXXXXXXXX",
"+++++++++++++++++++++++XXXX                                                                          XXXX##+++++++++++++++++++++",
"+++++++++++++++++++++++XXXX                                                                          XXXX##+++++++++++++++++++++",
"OOOOOOOOOOOOOOOOOOOOOOOXXXX                                                                          XXXX++OOOOOOOOOOOOOOOOOOOOO",
"OOOOOOOOOOOOOOOOOOOOOOOXXXX                                                                          XXXX++OOOOOOOOOOOOOOOOOOOOO",
"OOOOOOOOOOOOOOOOO++ooOOXXXX                                                                          XXXX++OO++ooOOOOOOOOOOOOOOO",
"OOOOOOOOOOOOOOOOO++ooOOXXXX                                                                          XXXX++OO++ooOOOOOOOOOOOOOOO",
"OOOOOOOOOOOOOOOOOooXXOOXXXX                                                                          XXXX++OOooXXOOOOOOOOOOOOOOO",
"OOOOOOOOOOOOOOOOOooXXOOXXXX                                                                          XXXX++OOooXXOOOOOOOOOOOOOOO",
"OOOOOOOOOOOOOOOOOOOOOOOXXXX                                                                          XXXX++OOOOOOOOOOOOOOOOOOOOO",
"OOOOOOOOOOOOOOOOOOOOOOOXXXX                                                                          XXXX++OOOOOOOOOOOOOOOOOOOOO",
"OOOOOOOOOOOOOOOOOOOOOOOXXXX                                                                          XXXX++OOOOOOOOOOOOOOOOOOOOO",
"OOOOOOOOOOOOOOOOOOOOOOOXXXX                                                                          XXXX++OOOOOOOOOOOOOOOOOOOOO",
"OOOOOOOOOOOOOOOOOOOOOOOXXXX                                                                          XXXX++OOOOOOOOOOOOOOOOOOOOO",
"OOOOOOOOOOOOOOOOOOOOOOOXXXX                                                                          XXXX++OOOOOOOOOOOOOOOOOOOOO",
"OOOOOOOOOOOOOOOOOOOOOOOXXXX                                                                          XXXX++OOOOOOOOOOOOOOOOOOOOO",
"OOOOOOOOOOOOOOOOOOOOOOOXXXX                                                                          XXXX++OOOOOOOOOOOOOOOOOOOOO",
"OOOOOOOOOOOOOOOOOOOOOOOXXXX                                                                          XXXX++OOOOOOOOOOOOOOOOOOOOO",
"OOOOOOOOOOOOOOOOOOOOOOOXXXX                                                                          XXXX++OOOOOOOOOOOOOOOOOOOOO",
"OOOOOOOOOOOOOOOOOOOOOOOXXXX                                                                          XXXX++OOOOOOOOOOOOOOOOOOOOO",
"OOOOOOOOOOOOOOOOOOOOOOOXXXX                                                                          XXXX++OOOOOOOOOOOOOOOOOOOOO",
"OOOOOOOOOOOOOOOOOOOOOOOXXXX                                                                          XXXX++OOOOOOOOOOOOOOOOOOOOO",
"OOOOOOOOOOOOOOOOOOOOOOOXXXX                                                                          XXXX++OOOOOOOOOOOOOOOOOOOOO",
"OOOOOOOOOOOOOOOOOOOOOOOXXXX                                                                          XXXX++OOOOOOOOOOOOOOOOOOOOO",
"OOOOOOOOOOOOOOOOOOOOOOOXXXX                                                                          XXXX++OOOOOOOOOOOOOOOOOOOOO",
"OOOOOOOOOOOOOOOOOOOOOOOXXXX                                                                          XXXX++OOOOOOOOOOOOOOOOOOOOO",
"OOOOOOOOOOOOOOOOOOOOOOOXXXX                                                                          XXXX++OOOOOOOOOOOOOOOOOOOOO",
"OOOOOOOOOOOOOOOOOOOOOOOXXXX                                                                          XXXX++OOOOOOOOOOOOOOOOOOOOO",
"OOOOOOOOOOOOOOOOOOOOOOOXXXX                                                                          XXXX++OOOOOOOOOOOOOOOOOOOOO",
"OOOOOOOOOOOOOOOOOOOOOOOXXXX                                                                          XXXX++OOOOOOOOOOOOOOOOOOOOO",
"OOOOOOOOOOOOOOOOOOOOOOOXXXX                                                                          XXXX++OOOOOOOOOOOOOOOOOOOOO",
"OOOOOOOOOOOOOOOOOOOOOOOXXXX                                                                          XXXX++OOOOOOOOOOOOOOOOOOOOO",
"OOOOOOOOOOOOOOOOOOOOOOOXXXX                                                                          XXXX++OOOOOOOOOOOOOOOOOOOOO",
"OOOOOOOOOOOOOOOOOOOOOOOXXXX                                                                          XXXX++OOOOOOOOOOOOOOOOOOOOO",
"OOOOOOOOOOOOOOOOOOOOOOOXXXX                                                                          XXXX++OOOOOOOOOOOOOOOOOOOOO",
"OOOOOOOOOOOOOOOOOOOOOOOXXXX                                                                          XXXX++OOOOOOOOOOOOOOOOOOOO+",
"OOOOOOOOOOOOOOOOOOOOOOOXXXX                                                                          XXXX++OOOOOOOOOOOOOOOOOOOO+",
"OOOOOOOOOOOOOOOOO++ooOOXXXX                                                                          XXXX++OO++ooOOOOOOOOOOOO++.",
"OOOOOOOOOOOOOOOOO++ooOOXXXX                                                                          XXXX++OO++ooOOOOOOOOOOOO++.",
"OOOOOOOOOOOOOOOOOooXXOOXXXX                                                                          XXXX++OOooXXOOOOOOOOOOOO++.",
"OOOOOOOOOOOOOOOOOooXXOOXXXX                                                                          XXXX++OOooXXOOOOOOOOOOOO++.",
"OOOOOOOOOOOOOOOOOOOOOOOXXXX                                                                          XXXX++OOOOOOOOOOOOOOOOOO++.",
"OOOOOOOOOOOOOOOOOOOOOOOXXXX                                                                          XXXX++OOOOOOOOOOOOOOOOOO++.",
"XXXXXXXXXXXXXXXXXXXXXXXXXXX                                                                          XXXXXXXXXXXXXXXXXXXXXXXX++.",
"XXXXXXXXXXXXXXXXXXXXXXXXXXX                                                                          XXXXXXXXXXXXXXXXXXXXXXXX++.",
"+++++++++++++XX##++++++XXXX                                                                          XX##++++++XXXX##++++++++++.",
"+++++++++++++XX##++++++XXXX                                                                          XX##++++++XXXX##++++++++++.",
"OOOOOOOOOOOOOXX++OOOOOOXXXX                                                                          XX++OOOOOOXXXX++OOOOOOOO++.",
"OOOOOOOOOOOOOXX++OOOOOOXXXX                                                                          XX++OOOOOOXXXX++OOOOOOOO++.",
"OOOOOOO++ooOOXX++OOOOOOXXXX                                                                          XX++OOOOOOXXXX++OO++ooOO++.",
"OOOOOOO++ooOOXX++OOOOOOXXXX                                                                          XX++OOOOOOXXXX++OO++ooOO++.",
"OOOOOOOooXXOOXX++OOOOOOXXXX                                                                          XX++OOOOOOXXXX++OOooXXOO++.",
"OOOOOOOooXXOOXX++OOOOOOXXXX                                                                          XX++OOOOOOXXXX++OOooXXOO++.",
"OOOOOOOOOOOOOXX++@@@@@@XXXX                                                                          XX++@@@@@@XXXX++OOOOOOOO++.",
"OOOOOOOOOOOOOXX++@@@@@@XXXX                                                                          XX++@@@@@@XXXX++OOOOOOOO++.",
"OOOOOOOOOOOOOXX++@@@@@@XXXX                                                                          XX++@@@@@@XXXX++OOOOOOOO++.",
"OOOOOOOOOOOOOXX++@@@@@@XXXX                                                                          XX++@@@@@@XXXX++OOOOOOOO++.",
"OOOOOOOOOOOOOXX++OOOOOOXXXX                                                                          XX++OOOOOOXXXX++OOOOOOOO++.",
"OOOOOOOOOOOOOXX++OOOOOOXXXX                                                                          XX++OOOOOOXXXX++OOOOOOOO++.",
"OOOOOOOOOOOOOXX++OOXXXXXXXX                                                                          XX++XXXXOOXXXX++OOOOOOOO++.",
"OOOOOOOOOOOOOXX++OOXXXXXXXX                                                                          XX++XXXXOOXXXX++OOOOOOOO++.",
"OOOOOOOOOOOOOXX++OO....XXXX                                                                          XX++....OOXXXX++OOOOOOOO++.",
"OOOOOOOOOOOOOXX++OO....XXXX                                                                          XX++....OOXXXX++OOOOOOOO++.",
"OOOOOOOOOOOOOXX++OO....XXXX                                                                          XX++....OOXXXX++OOOOOOOO++.",
"OOOOOOOOOOOOOXX++OO....XXXX                                                                          XX++....OOXXXX++OOOOOOOO++.",
"OOOOOOOOOOOOOXX++OO....XXXX                                                                          XX++....OOXXXX++OOOOOOOO++.",
"OOOOOOOOOOOOOXX++OO....XXXX                                                                          XX++....OOXXXX++OOOOOOOO++.",
"OOOOOOOOOOOOOXX++OO....XXXX                                                                          XX++....OOXXXX++OOOOOOOO++.",
"OOOOOOOOOOOOOXX++OO....XXXX                                                                          XX++....OOXXXX++OOOOOOOO++.",
"OOOOOOO++ooOOXX++OOOOOOXXXX                                                                          XX++OOOOOOXXXX++OO++ooOOOOX",
"OOOOOOO++ooOOXX++OOOOOOXXXX                                                                          XX++OOOOOOXXXX++OO++ooOOOOX",
"OOOOOOOooXXOOXXXXXXXXXXXXXX                                                                          XXXXXXXXXXXXXX++OOooXXOOOOO",
"OOOOOOOooXXOOXXXXXXXXXXXXXX                                                                          XXXXXXXXXXXXXX++OOooXXOOOOO",
"OOOOOOOOOOOOOXXXXXXXXXXXXXX                                                                          XXXXXXXXXXXXXX++OOOOOOOOOOO",
"OOOOOOOOOOOOOXXXXXXXXXXXXXX                                                                          XXXXXXXXXXXXXX++OOOOOOOOOOO",
"XXXXXXXXXXXXXXXXXXXXXXXXXXX                                                                          XXXXXXXXXXXXXXXXXXXXXXXXXXX",
"XXXXXXXXXXXXXXXXXXXXXXXXXXX                                                                          XXXXXXXXXXXXXXXXXXXXXXXXXXX",
"+++++++++++++++++++++++XXXX                                                                          XXXX##+++++++++++++++++++++",
"+++++++++++++++++++++++XXXX                                                                          XXXX##+++++++++++++++++++++",
"OOOOOOOOOOOOOOOOOOOOOOOXXXX                                                                          XXXX++OOOOOOOOOOOOOOOOOOOOO",
"OOOOOOOOOOOOOOOOOOOOOOOXXXX                                                                          XXXX++OOOOOOOOOOOOOOOOOOOOO",
"OOOOOOOOOOOOOOOOO++ooOOXXXX                                                                          XXXX++OO++ooOOOOOOOOOOOOOOO",
"OOOOOOOOOOOOOOOOO++ooOOXXXX                                                                          XXXX++OO++ooOOOOOOOOOOOOOOO",
"OOOOOOOOOOOOOOOOOooXXOOXXXX                                                                          XXXX++OOooXXOOOOOOOOOOOOOOO",
"OOOOOOOOOOOOOOOOOooXXOOXXXX                                                                          XXXX++OOooXXOOOOOOOOOOOOOOO",
"OOOOOOOOOOOOOOOOOOOOOOOXXXX                                                                          XXXX++OOOOOOOOOOOOOOOOOOOOO",
"OOOOOOOOOOOOOOOOOOOOOOOXXXX                                                                          XXXX++OOOOOOOOOOOOOOOOOOOOO",
"OOOOOOOOOOOOOOOOOOOOOOOXXXX                                                                          XXXX++OOOOOOOOOOOOOOOOOOOOO",
"OOOOOOOOOOOOOOOOOOOOOOOXXXX                                                                          XXXX++OOOOOOOOOOOOOOOOOOOOO",
"OOOOOOOOOOOOOOOOOOOOOOOXXXX                                                                          XXXX++OOOOOOOOOOOOOOOOOOOOO",
"OOOOOOOOOOOOOOOOOOOOOOOXXXX                                                                          XXXX++OOOOOOOOOOOOOOOOOOOOO",
"OOOOOOOOOOOOOOOOOOOOOOOXXXX                                                                          XXXX++OOOOOOOOOOOOOOOOOOOOO",
"OOOOOOOOOOOOOOOOOOOOOOOXXXX                                                                          XXXX++OOOOOOOOOOOOOOOOOOOOO",
"OOOOOOOOOOOOOOOOOOOOOOOXXXX                                                                          XXXX++OOOOOOOOOOOOOOOOOOOOO",
"OOOOOOOOOOOOOOOOOOOOOOOXXXX                                                                          XXXX++OOOOOOOOOOOOOOOOOOOOO",
"OOOOOOOOOOOOOOOOOOOOOOOXXXX                                                                          XXXX++OOOOOOOOOOOOOOOOOOOOO",
"OOOOOOOOOOOOOOOOOOOOOOOXXXX                                                                          XXXX++OOOOOOOOOOOOOOOOOOOOO",
"OOOOOOOOOOOOOOOOO++ooOOXXXX                                                                          XXXX++OO++ooOOOOOOOOOOOOOOO",
"OOOOOOOOOOOOOOOOO++ooOOXXXX                                                                          XXXX++OO++ooOOOOOOOOOOOOOOO",
"OOOOOOOOOOOOOOOOOooXXOOXXXX                                                                          XXXX++OOooXXOOOOOOOOOOOOOOO",
"OOOOOOOOOOOOOOOOOooXXOOXXXX                                                                          XXXX++OOooXXOOOOOOOOOOOOOOO",
"OOOOOOOOOOOOOOOOOOOOOOOXXXX                                                                          XXXX++OOOOOOOOOOOOOOOOOOOOO",
"OOOOOOOOOOOOOOOOOOOOOOOXXXX                                                                          XXXX++OOOOOOOOOOOOOOOOOOOOO",
"XXXXXXXXXXXXXXXXXXXXXXXXXXX                                                                          XXXXXXXXXXXXXXXXXXXXXXXXXXX",
"XXXXXXXXXXXXXXXXXXXXXXXXXXX                                                                          XXXXXXXXXXXXXXXXXXXXXXXXXXX",
"+++++++++++++++++++++++XXXX                                                                          XXXX+++++++++++++++++++++++",
"+++++++++++++++++++++++XXXX                                                                          XXXX+++++++++++++++++++++++",
"OOOOOOOOOOOOOOOOOOOOOOOXXXX                                                                          XXXXOOOOOOOOOOOOOOOOOOOOOOO",
"OOOOOOOOOOOOOOOOOOOOOOOXXXX                                                                          XXXXOOOOOOOOOOOOOOOOOOOOOOO",
"OOOOOOOOOOOOOOOOOOOOOOOXXXX                                                                          XXXXOOOOOOOOOOOOOOOOOOOOOOO",
"OOOOOOOOOOOOOOOOOOOOOOOXXXX                                                                          XXXXOOOOOOOOOOOOOOOOOOOOOOO",
"OOOOOOOOOOOOOOOOOOOOOOOXXXX                                                                          XXXXOOOOOOOOOOOOOOOOOOOOOOO",
"OOOOOOOOOOOOOOOOOOOOOOOXXXX                                                                          XXXXOOOOOOOOOOOOOOOOOOOOOOO",
"OOOOOOOOOOOOOOOOOOOOOOOXXXX                                                                          XXXXOOOOOOOOOOOOOOOOOOOOOOO",
"OOOOOOOOOOOOOOOOOOOOOOOXXXX                                                                          XXXXOOOOOOOOOOOOOOOOOOOOOOO",
"OOOOOOOOOOOOOOOOOOOOOOOXXXX                                                                          XXXXOOOOOOOOOOOOOOOOOOOOOOO",
"OOOOOOOOOOOOOOOOOOOOOOOXXXX                                                                          XXXXOOOOOOOOOOOOOOOOOOOOOOO",
"OOOOOOOOOOOOOOOOOOOOOOOXXXX                                                                          XXXXOOOOOOOOOOOOOOOOOOOOOOO",
"OOOOOOOOOOOOOOOOOOOOOOOXXXX                                                                          XXXXOOOOOOOOOOOOOOOOOOOOOOO",
"XXXXXXXXXXXXXXXXXXXXXXXXXXX                                                                          XXXXXXXXXXXXXXXXXXXXXXXXXXX",
"XXXXXXXXXXXXXXXXXXXXXXXXXXX                                                                          XXXXXXXXXXXXXXXXXXXXXXXXXXX"
};
