/* XPM */
static char *_6bfab29f76a4bf1b21b42cd92b2a6ecZwAP15t2zr2rlGH0[] = {
/* columns rows colors chars-per-pixel */
"128 128 5 1 ",
"  c None",
". c gray20",
"X c #535353",
"o c #777777",
"O c gray53",
/* pixels */
"oooo                                                                                                                        oooo",
"oooo                                                                                                                        oooo",
"XX..                                                                                                                        ..XX",
"XX..                                                                                                                        ..XX",
"XX..                                                                                                                        ..XX",
"XX..                                                                                                                        ..XX",
"....                                                                                                                        ....",
"....                                                                                                                        ....",
"....                                                                                                                        ....",
"....                                                                                                                        ....",
"....                                                                                                                        ....",
"....                                                                                                                        ....",
"....                                                                                                                        ....",
"....                                                                                                                        ....",
"....                                                                                                                        ....",
"....                                                                                                                        ....",
"....                                                                                                                        ....",
"....                                                                                                                        ....",
"....                                                                                                                        ....",
"....                                                                                                                        ....",
"....                                                                                                                        ....",
"....                                                                                                                        ....",
"....                                                                                                                        ....",
"....                                                                                                                        ....",
"....                                                                                                                        ....",
"....                                                                                                                        ....",
"....                                                                                                                        ....",
"....                                                                                                                        ....",
"....                                                                                                                        ....",
"....                                                                                                                        ....",
"....                                                                                                                        ....",
"....                                                                                                                        ....",
"....                                                                                                                        ....",
"....                                                                                                                        ....",
"....                                                                                                                        ....",
"....                                                                                                                        ....",
"....                                                                                                                        ....",
"....                                                                                                                        ....",
"....                                                                                                                        ....",
"....                                                                                                                        ....",
"....                                                                                                                        ....",
"....                                                                                                                        ....",
"....                                                                                                                        ....",
"....                                                                                                                        ....",
"....                                                                                                                        ....",
"....                                                                                                                        ....",
"....                                                                                                                        ....",
"....                                                                                                                        ....",
"....                                                                                                                        ....",
"....                                                                                                                        ....",
"....                                                                                                                        ....",
"....                                                                                                                        ....",
"....                                                                                                                        ..OO",
"....                                                                                                                        ..OO",
"....                                                                                                                        ..oo",
"....                                                                                                                        ..oo",
"....                                                                                                                        ..oo",
"....                                                                                                                        ..oo",
"....                                                                                                                        ..oo",
"....                                                                                                                        ..oo",
"....                                                                                                                        ..oo",
"....                                                                                                                        ..oo",
"....                                                                                                                        ..oo",
"....                                                                                                                        ..oo",
"....                                                                                                                        ..oo",
"....                                                                                                                        ..oo",
"....                                                                                                                        ..oo",
"....                                                                                                                        ..oo",
"....                                                                                                                        ..oo",
"....                                                                                                                        ..oo",
"....                                                                                                                        ..oo",
"....                                                                                                                        ..oo",
"....                                                                                                                        ..oo",
"....                                                                                                                        ..oo",
"....                                                                                                                        ..oo",
"....                                                                                                                        ..oo",
"....                                                                                                                        ..oo",
"....                                                                                                                        ..oo",
"....                                                                                                                        ....",
"....                                                                                                                        ....",
"....                                                                                                                        ....",
"....                                                                                                                        ....",
"....                                                                                                                        ....",
"....                                                                                                                        ....",
"....                                                                                                                        ....",
"....                                                                                                                        ....",
"....                                                                                                                        ....",
"....                                                                                                                        ....",
"....                                                                                                                        ....",
"....                                                                                                                        ....",
"....                                                                                                                        ....",
"....                                                                                                                        ....",
"....                                                                                                                        ....",
"....                                                                                                                        ....",
"....                                                                                                                        ....",
"....                                                                                                                        ....",
"....                                                                                                                        ....",
"....                                                                                                                        ....",
"....                                                                                                                        ....",
"....                                                                                                                        ....",
"....                                                                                                                        ....",
"....                                                                                                                        ....",
"....                                                                                                                        ....",
"....                                                                                                                        ....",
"....                                                                                                                        ....",
"....                                                                                                                        ....",
"....                                                                                                                        ....",
"....                                                                                                                        ....",
"....                                                                                                                        ....",
"....                                                                                                                        ....",
"....                                                                                                                        ....",
"....                                                                                                                        ....",
"....                                                                                                                        ....",
"....                                                                                                                        ....",
"....                                                                                                                        ....",
"....                                                                                                                        ....",
"....                                                                                                                        ....",
"....                                                                                                                        ....",
"....                                                                                                                        ....",
"....                                                                                                                        ....",
"....                                                                                                                        ....",
"....                                                                                                                        ....",
"....                                                                                                                        ....",
"....                                                                                                                        ....",
"....                                                                                                                        ....",
"....                                                                                                                        ....",
"....                                                                                                                        ....",
"....                                                                                                                        ...."
};
