/* XPM */
static char *_ad79c5d8841402498f4547af6f6a3f5OLLssnAcuMXUQRW4[] = {
/* columns rows colors chars-per-pixel */
"128 128 8 1 ",
"  c None",
". c #000008",
"X c gray20",
"o c #434343",
"O c #535353",
"+ c #777777",
"@ c #7FB717",
"# c gray53",
/* pixels */
"+++++++                                                                                                                  +++++++",
"+++++++                                                                                                                  +++++++",
"OOOOOXX                                                                                                                  XXOOOOO",
"OOOOOXX                                                                                                                  XXOOOOO",
"OOOOOXX                                                                                                                  XXOOOOO",
"OOOOOXX                                                                                                                  XXOOOOO",
"XXXXXXX                                                                                                                  XXXXXXX",
"XXXXXXX                                                                                                                  XXXXXXX",
"+++XXXX                                                                                                                  XXXX##+",
"+++XXXX                                                                                                                  XXXX##+",
"OOOXXXX                                                                                                                  XXXX++O",
"OOOXXXX                                                                                                                  XXXX++O",
"oOOXXXX                                                                                                                  XXXX++O",
"oOOXXXX                                                                                                                  XXXX++O",
"XOOXXXX                                                                                                                  XXXX++O",
"XOOXXXX                                                                                                                  XXXX++O",
"OOOXXXX                                                                                                                  XXXX++O",
"OOOXXXX                                                                                                                  XXXX++O",
"OOOXXXX                                                                                                                  XXXX++O",
"OOOXXXX                                                                                                                  XXXX++O",
"OOOXXXX                                                                                                                  XXXX++O",
"OOOXXXX                                                                                                                  XXXX++O",
"OOOXXXX                                                                                                                  XXXX++O",
"OOOXXXX                                                                                                                  XXXX++O",
"OOOXXXX                                                                                                                  XXXX++O",
"OOOXXXX                                                                                                                  XXXX++O",
"OOOXXXX                                                                                                                  XXXX++O",
"OOOXXXX                                                                                                                  XXXX++O",
"OOOXXXX                                                                                                                  XXXX++O",
"OOOXXXX                                                                                                                  XXXX++O",
"OOOXXXX                                                                                                                  XXXX++O",
"OOOXXXX                                                                                                                  XXXX++O",
"OOOXXXX                                                                                                                  XXXX++O",
"OOOXXXX                                                                                                                  XXXX++O",
"OOOXXXX                                                                                                                  XXXX++O",
"OOOXXXX                                                                                                                  XXXX++O",
"OOOXXXX                                                                                                                  XXXX++O",
"OOOXXXX                                                                                                                  XXXX++O",
"OOOXXXX                                                                                                                  XXXX++O",
"OOOXXXX                                                                                                                  XXXX++O",
"OOOXXXX                                                                                                                  XXXX++O",
"OOOXXXX                                                                                                                  XXXX++O",
"OOOXXXX                                                                                                                  XXXX++O",
"OOOXXXX                                                                                                                  XXXX++O",
"oOOXXXX                                                                                                                  XXXX++O",
"oOOXXXX                                                                                                                  XXXX++O",
"XOOXXXX                                                                                                                  XXXX++O",
"XOOXXXX                                                                                                                  XXXX++O",
"OOOXXXX                                                                                                                  XXXX++O",
"OOOXXXX                                                                                                                  XXXX++O",
"XXXXXXX                                                                                                                  XXXXXXX",
"XXXXXXX                                                                                                                  XXXXXXX",
"+++XXXX                                                                                                                  XX##+++",
"+++XXXX                                                                                                                  XX##+++",
"OOOXXXX                                                                                                                  XX++OOO",
"OOOXXXX                                                                                                                  XX++OOO",
"OOOXXXX                                                                                                                  XX++OOO",
"OOOXXXX                                                                                                                  XX++OOO",
"OOOXXXX                                                                                                                  XX++OOO",
"OOOXXXX                                                                                                                  XX++OOO",
"@@@XXXX                                                                                                                  XX++@@@",
"@@@XXXX                                                                                                                  XX++@@@",
"@@@XXXX                                                                                                                  XX++@@@",
"@@@XXXX                                                                                                                  XX++@@@",
"OOOXXXX                                                                                                                  XX++OOO",
"OOOXXXX                                                                                                                  XX++OOO",
"XXXXXXX                                                                                                                  XX++XXX",
"XXXXXXX                                                                                                                  XX++XXX",
"...XXXX                                                                                                                  XX++...",
"...XXXX                                                                                                                  XX++...",
"...XXXX                                                                                                                  XX++...",
"...XXXX                                                                                                                  XX++...",
"...XXXX                                                                                                                  XX++...",
"...XXXX                                                                                                                  XX++...",
"...XXXX                                                                                                                  XX++...",
"...XXXX                                                                                                                  XX++...",
"OOOXXXX                                                                                                                  XX++OOO",
"OOOXXXX                                                                                                                  XX++OOO",
"XXXXXXX                                                                                                                  XXXXXXX",
"XXXXXXX                                                                                                                  XXXXXXX",
"XXXXXXX                                                                                                                  XXXXXXX",
"XXXXXXX                                                                                                                  XXXXXXX",
"XXXXXXX                                                                                                                  XXXXXXX",
"XXXXXXX                                                                                                                  XXXXXXX",
"+++XXXX                                                                                                                  XXXX##+",
"+++XXXX                                                                                                                  XXXX##+",
"OOOXXXX                                                                                                                  XXXX++O",
"OOOXXXX                                                                                                                  XXXX++O",
"oOOXXXX                                                                                                                  XXXX++O",
"oOOXXXX                                                                                                                  XXXX++O",
"XOOXXXX                                                                                                                  XXXX++O",
"XOOXXXX                                                                                                                  XXXX++O",
"OOOXXXX                                                                                                                  XXXX++O",
"OOOXXXX                                                                                                                  XXXX++O",
"OOOXXXX                                                                                                                  XXXX++O",
"OOOXXXX                                                                                                                  XXXX++O",
"OOOXXXX                                                                                                                  XXXX++O",
"OOOXXXX                                                                                                                  XXXX++O",
"OOOXXXX                                                                                                                  XXXX++O",
"OOOXXXX                                                                                                                  XXXX++O",
"OOOXXXX                                                                                                                  XXXX++O",
"OOOXXXX                                                                                                                  XXXX++O",
"OOOXXXX                                                                                                                  XXXX++O",
"OOOXXXX                                                                                                                  XXXX++O",
"oOOXXXX                                                                                                                  XXXX++O",
"oOOXXXX                                                                                                                  XXXX++O",
"XOOXXXX                                                                                                                  XXXX++O",
"XOOXXXX                                                                                                                  XXXX++O",
"OOOXXXX                                                                                                                  XXXX++O",
"OOOXXXX                                                                                                                  XXXX++O",
"XXXXXXX                                                                                                                  XXXXXXX",
"XXXXXXX                                                                                                                  XXXXXXX",
"+++XXXX                                                                                                                  XXXX+++",
"+++XXXX                                                                                                                  XXXX+++",
"OOOXXXX                                                                                                                  XXXXOOO",
"OOOXXXX                                                                                                                  XXXXOOO",
"OOOXXXX                                                                                                                  XXXXOOO",
"OOOXXXX                                                                                                                  XXXXOOO",
"OOOXXXX                                                                                                                  XXXXOOO",
"OOOXXXX                                                                                                                  XXXXOOO",
"OOOXXXX                                                                                                                  XXXXOOO",
"OOOXXXX                                                                                                                  XXXXOOO",
"OOOXXXX                                                                                                                  XXXXOOO",
"OOOXXXX                                                                                                                  XXXXOOO",
"OOOXXXX                                                                                                                  XXXXOOO",
"OOOXXXX                                                                                                                  XXXXOOO",
"XXXXXXX                                                                                                                  XXXXXXX",
"XXXXXXX                                                                                                                  XXXXXXX"
};
