/* XPM */
static char *_5749598c4fc4cecd8b6ad7459b1b370AM31cU6UGgZYOo2S[] = {
/* columns rows colors chars-per-pixel */
"128 128 5 1 ",
"  c None",
". c gray20",
"X c #535353",
"o c #777777",
"O c gray53",
/* pixels */
"ooo                                                                                                                          ooo",
"ooo                                                                                                                          ooo",
"X..                                                                                                                          ..X",
"X..                                                                                                                          ..X",
"X..                                                                                                                          ..X",
"X..                                                                                                                          ..X",
"...                                                                                                                          ...",
"...                                                                                                                          ...",
"...                                                                                                                          ...",
"...                                                                                                                          ...",
"...                                                                                                                          ...",
"...                                                                                                                          ...",
"...                                                                                                                          ...",
"...                                                                                                                          ...",
"...                                                                                                                          ...",
"...                                                                                                                          ...",
"...                                                                                                                          ...",
"...                                                                                                                          ...",
"...                                                                                                                          ...",
"...                                                                                                                          ...",
"...                                                                                                                          ...",
"...                                                                                                                          ...",
"...                                                                                                                          ...",
"...                                                                                                                          ...",
"...                                                                                                                          ...",
"...                                                                                                                          ...",
"...                                                                                                                          ...",
"...                                                                                                                          ...",
"...                                                                                                                          ...",
"...                                                                                                                          ...",
"...                                                                                                                          ...",
"...                                                                                                                          ...",
"...                                                                                                                          ...",
"...                                                                                                                          ...",
"...                                                                                                                          ...",
"...                                                                                                                          ...",
"...                                                                                                                          ...",
"...                                                                                                                          ...",
"...                                                                                                                          ...",
"...                                                                                                                          ...",
"...                                                                                                                          ...",
"...                                                                                                                          ...",
"...                                                                                                                          ...",
"...                                                                                                                          ...",
"...                                                                                                                          ...",
"...                                                                                                                          ...",
"...                                                                                                                          ...",
"...                                                                                                                          ...",
"...                                                                                                                          ...",
"...                                                                                                                          ...",
"...                                                                                                                          ...",
"...                                                                                                                          ...",
"...                                                                                                                          ..O",
"...                                                                                                                          ..O",
"...                                                                                                                          ..o",
"...                                                                                                                          ..o",
"...                                                                                                                          ..o",
"...                                                                                                                          ..o",
"...                                                                                                                          ..o",
"...                                                                                                                          ..o",
"...                                                                                                                          ..o",
"...                                                                                                                          ..o",
"...                                                                                                                          ..o",
"...                                                                                                                          ..o",
"...                                                                                                                          ..o",
"...                                                                                                                          ..o",
"...                                                                                                                          ..o",
"...                                                                                                                          ..o",
"...                                                                                                                          ..o",
"...                                                                                                                          ..o",
"...                                                                                                                          ..o",
"...                                                                                                                          ..o",
"...                                                                                                                          ..o",
"...                                                                                                                          ..o",
"...                                                                                                                          ..o",
"...                                                                                                                          ..o",
"...                                                                                                                          ..o",
"...                                                                                                                          ..o",
"...                                                                                                                          ...",
"...                                                                                                                          ...",
"...                                                                                                                          ...",
"...                                                                                                                          ...",
"...                                                                                                                          ...",
"...                                                                                                                          ...",
"...                                                                                                                          ...",
"...                                                                                                                          ...",
"...                                                                                                                          ...",
"...                                                                                                                          ...",
"...                                                                                                                          ...",
"...                                                                                                                          ...",
"...                                                                                                                          ...",
"...                                                                                                                          ...",
"...                                                                                                                          ...",
"...                                                                                                                          ...",
"...                                                                                                                          ...",
"...                                                                                                                          ...",
"...                                                                                                                          ...",
"...                                                                                                                          ...",
"...                                                                                                                          ...",
"...                                                                                                                          ...",
"...                                                                                                                          ...",
"...                                                                                                                          ...",
"...                                                                                                                          ...",
"...                                                                                                                          ...",
"...                                                                                                                          ...",
"...                                                                                                                          ...",
"...                                                                                                                          ...",
"...                                                                                                                          ...",
"...                                                                                                                          ...",
"...                                                                                                                          ...",
"...                                                                                                                          ...",
"...                                                                                                                          ...",
"...                                                                                                                          ...",
"...                                                                                                                          ...",
"...                                                                                                                          ...",
"...                                                                                                                          ...",
"...                                                                                                                          ...",
"...                                                                                                                          ...",
"...                                                                                                                          ...",
"...                                                                                                                          ...",
"...                                                                                                                          ...",
"...                                                                                                                          ...",
"...                                                                                                                          ...",
"...                                                                                                                          ...",
"...                                                                                                                          ...",
"...                                                                                                                          ...",
"...                                                                                                                          ...",
"...                                                                                                                          ..."
};
