/* XPM */
static char *_38f3e069af34346df70c1c2c3a331deanKtWYLScDx367C9[] = {
/* columns rows colors chars-per-pixel */
"128 128 11 1 ",
"  c None",
". c #000008",
"X c gray20",
"o c #434343",
"O c #535353",
"+ c #777777",
"@ c #5F9B00",
"# c #7FB717",
"$ c #A3D337",
"% c #C7EF63",
"& c gray53",
/* pixels */
"++++++++++++++++++++++++++++++++++++                                                        ++++++++++++++++++++++++++++++++++++",
"++++++++++++++++++++++++++++++++++++                                                        ++++++++++++++++++++++++++++++++++++",
"OOOOOOOOOOOOOOOOOOOOOOOOOOOOOOOOOOXX                                                        XXOOOOOOOOOOOOOOOOOOOOOOOOOOOOOOOOOO",
"OOOOOOOOOOOOOOOOOOOOOOOOOOOOOOOOOOXX                                                        XXOOOOOOOOOOOOOOOOOOOOOOOOOOOOOOOOOO",
"OOOOOOOOOOOOOOOOOOOOOOOOOOOOOOOOOOXX                                                        XXOOOOOOOOOOOOOOOOOOOOOOOOOOOOOOOOOO",
"OOOOOOOOOOOOOOOOOOOOOOOOOOOOOOOOOOXX                                                        XXOOOOOOOOOOOOOOOOOOOOOOOOOOOOOOOOOO",
"XXXXXXXXXXXXXXXXXXXXXXXXXXXXXXXXXXXX                                                        XXXXXXXXXXXXXXXXXXXXXXXXXXXXXXXXXXXX",
"XXXXXXXXXXXXXXXXXXXXXXXXXXXXXXXXXXXX                                                        XXXXXXXXXXXXXXXXXXXXXXXXXXXXXXXXXXXX",
"++++++++++++++++++++++++++++++++XXXX                                                        XXXX&&++++++++++++++++++++++++++++++",
"++++++++++++++++++++++++++++++++XXXX                                                        XXXX&&++++++++++++++++++++++++++++++",
"OOOOOOOOOOOOOOOOOOOOOOOOOOOOOOOOXXXX                                                        XXXX++OOOOOOOOOOOOOOOOOOOOOOOOOOOOOO",
"OOOOOOOOOOOOOOOOOOOOOOOOOOOOOOOOXXXX                                                        XXXX++OOOOOOOOOOOOOOOOOOOOOOOOOOOOOO",
"OOOOOOOOOOOOOOOOOOOOOOOOOO++ooOOXXXX                                                        XXXX++OO++ooOOOOOOOOOOOOOOOOOOOOOOOO",
"OOOOOOOOOOOOOOOOOOOOOOOOOO++ooOOXXXX                                                        XXXX++OO++ooOOOOOOOOOOOOOOOOOOOOOOOO",
"OOOOOOOOOOOOOOOOOOOOOOOOOOooXXOOXXXX                                                        XXXX++OOooXXOOOOOOOOOOOOOOOOOOOOOOOO",
"OOOOOOOOOOOOOOOOOOOOOOOOOOooXXOOXXXX                                                        XXXX++OOooXXOOOOOOOOOOOOOOOOOOOOOOOO",
"OOOOOOOOOOOOOOOOOOOOOOOOOOOOOOOOXXXX                                                        XXXX++OOOOOOOOOOOOOOOOOOOOOOOOOOOOOO",
"OOOOOOOOOOOOOOOOOOOOOOOOOOOOOOOOXXXX                                                        XXXX++OOOOOOOOOOOOOOOOOOOOOOOOOOOOOO",
"OOOOOOOOOOOOOOOOOOOOOOOOOOOOOOOOXXXX                                                        XXXX++OOOOOOOOOOOOOOOOOOOOOOOOOOOOOO",
"OOOOOOOOOOOOOOOOOOOOOOOOOOOOOOOOXXXX                                                        XXXX++OOOOOOOOOOOOOOOOOOOOOOOOOOOOOO",
"OOOOOOOOOOOOOOOOOOOOOOOOOOOOOOOOXXXX                                                        XXXX++OOOOOOOOOOOOOOOOOOOOOOOOOOOOOO",
"OOOOOOOOOOOOOOOOOOOOOOOOOOOOOOOOXXXX                                                        XXXX++OOOOOOOOOOOOOOOOOOOOOOOOOOOOOO",
"OOOOOOOOOOOOOOOOOOOOOOOOOOOOOOOOXXXX                                                        XXXX++OOOOOOOOOOOOOOOOOOOOOOOOOOOOOO",
"OOOOOOOOOOOOOOOOOOOOOOOOOOOOOOOOXXXX                                                        XXXX++OOOOOOOOOOOOOOOOOOOOOOOOOOOOOO",
"OOOOOOOOOOOOOOOOOOOOOOOOOOOOOOOOXXXX                                                        XXXX++OOOOOOOOOOOOOOOOOOOOOOOOOOOOOO",
"OOOOOOOOOOOOOOOOOOOOOOOOOOOOOOOOXXXX                                                        XXXX++OOOOOOOOOOOOOOOOOOOOOOOOOOOOOO",
"OOOOOOOOOOOOOOOOOOOOOOOOOOOOOOOOXXXX                                                        XXXX++OOOOOOOOOOOOOOOOOOOOOOOOOOOOOO",
"OOOOOOOOOOOOOOOOOOOOOOOOOOOOOOOOXXXX                                                        XXXX++OOOOOOOOOOOOOOOOOOOOOOOOOOOOOO",
"OOOOOOOOOOOOOOOOOOOOOOOOOOOOOOOOXXXX                                                        XXXX++OOOOOOOOOOOOOOOOOOOOOOOOOOOOOO",
"OOOOOOOOOOOOOOOOOOOOOOOOOOOOOOOOXXXX                                                        XXXX++OOOOOOOOOOOOOOOOOOOOOOOOOOOOOO",
"OOOOOOOOOOOOOOOOOOOOOOOOOOOOOOOOXXXX                                                        XXXX++OOOOOOOOOOOOOOOOOOOOOOOOOOOOOO",
"OOOOOOOOOOOOOOOOOOOOOOOOOOOOOOOOXXXX                                                        XXXX++OOOOOOOOOOOOOOOOOOOOOOOOOOOOOO",
"OOOOOOOOOOOOOOOOOOOOOOOOOOOOOOOOXXXX                                                        XXXX++OOOOOOOOOOOOOOOOOOOOOOOOOOOOOO",
"OOOOOOOOOOOOOOOOOOOOOOOOOOOOOOOOXXXX                                                        XXXX++OOOOOOOOOOOOOOOOOOOOOOOOOOOOOO",
"OOOOOOOOOOOOOOOOOOOOOOOOOOOOOOOOXXXX                                                        XXXX++OOOOOOOOOOOOOOOOOOOOOOOOOOOOOO",
"OOOOOOOOOOOOOOOOOOOOOOOOOOOOOOOOXXXX                                                        XXXX++OOOOOOOOOOOOOOOOOOOOOOOOOOOOOO",
"OOOOOOOOOOOOOOOOOOOOOOOOOOOOOOOOXXXX                                                        XXXX++OOOOOOOOOOOOOOOOOOOOOOOOOOOOOO",
"OOOOOOOOOOOOOOOOOOOOOOOOOOOOOOOOXXXX                                                        XXXX++OOOOOOOOOOOOOOOOOOOOOOOOOOOOOO",
"OOOOOOOOOOOOOOOOOOOOOOOOOOOOOOOOXXXX                                                        XXXX++OOOOOOOOOOOOOOOOOOOOOOOOOOOOOO",
"OOOOOOOOOOOOOOOOOOOOOOOOOOOOOOOOXXXX                                                        XXXX++OOOOOOOOOOOOOOOOOOOOOOOOOOOOOO",
"OOOOOOOOOOOOOOOOOOOOOOOOOOOOOOOOXXXX                                                        XXXX++OOOOOOOOOOOOOOOOOOOOOOOOOOOOOO",
"OOOOOOOOOOOOOOOOOOOOOOOOOOOOOOOOXXXX                                                        XXXX++OOOOOOOOOOOOOOOOOOOOOOOOOOOOOO",
"OOOOOOOOOOOOOOOOOOOOOOOOOOOOOOOOXXXX                                                        XXXX++OOOOOOOOOOOOOOOOOOOO++++++++++",
"OOOOOOOOOOOOOOOOOOOOOOOOOOOOOOOOXXXX                                                        XXXX++OOOOOOOOOOOOOOOOOOOO++++++++++",
"OOOOOOOOOOOOOOOOOOOOOOOOOO++ooOOXXXX                                                        XXXX++OO++ooOOOOOOOOOOOO++..........",
"OOOOOOOOOOOOOOOOOOOOOOOOOO++ooOOXXXX                                                        XXXX++OO++ooOOOOOOOOOOOO++..........",
"OOOOOOOOOOOOOOOOOOOOOOOOOOooXXOOXXXX                                                        XXXX++OOooXXOOOOOOOOOOOO++..........",
"OOOOOOOOOOOOOOOOOOOOOOOOOOooXXOOXXXX                                                        XXXX++OOooXXOOOOOOOOOOOO++..........",
"OOOOOOOOOOOOOOOOOOOOOOOOOOOOOOOOXXXX                                                        XXXX++OOOOOOOOOOOOOOOOOO++....%%$$$$",
"OOOOOOOOOOOOOOOOOOOOOOOOOOOOOOOOXXXX                                                        XXXX++OOOOOOOOOOOOOOOOOO++....%%$$$$",
"XXXXXXXXXXXXXXXXXXXXXXXXXXXXXXXXXXXX                                                        XXXXXXXXXXXXXXXXXXXXXXXX++....$$####",
"XXXXXXXXXXXXXXXXXXXXXXXXXXXXXXXXXXXX                                                        XXXXXXXXXXXXXXXXXXXXXXXX++....$$####",
"++++++++++++++++++++++XX&&++++++XXXX                                                        XX&&++++++XXXX&&++++++++++....$$####",
"++++++++++++++++++++++XX&&++++++XXXX                                                        XX&&++++++XXXX&&++++++++++....$$####",
"OOOOOOOOOOOOOOOOOOOOOOXX++OOOOOOXXXX                                                        XX++OOOOOOXXXX++OOOOOOOO++....$$####",
"OOOOOOOOOOOOOOOOOOOOOOXX++OOOOOOXXXX                                                        XX++OOOOOOXXXX++OOOOOOOO++....$$####",
"OOOOOOOOOOOOOOOO++ooOOXX++OOOOOOXXXX                                                        XX++OOOOOOXXXX++OO++ooOO++....##@@@@",
"OOOOOOOOOOOOOOOO++ooOOXX++OOOOOOXXXX                                                        XX++OOOOOOXXXX++OO++ooOO++....##@@@@",
"OOOOOOOOOOOOOOOOooXXOOXX++OOOOOOXXXX                                                        XX++OOOOOOXXXX++OOooXXOO++..........",
"OOOOOOOOOOOOOOOOooXXOOXX++OOOOOOXXXX                                                        XX++OOOOOOXXXX++OOooXXOO++..........",
"OOOOOOOOOOOOOOOOOOOOOOXX++######XXXX                                                        XX++######XXXX++OOOOOOOO++....++++OO",
"OOOOOOOOOOOOOOOOOOOOOOXX++######XXXX                                                        XX++######XXXX++OOOOOOOO++....++++OO",
"OOOOOOOOOOOOOOOOOOOOOOXX++######XXXX                                                        XX++######XXXX++OOOOOOOO++....++OOoo",
"OOOOOOOOOOOOOOOOOOOOOOXX++######XXXX                                                        XX++######XXXX++OOOOOOOO++....++OOoo",
"OOOOOOOOOOOOOOOOOOOOOOXX++OOOOOOXXXX                                                        XX++OOOOOOXXXX++OOOOOOOO++..........",
"OOOOOOOOOOOOOOOOOOOOOOXX++OOOOOOXXXX                                                        XX++OOOOOOXXXX++OOOOOOOO++..........",
"OOOOOOOOOOOOOOOOOOOOOOXX++OOXXXXXXXX                                                        XX++XXXXOOXXXX++OOOOOOOO++....++++OO",
"OOOOOOOOOOOOOOOOOOOOOOXX++OOXXXXXXXX                                                        XX++XXXXOOXXXX++OOOOOOOO++....++++OO",
"OOOOOOOOOOOOOOOOOOOOOOXX++OO....XXXX                                                        XX++....OOXXXX++OOOOOOOO++....++OOoo",
"OOOOOOOOOOOOOOOOOOOOOOXX++OO....XXXX                                                        XX++....OOXXXX++OOOOOOOO++....++OOoo",
"OOOOOOOOOOOOOOOOOOOOOOXX++OO....XXXX                                                        XX++....OOXXXX++OOOOOOOO++..........",
"OOOOOOOOOOOOOOOOOOOOOOXX++OO....XXXX                                                        XX++....OOXXXX++OOOOOOOO++..........",
"OOOOOOOOOOOOOOOOOOOOOOXX++OO....XXXX                                                        XX++....OOXXXX++OOOOOOOO++..........",
"OOOOOOOOOOOOOOOOOOOOOOXX++OO....XXXX                                                        XX++....OOXXXX++OOOOOOOO++..........",
"OOOOOOOOOOOOOOOOOOOOOOXX++OO....XXXX                                                        XX++....OOXXXX++OOOOOOOO++..........",
"OOOOOOOOOOOOOOOOOOOOOOXX++OO....XXXX                                                        XX++....OOXXXX++OOOOOOOO++..........",
"OOOOOOOOOOOOOOOO++ooOOXX++OOOOOOXXXX                                                        XX++OOOOOOXXXX++OO++ooOOOOXXXXXXXXXX",
"OOOOOOOOOOOOOOOO++ooOOXX++OOOOOOXXXX                                                        XX++OOOOOOXXXX++OO++ooOOOOXXXXXXXXXX",
"OOOOOOOOOOOOOOOOooXXOOXXXXXXXXXXXXXX                                                        XXXXXXXXXXXXXX++OOooXXOOOOOOOOOOOOOO",
"OOOOOOOOOOOOOOOOooXXOOXXXXXXXXXXXXXX                                                        XXXXXXXXXXXXXX++OOooXXOOOOOOOOOOOOOO",
"OOOOOOOOOOOOOOOOOOOOOOXXXXXXXXXXXXXX                                                        XXXXXXXXXXXXXX++OOOOOOOOOOOOOOOOOOOO",
"OOOOOOOOOOOOOOOOOOOOOOXXXXXXXXXXXXXX                                                        XXXXXXXXXXXXXX++OOOOOOOOOOOOOOOOOOOO",
"XXXXXXXXXXXXXXXXXXXXXXXXXXXXXXXXXXXX                                                        XXXXXXXXXXXXXXXXXXXXXXXXXXXXXXXXXXXX",
"XXXXXXXXXXXXXXXXXXXXXXXXXXXXXXXXXXXX                                                        XXXXXXXXXXXXXXXXXXXXXXXXXXXXXXXXXXXX",
"++++++++++++++++++++++++++++++++XXXX                                                        XXXX&&++++++++++++++++++++++++++++++",
"++++++++++++++++++++++++++++++++XXXX                                                        XXXX&&++++++++++++++++++++++++++++++",
"OOOOOOOOOOOOOOOOOOOOOOOOOOOOOOOOXXXX                                                        XXXX++OOOOOOOOOOOOOOOOOOOOOOOOOOOOOO",
"OOOOOOOOOOOOOOOOOOOOOOOOOOOOOOOOXXXX                                                        XXXX++OOOOOOOOOOOOOOOOOOOOOOOOOOOOOO",
"OOOOOOOOOOOOOOOOOOOOOOOOOO++ooOOXXXX                                                        XXXX++OO++ooOOOOOOOOOOOOOOOOOOOOOOOO",
"OOOOOOOOOOOOOOOOOOOOOOOOOO++ooOOXXXX                                                        XXXX++OO++ooOOOOOOOOOOOOOOOOOOOOOOOO",
"OOOOOOOOOOOOOOOOOOOOOOOOOOooXXOOXXXX                                                        XXXX++OOooXXOOOOOOOOOOOOOOOOOOOOOOOO",
"OOOOOOOOOOOOOOOOOOOOOOOOOOooXXOOXXXX                                                        XXXX++OOooXXOOOOOOOOOOOOOOOOOOOOOOOO",
"OOOOOOOOOOOOOOOOOOOOOOOOOOOOOOOOXXXX                                                        XXXX++OOOOOOOOOOOOOOOOOOOOOOOOOOOOOO",
"OOOOOOOOOOOOOOOOOOOOOOOOOOOOOOOOXXXX                                                        XXXX++OOOOOOOOOOOOOOOOOOOOOOOOOOOOOO",
"OOOOOOOOOOOOOOOOOOOOOOOOOOOOOOOOXXXX                                                        XXXX++OOOOOOOOOOOOOOOOOOOOOOOOOOOOOO",
"OOOOOOOOOOOOOOOOOOOOOOOOOOOOOOOOXXXX                                                        XXXX++OOOOOOOOOOOOOOOOOOOOOOOOOOOOOO",
"OOOOOOOOOOOOOOOOOOOOOOOOOOOOOOOOXXXX                                                        XXXX++OOOOOOOOOOOOOOOOOOOOOOOOOOOOOO",
"OOOOOOOOOOOOOOOOOOOOOOOOOOOOOOOOXXXX                                                        XXXX++OOOOOOOOOOOOOOOOOOOOOOOOOOOOOO",
"OOOOOOOOOOOOOOOOOOOOOOOOOOOOOOOOXXXX                                                        XXXX++OOOOOOOOOOOOOOOOOOOOOOOOOOOOOO",
"OOOOOOOOOOOOOOOOOOOOOOOOOOOOOOOOXXXX                                                        XXXX++OOOOOOOOOOOOOOOOOOOOOOOOOOOOOO",
"OOOOOOOOOOOOOOOOOOOOOOOOOOOOOOOOXXXX                                                        XXXX++OOOOOOOOOOOOOOOOOOOOOOOOOOOOOO",
"OOOOOOOOOOOOOOOOOOOOOOOOOOOOOOOOXXXX                                                        XXXX++OOOOOOOOOOOOOOOOOOOOOOOOOOOOOO",
"OOOOOOOOOOOOOOOOOOOOOOOOOOOOOOOOXXXX                                                        XXXX++OOOOOOOOOOOOOOOOOOOOOOOOOOOOOO",
"OOOOOOOOOOOOOOOOOOOOOOOOOOOOOOOOXXXX                                                        XXXX++OOOOOOOOOOOOOOOOOOOOOOOOOOOOOO",
"OOOOOOOOOOOOOOOOOOOOOOOOOO++ooOOXXXX                                                        XXXX++OO++ooOOOOOOOOOOOOOOOOOOOOOOOO",
"OOOOOOOOOOOOOOOOOOOOOOOOOO++ooOOXXXX                                                        XXXX++OO++ooOOOOOOOOOOOOOOOOOOOOOOOO",
"OOOOOOOOOOOOOOOOOOOOOOOOOOooXXOOXXXX                                                        XXXX++OOooXXOOOOOOOOOOOOOOOOOOOOOOOO",
"OOOOOOOOOOOOOOOOOOOOOOOOOOooXXOOXXXX                                                        XXXX++OOooXXOOOOOOOOOOOOOOOOOOOOOOOO",
"OOOOOOOOOOOOOOOOOOOOOOOOOOOOOOOOXXXX                                                        XXXX++OOOOOOOOOOOOOOOOOOOOOOOOOOOOOO",
"OOOOOOOOOOOOOOOOOOOOOOOOOOOOOOOOXXXX                                                        XXXX++OOOOOOOOOOOOOOOOOOOOOOOOOOOOOO",
"XXXXXXXXXXXXXXXXXXXXXXXXXXXXXXXXXXXX                                                        XXXXXXXXXXXXXXXXXXXXXXXXXXXXXXXXXXXX",
"XXXXXXXXXXXXXXXXXXXXXXXXXXXXXXXXXXXX                                                        XXXXXXXXXXXXXXXXXXXXXXXXXXXXXXXXXXXX",
"++++++++++++++++++++++++++++++++XXXX                                                        XXXX++++++++++++++++++++++++++++++++",
"++++++++++++++++++++++++++++++++XXXX                                                        XXXX++++++++++++++++++++++++++++++++",
"OOOOOOOOOOOOOOOOOOOOOOOOOOOOOOOOXXXX                                                        XXXXOOOOOOOOOOOOOOOOOOOOOOOOOOOOOOOO",
"OOOOOOOOOOOOOOOOOOOOOOOOOOOOOOOOXXXX                                                        XXXXOOOOOOOOOOOOOOOOOOOOOOOOOOOOOOOO",
"OOOOOOOOOOOOOOOOOOOOOOOOOOOOOOOOXXXX                                                        XXXXOOOOOOOOOOOOOOOOOOOOOOOOOOOOOOOO",
"OOOOOOOOOOOOOOOOOOOOOOOOOOOOOOOOXXXX                                                        XXXXOOOOOOOOOOOOOOOOOOOOOOOOOOOOOOOO",
"OOOOOOOOOOOOOOOOOOOOOOOOOOOOOOOOXXXX                                                        XXXXOOOOOOOOOOOOOOOOOOOOOOOOOOOOOOOO",
"OOOOOOOOOOOOOOOOOOOOOOOOOOOOOOOOXXXX                                                        XXXXOOOOOOOOOOOOOOOOOOOOOOOOOOOOOOOO",
"OOOOOOOOOOOOOOOOOOOOOOOOOOOOOOOOXXXX                                                        XXXXOOOOOOOOOOOOOOOOOOOOOOOOOOOOOOOO",
"OOOOOOOOOOOOOOOOOOOOOOOOOOOOOOOOXXXX                                                        XXXXOOOOOOOOOOOOOOOOOOOOOOOOOOOOOOOO",
"OOOOOOOOOOOOOOOOOOOOOOOOOOOOOOOOXXXX                                                        XXXXOOOOOOOOOOOOOOOOOOOOOOOOOOOOOOOO",
"OOOOOOOOOOOOOOOOOOOOOOOOOOOOOOOOXXXX                                                        XXXXOOOOOOOOOOOOOOOOOOOOOOOOOOOOOOOO",
"OOOOOOOOOOOOOOOOOOOOOOOOOOOOOOOOXXXX                                                        XXXXOOOOOOOOOOOOOOOOOOOOOOOOOOOOOOOO",
"OOOOOOOOOOOOOOOOOOOOOOOOOOOOOOOOXXXX                                                        XXXXOOOOOOOOOOOOOOOOOOOOOOOOOOOOOOOO",
"XXXXXXXXXXXXXXXXXXXXXXXXXXXXXXXXXXXX                                                        XXXXXXXXXXXXXXXXXXXXXXXXXXXXXXXXXXXX",
"XXXXXXXXXXXXXXXXXXXXXXXXXXXXXXXXXXXX                                                        XXXXXXXXXXXXXXXXXXXXXXXXXXXXXXXXXXXX"
};
