/* XPM */
static char *_e65242118634c84b59d76d66046460bnSgUhcn9qn6jsiI0[] = {
/* columns rows colors chars-per-pixel */
"128 128 8 1 ",
"  c None",
". c #000008",
"X c gray20",
"o c #434343",
"O c #535353",
"+ c #777777",
"@ c #7FB717",
"# c gray53",
/* pixels */
"++++++++++++++++++++++++++++++                                                                    ++++++++++++++++++++++++++++++",
"++++++++++++++++++++++++++++++                                                                    ++++++++++++++++++++++++++++++",
"OOOOOOOOOOOOOOOOOOOOOOOOOOOOXX                                                                    XXOOOOOOOOOOOOOOOOOOOOOOOOOOOO",
"OOOOOOOOOOOOOOOOOOOOOOOOOOOOXX                                                                    XXOOOOOOOOOOOOOOOOOOOOOOOOOOOO",
"OOOOOOOOOOOOOOOOOOOOOOOOOOOOXX                                                                    XXOOOOOOOOOOOOOOOOOOOOOOOOOOOO",
"OOOOOOOOOOOOOOOOOOOOOOOOOOOOXX                                                                    XXOOOOOOOOOOOOOOOOOOOOOOOOOOOO",
"XXXXXXXXXXXXXXXXXXXXXXXXXXXXXX                                                                    XXXXXXXXXXXXXXXXXXXXXXXXXXXXXX",
"XXXXXXXXXXXXXXXXXXXXXXXXXXXXXX                                                                    XXXXXXXXXXXXXXXXXXXXXXXXXXXXXX",
"++++++++++++++++++++++++++XXXX                                                                    XXXX##++++++++++++++++++++++++",
"++++++++++++++++++++++++++XXXX                                                                    XXXX##++++++++++++++++++++++++",
"OOOOOOOOOOOOOOOOOOOOOOOOOOXXXX                                                                    XXXX++OOOOOOOOOOOOOOOOOOOOOOOO",
"OOOOOOOOOOOOOOOOOOOOOOOOOOXXXX                                                                    XXXX++OOOOOOOOOOOOOOOOOOOOOOOO",
"OOOOOOOOOOOOOOOOOOOO++ooOOXXXX                                                                    XXXX++OO++ooOOOOOOOOOOOOOOOOOO",
"OOOOOOOOOOOOOOOOOOOO++ooOOXXXX                                                                    XXXX++OO++ooOOOOOOOOOOOOOOOOOO",
"OOOOOOOOOOOOOOOOOOOOooXXOOXXXX                                                                    XXXX++OOooXXOOOOOOOOOOOOOOOOOO",
"OOOOOOOOOOOOOOOOOOOOooXXOOXXXX                                                                    XXXX++OOooXXOOOOOOOOOOOOOOOOOO",
"OOOOOOOOOOOOOOOOOOOOOOOOOOXXXX                                                                    XXXX++OOOOOOOOOOOOOOOOOOOOOOOO",
"OOOOOOOOOOOOOOOOOOOOOOOOOOXXXX                                                                    XXXX++OOOOOOOOOOOOOOOOOOOOOOOO",
"OOOOOOOOOOOOOOOOOOOOOOOOOOXXXX                                                                    XXXX++OOOOOOOOOOOOOOOOOOOOOOOO",
"OOOOOOOOOOOOOOOOOOOOOOOOOOXXXX                                                                    XXXX++OOOOOOOOOOOOOOOOOOOOOOOO",
"OOOOOOOOOOOOOOOOOOOOOOOOOOXXXX                                                                    XXXX++OOOOOOOOOOOOOOOOOOOOOOOO",
"OOOOOOOOOOOOOOOOOOOOOOOOOOXXXX                                                                    XXXX++OOOOOOOOOOOOOOOOOOOOOOOO",
"OOOOOOOOOOOOOOOOOOOOOOOOOOXXXX                                                                    XXXX++OOOOOOOOOOOOOOOOOOOOOOOO",
"OOOOOOOOOOOOOOOOOOOOOOOOOOXXXX                                                                    XXXX++OOOOOOOOOOOOOOOOOOOOOOOO",
"OOOOOOOOOOOOOOOOOOOOOOOOOOXXXX                                                                    XXXX++OOOOOOOOOOOOOOOOOOOOOOOO",
"OOOOOOOOOOOOOOOOOOOOOOOOOOXXXX                                                                    XXXX++OOOOOOOOOOOOOOOOOOOOOOOO",
"OOOOOOOOOOOOOOOOOOOOOOOOOOXXXX                                                                    XXXX++OOOOOOOOOOOOOOOOOOOOOOOO",
"OOOOOOOOOOOOOOOOOOOOOOOOOOXXXX                                                                    XXXX++OOOOOOOOOOOOOOOOOOOOOOOO",
"OOOOOOOOOOOOOOOOOOOOOOOOOOXXXX                                                                    XXXX++OOOOOOOOOOOOOOOOOOOOOOOO",
"OOOOOOOOOOOOOOOOOOOOOOOOOOXXXX                                                                    XXXX++OOOOOOOOOOOOOOOOOOOOOOOO",
"OOOOOOOOOOOOOOOOOOOOOOOOOOXXXX                                                                    XXXX++OOOOOOOOOOOOOOOOOOOOOOOO",
"OOOOOOOOOOOOOOOOOOOOOOOOOOXXXX                                                                    XXXX++OOOOOOOOOOOOOOOOOOOOOOOO",
"OOOOOOOOOOOOOOOOOOOOOOOOOOXXXX                                                                    XXXX++OOOOOOOOOOOOOOOOOOOOOOOO",
"OOOOOOOOOOOOOOOOOOOOOOOOOOXXXX                                                                    XXXX++OOOOOOOOOOOOOOOOOOOOOOOO",
"OOOOOOOOOOOOOOOOOOOOOOOOOOXXXX                                                                    XXXX++OOOOOOOOOOOOOOOOOOOOOOOO",
"OOOOOOOOOOOOOOOOOOOOOOOOOOXXXX                                                                    XXXX++OOOOOOOOOOOOOOOOOOOOOOOO",
"OOOOOOOOOOOOOOOOOOOOOOOOOOXXXX                                                                    XXXX++OOOOOOOOOOOOOOOOOOOOOOOO",
"OOOOOOOOOOOOOOOOOOOOOOOOOOXXXX                                                                    XXXX++OOOOOOOOOOOOOOOOOOOOOOOO",
"OOOOOOOOOOOOOOOOOOOOOOOOOOXXXX                                                                    XXXX++OOOOOOOOOOOOOOOOOOOOOOOO",
"OOOOOOOOOOOOOOOOOOOOOOOOOOXXXX                                                                    XXXX++OOOOOOOOOOOOOOOOOOOOOOOO",
"OOOOOOOOOOOOOOOOOOOOOOOOOOXXXX                                                                    XXXX++OOOOOOOOOOOOOOOOOOOOOOOO",
"OOOOOOOOOOOOOOOOOOOOOOOOOOXXXX                                                                    XXXX++OOOOOOOOOOOOOOOOOOOOOOOO",
"OOOOOOOOOOOOOOOOOOOOOOOOOOXXXX                                                                    XXXX++OOOOOOOOOOOOOOOOOOOO++++",
"OOOOOOOOOOOOOOOOOOOOOOOOOOXXXX                                                                    XXXX++OOOOOOOOOOOOOOOOOOOO++++",
"OOOOOOOOOOOOOOOOOOOO++ooOOXXXX                                                                    XXXX++OO++ooOOOOOOOOOOOO++....",
"OOOOOOOOOOOOOOOOOOOO++ooOOXXXX                                                                    XXXX++OO++ooOOOOOOOOOOOO++....",
"OOOOOOOOOOOOOOOOOOOOooXXOOXXXX                                                                    XXXX++OOooXXOOOOOOOOOOOO++....",
"OOOOOOOOOOOOOOOOOOOOooXXOOXXXX                                                                    XXXX++OOooXXOOOOOOOOOOOO++....",
"OOOOOOOOOOOOOOOOOOOOOOOOOOXXXX                                                                    XXXX++OOOOOOOOOOOOOOOOOO++....",
"OOOOOOOOOOOOOOOOOOOOOOOOOOXXXX                                                                    XXXX++OOOOOOOOOOOOOOOOOO++....",
"XXXXXXXXXXXXXXXXXXXXXXXXXXXXXX                                                                    XXXXXXXXXXXXXXXXXXXXXXXX++....",
"XXXXXXXXXXXXXXXXXXXXXXXXXXXXXX                                                                    XXXXXXXXXXXXXXXXXXXXXXXX++....",
"++++++++++++++++XX##++++++XXXX                                                                    XX##++++++XXXX##++++++++++....",
"++++++++++++++++XX##++++++XXXX                                                                    XX##++++++XXXX##++++++++++....",
"OOOOOOOOOOOOOOOOXX++OOOOOOXXXX                                                                    XX++OOOOOOXXXX++OOOOOOOO++....",
"OOOOOOOOOOOOOOOOXX++OOOOOOXXXX                                                                    XX++OOOOOOXXXX++OOOOOOOO++....",
"OOOOOOOOOO++ooOOXX++OOOOOOXXXX                                                                    XX++OOOOOOXXXX++OO++ooOO++....",
"OOOOOOOOOO++ooOOXX++OOOOOOXXXX                                                                    XX++OOOOOOXXXX++OO++ooOO++....",
"OOOOOOOOOOooXXOOXX++OOOOOOXXXX                                                                    XX++OOOOOOXXXX++OOooXXOO++....",
"OOOOOOOOOOooXXOOXX++OOOOOOXXXX                                                                    XX++OOOOOOXXXX++OOooXXOO++....",
"OOOOOOOOOOOOOOOOXX++@@@@@@XXXX                                                                    XX++@@@@@@XXXX++OOOOOOOO++....",
"OOOOOOOOOOOOOOOOXX++@@@@@@XXXX                                                                    XX++@@@@@@XXXX++OOOOOOOO++....",
"OOOOOOOOOOOOOOOOXX++@@@@@@XXXX                                                                    XX++@@@@@@XXXX++OOOOOOOO++....",
"OOOOOOOOOOOOOOOOXX++@@@@@@XXXX                                                                    XX++@@@@@@XXXX++OOOOOOOO++....",
"OOOOOOOOOOOOOOOOXX++OOOOOOXXXX                                                                    XX++OOOOOOXXXX++OOOOOOOO++....",
"OOOOOOOOOOOOOOOOXX++OOOOOOXXXX                                                                    XX++OOOOOOXXXX++OOOOOOOO++....",
"OOOOOOOOOOOOOOOOXX++OOXXXXXXXX                                                                    XX++XXXXOOXXXX++OOOOOOOO++....",
"OOOOOOOOOOOOOOOOXX++OOXXXXXXXX                                                                    XX++XXXXOOXXXX++OOOOOOOO++....",
"OOOOOOOOOOOOOOOOXX++OO....XXXX                                                                    XX++....OOXXXX++OOOOOOOO++....",
"OOOOOOOOOOOOOOOOXX++OO....XXXX                                                                    XX++....OOXXXX++OOOOOOOO++....",
"OOOOOOOOOOOOOOOOXX++OO....XXXX                                                                    XX++....OOXXXX++OOOOOOOO++....",
"OOOOOOOOOOOOOOOOXX++OO....XXXX                                                                    XX++....OOXXXX++OOOOOOOO++....",
"OOOOOOOOOOOOOOOOXX++OO....XXXX                                                                    XX++....OOXXXX++OOOOOOOO++....",
"OOOOOOOOOOOOOOOOXX++OO....XXXX                                                                    XX++....OOXXXX++OOOOOOOO++....",
"OOOOOOOOOOOOOOOOXX++OO....XXXX                                                                    XX++....OOXXXX++OOOOOOOO++....",
"OOOOOOOOOOOOOOOOXX++OO....XXXX                                                                    XX++....OOXXXX++OOOOOOOO++....",
"OOOOOOOOOO++ooOOXX++OOOOOOXXXX                                                                    XX++OOOOOOXXXX++OO++ooOOOOXXXX",
"OOOOOOOOOO++ooOOXX++OOOOOOXXXX                                                                    XX++OOOOOOXXXX++OO++ooOOOOXXXX",
"OOOOOOOOOOooXXOOXXXXXXXXXXXXXX                                                                    XXXXXXXXXXXXXX++OOooXXOOOOOOOO",
"OOOOOOOOOOooXXOOXXXXXXXXXXXXXX                                                                    XXXXXXXXXXXXXX++OOooXXOOOOOOOO",
"OOOOOOOOOOOOOOOOXXXXXXXXXXXXXX                                                                    XXXXXXXXXXXXXX++OOOOOOOOOOOOOO",
"OOOOOOOOOOOOOOOOXXXXXXXXXXXXXX                                                                    XXXXXXXXXXXXXX++OOOOOOOOOOOOOO",
"XXXXXXXXXXXXXXXXXXXXXXXXXXXXXX                                                                    XXXXXXXXXXXXXXXXXXXXXXXXXXXXXX",
"XXXXXXXXXXXXXXXXXXXXXXXXXXXXXX                                                                    XXXXXXXXXXXXXXXXXXXXXXXXXXXXXX",
"++++++++++++++++++++++++++XXXX                                                                    XXXX##++++++++++++++++++++++++",
"++++++++++++++++++++++++++XXXX                                                                    XXXX##++++++++++++++++++++++++",
"OOOOOOOOOOOOOOOOOOOOOOOOOOXXXX                                                                    XXXX++OOOOOOOOOOOOOOOOOOOOOOOO",
"OOOOOOOOOOOOOOOOOOOOOOOOOOXXXX                                                                    XXXX++OOOOOOOOOOOOOOOOOOOOOOOO",
"OOOOOOOOOOOOOOOOOOOO++ooOOXXXX                                                                    XXXX++OO++ooOOOOOOOOOOOOOOOOOO",
"OOOOOOOOOOOOOOOOOOOO++ooOOXXXX                                                                    XXXX++OO++ooOOOOOOOOOOOOOOOOOO",
"OOOOOOOOOOOOOOOOOOOOooXXOOXXXX                                                                    XXXX++OOooXXOOOOOOOOOOOOOOOOOO",
"OOOOOOOOOOOOOOOOOOOOooXXOOXXXX                                                                    XXXX++OOooXXOOOOOOOOOOOOOOOOOO",
"OOOOOOOOOOOOOOOOOOOOOOOOOOXXXX                                                                    XXXX++OOOOOOOOOOOOOOOOOOOOOOOO",
"OOOOOOOOOOOOOOOOOOOOOOOOOOXXXX                                                                    XXXX++OOOOOOOOOOOOOOOOOOOOOOOO",
"OOOOOOOOOOOOOOOOOOOOOOOOOOXXXX                                                                    XXXX++OOOOOOOOOOOOOOOOOOOOOOOO",
"OOOOOOOOOOOOOOOOOOOOOOOOOOXXXX                                                                    XXXX++OOOOOOOOOOOOOOOOOOOOOOOO",
"OOOOOOOOOOOOOOOOOOOOOOOOOOXXXX                                                                    XXXX++OOOOOOOOOOOOOOOOOOOOOOOO",
"OOOOOOOOOOOOOOOOOOOOOOOOOOXXXX                                                                    XXXX++OOOOOOOOOOOOOOOOOOOOOOOO",
"OOOOOOOOOOOOOOOOOOOOOOOOOOXXXX                                                                    XXXX++OOOOOOOOOOOOOOOOOOOOOOOO",
"OOOOOOOOOOOOOOOOOOOOOOOOOOXXXX                                                                    XXXX++OOOOOOOOOOOOOOOOOOOOOOOO",
"OOOOOOOOOOOOOOOOOOOOOOOOOOXXXX                                                                    XXXX++OOOOOOOOOOOOOOOOOOOOOOOO",
"OOOOOOOOOOOOOOOOOOOOOOOOOOXXXX                                                                    XXXX++OOOOOOOOOOOOOOOOOOOOOOOO",
"OOOOOOOOOOOOOOOOOOOOOOOOOOXXXX                                                                    XXXX++OOOOOOOOOOOOOOOOOOOOOOOO",
"OOOOOOOOOOOOOOOOOOOOOOOOOOXXXX                                                                    XXXX++OOOOOOOOOOOOOOOOOOOOOOOO",
"OOOOOOOOOOOOOOOOOOOO++ooOOXXXX                                                                    XXXX++OO++ooOOOOOOOOOOOOOOOOOO",
"OOOOOOOOOOOOOOOOOOOO++ooOOXXXX                                                                    XXXX++OO++ooOOOOOOOOOOOOOOOOOO",
"OOOOOOOOOOOOOOOOOOOOooXXOOXXXX                                                                    XXXX++OOooXXOOOOOOOOOOOOOOOOOO",
"OOOOOOOOOOOOOOOOOOOOooXXOOXXXX                                                                    XXXX++OOooXXOOOOOOOOOOOOOOOOOO",
"OOOOOOOOOOOOOOOOOOOOOOOOOOXXXX                                                                    XXXX++OOOOOOOOOOOOOOOOOOOOOOOO",
"OOOOOOOOOOOOOOOOOOOOOOOOOOXXXX                                                                    XXXX++OOOOOOOOOOOOOOOOOOOOOOOO",
"XXXXXXXXXXXXXXXXXXXXXXXXXXXXXX                                                                    XXXXXXXXXXXXXXXXXXXXXXXXXXXXXX",
"XXXXXXXXXXXXXXXXXXXXXXXXXXXXXX                                                                    XXXXXXXXXXXXXXXXXXXXXXXXXXXXXX",
"++++++++++++++++++++++++++XXXX                                                                    XXXX++++++++++++++++++++++++++",
"++++++++++++++++++++++++++XXXX                                                                    XXXX++++++++++++++++++++++++++",
"OOOOOOOOOOOOOOOOOOOOOOOOOOXXXX                                                                    XXXXOOOOOOOOOOOOOOOOOOOOOOOOOO",
"OOOOOOOOOOOOOOOOOOOOOOOOOOXXXX                                                                    XXXXOOOOOOOOOOOOOOOOOOOOOOOOOO",
"OOOOOOOOOOOOOOOOOOOOOOOOOOXXXX                                                                    XXXXOOOOOOOOOOOOOOOOOOOOOOOOOO",
"OOOOOOOOOOOOOOOOOOOOOOOOOOXXXX                                                                    XXXXOOOOOOOOOOOOOOOOOOOOOOOOOO",
"OOOOOOOOOOOOOOOOOOOOOOOOOOXXXX                                                                    XXXXOOOOOOOOOOOOOOOOOOOOOOOOOO",
"OOOOOOOOOOOOOOOOOOOOOOOOOOXXXX                                                                    XXXXOOOOOOOOOOOOOOOOOOOOOOOOOO",
"OOOOOOOOOOOOOOOOOOOOOOOOOOXXXX                                                                    XXXXOOOOOOOOOOOOOOOOOOOOOOOOOO",
"OOOOOOOOOOOOOOOOOOOOOOOOOOXXXX                                                                    XXXXOOOOOOOOOOOOOOOOOOOOOOOOOO",
"OOOOOOOOOOOOOOOOOOOOOOOOOOXXXX                                                                    XXXXOOOOOOOOOOOOOOOOOOOOOOOOOO",
"OOOOOOOOOOOOOOOOOOOOOOOOOOXXXX                                                                    XXXXOOOOOOOOOOOOOOOOOOOOOOOOOO",
"OOOOOOOOOOOOOOOOOOOOOOOOOOXXXX                                                                    XXXXOOOOOOOOOOOOOOOOOOOOOOOOOO",
"OOOOOOOOOOOOOOOOOOOOOOOOOOXXXX                                                                    XXXXOOOOOOOOOOOOOOOOOOOOOOOOOO",
"XXXXXXXXXXXXXXXXXXXXXXXXXXXXXX                                                                    XXXXXXXXXXXXXXXXXXXXXXXXXXXXXX",
"XXXXXXXXXXXXXXXXXXXXXXXXXXXXXX                                                                    XXXXXXXXXXXXXXXXXXXXXXXXXXXXXX"
};
