/* XPM */
static char *_10f5c3e1b494f42b7d5750bff98df80mdxyMgPl6hypI7hP[] = {
/* columns rows colors chars-per-pixel */
"128 128 7 1 ",
"  c None",
". c #000008",
"X c gray20",
"o c #535353",
"O c #777777",
"+ c #7FB717",
"@ c gray53",
/* pixels */
"OOOOOO                                                                                                                    OOOOOO",
"OOOOOO                                                                                                                    OOOOOO",
"ooooXX                                                                                                                    XXoooo",
"ooooXX                                                                                                                    XXoooo",
"ooooXX                                                                                                                    XXoooo",
"ooooXX                                                                                                                    XXoooo",
"XXXXXX                                                                                                                    XXXXXX",
"XXXXXX                                                                                                                    XXXXXX",
"OOXXXX                                                                                                                    XXXX@@",
"OOXXXX                                                                                                                    XXXX@@",
"ooXXXX                                                                                                                    XXXXOO",
"ooXXXX                                                                                                                    XXXXOO",
"ooXXXX                                                                                                                    XXXXOO",
"ooXXXX                                                                                                                    XXXXOO",
"ooXXXX                                                                                                                    XXXXOO",
"ooXXXX                                                                                                                    XXXXOO",
"ooXXXX                                                                                                                    XXXXOO",
"ooXXXX                                                                                                                    XXXXOO",
"ooXXXX                                                                                                                    XXXXOO",
"ooXXXX                                                                                                                    XXXXOO",
"ooXXXX                                                                                                                    XXXXOO",
"ooXXXX                                                                                                                    XXXXOO",
"ooXXXX                                                                                                                    XXXXOO",
"ooXXXX                                                                                                                    XXXXOO",
"ooXXXX                                                                                                                    XXXXOO",
"ooXXXX                                                                                                                    XXXXOO",
"ooXXXX                                                                                                                    XXXXOO",
"ooXXXX                                                                                                                    XXXXOO",
"ooXXXX                                                                                                                    XXXXOO",
"ooXXXX                                                                                                                    XXXXOO",
"ooXXXX                                                                                                                    XXXXOO",
"ooXXXX                                                                                                                    XXXXOO",
"ooXXXX                                                                                                                    XXXXOO",
"ooXXXX                                                                                                                    XXXXOO",
"ooXXXX                                                                                                                    XXXXOO",
"ooXXXX                                                                                                                    XXXXOO",
"ooXXXX                                                                                                                    XXXXOO",
"ooXXXX                                                                                                                    XXXXOO",
"ooXXXX                                                                                                                    XXXXOO",
"ooXXXX                                                                                                                    XXXXOO",
"ooXXXX                                                                                                                    XXXXOO",
"ooXXXX                                                                                                                    XXXXOO",
"ooXXXX                                                                                                                    XXXXOO",
"ooXXXX                                                                                                                    XXXXOO",
"ooXXXX                                                                                                                    XXXXOO",
"ooXXXX                                                                                                                    XXXXOO",
"ooXXXX                                                                                                                    XXXXOO",
"ooXXXX                                                                                                                    XXXXOO",
"ooXXXX                                                                                                                    XXXXOO",
"ooXXXX                                                                                                                    XXXXOO",
"XXXXXX                                                                                                                    XXXXXX",
"XXXXXX                                                                                                                    XXXXXX",
"OOXXXX                                                                                                                    XX@@OO",
"OOXXXX                                                                                                                    XX@@OO",
"ooXXXX                                                                                                                    XXOOoo",
"ooXXXX                                                                                                                    XXOOoo",
"ooXXXX                                                                                                                    XXOOoo",
"ooXXXX                                                                                                                    XXOOoo",
"ooXXXX                                                                                                                    XXOOoo",
"ooXXXX                                                                                                                    XXOOoo",
"++XXXX                                                                                                                    XXOO++",
"++XXXX                                                                                                                    XXOO++",
"++XXXX                                                                                                                    XXOO++",
"++XXXX                                                                                                                    XXOO++",
"ooXXXX                                                                                                                    XXOOoo",
"ooXXXX                                                                                                                    XXOOoo",
"XXXXXX                                                                                                                    XXOOXX",
"XXXXXX                                                                                                                    XXOOXX",
"..XXXX                                                                                                                    XXOO..",
"..XXXX                                                                                                                    XXOO..",
"..XXXX                                                                                                                    XXOO..",
"..XXXX                                                                                                                    XXOO..",
"..XXXX                                                                                                                    XXOO..",
"..XXXX                                                                                                                    XXOO..",
"..XXXX                                                                                                                    XXOO..",
"..XXXX                                                                                                                    XXOO..",
"ooXXXX                                                                                                                    XXOOoo",
"ooXXXX                                                                                                                    XXOOoo",
"XXXXXX                                                                                                                    XXXXXX",
"XXXXXX                                                                                                                    XXXXXX",
"XXXXXX                                                                                                                    XXXXXX",
"XXXXXX                                                                                                                    XXXXXX",
"XXXXXX                                                                                                                    XXXXXX",
"XXXXXX                                                                                                                    XXXXXX",
"OOXXXX                                                                                                                    XXXX@@",
"OOXXXX                                                                                                                    XXXX@@",
"ooXXXX                                                                                                                    XXXXOO",
"ooXXXX                                                                                                                    XXXXOO",
"ooXXXX                                                                                                                    XXXXOO",
"ooXXXX                                                                                                                    XXXXOO",
"ooXXXX                                                                                                                    XXXXOO",
"ooXXXX                                                                                                                    XXXXOO",
"ooXXXX                                                                                                                    XXXXOO",
"ooXXXX                                                                                                                    XXXXOO",
"ooXXXX                                                                                                                    XXXXOO",
"ooXXXX                                                                                                                    XXXXOO",
"ooXXXX                                                                                                                    XXXXOO",
"ooXXXX                                                                                                                    XXXXOO",
"ooXXXX                                                                                                                    XXXXOO",
"ooXXXX                                                                                                                    XXXXOO",
"ooXXXX                                                                                                                    XXXXOO",
"ooXXXX                                                                                                                    XXXXOO",
"ooXXXX                                                                                                                    XXXXOO",
"ooXXXX                                                                                                                    XXXXOO",
"ooXXXX                                                                                                                    XXXXOO",
"ooXXXX                                                                                                                    XXXXOO",
"ooXXXX                                                                                                                    XXXXOO",
"ooXXXX                                                                                                                    XXXXOO",
"ooXXXX                                                                                                                    XXXXOO",
"ooXXXX                                                                                                                    XXXXOO",
"XXXXXX                                                                                                                    XXXXXX",
"XXXXXX                                                                                                                    XXXXXX",
"OOXXXX                                                                                                                    XXXXOO",
"OOXXXX                                                                                                                    XXXXOO",
"ooXXXX                                                                                                                    XXXXoo",
"ooXXXX                                                                                                                    XXXXoo",
"ooXXXX                                                                                                                    XXXXoo",
"ooXXXX                                                                                                                    XXXXoo",
"ooXXXX                                                                                                                    XXXXoo",
"ooXXXX                                                                                                                    XXXXoo",
"ooXXXX                                                                                                                    XXXXoo",
"ooXXXX                                                                                                                    XXXXoo",
"ooXXXX                                                                                                                    XXXXoo",
"ooXXXX                                                                                                                    XXXXoo",
"ooXXXX                                                                                                                    XXXXoo",
"ooXXXX                                                                                                                    XXXXoo",
"XXXXXX                                                                                                                    XXXXXX",
"XXXXXX                                                                                                                    XXXXXX"
};
