/* XPM */
static char *fdabd2eeb24b4175928afc388f000ee1c5fNojPGakOMLrx6[] = {
/* columns rows colors chars-per-pixel */
"128 128 12 1 ",
"  c None",
". c #000008",
"X c gray20",
"o c #434343",
"O c #535353",
"+ c #777777",
"@ c #5F9B00",
"# c #7FB717",
"$ c #A3D337",
"% c #C7EF63",
"& c gray53",
"* c #979797",
/* pixels */
"+++++++++++++++++++++++++++++++++++++++++++++++++++                          +++++++++++++++++++++++++++++++++++++++++++++++++++",
"+++++++++++++++++++++++++++++++++++++++++++++++++++                          +++++++++++++++++++++++++++++++++++++++++++++++++++",
"OOOOOOOOOOOOOOOOOOOOOOOOOOOOOOOOOOOOOOOOOOOOOOOOOXX                          XXOOOOOOOOOOOOOOOOOOOOOOOOOOOOOOOOOOOOOOOOOOOOOOOOO",
"OOOOOOOOOOOOOOOOOOOOOOOOOOOOOOOOOOOOOOOOOOOOOOOOOXX                          XXOOOOOOOOOOOOOOOOOOOOOOOOOOOOOOOOOOOOOOOOOOOOOOOOO",
"OOOOOOOOOOOOOOOOOOOOOOOOOOOOOOOOOOOOOOOOOOOOOOOOOXX                          XXOOOOOOOOOOOOOOOOOOOOOOOOOOOOOOOOOOOOOOOOOOOOOOOOO",
"OOOOOOOOOOOOOOOOOOOOOOOOOOOOOOOOOOOOOOOOOOOOOOOOOXX                          XXOOOOOOOOOOOOOOOOOOOOOOOOOOOOOOOOOOOOOOOOOOOOOOOOO",
"XXXXXXXXXXXXXXXXXXXXXXXXXXXXXXXXXXXXXXXXXXXXXXXXXXX                          XXXXXXXXXXXXXXXXXXXXXXXXXXXXXXXXXXXXXXXXXXXXXXXXXXX",
"XXXXXXXXXXXXXXXXXXXXXXXXXXXXXXXXXXXXXXXXXXXXXXXXXXX                          XXXXXXXXXXXXXXXXXXXXXXXXXXXXXXXXXXXXXXXXXXXXXXXXXXX",
"+++++++++++++++++++++++++++++++++++++++++++++++XXXX                          XXXX&&+++++++++++++++++++++++++++++++++++++++++++++",
"+++++++++++++++++++++++++++++++++++++++++++++++XXXX                          XXXX&&+++++++++++++++++++++++++++++++++++++++++++++",
"OOOOOOOOOOOOOOOOOOOOOOOOOOOOOOOOOOOOOOOOOOOOOOOXXXX                          XXXX++OOOOOOOOOOOOOOOOOOOOOOOOOOOOOOOOOOOOOOOOOOOOO",
"OOOOOOOOOOOOOOOOOOOOOOOOOOOOOOOOOOOOOOOOOOOOOOOXXXX                          XXXX++OOOOOOOOOOOOOOOOOOOOOOOOOOOOOOOOOOOOOOOOOOOOO",
"OOOOOOOOOOOOOOOOOOOOOOOOOOOOOOOOOOOOOOOOO++ooOOXXXX                          XXXX++OO++ooOOOOOOOOOOOOOOOOOOOOOOOOOOOOOOOOOOOOOOO",
"OOOOOOOOOOOOOOOOOOOOOOOOOOOOOOOOOOOOOOOOO++ooOOXXXX                          XXXX++OO++ooOOOOOOOOOOOOOOOOOOOOOOOOOOOOOOOOOOOOOOO",
"OOOOOOOOOOOOOOOOOOOOOOOOOOOOOOOOOOOOOOOOOooXXOOXXXX                          XXXX++OOooXXOOOOOOOOOOOOOOOOOOOOOOOOOOOOOOOOOOOOOOO",
"OOOOOOOOOOOOOOOOOOOOOOOOOOOOOOOOOOOOOOOOOooXXOOXXXX                          XXXX++OOooXXOOOOOOOOOOOOOOOOOOOOOOOOOOOOOOOOOOOOOOO",
"OOOOOOOOOOOOOOOOOOOOOOOOOOOOOOOOOOOOOOOOOOOOOOOXXXX                          XXXX++OOOOOOOOOOOOOOOOOOOOOOOOOOOOOOOOOOOOOOOOOOOOO",
"OOOOOOOOOOOOOOOOOOOOOOOOOOOOOOOOOOOOOOOOOOOOOOOXXXX                          XXXX++OOOOOOOOOOOOOOOOOOOOOOOOOOOOOOOOOOOOOOOOOOOOO",
"OOOOOOOOOOOOOOOOOOOOOOOOOOOOOOOOOOOOOOOOOOOOOOOXXXX                          XXXX++OOOOOOOOOOOOOOOOOOOOOOOOOOOOOOOOOOOOOOOOOOOOO",
"OOOOOOOOOOOOOOOOOOOOOOOOOOOOOOOOOOOOOOOOOOOOOOOXXXX                          XXXX++OOOOOOOOOOOOOOOOOOOOOOOOOOOOOOOOOOOOOOOOOOOOO",
"OOOOOOOOOOOOOOOOOOOOOOOOOOOOOOOOOOOOOOOOOOOOOOOXXXX                          XXXX++OOOOOOOOOOOOOOOOOOOOOOOOOOOOOOOOOOOOOOOOOOOOO",
"OOOOOOOOOOOOOOOOOOOOOOOOOOOOOOOOOOOOOOOOOOOOOOOXXXX                          XXXX++OOOOOOOOOOOOOOOOOOOOOOOOOOOOOOOOOOOOOOOOOOOOO",
"OOOOOOOOOOOOOOOOOOOOOOOOOOOOOOOOOOOOOOOOOOOOOOOXXXX                          XXXX++OOOOOOOOOOOOOOOOOOOOOOOOOOOOOOOOOOOOOOOOOOOOO",
"OOOOOOOOOOOOOOOOOOOOOOOOOOOOOOOOOOOOOOOOOOOOOOOXXXX                          XXXX++OOOOOOOOOOOOOOOOOOOOOOOOOOOOOOOOOOOOOOOOOOOOO",
"OOOOOOOOOOOOOOOOOOOOOOOOOOOOOOOOOOOOOOOOOOOOOOOXXXX                          XXXX++OOOOOOOOOOOOOOOOOOOOOOOOOOOOOOOOOOOOOOOOOOOOO",
"OOOOOOOOOOOOOOOOOOOOOOOOOOOOOOOOOOOOOOOOOOOOOOOXXXX                          XXXX++OOOOOOOOOOOOOOOOOOOOOOOOOOOOOOOOOOOOOOOOOOOOO",
"OOOOOOOOOOOOOOOOOOOOOOOOOOOOOOOOOOOOOOOOOOOOOOOXXXX                          XXXX++OOOOOOOOOOOOOOOOOOOOOOOOOOOOOOOOOOOOOOOOOOOOO",
"OOOOOOOOOOOOOOOOOOOOOOOOOOOOOOOOOOOOOOOOOOOOOOOXXXX                          XXXX++OOOOOOOOOOOOOOOOOOOOOOOOOOOOOOOOOOOOOOOOOOOOO",
"OOOOOOOOOOOOOOOOOOOOOOOOOOOOOOOOOOOOOOOOOOOOOOOXXXX                          XXXX++OOOOOOOOOOOOOOOOOOOOOOOOOOOOOOOOOOOOOOOOOOOOO",
"OOOOOOOOOOOOOOOOOOOOOOOOOOOOOOOOOOOOOOOOOOOOOOOXXXX                          XXXX++OOOOOOOOOOOOOOOOOOOOOOOOOOOOOOOOOOOOOOOOOOOOO",
"OOOOOOOOOOOOOOOOOOOOOOOOOOOOOOOOOOOOOOOOOOOOOOOXXXX                          XXXX++OOOOOOOOOOOOOOOOOOOOOOOOOOOOOOOOOOOOOOOOOOOOO",
"OOOOOOOOOOOOOOOOOOOOOOOOOOOOOOOOOOOOOOOOOOOOOOOXXXX                          XXXX++OOOOOOOOOOOOOOOOOOOOOOOOOOOOOOOOOOOOOOOOOOOOO",
"OOOOOOOOOOOOOOOOOOOOOOOOOOOOOOOOOOOOOOOOOOOOOOOXXXX                          XXXX++OOOOOOOOOOOOOOOOOOOOOOOOOOOOOOOOOOOOOOOOOOOOO",
"OOOOOOOOOOOOOOOOOOOOOOOOOOOOOOOOOOOOOOOOOOOOOOOXXXX                          XXXX++OOOOOOOOOOOOOOOOOOOOOOOOOOOOOOOOOOOOOOOOOOOOO",
"OOOOOOOOOOOOOOOOOOOOOOOOOOOOOOOOOOOOOOOOOOOOOOOXXXX                          XXXX++OOOOOOOOOOOOOOOOOOOOOOOOOOOOOOOOOOOOOOOOOOOOO",
"OOOOOOOOOOOOOOOOOOOOOOOOOOOOOOOOOOOOOOOOOOOOOOOXXXX                          XXXX++OOOOOOOOOOOOOOOOOOOOOOOOOOOOOOOOOOOOOOOOOOOOO",
"OOOOOOOOOOOOOOOOOOOOOOOOOOOOOOOOOOOOOOOOOOOOOOOXXXX                          XXXX++OOOOOOOOOOOOOOOOOOOOOOOOOOOOOOOOOOOOOOOOOOOOO",
"OOOOOOOOOOOOOOOOOOOOOOOOOOOOOOOOOOOOOOOOOOOOOOOXXXX                          XXXX++OOOOOOOOOOOOOOOOOOOOOOOOOOOOOOOOOOOOOOOOOOOOO",
"OOOOOOOOOOOOOOOOOOOOOOOOOOOOOOOOOOOOOOOOOOOOOOOXXXX                          XXXX++OOOOOOOOOOOOOOOOOOOOOOOOOOOOOOOOOOOOOOOOOOOOO",
"OOOOOOOOOOOOOOOOOOOOOOOOOOOOOOOOOOOOOOOOOOOOOOOXXXX                          XXXX++OOOOOOOOOOOOOOOOOOOOOOOOOOOOOOOOOOOOOOOOOOOOO",
"OOOOOOOOOOOOOOOOOOOOOOOOOOOOOOOOOOOOOOOOOOOOOOOXXXX                          XXXX++OOOOOOOOOOOOOOOOOOOOOOOOOOOOOOOOOOOOOOOOOOOOO",
"OOOOOOOOOOOOOOOOOOOOOOOOOOOOOOOOOOOOOOOOOOOOOOOXXXX                          XXXX++OOOOOOOOOOOOOOOOOOOOOOOOOOOOOOOOOOOOOOOOOOOOO",
"OOOOOOOOOOOOOOOOOOOOOOOOOOOOOOOOOOOOOOOOOOOOOOOXXXX                          XXXX++OOOOOOOOOOOOOOOOOOOO++++++++++++++++++++++OOO",
"OOOOOOOOOOOOOOOOOOOOOOOOOOOOOOOOOOOOOOOOOOOOOOOXXXX                          XXXX++OOOOOOOOOOOOOOOOOOOO++++++++++++++++++++++OOO",
"OOOOOOOOOOOOOOOOOOOOOOOOOOOOOOOOOOOOOOOOO++ooOOXXXX                          XXXX++OO++ooOOOOOOOOOOOO++......................XXO",
"OOOOOOOOOOOOOOOOOOOOOOOOOOOOOOOOOOOOOOOOO++ooOOXXXX                          XXXX++OO++ooOOOOOOOOOOOO++......................XXO",
"OOOOOOOOOOOOOOOOOOOOOOOOOOOOOOOOOOOOOOOOOooXXOOXXXX                          XXXX++OOooXXOOOOOOOOOOOO++..............XX..XX..XXO",
"OOOOOOOOOOOOOOOOOOOOOOOOOOOOOOOOOOOOOOOOOooXXOOXXXX                          XXXX++OOooXXOOOOOOOOOOOO++..............XX..XX..XXO",
"OOOOOOOOOOOOOOOOOOOOOOOOOOOOOOOOOOOOOOOOOOOOOOOXXXX                          XXXX++OOOOOOOOOOOOOOOOOO++....%%$$$$##..OO..OO..XXO",
"OOOOOOOOOOOOOOOOOOOOOOOOOOOOOOOOOOOOOOOOOOOOOOOXXXX                          XXXX++OOOOOOOOOOOOOOOOOO++....%%$$$$##..OO..OO..XXO",
"XXXXXXXXXXXXXXXXXXXXXXXXXXXXXXXXXXXXXXXXXXXXXXXXXXX                          XXXXXXXXXXXXXXXXXXXXXXXX++....$$####@@..++..++..XXX",
"XXXXXXXXXXXXXXXXXXXXXXXXXXXXXXXXXXXXXXXXXXXXXXXXXXX                          XXXXXXXXXXXXXXXXXXXXXXXX++....$$####@@..++..++..XXX",
"+++++++++++++++++++++++++++++++++++++XX&&++++++XXXX                          XX&&++++++XXXX&&++++++++++....$$####@@..++..++..XX+",
"+++++++++++++++++++++++++++++++++++++XX&&++++++XXXX                          XX&&++++++XXXX&&++++++++++....$$####@@..++..++..XX+",
"OOOOOOOOOOOOOOOOOOOOOOOOOOOOOOOOOOOOOXX++OOOOOOXXXX                          XX++OOOOOOXXXX++OOOOOOOO++....$$####@@..**..++..XXO",
"OOOOOOOOOOOOOOOOOOOOOOOOOOOOOOOOOOOOOXX++OOOOOOXXXX                          XX++OOOOOOXXXX++OOOOOOOO++....$$####@@..**..++..XXO",
"OOOOOOOOOOOOOOOOOOOOOOOOOOOOOOO++ooOOXX++OOOOOOXXXX                          XX++OOOOOOXXXX++OO++ooOO++....##@@@@@@..**..**..XXO",
"OOOOOOOOOOOOOOOOOOOOOOOOOOOOOOO++ooOOXX++OOOOOOXXXX                          XX++OOOOOOXXXX++OO++ooOO++....##@@@@@@..**..**..XXO",
"OOOOOOOOOOOOOOOOOOOOOOOOOOOOOOOooXXOOXX++OOOOOOXXXX                          XX++OOOOOOXXXX++OOooXXOO++..............**..**..XXO",
"OOOOOOOOOOOOOOOOOOOOOOOOOOOOOOOooXXOOXX++OOOOOOXXXX                          XX++OOOOOOXXXX++OOooXXOO++..............**..**..XXO",
"OOOOOOOOOOOOOOOOOOOOOOOOOOOOOOOOOOOOOXX++######XXXX                          XX++######XXXX++OOOOOOOO++....++++OOoo..++..++..XXO",
"OOOOOOOOOOOOOOOOOOOOOOOOOOOOOOOOOOOOOXX++######XXXX                          XX++######XXXX++OOOOOOOO++....++++OOoo..++..++..XXO",
"OOOOOOOOOOOOOOOOOOOOOOOOOOOOOOOOOOOOOXX++######XXXX                          XX++######XXXX++OOOOOOOO++....++OOooXX..++..++..XXO",
"OOOOOOOOOOOOOOOOOOOOOOOOOOOOOOOOOOOOOXX++######XXXX                          XX++######XXXX++OOOOOOOO++....++OOooXX..++..++..XXO",
"OOOOOOOOOOOOOOOOOOOOOOOOOOOOOOOOOOOOOXX++OOOOOOXXXX                          XX++OOOOOOXXXX++OOOOOOOO++..............++..++..XXO",
"OOOOOOOOOOOOOOOOOOOOOOOOOOOOOOOOOOOOOXX++OOOOOOXXXX                          XX++OOOOOOXXXX++OOOOOOOO++..............++..++..XXO",
"OOOOOOOOOOOOOOOOOOOOOOOOOOOOOOOOOOOOOXX++OOXXXXXXXX                          XX++XXXXOOXXXX++OOOOOOOO++....++++OOoo..OO..++..XXO",
"OOOOOOOOOOOOOOOOOOOOOOOOOOOOOOOOOOOOOXX++OOXXXXXXXX                          XX++XXXXOOXXXX++OOOOOOOO++....++++OOoo..OO..++..XXO",
"OOOOOOOOOOOOOOOOOOOOOOOOOOOOOOOOOOOOOXX++OO....XXXX                          XX++....OOXXXX++OOOOOOOO++....++OOooXX..OO..OO..XXO",
"OOOOOOOOOOOOOOOOOOOOOOOOOOOOOOOOOOOOOXX++OO....XXXX                          XX++....OOXXXX++OOOOOOOO++....++OOooXX..OO..OO..XXO",
"OOOOOOOOOOOOOOOOOOOOOOOOOOOOOOOOOOOOOXX++OO....XXXX                          XX++....OOXXXX++OOOOOOOO++..............oo..oo..XXO",
"OOOOOOOOOOOOOOOOOOOOOOOOOOOOOOOOOOOOOXX++OO....XXXX                          XX++....OOXXXX++OOOOOOOO++..............oo..oo..XXO",
"OOOOOOOOOOOOOOOOOOOOOOOOOOOOOOOOOOOOOXX++OO....XXXX                          XX++....OOXXXX++OOOOOOOO++..............XX..XX..XXO",
"OOOOOOOOOOOOOOOOOOOOOOOOOOOOOOOOOOOOOXX++OO....XXXX                          XX++....OOXXXX++OOOOOOOO++..............XX..XX..XXO",
"OOOOOOOOOOOOOOOOOOOOOOOOOOOOOOOOOOOOOXX++OO....XXXX                          XX++....OOXXXX++OOOOOOOO++......................XXO",
"OOOOOOOOOOOOOOOOOOOOOOOOOOOOOOOOOOOOOXX++OO....XXXX                          XX++....OOXXXX++OOOOOOOO++......................XXO",
"OOOOOOOOOOOOOOOOOOOOOOOOOOOOOOO++ooOOXX++OOOOOOXXXX                          XX++OOOOOOXXXX++OO++ooOOOOXXXXXXXXXXXXXXXXXXXXXXXXO",
"OOOOOOOOOOOOOOOOOOOOOOOOOOOOOOO++ooOOXX++OOOOOOXXXX                          XX++OOOOOOXXXX++OO++ooOOOOXXXXXXXXXXXXXXXXXXXXXXXXO",
"OOOOOOOOOOOOOOOOOOOOOOOOOOOOOOOooXXOOXXXXXXXXXXXXXX                          XXXXXXXXXXXXXX++OOooXXOOOOOOOOOOOOOOOOOOOOOOOOOOOOO",
"OOOOOOOOOOOOOOOOOOOOOOOOOOOOOOOooXXOOXXXXXXXXXXXXXX                          XXXXXXXXXXXXXX++OOooXXOOOOOOOOOOOOOOOOOOOOOOOOOOOOO",
"OOOOOOOOOOOOOOOOOOOOOOOOOOOOOOOOOOOOOXXXXXXXXXXXXXX                          XXXXXXXXXXXXXX++OOOOOOOOOOOOOOOOOOOOOOOOOOOOOOOOOOO",
"OOOOOOOOOOOOOOOOOOOOOOOOOOOOOOOOOOOOOXXXXXXXXXXXXXX                          XXXXXXXXXXXXXX++OOOOOOOOOOOOOOOOOOOOOOOOOOOOOOOOOOO",
"XXXXXXXXXXXXXXXXXXXXXXXXXXXXXXXXXXXXXXXXXXXXXXXXXXX                          XXXXXXXXXXXXXXXXXXXXXXXXXXXXXXXXXXXXXXXXXXXXXXXXXXX",
"XXXXXXXXXXXXXXXXXXXXXXXXXXXXXXXXXXXXXXXXXXXXXXXXXXX                          XXXXXXXXXXXXXXXXXXXXXXXXXXXXXXXXXXXXXXXXXXXXXXXXXXX",
"+++++++++++++++++++++++++++++++++++++++++++++++XXXX                          XXXX&&+++++++++++++++++++++++++++++++++++++++++++++",
"+++++++++++++++++++++++++++++++++++++++++++++++XXXX                          XXXX&&+++++++++++++++++++++++++++++++++++++++++++++",
"OOOOOOOOOOOOOOOOOOOOOOOOOOOOOOOOOOOOOOOOOOOOOOOXXXX                          XXXX++OOOOOOOOOOOOOOOOOOOOOOOOOOOOOOOOOOOOOOOOOOOOO",
"OOOOOOOOOOOOOOOOOOOOOOOOOOOOOOOOOOOOOOOOOOOOOOOXXXX                          XXXX++OOOOOOOOOOOOOOOOOOOOOOOOOOOOOOOOOOOOOOOOOOOOO",
"OOOOOOOOOOOOOOOOOOOOOOOOOOOOOOOOOOOOOOOOO++ooOOXXXX                          XXXX++OO++ooOOOOOOOOOOOOOOOOOOOOOOOOOOOOOOOOOOOOOOO",
"OOOOOOOOOOOOOOOOOOOOOOOOOOOOOOOOOOOOOOOOO++ooOOXXXX                          XXXX++OO++ooOOOOOOOOOOOOOOOOOOOOOOOOOOOOOOOOOOOOOOO",
"OOOOOOOOOOOOOOOOOOOOOOOOOOOOOOOOOOOOOOOOOooXXOOXXXX                          XXXX++OOooXXOOOOOOOOOOOOOOOOOOOOOOOOOOOOOOOOOOOOOOO",
"OOOOOOOOOOOOOOOOOOOOOOOOOOOOOOOOOOOOOOOOOooXXOOXXXX                          XXXX++OOooXXOOOOOOOOOOOOOOOOOOOOOOOOOOOOOOOOOOOOOOO",
"OOOOOOOOOOOOOOOOOOOOOOOOOOOOOOOOOOOOOOOOOOOOOOOXXXX                          XXXX++OOOOOOOOOOOOOOOOOOOOOOOOOOOOOOOOOOOOOOOOOOOOO",
"OOOOOOOOOOOOOOOOOOOOOOOOOOOOOOOOOOOOOOOOOOOOOOOXXXX                          XXXX++OOOOOOOOOOOOOOOOOOOOOOOOOOOOOOOOOOOOOOOOOOOOO",
"OOOOOOOOOOOOOOOOOOOOOOOOOOOOOOOOOOOOOOOOOOOOOOOXXXX                          XXXX++OOOOOOOOOOOOOOOOOOOOOOOOOOOOOOOOOOOOOOOOOOOOO",
"OOOOOOOOOOOOOOOOOOOOOOOOOOOOOOOOOOOOOOOOOOOOOOOXXXX                          XXXX++OOOOOOOOOOOOOOOOOOOOOOOOOOOOOOOOOOOOOOOOOOOOO",
"OOOOOOOOOOOOOOOOOOOOOOOOOOOOOOOOOOOOOOOOOOOOOOOXXXX                          XXXX++OOOOOOOOOOOOOOOOOOOOOOOOOOOOOOOOOOOOOOOOOOOOO",
"OOOOOOOOOOOOOOOOOOOOOOOOOOOOOOOOOOOOOOOOOOOOOOOXXXX                          XXXX++OOOOOOOOOOOOOOOOOOOOOOOOOOOOOOOOOOOOOOOOOOOOO",
"OOOOOOOOOOOOOOOOOOOOOOOOOOOOOOOOOOOOOOOOOOOOOOOXXXX                          XXXX++OOOOOOOOOOOOOOOOOOOOOOOOOOOOOOOOOOOOOOOOOOOOO",
"OOOOOOOOOOOOOOOOOOOOOOOOOOOOOOOOOOOOOOOOOOOOOOOXXXX                          XXXX++OOOOOOOOOOOOOOOOOOOOOOOOOOOOOOOOOOOOOOOOOOOOO",
"OOOOOOOOOOOOOOOOOOOOOOOOOOOOOOOOOOOOOOOOOOOOOOOXXXX                          XXXX++OOOOOOOOOOOOOOOOOOOOOOOOOOOOOOOOOOOOOOOOOOOOO",
"OOOOOOOOOOOOOOOOOOOOOOOOOOOOOOOOOOOOOOOOOOOOOOOXXXX                          XXXX++OOOOOOOOOOOOOOOOOOOOOOOOOOOOOOOOOOOOOOOOOOOOO",
"OOOOOOOOOOOOOOOOOOOOOOOOOOOOOOOOOOOOOOOOOOOOOOOXXXX                          XXXX++OOOOOOOOOOOOOOOOOOOOOOOOOOOOOOOOOOOOOOOOOOOOO",
"OOOOOOOOOOOOOOOOOOOOOOOOOOOOOOOOOOOOOOOOOOOOOOOXXXX                          XXXX++OOOOOOOOOOOOOOOOOOOOOOOOOOOOOOOOOOOOOOOOOOOOO",
"OOOOOOOOOOOOOOOOOOOOOOOOOOOOOOOOOOOOOOOOO++ooOOXXXX                          XXXX++OO++ooOOOOOOOOOOOOOOOOOOOOOOOOOOOOOOOOOOOOOOO",
"OOOOOOOOOOOOOOOOOOOOOOOOOOOOOOOOOOOOOOOOO++ooOOXXXX                          XXXX++OO++ooOOOOOOOOOOOOOOOOOOOOOOOOOOOOOOOOOOOOOOO",
"OOOOOOOOOOOOOOOOOOOOOOOOOOOOOOOOOOOOOOOOOooXXOOXXXX                          XXXX++OOooXXOOOOOOOOOOOOOOOOOOOOOOOOOOOOOOOOOOOOOOO",
"OOOOOOOOOOOOOOOOOOOOOOOOOOOOOOOOOOOOOOOOOooXXOOXXXX                          XXXX++OOooXXOOOOOOOOOOOOOOOOOOOOOOOOOOOOOOOOOOOOOOO",
"OOOOOOOOOOOOOOOOOOOOOOOOOOOOOOOOOOOOOOOOOOOOOOOXXXX                          XXXX++OOOOOOOOOOOOOOOOOOOOOOOOOOOOOOOOOOOOOOOOOOOOO",
"OOOOOOOOOOOOOOOOOOOOOOOOOOOOOOOOOOOOOOOOOOOOOOOXXXX                          XXXX++OOOOOOOOOOOOOOOOOOOOOOOOOOOOOOOOOOOOOOOOOOOOO",
"XXXXXXXXXXXXXXXXXXXXXXXXXXXXXXXXXXXXXXXXXXXXXXXXXXX                          XXXXXXXXXXXXXXXXXXXXXXXXXXXXXXXXXXXXXXXXXXXXXXXXXXX",
"XXXXXXXXXXXXXXXXXXXXXXXXXXXXXXXXXXXXXXXXXXXXXXXXXXX                          XXXXXXXXXXXXXXXXXXXXXXXXXXXXXXXXXXXXXXXXXXXXXXXXXXX",
"+++++++++++++++++++++++++++++++++++++++++++++++XXXX                          XXXX+++++++++++++++++++++++++++++++++++++++++++++++",
"+++++++++++++++++++++++++++++++++++++++++++++++XXXX                          XXXX+++++++++++++++++++++++++++++++++++++++++++++++",
"OOOOOOOOOOOOOOOOOOOOOOOOOOOOOOOOOOOOOOOOOOOOOOOXXXX                          XXXXOOOOOOOOOOOOOOOOOOOOOOOOOOOOOOOOOOOOOOOOOOOOOOO",
"OOOOOOOOOOOOOOOOOOOOOOOOOOOOOOOOOOOOOOOOOOOOOOOXXXX                          XXXXOOOOOOOOOOOOOOOOOOOOOOOOOOOOOOOOOOOOOOOOOOOOOOO",
"OOOOOOOOOOOOOOOOOOOOOOOOOOOOOOOOOOOOOOOOOOOOOOOXXXX                          XXXXOOOOOOOOOOOOOOOOOOOOOOOOOOOOOOOOOOOOOOOOOOOOOOO",
"OOOOOOOOOOOOOOOOOOOOOOOOOOOOOOOOOOOOOOOOOOOOOOOXXXX                          XXXXOOOOOOOOOOOOOOOOOOOOOOOOOOOOOOOOOOOOOOOOOOOOOOO",
"OOOOOOOOOOOOOOOOOOOOOOOOOOOOOOOOOOOOOOOOOOOOOOOXXXX                          XXXXOOOOOOOOOOOOOOOOOOOOOOOOOOOOOOOOOOOOOOOOOOOOOOO",
"OOOOOOOOOOOOOOOOOOOOOOOOOOOOOOOOOOOOOOOOOOOOOOOXXXX                          XXXXOOOOOOOOOOOOOOOOOOOOOOOOOOOOOOOOOOOOOOOOOOOOOOO",
"OOOOOOOOOOOOOOOOOOOOOOOOOOOOOOOOOOOOOOOOOOOOOOOXXXX                          XXXXOOOOOOOOOOOOOOOOOOOOOOOOOOOOOOOOOOOOOOOOOOOOOOO",
"OOOOOOOOOOOOOOOOOOOOOOOOOOOOOOOOOOOOOOOOOOOOOOOXXXX                          XXXXOOOOOOOOOOOOOOOOOOOOOOOOOOOOOOOOOOOOOOOOOOOOOOO",
"OOOOOOOOOOOOOOOOOOOOOOOOOOOOOOOOOOOOOOOOOOOOOOOXXXX                          XXXXOOOOOOOOOOOOOOOOOOOOOOOOOOOOOOOOOOOOOOOOOOOOOOO",
"OOOOOOOOOOOOOOOOOOOOOOOOOOOOOOOOOOOOOOOOOOOOOOOXXXX                          XXXXOOOOOOOOOOOOOOOOOOOOOOOOOOOOOOOOOOOOOOOOOOOOOOO",
"OOOOOOOOOOOOOOOOOOOOOOOOOOOOOOOOOOOOOOOOOOOOOOOXXXX                          XXXXOOOOOOOOOOOOOOOOOOOOOOOOOOOOOOOOOOOOOOOOOOOOOOO",
"OOOOOOOOOOOOOOOOOOOOOOOOOOOOOOOOOOOOOOOOOOOOOOOXXXX                          XXXXOOOOOOOOOOOOOOOOOOOOOOOOOOOOOOOOOOOOOOOOOOOOOOO",
"XXXXXXXXXXXXXXXXXXXXXXXXXXXXXXXXXXXXXXXXXXXXXXXXXXX                          XXXXXXXXXXXXXXXXXXXXXXXXXXXXXXXXXXXXXXXXXXXXXXXXXXX",
"XXXXXXXXXXXXXXXXXXXXXXXXXXXXXXXXXXXXXXXXXXXXXXXXXXX                          XXXXXXXXXXXXXXXXXXXXXXXXXXXXXXXXXXXXXXXXXXXXXXXXXXX"
};
