/* XPM */
static char *d4f298823b614bd8e93190666b90c1afHAEwO4b1Lm3JIWIL[] = {
/* columns rows colors chars-per-pixel */
"128 128 8 1 ",
"  c None",
". c #000008",
"X c gray20",
"o c #434343",
"O c #535353",
"+ c #777777",
"@ c #7FB717",
"# c gray53",
/* pixels */
"++++++++++++++++                                                                                                ++++++++++++++++",
"++++++++++++++++                                                                                                ++++++++++++++++",
"OOOOOOOOOOOOOOXX                                                                                                XXOOOOOOOOOOOOOO",
"OOOOOOOOOOOOOOXX                                                                                                XXOOOOOOOOOOOOOO",
"OOOOOOOOOOOOOOXX                                                                                                XXOOOOOOOOOOOOOO",
"OOOOOOOOOOOOOOXX                                                                                                XXOOOOOOOOOOOOOO",
"XXXXXXXXXXXXXXXX                                                                                                XXXXXXXXXXXXXXXX",
"XXXXXXXXXXXXXXXX                                                                                                XXXXXXXXXXXXXXXX",
"++++++++++++XXXX                                                                                                XXXX##++++++++++",
"++++++++++++XXXX                                                                                                XXXX##++++++++++",
"OOOOOOOOOOOOXXXX                                                                                                XXXX++OOOOOOOOOO",
"OOOOOOOOOOOOXXXX                                                                                                XXXX++OOOOOOOOOO",
"OOOOOO++ooOOXXXX                                                                                                XXXX++OO++ooOOOO",
"OOOOOO++ooOOXXXX                                                                                                XXXX++OO++ooOOOO",
"OOOOOOooXXOOXXXX                                                                                                XXXX++OOooXXOOOO",
"OOOOOOooXXOOXXXX                                                                                                XXXX++OOooXXOOOO",
"OOOOOOOOOOOOXXXX                                                                                                XXXX++OOOOOOOOOO",
"OOOOOOOOOOOOXXXX                                                                                                XXXX++OOOOOOOOOO",
"OOOOOOOOOOOOXXXX                                                                                                XXXX++OOOOOOOOOO",
"OOOOOOOOOOOOXXXX                                                                                                XXXX++OOOOOOOOOO",
"OOOOOOOOOOOOXXXX                                                                                                XXXX++OOOOOOOOOO",
"OOOOOOOOOOOOXXXX                                                                                                XXXX++OOOOOOOOOO",
"OOOOOOOOOOOOXXXX                                                                                                XXXX++OOOOOOOOOO",
"OOOOOOOOOOOOXXXX                                                                                                XXXX++OOOOOOOOOO",
"OOOOOOOOOOOOXXXX                                                                                                XXXX++OOOOOOOOOO",
"OOOOOOOOOOOOXXXX                                                                                                XXXX++OOOOOOOOOO",
"OOOOOOOOOOOOXXXX                                                                                                XXXX++OOOOOOOOOO",
"OOOOOOOOOOOOXXXX                                                                                                XXXX++OOOOOOOOOO",
"OOOOOOOOOOOOXXXX                                                                                                XXXX++OOOOOOOOOO",
"OOOOOOOOOOOOXXXX                                                                                                XXXX++OOOOOOOOOO",
"OOOOOOOOOOOOXXXX                                                                                                XXXX++OOOOOOOOOO",
"OOOOOOOOOOOOXXXX                                                                                                XXXX++OOOOOOOOOO",
"OOOOOOOOOOOOXXXX                                                                                                XXXX++OOOOOOOOOO",
"OOOOOOOOOOOOXXXX                                                                                                XXXX++OOOOOOOOOO",
"OOOOOOOOOOOOXXXX                                                                                                XXXX++OOOOOOOOOO",
"OOOOOOOOOOOOXXXX                                                                                                XXXX++OOOOOOOOOO",
"OOOOOOOOOOOOXXXX                                                                                                XXXX++OOOOOOOOOO",
"OOOOOOOOOOOOXXXX                                                                                                XXXX++OOOOOOOOOO",
"OOOOOOOOOOOOXXXX                                                                                                XXXX++OOOOOOOOOO",
"OOOOOOOOOOOOXXXX                                                                                                XXXX++OOOOOOOOOO",
"OOOOOOOOOOOOXXXX                                                                                                XXXX++OOOOOOOOOO",
"OOOOOOOOOOOOXXXX                                                                                                XXXX++OOOOOOOOOO",
"OOOOOOOOOOOOXXXX                                                                                                XXXX++OOOOOOOOOO",
"OOOOOOOOOOOOXXXX                                                                                                XXXX++OOOOOOOOOO",
"OOOOOO++ooOOXXXX                                                                                                XXXX++OO++ooOOOO",
"OOOOOO++ooOOXXXX                                                                                                XXXX++OO++ooOOOO",
"OOOOOOooXXOOXXXX                                                                                                XXXX++OOooXXOOOO",
"OOOOOOooXXOOXXXX                                                                                                XXXX++OOooXXOOOO",
"OOOOOOOOOOOOXXXX                                                                                                XXXX++OOOOOOOOOO",
"OOOOOOOOOOOOXXXX                                                                                                XXXX++OOOOOOOOOO",
"XXXXXXXXXXXXXXXX                                                                                                XXXXXXXXXXXXXXXX",
"XXXXXXXXXXXXXXXX                                                                                                XXXXXXXXXXXXXXXX",
"++XX##++++++XXXX                                                                                                XX##++++++XXXX##",
"++XX##++++++XXXX                                                                                                XX##++++++XXXX##",
"OOXX++OOOOOOXXXX                                                                                                XX++OOOOOOXXXX++",
"OOXX++OOOOOOXXXX                                                                                                XX++OOOOOOXXXX++",
"OOXX++OOOOOOXXXX                                                                                                XX++OOOOOOXXXX++",
"OOXX++OOOOOOXXXX                                                                                                XX++OOOOOOXXXX++",
"OOXX++OOOOOOXXXX                                                                                                XX++OOOOOOXXXX++",
"OOXX++OOOOOOXXXX                                                                                                XX++OOOOOOXXXX++",
"OOXX++@@@@@@XXXX                                                                                                XX++@@@@@@XXXX++",
"OOXX++@@@@@@XXXX                                                                                                XX++@@@@@@XXXX++",
"OOXX++@@@@@@XXXX                                                                                                XX++@@@@@@XXXX++",
"OOXX++@@@@@@XXXX                                                                                                XX++@@@@@@XXXX++",
"OOXX++OOOOOOXXXX                                                                                                XX++OOOOOOXXXX++",
"OOXX++OOOOOOXXXX                                                                                                XX++OOOOOOXXXX++",
"OOXX++OOXXXXXXXX                                                                                                XX++XXXXOOXXXX++",
"OOXX++OOXXXXXXXX                                                                                                XX++XXXXOOXXXX++",
"OOXX++OO....XXXX                                                                                                XX++....OOXXXX++",
"OOXX++OO....XXXX                                                                                                XX++....OOXXXX++",
"OOXX++OO....XXXX                                                                                                XX++....OOXXXX++",
"OOXX++OO....XXXX                                                                                                XX++....OOXXXX++",
"OOXX++OO....XXXX                                                                                                XX++....OOXXXX++",
"OOXX++OO....XXXX                                                                                                XX++....OOXXXX++",
"OOXX++OO....XXXX                                                                                                XX++....OOXXXX++",
"OOXX++OO....XXXX                                                                                                XX++....OOXXXX++",
"OOXX++OOOOOOXXXX                                                                                                XX++OOOOOOXXXX++",
"OOXX++OOOOOOXXXX                                                                                                XX++OOOOOOXXXX++",
"OOXXXXXXXXXXXXXX                                                                                                XXXXXXXXXXXXXX++",
"OOXXXXXXXXXXXXXX                                                                                                XXXXXXXXXXXXXX++",
"OOXXXXXXXXXXXXXX                                                                                                XXXXXXXXXXXXXX++",
"OOXXXXXXXXXXXXXX                                                                                                XXXXXXXXXXXXXX++",
"XXXXXXXXXXXXXXXX                                                                                                XXXXXXXXXXXXXXXX",
"XXXXXXXXXXXXXXXX                                                                                                XXXXXXXXXXXXXXXX",
"++++++++++++XXXX                                                                                                XXXX##++++++++++",
"++++++++++++XXXX                                                                                                XXXX##++++++++++",
"OOOOOOOOOOOOXXXX                                                                                                XXXX++OOOOOOOOOO",
"OOOOOOOOOOOOXXXX                                                                                                XXXX++OOOOOOOOOO",
"OOOOOO++ooOOXXXX                                                                                                XXXX++OO++ooOOOO",
"OOOOOO++ooOOXXXX                                                                                                XXXX++OO++ooOOOO",
"OOOOOOooXXOOXXXX                                                                                                XXXX++OOooXXOOOO",
"OOOOOOooXXOOXXXX                                                                                                XXXX++OOooXXOOOO",
"OOOOOOOOOOOOXXXX                                                                                                XXXX++OOOOOOOOOO",
"OOOOOOOOOOOOXXXX                                                                                                XXXX++OOOOOOOOOO",
"OOOOOOOOOOOOXXXX                                                                                                XXXX++OOOOOOOOOO",
"OOOOOOOOOOOOXXXX                                                                                                XXXX++OOOOOOOOOO",
"OOOOOOOOOOOOXXXX                                                                                                XXXX++OOOOOOOOOO",
"OOOOOOOOOOOOXXXX                                                                                                XXXX++OOOOOOOOOO",
"OOOOOOOOOOOOXXXX                                                                                                XXXX++OOOOOOOOOO",
"OOOOOOOOOOOOXXXX                                                                                                XXXX++OOOOOOOOOO",
"OOOOOOOOOOOOXXXX                                                                                                XXXX++OOOOOOOOOO",
"OOOOOOOOOOOOXXXX                                                                                                XXXX++OOOOOOOOOO",
"OOOOOOOOOOOOXXXX                                                                                                XXXX++OOOOOOOOOO",
"OOOOOOOOOOOOXXXX                                                                                                XXXX++OOOOOOOOOO",
"OOOOOO++ooOOXXXX                                                                                                XXXX++OO++ooOOOO",
"OOOOOO++ooOOXXXX                                                                                                XXXX++OO++ooOOOO",
"OOOOOOooXXOOXXXX                                                                                                XXXX++OOooXXOOOO",
"OOOOOOooXXOOXXXX                                                                                                XXXX++OOooXXOOOO",
"OOOOOOOOOOOOXXXX                                                                                                XXXX++OOOOOOOOOO",
"OOOOOOOOOOOOXXXX                                                                                                XXXX++OOOOOOOOOO",
"XXXXXXXXXXXXXXXX                                                                                                XXXXXXXXXXXXXXXX",
"XXXXXXXXXXXXXXXX                                                                                                XXXXXXXXXXXXXXXX",
"++++++++++++XXXX                                                                                                XXXX++++++++++++",
"++++++++++++XXXX                                                                                                XXXX++++++++++++",
"OOOOOOOOOOOOXXXX                                                                                                XXXXOOOOOOOOOOOO",
"OOOOOOOOOOOOXXXX                                                                                                XXXXOOOOOOOOOOOO",
"OOOOOOOOOOOOXXXX                                                                                                XXXXOOOOOOOOOOOO",
"OOOOOOOOOOOOXXXX                                                                                                XXXXOOOOOOOOOOOO",
"OOOOOOOOOOOOXXXX                                                                                                XXXXOOOOOOOOOOOO",
"OOOOOOOOOOOOXXXX                                                                                                XXXXOOOOOOOOOOOO",
"OOOOOOOOOOOOXXXX                                                                                                XXXXOOOOOOOOOOOO",
"OOOOOOOOOOOOXXXX                                                                                                XXXXOOOOOOOOOOOO",
"OOOOOOOOOOOOXXXX                                                                                                XXXXOOOOOOOOOOOO",
"OOOOOOOOOOOOXXXX                                                                                                XXXXOOOOOOOOOOOO",
"OOOOOOOOOOOOXXXX                                                                                                XXXXOOOOOOOOOOOO",
"OOOOOOOOOOOOXXXX                                                                                                XXXXOOOOOOOOOOOO",
"XXXXXXXXXXXXXXXX                                                                                                XXXXXXXXXXXXXXXX",
"XXXXXXXXXXXXXXXX                                                                                                XXXXXXXXXXXXXXXX"
};
