/* XPM */
static char *_10e1c0314784ef6a33b5092068b023bMy5MDnc3UsKQZ51z[] = {
/* columns rows colors chars-per-pixel */
"128 128 8 1 ",
"  c None",
". c #000008",
"X c gray20",
"o c #434343",
"O c #535353",
"+ c #777777",
"@ c #7FB717",
"# c gray53",
/* pixels */
"+++++++++++++++++++++++++                                                                              +++++++++++++++++++++++++",
"+++++++++++++++++++++++++                                                                              +++++++++++++++++++++++++",
"OOOOOOOOOOOOOOOOOOOOOOOXX                                                                              XXOOOOOOOOOOOOOOOOOOOOOOO",
"OOOOOOOOOOOOOOOOOOOOOOOXX                                                                              XXOOOOOOOOOOOOOOOOOOOOOOO",
"OOOOOOOOOOOOOOOOOOOOOOOXX                                                                              XXOOOOOOOOOOOOOOOOOOOOOOO",
"OOOOOOOOOOOOOOOOOOOOOOOXX                                                                              XXOOOOOOOOOOOOOOOOOOOOOOO",
"XXXXXXXXXXXXXXXXXXXXXXXXX                                                                              XXXXXXXXXXXXXXXXXXXXXXXXX",
"XXXXXXXXXXXXXXXXXXXXXXXXX                                                                              XXXXXXXXXXXXXXXXXXXXXXXXX",
"+++++++++++++++++++++XXXX                                                                              XXXX##+++++++++++++++++++",
"+++++++++++++++++++++XXXX                                                                              XXXX##+++++++++++++++++++",
"OOOOOOOOOOOOOOOOOOOOOXXXX                                                                              XXXX++OOOOOOOOOOOOOOOOOOO",
"OOOOOOOOOOOOOOOOOOOOOXXXX                                                                              XXXX++OOOOOOOOOOOOOOOOOOO",
"OOOOOOOOOOOOOOO++ooOOXXXX                                                                              XXXX++OO++ooOOOOOOOOOOOOO",
"OOOOOOOOOOOOOOO++ooOOXXXX                                                                              XXXX++OO++ooOOOOOOOOOOOOO",
"OOOOOOOOOOOOOOOooXXOOXXXX                                                                              XXXX++OOooXXOOOOOOOOOOOOO",
"OOOOOOOOOOOOOOOooXXOOXXXX                                                                              XXXX++OOooXXOOOOOOOOOOOOO",
"OOOOOOOOOOOOOOOOOOOOOXXXX                                                                              XXXX++OOOOOOOOOOOOOOOOOOO",
"OOOOOOOOOOOOOOOOOOOOOXXXX                                                                              XXXX++OOOOOOOOOOOOOOOOOOO",
"OOOOOOOOOOOOOOOOOOOOOXXXX                                                                              XXXX++OOOOOOOOOOOOOOOOOOO",
"OOOOOOOOOOOOOOOOOOOOOXXXX                                                                              XXXX++OOOOOOOOOOOOOOOOOOO",
"OOOOOOOOOOOOOOOOOOOOOXXXX                                                                              XXXX++OOOOOOOOOOOOOOOOOOO",
"OOOOOOOOOOOOOOOOOOOOOXXXX                                                                              XXXX++OOOOOOOOOOOOOOOOOOO",
"OOOOOOOOOOOOOOOOOOOOOXXXX                                                                              XXXX++OOOOOOOOOOOOOOOOOOO",
"OOOOOOOOOOOOOOOOOOOOOXXXX                                                                              XXXX++OOOOOOOOOOOOOOOOOOO",
"OOOOOOOOOOOOOOOOOOOOOXXXX                                                                              XXXX++OOOOOOOOOOOOOOOOOOO",
"OOOOOOOOOOOOOOOOOOOOOXXXX                                                                              XXXX++OOOOOOOOOOOOOOOOOOO",
"OOOOOOOOOOOOOOOOOOOOOXXXX                                                                              XXXX++OOOOOOOOOOOOOOOOOOO",
"OOOOOOOOOOOOOOOOOOOOOXXXX                                                                              XXXX++OOOOOOOOOOOOOOOOOOO",
"OOOOOOOOOOOOOOOOOOOOOXXXX                                                                              XXXX++OOOOOOOOOOOOOOOOOOO",
"OOOOOOOOOOOOOOOOOOOOOXXXX                                                                              XXXX++OOOOOOOOOOOOOOOOOOO",
"OOOOOOOOOOOOOOOOOOOOOXXXX                                                                              XXXX++OOOOOOOOOOOOOOOOOOO",
"OOOOOOOOOOOOOOOOOOOOOXXXX                                                                              XXXX++OOOOOOOOOOOOOOOOOOO",
"OOOOOOOOOOOOOOOOOOOOOXXXX                                                                              XXXX++OOOOOOOOOOOOOOOOOOO",
"OOOOOOOOOOOOOOOOOOOOOXXXX                                                                              XXXX++OOOOOOOOOOOOOOOOOOO",
"OOOOOOOOOOOOOOOOOOOOOXXXX                                                                              XXXX++OOOOOOOOOOOOOOOOOOO",
"OOOOOOOOOOOOOOOOOOOOOXXXX                                                                              XXXX++OOOOOOOOOOOOOOOOOOO",
"OOOOOOOOOOOOOOOOOOOOOXXXX                                                                              XXXX++OOOOOOOOOOOOOOOOOOO",
"OOOOOOOOOOOOOOOOOOOOOXXXX                                                                              XXXX++OOOOOOOOOOOOOOOOOOO",
"OOOOOOOOOOOOOOOOOOOOOXXXX                                                                              XXXX++OOOOOOOOOOOOOOOOOOO",
"OOOOOOOOOOOOOOOOOOOOOXXXX                                                                              XXXX++OOOOOOOOOOOOOOOOOOO",
"OOOOOOOOOOOOOOOOOOOOOXXXX                                                                              XXXX++OOOOOOOOOOOOOOOOOOO",
"OOOOOOOOOOOOOOOOOOOOOXXXX                                                                              XXXX++OOOOOOOOOOOOOOOOOOO",
"OOOOOOOOOOOOOOOOOOOOOXXXX                                                                              XXXX++OOOOOOOOOOOOOOOOOOO",
"OOOOOOOOOOOOOOOOOOOOOXXXX                                                                              XXXX++OOOOOOOOOOOOOOOOOOO",
"OOOOOOOOOOOOOOO++ooOOXXXX                                                                              XXXX++OO++ooOOOOOOOOOOOO+",
"OOOOOOOOOOOOOOO++ooOOXXXX                                                                              XXXX++OO++ooOOOOOOOOOOOO+",
"OOOOOOOOOOOOOOOooXXOOXXXX                                                                              XXXX++OOooXXOOOOOOOOOOOO+",
"OOOOOOOOOOOOOOOooXXOOXXXX                                                                              XXXX++OOooXXOOOOOOOOOOOO+",
"OOOOOOOOOOOOOOOOOOOOOXXXX                                                                              XXXX++OOOOOOOOOOOOOOOOOO+",
"OOOOOOOOOOOOOOOOOOOOOXXXX                                                                              XXXX++OOOOOOOOOOOOOOOOOO+",
"XXXXXXXXXXXXXXXXXXXXXXXXX                                                                              XXXXXXXXXXXXXXXXXXXXXXXX+",
"XXXXXXXXXXXXXXXXXXXXXXXXX                                                                              XXXXXXXXXXXXXXXXXXXXXXXX+",
"+++++++++++XX##++++++XXXX                                                                              XX##++++++XXXX##+++++++++",
"+++++++++++XX##++++++XXXX                                                                              XX##++++++XXXX##+++++++++",
"OOOOOOOOOOOXX++OOOOOOXXXX                                                                              XX++OOOOOOXXXX++OOOOOOOO+",
"OOOOOOOOOOOXX++OOOOOOXXXX                                                                              XX++OOOOOOXXXX++OOOOOOOO+",
"OOOOO++ooOOXX++OOOOOOXXXX                                                                              XX++OOOOOOXXXX++OO++ooOO+",
"OOOOO++ooOOXX++OOOOOOXXXX                                                                              XX++OOOOOOXXXX++OO++ooOO+",
"OOOOOooXXOOXX++OOOOOOXXXX                                                                              XX++OOOOOOXXXX++OOooXXOO+",
"OOOOOooXXOOXX++OOOOOOXXXX                                                                              XX++OOOOOOXXXX++OOooXXOO+",
"OOOOOOOOOOOXX++@@@@@@XXXX                                                                              XX++@@@@@@XXXX++OOOOOOOO+",
"OOOOOOOOOOOXX++@@@@@@XXXX                                                                              XX++@@@@@@XXXX++OOOOOOOO+",
"OOOOOOOOOOOXX++@@@@@@XXXX                                                                              XX++@@@@@@XXXX++OOOOOOOO+",
"OOOOOOOOOOOXX++@@@@@@XXXX                                                                              XX++@@@@@@XXXX++OOOOOOOO+",
"OOOOOOOOOOOXX++OOOOOOXXXX                                                                              XX++OOOOOOXXXX++OOOOOOOO+",
"OOOOOOOOOOOXX++OOOOOOXXXX                                                                              XX++OOOOOOXXXX++OOOOOOOO+",
"OOOOOOOOOOOXX++OOXXXXXXXX                                                                              XX++XXXXOOXXXX++OOOOOOOO+",
"OOOOOOOOOOOXX++OOXXXXXXXX                                                                              XX++XXXXOOXXXX++OOOOOOOO+",
"OOOOOOOOOOOXX++OO....XXXX                                                                              XX++....OOXXXX++OOOOOOOO+",
"OOOOOOOOOOOXX++OO....XXXX                                                                              XX++....OOXXXX++OOOOOOOO+",
"OOOOOOOOOOOXX++OO....XXXX                                                                              XX++....OOXXXX++OOOOOOOO+",
"OOOOOOOOOOOXX++OO....XXXX                                                                              XX++....OOXXXX++OOOOOOOO+",
"OOOOOOOOOOOXX++OO....XXXX                                                                              XX++....OOXXXX++OOOOOOOO+",
"OOOOOOOOOOOXX++OO....XXXX                                                                              XX++....OOXXXX++OOOOOOOO+",
"OOOOOOOOOOOXX++OO....XXXX                                                                              XX++....OOXXXX++OOOOOOOO+",
"OOOOOOOOOOOXX++OO....XXXX                                                                              XX++....OOXXXX++OOOOOOOO+",
"OOOOO++ooOOXX++OOOOOOXXXX                                                                              XX++OOOOOOXXXX++OO++ooOOO",
"OOOOO++ooOOXX++OOOOOOXXXX                                                                              XX++OOOOOOXXXX++OO++ooOOO",
"OOOOOooXXOOXXXXXXXXXXXXXX                                                                              XXXXXXXXXXXXXX++OOooXXOOO",
"OOOOOooXXOOXXXXXXXXXXXXXX                                                                              XXXXXXXXXXXXXX++OOooXXOOO",
"OOOOOOOOOOOXXXXXXXXXXXXXX                                                                              XXXXXXXXXXXXXX++OOOOOOOOO",
"OOOOOOOOOOOXXXXXXXXXXXXXX                                                                              XXXXXXXXXXXXXX++OOOOOOOOO",
"XXXXXXXXXXXXXXXXXXXXXXXXX                                                                              XXXXXXXXXXXXXXXXXXXXXXXXX",
"XXXXXXXXXXXXXXXXXXXXXXXXX                                                                              XXXXXXXXXXXXXXXXXXXXXXXXX",
"+++++++++++++++++++++XXXX                                                                              XXXX##+++++++++++++++++++",
"+++++++++++++++++++++XXXX                                                                              XXXX##+++++++++++++++++++",
"OOOOOOOOOOOOOOOOOOOOOXXXX                                                                              XXXX++OOOOOOOOOOOOOOOOOOO",
"OOOOOOOOOOOOOOOOOOOOOXXXX                                                                              XXXX++OOOOOOOOOOOOOOOOOOO",
"OOOOOOOOOOOOOOO++ooOOXXXX                                                                              XXXX++OO++ooOOOOOOOOOOOOO",
"OOOOOOOOOOOOOOO++ooOOXXXX                                                                              XXXX++OO++ooOOOOOOOOOOOOO",
"OOOOOOOOOOOOOOOooXXOOXXXX                                                                              XXXX++OOooXXOOOOOOOOOOOOO",
"OOOOOOOOOOOOOOOooXXOOXXXX                                                                              XXXX++OOooXXOOOOOOOOOOOOO",
"OOOOOOOOOOOOOOOOOOOOOXXXX                                                                              XXXX++OOOOOOOOOOOOOOOOOOO",
"OOOOOOOOOOOOOOOOOOOOOXXXX                                                                              XXXX++OOOOOOOOOOOOOOOOOOO",
"OOOOOOOOOOOOOOOOOOOOOXXXX                                                                              XXXX++OOOOOOOOOOOOOOOOOOO",
"OOOOOOOOOOOOOOOOOOOOOXXXX                                                                              XXXX++OOOOOOOOOOOOOOOOOOO",
"OOOOOOOOOOOOOOOOOOOOOXXXX                                                                              XXXX++OOOOOOOOOOOOOOOOOOO",
"OOOOOOOOOOOOOOOOOOOOOXXXX                                                                              XXXX++OOOOOOOOOOOOOOOOOOO",
"OOOOOOOOOOOOOOOOOOOOOXXXX                                                                              XXXX++OOOOOOOOOOOOOOOOOOO",
"OOOOOOOOOOOOOOOOOOOOOXXXX                                                                              XXXX++OOOOOOOOOOOOOOOOOOO",
"OOOOOOOOOOOOOOOOOOOOOXXXX                                                                              XXXX++OOOOOOOOOOOOOOOOOOO",
"OOOOOOOOOOOOOOOOOOOOOXXXX                                                                              XXXX++OOOOOOOOOOOOOOOOOOO",
"OOOOOOOOOOOOOOOOOOOOOXXXX                                                                              XXXX++OOOOOOOOOOOOOOOOOOO",
"OOOOOOOOOOOOOOOOOOOOOXXXX                                                                              XXXX++OOOOOOOOOOOOOOOOOOO",
"OOOOOOOOOOOOOOO++ooOOXXXX                                                                              XXXX++OO++ooOOOOOOOOOOOOO",
"OOOOOOOOOOOOOOO++ooOOXXXX                                                                              XXXX++OO++ooOOOOOOOOOOOOO",
"OOOOOOOOOOOOOOOooXXOOXXXX                                                                              XXXX++OOooXXOOOOOOOOOOOOO",
"OOOOOOOOOOOOOOOooXXOOXXXX                                                                              XXXX++OOooXXOOOOOOOOOOOOO",
"OOOOOOOOOOOOOOOOOOOOOXXXX                                                                              XXXX++OOOOOOOOOOOOOOOOOOO",
"OOOOOOOOOOOOOOOOOOOOOXXXX                                                                              XXXX++OOOOOOOOOOOOOOOOOOO",
"XXXXXXXXXXXXXXXXXXXXXXXXX                                                                              XXXXXXXXXXXXXXXXXXXXXXXXX",
"XXXXXXXXXXXXXXXXXXXXXXXXX                                                                              XXXXXXXXXXXXXXXXXXXXXXXXX",
"+++++++++++++++++++++XXXX                                                                              XXXX+++++++++++++++++++++",
"+++++++++++++++++++++XXXX                                                                              XXXX+++++++++++++++++++++",
"OOOOOOOOOOOOOOOOOOOOOXXXX                                                                              XXXXOOOOOOOOOOOOOOOOOOOOO",
"OOOOOOOOOOOOOOOOOOOOOXXXX                                                                              XXXXOOOOOOOOOOOOOOOOOOOOO",
"OOOOOOOOOOOOOOOOOOOOOXXXX                                                                              XXXXOOOOOOOOOOOOOOOOOOOOO",
"OOOOOOOOOOOOOOOOOOOOOXXXX                                                                              XXXXOOOOOOOOOOOOOOOOOOOOO",
"OOOOOOOOOOOOOOOOOOOOOXXXX                                                                              XXXXOOOOOOOOOOOOOOOOOOOOO",
"OOOOOOOOOOOOOOOOOOOOOXXXX                                                                              XXXXOOOOOOOOOOOOOOOOOOOOO",
"OOOOOOOOOOOOOOOOOOOOOXXXX                                                                              XXXXOOOOOOOOOOOOOOOOOOOOO",
"OOOOOOOOOOOOOOOOOOOOOXXXX                                                                              XXXXOOOOOOOOOOOOOOOOOOOOO",
"OOOOOOOOOOOOOOOOOOOOOXXXX                                                                              XXXXOOOOOOOOOOOOOOOOOOOOO",
"OOOOOOOOOOOOOOOOOOOOOXXXX                                                                              XXXXOOOOOOOOOOOOOOOOOOOOO",
"OOOOOOOOOOOOOOOOOOOOOXXXX                                                                              XXXXOOOOOOOOOOOOOOOOOOOOO",
"OOOOOOOOOOOOOOOOOOOOOXXXX                                                                              XXXXOOOOOOOOOOOOOOOOOOOOO",
"XXXXXXXXXXXXXXXXXXXXXXXXX                                                                              XXXXXXXXXXXXXXXXXXXXXXXXX",
"XXXXXXXXXXXXXXXXXXXXXXXXX                                                                              XXXXXXXXXXXXXXXXXXXXXXXXX"
};
