/* XPM */
static char *b6e945bf81a94402d66d9615907b6598od34QNfmJBhkwieA[] = {
/* columns rows colors chars-per-pixel */
"128 128 8 1 ",
"  c None",
". c #000008",
"X c gray20",
"o c #434343",
"O c #535353",
"+ c #777777",
"@ c #7FB717",
"# c gray53",
/* pixels */
"++++++++                                                                                                                ++++++++",
"++++++++                                                                                                                ++++++++",
"OOOOOOXX                                                                                                                XXOOOOOO",
"OOOOOOXX                                                                                                                XXOOOOOO",
"OOOOOOXX                                                                                                                XXOOOOOO",
"OOOOOOXX                                                                                                                XXOOOOOO",
"XXXXXXXX                                                                                                                XXXXXXXX",
"XXXXXXXX                                                                                                                XXXXXXXX",
"++++XXXX                                                                                                                XXXX##++",
"++++XXXX                                                                                                                XXXX##++",
"OOOOXXXX                                                                                                                XXXX++OO",
"OOOOXXXX                                                                                                                XXXX++OO",
"ooOOXXXX                                                                                                                XXXX++OO",
"ooOOXXXX                                                                                                                XXXX++OO",
"XXOOXXXX                                                                                                                XXXX++OO",
"XXOOXXXX                                                                                                                XXXX++OO",
"OOOOXXXX                                                                                                                XXXX++OO",
"OOOOXXXX                                                                                                                XXXX++OO",
"OOOOXXXX                                                                                                                XXXX++OO",
"OOOOXXXX                                                                                                                XXXX++OO",
"OOOOXXXX                                                                                                                XXXX++OO",
"OOOOXXXX                                                                                                                XXXX++OO",
"OOOOXXXX                                                                                                                XXXX++OO",
"OOOOXXXX                                                                                                                XXXX++OO",
"OOOOXXXX                                                                                                                XXXX++OO",
"OOOOXXXX                                                                                                                XXXX++OO",
"OOOOXXXX                                                                                                                XXXX++OO",
"OOOOXXXX                                                                                                                XXXX++OO",
"OOOOXXXX                                                                                                                XXXX++OO",
"OOOOXXXX                                                                                                                XXXX++OO",
"OOOOXXXX                                                                                                                XXXX++OO",
"OOOOXXXX                                                                                                                XXXX++OO",
"OOOOXXXX                                                                                                                XXXX++OO",
"OOOOXXXX                                                                                                                XXXX++OO",
"OOOOXXXX                                                                                                                XXXX++OO",
"OOOOXXXX                                                                                                                XXXX++OO",
"OOOOXXXX                                                                                                                XXXX++OO",
"OOOOXXXX                                                                                                                XXXX++OO",
"OOOOXXXX                                                                                                                XXXX++OO",
"OOOOXXXX                                                                                                                XXXX++OO",
"OOOOXXXX                                                                                                                XXXX++OO",
"OOOOXXXX                                                                                                                XXXX++OO",
"OOOOXXXX                                                                                                                XXXX++OO",
"OOOOXXXX                                                                                                                XXXX++OO",
"ooOOXXXX                                                                                                                XXXX++OO",
"ooOOXXXX                                                                                                                XXXX++OO",
"XXOOXXXX                                                                                                                XXXX++OO",
"XXOOXXXX                                                                                                                XXXX++OO",
"OOOOXXXX                                                                                                                XXXX++OO",
"OOOOXXXX                                                                                                                XXXX++OO",
"XXXXXXXX                                                                                                                XXXXXXXX",
"XXXXXXXX                                                                                                                XXXXXXXX",
"++++XXXX                                                                                                                XX##++++",
"++++XXXX                                                                                                                XX##++++",
"OOOOXXXX                                                                                                                XX++OOOO",
"OOOOXXXX                                                                                                                XX++OOOO",
"OOOOXXXX                                                                                                                XX++OOOO",
"OOOOXXXX                                                                                                                XX++OOOO",
"OOOOXXXX                                                                                                                XX++OOOO",
"OOOOXXXX                                                                                                                XX++OOOO",
"@@@@XXXX                                                                                                                XX++@@@@",
"@@@@XXXX                                                                                                                XX++@@@@",
"@@@@XXXX                                                                                                                XX++@@@@",
"@@@@XXXX                                                                                                                XX++@@@@",
"OOOOXXXX                                                                                                                XX++OOOO",
"OOOOXXXX                                                                                                                XX++OOOO",
"XXXXXXXX                                                                                                                XX++XXXX",
"XXXXXXXX                                                                                                                XX++XXXX",
"....XXXX                                                                                                                XX++....",
"....XXXX                                                                                                                XX++....",
"....XXXX                                                                                                                XX++....",
"....XXXX                                                                                                                XX++....",
"....XXXX                                                                                                                XX++....",
"....XXXX                                                                                                                XX++....",
"....XXXX                                                                                                                XX++....",
"....XXXX                                                                                                                XX++....",
"OOOOXXXX                                                                                                                XX++OOOO",
"OOOOXXXX                                                                                                                XX++OOOO",
"XXXXXXXX                                                                                                                XXXXXXXX",
"XXXXXXXX                                                                                                                XXXXXXXX",
"XXXXXXXX                                                                                                                XXXXXXXX",
"XXXXXXXX                                                                                                                XXXXXXXX",
"XXXXXXXX                                                                                                                XXXXXXXX",
"XXXXXXXX                                                                                                                XXXXXXXX",
"++++XXXX                                                                                                                XXXX##++",
"++++XXXX                                                                                                                XXXX##++",
"OOOOXXXX                                                                                                                XXXX++OO",
"OOOOXXXX                                                                                                                XXXX++OO",
"ooOOXXXX                                                                                                                XXXX++OO",
"ooOOXXXX                                                                                                                XXXX++OO",
"XXOOXXXX                                                                                                                XXXX++OO",
"XXOOXXXX                                                                                                                XXXX++OO",
"OOOOXXXX                                                                                                                XXXX++OO",
"OOOOXXXX                                                                                                                XXXX++OO",
"OOOOXXXX                                                                                                                XXXX++OO",
"OOOOXXXX                                                                                                                XXXX++OO",
"OOOOXXXX                                                                                                                XXXX++OO",
"OOOOXXXX                                                                                                                XXXX++OO",
"OOOOXXXX                                                                                                                XXXX++OO",
"OOOOXXXX                                                                                                                XXXX++OO",
"OOOOXXXX                                                                                                                XXXX++OO",
"OOOOXXXX                                                                                                                XXXX++OO",
"OOOOXXXX                                                                                                                XXXX++OO",
"OOOOXXXX                                                                                                                XXXX++OO",
"ooOOXXXX                                                                                                                XXXX++OO",
"ooOOXXXX                                                                                                                XXXX++OO",
"XXOOXXXX                                                                                                                XXXX++OO",
"XXOOXXXX                                                                                                                XXXX++OO",
"OOOOXXXX                                                                                                                XXXX++OO",
"OOOOXXXX                                                                                                                XXXX++OO",
"XXXXXXXX                                                                                                                XXXXXXXX",
"XXXXXXXX                                                                                                                XXXXXXXX",
"++++XXXX                                                                                                                XXXX++++",
"++++XXXX                                                                                                                XXXX++++",
"OOOOXXXX                                                                                                                XXXXOOOO",
"OOOOXXXX                                                                                                                XXXXOOOO",
"OOOOXXXX                                                                                                                XXXXOOOO",
"OOOOXXXX                                                                                                                XXXXOOOO",
"OOOOXXXX                                                                                                                XXXXOOOO",
"OOOOXXXX                                                                                                                XXXXOOOO",
"OOOOXXXX                                                                                                                XXXXOOOO",
"OOOOXXXX                                                                                                                XXXXOOOO",
"OOOOXXXX                                                                                                                XXXXOOOO",
"OOOOXXXX                                                                                                                XXXXOOOO",
"OOOOXXXX                                                                                                                XXXXOOOO",
"OOOOXXXX                                                                                                                XXXXOOOO",
"XXXXXXXX                                                                                                                XXXXXXXX",
"XXXXXXXX                                                                                                                XXXXXXXX"
};
