/* XPM */
static char *dc232912eed7481cbc21af51a3c58de7ZbpXjO6uig3fKM6i[] = {
/* columns rows colors chars-per-pixel */
"128 128 12 1 ",
"  c None",
". c #000008",
"X c gray20",
"o c #434343",
"O c #535353",
"+ c #777777",
"@ c #5F9B00",
"# c #7FB717",
"$ c #A3D337",
"% c #C7EF63",
"& c gray53",
"* c #979797",
/* pixels */
"+++++++++++++++++++++++++++++++++++++++++++                                          +++++++++++++++++++++++++++++++++++++++++++",
"+++++++++++++++++++++++++++++++++++++++++++                                          +++++++++++++++++++++++++++++++++++++++++++",
"OOOOOOOOOOOOOOOOOOOOOOOOOOOOOOOOOOOOOOOOOXX                                          XXOOOOOOOOOOOOOOOOOOOOOOOOOOOOOOOOOOOOOOOOO",
"OOOOOOOOOOOOOOOOOOOOOOOOOOOOOOOOOOOOOOOOOXX                                          XXOOOOOOOOOOOOOOOOOOOOOOOOOOOOOOOOOOOOOOOOO",
"OOOOOOOOOOOOOOOOOOOOOOOOOOOOOOOOOOOOOOOOOXX                                          XXOOOOOOOOOOOOOOOOOOOOOOOOOOOOOOOOOOOOOOOOO",
"OOOOOOOOOOOOOOOOOOOOOOOOOOOOOOOOOOOOOOOOOXX                                          XXOOOOOOOOOOOOOOOOOOOOOOOOOOOOOOOOOOOOOOOOO",
"XXXXXXXXXXXXXXXXXXXXXXXXXXXXXXXXXXXXXXXXXXX                                          XXXXXXXXXXXXXXXXXXXXXXXXXXXXXXXXXXXXXXXXXXX",
"XXXXXXXXXXXXXXXXXXXXXXXXXXXXXXXXXXXXXXXXXXX                                          XXXXXXXXXXXXXXXXXXXXXXXXXXXXXXXXXXXXXXXXXXX",
"+++++++++++++++++++++++++++++++++++++++XXXX                                          XXXX&&+++++++++++++++++++++++++++++++++++++",
"+++++++++++++++++++++++++++++++++++++++XXXX                                          XXXX&&+++++++++++++++++++++++++++++++++++++",
"OOOOOOOOOOOOOOOOOOOOOOOOOOOOOOOOOOOOOOOXXXX                                          XXXX++OOOOOOOOOOOOOOOOOOOOOOOOOOOOOOOOOOOOO",
"OOOOOOOOOOOOOOOOOOOOOOOOOOOOOOOOOOOOOOOXXXX                                          XXXX++OOOOOOOOOOOOOOOOOOOOOOOOOOOOOOOOOOOOO",
"OOOOOOOOOOOOOOOOOOOOOOOOOOOOOOOOO++ooOOXXXX                                          XXXX++OO++ooOOOOOOOOOOOOOOOOOOOOOOOOOOOOOOO",
"OOOOOOOOOOOOOOOOOOOOOOOOOOOOOOOOO++ooOOXXXX                                          XXXX++OO++ooOOOOOOOOOOOOOOOOOOOOOOOOOOOOOOO",
"OOOOOOOOOOOOOOOOOOOOOOOOOOOOOOOOOooXXOOXXXX                                          XXXX++OOooXXOOOOOOOOOOOOOOOOOOOOOOOOOOOOOOO",
"OOOOOOOOOOOOOOOOOOOOOOOOOOOOOOOOOooXXOOXXXX                                          XXXX++OOooXXOOOOOOOOOOOOOOOOOOOOOOOOOOOOOOO",
"OOOOOOOOOOOOOOOOOOOOOOOOOOOOOOOOOOOOOOOXXXX                                          XXXX++OOOOOOOOOOOOOOOOOOOOOOOOOOOOOOOOOOOOO",
"OOOOOOOOOOOOOOOOOOOOOOOOOOOOOOOOOOOOOOOXXXX                                          XXXX++OOOOOOOOOOOOOOOOOOOOOOOOOOOOOOOOOOOOO",
"OOOOOOOOOOOOOOOOOOOOOOOOOOOOOOOOOOOOOOOXXXX                                          XXXX++OOOOOOOOOOOOOOOOOOOOOOOOOOOOOOOOOOOOO",
"OOOOOOOOOOOOOOOOOOOOOOOOOOOOOOOOOOOOOOOXXXX                                          XXXX++OOOOOOOOOOOOOOOOOOOOOOOOOOOOOOOOOOOOO",
"OOOOOOOOOOOOOOOOOOOOOOOOOOOOOOOOOOOOOOOXXXX                                          XXXX++OOOOOOOOOOOOOOOOOOOOOOOOOOOOOOOOOOOOO",
"OOOOOOOOOOOOOOOOOOOOOOOOOOOOOOOOOOOOOOOXXXX                                          XXXX++OOOOOOOOOOOOOOOOOOOOOOOOOOOOOOOOOOOOO",
"OOOOOOOOOOOOOOOOOOOOOOOOOOOOOOOOOOOOOOOXXXX                                          XXXX++OOOOOOOOOOOOOOOOOOOOOOOOOOOOOOOOOOOOO",
"OOOOOOOOOOOOOOOOOOOOOOOOOOOOOOOOOOOOOOOXXXX                                          XXXX++OOOOOOOOOOOOOOOOOOOOOOOOOOOOOOOOOOOOO",
"OOOOOOOOOOOOOOOOOOOOOOOOOOOOOOOOOOOOOOOXXXX                                          XXXX++OOOOOOOOOOOOOOOOOOOOOOOOOOOOOOOOOOOOO",
"OOOOOOOOOOOOOOOOOOOOOOOOOOOOOOOOOOOOOOOXXXX                                          XXXX++OOOOOOOOOOOOOOOOOOOOOOOOOOOOOOOOOOOOO",
"OOOOOOOOOOOOOOOOOOOOOOOOOOOOOOOOOOOOOOOXXXX                                          XXXX++OOOOOOOOOOOOOOOOOOOOOOOOOOOOOOOOOOOOO",
"OOOOOOOOOOOOOOOOOOOOOOOOOOOOOOOOOOOOOOOXXXX                                          XXXX++OOOOOOOOOOOOOOOOOOOOOOOOOOOOOOOOOOOOO",
"OOOOOOOOOOOOOOOOOOOOOOOOOOOOOOOOOOOOOOOXXXX                                          XXXX++OOOOOOOOOOOOOOOOOOOOOOOOOOOOOOOOOOOOO",
"OOOOOOOOOOOOOOOOOOOOOOOOOOOOOOOOOOOOOOOXXXX                                          XXXX++OOOOOOOOOOOOOOOOOOOOOOOOOOOOOOOOOOOOO",
"OOOOOOOOOOOOOOOOOOOOOOOOOOOOOOOOOOOOOOOXXXX                                          XXXX++OOOOOOOOOOOOOOOOOOOOOOOOOOOOOOOOOOOOO",
"OOOOOOOOOOOOOOOOOOOOOOOOOOOOOOOOOOOOOOOXXXX                                          XXXX++OOOOOOOOOOOOOOOOOOOOOOOOOOOOOOOOOOOOO",
"OOOOOOOOOOOOOOOOOOOOOOOOOOOOOOOOOOOOOOOXXXX                                          XXXX++OOOOOOOOOOOOOOOOOOOOOOOOOOOOOOOOOOOOO",
"OOOOOOOOOOOOOOOOOOOOOOOOOOOOOOOOOOOOOOOXXXX                                          XXXX++OOOOOOOOOOOOOOOOOOOOOOOOOOOOOOOOOOOOO",
"OOOOOOOOOOOOOOOOOOOOOOOOOOOOOOOOOOOOOOOXXXX                                          XXXX++OOOOOOOOOOOOOOOOOOOOOOOOOOOOOOOOOOOOO",
"OOOOOOOOOOOOOOOOOOOOOOOOOOOOOOOOOOOOOOOXXXX                                          XXXX++OOOOOOOOOOOOOOOOOOOOOOOOOOOOOOOOOOOOO",
"OOOOOOOOOOOOOOOOOOOOOOOOOOOOOOOOOOOOOOOXXXX                                          XXXX++OOOOOOOOOOOOOOOOOOOOOOOOOOOOOOOOOOOOO",
"OOOOOOOOOOOOOOOOOOOOOOOOOOOOOOOOOOOOOOOXXXX                                          XXXX++OOOOOOOOOOOOOOOOOOOOOOOOOOOOOOOOOOOOO",
"OOOOOOOOOOOOOOOOOOOOOOOOOOOOOOOOOOOOOOOXXXX                                          XXXX++OOOOOOOOOOOOOOOOOOOOOOOOOOOOOOOOOOOOO",
"OOOOOOOOOOOOOOOOOOOOOOOOOOOOOOOOOOOOOOOXXXX                                          XXXX++OOOOOOOOOOOOOOOOOOOOOOOOOOOOOOOOOOOOO",
"OOOOOOOOOOOOOOOOOOOOOOOOOOOOOOOOOOOOOOOXXXX                                          XXXX++OOOOOOOOOOOOOOOOOOOOOOOOOOOOOOOOOOOOO",
"OOOOOOOOOOOOOOOOOOOOOOOOOOOOOOOOOOOOOOOXXXX                                          XXXX++OOOOOOOOOOOOOOOOOOOOOOOOOOOOOOOOOOOOO",
"OOOOOOOOOOOOOOOOOOOOOOOOOOOOOOOOOOOOOOOXXXX                                          XXXX++OOOOOOOOOOOOOOOOOOOO+++++++++++++++++",
"OOOOOOOOOOOOOOOOOOOOOOOOOOOOOOOOOOOOOOOXXXX                                          XXXX++OOOOOOOOOOOOOOOOOOOO+++++++++++++++++",
"OOOOOOOOOOOOOOOOOOOOOOOOOOOOOOOOO++ooOOXXXX                                          XXXX++OO++ooOOOOOOOOOOOO++.................",
"OOOOOOOOOOOOOOOOOOOOOOOOOOOOOOOOO++ooOOXXXX                                          XXXX++OO++ooOOOOOOOOOOOO++.................",
"OOOOOOOOOOOOOOOOOOOOOOOOOOOOOOOOOooXXOOXXXX                                          XXXX++OOooXXOOOOOOOOOOOO++..............XX.",
"OOOOOOOOOOOOOOOOOOOOOOOOOOOOOOOOOooXXOOXXXX                                          XXXX++OOooXXOOOOOOOOOOOO++..............XX.",
"OOOOOOOOOOOOOOOOOOOOOOOOOOOOOOOOOOOOOOOXXXX                                          XXXX++OOOOOOOOOOOOOOOOOO++....%%$$$$##..OO.",
"OOOOOOOOOOOOOOOOOOOOOOOOOOOOOOOOOOOOOOOXXXX                                          XXXX++OOOOOOOOOOOOOOOOOO++....%%$$$$##..OO.",
"XXXXXXXXXXXXXXXXXXXXXXXXXXXXXXXXXXXXXXXXXXX                                          XXXXXXXXXXXXXXXXXXXXXXXX++....$$####@@..++.",
"XXXXXXXXXXXXXXXXXXXXXXXXXXXXXXXXXXXXXXXXXXX                                          XXXXXXXXXXXXXXXXXXXXXXXX++....$$####@@..++.",
"+++++++++++++++++++++++++++++XX&&++++++XXXX                                          XX&&++++++XXXX&&++++++++++....$$####@@..++.",
"+++++++++++++++++++++++++++++XX&&++++++XXXX                                          XX&&++++++XXXX&&++++++++++....$$####@@..++.",
"OOOOOOOOOOOOOOOOOOOOOOOOOOOOOXX++OOOOOOXXXX                                          XX++OOOOOOXXXX++OOOOOOOO++....$$####@@..**.",
"OOOOOOOOOOOOOOOOOOOOOOOOOOOOOXX++OOOOOOXXXX                                          XX++OOOOOOXXXX++OOOOOOOO++....$$####@@..**.",
"OOOOOOOOOOOOOOOOOOOOOOO++ooOOXX++OOOOOOXXXX                                          XX++OOOOOOXXXX++OO++ooOO++....##@@@@@@..**.",
"OOOOOOOOOOOOOOOOOOOOOOO++ooOOXX++OOOOOOXXXX                                          XX++OOOOOOXXXX++OO++ooOO++....##@@@@@@..**.",
"OOOOOOOOOOOOOOOOOOOOOOOooXXOOXX++OOOOOOXXXX                                          XX++OOOOOOXXXX++OOooXXOO++..............**.",
"OOOOOOOOOOOOOOOOOOOOOOOooXXOOXX++OOOOOOXXXX                                          XX++OOOOOOXXXX++OOooXXOO++..............**.",
"OOOOOOOOOOOOOOOOOOOOOOOOOOOOOXX++######XXXX                                          XX++######XXXX++OOOOOOOO++....++++OOoo..++.",
"OOOOOOOOOOOOOOOOOOOOOOOOOOOOOXX++######XXXX                                          XX++######XXXX++OOOOOOOO++....++++OOoo..++.",
"OOOOOOOOOOOOOOOOOOOOOOOOOOOOOXX++######XXXX                                          XX++######XXXX++OOOOOOOO++....++OOooXX..++.",
"OOOOOOOOOOOOOOOOOOOOOOOOOOOOOXX++######XXXX                                          XX++######XXXX++OOOOOOOO++....++OOooXX..++.",
"OOOOOOOOOOOOOOOOOOOOOOOOOOOOOXX++OOOOOOXXXX                                          XX++OOOOOOXXXX++OOOOOOOO++..............++.",
"OOOOOOOOOOOOOOOOOOOOOOOOOOOOOXX++OOOOOOXXXX                                          XX++OOOOOOXXXX++OOOOOOOO++..............++.",
"OOOOOOOOOOOOOOOOOOOOOOOOOOOOOXX++OOXXXXXXXX                                          XX++XXXXOOXXXX++OOOOOOOO++....++++OOoo..OO.",
"OOOOOOOOOOOOOOOOOOOOOOOOOOOOOXX++OOXXXXXXXX                                          XX++XXXXOOXXXX++OOOOOOOO++....++++OOoo..OO.",
"OOOOOOOOOOOOOOOOOOOOOOOOOOOOOXX++OO....XXXX                                          XX++....OOXXXX++OOOOOOOO++....++OOooXX..OO.",
"OOOOOOOOOOOOOOOOOOOOOOOOOOOOOXX++OO....XXXX                                          XX++....OOXXXX++OOOOOOOO++....++OOooXX..OO.",
"OOOOOOOOOOOOOOOOOOOOOOOOOOOOOXX++OO....XXXX                                          XX++....OOXXXX++OOOOOOOO++..............oo.",
"OOOOOOOOOOOOOOOOOOOOOOOOOOOOOXX++OO....XXXX                                          XX++....OOXXXX++OOOOOOOO++..............oo.",
"OOOOOOOOOOOOOOOOOOOOOOOOOOOOOXX++OO....XXXX                                          XX++....OOXXXX++OOOOOOOO++..............XX.",
"OOOOOOOOOOOOOOOOOOOOOOOOOOOOOXX++OO....XXXX                                          XX++....OOXXXX++OOOOOOOO++..............XX.",
"OOOOOOOOOOOOOOOOOOOOOOOOOOOOOXX++OO....XXXX                                          XX++....OOXXXX++OOOOOOOO++.................",
"OOOOOOOOOOOOOOOOOOOOOOOOOOOOOXX++OO....XXXX                                          XX++....OOXXXX++OOOOOOOO++.................",
"OOOOOOOOOOOOOOOOOOOOOOO++ooOOXX++OOOOOOXXXX                                          XX++OOOOOOXXXX++OO++ooOOOOXXXXXXXXXXXXXXXXX",
"OOOOOOOOOOOOOOOOOOOOOOO++ooOOXX++OOOOOOXXXX                                          XX++OOOOOOXXXX++OO++ooOOOOXXXXXXXXXXXXXXXXX",
"OOOOOOOOOOOOOOOOOOOOOOOooXXOOXXXXXXXXXXXXXX                                          XXXXXXXXXXXXXX++OOooXXOOOOOOOOOOOOOOOOOOOOO",
"OOOOOOOOOOOOOOOOOOOOOOOooXXOOXXXXXXXXXXXXXX                                          XXXXXXXXXXXXXX++OOooXXOOOOOOOOOOOOOOOOOOOOO",
"OOOOOOOOOOOOOOOOOOOOOOOOOOOOOXXXXXXXXXXXXXX                                          XXXXXXXXXXXXXX++OOOOOOOOOOOOOOOOOOOOOOOOOOO",
"OOOOOOOOOOOOOOOOOOOOOOOOOOOOOXXXXXXXXXXXXXX                                          XXXXXXXXXXXXXX++OOOOOOOOOOOOOOOOOOOOOOOOOOO",
"XXXXXXXXXXXXXXXXXXXXXXXXXXXXXXXXXXXXXXXXXXX                                          XXXXXXXXXXXXXXXXXXXXXXXXXXXXXXXXXXXXXXXXXXX",
"XXXXXXXXXXXXXXXXXXXXXXXXXXXXXXXXXXXXXXXXXXX                                          XXXXXXXXXXXXXXXXXXXXXXXXXXXXXXXXXXXXXXXXXXX",
"+++++++++++++++++++++++++++++++++++++++XXXX                                          XXXX&&+++++++++++++++++++++++++++++++++++++",
"+++++++++++++++++++++++++++++++++++++++XXXX                                          XXXX&&+++++++++++++++++++++++++++++++++++++",
"OOOOOOOOOOOOOOOOOOOOOOOOOOOOOOOOOOOOOOOXXXX                                          XXXX++OOOOOOOOOOOOOOOOOOOOOOOOOOOOOOOOOOOOO",
"OOOOOOOOOOOOOOOOOOOOOOOOOOOOOOOOOOOOOOOXXXX                                          XXXX++OOOOOOOOOOOOOOOOOOOOOOOOOOOOOOOOOOOOO",
"OOOOOOOOOOOOOOOOOOOOOOOOOOOOOOOOO++ooOOXXXX                                          XXXX++OO++ooOOOOOOOOOOOOOOOOOOOOOOOOOOOOOOO",
"OOOOOOOOOOOOOOOOOOOOOOOOOOOOOOOOO++ooOOXXXX                                          XXXX++OO++ooOOOOOOOOOOOOOOOOOOOOOOOOOOOOOOO",
"OOOOOOOOOOOOOOOOOOOOOOOOOOOOOOOOOooXXOOXXXX                                          XXXX++OOooXXOOOOOOOOOOOOOOOOOOOOOOOOOOOOOOO",
"OOOOOOOOOOOOOOOOOOOOOOOOOOOOOOOOOooXXOOXXXX                                          XXXX++OOooXXOOOOOOOOOOOOOOOOOOOOOOOOOOOOOOO",
"OOOOOOOOOOOOOOOOOOOOOOOOOOOOOOOOOOOOOOOXXXX                                          XXXX++OOOOOOOOOOOOOOOOOOOOOOOOOOOOOOOOOOOOO",
"OOOOOOOOOOOOOOOOOOOOOOOOOOOOOOOOOOOOOOOXXXX                                          XXXX++OOOOOOOOOOOOOOOOOOOOOOOOOOOOOOOOOOOOO",
"OOOOOOOOOOOOOOOOOOOOOOOOOOOOOOOOOOOOOOOXXXX                                          XXXX++OOOOOOOOOOOOOOOOOOOOOOOOOOOOOOOOOOOOO",
"OOOOOOOOOOOOOOOOOOOOOOOOOOOOOOOOOOOOOOOXXXX                                          XXXX++OOOOOOOOOOOOOOOOOOOOOOOOOOOOOOOOOOOOO",
"OOOOOOOOOOOOOOOOOOOOOOOOOOOOOOOOOOOOOOOXXXX                                          XXXX++OOOOOOOOOOOOOOOOOOOOOOOOOOOOOOOOOOOOO",
"OOOOOOOOOOOOOOOOOOOOOOOOOOOOOOOOOOOOOOOXXXX                                          XXXX++OOOOOOOOOOOOOOOOOOOOOOOOOOOOOOOOOOOOO",
"OOOOOOOOOOOOOOOOOOOOOOOOOOOOOOOOOOOOOOOXXXX                                          XXXX++OOOOOOOOOOOOOOOOOOOOOOOOOOOOOOOOOOOOO",
"OOOOOOOOOOOOOOOOOOOOOOOOOOOOOOOOOOOOOOOXXXX                                          XXXX++OOOOOOOOOOOOOOOOOOOOOOOOOOOOOOOOOOOOO",
"OOOOOOOOOOOOOOOOOOOOOOOOOOOOOOOOOOOOOOOXXXX                                          XXXX++OOOOOOOOOOOOOOOOOOOOOOOOOOOOOOOOOOOOO",
"OOOOOOOOOOOOOOOOOOOOOOOOOOOOOOOOOOOOOOOXXXX                                          XXXX++OOOOOOOOOOOOOOOOOOOOOOOOOOOOOOOOOOOOO",
"OOOOOOOOOOOOOOOOOOOOOOOOOOOOOOOOOOOOOOOXXXX                                          XXXX++OOOOOOOOOOOOOOOOOOOOOOOOOOOOOOOOOOOOO",
"OOOOOOOOOOOOOOOOOOOOOOOOOOOOOOOOOOOOOOOXXXX                                          XXXX++OOOOOOOOOOOOOOOOOOOOOOOOOOOOOOOOOOOOO",
"OOOOOOOOOOOOOOOOOOOOOOOOOOOOOOOOO++ooOOXXXX                                          XXXX++OO++ooOOOOOOOOOOOOOOOOOOOOOOOOOOOOOOO",
"OOOOOOOOOOOOOOOOOOOOOOOOOOOOOOOOO++ooOOXXXX                                          XXXX++OO++ooOOOOOOOOOOOOOOOOOOOOOOOOOOOOOOO",
"OOOOOOOOOOOOOOOOOOOOOOOOOOOOOOOOOooXXOOXXXX                                          XXXX++OOooXXOOOOOOOOOOOOOOOOOOOOOOOOOOOOOOO",
"OOOOOOOOOOOOOOOOOOOOOOOOOOOOOOOOOooXXOOXXXX                                          XXXX++OOooXXOOOOOOOOOOOOOOOOOOOOOOOOOOOOOOO",
"OOOOOOOOOOOOOOOOOOOOOOOOOOOOOOOOOOOOOOOXXXX                                          XXXX++OOOOOOOOOOOOOOOOOOOOOOOOOOOOOOOOOOOOO",
"OOOOOOOOOOOOOOOOOOOOOOOOOOOOOOOOOOOOOOOXXXX                                          XXXX++OOOOOOOOOOOOOOOOOOOOOOOOOOOOOOOOOOOOO",
"XXXXXXXXXXXXXXXXXXXXXXXXXXXXXXXXXXXXXXXXXXX                                          XXXXXXXXXXXXXXXXXXXXXXXXXXXXXXXXXXXXXXXXXXX",
"XXXXXXXXXXXXXXXXXXXXXXXXXXXXXXXXXXXXXXXXXXX                                          XXXXXXXXXXXXXXXXXXXXXXXXXXXXXXXXXXXXXXXXXXX",
"+++++++++++++++++++++++++++++++++++++++XXXX                                          XXXX+++++++++++++++++++++++++++++++++++++++",
"+++++++++++++++++++++++++++++++++++++++XXXX                                          XXXX+++++++++++++++++++++++++++++++++++++++",
"OOOOOOOOOOOOOOOOOOOOOOOOOOOOOOOOOOOOOOOXXXX                                          XXXXOOOOOOOOOOOOOOOOOOOOOOOOOOOOOOOOOOOOOOO",
"OOOOOOOOOOOOOOOOOOOOOOOOOOOOOOOOOOOOOOOXXXX                                          XXXXOOOOOOOOOOOOOOOOOOOOOOOOOOOOOOOOOOOOOOO",
"OOOOOOOOOOOOOOOOOOOOOOOOOOOOOOOOOOOOOOOXXXX                                          XXXXOOOOOOOOOOOOOOOOOOOOOOOOOOOOOOOOOOOOOOO",
"OOOOOOOOOOOOOOOOOOOOOOOOOOOOOOOOOOOOOOOXXXX                                          XXXXOOOOOOOOOOOOOOOOOOOOOOOOOOOOOOOOOOOOOOO",
"OOOOOOOOOOOOOOOOOOOOOOOOOOOOOOOOOOOOOOOXXXX                                          XXXXOOOOOOOOOOOOOOOOOOOOOOOOOOOOOOOOOOOOOOO",
"OOOOOOOOOOOOOOOOOOOOOOOOOOOOOOOOOOOOOOOXXXX                                          XXXXOOOOOOOOOOOOOOOOOOOOOOOOOOOOOOOOOOOOOOO",
"OOOOOOOOOOOOOOOOOOOOOOOOOOOOOOOOOOOOOOOXXXX                                          XXXXOOOOOOOOOOOOOOOOOOOOOOOOOOOOOOOOOOOOOOO",
"OOOOOOOOOOOOOOOOOOOOOOOOOOOOOOOOOOOOOOOXXXX                                          XXXXOOOOOOOOOOOOOOOOOOOOOOOOOOOOOOOOOOOOOOO",
"OOOOOOOOOOOOOOOOOOOOOOOOOOOOOOOOOOOOOOOXXXX                                          XXXXOOOOOOOOOOOOOOOOOOOOOOOOOOOOOOOOOOOOOOO",
"OOOOOOOOOOOOOOOOOOOOOOOOOOOOOOOOOOOOOOOXXXX                                          XXXXOOOOOOOOOOOOOOOOOOOOOOOOOOOOOOOOOOOOOOO",
"OOOOOOOOOOOOOOOOOOOOOOOOOOOOOOOOOOOOOOOXXXX                                          XXXXOOOOOOOOOOOOOOOOOOOOOOOOOOOOOOOOOOOOOOO",
"OOOOOOOOOOOOOOOOOOOOOOOOOOOOOOOOOOOOOOOXXXX                                          XXXXOOOOOOOOOOOOOOOOOOOOOOOOOOOOOOOOOOOOOOO",
"XXXXXXXXXXXXXXXXXXXXXXXXXXXXXXXXXXXXXXXXXXX                                          XXXXXXXXXXXXXXXXXXXXXXXXXXXXXXXXXXXXXXXXXXX",
"XXXXXXXXXXXXXXXXXXXXXXXXXXXXXXXXXXXXXXXXXXX                                          XXXXXXXXXXXXXXXXXXXXXXXXXXXXXXXXXXXXXXXXXXX"
};
