/* XPM */
static char *_83fc939b5864a69cb3e3d6627069b51sBTaMQBMjWxMsf44[] = {
/* columns rows colors chars-per-pixel */
"64 64 3 1 ",
"  c gray25",
". c #4E4E4E",
"X c #5B5B5B",
/* pixels */
"                               ..                               ",
"                              .XX.                              ",
"                             .XXXX.                             ",
"                            .XXXXXX.                            ",
"                           .XXXXXXXX.                           ",
"                          .XXXXXXXXXX.                          ",
"                         .XXXXXXXXXXXX.                         ",
"                        .XXXXXXXXXXXXXX.                        ",
"                       .XXXXXXXXXXXXXXXX.                       ",
"                      .XXXXXXXXXXXXXXXXXX.                      ",
"                     .XXXXXXXXXXXXXXXXXXXX.                     ",
"                    .XXXXXXXXXXXXXXXXXXXXXX.                    ",
"                   .XXXXXXXXXXXXXXXXXXXXXXXX.                   ",
"                  .XXXXXXXXXXXXXXXXXXXXXXXXXX.                  ",
"                 .XXXXXXXXXXXXXXXXXXXXXXXXXXXX.                 ",
"                .XXXXXXXXXXXXXXXXXXXXXXXXXXXXXX.                ",
"               .XXXXXXXXXXXXXXXXXXXXXXXXXXXXXXXX.               ",
"              .XXXXXXXXXXXXXXXXXXXXXXXXXXXXXXXXXX.              ",
"             .XXXXXXXXXXXXXXXXXXXXXXXXXXXXXXXXXXXX.             ",
"            .XXXXXXXXXXXXXXXXXXXXXXXXXXXXXXXXXXXXXX.            ",
"           .XXXXXXXXXXXXXXXXXXXXXXXXXXXXXXXXXXXXXXXX.           ",
"          .XXXXXXXXXXXXXXXXXXXXXXXXXXXXXXXXXXXXXXXXXX.          ",
"         .XXXXXXXXXXXXXXXXXXXXXXXXXXXXXXXXXXXXXXXXXXXX.         ",
"        .XXXXXXXXXXXXXXXXXXXXXXXXXXXXXXXXXXXXXXXXXXXXXX.        ",
"       .XXXXXXXXXXXXXXXXXXXXXXXXXXXXXXXXXXXXXXXXXXXXXXXX.       ",
"      .XXXXXXXXXXXXXXXXXXXXXXXXXXXXXXXXXXXXXXXXXXXXXXXXXX.      ",
"     .XXXXXXXXXXXXXXXXXXXXXXXXXXXXXXXXXXXXXXXXXXXXXXXXXXXX.     ",
"    .XXXXXXXXXXXXXXXXXXXXXXXXXXXXXXXXXXXXXXXXXXXXXXXXXXXXXX.    ",
"   .XXXXXXXXXXXXXXXXXXXXXXXXXXXXXXXXXXXXXXXXXXXXXXXXXXXXXXXX.   ",
"  .XXXXXXXXXXXXXXXXXXXXXXXXXXXXXXXXXXXXXXXXXXXXXXXXXXXXXXXXXX.  ",
" .XXXXXXXXXXXXXXXXXXXXXXXXXXXXXXXXXXXXXXXXXXXXXXXXXXXXXXXXXXXX. ",
".XXXXXXXXXXXXXXXXXXXXXXXXXXXXXXXXXXXXXXXXXXXXXXXXXXXXXXXXXXXXXX.",
".XXXXXXXXXXXXXXXXXXXXXXXXXXXXXXXXXXXXXXXXXXXXXXXXXXXXXXXXXXXXXX.",
" .XXXXXXXXXXXXXXXXXXXXXXXXXXXXXXXXXXXXXXXXXXXXXXXXXXXXXXXXXXXX. ",
"  .XXXXXXXXXXXXXXXXXXXXXXXXXXXXXXXXXXXXXXXXXXXXXXXXXXXXXXXXXX.  ",
"   .XXXXXXXXXXXXXXXXXXXXXXXXXXXXXXXXXXXXXXXXXXXXXXXXXXXXXXXX.   ",
"    .XXXXXXXXXXXXXXXXXXXXXXXXXXXXXXXXXXXXXXXXXXXXXXXXXXXXXX.    ",
"     .XXXXXXXXXXXXXXXXXXXXXXXXXXXXXXXXXXXXXXXXXXXXXXXXXXXX.     ",
"      .XXXXXXXXXXXXXXXXXXXXXXXXXXXXXXXXXXXXXXXXXXXXXXXXXX.      ",
"       .XXXXXXXXXXXXXXXXXXXXXXXXXXXXXXXXXXXXXXXXXXXXXXXX.       ",
"        .XXXXXXXXXXXXXXXXXXXXXXXXXXXXXXXXXXXXXXXXXXXXXX.        ",
"         .XXXXXXXXXXXXXXXXXXXXXXXXXXXXXXXXXXXXXXXXXXXX.         ",
"          .XXXXXXXXXXXXXXXXXXXXXXXXXXXXXXXXXXXXXXXXXX.          ",
"           .XXXXXXXXXXXXXXXXXXXXXXXXXXXXXXXXXXXXXXXX.           ",
"            .XXXXXXXXXXXXXXXXXXXXXXXXXXXXXXXXXXXXXX.            ",
"             .XXXXXXXXXXXXXXXXXXXXXXXXXXXXXXXXXXXX.             ",
"              .XXXXXXXXXXXXXXXXXXXXXXXXXXXXXXXXXX.              ",
"               .XXXXXXXXXXXXXXXXXXXXXXXXXXXXXXXX.               ",
"                .XXXXXXXXXXXXXXXXXXXXXXXXXXXXXX.                ",
"                 .XXXXXXXXXXXXXXXXXXXXXXXXXXXX.                 ",
"                  .XXXXXXXXXXXXXXXXXXXXXXXXXX.                  ",
"                   .XXXXXXXXXXXXXXXXXXXXXXXX.                   ",
"                    .XXXXXXXXXXXXXXXXXXXXXX.                    ",
"                     .XXXXXXXXXXXXXXXXXXXX.                     ",
"                      .XXXXXXXXXXXXXXXXXX.                      ",
"                       .XXXXXXXXXXXXXXXX.                       ",
"                        .XXXXXXXXXXXXXX.                        ",
"                         .XXXXXXXXXXXX.                         ",
"                          .XXXXXXXXXX.                          ",
"                           .XXXXXXXX.                           ",
"                            .XXXXXX.                            ",
"                             .XXXX.                             ",
"                              .XX.                              ",
"                               ..                               "
};
