/* XPM */
static char *_8bf55c3adb0415c9f22ce9a004abe9bp9Kprj90xieP0ee7[] = {
/* columns rows colors chars-per-pixel */
"64 64 16 1 ",
"  c #000008",
". c #162736",
"X c gray20",
"o c #1B374B",
"O c #2C536C",
"+ c #2B5777",
"@ c #535353",
"# c #777777",
"$ c #23EB1F",
"% c #386C8F",
"& c #3B7BA3",
"* c magenta",
"= c #4589B2",
"- c #4B9FCF",
"; c #52A6D5",
": c #6FC3EF",
/* pixels */
"################################################################",
"#@@@@@@@@@@@@@@@@@@@@@@@@@@@@@@XX@@@@@@@@@@@@@@@@@@@@@@@@@@@@@@#",
"#@@@@@@@@@@@@@@@@@@@@@@@@@@@@@@XX@@@@@@@@@@@@@@@@@@@@@@@@@@@@@@#",
"XXXXXXXXXXXXXXXXXXXXXXXXXXXXXXXXXXXXXXXXXXXXXXXXXXXXXXXXXXXXXXXX",
"o+:--------------------------+o  o+:--------------------------+o",
"o+-&&&&&&&&&&&&&&&&&&&&&&&&&&+o  o+-&&&&&&&&&&&&&&&&&&&&&&&&&&+o",
"o+-&&&&&&&&&&&&&&&&&&&&&&&&&&+o  o+-&&&&&&&&&&&&&&&&&&&&&&&&&&+o",
"o+-&&&&&&&&&&&&&&&&&&&&&&&&&&+o  o+-&&&&&&&&&&&&&&&&&&&&&&&&&&+o",
"o+-&&&&&&&&&&&&&&&&&&&&&&&&&&+o  o+-&&&&&&&&&&&&&&&&&&&&&&&&&&+o",
"o+-&&&&&&&&&&&&&&&&&&&&&&&&&&+o  o+-&&&&&&&&&&&&&&&&&&&&&&&&&&+o",
"o+-&&&&&&&&&&&&&&&&&&&&&&&&&&+o  o+-&&&&&&&&&&&&&&&&&&&&&&&&&&+o",
"o+-&&&&&&&&&&&&&&&&&&&&&&&&&&+o  o+-&&&&&&&&&&&&&&&&&&&&&&&&&&+o",
"o+-&&&&++++++++++++++++++&&&&+o  o+-&&&&++++++++++++++++++&&&&+o",
"o+-&&&&+****************-&&&&+o  o+-&&&&+****************-&&&&+o",
"o+-&&&&+****************-&&&&+o  o+-&&&&+****************-&&&&+o",
"o+-&&&&+****************-&&&&+o  o+-&&&&+****************-&&&&+o",
"o+-&&&&+****************-&&&&+o  o+-&&&&+****************-&&&&+o",
"o+-&&&&+****************-&&&&+o  o+-&&&&+****************-&&&&+o",
"o+-&&&&+****************-&&&&+o  o+-&&&&+****************-&&&&+o",
"o+-&&&&+****************-&&&&+o  o+-&&&&+****************-&&&&+o",
"o+-&&&&+****************-&&&&+o  o+-&&&&+****************-&&&&+o",
"o+-&&&&+-----------------&&&&+o  o+-&&&&+-----------------&&&&+o",
"o+-&&&&&&&&&&&&&&&&&&&&&&&&&&+o  o+-&&&&&&&&&&&&&&&&&&&&&&&&&&+o",
"o+-&&&&&&&&&&&&&&&&&&&&&&&&&&+o  o+-&&&&&&&&&&&&&&&&&&&&&&&&&&+o",
"o+-&&&&&&&&&&&&&&&&&&&&&&&&&&+o  o+-&&&&&&&&&&&&&&&&&&&&&&&&&&+o",
"o+++++++++++++++++++++++++++++o  o+++++++++++++++++++++++++++++o",
"o%:;;;;;;;;;;;;;;+:------o:---+  :---+o:------+:;;;;;;;;;;;;;;%O",
"o%;==============+-&&&&&&o-&&&+  -&&&+o-&&&&&&+;==============%O",
"o%;==============+-&&&&&&o-&&&+  -&&&+o-&&&&&&+;==============%O",
"o%;==============+-&&&&&&o-&&&+  -&&&+o-&&&&&&+;==============%O",
"o%;==============+-&&&&&&o-$$$+  -$$$+o-&&&&&&+;==============%O",
"o%%%%%%%%%%%%%%%%++++++++o-$$$+  -$$$+o++++++++%%%%%%%%%%%%%%%%O",
"o................+       o-&&&+  -&&&+o       +................O",
"o%%%%%%%%%%%%%%%%++++++++o-&+++  -++&+o++++++++%%%%%%%%%%%%%%%%O",
"o%:;;;;;;;;;;;;;;+:------o-&  +  -  &+o:------+:;;;;;;;;;;;;;;%O",
"o%;==============+-&&&&&&o-&  +  -  &+o-&&&&&&+;==============%O",
"o%;==============+-&&&&&&o-&  +  -  &+o-&&&&&&+;==============%O",
"o%;==============+-&&&&&&o-&  +  -  &+o-&&&&&&+;==============%O",
"o%;==============+-&&&&&&o-&&&+  -&&&+o-&&&&&&+;==============%O",
"o%;==============+-&&&&&&o+++++  +++++o-&&&&&&+;==============%O",
"o%%%%%%%%%%%%%%%%+ooooooooooooo  ooooooooooooo+%%%%%%%%%%%%%%%%O",
"o%:;;;;;;;;;;;;;;+:----------+o  o+:----------+:;;;;;;;;;;;;;;%O",
"o%;==============+-&&&&&&&&&&+o  o+-&&&&&&&&&&+;==============%O",
"o%;==============+-&&&&&&&&&&+o  o+-&&&&&&&&&&+;==============%O",
"o%;==============+-&&&&&&&&&&+o  o+-&&&&&&&&&&+;==============%O",
"o%;==============+-&&&&&&&&&&+o  o+-&&&&&&&&&&+;==============%O",
"o%;==============+-&&&&&&&&&&+o  o+-&&&&&&&&&&+;==============%O",
"o%;==============+-&&&&&&&&&&+o  o+-&&&&&&&&&&+;==============%O",
"o%;==============+-&&&&&&&&&&+o  o+-&&&&&&&&&&+;==============%O",
"o%;==============+-&&&&&&&&&&+o  o+-&&&&&&&&&&+;==============%O",
"o%;==============+-&&&&&&&&&&+o  o+-&&&&&&&&&&+;==============%O",
"o%%%%%%%%%%%%%%%%+++++++++++++o  o+++++++++++++%%%%%%%%%%%%%%%%O",
"o%:;;;;;;;;;;;;;;+:----------+o  o+:----------+:;;;;;;;;;;;;;;%O",
"o%;==============+-&&&&&&&&&&+o  o+-&&&&&&&&&&+;==============%O",
"o%;==============+-&&&&&&&&&&+o  o+-&&&&&&&&&&+;==============%O",
"o+++++++++++++++++++++++++++++o  o+++++++++++++++++++++++++++++o",
"##############################X  X#############################X",
"#@@@@@@@@@@@@@@@@@@@@@@@@@@@@@X  X@@@@@@@@@@@@@@@@@@@@@@@@@@@@@X",
"#@@@@@@@@@@@@@@@@@@@@@@@@@@@@@X  X@@@@@@@@@@@@@@@@@@@@@@@@@@@@@X",
"#@@@@@@@@@@@@@@@@@@@@@@@@@@@@@X  X@@@@@@@@@@@@@@@@@@@@@@@@@@@@@X",
"#@@@@@@@@@@@@@@@@@@@@@@@@@@@@@X  X@@@@@@@@@@@@@@@@@@@@@@@@@@@@@X",
"#@@@@@@@@@@@@@@@@@@@@@@@@@@@@@X  X@@@@@@@@@@@@@@@@@@@@@@@@@@@@@X",
"#@@@@@@@@@@@@@@@@@@@@@@@@@@@@@X  X@@@@@@@@@@@@@@@@@@@@@@@@@@@@@X",
"XXXXXXXXXXXXXXXXXXXXXXXXXXXXXXX  XXXXXXXXXXXXXXXXXXXXXXXXXXXXXXX"
};
