/* XPM */
static char *ac8db67834a349c78cdd8d8b6715065eo3wEAu8nLiOWHAoX[] = {
/* columns rows colors chars-per-pixel */
"64 64 12 1 ",
"  c #000008",
". c #111116",
"X c #1E1E21",
"o c #212126",
"O c #262629",
"+ c gray20",
"@ c #313134",
"# c #441203",
"$ c #731F00",
"% c gray25",
"& c #535353",
"* c #8B3200",
/* pixels */
"XX++++++++++++++++++++++++++++  &&++++++++++++++++++++++++++++XX",
"XX++++++++++++++++++++++++++++  &&++++++++++++++++++++++++++++XX",
"XX++++++++++++++++++++++++++++  &&++++++++++++++++++++++++++++XX",
"..XXXXXXXXXXXXXXXXXXXXXXXXXXXX  @@XXXXXXXXXXXXXXXXXXXXXXXXXXXX..",
"OO%%%%%%%%%%%%%%%%%%%%%%%%%%%%oo&&%%%%%%%%%%%%%%%%%%%%%%%%%%%%OO",
"XX++++++++++++++++++++++++++++  &&++++++++++++++++++++++++++++XX",
"XX++++++++++++++++++++++++++++  &&++++++++++++++++++++++++++++XX",
"XX++++++++++++++++$$$$$$$$$$$$##**$$$$$$$$$$$$++++++++++++++++XX",
"XX++++++++++++++$$$$$$$$$$$$$$##**$$$$$$$$$$$$$$++++++++++++++XX",
"XX++++++++++++++$$$$$$$$$$$$$$##**$$$$$$$$$$$$$$++++++++++++++XX",
"XX+++++++++++++$$$$$$$$$$$$$$$##**$$$$$$$$$$$$$$$+++++++++++++XX",
"XX+++++++++++++$$$$$$$$$$$$$$$##**$$$$$$$$$$$$$$$+++++++++++++XX",
"XX+++++++++++++$$$$$$$$$$$$$$$##**$$$$$$$$$$$$$$$+++++++++++++XX",
"XX+++++++++++++$$$$$$$$$$$$$$$##**$$$$$$$$$$$$$$$+++++++++++++XX",
"XX+++++++++++++$$$$$$$$$$$$$$$##**$$$$$$$$$$$$$$$+++++++++++++XX",
"XX+++++++++++++$$$$$$$$$$$$$$$##**$$$$$$$$$$$$$$$+++++++++++++XX",
"XX+++++++++++++$$$$$$$$$$+++++  &&+++++$$$$$$$$$$+++++++++++++XX",
"XX+++++++++++++$$$$$$$$$++++++  &&++++++$$$$$$$$$+++++++++++++XX",
"XX+++++++++++++$$$$$$$$$++++++  &&++++++$$$$$$$$$+++++++++++++XX",
"XX+++++++++++++$$$$$$$$$++++++  &&++++++$$$$$$$$$+++++++++++++XX",
"XX+++++++++++++$$$$$$$$$++++++  &&++++++$$$$$$$$$+++++++++++++XX",
"XX+++++++++++++$$$$$$$$$++++++  &&++++++$$$$$$$$$+++++++++++++XX",
"XX++++++++++++++$$$$$$$+++++++  &&++++++$$$$$$$$$+++++++++++++XX",
"XX++++++++++++++$$$$$$$+++++++  &&+++++$$$$$$$$$$+++++++++++++XX",
"XX++++++++++++++++++++++++++++  &*$$$$$$$$$$$$$$$+++++++++++++XX",
"XX++++++++++++++++++++++++++++  **$$$$$$$$$$$$$$$+++++++++++++XX",
"XX++++++++++++++++++++++++++++  **$$$$$$$$$$$$$$$+++++++++++++XX",
"XX++++++++++++++++++++++++++++  **$$$$$$$$$$$$$$$+++++++++++++XX",
"XX++++++++++++++++++++++++++++  **$$$$$$$$$$$$$$$+++++++++++++XX",
"XX++++++++++++++++++++++++++++  **$$$$$$$$$$$$$$$+++++++++++++XX",
"XX++++++++++++++++++++++++++++  **$$$$$$$$$$$$$$++++++++++++++XX",
"XX++++++++++++++++++++++++++++  **$$$$$$$$$$$$$+++++++++++++++XX",
"XX++++++++++++++++++++++++++++  **$$$$$$++++++++++++++++++++++XX",
"XX++++++++++++++++++++++++++++  **$$$$$$++++++++++++++++++++++XX",
"XX++++++++++++++++++++++++++++  **$$$$$$++++++++++++++++++++++XX",
"XX++++++++++++++++++++++++++++  **$$$$$$++++++++++++++++++++++XX",
"XX++++++++++++++++++++++++++++  **$$$$$$++++++++++++++++++++++XX",
"XX++++++++++++++++++++++++++++  **$$$$$$++++++++++++++++++++++XX",
"XX++++++++++++++++++++++++++++  **$$$$$$++++++++++++++++++++++XX",
"XX++++++++++++++++++++++++++++  **$$$$$$++++++++++++++++++++++XX",
"XX++++++++++++++++++++++++++++  &&++++++++++++++++++++++++++++XX",
"XX++++++++++++++++++++++++++++  &&++++++++++++++++++++++++++++XX",
"XX++++++++++++++++++++++++++++  &&++++++++++++++++++++++++++++XX",
"XX++++++++++++++++++++++++++++  &&++++++++++++++++++++++++++++XX",
"XX++++++++++++++++++++++++++++  &&++++++++++++++++++++++++++++XX",
"XX++++++++++++++++++++++++++++  &&++++++++++++++++++++++++++++XX",
"XX++++++++++++++++++++++++++++  &&++++++++++++++++++++++++++++XX",
"XX++++++++++++++++++++++++++++  &&++++++++++++++++++++++++++++XX",
"XX++++++++++++++++++++++++++++  &*$$$$$+++++++++++++++++++++++XX",
"XX++++++++++++++++++++++++++++  **$$$$$$++++++++++++++++++++++XX",
"XX++++++++++++++++++++++++++++  **$$$$$$++++++++++++++++++++++XX",
"XX++++++++++++++++++++++++++++  **$$$$$$++++++++++++++++++++++XX",
"XX++++++++++++++++++++++++++++  **$$$$$$++++++++++++++++++++++XX",
"XX++++++++++++++++++++++++++++  **$$$$$$++++++++++++++++++++++XX",
"XX++++++++++++++++++++++++++++  **$$$$$$++++++++++++++++++++++XX",
"XX++++++++++++++++++++++++++++  &*$$$$$+++++++++++++++++++++++XX",
"XX++++++++++++++++++++++++++++  &&++++++++++++++++++++++++++++XX",
"XX++++++++++++++++++++++++++++  &&++++++++++++++++++++++++++++XX",
"XX++++++++++++++++++++++++++++  &&++++++++++++++++++++++++++++XX",
"..XXXXXXXXXXXXXXXXXXXXXXXXXXXX  @@XXXXXXXXXXXXXXXXXXXXXXXXXXXX..",
"OO%%%%%%%%%%%%%%%%%%%%%%%%%%%%oo&&%%%%%%%%%%%%%%%%%%%%%%%%%%%%OO",
"XX++++++++++++++++++++++++++++  &&++++++++++++++++++++++++++++XX",
"XX++++++++++++++++++++++++++++  &&++++++++++++++++++++++++++++XX",
"XX++++++++++++++++++++++++++++  &&++++++++++++++++++++++++++++XX"
};
