/* XPM */
static char *_57e9f8f5bb1472be844f38f5e3ff1e37ZTtdS3cZIGqAwr2[] = {
/* columns rows colors chars-per-pixel */
"64 64 10 1 ",
"  c gray20",
". c #434343",
"X c #535353",
"o c #777777",
"O c #5F9B00",
"+ c #7FB717",
"@ c #A3D337",
"# c #C7EF63",
"$ c gray53",
"% c #979797",
/* pixels */
"oooooooooooooooooooooooooooooooooooooooooooooooooooooooooooooooo",
"oXXXXXXXXXXXXXXXXXXXXXXXXXXXXXX  XXXXXXXXXXXXXXXXXXXXXXXXXXXXXXo",
"oXXXXXXXXXXXXXXXXXXXXXXXXXXXXXX  XXXXXXXXXXXXXXXXXXXXXXXXXXXXXXo",
"                                                                ",
"  $ooooooooooooooooooooooooooo    $ooooooooooooooooooooooooooo  ",
"  oXXXXXXXXXXXXXXXXXXXXXXXXXXX    oXXXXXXXXXXXXXXXXXXXXXXXXXXX  ",
"  oXo.XXXXXXXXXXXXXXXXXXXXXo.X    oXo.XXXXXXXXXXXXXXXXXXXXXo.X  ",
"  oX. XXXXXXXXXXXXXXXXXXXXX. X    oX. XXXXXXXXXXXXXXXXXXXXX. X  ",
"  oXXXXXXXXXXXXXXXXXXXXXXXXXXX    oXXXXXXXXXXXXXXXXXXXXXXXXXXX  ",
"  oXXXXXXXXXXXXXXXXXXXXXXXXXXX    oXXXXXXXXXXXXXXXXXXXXXXXXXXX  ",
"  oXXXXXXXXXXXXXXXXXXXXXXXXXXX    oXXXXXXXXXXXXXXXXXXXXXXXXXXX  ",
"  oXXXXXXXXXXXXXXXXXXXXXXXXXXX    oXXXXXXXXXXXXXXXXXXXXXXXXXXX  ",
"  oXXXXXXXXXXXXXXXXXXXXXXXXXXX    oXXXXXXXXXXXXXXXXXXXXXXXXXXX  ",
"  oXXXXXXXXXXXXXXXXXXXXXXXXXXX    oXXXXXXXXXXXXXXXXXXXXXXXXXXX  ",
"  oXXXXXXXXXXXXXXXXXXXXXXXXXXX    oXXXXXXXXXXXXXXXXXXXXXXXXXXX  ",
"  oXXXXXXXXXXXXXXXXXXXXXXXXXXX    oXXXXXXXXXXXXXXXXXXXXXXXXXXX  ",
"  oXXXXXXXXXXXXXXXXXXXXXXXXXXX    oXXXXXXXXXXXXXXXXXXXXXXXXXXX  ",
"  oXXXXXXXXXXXXXXXXXXXXXXXXXXX    oXXXXXXXXXXXXXXXXXXXXXXXXXXX  ",
"  oXXXXXXXXXXXXXXXXXXXXXXXXXXX    oXXXXXXXXXXXXXXXXXXXXXXXXXXX  ",
"  oXXXXXXXXXXXXXXXXXXXXXXXXXXX    oXXXXXXXXXXXXXXXXXXXXXXXXXXX  ",
"  oXXXXXXXXXXXXXXXXXXXXXXXXXXX    oXXXXXXXXXXXXXXXXXXXXXXXXXXX  ",
"  oXXXXXXXXXXXXXXXXXXXXXXXXXXX    oXXXXXXXXXXoooooooooooXXXXXX  ",
"  oXo.XXXXXXXXXXXXXXXXXXXXXo.X    oXo.XXXXXXo            XXo.X  ",
"  oX. XXXXXXXXXXXXXXXXXXXXX. X    oX. XXXXXXo            XX. X  ",
"  oXXXXXXXXXXXXXXXXXXXXXXXXXXX    oXXXXXXXXXo  #@@+ X X  XXXXX  ",
"                                            o  @++O o o         ",
"  $oooooooooooooooooooooo $ooo   $ooo  $ooooo  @++O o o  ooooo  ",
"  oXXXXXXXXXXXXXXXXXXXXXX oXXX   oXXX  oXXXXo  @++O % o  XXXXX  ",
"  oXo.XXXXXXXXXXXXXXXXo.X oXXX   oXXX  oXo.Xo  +OOO % %  XXo.X  ",
"  oX. XXXXXXXXXXXXXXXX. X oXXX   oXXX  oX. Xo       % %  XX. X  ",
"  oXXXXXXXXXXXXXXXXXXXXXX o+++   o+++  oXXXXo  ooX. o o  XXXXX  ",
"  oXXXXXXXXXXXXXXXXXXXXXX o+++   o+++  oXXXXo  oX.  o o  XXXXX  ",
"  oXXXXXXXXXXXXXXXXXXXXXX oXXX   oXXX  oXXXXo       o o  XXXXX  ",
"  oXXXXXXXXXXXXXXXXXXXXXX oX     o  X  oXXXXo  ooX. X o  XXXXX  ",
"  oXXXXXXXXXXXXXXXXXXXXXX oX     o  X  oXXXXo  oX.  X X  XXXXX  ",
"  oXXXXXXXXXXXXXXXXXXXXXX oX     o  X  oXXXXo       . .  XXXXX  ",
"  oXXXXXXXXXXXXXXXXXXXXXX oX     o  X  oXXXXo            XXXXX  ",
"  oXXXXXXXXXXXXXXXXXXXXXX oX     o  X  oXXXXo            XXXXX  ",
"  oXo.XXXXXXXXXXXXXXXXo.X oXXX   oXXX  oXo.XX            XXo.X  ",
"  oX. XXXXXXXXXXXXXXXX. X              oX. XXXXXXXXXXXXXXXX. X  ",
"  oXXXXXXXXXXXXXXXXXXXXXX              oXXXXXXXXXXXXXXXXXXXXXX  ",
"                                                                ",
"  $ooooooooooooooooooooooooooo    $ooooooooooooooooooooooooooo  ",
"  oXXXXXXXXXXXXXXXXXXXXXXXXXXX    oXXXXXXXXXXXXXXXXXXXXXXXXXXX  ",
"  oXo.XXXXXXXXXXXXXXXXXXXXXo.X    oXo.XXXXXXXXXXXXXXXXXXXXXo.X  ",
"  oX. XXXXXXXXXXXXXXXXXXXXX. X    oX. XXXXXXXXXXXXXXXXXXXXX. X  ",
"  oXXXXXXXXXXXXXXXXXXXXXXXXXXX    oXXXXXXXXXXXXXXXXXXXXXXXXXXX  ",
"  oXXXXXXXXXXXXXXXXXXXXXXXXXXX    oXXXXXXXXXXXXXXXXXXXXXXXXXXX  ",
"  oXXXXXXXXXXXXXXXXXXXXXXXXXXX    oXXXXXXXXXXXXXXXXXXXXXXXXXXX  ",
"  oXXXXXXXXXXXXXXXXXXXXXXXXXXX    oXXXXXXXXXXXXXXXXXXXXXXXXXXX  ",
"  oXXXXXXXXXXXXXXXXXXXXXXXXXXX    oXXXXXXXXXXXXXXXXXXXXXXXXXXX  ",
"  oXXXXXXXXXXXXXXXXXXXXXXXXXXX    oXXXXXXXXXXXXXXXXXXXXXXXXXXX  ",
"  oXo.XXXXXXXXXXXXXXXXXXXXXo.X    oXo.XXXXXXXXXXXXXXXXXXXXXo.X  ",
"  oX. XXXXXXXXXXXXXXXXXXXXX. X    oX. XXXXXXXXXXXXXXXXXXXXX. X  ",
"  oXXXXXXXXXXXXXXXXXXXXXXXXXXX    oXXXXXXXXXXXXXXXXXXXXXXXXXXX  ",
"                                                                ",
"oooooooooooooooooooooooooooooo    ooooooooooooooooooooooooooooo ",
"oXXXXXXXXXXXXXXXXXXXXXXXXXXXXX    XXXXXXXXXXXXXXXXXXXXXXXXXXXXX ",
"oXXXXXXXXXXXXXXXXXXXXXXXXXXXXX    XXXXXXXXXXXXXXXXXXXXXXXXXXXXX ",
"oXXXXXXXXXXXXXXXXXXXXXXXXXXXXX    XXXXXXXXXXXXXXXXXXXXXXXXXXXXX ",
"oXXXXXXXXXXXXXXXXXXXXXXXXXXXXX    XXXXXXXXXXXXXXXXXXXXXXXXXXXXX ",
"oXXXXXXXXXXXXXXXXXXXXXXXXXXXXX    XXXXXXXXXXXXXXXXXXXXXXXXXXXXX ",
"oXXXXXXXXXXXXXXXXXXXXXXXXXXXXX    XXXXXXXXXXXXXXXXXXXXXXXXXXXXX ",
"                                                                "
};
