/* XPM */
static char *e9e3a063c7084504f2a1ad744566753aRrKqOUP6zcFT8Rbx[] = {
/* columns rows colors chars-per-pixel */
"64 64 7 1 ",
"  c None",
". c gray20",
"X c #434343",
"o c #535353",
"O c #777777",
"+ c #7FB717",
"@ c gray53",
/* pixels */
"OOOOO                                                      OOOOO",
"oooo.                                                      .oooo",
"oooo.                                                      .oooo",
".....                                                      .....",
"OOO..                                                      ..@OO",
"ooo..                                                      ..Ooo",
"OXo..                                                      ..OoO",
"X.o..                                                      ..OoX",
"ooo..                                                      ..Ooo",
"ooo..                                                      ..Ooo",
"ooo..                                                      ..Ooo",
"ooo..                                                      ..Ooo",
"ooo..                                                      ..Ooo",
"ooo..                                                      ..Ooo",
"ooo..                                                      ..Ooo",
"ooo..                                                      ..Ooo",
"ooo..                                                      ..Ooo",
"ooo..                                                      ..Ooo",
"ooo..                                                      ..Ooo",
"ooo..                                                      ..Ooo",
"ooo..                                                      ..Ooo",
"ooo..                                                      ..Ooo",
"OXo..                                                      ..OoO",
"X.o..                                                      ..OoX",
"ooo..                                                      ..Ooo",
".....                                                      .....",
"OOO..                                                      .@OOO",
"ooo..                                                      .Oooo",
"ooo..                                                      .Oooo",
"ooo..                                                      .Oooo",
"+++..                                                      .O+++",
"+++..                                                      .O+++",
"ooo..                                                      .Oooo",
"o....                                                      .O..o",
"o....                                                      .O..o",
"o....                                                      .O..o",
"o....                                                      .O..o",
"o....                                                      .O..o",
"ooo..                                                      .Oooo",
".....                                                      .....",
".....                                                      .....",
".....                                                      .....",
"OOO..                                                      ..@OO",
"ooo..                                                      ..Ooo",
"OXo..                                                      ..OoO",
"X.o..                                                      ..OoX",
"ooo..                                                      ..Ooo",
"ooo..                                                      ..Ooo",
"ooo..                                                      ..Ooo",
"ooo..                                                      ..Ooo",
"ooo..                                                      ..Ooo",
"ooo..                                                      ..Ooo",
"OXo..                                                      ..OoO",
"X.o..                                                      ..OoX",
"ooo..                                                      ..Ooo",
".....                                                      .....",
"OOO..                                                      ..OOO",
"ooo..                                                      ..ooo",
"ooo..                                                      ..ooo",
"ooo..                                                      ..ooo",
"ooo..                                                      ..ooo",
"ooo..                                                      ..ooo",
"ooo..                                                      ..ooo",
".....                                                      ....."
};
