/* XPM */
static char *_569ae2da5eb4dead8a91783a93f9630AcFtu7HcFoaDMiff[] = {
/* columns rows colors chars-per-pixel */
"64 64 11 1 ",
"  c None",
". c gray20",
"X c #434343",
"o c #535353",
"O c #777777",
"+ c #5F9B00",
"@ c #7FB717",
"# c #A3D337",
"$ c #C7EF63",
"% c gray53",
"& c #979797",
/* pixels */
"OOOOOOOOOOOOOOOOOOOOO                      OOOOOOOOOOOOOOOOOOOOO",
"oooooooooooooooooooo.                      .oooooooooooooooooooo",
"oooooooooooooooooooo.                      .oooooooooooooooooooo",
".....................                      .....................",
"OOOOOOOOOOOOOOOOOOO..                      ..%OOOOOOOOOOOOOOOOOO",
"ooooooooooooooooooo..                      ..Ooooooooooooooooooo",
"ooooooooooooooooOXo..                      ..OoOXooooooooooooooo",
"ooooooooooooooooX.o..                      ..OoX.ooooooooooooooo",
"ooooooooooooooooooo..                      ..Ooooooooooooooooooo",
"ooooooooooooooooooo..                      ..Ooooooooooooooooooo",
"ooooooooooooooooooo..                      ..Ooooooooooooooooooo",
"ooooooooooooooooooo..                      ..Ooooooooooooooooooo",
"ooooooooooooooooooo..                      ..Ooooooooooooooooooo",
"ooooooooooooooooooo..                      ..Ooooooooooooooooooo",
"ooooooooooooooooooo..                      ..Ooooooooooooooooooo",
"ooooooooooooooooooo..                      ..Ooooooooooooooooooo",
"ooooooooooooooooooo..                      ..Ooooooooooooooooooo",
"ooooooooooooooooooo..                      ..Ooooooooooooooooooo",
"ooooooooooooooooooo..                      ..Ooooooooooooooooooo",
"ooooooooooooooooooo..                      ..Ooooooooooooooooooo",
"ooooooooooooooooooo..                      ..Ooooooooooooooooooo",
"ooooooooooooooooooo..                      ..OooooooooooOOOOOOOO",
"ooooooooooooooooOXo..                      ..OoOXooooooO........",
"ooooooooooooooooX.o..                      ..OoX.ooooooO........",
"ooooooooooooooooooo..                      ..OoooooooooO..$##@.o",
".....................                      ............O..#@@+.O",
"OOOOOOOOOOOOOO.%OOO..                      .%OOO..%OOOOO..#@@+.O",
"oooooooooooooo.Oooo..                      .Oooo..OooooO..#@@+.&",
"oooooooooooOXo.Oooo..                      .Oooo..OoOXoO..@+++.&",
"oooooooooooX.o.Oooo..                      .Oooo..OoX.oO.......&",
"oooooooooooooo.O@@@..                      .O@@@..OooooO..OOoX.O",
"oooooooooooooo.O@@@..                      .O@@@..OooooO..OoX..O",
"oooooooooooooo.Oooo..                      .Oooo..OooooO.......O",
"oooooooooooooo.Oo....                      .O..o..OooooO..OOoX.o",
"oooooooooooooo.Oo....                      .O..o..OooooO..OoX..o",
"oooooooooooooo.Oo....                      .O..o..OooooO.......X",
"oooooooooooooo.Oo....                      .O..o..OooooO........",
"oooooooooooooo.Oo....                      .O..o..OooooO........",
"oooooooooooOXo.Oooo..                      .Oooo..OoOXoo........",
"oooooooooooX.o.......                      .......OoX.oooooooooo",
"oooooooooooooo.......                      .......Oooooooooooooo",
".....................                      .....................",
"OOOOOOOOOOOOOOOOOOO..                      ..%OOOOOOOOOOOOOOOOOO",
"ooooooooooooooooooo..                      ..Ooooooooooooooooooo",
"ooooooooooooooooOXo..                      ..OoOXooooooooooooooo",
"ooooooooooooooooX.o..                      ..OoX.ooooooooooooooo",
"ooooooooooooooooooo..                      ..Ooooooooooooooooooo",
"ooooooooooooooooooo..                      ..Ooooooooooooooooooo",
"ooooooooooooooooooo..                      ..Ooooooooooooooooooo",
"ooooooooooooooooooo..                      ..Ooooooooooooooooooo",
"ooooooooooooooooooo..                      ..Ooooooooooooooooooo",
"ooooooooooooooooooo..                      ..Ooooooooooooooooooo",
"ooooooooooooooooOXo..                      ..OoOXooooooooooooooo",
"ooooooooooooooooX.o..                      ..OoX.ooooooooooooooo",
"ooooooooooooooooooo..                      ..Ooooooooooooooooooo",
".....................                      .....................",
"OOOOOOOOOOOOOOOOOOO..                      ..OOOOOOOOOOOOOOOOOOO",
"ooooooooooooooooooo..                      ..ooooooooooooooooooo",
"ooooooooooooooooooo..                      ..ooooooooooooooooooo",
"ooooooooooooooooooo..                      ..ooooooooooooooooooo",
"ooooooooooooooooooo..                      ..ooooooooooooooooooo",
"ooooooooooooooooooo..                      ..ooooooooooooooooooo",
"ooooooooooooooooooo..                      ..ooooooooooooooooooo",
".....................                      ....................."
};
