/* XPM */
static char *f968d58a7b4c4ed6ab093c7726dd169c1JTQJeMhLeBDvRrd[] = {
/* columns rows colors chars-per-pixel */
"64 64 7 1 ",
"  c None",
". c gray20",
"X c #434343",
"o c #535353",
"O c #777777",
"+ c #7FB717",
"@ c gray53",
/* pixels */
"OOOOOOOOO                                              OOOOOOOOO",
"oooooooo.                                              .oooooooo",
"oooooooo.                                              .oooooooo",
".........                                              .........",
"OOOOOOO..                                              ..@OOOOOO",
"ooooooo..                                              ..Ooooooo",
"ooooOXo..                                              ..OoOXooo",
"ooooX.o..                                              ..OoX.ooo",
"ooooooo..                                              ..Ooooooo",
"ooooooo..                                              ..Ooooooo",
"ooooooo..                                              ..Ooooooo",
"ooooooo..                                              ..Ooooooo",
"ooooooo..                                              ..Ooooooo",
"ooooooo..                                              ..Ooooooo",
"ooooooo..                                              ..Ooooooo",
"ooooooo..                                              ..Ooooooo",
"ooooooo..                                              ..Ooooooo",
"ooooooo..                                              ..Ooooooo",
"ooooooo..                                              ..Ooooooo",
"ooooooo..                                              ..Ooooooo",
"ooooooo..                                              ..Ooooooo",
"ooooooo..                                              ..Ooooooo",
"ooooOXo..                                              ..OoOXooo",
"ooooX.o..                                              ..OoX.ooo",
"ooooooo..                                              ..Ooooooo",
".........                                              .........",
"OO.@OOO..                                              .@OOO..@O",
"oo.Oooo..                                              .Oooo..Oo",
"Xo.Oooo..                                              .Oooo..Oo",
".o.Oooo..                                              .Oooo..Oo",
"oo.O+++..                                              .O+++..Oo",
"oo.O+++..                                              .O+++..Oo",
"oo.Oooo..                                              .Oooo..Oo",
"oo.Oo....                                              .O..o..Oo",
"oo.Oo....                                              .O..o..Oo",
"oo.Oo....                                              .O..o..Oo",
"oo.Oo....                                              .O..o..Oo",
"oo.Oo....                                              .O..o..Oo",
"Xo.Oooo..                                              .Oooo..Oo",
".o.......                                              .......Oo",
"oo.......                                              .......Oo",
".........                                              .........",
"OOOOOOO..                                              ..@OOOOOO",
"ooooooo..                                              ..Ooooooo",
"ooooOXo..                                              ..OoOXooo",
"ooooX.o..                                              ..OoX.ooo",
"ooooooo..                                              ..Ooooooo",
"ooooooo..                                              ..Ooooooo",
"ooooooo..                                              ..Ooooooo",
"ooooooo..                                              ..Ooooooo",
"ooooooo..                                              ..Ooooooo",
"ooooooo..                                              ..Ooooooo",
"ooooOXo..                                              ..OoOXooo",
"ooooX.o..                                              ..OoX.ooo",
"ooooooo..                                              ..Ooooooo",
".........                                              .........",
"OOOOOOO..                                              ..OOOOOOO",
"ooooooo..                                              ..ooooooo",
"ooooooo..                                              ..ooooooo",
"ooooooo..                                              ..ooooooo",
"ooooooo..                                              ..ooooooo",
"ooooooo..                                              ..ooooooo",
"ooooooo..                                              ..ooooooo",
".........                                              ........."
};
