/* XPM */
static char *_67cfa4f062544d5888f73ef07a0ea06LOmAu4oi6j14xfhF[] = {
/* columns rows colors chars-per-pixel */
"64 64 7 1 ",
"  c None",
". c gray20",
"X c #434343",
"o c #535353",
"O c #777777",
"+ c #7FB717",
"@ c gray53",
/* pixels */
"OOOOOOO                                                  OOOOOOO",
"oooooo.                                                  .oooooo",
"oooooo.                                                  .oooooo",
".......                                                  .......",
"OOOOO..                                                  ..@OOOO",
"ooooo..                                                  ..Ooooo",
"ooOXo..                                                  ..OoOXo",
"ooX.o..                                                  ..OoX.o",
"ooooo..                                                  ..Ooooo",
"ooooo..                                                  ..Ooooo",
"ooooo..                                                  ..Ooooo",
"ooooo..                                                  ..Ooooo",
"ooooo..                                                  ..Ooooo",
"ooooo..                                                  ..Ooooo",
"ooooo..                                                  ..Ooooo",
"ooooo..                                                  ..Ooooo",
"ooooo..                                                  ..Ooooo",
"ooooo..                                                  ..Ooooo",
"ooooo..                                                  ..Ooooo",
"ooooo..                                                  ..Ooooo",
"ooooo..                                                  ..Ooooo",
"ooooo..                                                  ..Ooooo",
"ooOXo..                                                  ..OoOXo",
"ooX.o..                                                  ..OoX.o",
"ooooo..                                                  ..Ooooo",
".......                                                  .......",
".@OOO..                                                  .@OOO..",
".Oooo..                                                  .Oooo..",
".Oooo..                                                  .Oooo..",
".Oooo..                                                  .Oooo..",
".O+++..                                                  .O+++..",
".O+++..                                                  .O+++..",
".Oooo..                                                  .Oooo..",
".Oo....                                                  .O..o..",
".Oo....                                                  .O..o..",
".Oo....                                                  .O..o..",
".Oo....                                                  .O..o..",
".Oo....                                                  .O..o..",
".Oooo..                                                  .Oooo..",
".......                                                  .......",
".......                                                  .......",
".......                                                  .......",
"OOOOO..                                                  ..@OOOO",
"ooooo..                                                  ..Ooooo",
"ooOXo..                                                  ..OoOXo",
"ooX.o..                                                  ..OoX.o",
"ooooo..                                                  ..Ooooo",
"ooooo..                                                  ..Ooooo",
"ooooo..                                                  ..Ooooo",
"ooooo..                                                  ..Ooooo",
"ooooo..                                                  ..Ooooo",
"ooooo..                                                  ..Ooooo",
"ooOXo..                                                  ..OoOXo",
"ooX.o..                                                  ..OoX.o",
"ooooo..                                                  ..Ooooo",
".......                                                  .......",
"OOOOO..                                                  ..OOOOO",
"ooooo..                                                  ..ooooo",
"ooooo..                                                  ..ooooo",
"ooooo..                                                  ..ooooo",
"ooooo..                                                  ..ooooo",
"ooooo..                                                  ..ooooo",
"ooooo..                                                  ..ooooo",
".......                                                  ......."
};
