/* XPM */
static char *_c3ebcdb4ff54a6cba388836d4e2b631DRjczMGFTlqIDy3F[] = {
/* columns rows colors chars-per-pixel */
"64 64 11 1 ",
"  c None",
". c gray20",
"X c #434343",
"o c #535353",
"O c #777777",
"+ c #5F9B00",
"@ c #7FB717",
"# c #A3D337",
"$ c #C7EF63",
"% c gray53",
"& c #979797",
/* pixels */
"OOOOOOOOOOOOOOOOOOOOOOOOOOOOO      OOOOOOOOOOOOOOOOOOOOOOOOOOOOO",
"oooooooooooooooooooooooooooo.      .oooooooooooooooooooooooooooo",
"oooooooooooooooooooooooooooo.      .oooooooooooooooooooooooooooo",
".............................      .............................",
"OOOOOOOOOOOOOOOOOOOOOOOOOOO..      ..%OOOOOOOOOOOOOOOOOOOOOOOOOO",
"ooooooooooooooooooooooooooo..      ..Ooooooooooooooooooooooooooo",
"oOXoooooooooooooooooooooOXo..      ..OoOXoooooooooooooooooooooOX",
"oX.oooooooooooooooooooooX.o..      ..OoX.oooooooooooooooooooooX.",
"ooooooooooooooooooooooooooo..      ..Ooooooooooooooooooooooooooo",
"ooooooooooooooooooooooooooo..      ..Ooooooooooooooooooooooooooo",
"ooooooooooooooooooooooooooo..      ..Ooooooooooooooooooooooooooo",
"ooooooooooooooooooooooooooo..      ..Ooooooooooooooooooooooooooo",
"ooooooooooooooooooooooooooo..      ..Ooooooooooooooooooooooooooo",
"ooooooooooooooooooooooooooo..      ..Ooooooooooooooooooooooooooo",
"ooooooooooooooooooooooooooo..      ..Ooooooooooooooooooooooooooo",
"ooooooooooooooooooooooooooo..      ..Ooooooooooooooooooooooooooo",
"ooooooooooooooooooooooooooo..      ..Ooooooooooooooooooooooooooo",
"ooooooooooooooooooooooooooo..      ..Ooooooooooooooooooooooooooo",
"ooooooooooooooooooooooooooo..      ..Ooooooooooooooooooooooooooo",
"ooooooooooooooooooooooooooo..      ..Ooooooooooooooooooooooooooo",
"ooooooooooooooooooooooooooo..      ..Ooooooooooooooooooooooooooo",
"ooooooooooooooooooooooooooo..      ..OooooooooooOOOOOOOOOOOooooo",
"oOXoooooooooooooooooooooOXo..      ..OoOXooooooO............ooOX",
"oX.oooooooooooooooooooooX.o..      ..OoX.ooooooO............ooX.",
"ooooooooooooooooooooooooooo..      ..OoooooooooO..$##@.o.o..oooo",
".............................      ............O..#@@+.O.O......",
"OOOOOOOOOOOOOOOOOOOOOO.%OOO..      .%OOO..%OOOOO..#@@+.O.O..OOOO",
"oooooooooooooooooooooo.Oooo..      .Oooo..OooooO..#@@+.&.O..oooo",
"oOXooooooooooooooooOXo.Oooo..      .Oooo..OoOXoO..@+++.&.&..ooOX",
"oX.ooooooooooooooooX.o.Oooo..      .Oooo..OoX.oO.......&.&..ooX.",
"oooooooooooooooooooooo.O@@@..      .O@@@..OooooO..OOoX.O.O..oooo",
"oooooooooooooooooooooo.O@@@..      .O@@@..OooooO..OoX..O.O..oooo",
"oooooooooooooooooooooo.Oooo..      .Oooo..OooooO.......O.O..oooo",
"oooooooooooooooooooooo.Oo....      .O..o..OooooO..OOoX.o.O..oooo",
"oooooooooooooooooooooo.Oo....      .O..o..OooooO..OoX..o.o..oooo",
"oooooooooooooooooooooo.Oo....      .O..o..OooooO.......X.X..oooo",
"oooooooooooooooooooooo.Oo....      .O..o..OooooO............oooo",
"oooooooooooooooooooooo.Oo....      .O..o..OooooO............oooo",
"oOXooooooooooooooooOXo.Oooo..      .Oooo..OoOXoo............ooOX",
"oX.ooooooooooooooooX.o.......      .......OoX.ooooooooooooooooX.",
"oooooooooooooooooooooo.......      .......Oooooooooooooooooooooo",
".............................      .............................",
"OOOOOOOOOOOOOOOOOOOOOOOOOOO..      ..%OOOOOOOOOOOOOOOOOOOOOOOOOO",
"ooooooooooooooooooooooooooo..      ..Ooooooooooooooooooooooooooo",
"oOXoooooooooooooooooooooOXo..      ..OoOXoooooooooooooooooooooOX",
"oX.oooooooooooooooooooooX.o..      ..OoX.oooooooooooooooooooooX.",
"ooooooooooooooooooooooooooo..      ..Ooooooooooooooooooooooooooo",
"ooooooooooooooooooooooooooo..      ..Ooooooooooooooooooooooooooo",
"ooooooooooooooooooooooooooo..      ..Ooooooooooooooooooooooooooo",
"ooooooooooooooooooooooooooo..      ..Ooooooooooooooooooooooooooo",
"ooooooooooooooooooooooooooo..      ..Ooooooooooooooooooooooooooo",
"ooooooooooooooooooooooooooo..      ..Ooooooooooooooooooooooooooo",
"oOXoooooooooooooooooooooOXo..      ..OoOXoooooooooooooooooooooOX",
"oX.oooooooooooooooooooooX.o..      ..OoX.oooooooooooooooooooooX.",
"ooooooooooooooooooooooooooo..      ..Ooooooooooooooooooooooooooo",
".............................      .............................",
"OOOOOOOOOOOOOOOOOOOOOOOOOOO..      ..OOOOOOOOOOOOOOOOOOOOOOOOOOO",
"ooooooooooooooooooooooooooo..      ..ooooooooooooooooooooooooooo",
"ooooooooooooooooooooooooooo..      ..ooooooooooooooooooooooooooo",
"ooooooooooooooooooooooooooo..      ..ooooooooooooooooooooooooooo",
"ooooooooooooooooooooooooooo..      ..ooooooooooooooooooooooooooo",
"ooooooooooooooooooooooooooo..      ..ooooooooooooooooooooooooooo",
"ooooooooooooooooooooooooooo..      ..ooooooooooooooooooooooooooo",
".............................      ............................."
};
