/* XPM */
static char *_f4ce2f93c5e4d01b3903dfda1e33166Uv1TyZsxy7aj4fZ6[] = {
/* columns rows colors chars-per-pixel */
"64 64 7 1 ",
"  c None",
". c gray20",
"X c #434343",
"o c #535353",
"O c #777777",
"+ c #7FB717",
"@ c gray53",
/* pixels */
"OOOOOOOOOOOOOO                                    OOOOOOOOOOOOOO",
"ooooooooooooo.                                    .ooooooooooooo",
"ooooooooooooo.                                    .ooooooooooooo",
"..............                                    ..............",
"OOOOOOOOOOOO..                                    ..@OOOOOOOOOOO",
"oooooooooooo..                                    ..Oooooooooooo",
"oooooooooOXo..                                    ..OoOXoooooooo",
"oooooooooX.o..                                    ..OoX.oooooooo",
"oooooooooooo..                                    ..Oooooooooooo",
"oooooooooooo..                                    ..Oooooooooooo",
"oooooooooooo..                                    ..Oooooooooooo",
"oooooooooooo..                                    ..Oooooooooooo",
"oooooooooooo..                                    ..Oooooooooooo",
"oooooooooooo..                                    ..Oooooooooooo",
"oooooooooooo..                                    ..Oooooooooooo",
"oooooooooooo..                                    ..Oooooooooooo",
"oooooooooooo..                                    ..Oooooooooooo",
"oooooooooooo..                                    ..Oooooooooooo",
"oooooooooooo..                                    ..Oooooooooooo",
"oooooooooooo..                                    ..Oooooooooooo",
"oooooooooooo..                                    ..Oooooooooooo",
"oooooooooooo..                                    ..OooooooooooO",
"oooooooooOXo..                                    ..OoOXooooooO.",
"oooooooooX.o..                                    ..OoX.ooooooO.",
"oooooooooooo..                                    ..OoooooooooO.",
"..............                                    ............O.",
"OOOOOOO.@OOO..                                    .@OOO..@OOOOO.",
"ooooooo.Oooo..                                    .Oooo..OooooO.",
"ooooOXo.Oooo..                                    .Oooo..OoOXoO.",
"ooooX.o.Oooo..                                    .Oooo..OoX.oO.",
"ooooooo.O+++..                                    .O+++..OooooO.",
"ooooooo.O+++..                                    .O+++..OooooO.",
"ooooooo.Oooo..                                    .Oooo..OooooO.",
"ooooooo.Oo....                                    .O..o..OooooO.",
"ooooooo.Oo....                                    .O..o..OooooO.",
"ooooooo.Oo....                                    .O..o..OooooO.",
"ooooooo.Oo....                                    .O..o..OooooO.",
"ooooooo.Oo....                                    .O..o..OooooO.",
"ooooOXo.Oooo..                                    .Oooo..OoOXoo.",
"ooooX.o.......                                    .......OoX.ooo",
"ooooooo.......                                    .......Ooooooo",
"..............                                    ..............",
"OOOOOOOOOOOO..                                    ..@OOOOOOOOOOO",
"oooooooooooo..                                    ..Oooooooooooo",
"oooooooooOXo..                                    ..OoOXoooooooo",
"oooooooooX.o..                                    ..OoX.oooooooo",
"oooooooooooo..                                    ..Oooooooooooo",
"oooooooooooo..                                    ..Oooooooooooo",
"oooooooooooo..                                    ..Oooooooooooo",
"oooooooooooo..                                    ..Oooooooooooo",
"oooooooooooo..                                    ..Oooooooooooo",
"oooooooooooo..                                    ..Oooooooooooo",
"oooooooooOXo..                                    ..OoOXoooooooo",
"oooooooooX.o..                                    ..OoX.oooooooo",
"oooooooooooo..                                    ..Oooooooooooo",
"..............                                    ..............",
"OOOOOOOOOOOO..                                    ..OOOOOOOOOOOO",
"oooooooooooo..                                    ..oooooooooooo",
"oooooooooooo..                                    ..oooooooooooo",
"oooooooooooo..                                    ..oooooooooooo",
"oooooooooooo..                                    ..oooooooooooo",
"oooooooooooo..                                    ..oooooooooooo",
"oooooooooooo..                                    ..oooooooooooo",
"..............                                    .............."
};
