/* XPM */
static char *_ed9ce7804ad48bfa776fe8393444712GlggrE02O2B9lj9I[] = {
/* columns rows colors chars-per-pixel */
"64 64 7 1 ",
"  c None",
". c gray20",
"X c #434343",
"o c #535353",
"O c #777777",
"+ c #7FB717",
"@ c gray53",
/* pixels */
"OOOOOOOO                                                OOOOOOOO",
"ooooooo.                                                .ooooooo",
"ooooooo.                                                .ooooooo",
"........                                                ........",
"OOOOOO..                                                ..@OOOOO",
"oooooo..                                                ..Oooooo",
"oooOXo..                                                ..OoOXoo",
"oooX.o..                                                ..OoX.oo",
"oooooo..                                                ..Oooooo",
"oooooo..                                                ..Oooooo",
"oooooo..                                                ..Oooooo",
"oooooo..                                                ..Oooooo",
"oooooo..                                                ..Oooooo",
"oooooo..                                                ..Oooooo",
"oooooo..                                                ..Oooooo",
"oooooo..                                                ..Oooooo",
"oooooo..                                                ..Oooooo",
"oooooo..                                                ..Oooooo",
"oooooo..                                                ..Oooooo",
"oooooo..                                                ..Oooooo",
"oooooo..                                                ..Oooooo",
"oooooo..                                                ..Oooooo",
"oooOXo..                                                ..OoOXoo",
"oooX.o..                                                ..OoX.oo",
"oooooo..                                                ..Oooooo",
"........                                                ........",
"O.@OOO..                                                .@OOO..@",
"o.Oooo..                                                .Oooo..O",
"o.Oooo..                                                .Oooo..O",
"o.Oooo..                                                .Oooo..O",
"o.O+++..                                                .O+++..O",
"o.O+++..                                                .O+++..O",
"o.Oooo..                                                .Oooo..O",
"o.Oo....                                                .O..o..O",
"o.Oo....                                                .O..o..O",
"o.Oo....                                                .O..o..O",
"o.Oo....                                                .O..o..O",
"o.Oo....                                                .O..o..O",
"o.Oooo..                                                .Oooo..O",
"o.......                                                .......O",
"o.......                                                .......O",
"........                                                ........",
"OOOOOO..                                                ..@OOOOO",
"oooooo..                                                ..Oooooo",
"oooOXo..                                                ..OoOXoo",
"oooX.o..                                                ..OoX.oo",
"oooooo..                                                ..Oooooo",
"oooooo..                                                ..Oooooo",
"oooooo..                                                ..Oooooo",
"oooooo..                                                ..Oooooo",
"oooooo..                                                ..Oooooo",
"oooooo..                                                ..Oooooo",
"oooOXo..                                                ..OoOXoo",
"oooX.o..                                                ..OoX.oo",
"oooooo..                                                ..Oooooo",
"........                                                ........",
"OOOOOO..                                                ..OOOOOO",
"oooooo..                                                ..oooooo",
"oooooo..                                                ..oooooo",
"oooooo..                                                ..oooooo",
"oooooo..                                                ..oooooo",
"oooooo..                                                ..oooooo",
"oooooo..                                                ..oooooo",
"........                                                ........"
};
