/* XPM */
static char *a6c83890b5c64e21965d0cee9417af122XBMShpjU0zuMiMH[] = {
/* columns rows colors chars-per-pixel */
"64 64 11 1 ",
"  c None",
". c gray20",
"X c #434343",
"o c #535353",
"O c #777777",
"+ c #5F9B00",
"@ c #7FB717",
"# c #A3D337",
"$ c #C7EF63",
"% c gray53",
"& c #979797",
/* pixels */
"OOOOOOOOOOOOOOOOOOOOOOOOO              OOOOOOOOOOOOOOOOOOOOOOOOO",
"oooooooooooooooooooooooo.              .oooooooooooooooooooooooo",
"oooooooooooooooooooooooo.              .oooooooooooooooooooooooo",
".........................              .........................",
"OOOOOOOOOOOOOOOOOOOOOOO..              ..%OOOOOOOOOOOOOOOOOOOOOO",
"ooooooooooooooooooooooo..              ..Ooooooooooooooooooooooo",
"ooooooooooooooooooooOXo..              ..OoOXooooooooooooooooooo",
"ooooooooooooooooooooX.o..              ..OoX.ooooooooooooooooooo",
"ooooooooooooooooooooooo..              ..Ooooooooooooooooooooooo",
"ooooooooooooooooooooooo..              ..Ooooooooooooooooooooooo",
"ooooooooooooooooooooooo..              ..Ooooooooooooooooooooooo",
"ooooooooooooooooooooooo..              ..Ooooooooooooooooooooooo",
"ooooooooooooooooooooooo..              ..Ooooooooooooooooooooooo",
"ooooooooooooooooooooooo..              ..Ooooooooooooooooooooooo",
"ooooooooooooooooooooooo..              ..Ooooooooooooooooooooooo",
"ooooooooooooooooooooooo..              ..Ooooooooooooooooooooooo",
"ooooooooooooooooooooooo..              ..Ooooooooooooooooooooooo",
"ooooooooooooooooooooooo..              ..Ooooooooooooooooooooooo",
"ooooooooooooooooooooooo..              ..Ooooooooooooooooooooooo",
"ooooooooooooooooooooooo..              ..Ooooooooooooooooooooooo",
"ooooooooooooooooooooooo..              ..Ooooooooooooooooooooooo",
"ooooooooooooooooooooooo..              ..OooooooooooOOOOOOOOOOOo",
"ooooooooooooooooooooOXo..              ..OoOXooooooO............",
"ooooooooooooooooooooX.o..              ..OoX.ooooooO............",
"ooooooooooooooooooooooo..              ..OoooooooooO..$##@.o.o..",
".........................              ............O..#@@+.O.O..",
"OOOOOOOOOOOOOOOOOO.%OOO..              .%OOO..%OOOOO..#@@+.O.O..",
"oooooooooooooooooo.Oooo..              .Oooo..OooooO..#@@+.&.O..",
"oooooooooooooooOXo.Oooo..              .Oooo..OoOXoO..@+++.&.&..",
"oooooooooooooooX.o.Oooo..              .Oooo..OoX.oO.......&.&..",
"oooooooooooooooooo.O@@@..              .O@@@..OooooO..OOoX.O.O..",
"oooooooooooooooooo.O@@@..              .O@@@..OooooO..OoX..O.O..",
"oooooooooooooooooo.Oooo..              .Oooo..OooooO.......O.O..",
"oooooooooooooooooo.Oo....              .O..o..OooooO..OOoX.o.O..",
"oooooooooooooooooo.Oo....              .O..o..OooooO..OoX..o.o..",
"oooooooooooooooooo.Oo....              .O..o..OooooO.......X.X..",
"oooooooooooooooooo.Oo....              .O..o..OooooO............",
"oooooooooooooooooo.Oo....              .O..o..OooooO............",
"oooooooooooooooOXo.Oooo..              .Oooo..OoOXoo............",
"oooooooooooooooX.o.......              .......OoX.oooooooooooooo",
"oooooooooooooooooo.......              .......Oooooooooooooooooo",
".........................              .........................",
"OOOOOOOOOOOOOOOOOOOOOOO..              ..%OOOOOOOOOOOOOOOOOOOOOO",
"ooooooooooooooooooooooo..              ..Ooooooooooooooooooooooo",
"ooooooooooooooooooooOXo..              ..OoOXooooooooooooooooooo",
"ooooooooooooooooooooX.o..              ..OoX.ooooooooooooooooooo",
"ooooooooooooooooooooooo..              ..Ooooooooooooooooooooooo",
"ooooooooooooooooooooooo..              ..Ooooooooooooooooooooooo",
"ooooooooooooooooooooooo..              ..Ooooooooooooooooooooooo",
"ooooooooooooooooooooooo..              ..Ooooooooooooooooooooooo",
"ooooooooooooooooooooooo..              ..Ooooooooooooooooooooooo",
"ooooooooooooooooooooooo..              ..Ooooooooooooooooooooooo",
"ooooooooooooooooooooOXo..              ..OoOXooooooooooooooooooo",
"ooooooooooooooooooooX.o..              ..OoX.ooooooooooooooooooo",
"ooooooooooooooooooooooo..              ..Ooooooooooooooooooooooo",
".........................              .........................",
"OOOOOOOOOOOOOOOOOOOOOOO..              ..OOOOOOOOOOOOOOOOOOOOOOO",
"ooooooooooooooooooooooo..              ..ooooooooooooooooooooooo",
"ooooooooooooooooooooooo..              ..ooooooooooooooooooooooo",
"ooooooooooooooooooooooo..              ..ooooooooooooooooooooooo",
"ooooooooooooooooooooooo..              ..ooooooooooooooooooooooo",
"ooooooooooooooooooooooo..              ..ooooooooooooooooooooooo",
"ooooooooooooooooooooooo..              ..ooooooooooooooooooooooo",
".........................              ........................."
};
