/* XPM */
static char *_84f4f805dfe4066d2daf73943878837QCgCqqKSaZ72k7EL[] = {
/* columns rows colors chars-per-pixel */
"64 64 7 1 ",
"  c None",
". c gray20",
"X c #434343",
"o c #535353",
"O c #777777",
"+ c #7FB717",
"@ c gray53",
/* pixels */
"OOOOOOOOOOOOOOO                                  OOOOOOOOOOOOOOO",
"oooooooooooooo.                                  .oooooooooooooo",
"oooooooooooooo.                                  .oooooooooooooo",
"...............                                  ...............",
"OOOOOOOOOOOOO..                                  ..@OOOOOOOOOOOO",
"ooooooooooooo..                                  ..Ooooooooooooo",
"ooooooooooOXo..                                  ..OoOXooooooooo",
"ooooooooooX.o..                                  ..OoX.ooooooooo",
"ooooooooooooo..                                  ..Ooooooooooooo",
"ooooooooooooo..                                  ..Ooooooooooooo",
"ooooooooooooo..                                  ..Ooooooooooooo",
"ooooooooooooo..                                  ..Ooooooooooooo",
"ooooooooooooo..                                  ..Ooooooooooooo",
"ooooooooooooo..                                  ..Ooooooooooooo",
"ooooooooooooo..                                  ..Ooooooooooooo",
"ooooooooooooo..                                  ..Ooooooooooooo",
"ooooooooooooo..                                  ..Ooooooooooooo",
"ooooooooooooo..                                  ..Ooooooooooooo",
"ooooooooooooo..                                  ..Ooooooooooooo",
"ooooooooooooo..                                  ..Ooooooooooooo",
"ooooooooooooo..                                  ..Ooooooooooooo",
"ooooooooooooo..                                  ..OooooooooooOO",
"ooooooooooOXo..                                  ..OoOXooooooO..",
"ooooooooooX.o..                                  ..OoX.ooooooO..",
"ooooooooooooo..                                  ..OoooooooooO..",
"...............                                  ............O..",
"OOOOOOOO.@OOO..                                  .@OOO..@OOOOO..",
"oooooooo.Oooo..                                  .Oooo..OooooO..",
"oooooOXo.Oooo..                                  .Oooo..OoOXoO..",
"oooooX.o.Oooo..                                  .Oooo..OoX.oO..",
"oooooooo.O+++..                                  .O+++..OooooO..",
"oooooooo.O+++..                                  .O+++..OooooO..",
"oooooooo.Oooo..                                  .Oooo..OooooO..",
"oooooooo.Oo....                                  .O..o..OooooO..",
"oooooooo.Oo....                                  .O..o..OooooO..",
"oooooooo.Oo....                                  .O..o..OooooO..",
"oooooooo.Oo....                                  .O..o..OooooO..",
"oooooooo.Oo....                                  .O..o..OooooO..",
"oooooOXo.Oooo..                                  .Oooo..OoOXoo..",
"oooooX.o.......                                  .......OoX.oooo",
"oooooooo.......                                  .......Oooooooo",
"...............                                  ...............",
"OOOOOOOOOOOOO..                                  ..@OOOOOOOOOOOO",
"ooooooooooooo..                                  ..Ooooooooooooo",
"ooooooooooOXo..                                  ..OoOXooooooooo",
"ooooooooooX.o..                                  ..OoX.ooooooooo",
"ooooooooooooo..                                  ..Ooooooooooooo",
"ooooooooooooo..                                  ..Ooooooooooooo",
"ooooooooooooo..                                  ..Ooooooooooooo",
"ooooooooooooo..                                  ..Ooooooooooooo",
"ooooooooooooo..                                  ..Ooooooooooooo",
"ooooooooooooo..                                  ..Ooooooooooooo",
"ooooooooooOXo..                                  ..OoOXooooooooo",
"ooooooooooX.o..                                  ..OoX.ooooooooo",
"ooooooooooooo..                                  ..Ooooooooooooo",
"...............                                  ...............",
"OOOOOOOOOOOOO..                                  ..OOOOOOOOOOOOO",
"ooooooooooooo..                                  ..ooooooooooooo",
"ooooooooooooo..                                  ..ooooooooooooo",
"ooooooooooooo..                                  ..ooooooooooooo",
"ooooooooooooo..                                  ..ooooooooooooo",
"ooooooooooooo..                                  ..ooooooooooooo",
"ooooooooooooo..                                  ..ooooooooooooo",
"...............                                  ..............."
};
