/* XPM */
static char *_59036c860384adfe457e21773b2f131bVUAwwngn7ys552d[] = {
/* columns rows colors chars-per-pixel */
"64 64 7 1 ",
"  c None",
". c gray20",
"X c #434343",
"o c #535353",
"O c #777777",
"+ c #7FB717",
"@ c gray53",
/* pixels */
"OOOOOOOOOOO                                          OOOOOOOOOOO",
"oooooooooo.                                          .oooooooooo",
"oooooooooo.                                          .oooooooooo",
"...........                                          ...........",
"OOOOOOOOO..                                          ..@OOOOOOOO",
"ooooooooo..                                          ..Ooooooooo",
"ooooooOXo..                                          ..OoOXooooo",
"ooooooX.o..                                          ..OoX.ooooo",
"ooooooooo..                                          ..Ooooooooo",
"ooooooooo..                                          ..Ooooooooo",
"ooooooooo..                                          ..Ooooooooo",
"ooooooooo..                                          ..Ooooooooo",
"ooooooooo..                                          ..Ooooooooo",
"ooooooooo..                                          ..Ooooooooo",
"ooooooooo..                                          ..Ooooooooo",
"ooooooooo..                                          ..Ooooooooo",
"ooooooooo..                                          ..Ooooooooo",
"ooooooooo..                                          ..Ooooooooo",
"ooooooooo..                                          ..Ooooooooo",
"ooooooooo..                                          ..Ooooooooo",
"ooooooooo..                                          ..Ooooooooo",
"ooooooooo..                                          ..Ooooooooo",
"ooooooOXo..                                          ..OoOXooooo",
"ooooooX.o..                                          ..OoX.ooooo",
"ooooooooo..                                          ..Ooooooooo",
"...........                                          ...........",
"OOOO.@OOO..                                          .@OOO..@OOO",
"oooo.Oooo..                                          .Oooo..Oooo",
"oOXo.Oooo..                                          .Oooo..OoOX",
"oX.o.Oooo..                                          .Oooo..OoX.",
"oooo.O+++..                                          .O+++..Oooo",
"oooo.O+++..                                          .O+++..Oooo",
"oooo.Oooo..                                          .Oooo..Oooo",
"oooo.Oo....                                          .O..o..Oooo",
"oooo.Oo....                                          .O..o..Oooo",
"oooo.Oo....                                          .O..o..Oooo",
"oooo.Oo....                                          .O..o..Oooo",
"oooo.Oo....                                          .O..o..Oooo",
"oOXo.Oooo..                                          .Oooo..OoOX",
"oX.o.......                                          .......OoX.",
"oooo.......                                          .......Oooo",
"...........                                          ...........",
"OOOOOOOOO..                                          ..@OOOOOOOO",
"ooooooooo..                                          ..Ooooooooo",
"ooooooOXo..                                          ..OoOXooooo",
"ooooooX.o..                                          ..OoX.ooooo",
"ooooooooo..                                          ..Ooooooooo",
"ooooooooo..                                          ..Ooooooooo",
"ooooooooo..                                          ..Ooooooooo",
"ooooooooo..                                          ..Ooooooooo",
"ooooooooo..                                          ..Ooooooooo",
"ooooooooo..                                          ..Ooooooooo",
"ooooooOXo..                                          ..OoOXooooo",
"ooooooX.o..                                          ..OoX.ooooo",
"ooooooooo..                                          ..Ooooooooo",
"...........                                          ...........",
"OOOOOOOOO..                                          ..OOOOOOOOO",
"ooooooooo..                                          ..ooooooooo",
"ooooooooo..                                          ..ooooooooo",
"ooooooooo..                                          ..ooooooooo",
"ooooooooo..                                          ..ooooooooo",
"ooooooooo..                                          ..ooooooooo",
"ooooooooo..                                          ..ooooooooo",
"...........                                          ..........."
};
