/* XPM */
static char *c6c6982beea04550c2c6fec7050c56106QGeW6CjsYo9DMjP[] = {
/* columns rows colors chars-per-pixel */
"64 64 11 1 ",
"  c None",
". c gray20",
"X c #434343",
"o c #535353",
"O c #777777",
"+ c #5F9B00",
"@ c #7FB717",
"# c #A3D337",
"$ c #C7EF63",
"% c gray53",
"& c #979797",
/* pixels */
"OOOOOOOOOOOOOOOOOOOOOOOO                OOOOOOOOOOOOOOOOOOOOOOOO",
"ooooooooooooooooooooooo.                .ooooooooooooooooooooooo",
"ooooooooooooooooooooooo.                .ooooooooooooooooooooooo",
"........................                ........................",
"OOOOOOOOOOOOOOOOOOOOOO..                ..%OOOOOOOOOOOOOOOOOOOOO",
"oooooooooooooooooooooo..                ..Oooooooooooooooooooooo",
"oooooooooooooooooooOXo..                ..OoOXoooooooooooooooooo",
"oooooooooooooooooooX.o..                ..OoX.oooooooooooooooooo",
"oooooooooooooooooooooo..                ..Oooooooooooooooooooooo",
"oooooooooooooooooooooo..                ..Oooooooooooooooooooooo",
"oooooooooooooooooooooo..                ..Oooooooooooooooooooooo",
"oooooooooooooooooooooo..                ..Oooooooooooooooooooooo",
"oooooooooooooooooooooo..                ..Oooooooooooooooooooooo",
"oooooooooooooooooooooo..                ..Oooooooooooooooooooooo",
"oooooooooooooooooooooo..                ..Oooooooooooooooooooooo",
"oooooooooooooooooooooo..                ..Oooooooooooooooooooooo",
"oooooooooooooooooooooo..                ..Oooooooooooooooooooooo",
"oooooooooooooooooooooo..                ..Oooooooooooooooooooooo",
"oooooooooooooooooooooo..                ..Oooooooooooooooooooooo",
"oooooooooooooooooooooo..                ..Oooooooooooooooooooooo",
"oooooooooooooooooooooo..                ..Oooooooooooooooooooooo",
"oooooooooooooooooooooo..                ..OooooooooooOOOOOOOOOOO",
"oooooooooooooooooooOXo..                ..OoOXooooooO...........",
"oooooooooooooooooooX.o..                ..OoX.ooooooO...........",
"oooooooooooooooooooooo..                ..OoooooooooO..$##@.o.o.",
"........................                ............O..#@@+.O.O.",
"OOOOOOOOOOOOOOOOO.%OOO..                .%OOO..%OOOOO..#@@+.O.O.",
"ooooooooooooooooo.Oooo..                .Oooo..OooooO..#@@+.&.O.",
"ooooooooooooooOXo.Oooo..                .Oooo..OoOXoO..@+++.&.&.",
"ooooooooooooooX.o.Oooo..                .Oooo..OoX.oO.......&.&.",
"ooooooooooooooooo.O@@@..                .O@@@..OooooO..OOoX.O.O.",
"ooooooooooooooooo.O@@@..                .O@@@..OooooO..OoX..O.O.",
"ooooooooooooooooo.Oooo..                .Oooo..OooooO.......O.O.",
"ooooooooooooooooo.Oo....                .O..o..OooooO..OOoX.o.O.",
"ooooooooooooooooo.Oo....                .O..o..OooooO..OoX..o.o.",
"ooooooooooooooooo.Oo....                .O..o..OooooO.......X.X.",
"ooooooooooooooooo.Oo....                .O..o..OooooO...........",
"ooooooooooooooooo.Oo....                .O..o..OooooO...........",
"ooooooooooooooOXo.Oooo..                .Oooo..OoOXoo...........",
"ooooooooooooooX.o.......                .......OoX.ooooooooooooo",
"ooooooooooooooooo.......                .......Ooooooooooooooooo",
"........................                ........................",
"OOOOOOOOOOOOOOOOOOOOOO..                ..%OOOOOOOOOOOOOOOOOOOOO",
"oooooooooooooooooooooo..                ..Oooooooooooooooooooooo",
"oooooooooooooooooooOXo..                ..OoOXoooooooooooooooooo",
"oooooooooooooooooooX.o..                ..OoX.oooooooooooooooooo",
"oooooooooooooooooooooo..                ..Oooooooooooooooooooooo",
"oooooooooooooooooooooo..                ..Oooooooooooooooooooooo",
"oooooooooooooooooooooo..                ..Oooooooooooooooooooooo",
"oooooooooooooooooooooo..                ..Oooooooooooooooooooooo",
"oooooooooooooooooooooo..                ..Oooooooooooooooooooooo",
"oooooooooooooooooooooo..                ..Oooooooooooooooooooooo",
"oooooooooooooooooooOXo..                ..OoOXoooooooooooooooooo",
"oooooooooooooooooooX.o..                ..OoX.oooooooooooooooooo",
"oooooooooooooooooooooo..                ..Oooooooooooooooooooooo",
"........................                ........................",
"OOOOOOOOOOOOOOOOOOOOOO..                ..OOOOOOOOOOOOOOOOOOOOOO",
"oooooooooooooooooooooo..                ..oooooooooooooooooooooo",
"oooooooooooooooooooooo..                ..oooooooooooooooooooooo",
"oooooooooooooooooooooo..                ..oooooooooooooooooooooo",
"oooooooooooooooooooooo..                ..oooooooooooooooooooooo",
"oooooooooooooooooooooo..                ..oooooooooooooooooooooo",
"oooooooooooooooooooooo..                ..oooooooooooooooooooooo",
"........................                ........................"
};
