/* XPM */
static char *_b3582b624704a29d829a49d378ef11fJC6i9ydmAlqD9dp2[] = {
/* columns rows colors chars-per-pixel */
"64 64 7 1 ",
"  c None",
". c gray20",
"X c #434343",
"o c #535353",
"O c #777777",
"+ c #7FB717",
"@ c gray53",
/* pixels */
"OOOOOOOOOOOOO                                      OOOOOOOOOOOOO",
"oooooooooooo.                                      .oooooooooooo",
"oooooooooooo.                                      .oooooooooooo",
".............                                      .............",
"OOOOOOOOOOO..                                      ..@OOOOOOOOOO",
"ooooooooooo..                                      ..Ooooooooooo",
"ooooooooOXo..                                      ..OoOXooooooo",
"ooooooooX.o..                                      ..OoX.ooooooo",
"ooooooooooo..                                      ..Ooooooooooo",
"ooooooooooo..                                      ..Ooooooooooo",
"ooooooooooo..                                      ..Ooooooooooo",
"ooooooooooo..                                      ..Ooooooooooo",
"ooooooooooo..                                      ..Ooooooooooo",
"ooooooooooo..                                      ..Ooooooooooo",
"ooooooooooo..                                      ..Ooooooooooo",
"ooooooooooo..                                      ..Ooooooooooo",
"ooooooooooo..                                      ..Ooooooooooo",
"ooooooooooo..                                      ..Ooooooooooo",
"ooooooooooo..                                      ..Ooooooooooo",
"ooooooooooo..                                      ..Ooooooooooo",
"ooooooooooo..                                      ..Ooooooooooo",
"ooooooooooo..                                      ..Ooooooooooo",
"ooooooooOXo..                                      ..OoOXooooooO",
"ooooooooX.o..                                      ..OoX.ooooooO",
"ooooooooooo..                                      ..OoooooooooO",
".............                                      ............O",
"OOOOOO.@OOO..                                      .@OOO..@OOOOO",
"oooooo.Oooo..                                      .Oooo..OooooO",
"oooOXo.Oooo..                                      .Oooo..OoOXoO",
"oooX.o.Oooo..                                      .Oooo..OoX.oO",
"oooooo.O+++..                                      .O+++..OooooO",
"oooooo.O+++..                                      .O+++..OooooO",
"oooooo.Oooo..                                      .Oooo..OooooO",
"oooooo.Oo....                                      .O..o..OooooO",
"oooooo.Oo....                                      .O..o..OooooO",
"oooooo.Oo....                                      .O..o..OooooO",
"oooooo.Oo....                                      .O..o..OooooO",
"oooooo.Oo....                                      .O..o..OooooO",
"oooOXo.Oooo..                                      .Oooo..OoOXoo",
"oooX.o.......                                      .......OoX.oo",
"oooooo.......                                      .......Oooooo",
".............                                      .............",
"OOOOOOOOOOO..                                      ..@OOOOOOOOOO",
"ooooooooooo..                                      ..Ooooooooooo",
"ooooooooOXo..                                      ..OoOXooooooo",
"ooooooooX.o..                                      ..OoX.ooooooo",
"ooooooooooo..                                      ..Ooooooooooo",
"ooooooooooo..                                      ..Ooooooooooo",
"ooooooooooo..                                      ..Ooooooooooo",
"ooooooooooo..                                      ..Ooooooooooo",
"ooooooooooo..                                      ..Ooooooooooo",
"ooooooooooo..                                      ..Ooooooooooo",
"ooooooooOXo..                                      ..OoOXooooooo",
"ooooooooX.o..                                      ..OoX.ooooooo",
"ooooooooooo..                                      ..Ooooooooooo",
".............                                      .............",
"OOOOOOOOOOO..                                      ..OOOOOOOOOOO",
"ooooooooooo..                                      ..ooooooooooo",
"ooooooooooo..                                      ..ooooooooooo",
"ooooooooooo..                                      ..ooooooooooo",
"ooooooooooo..                                      ..ooooooooooo",
"ooooooooooo..                                      ..ooooooooooo",
"ooooooooooo..                                      ..ooooooooooo",
".............                                      ............."
};
