/* XPM */
static char *c344af43993644bda26ba6a23d2b53cdZFBxqHt3RwuX4kW1[] = {
/* columns rows colors chars-per-pixel */
"64 64 11 1 ",
"  c None",
". c gray20",
"X c #434343",
"o c #535353",
"O c #777777",
"+ c #5F9B00",
"@ c #7FB717",
"# c #A3D337",
"$ c #C7EF63",
"% c gray53",
"& c #979797",
/* pixels */
"OOOOOOOOOOOOOOOOOOOOOO                    OOOOOOOOOOOOOOOOOOOOOO",
"ooooooooooooooooooooo.                    .ooooooooooooooooooooo",
"ooooooooooooooooooooo.                    .ooooooooooooooooooooo",
"......................                    ......................",
"OOOOOOOOOOOOOOOOOOOO..                    ..%OOOOOOOOOOOOOOOOOOO",
"oooooooooooooooooooo..                    ..Oooooooooooooooooooo",
"oooooooooooooooooOXo..                    ..OoOXoooooooooooooooo",
"oooooooooooooooooX.o..                    ..OoX.oooooooooooooooo",
"oooooooooooooooooooo..                    ..Oooooooooooooooooooo",
"oooooooooooooooooooo..                    ..Oooooooooooooooooooo",
"oooooooooooooooooooo..                    ..Oooooooooooooooooooo",
"oooooooooooooooooooo..                    ..Oooooooooooooooooooo",
"oooooooooooooooooooo..                    ..Oooooooooooooooooooo",
"oooooooooooooooooooo..                    ..Oooooooooooooooooooo",
"oooooooooooooooooooo..                    ..Oooooooooooooooooooo",
"oooooooooooooooooooo..                    ..Oooooooooooooooooooo",
"oooooooooooooooooooo..                    ..Oooooooooooooooooooo",
"oooooooooooooooooooo..                    ..Oooooooooooooooooooo",
"oooooooooooooooooooo..                    ..Oooooooooooooooooooo",
"oooooooooooooooooooo..                    ..Oooooooooooooooooooo",
"oooooooooooooooooooo..                    ..Oooooooooooooooooooo",
"oooooooooooooooooooo..                    ..OooooooooooOOOOOOOOO",
"oooooooooooooooooOXo..                    ..OoOXooooooO.........",
"oooooooooooooooooX.o..                    ..OoX.ooooooO.........",
"oooooooooooooooooooo..                    ..OoooooooooO..$##@.o.",
"......................                    ............O..#@@+.O.",
"OOOOOOOOOOOOOOO.%OOO..                    .%OOO..%OOOOO..#@@+.O.",
"ooooooooooooooo.Oooo..                    .Oooo..OooooO..#@@+.&.",
"ooooooooooooOXo.Oooo..                    .Oooo..OoOXoO..@+++.&.",
"ooooooooooooX.o.Oooo..                    .Oooo..OoX.oO.......&.",
"ooooooooooooooo.O@@@..                    .O@@@..OooooO..OOoX.O.",
"ooooooooooooooo.O@@@..                    .O@@@..OooooO..OoX..O.",
"ooooooooooooooo.Oooo..                    .Oooo..OooooO.......O.",
"ooooooooooooooo.Oo....                    .O..o..OooooO..OOoX.o.",
"ooooooooooooooo.Oo....                    .O..o..OooooO..OoX..o.",
"ooooooooooooooo.Oo....                    .O..o..OooooO.......X.",
"ooooooooooooooo.Oo....                    .O..o..OooooO.........",
"ooooooooooooooo.Oo....                    .O..o..OooooO.........",
"ooooooooooooOXo.Oooo..                    .Oooo..OoOXoo.........",
"ooooooooooooX.o.......                    .......OoX.ooooooooooo",
"ooooooooooooooo.......                    .......Ooooooooooooooo",
"......................                    ......................",
"OOOOOOOOOOOOOOOOOOOO..                    ..%OOOOOOOOOOOOOOOOOOO",
"oooooooooooooooooooo..                    ..Oooooooooooooooooooo",
"oooooooooooooooooOXo..                    ..OoOXoooooooooooooooo",
"oooooooooooooooooX.o..                    ..OoX.oooooooooooooooo",
"oooooooooooooooooooo..                    ..Oooooooooooooooooooo",
"oooooooooooooooooooo..                    ..Oooooooooooooooooooo",
"oooooooooooooooooooo..                    ..Oooooooooooooooooooo",
"oooooooooooooooooooo..                    ..Oooooooooooooooooooo",
"oooooooooooooooooooo..                    ..Oooooooooooooooooooo",
"oooooooooooooooooooo..                    ..Oooooooooooooooooooo",
"oooooooooooooooooOXo..                    ..OoOXoooooooooooooooo",
"oooooooooooooooooX.o..                    ..OoX.oooooooooooooooo",
"oooooooooooooooooooo..                    ..Oooooooooooooooooooo",
"......................                    ......................",
"OOOOOOOOOOOOOOOOOOOO..                    ..OOOOOOOOOOOOOOOOOOOO",
"oooooooooooooooooooo..                    ..oooooooooooooooooooo",
"oooooooooooooooooooo..                    ..oooooooooooooooooooo",
"oooooooooooooooooooo..                    ..oooooooooooooooooooo",
"oooooooooooooooooooo..                    ..oooooooooooooooooooo",
"oooooooooooooooooooo..                    ..oooooooooooooooooooo",
"oooooooooooooooooooo..                    ..oooooooooooooooooooo",
"......................                    ......................"
};
