/* XPM */
static char *_062efda33f64f6ab3713f65261dd5c35iVD8WPse3DL8Bf7[] = {
/* columns rows colors chars-per-pixel */
"64 64 11 1 ",
"  c None",
". c gray20",
"X c #434343",
"o c #535353",
"O c #777777",
"+ c #5F9B00",
"@ c #7FB717",
"# c #A3D337",
"$ c #C7EF63",
"% c gray53",
"& c #979797",
/* pixels */
"OOOOOOOOOOOOOOOOOOOOOOOOOO            OOOOOOOOOOOOOOOOOOOOOOOOOO",
"ooooooooooooooooooooooooo.            .ooooooooooooooooooooooooo",
"ooooooooooooooooooooooooo.            .ooooooooooooooooooooooooo",
"..........................            ..........................",
"OOOOOOOOOOOOOOOOOOOOOOOO..            ..%OOOOOOOOOOOOOOOOOOOOOOO",
"oooooooooooooooooooooooo..            ..Oooooooooooooooooooooooo",
"oooooooooooooooooooooOXo..            ..OoOXoooooooooooooooooooo",
"oooooooooooooooooooooX.o..            ..OoX.oooooooooooooooooooo",
"oooooooooooooooooooooooo..            ..Oooooooooooooooooooooooo",
"oooooooooooooooooooooooo..            ..Oooooooooooooooooooooooo",
"oooooooooooooooooooooooo..            ..Oooooooooooooooooooooooo",
"oooooooooooooooooooooooo..            ..Oooooooooooooooooooooooo",
"oooooooooooooooooooooooo..            ..Oooooooooooooooooooooooo",
"oooooooooooooooooooooooo..            ..Oooooooooooooooooooooooo",
"oooooooooooooooooooooooo..            ..Oooooooooooooooooooooooo",
"oooooooooooooooooooooooo..            ..Oooooooooooooooooooooooo",
"oooooooooooooooooooooooo..            ..Oooooooooooooooooooooooo",
"oooooooooooooooooooooooo..            ..Oooooooooooooooooooooooo",
"oooooooooooooooooooooooo..            ..Oooooooooooooooooooooooo",
"oooooooooooooooooooooooo..            ..Oooooooooooooooooooooooo",
"oooooooooooooooooooooooo..            ..Oooooooooooooooooooooooo",
"oooooooooooooooooooooooo..            ..OooooooooooOOOOOOOOOOOoo",
"oooooooooooooooooooooOXo..            ..OoOXooooooO............o",
"oooooooooooooooooooooX.o..            ..OoX.ooooooO............o",
"oooooooooooooooooooooooo..            ..OoooooooooO..$##@.o.o..o",
"..........................            ............O..#@@+.O.O...",
"OOOOOOOOOOOOOOOOOOO.%OOO..            .%OOO..%OOOOO..#@@+.O.O..O",
"ooooooooooooooooooo.Oooo..            .Oooo..OooooO..#@@+.&.O..o",
"ooooooooooooooooOXo.Oooo..            .Oooo..OoOXoO..@+++.&.&..o",
"ooooooooooooooooX.o.Oooo..            .Oooo..OoX.oO.......&.&..o",
"ooooooooooooooooooo.O@@@..            .O@@@..OooooO..OOoX.O.O..o",
"ooooooooooooooooooo.O@@@..            .O@@@..OooooO..OoX..O.O..o",
"ooooooooooooooooooo.Oooo..            .Oooo..OooooO.......O.O..o",
"ooooooooooooooooooo.Oo....            .O..o..OooooO..OOoX.o.O..o",
"ooooooooooooooooooo.Oo....            .O..o..OooooO..OoX..o.o..o",
"ooooooooooooooooooo.Oo....            .O..o..OooooO.......X.X..o",
"ooooooooooooooooooo.Oo....            .O..o..OooooO............o",
"ooooooooooooooooooo.Oo....            .O..o..OooooO............o",
"ooooooooooooooooOXo.Oooo..            .Oooo..OoOXoo............o",
"ooooooooooooooooX.o.......            .......OoX.ooooooooooooooo",
"ooooooooooooooooooo.......            .......Ooooooooooooooooooo",
"..........................            ..........................",
"OOOOOOOOOOOOOOOOOOOOOOOO..            ..%OOOOOOOOOOOOOOOOOOOOOOO",
"oooooooooooooooooooooooo..            ..Oooooooooooooooooooooooo",
"oooooooooooooooooooooOXo..            ..OoOXoooooooooooooooooooo",
"oooooooooooooooooooooX.o..            ..OoX.oooooooooooooooooooo",
"oooooooooooooooooooooooo..            ..Oooooooooooooooooooooooo",
"oooooooooooooooooooooooo..            ..Oooooooooooooooooooooooo",
"oooooooooooooooooooooooo..            ..Oooooooooooooooooooooooo",
"oooooooooooooooooooooooo..            ..Oooooooooooooooooooooooo",
"oooooooooooooooooooooooo..            ..Oooooooooooooooooooooooo",
"oooooooooooooooooooooooo..            ..Oooooooooooooooooooooooo",
"oooooooooooooooooooooOXo..            ..OoOXoooooooooooooooooooo",
"oooooooooooooooooooooX.o..            ..OoX.oooooooooooooooooooo",
"oooooooooooooooooooooooo..            ..Oooooooooooooooooooooooo",
"..........................            ..........................",
"OOOOOOOOOOOOOOOOOOOOOOOO..            ..OOOOOOOOOOOOOOOOOOOOOOOO",
"oooooooooooooooooooooooo..            ..oooooooooooooooooooooooo",
"oooooooooooooooooooooooo..            ..oooooooooooooooooooooooo",
"oooooooooooooooooooooooo..            ..oooooooooooooooooooooooo",
"oooooooooooooooooooooooo..            ..oooooooooooooooooooooooo",
"oooooooooooooooooooooooo..            ..oooooooooooooooooooooooo",
"oooooooooooooooooooooooo..            ..oooooooooooooooooooooooo",
"..........................            .........................."
};
