/* XPM */
static char *_9526878274244cf9839056dc794f28flYxNXaGgc2YScOrV[] = {
/* columns rows colors chars-per-pixel */
"64 64 11 1 ",
"  c None",
". c gray20",
"X c #434343",
"o c #535353",
"O c #777777",
"+ c #5F9B00",
"@ c #7FB717",
"# c #A3D337",
"$ c #C7EF63",
"% c gray53",
"& c #979797",
/* pixels */
"OOOOOOOOOOOOOOOOOOOOOOO                  OOOOOOOOOOOOOOOOOOOOOOO",
"oooooooooooooooooooooo.                  .oooooooooooooooooooooo",
"oooooooooooooooooooooo.                  .oooooooooooooooooooooo",
".......................                  .......................",
"OOOOOOOOOOOOOOOOOOOOO..                  ..%OOOOOOOOOOOOOOOOOOOO",
"ooooooooooooooooooooo..                  ..Ooooooooooooooooooooo",
"ooooooooooooooooooOXo..                  ..OoOXooooooooooooooooo",
"ooooooooooooooooooX.o..                  ..OoX.ooooooooooooooooo",
"ooooooooooooooooooooo..                  ..Ooooooooooooooooooooo",
"ooooooooooooooooooooo..                  ..Ooooooooooooooooooooo",
"ooooooooooooooooooooo..                  ..Ooooooooooooooooooooo",
"ooooooooooooooooooooo..                  ..Ooooooooooooooooooooo",
"ooooooooooooooooooooo..                  ..Ooooooooooooooooooooo",
"ooooooooooooooooooooo..                  ..Ooooooooooooooooooooo",
"ooooooooooooooooooooo..                  ..Ooooooooooooooooooooo",
"ooooooooooooooooooooo..                  ..Ooooooooooooooooooooo",
"ooooooooooooooooooooo..                  ..Ooooooooooooooooooooo",
"ooooooooooooooooooooo..                  ..Ooooooooooooooooooooo",
"ooooooooooooooooooooo..                  ..Ooooooooooooooooooooo",
"ooooooooooooooooooooo..                  ..Ooooooooooooooooooooo",
"ooooooooooooooooooooo..                  ..Ooooooooooooooooooooo",
"ooooooooooooooooooooo..                  ..OooooooooooOOOOOOOOOO",
"ooooooooooooooooooOXo..                  ..OoOXooooooO..........",
"ooooooooooooooooooX.o..                  ..OoX.ooooooO..........",
"ooooooooooooooooooooo..                  ..OoooooooooO..$##@.o.o",
".......................                  ............O..#@@+.O.O",
"OOOOOOOOOOOOOOOO.%OOO..                  .%OOO..%OOOOO..#@@+.O.O",
"oooooooooooooooo.Oooo..                  .Oooo..OooooO..#@@+.&.O",
"oooooooooooooOXo.Oooo..                  .Oooo..OoOXoO..@+++.&.&",
"oooooooooooooX.o.Oooo..                  .Oooo..OoX.oO.......&.&",
"oooooooooooooooo.O@@@..                  .O@@@..OooooO..OOoX.O.O",
"oooooooooooooooo.O@@@..                  .O@@@..OooooO..OoX..O.O",
"oooooooooooooooo.Oooo..                  .Oooo..OooooO.......O.O",
"oooooooooooooooo.Oo....                  .O..o..OooooO..OOoX.o.O",
"oooooooooooooooo.Oo....                  .O..o..OooooO..OoX..o.o",
"oooooooooooooooo.Oo....                  .O..o..OooooO.......X.X",
"oooooooooooooooo.Oo....                  .O..o..OooooO..........",
"oooooooooooooooo.Oo....                  .O..o..OooooO..........",
"oooooooooooooOXo.Oooo..                  .Oooo..OoOXoo..........",
"oooooooooooooX.o.......                  .......OoX.oooooooooooo",
"oooooooooooooooo.......                  .......Oooooooooooooooo",
".......................                  .......................",
"OOOOOOOOOOOOOOOOOOOOO..                  ..%OOOOOOOOOOOOOOOOOOOO",
"ooooooooooooooooooooo..                  ..Ooooooooooooooooooooo",
"ooooooooooooooooooOXo..                  ..OoOXooooooooooooooooo",
"ooooooooooooooooooX.o..                  ..OoX.ooooooooooooooooo",
"ooooooooooooooooooooo..                  ..Ooooooooooooooooooooo",
"ooooooooooooooooooooo..                  ..Ooooooooooooooooooooo",
"ooooooooooooooooooooo..                  ..Ooooooooooooooooooooo",
"ooooooooooooooooooooo..                  ..Ooooooooooooooooooooo",
"ooooooooooooooooooooo..                  ..Ooooooooooooooooooooo",
"ooooooooooooooooooooo..                  ..Ooooooooooooooooooooo",
"ooooooooooooooooooOXo..                  ..OoOXooooooooooooooooo",
"ooooooooooooooooooX.o..                  ..OoX.ooooooooooooooooo",
"ooooooooooooooooooooo..                  ..Ooooooooooooooooooooo",
".......................                  .......................",
"OOOOOOOOOOOOOOOOOOOOO..                  ..OOOOOOOOOOOOOOOOOOOOO",
"ooooooooooooooooooooo..                  ..ooooooooooooooooooooo",
"ooooooooooooooooooooo..                  ..ooooooooooooooooooooo",
"ooooooooooooooooooooo..                  ..ooooooooooooooooooooo",
"ooooooooooooooooooooo..                  ..ooooooooooooooooooooo",
"ooooooooooooooooooooo..                  ..ooooooooooooooooooooo",
"ooooooooooooooooooooo..                  ..ooooooooooooooooooooo",
".......................                  ......................."
};
