/* XPM */
static char *_47f6d65e09f4f1fdd79ca68d9b5006fgEwxbNriUOfdcTDA[] = {
/* columns rows colors chars-per-pixel */
"64 64 10 1 ",
"  c None",
". c gray20",
"X c #434343",
"o c #535353",
"O c #777777",
"+ c #5F9B00",
"@ c #7FB717",
"# c #A3D337",
"$ c #C7EF63",
"% c gray53",
/* pixels */
"OOOOOOOOOOOOOOOOOOOO                        OOOOOOOOOOOOOOOOOOOO",
"ooooooooooooooooooo.                        .ooooooooooooooooooo",
"ooooooooooooooooooo.                        .ooooooooooooooooooo",
"....................                        ....................",
"OOOOOOOOOOOOOOOOOO..                        ..%OOOOOOOOOOOOOOOOO",
"oooooooooooooooooo..                        ..Oooooooooooooooooo",
"oooooooooooooooOXo..                        ..OoOXoooooooooooooo",
"oooooooooooooooX.o..                        ..OoX.oooooooooooooo",
"oooooooooooooooooo..                        ..Oooooooooooooooooo",
"oooooooooooooooooo..                        ..Oooooooooooooooooo",
"oooooooooooooooooo..                        ..Oooooooooooooooooo",
"oooooooooooooooooo..                        ..Oooooooooooooooooo",
"oooooooooooooooooo..                        ..Oooooooooooooooooo",
"oooooooooooooooooo..                        ..Oooooooooooooooooo",
"oooooooooooooooooo..                        ..Oooooooooooooooooo",
"oooooooooooooooooo..                        ..Oooooooooooooooooo",
"oooooooooooooooooo..                        ..Oooooooooooooooooo",
"oooooooooooooooooo..                        ..Oooooooooooooooooo",
"oooooooooooooooooo..                        ..Oooooooooooooooooo",
"oooooooooooooooooo..                        ..Oooooooooooooooooo",
"oooooooooooooooooo..                        ..Oooooooooooooooooo",
"oooooooooooooooooo..                        ..OooooooooooOOOOOOO",
"oooooooooooooooOXo..                        ..OoOXooooooO.......",
"oooooooooooooooX.o..                        ..OoX.ooooooO.......",
"oooooooooooooooooo..                        ..OoooooooooO..$##@.",
"....................                        ............O..#@@+.",
"OOOOOOOOOOOOO.%OOO..                        .%OOO..%OOOOO..#@@+.",
"ooooooooooooo.Oooo..                        .Oooo..OooooO..#@@+.",
"ooooooooooOXo.Oooo..                        .Oooo..OoOXoO..@+++.",
"ooooooooooX.o.Oooo..                        .Oooo..OoX.oO.......",
"ooooooooooooo.O@@@..                        .O@@@..OooooO..OOoX.",
"ooooooooooooo.O@@@..                        .O@@@..OooooO..OoX..",
"ooooooooooooo.Oooo..                        .Oooo..OooooO.......",
"ooooooooooooo.Oo....                        .O..o..OooooO..OOoX.",
"ooooooooooooo.Oo....                        .O..o..OooooO..OoX..",
"ooooooooooooo.Oo....                        .O..o..OooooO.......",
"ooooooooooooo.Oo....                        .O..o..OooooO.......",
"ooooooooooooo.Oo....                        .O..o..OooooO.......",
"ooooooooooOXo.Oooo..                        .Oooo..OoOXoo.......",
"ooooooooooX.o.......                        .......OoX.ooooooooo",
"ooooooooooooo.......                        .......Ooooooooooooo",
"....................                        ....................",
"OOOOOOOOOOOOOOOOOO..                        ..%OOOOOOOOOOOOOOOOO",
"oooooooooooooooooo..                        ..Oooooooooooooooooo",
"oooooooooooooooOXo..                        ..OoOXoooooooooooooo",
"oooooooooooooooX.o..                        ..OoX.oooooooooooooo",
"oooooooooooooooooo..                        ..Oooooooooooooooooo",
"oooooooooooooooooo..                        ..Oooooooooooooooooo",
"oooooooooooooooooo..                        ..Oooooooooooooooooo",
"oooooooooooooooooo..                        ..Oooooooooooooooooo",
"oooooooooooooooooo..                        ..Oooooooooooooooooo",
"oooooooooooooooooo..                        ..Oooooooooooooooooo",
"oooooooooooooooOXo..                        ..OoOXoooooooooooooo",
"oooooooooooooooX.o..                        ..OoX.oooooooooooooo",
"oooooooooooooooooo..                        ..Oooooooooooooooooo",
"....................                        ....................",
"OOOOOOOOOOOOOOOOOO..                        ..OOOOOOOOOOOOOOOOOO",
"oooooooooooooooooo..                        ..oooooooooooooooooo",
"oooooooooooooooooo..                        ..oooooooooooooooooo",
"oooooooooooooooooo..                        ..oooooooooooooooooo",
"oooooooooooooooooo..                        ..oooooooooooooooooo",
"oooooooooooooooooo..                        ..oooooooooooooooooo",
"oooooooooooooooooo..                        ..oooooooooooooooooo",
"....................                        ...................."
};
