/* XPM */
static char *be4c84a538a94637e437aa0f8668c396l4MPItkC3Rton4D7[] = {
/* columns rows colors chars-per-pixel */
"64 64 10 1 ",
"  c None",
". c gray20",
"X c #434343",
"o c #535353",
"O c #777777",
"+ c #5F9B00",
"@ c #7FB717",
"# c #A3D337",
"$ c #C7EF63",
"% c gray53",
/* pixels */
"OOOOOOOOOOOOOOOOOOO                          OOOOOOOOOOOOOOOOOOO",
"oooooooooooooooooo.                          .oooooooooooooooooo",
"oooooooooooooooooo.                          .oooooooooooooooooo",
"...................                          ...................",
"OOOOOOOOOOOOOOOOO..                          ..%OOOOOOOOOOOOOOOO",
"ooooooooooooooooo..                          ..Ooooooooooooooooo",
"ooooooooooooooOXo..                          ..OoOXooooooooooooo",
"ooooooooooooooX.o..                          ..OoX.ooooooooooooo",
"ooooooooooooooooo..                          ..Ooooooooooooooooo",
"ooooooooooooooooo..                          ..Ooooooooooooooooo",
"ooooooooooooooooo..                          ..Ooooooooooooooooo",
"ooooooooooooooooo..                          ..Ooooooooooooooooo",
"ooooooooooooooooo..                          ..Ooooooooooooooooo",
"ooooooooooooooooo..                          ..Ooooooooooooooooo",
"ooooooooooooooooo..                          ..Ooooooooooooooooo",
"ooooooooooooooooo..                          ..Ooooooooooooooooo",
"ooooooooooooooooo..                          ..Ooooooooooooooooo",
"ooooooooooooooooo..                          ..Ooooooooooooooooo",
"ooooooooooooooooo..                          ..Ooooooooooooooooo",
"ooooooooooooooooo..                          ..Ooooooooooooooooo",
"ooooooooooooooooo..                          ..Ooooooooooooooooo",
"ooooooooooooooooo..                          ..OooooooooooOOOOOO",
"ooooooooooooooOXo..                          ..OoOXooooooO......",
"ooooooooooooooX.o..                          ..OoX.ooooooO......",
"ooooooooooooooooo..                          ..OoooooooooO..$##@",
"...................                          ............O..#@@+",
"OOOOOOOOOOOO.%OOO..                          .%OOO..%OOOOO..#@@+",
"oooooooooooo.Oooo..                          .Oooo..OooooO..#@@+",
"oooooooooOXo.Oooo..                          .Oooo..OoOXoO..@+++",
"oooooooooX.o.Oooo..                          .Oooo..OoX.oO......",
"oooooooooooo.O@@@..                          .O@@@..OooooO..OOoX",
"oooooooooooo.O@@@..                          .O@@@..OooooO..OoX.",
"oooooooooooo.Oooo..                          .Oooo..OooooO......",
"oooooooooooo.Oo....                          .O..o..OooooO..OOoX",
"oooooooooooo.Oo....                          .O..o..OooooO..OoX.",
"oooooooooooo.Oo....                          .O..o..OooooO......",
"oooooooooooo.Oo....                          .O..o..OooooO......",
"oooooooooooo.Oo....                          .O..o..OooooO......",
"oooooooooOXo.Oooo..                          .Oooo..OoOXoo......",
"oooooooooX.o.......                          .......OoX.oooooooo",
"oooooooooooo.......                          .......Oooooooooooo",
"...................                          ...................",
"OOOOOOOOOOOOOOOOO..                          ..%OOOOOOOOOOOOOOOO",
"ooooooooooooooooo..                          ..Ooooooooooooooooo",
"ooooooooooooooOXo..                          ..OoOXooooooooooooo",
"ooooooooooooooX.o..                          ..OoX.ooooooooooooo",
"ooooooooooooooooo..                          ..Ooooooooooooooooo",
"ooooooooooooooooo..                          ..Ooooooooooooooooo",
"ooooooooooooooooo..                          ..Ooooooooooooooooo",
"ooooooooooooooooo..                          ..Ooooooooooooooooo",
"ooooooooooooooooo..                          ..Ooooooooooooooooo",
"ooooooooooooooooo..                          ..Ooooooooooooooooo",
"ooooooooooooooOXo..                          ..OoOXooooooooooooo",
"ooooooooooooooX.o..                          ..OoX.ooooooooooooo",
"ooooooooooooooooo..                          ..Ooooooooooooooooo",
"...................                          ...................",
"OOOOOOOOOOOOOOOOO..                          ..OOOOOOOOOOOOOOOOO",
"ooooooooooooooooo..                          ..ooooooooooooooooo",
"ooooooooooooooooo..                          ..ooooooooooooooooo",
"ooooooooooooooooo..                          ..ooooooooooooooooo",
"ooooooooooooooooo..                          ..ooooooooooooooooo",
"ooooooooooooooooo..                          ..ooooooooooooooooo",
"ooooooooooooooooo..                          ..ooooooooooooooooo",
"...................                          ..................."
};
