/* XPM */
static char *f5ff0adeacc34ee8f1cc198f02e820f2dwZnBhH53AE9dnHe[] = {
/* columns rows colors chars-per-pixel */
"64 64 11 1 ",
"  c None",
". c gray20",
"X c #434343",
"o c #535353",
"O c #777777",
"+ c #5F9B00",
"@ c #7FB717",
"# c #A3D337",
"$ c #C7EF63",
"% c gray53",
"& c #979797",
/* pixels */
"OOOOOOOOOOOOOOOOOOOOOOOOOOO          OOOOOOOOOOOOOOOOOOOOOOOOOOO",
"oooooooooooooooooooooooooo.          .oooooooooooooooooooooooooo",
"oooooooooooooooooooooooooo.          .oooooooooooooooooooooooooo",
"...........................          ...........................",
"OOOOOOOOOOOOOOOOOOOOOOOOO..          ..%OOOOOOOOOOOOOOOOOOOOOOOO",
"ooooooooooooooooooooooooo..          ..Ooooooooooooooooooooooooo",
"XoooooooooooooooooooooOXo..          ..OoOXooooooooooooooooooooo",
".oooooooooooooooooooooX.o..          ..OoX.ooooooooooooooooooooo",
"ooooooooooooooooooooooooo..          ..Ooooooooooooooooooooooooo",
"ooooooooooooooooooooooooo..          ..Ooooooooooooooooooooooooo",
"ooooooooooooooooooooooooo..          ..Ooooooooooooooooooooooooo",
"ooooooooooooooooooooooooo..          ..Ooooooooooooooooooooooooo",
"ooooooooooooooooooooooooo..          ..Ooooooooooooooooooooooooo",
"ooooooooooooooooooooooooo..          ..Ooooooooooooooooooooooooo",
"ooooooooooooooooooooooooo..          ..Ooooooooooooooooooooooooo",
"ooooooooooooooooooooooooo..          ..Ooooooooooooooooooooooooo",
"ooooooooooooooooooooooooo..          ..Ooooooooooooooooooooooooo",
"ooooooooooooooooooooooooo..          ..Ooooooooooooooooooooooooo",
"ooooooooooooooooooooooooo..          ..Ooooooooooooooooooooooooo",
"ooooooooooooooooooooooooo..          ..Ooooooooooooooooooooooooo",
"ooooooooooooooooooooooooo..          ..Ooooooooooooooooooooooooo",
"ooooooooooooooooooooooooo..          ..OooooooooooOOOOOOOOOOOooo",
"XoooooooooooooooooooooOXo..          ..OoOXooooooO............oo",
".oooooooooooooooooooooX.o..          ..OoX.ooooooO............oo",
"ooooooooooooooooooooooooo..          ..OoooooooooO..$##@.o.o..oo",
"...........................          ............O..#@@+.O.O....",
"OOOOOOOOOOOOOOOOOOOO.%OOO..          .%OOO..%OOOOO..#@@+.O.O..OO",
"oooooooooooooooooooo.Oooo..          .Oooo..OooooO..#@@+.&.O..oo",
"XooooooooooooooooOXo.Oooo..          .Oooo..OoOXoO..@+++.&.&..oo",
".ooooooooooooooooX.o.Oooo..          .Oooo..OoX.oO.......&.&..oo",
"oooooooooooooooooooo.O@@@..          .O@@@..OooooO..OOoX.O.O..oo",
"oooooooooooooooooooo.O@@@..          .O@@@..OooooO..OoX..O.O..oo",
"oooooooooooooooooooo.Oooo..          .Oooo..OooooO.......O.O..oo",
"oooooooooooooooooooo.Oo....          .O..o..OooooO..OOoX.o.O..oo",
"oooooooooooooooooooo.Oo....          .O..o..OooooO..OoX..o.o..oo",
"oooooooooooooooooooo.Oo....          .O..o..OooooO.......X.X..oo",
"oooooooooooooooooooo.Oo....          .O..o..OooooO............oo",
"oooooooooooooooooooo.Oo....          .O..o..OooooO............oo",
"XooooooooooooooooOXo.Oooo..          .Oooo..OoOXoo............oo",
".ooooooooooooooooX.o.......          .......OoX.oooooooooooooooo",
"oooooooooooooooooooo.......          .......Oooooooooooooooooooo",
"...........................          ...........................",
"OOOOOOOOOOOOOOOOOOOOOOOOO..          ..%OOOOOOOOOOOOOOOOOOOOOOOO",
"ooooooooooooooooooooooooo..          ..Ooooooooooooooooooooooooo",
"XoooooooooooooooooooooOXo..          ..OoOXooooooooooooooooooooo",
".oooooooooooooooooooooX.o..          ..OoX.ooooooooooooooooooooo",
"ooooooooooooooooooooooooo..          ..Ooooooooooooooooooooooooo",
"ooooooooooooooooooooooooo..          ..Ooooooooooooooooooooooooo",
"ooooooooooooooooooooooooo..          ..Ooooooooooooooooooooooooo",
"ooooooooooooooooooooooooo..          ..Ooooooooooooooooooooooooo",
"ooooooooooooooooooooooooo..          ..Ooooooooooooooooooooooooo",
"ooooooooooooooooooooooooo..          ..Ooooooooooooooooooooooooo",
"XoooooooooooooooooooooOXo..          ..OoOXooooooooooooooooooooo",
".oooooooooooooooooooooX.o..          ..OoX.ooooooooooooooooooooo",
"ooooooooooooooooooooooooo..          ..Ooooooooooooooooooooooooo",
"...........................          ...........................",
"OOOOOOOOOOOOOOOOOOOOOOOOO..          ..OOOOOOOOOOOOOOOOOOOOOOOOO",
"ooooooooooooooooooooooooo..          ..ooooooooooooooooooooooooo",
"ooooooooooooooooooooooooo..          ..ooooooooooooooooooooooooo",
"ooooooooooooooooooooooooo..          ..ooooooooooooooooooooooooo",
"ooooooooooooooooooooooooo..          ..ooooooooooooooooooooooooo",
"ooooooooooooooooooooooooo..          ..ooooooooooooooooooooooooo",
"ooooooooooooooooooooooooo..          ..ooooooooooooooooooooooooo",
"...........................          ..........................."
};
