/* XPM */
static char *b2d26b91c8b84f1df0d4e81e082ce9666q1iQLJj5ol6z2Wd[] = {
/* columns rows colors chars-per-pixel */
"64 64 10 1 ",
"  c None",
". c gray20",
"X c #434343",
"o c #535353",
"O c #777777",
"+ c #5F9B00",
"@ c #7FB717",
"# c #A3D337",
"$ c #C7EF63",
"% c gray53",
/* pixels */
"OOOOOOOOOOOOOOOOO                              OOOOOOOOOOOOOOOOO",
"oooooooooooooooo.                              .oooooooooooooooo",
"oooooooooooooooo.                              .oooooooooooooooo",
".................                              .................",
"OOOOOOOOOOOOOOO..                              ..%OOOOOOOOOOOOOO",
"ooooooooooooooo..                              ..Ooooooooooooooo",
"ooooooooooooOXo..                              ..OoOXooooooooooo",
"ooooooooooooX.o..                              ..OoX.ooooooooooo",
"ooooooooooooooo..                              ..Ooooooooooooooo",
"ooooooooooooooo..                              ..Ooooooooooooooo",
"ooooooooooooooo..                              ..Ooooooooooooooo",
"ooooooooooooooo..                              ..Ooooooooooooooo",
"ooooooooooooooo..                              ..Ooooooooooooooo",
"ooooooooooooooo..                              ..Ooooooooooooooo",
"ooooooooooooooo..                              ..Ooooooooooooooo",
"ooooooooooooooo..                              ..Ooooooooooooooo",
"ooooooooooooooo..                              ..Ooooooooooooooo",
"ooooooooooooooo..                              ..Ooooooooooooooo",
"ooooooooooooooo..                              ..Ooooooooooooooo",
"ooooooooooooooo..                              ..Ooooooooooooooo",
"ooooooooooooooo..                              ..Ooooooooooooooo",
"ooooooooooooooo..                              ..OooooooooooOOOO",
"ooooooooooooOXo..                              ..OoOXooooooO....",
"ooooooooooooX.o..                              ..OoX.ooooooO....",
"ooooooooooooooo..                              ..OoooooooooO..$#",
".................                              ............O..#@",
"OOOOOOOOOO.%OOO..                              .%OOO..%OOOOO..#@",
"oooooooooo.Oooo..                              .Oooo..OooooO..#@",
"oooooooOXo.Oooo..                              .Oooo..OoOXoO..@+",
"oooooooX.o.Oooo..                              .Oooo..OoX.oO....",
"oooooooooo.O@@@..                              .O@@@..OooooO..OO",
"oooooooooo.O@@@..                              .O@@@..OooooO..Oo",
"oooooooooo.Oooo..                              .Oooo..OooooO....",
"oooooooooo.Oo....                              .O..o..OooooO..OO",
"oooooooooo.Oo....                              .O..o..OooooO..Oo",
"oooooooooo.Oo....                              .O..o..OooooO....",
"oooooooooo.Oo....                              .O..o..OooooO....",
"oooooooooo.Oo....                              .O..o..OooooO....",
"oooooooOXo.Oooo..                              .Oooo..OoOXoo....",
"oooooooX.o.......                              .......OoX.oooooo",
"oooooooooo.......                              .......Oooooooooo",
".................                              .................",
"OOOOOOOOOOOOOOO..                              ..%OOOOOOOOOOOOOO",
"ooooooooooooooo..                              ..Ooooooooooooooo",
"ooooooooooooOXo..                              ..OoOXooooooooooo",
"ooooooooooooX.o..                              ..OoX.ooooooooooo",
"ooooooooooooooo..                              ..Ooooooooooooooo",
"ooooooooooooooo..                              ..Ooooooooooooooo",
"ooooooooooooooo..                              ..Ooooooooooooooo",
"ooooooooooooooo..                              ..Ooooooooooooooo",
"ooooooooooooooo..                              ..Ooooooooooooooo",
"ooooooooooooooo..                              ..Ooooooooooooooo",
"ooooooooooooOXo..                              ..OoOXooooooooooo",
"ooooooooooooX.o..                              ..OoX.ooooooooooo",
"ooooooooooooooo..                              ..Ooooooooooooooo",
".................                              .................",
"OOOOOOOOOOOOOOO..                              ..OOOOOOOOOOOOOOO",
"ooooooooooooooo..                              ..ooooooooooooooo",
"ooooooooooooooo..                              ..ooooooooooooooo",
"ooooooooooooooo..                              ..ooooooooooooooo",
"ooooooooooooooo..                              ..ooooooooooooooo",
"ooooooooooooooo..                              ..ooooooooooooooo",
"ooooooooooooooo..                              ..ooooooooooooooo",
".................                              ................."
};
