/* XPM */
static char *_eeb783431394748941cd2ac453169ce17kK7FWeoV6DsxyB[] = {
/* columns rows colors chars-per-pixel */
"64 64 7 1 ",
"  c None",
". c gray20",
"X c #434343",
"o c #535353",
"O c #777777",
"+ c #7FB717",
"@ c gray53",
/* pixels */
"OOOO                                                        OOOO",
"ooo.                                                        .ooo",
"ooo.                                                        .ooo",
"....                                                        ....",
"OO..                                                        ..@O",
"oo..                                                        ..Oo",
"Xo..                                                        ..Oo",
".o..                                                        ..Oo",
"oo..                                                        ..Oo",
"oo..                                                        ..Oo",
"oo..                                                        ..Oo",
"oo..                                                        ..Oo",
"oo..                                                        ..Oo",
"oo..                                                        ..Oo",
"oo..                                                        ..Oo",
"oo..                                                        ..Oo",
"oo..                                                        ..Oo",
"oo..                                                        ..Oo",
"oo..                                                        ..Oo",
"oo..                                                        ..Oo",
"oo..                                                        ..Oo",
"oo..                                                        ..Oo",
"Xo..                                                        ..Oo",
".o..                                                        ..Oo",
"oo..                                                        ..Oo",
"....                                                        ....",
"OO..                                                        .@OO",
"oo..                                                        .Ooo",
"oo..                                                        .Ooo",
"oo..                                                        .Ooo",
"++..                                                        .O++",
"++..                                                        .O++",
"oo..                                                        .Ooo",
"....                                                        .O..",
"....                                                        .O..",
"....                                                        .O..",
"....                                                        .O..",
"....                                                        .O..",
"oo..                                                        .Ooo",
"....                                                        ....",
"....                                                        ....",
"....                                                        ....",
"OO..                                                        ..@O",
"oo..                                                        ..Oo",
"Xo..                                                        ..Oo",
".o..                                                        ..Oo",
"oo..                                                        ..Oo",
"oo..                                                        ..Oo",
"oo..                                                        ..Oo",
"oo..                                                        ..Oo",
"oo..                                                        ..Oo",
"oo..                                                        ..Oo",
"Xo..                                                        ..Oo",
".o..                                                        ..Oo",
"oo..                                                        ..Oo",
"....                                                        ....",
"OO..                                                        ..OO",
"oo..                                                        ..oo",
"oo..                                                        ..oo",
"oo..                                                        ..oo",
"oo..                                                        ..oo",
"oo..                                                        ..oo",
"oo..                                                        ..oo",
"....                                                        ...."
};
