/* XPM */
static char *_db3677b07d54f7ecfb2e81ea73ca77d3OCaIO2dmKti5SNG[] = {
/* columns rows colors chars-per-pixel */
"64 64 3 1 ",
"  c None",
". c gray20",
"X c #777777",
/* pixels */
"X                                                              X",
".                                                              .",
".                                                              .",
".                                                              .",
".                                                              .",
".                                                              .",
".                                                              .",
".                                                              .",
".                                                              .",
".                                                              .",
".                                                              .",
".                                                              .",
".                                                              .",
".                                                              .",
".                                                              .",
".                                                              .",
".                                                              .",
".                                                              .",
".                                                              .",
".                                                              .",
".                                                              .",
".                                                              .",
".                                                              .",
".                                                              .",
".                                                              .",
".                                                              .",
".                                                              .",
".                                                              .",
".                                                              .",
".                                                              .",
".                                                              .",
".                                                              .",
".                                                              .",
".                                                              .",
".                                                              .",
".                                                              .",
".                                                              .",
".                                                              .",
".                                                              .",
".                                                              .",
".                                                              .",
".                                                              .",
".                                                              .",
".                                                              .",
".                                                              .",
".                                                              .",
".                                                              .",
".                                                              .",
".                                                              .",
".                                                              .",
".                                                              .",
".                                                              .",
".                                                              .",
".                                                              .",
".                                                              .",
".                                                              .",
".                                                              .",
".                                                              .",
".                                                              .",
".                                                              .",
".                                                              .",
".                                                              .",
".                                                              .",
".                                                              ."
};
