/* XPM */
static char *b09160b8d94a474598f2e829c8b6cd43eYjt1gsfdwurBSjC[] = {
/* columns rows colors chars-per-pixel */
"64 64 7 1 ",
"  c None",
". c gray20",
"X c #434343",
"o c #535353",
"O c #777777",
"+ c #7FB717",
"@ c gray53",
/* pixels */
"OOOOOOOOOOOO                                        OOOOOOOOOOOO",
"ooooooooooo.                                        .ooooooooooo",
"ooooooooooo.                                        .ooooooooooo",
"............                                        ............",
"OOOOOOOOOO..                                        ..@OOOOOOOOO",
"oooooooooo..                                        ..Oooooooooo",
"oooooooOXo..                                        ..OoOXoooooo",
"oooooooX.o..                                        ..OoX.oooooo",
"oooooooooo..                                        ..Oooooooooo",
"oooooooooo..                                        ..Oooooooooo",
"oooooooooo..                                        ..Oooooooooo",
"oooooooooo..                                        ..Oooooooooo",
"oooooooooo..                                        ..Oooooooooo",
"oooooooooo..                                        ..Oooooooooo",
"oooooooooo..                                        ..Oooooooooo",
"oooooooooo..                                        ..Oooooooooo",
"oooooooooo..                                        ..Oooooooooo",
"oooooooooo..                                        ..Oooooooooo",
"oooooooooo..                                        ..Oooooooooo",
"oooooooooo..                                        ..Oooooooooo",
"oooooooooo..                                        ..Oooooooooo",
"oooooooooo..                                        ..Oooooooooo",
"oooooooOXo..                                        ..OoOXoooooo",
"oooooooX.o..                                        ..OoX.oooooo",
"oooooooooo..                                        ..Oooooooooo",
"............                                        ............",
"OOOOO.@OOO..                                        .@OOO..@OOOO",
"ooooo.Oooo..                                        .Oooo..Ooooo",
"ooOXo.Oooo..                                        .Oooo..OoOXo",
"ooX.o.Oooo..                                        .Oooo..OoX.o",
"ooooo.O+++..                                        .O+++..Ooooo",
"ooooo.O+++..                                        .O+++..Ooooo",
"ooooo.Oooo..                                        .Oooo..Ooooo",
"ooooo.Oo....                                        .O..o..Ooooo",
"ooooo.Oo....                                        .O..o..Ooooo",
"ooooo.Oo....                                        .O..o..Ooooo",
"ooooo.Oo....                                        .O..o..Ooooo",
"ooooo.Oo....                                        .O..o..Ooooo",
"ooOXo.Oooo..                                        .Oooo..OoOXo",
"ooX.o.......                                        .......OoX.o",
"ooooo.......                                        .......Ooooo",
"............                                        ............",
"OOOOOOOOOO..                                        ..@OOOOOOOOO",
"oooooooooo..                                        ..Oooooooooo",
"oooooooOXo..                                        ..OoOXoooooo",
"oooooooX.o..                                        ..OoX.oooooo",
"oooooooooo..                                        ..Oooooooooo",
"oooooooooo..                                        ..Oooooooooo",
"oooooooooo..                                        ..Oooooooooo",
"oooooooooo..                                        ..Oooooooooo",
"oooooooooo..                                        ..Oooooooooo",
"oooooooooo..                                        ..Oooooooooo",
"oooooooOXo..                                        ..OoOXoooooo",
"oooooooX.o..                                        ..OoX.oooooo",
"oooooooooo..                                        ..Oooooooooo",
"............                                        ............",
"OOOOOOOOOO..                                        ..OOOOOOOOOO",
"oooooooooo..                                        ..oooooooooo",
"oooooooooo..                                        ..oooooooooo",
"oooooooooo..                                        ..oooooooooo",
"oooooooooo..                                        ..oooooooooo",
"oooooooooo..                                        ..oooooooooo",
"oooooooooo..                                        ..oooooooooo",
"............                                        ............"
};
