/* XPM */
static char *_68e537a33574bc8ec14c7a7895c79a929e5pT0c115oBSOk[] = {
/* columns rows colors chars-per-pixel */
"64 64 10 1 ",
"  c None",
". c gray20",
"X c #434343",
"o c #535353",
"O c #777777",
"+ c #5F9B00",
"@ c #7FB717",
"# c #A3D337",
"$ c #C7EF63",
"% c gray53",
/* pixels */
"OOOOOOOOOOOOOOOOOO                            OOOOOOOOOOOOOOOOOO",
"ooooooooooooooooo.                            .ooooooooooooooooo",
"ooooooooooooooooo.                            .ooooooooooooooooo",
"..................                            ..................",
"OOOOOOOOOOOOOOOO..                            ..%OOOOOOOOOOOOOOO",
"oooooooooooooooo..                            ..Oooooooooooooooo",
"oooooooooooooOXo..                            ..OoOXoooooooooooo",
"oooooooooooooX.o..                            ..OoX.oooooooooooo",
"oooooooooooooooo..                            ..Oooooooooooooooo",
"oooooooooooooooo..                            ..Oooooooooooooooo",
"oooooooooooooooo..                            ..Oooooooooooooooo",
"oooooooooooooooo..                            ..Oooooooooooooooo",
"oooooooooooooooo..                            ..Oooooooooooooooo",
"oooooooooooooooo..                            ..Oooooooooooooooo",
"oooooooooooooooo..                            ..Oooooooooooooooo",
"oooooooooooooooo..                            ..Oooooooooooooooo",
"oooooooooooooooo..                            ..Oooooooooooooooo",
"oooooooooooooooo..                            ..Oooooooooooooooo",
"oooooooooooooooo..                            ..Oooooooooooooooo",
"oooooooooooooooo..                            ..Oooooooooooooooo",
"oooooooooooooooo..                            ..Oooooooooooooooo",
"oooooooooooooooo..                            ..OooooooooooOOOOO",
"oooooooooooooOXo..                            ..OoOXooooooO.....",
"oooooooooooooX.o..                            ..OoX.ooooooO.....",
"oooooooooooooooo..                            ..OoooooooooO..$##",
"..................                            ............O..#@@",
"OOOOOOOOOOO.%OOO..                            .%OOO..%OOOOO..#@@",
"ooooooooooo.Oooo..                            .Oooo..OooooO..#@@",
"ooooooooOXo.Oooo..                            .Oooo..OoOXoO..@++",
"ooooooooX.o.Oooo..                            .Oooo..OoX.oO.....",
"ooooooooooo.O@@@..                            .O@@@..OooooO..OOo",
"ooooooooooo.O@@@..                            .O@@@..OooooO..OoX",
"ooooooooooo.Oooo..                            .Oooo..OooooO.....",
"ooooooooooo.Oo....                            .O..o..OooooO..OOo",
"ooooooooooo.Oo....                            .O..o..OooooO..OoX",
"ooooooooooo.Oo....                            .O..o..OooooO.....",
"ooooooooooo.Oo....                            .O..o..OooooO.....",
"ooooooooooo.Oo....                            .O..o..OooooO.....",
"ooooooooOXo.Oooo..                            .Oooo..OoOXoo.....",
"ooooooooX.o.......                            .......OoX.ooooooo",
"ooooooooooo.......                            .......Ooooooooooo",
"..................                            ..................",
"OOOOOOOOOOOOOOOO..                            ..%OOOOOOOOOOOOOOO",
"oooooooooooooooo..                            ..Oooooooooooooooo",
"oooooooooooooOXo..                            ..OoOXoooooooooooo",
"oooooooooooooX.o..                            ..OoX.oooooooooooo",
"oooooooooooooooo..                            ..Oooooooooooooooo",
"oooooooooooooooo..                            ..Oooooooooooooooo",
"oooooooooooooooo..                            ..Oooooooooooooooo",
"oooooooooooooooo..                            ..Oooooooooooooooo",
"oooooooooooooooo..                            ..Oooooooooooooooo",
"oooooooooooooooo..                            ..Oooooooooooooooo",
"oooooooooooooOXo..                            ..OoOXoooooooooooo",
"oooooooooooooX.o..                            ..OoX.oooooooooooo",
"oooooooooooooooo..                            ..Oooooooooooooooo",
"..................                            ..................",
"OOOOOOOOOOOOOOOO..                            ..OOOOOOOOOOOOOOOO",
"oooooooooooooooo..                            ..oooooooooooooooo",
"oooooooooooooooo..                            ..oooooooooooooooo",
"oooooooooooooooo..                            ..oooooooooooooooo",
"oooooooooooooooo..                            ..oooooooooooooooo",
"oooooooooooooooo..                            ..oooooooooooooooo",
"oooooooooooooooo..                            ..oooooooooooooooo",
"..................                            .................."
};
