/* XPM */
static char *d0af781312fe4527970ef6e9df34414efh1BklB40MEdkBhM[] = {
/* columns rows colors chars-per-pixel */
"64 64 11 1 ",
"  c None",
". c gray20",
"X c #434343",
"o c #535353",
"O c #777777",
"+ c #5F9B00",
"@ c #7FB717",
"# c #A3D337",
"$ c #C7EF63",
"% c gray53",
"& c #979797",
/* pixels */
"OOOOOOOOOOOOOOOOOOOOOOOOOOOO        OOOOOOOOOOOOOOOOOOOOOOOOOOOO",
"ooooooooooooooooooooooooooo.        .ooooooooooooooooooooooooooo",
"ooooooooooooooooooooooooooo.        .ooooooooooooooooooooooooooo",
"............................        ............................",
"OOOOOOOOOOOOOOOOOOOOOOOOOO..        ..%OOOOOOOOOOOOOOOOOOOOOOOOO",
"oooooooooooooooooooooooooo..        ..Oooooooooooooooooooooooooo",
"OXoooooooooooooooooooooOXo..        ..OoOXoooooooooooooooooooooO",
"X.oooooooooooooooooooooX.o..        ..OoX.oooooooooooooooooooooX",
"oooooooooooooooooooooooooo..        ..Oooooooooooooooooooooooooo",
"oooooooooooooooooooooooooo..        ..Oooooooooooooooooooooooooo",
"oooooooooooooooooooooooooo..        ..Oooooooooooooooooooooooooo",
"oooooooooooooooooooooooooo..        ..Oooooooooooooooooooooooooo",
"oooooooooooooooooooooooooo..        ..Oooooooooooooooooooooooooo",
"oooooooooooooooooooooooooo..        ..Oooooooooooooooooooooooooo",
"oooooooooooooooooooooooooo..        ..Oooooooooooooooooooooooooo",
"oooooooooooooooooooooooooo..        ..Oooooooooooooooooooooooooo",
"oooooooooooooooooooooooooo..        ..Oooooooooooooooooooooooooo",
"oooooooooooooooooooooooooo..        ..Oooooooooooooooooooooooooo",
"oooooooooooooooooooooooooo..        ..Oooooooooooooooooooooooooo",
"oooooooooooooooooooooooooo..        ..Oooooooooooooooooooooooooo",
"oooooooooooooooooooooooooo..        ..Oooooooooooooooooooooooooo",
"oooooooooooooooooooooooooo..        ..OooooooooooOOOOOOOOOOOoooo",
"OXoooooooooooooooooooooOXo..        ..OoOXooooooO............ooO",
"X.oooooooooooooooooooooX.o..        ..OoX.ooooooO............ooX",
"oooooooooooooooooooooooooo..        ..OoooooooooO..$##@.o.o..ooo",
"............................        ............O..#@@+.O.O.....",
"OOOOOOOOOOOOOOOOOOOOO.%OOO..        .%OOO..%OOOOO..#@@+.O.O..OOO",
"ooooooooooooooooooooo.Oooo..        .Oooo..OooooO..#@@+.&.O..ooo",
"OXooooooooooooooooOXo.Oooo..        .Oooo..OoOXoO..@+++.&.&..ooO",
"X.ooooooooooooooooX.o.Oooo..        .Oooo..OoX.oO.......&.&..ooX",
"ooooooooooooooooooooo.O@@@..        .O@@@..OooooO..OOoX.O.O..ooo",
"ooooooooooooooooooooo.O@@@..        .O@@@..OooooO..OoX..O.O..ooo",
"ooooooooooooooooooooo.Oooo..        .Oooo..OooooO.......O.O..ooo",
"ooooooooooooooooooooo.Oo....        .O..o..OooooO..OOoX.o.O..ooo",
"ooooooooooooooooooooo.Oo....        .O..o..OooooO..OoX..o.o..ooo",
"ooooooooooooooooooooo.Oo....        .O..o..OooooO.......X.X..ooo",
"ooooooooooooooooooooo.Oo....        .O..o..OooooO............ooo",
"ooooooooooooooooooooo.Oo....        .O..o..OooooO............ooo",
"OXooooooooooooooooOXo.Oooo..        .Oooo..OoOXoo............ooO",
"X.ooooooooooooooooX.o.......        .......OoX.ooooooooooooooooX",
"ooooooooooooooooooooo.......        .......Ooooooooooooooooooooo",
"............................        ............................",
"OOOOOOOOOOOOOOOOOOOOOOOOOO..        ..%OOOOOOOOOOOOOOOOOOOOOOOOO",
"oooooooooooooooooooooooooo..        ..Oooooooooooooooooooooooooo",
"OXoooooooooooooooooooooOXo..        ..OoOXoooooooooooooooooooooO",
"X.oooooooooooooooooooooX.o..        ..OoX.oooooooooooooooooooooX",
"oooooooooooooooooooooooooo..        ..Oooooooooooooooooooooooooo",
"oooooooooooooooooooooooooo..        ..Oooooooooooooooooooooooooo",
"oooooooooooooooooooooooooo..        ..Oooooooooooooooooooooooooo",
"oooooooooooooooooooooooooo..        ..Oooooooooooooooooooooooooo",
"oooooooooooooooooooooooooo..        ..Oooooooooooooooooooooooooo",
"oooooooooooooooooooooooooo..        ..Oooooooooooooooooooooooooo",
"OXoooooooooooooooooooooOXo..        ..OoOXoooooooooooooooooooooO",
"X.oooooooooooooooooooooX.o..        ..OoX.oooooooooooooooooooooX",
"oooooooooooooooooooooooooo..        ..Oooooooooooooooooooooooooo",
"............................        ............................",
"OOOOOOOOOOOOOOOOOOOOOOOOOO..        ..OOOOOOOOOOOOOOOOOOOOOOOOOO",
"oooooooooooooooooooooooooo..        ..oooooooooooooooooooooooooo",
"oooooooooooooooooooooooooo..        ..oooooooooooooooooooooooooo",
"oooooooooooooooooooooooooo..        ..oooooooooooooooooooooooooo",
"oooooooooooooooooooooooooo..        ..oooooooooooooooooooooooooo",
"oooooooooooooooooooooooooo..        ..oooooooooooooooooooooooooo",
"oooooooooooooooooooooooooo..        ..oooooooooooooooooooooooooo",
"............................        ............................"
};
