/* XPM */
static char *c4ce332c9cb142cbfecacd036f6d8997oZAVYIyjfnHtN7Fi[] = {
/* columns rows colors chars-per-pixel */
"64 64 6 1 ",
"  c None",
". c gray20",
"X c #535353",
"o c #777777",
"O c #7FB717",
"+ c gray53",
/* pixels */
"ooo                                                          ooo",
"XX.                                                          .XX",
"XX.                                                          .XX",
"...                                                          ...",
"o..                                                          ..+",
"X..                                                          ..o",
"X..                                                          ..o",
"X..                                                          ..o",
"X..                                                          ..o",
"X..                                                          ..o",
"X..                                                          ..o",
"X..                                                          ..o",
"X..                                                          ..o",
"X..                                                          ..o",
"X..                                                          ..o",
"X..                                                          ..o",
"X..                                                          ..o",
"X..                                                          ..o",
"X..                                                          ..o",
"X..                                                          ..o",
"X..                                                          ..o",
"X..                                                          ..o",
"X..                                                          ..o",
"X..                                                          ..o",
"X..                                                          ..o",
"...                                                          ...",
"o..                                                          .+o",
"X..                                                          .oX",
"X..                                                          .oX",
"X..                                                          .oX",
"O..                                                          .oO",
"O..                                                          .oO",
"X..                                                          .oX",
"...                                                          .o.",
"...                                                          .o.",
"...                                                          .o.",
"...                                                          .o.",
"...                                                          .o.",
"X..                                                          .oX",
"...                                                          ...",
"...                                                          ...",
"...                                                          ...",
"o..                                                          ..+",
"X..                                                          ..o",
"X..                                                          ..o",
"X..                                                          ..o",
"X..                                                          ..o",
"X..                                                          ..o",
"X..                                                          ..o",
"X..                                                          ..o",
"X..                                                          ..o",
"X..                                                          ..o",
"X..                                                          ..o",
"X..                                                          ..o",
"X..                                                          ..o",
"...                                                          ...",
"o..                                                          ..o",
"X..                                                          ..X",
"X..                                                          ..X",
"X..                                                          ..X",
"X..                                                          ..X",
"X..                                                          ..X",
"X..                                                          ..X",
"...                                                          ..."
};
