/* XPM */
static char *ab40ba7610e7457eb1cc3ec531b91648nv1H8LlXaXC1chyI[] = {
/* columns rows colors chars-per-pixel */
"64 64 7 1 ",
"  c None",
". c gray20",
"X c #434343",
"o c #535353",
"O c #777777",
"+ c #7FB717",
"@ c gray53",
/* pixels */
"OOOOOO                                                    OOOOOO",
"ooooo.                                                    .ooooo",
"ooooo.                                                    .ooooo",
"......                                                    ......",
"OOOO..                                                    ..@OOO",
"oooo..                                                    ..Oooo",
"oOXo..                                                    ..OoOX",
"oX.o..                                                    ..OoX.",
"oooo..                                                    ..Oooo",
"oooo..                                                    ..Oooo",
"oooo..                                                    ..Oooo",
"oooo..                                                    ..Oooo",
"oooo..                                                    ..Oooo",
"oooo..                                                    ..Oooo",
"oooo..                                                    ..Oooo",
"oooo..                                                    ..Oooo",
"oooo..                                                    ..Oooo",
"oooo..                                                    ..Oooo",
"oooo..                                                    ..Oooo",
"oooo..                                                    ..Oooo",
"oooo..                                                    ..Oooo",
"oooo..                                                    ..Oooo",
"oOXo..                                                    ..OoOX",
"oX.o..                                                    ..OoX.",
"oooo..                                                    ..Oooo",
"......                                                    ......",
"@OOO..                                                    .@OOO.",
"Oooo..                                                    .Oooo.",
"Oooo..                                                    .Oooo.",
"Oooo..                                                    .Oooo.",
"O+++..                                                    .O+++.",
"O+++..                                                    .O+++.",
"Oooo..                                                    .Oooo.",
"Oo....                                                    .O..o.",
"Oo....                                                    .O..o.",
"Oo....                                                    .O..o.",
"Oo....                                                    .O..o.",
"Oo....                                                    .O..o.",
"Oooo..                                                    .Oooo.",
"......                                                    ......",
"......                                                    ......",
"......                                                    ......",
"OOOO..                                                    ..@OOO",
"oooo..                                                    ..Oooo",
"oOXo..                                                    ..OoOX",
"oX.o..                                                    ..OoX.",
"oooo..                                                    ..Oooo",
"oooo..                                                    ..Oooo",
"oooo..                                                    ..Oooo",
"oooo..                                                    ..Oooo",
"oooo..                                                    ..Oooo",
"oooo..                                                    ..Oooo",
"oOXo..                                                    ..OoOX",
"oX.o..                                                    ..OoX.",
"oooo..                                                    ..Oooo",
"......                                                    ......",
"OOOO..                                                    ..OOOO",
"oooo..                                                    ..oooo",
"oooo..                                                    ..oooo",
"oooo..                                                    ..oooo",
"oooo..                                                    ..oooo",
"oooo..                                                    ..oooo",
"oooo..                                                    ..oooo",
"......                                                    ......"
};
