/* XPM */
static char *_009a4d4952e4cb6e6c44acb61e7a871ye7JNeOVl7IW5PbT[] = {
/* columns rows colors chars-per-pixel */
"64 64 9 1 ",
"  c None",
". c gray20",
"X c #434343",
"o c #535353",
"O c #777777",
"+ c #7FB717",
"@ c #A3D337",
"# c #C7EF63",
"$ c gray53",
/* pixels */
"OOOOOOOOOOOOOOOO                                OOOOOOOOOOOOOOOO",
"ooooooooooooooo.                                .ooooooooooooooo",
"ooooooooooooooo.                                .ooooooooooooooo",
"................                                ................",
"OOOOOOOOOOOOOO..                                ..$OOOOOOOOOOOOO",
"oooooooooooooo..                                ..Oooooooooooooo",
"oooooooooooOXo..                                ..OoOXoooooooooo",
"oooooooooooX.o..                                ..OoX.oooooooooo",
"oooooooooooooo..                                ..Oooooooooooooo",
"oooooooooooooo..                                ..Oooooooooooooo",
"oooooooooooooo..                                ..Oooooooooooooo",
"oooooooooooooo..                                ..Oooooooooooooo",
"oooooooooooooo..                                ..Oooooooooooooo",
"oooooooooooooo..                                ..Oooooooooooooo",
"oooooooooooooo..                                ..Oooooooooooooo",
"oooooooooooooo..                                ..Oooooooooooooo",
"oooooooooooooo..                                ..Oooooooooooooo",
"oooooooooooooo..                                ..Oooooooooooooo",
"oooooooooooooo..                                ..Oooooooooooooo",
"oooooooooooooo..                                ..Oooooooooooooo",
"oooooooooooooo..                                ..Oooooooooooooo",
"oooooooooooooo..                                ..OooooooooooOOO",
"oooooooooooOXo..                                ..OoOXooooooO...",
"oooooooooooX.o..                                ..OoX.ooooooO...",
"oooooooooooooo..                                ..OoooooooooO..#",
"................                                ............O..@",
"OOOOOOOOO.$OOO..                                .$OOO..$OOOOO..@",
"ooooooooo.Oooo..                                .Oooo..OooooO..@",
"ooooooOXo.Oooo..                                .Oooo..OoOXoO..+",
"ooooooX.o.Oooo..                                .Oooo..OoX.oO...",
"ooooooooo.O+++..                                .O+++..OooooO..O",
"ooooooooo.O+++..                                .O+++..OooooO..O",
"ooooooooo.Oooo..                                .Oooo..OooooO...",
"ooooooooo.Oo....                                .O..o..OooooO..O",
"ooooooooo.Oo....                                .O..o..OooooO..O",
"ooooooooo.Oo....                                .O..o..OooooO...",
"ooooooooo.Oo....                                .O..o..OooooO...",
"ooooooooo.Oo....                                .O..o..OooooO...",
"ooooooOXo.Oooo..                                .Oooo..OoOXoo...",
"ooooooX.o.......                                .......OoX.ooooo",
"ooooooooo.......                                .......Ooooooooo",
"................                                ................",
"OOOOOOOOOOOOOO..                                ..$OOOOOOOOOOOOO",
"oooooooooooooo..                                ..Oooooooooooooo",
"oooooooooooOXo..                                ..OoOXoooooooooo",
"oooooooooooX.o..                                ..OoX.oooooooooo",
"oooooooooooooo..                                ..Oooooooooooooo",
"oooooooooooooo..                                ..Oooooooooooooo",
"oooooooooooooo..                                ..Oooooooooooooo",
"oooooooooooooo..                                ..Oooooooooooooo",
"oooooooooooooo..                                ..Oooooooooooooo",
"oooooooooooooo..                                ..Oooooooooooooo",
"oooooooooooOXo..                                ..OoOXoooooooooo",
"oooooooooooX.o..                                ..OoX.oooooooooo",
"oooooooooooooo..                                ..Oooooooooooooo",
"................                                ................",
"OOOOOOOOOOOOOO..                                ..OOOOOOOOOOOOOO",
"oooooooooooooo..                                ..oooooooooooooo",
"oooooooooooooo..                                ..oooooooooooooo",
"oooooooooooooo..                                ..oooooooooooooo",
"oooooooooooooo..                                ..oooooooooooooo",
"oooooooooooooo..                                ..oooooooooooooo",
"oooooooooooooo..                                ..oooooooooooooo",
"................                                ................"
};
