/* XPM */
static char *_39ce86feda84885f23f809a6f8dd73debJ7XLJXZahOgiMW[] = {
/* columns rows colors chars-per-pixel */
"64 64 7 1 ",
"  c None",
". c gray20",
"X c #434343",
"o c #535353",
"O c #777777",
"+ c #7FB717",
"@ c gray53",
/* pixels */
"OOOOOOOOOO                                            OOOOOOOOOO",
"ooooooooo.                                            .ooooooooo",
"ooooooooo.                                            .ooooooooo",
"..........                                            ..........",
"OOOOOOOO..                                            ..@OOOOOOO",
"oooooooo..                                            ..Oooooooo",
"oooooOXo..                                            ..OoOXoooo",
"oooooX.o..                                            ..OoX.oooo",
"oooooooo..                                            ..Oooooooo",
"oooooooo..                                            ..Oooooooo",
"oooooooo..                                            ..Oooooooo",
"oooooooo..                                            ..Oooooooo",
"oooooooo..                                            ..Oooooooo",
"oooooooo..                                            ..Oooooooo",
"oooooooo..                                            ..Oooooooo",
"oooooooo..                                            ..Oooooooo",
"oooooooo..                                            ..Oooooooo",
"oooooooo..                                            ..Oooooooo",
"oooooooo..                                            ..Oooooooo",
"oooooooo..                                            ..Oooooooo",
"oooooooo..                                            ..Oooooooo",
"oooooooo..                                            ..Oooooooo",
"oooooOXo..                                            ..OoOXoooo",
"oooooX.o..                                            ..OoX.oooo",
"oooooooo..                                            ..Oooooooo",
"..........                                            ..........",
"OOO.@OOO..                                            .@OOO..@OO",
"ooo.Oooo..                                            .Oooo..Ooo",
"OXo.Oooo..                                            .Oooo..OoO",
"X.o.Oooo..                                            .Oooo..OoX",
"ooo.O+++..                                            .O+++..Ooo",
"ooo.O+++..                                            .O+++..Ooo",
"ooo.Oooo..                                            .Oooo..Ooo",
"ooo.Oo....                                            .O..o..Ooo",
"ooo.Oo....                                            .O..o..Ooo",
"ooo.Oo....                                            .O..o..Ooo",
"ooo.Oo....                                            .O..o..Ooo",
"ooo.Oo....                                            .O..o..Ooo",
"OXo.Oooo..                                            .Oooo..OoO",
"X.o.......                                            .......OoX",
"ooo.......                                            .......Ooo",
"..........                                            ..........",
"OOOOOOOO..                                            ..@OOOOOOO",
"oooooooo..                                            ..Oooooooo",
"oooooOXo..                                            ..OoOXoooo",
"oooooX.o..                                            ..OoX.oooo",
"oooooooo..                                            ..Oooooooo",
"oooooooo..                                            ..Oooooooo",
"oooooooo..                                            ..Oooooooo",
"oooooooo..                                            ..Oooooooo",
"oooooooo..                                            ..Oooooooo",
"oooooooo..                                            ..Oooooooo",
"oooooOXo..                                            ..OoOXoooo",
"oooooX.o..                                            ..OoX.oooo",
"oooooooo..                                            ..Oooooooo",
"..........                                            ..........",
"OOOOOOOO..                                            ..OOOOOOOO",
"oooooooo..                                            ..oooooooo",
"oooooooo..                                            ..oooooooo",
"oooooooo..                                            ..oooooooo",
"oooooooo..                                            ..oooooooo",
"oooooooo..                                            ..oooooooo",
"oooooooo..                                            ..oooooooo",
"..........                                            .........."
};
