/* XPM */
static char *_5f23ec6dd794f8d94eaa7eee521142c783CE9cZ61tt4BA1[] = {
/* columns rows colors chars-per-pixel */
"64 64 5 1 ",
"  c None",
". c gray20",
"X c #535353",
"o c #777777",
"O c gray53",
/* pixels */
"oo                                                            oo",
"X.                                                            .X",
"X.                                                            .X",
"..                                                            ..",
"..                                                            ..",
"..                                                            ..",
"..                                                            ..",
"..                                                            ..",
"..                                                            ..",
"..                                                            ..",
"..                                                            ..",
"..                                                            ..",
"..                                                            ..",
"..                                                            ..",
"..                                                            ..",
"..                                                            ..",
"..                                                            ..",
"..                                                            ..",
"..                                                            ..",
"..                                                            ..",
"..                                                            ..",
"..                                                            ..",
"..                                                            ..",
"..                                                            ..",
"..                                                            ..",
"..                                                            ..",
"..                                                            .O",
"..                                                            .o",
"..                                                            .o",
"..                                                            .o",
"..                                                            .o",
"..                                                            .o",
"..                                                            .o",
"..                                                            .o",
"..                                                            .o",
"..                                                            .o",
"..                                                            .o",
"..                                                            .o",
"..                                                            .o",
"..                                                            ..",
"..                                                            ..",
"..                                                            ..",
"..                                                            ..",
"..                                                            ..",
"..                                                            ..",
"..                                                            ..",
"..                                                            ..",
"..                                                            ..",
"..                                                            ..",
"..                                                            ..",
"..                                                            ..",
"..                                                            ..",
"..                                                            ..",
"..                                                            ..",
"..                                                            ..",
"..                                                            ..",
"..                                                            ..",
"..                                                            ..",
"..                                                            ..",
"..                                                            ..",
"..                                                            ..",
"..                                                            ..",
"..                                                            ..",
"..                                                            .."
};
