/* XPM */
static char *_06494423f2d4a148b50796b754a2c8eBjFHdQzOXbe8gjnf[] = {
/* columns rows colors chars-per-pixel */
"64 64 3 1 ",
"  c #000000",
". c #f08080",
"X c #000000",
/* pixels */
"XXXXXXXXXXXXXXXXXXXXXXXXXXXXXXXXXXXXXXXXXXXXXXXXXXXXXXXXXXXXXXXX",
"XXXXXXXXXXXXXXXXXXXXXXXXXXXXXXXXXXXXXXXXXXXXXXXXXXXXXXXXXXXXXXXX",
"...........XX..............XX..............XX..............XX...",
"          .XX.            .XX.            .XX.            .XX.  ",
"          .XX.            .XX.            .XX.            .XX.  ",
"          .XX.            .XX.            .XX.            .XX.  ",
"...........XX..............XX..............XX..............XX...",
"XXXXXXXXXXXXXXXXXXXXXXXXXXXXXXXXXXXXXXXXXXXXXXXXXXXXXXXXXXXXXXXX",
"XXXXXXXXXXXXXXXXXXXXXXXXXXXXXXXXXXXXXXXXXXXXXXXXXXXXXXXXXXXXXXXX",
"...XX..............XX..............XX..............XX...........",
"  .XX.            .XX.            .XX.            .XX.          ",
"  .XX.            .XX.            .XX.            .XX.          ",
"  .XX.            .XX.            .XX.            .XX.          ",
"...XX..............XX..............XX..............XX...........",
"XXXXXXXXXXXXXXXXXXXXXXXXXXXXXXXXXXXXXXXXXXXXXXXXXXXXXXXXXXXXXXXX",
"XXXXXXXXXXXXXXXXXXXXXXXXXXXXXXXXXXXXXXXXXXXXXXXXXXXXXXXXXXXXXXXX",
"...........XX..............XX..............XX..............XX...",
"          .XX.            .XX.            .XX.            .XX.  ",
"          .XX.            .XX.            .XX.            .XX.  ",
"          .XX.            .XX.            .XX.            .XX.  ",
"...........XX..............XX..............XX..............XX...",
"XXXXXXXXXXXXXXXXXXXXXXXXXXXXXXXXXXXXXXXXXXXXXXXXXXXXXXXXXXXXXXXX",
"XXXXXXXXXXXXXXXXXXXXXXXXXXXXXXXXXXXXXXXXXXXXXXXXXXXXXXXXXXXXXXXX",
"...XX..............XX..............XX..............XX...........",
"  .XX.            .XX.            .XX.            .XX.          ",
"  .XX.            .XX.            .XX.            .XX.          ",
"  .XX.            .XX.            .XX.            .XX.          ",
"...XX..............XX..............XX..............XX...........",
"XXXXXXXXXXXXXXXXXXXXXXXXXXXXXXXXXXXXXXXXXXXXXXXXXXXXXXXXXXXXXXXX",
"XXXXXXXXXXXXXXXXXXXXXXXXXXXXXXXXXXXXXXXXXXXXXXXXXXXXXXXXXXXXXXXX",
"...........XX..............XX..............XX..............XX...",
"          .XX.            .XX.            .XX.            .XX.  ",
"          .XX.            .XX.            .XX.            .XX.  ",
"          .XX.            .XX.            .XX.            .XX.  ",
"...........XX..............XX..............XX..............XX...",
"XXXXXXXXXXXXXXXXXXXXXXXXXXXXXXXXXXXXXXXXXXXXXXXXXXXXXXXXXXXXXXXX",
"XXXXXXXXXXXXXXXXXXXXXXXXXXXXXXXXXXXXXXXXXXXXXXXXXXXXXXXXXXXXXXXX",
"...XX..............XX..............XX..............XX...........",
"  .XX.            .XX.            .XX.            .XX.          ",
"  .XX.            .XX.            .XX.            .XX.          ",
"  .XX.            .XX.            .XX.            .XX.          ",
"...XX..............XX..............XX..............XX...........",
"XXXXXXXXXXXXXXXXXXXXXXXXXXXXXXXXXXXXXXXXXXXXXXXXXXXXXXXXXXXXXXXX",
"XXXXXXXXXXXXXXXXXXXXXXXXXXXXXXXXXXXXXXXXXXXXXXXXXXXXXXXXXXXXXXXX",
"...........XX..............XX..............XX..............XX...",
"          .XX.            .XX.            .XX.            .XX.  ",
"          .XX.            .XX.            .XX.            .XX.  ",
"          .XX.            .XX.            .XX.            .XX.  ",
"...........XX..............XX..............XX..............XX...",
"XXXXXXXXXXXXXXXXXXXXXXXXXXXXXXXXXXXXXXXXXXXXXXXXXXXXXXXXXXXXXXXX",
"XXXXXXXXXXXXXXXXXXXXXXXXXXXXXXXXXXXXXXXXXXXXXXXXXXXXXXXXXXXXXXXX",
"...XX..............XX..............XX..............XX...........",
"  .XX.            .XX.            .XX.            .XX.          ",
"  .XX.            .XX.            .XX.            .XX.          ",
"  .XX.            .XX.            .XX.            .XX.          ",
"...XX..............XX..............XX..............XX...........",
"XXXXXXXXXXXXXXXXXXXXXXXXXXXXXXXXXXXXXXXXXXXXXXXXXXXXXXXXXXXXXXXX",
"XXXXXXXXXXXXXXXXXXXXXXXXXXXXXXXXXXXXXXXXXXXXXXXXXXXXXXXXXXXXXXXX",
"...........XX..............XX..............XX..............XX...",
"          .XX.            .XX.            .XX.            .XX.  ",
"          .XX.            .XX.            .XX.            .XX.  ",
"          .XX.            .XX.            .XX.            .XX.  ",
"...........XX..............XX..............XX..............XX...",
"XXXXXXXXXXXXXXXXXXXXXXXXXXXXXXXXXXXXXXXXXXXXXXXXXXXXXXXXXXXXXXXX"
};
