/* XPM */
static char *_c88d7c0c0b444b3b0495e0a24ed5b5cvljD1rHJyO45kaeN[] = {
/* columns rows colors chars-per-pixel */
"64 64 2 1 ",
"  c #273E6B",
". c #5F576B",
/* pixels */
"................................................................",
"................................................................",
"           ..              ..              ..              ..   ",
"           ..              ..              ..              ..   ",
"           ..              ..              ..              ..   ",
"           ..              ..              ..              ..   ",
"           ..              ..              ..              ..   ",
"................................................................",
"................................................................",
"   ..              ..              ..              ..           ",
"   ..              ..              ..              ..           ",
"   ..              ..              ..              ..           ",
"   ..              ..              ..              ..           ",
"   ..              ..              ..              ..           ",
"................................................................",
"................................................................",
"           ..              ..              ..              ..   ",
"           ..              ..              ..              ..   ",
"           ..              ..              ..              ..   ",
"           ..              ..              ..              ..   ",
"           ..              ..              ..              ..   ",
"................................................................",
"................................................................",
"   ..              ..              ..              ..           ",
"   ..              ..              ..              ..           ",
"   ..              ..              ..              ..           ",
"   ..              ..              ..              ..           ",
"   ..              ..              ..              ..           ",
"................................................................",
"................................................................",
"           ..              ..              ..              ..   ",
"           ..              ..              ..              ..   ",
"           ..              ..              ..              ..   ",
"           ..              ..              ..              ..   ",
"           ..              ..              ..              ..   ",
"................................................................",
"................................................................",
"   ..              ..              ..              ..           ",
"   ..              ..              ..              ..           ",
"   ..              ..              ..              ..           ",
"   ..              ..              ..              ..           ",
"   ..              ..              ..              ..           ",
"................................................................",
"................................................................",
"           ..              ..              ..              ..   ",
"           ..              ..              ..              ..   ",
"           ..              ..              ..              ..   ",
"           ..              ..              ..              ..   ",
"           ..              ..              ..              ..   ",
"................................................................",
"................................................................",
"   ..              ..              ..              ..           ",
"   ..              ..              ..              ..           ",
"   ..              ..              ..              ..           ",
"   ..              ..              ..              ..           ",
"   ..              ..              ..              ..           ",
"................................................................",
"................................................................",
"           ..              ..              ..              ..   ",
"           ..              ..              ..              ..   ",
"           ..              ..              ..              ..   ",
"           ..              ..              ..              ..   ",
"           ..              ..              ..              ..   ",
"................................................................"
};
