/* XPM */
static char *d19d1b3cd5cb41bef194a7a898637d0fzIwkRXR7eif16oIb[] = {
/* columns rows colors chars-per-pixel */
"32 32 27 1 ",
"  c #8A15C1",
". c #B99F93",
"X c #BAA093",
"o c #B9A094",
"O c #BCA497",
"+ c #C6A69B",
"@ c #C7A89D",
"# c #C7B5A8",
"$ c #CBB7AA",
"% c #C9B8AA",
"& c #CAB9AC",
"* c #CBBDAF",
"= c #CCBCAE",
"- c #CDBFB2",
"; c #CDC0B1",
": c #CFC2B6",
"> c #CBC7B7",
", c #CCC7B7",
"< c #CBC7B8",
"1 c #CCC7B8",
"2 c #C9C8B8",
"3 c #D3C3B5",
"4 c #D4C3B6",
"5 c #D0C5B7",
"6 c #D4C4B6",
"7 c #D1C3B8",
"8 c #D1C4B8",
/* pixels */
"     -      :      :      :     ",
"     ;      ,      ,      :     ",
"     ;      ,      ,      :     ",
"44444544444454444445444444544444",
" *      &      3      5      6  ",
" *      &      3      5      5  ",
" *      &      3      5      5  ",
"11<,,>>21<>,>>21>>,>>21>>,>>,,>>",
"    3      5      5      ,      ",
"    3      5      6      ,      ",
"    3      5      6      ,      ",
"37771877778,878777,7787781778778",
",      ,      ,      ,      8   ",
",      ,      1      1      8   ",
",      ,      1      1      8   ",
",,,,,,,5,,,,,,5,,,,,,5,,,,,55,,,",
"   1      ,      ,      5      5",
"   8      ,      ,      5      5",
"   8      ,      ,      5      5",
",55555,555555,555555,555555,5555",
"      5      5      5      =    ",
"      ,      5      5      &    ",
"      5      5      5      &    ",
"$$$$$$,$$$$$$5$$$$$$5$$$$$$,$$$$",
"  3      3      &      =      - ",
"  3      3      #      %      * ",
"  3      3      #      %      * ",
"+@5+++++@5++++++;++++++:++++++:+",
"     ;      ,      ,      :     ",
"     ;      ,      ,      :     ",
"     ;      ,      ,      :     ",
".XXXo,oXXXXX,oXXXXX,oXXXXX,OXXXX"
};
