/* XPM */
static char *_661a80bbaab4b65c3924c87e9527c42NQcIPCMGD9bX5ISD[] = {
/* columns rows colors chars-per-pixel */
"32 32 2 1 ",
"  c #6F2929",
". c #7B7981",
/* pixels */
"     .      .      .      .     ",
"     .      .      .      .     ",
"     .      .      .      .     ",
"................................",
" .      .      .      .      .  ",
" .      .      .      .      .  ",
" .      .      .      .      .  ",
"................................",
"    .      .      .      .      ",
"    .      .      .      .      ",
"    .      .      .      .      ",
"................................",
".      .      .      .      .   ",
".      .      .      .      .   ",
".      .      .      .      .   ",
"................................",
"   .      .      .      .      .",
"   .      .      .      .      .",
"   .      .      .      .      .",
"................................",
"      .      .      .      .    ",
"      .      .      .      .    ",
"      .      .      .      .    ",
"................................",
"  .      .      .      .      . ",
"  .      .      .      .      . ",
"  .      .      .      .      . ",
"................................",
"     .      .      .      .     ",
"     .      .      .      .     ",
"     .      .      .      .     ",
"................................"
};
